/* XPM */
static char * gc\rect_xpm[] = {
"32 32 39 1",
" 	c Black",
".	c #6d6d6d",
"X	c Gray51",
"o	c Gray50",
"O	c #8e8e8e",
"+	c #565656",
"@	c Gray61",
"#	c Gray100",
"$	c #efefef",
"%	c #dfdfdf",
"&	c #bcbcbc",
"*	c #060606",
"=	c #353535",
"-	c #131313",
";	c #1b1b1b",
":	c Gray8",
">	c #161616",
",	c #181818",
"<	c #252525",
"1	c Gray27",
"2	c #414141",
"3	c #2c2c2c",
"4	c #101010",
"5	c Gray10",
"6	c #373737",
"7	c #515151",
"8	c #535353",
"9	c #4c4c4c",
"0	c Gray28",
"q	c #505050",
"w	c Gray29",
"e	c #464646",
"r	c #555555",
"t	c Gray31",
"y	c #5b5b5b",
"u	c Gray40",
"i	c #3f3f3f",
"p	c #0e0e0e",
"a	c #606060",
"                                ",
"                                ",
"                                ",
"                                ",
"                                ",
"                                ",
"                                ",
"                                ",
"                                ",
"       .XooooooooooooooooO+     ",
"      @##################$      ",
"     @##################%       ",
"    &##################%        ",
"   *=-;;;;:;;;>;;;;,;;<         ",
"     1    2   3    4   56       ",
"     +    7   8    +    9       ",
"    0     q   q    w    e       ",
"    r     t   t     y    u      ",
"   ip     a   y     8           ",
"   5                            ",
"                                ",
"                                ",
"                                ",
"                                ",
"                                ",
"                                ",
"                                ",
"                                ",
"                                ",
"                                ",
"                                ",
"                                "};
