/* XPM */
static char * gc\place_env_xpm[] = {
"32 32 220 2",
"  	c Gray100",
". 	c #7a7aff",
"X 	c #6262ff",
"o 	c #8d8dff",
"O 	c #0e0eff",
"+ 	c #c9c9ff",
"@ 	c #e6e6ff",
"# 	c #ededff",
"$ 	c #3333ff",
"% 	c #7979ff",
"& 	c #5d5dff",
"* 	c #c5c5ff",
"= 	c #c5c5c5",
"- 	c #6d6d6d",
"; 	c Gray59",
": 	c #cbcbcb",
"> 	c Gray45",
", 	c Gray47",
"< 	c #6767ff",
"1 	c #5757ff",
"2 	c #f6f6ff",
"3 	c #4646ff",
"4 	c #9898ff",
"5 	c #bdbdff",
"6 	c #a5a5ff",
"7 	c #3d3dff",
"8 	c #ccccff",
"9 	c #d0d0d0",
"0 	c Black",
"q 	c #6a6a6a",
"w 	c gainsboro",
"e 	c #929284",
"r 	c #ececff",
"t 	c #2f2fff",
"y 	c #f1f1ff",
"u 	c #9595ff",
"i 	c #c0c0ff",
"p 	c #3e3eff",
"a 	c #7e7eff",
"s 	c #6161ff",
"d 	c #b7b7b7",
"f 	c Gray17",
"g 	c #aaaaaa",
"h 	c #555544",
"j 	c #d1d1ff",
"k 	c #5a5aff",
"l 	c #3f3fff",
"z 	c #f4f4ff",
"x 	c #6868ff",
"c 	c #dedeff",
"v 	c #3232ff",
"b 	c #b4b4f6",
"n 	c #7474ff",
"m 	c #a4a4ff",
"M 	c #bebeff",
"N 	c #4b4bff",
"B 	c #fcfcff",
"V 	c #bfbfbb",
"C 	c #696974",
"Z 	c #5858ff",
"A 	c #efefef",
"S 	c #4e4eff",
"D 	c #b9b9ff",
"F 	c #adadff",
"G 	c #5353ff",
"H 	c #797978",
"J 	c #5b5bff",
"K 	c #5252ff",
"L 	c #b4b4ff",
"P 	c #4b4b4b",
"I 	c #777777",
"U 	c #d7d7d0",
"Y 	c #474783",
"T 	c #b0b0ff",
"R 	c #3b3bff",
"E 	c #4343ff",
"W 	c Gray89",
"Q 	c #636361",
"! 	c #6060ef",
"~ 	c #f9f9ff",
"^ 	c #eaeaff",
"/ 	c #ebebff",
"( 	c #f0f0ff",
") 	c #7373ff",
"_ 	c #dbdbff",
"` 	c #8585ff",
"' 	c #a0a0ff",
"] 	c #c2c2ff",
"[ 	c #717168",
"{ 	c #2323ff",
"} 	c #5c5cff",
"| 	c #7171ff",
" .	c #8484ff",
"..	c #8282ff",
"X.	c #8383ff",
"o.	c #8181ff",
"O.	c #3131ff",
"+.	c #f5f5ff",
"@.	c #4848ff",
"#.	c #4f4fff",
"$.	c #5656ff",
"%.	c #1111b2",
"&.	c #d2d2ff",
"*.	c #6060ff",
"=.	c #f3f3ff",
"-.	c #6565ff",
";.	c #8e8eff",
":.	c #d8d8ff",
">.	c #5555ff",
",.	c #b8b8ff",
"<.	c #3939ff",
"1.	c #686859",
"2.	c #fffffb",
"3.	c #e9e9ff",
"4.	c #6f6fff",
"5.	c #6b6bff",
"6.	c #dcdcff",
"7.	c #b1b1ff",
"8.	c #9494ff",
"9.	c #606060",
"0.	c #5e5eff",
"q.	c #e1e1ff",
"w.	c #2a2aff",
"e.	c #636360",
"r.	c #3c3cff",
"t.	c #9999ff",
"y.	c #fafaff",
"u.	c #e2e2ff",
"i.	c Blue",
"p.	c #9292ff",
"a.	c #fbfbff",
"s.	c #c7c7ff",
"d.	c #5f5fff",
"f.	c #aeaeff",
"g.	c #626260",
"h.	c #7d7dff",
"j.	c #6363ff",
"k.	c #9b9bff",
"l.	c #1f1fff",
"z.	c #ddddff",
"x.	c #cbcbff",
"c.	c #6d6dff",
"v.	c #ceceff",
"b.	c #7272ff",
"n.	c #6464ff",
"m.	c #5050ff",
"M.	c #5959ff",
"N.	c #6d6d58",
"B.	c #7070ff",
"V.	c #9a9aff",
"C.	c #7575ff",
"Z.	c #9090ff",
"A.	c #1414c3",
"S.	c #6a6aff",
"D.	c #9696ff",
"F.	c #3636ff",
"G.	c #4c4cff",
"H.	c #696958",
"J.	c #6e6eff",
"K.	c #5555fd",
"L.	c #7979fd",
"P.	c #2828fd",
"I.	c #7878ff",
"U.	c #cdcdff",
"Y.	c #ababff",
"T.	c #4444ff",
"R.	c #3030ff",
"E.	c #fffff8",
"W.	c #fffffd",
"Q.	c Gray53",
"!.	c #b3b3ff",
"~.	c #dfdfff",
"^.	c Gray36",
"/.	c #50504b",
"(.	c #e9e9eb",
").	c #4141ff",
"_.	c #9e9eff",
"`.	c #8d8d8d",
"'.	c #5b5b5b",
"].	c #63635b",
"[.	c #474791",
"{.	c #3c3c8c",
"}.	c #64645b",
"|.	c #5f5f5f",
" X	c #6d6d56",
".X	c #0e0ec7",
"XX	c #707056",
"oX	c #676761",
"OX	c #78786c",
"+X	c #0000bb",
"@X	c #8080ff",
"#X	c #2b2bec",
"$X	c #2f2f2e",
"%X	c #eeeeee",
"&X	c Gray16",
"*X	c #afafff",
"=X	c #3535ff",
"-X	c #acacff",
";X	c #0000b2",
":X	c #fdfde7",
">X	c #cececd",
",X	c #2a2a2a",
"<X	c Gray80",
"1X	c #d5d5ff",
"2X	c #4040ff",
"3X	c #a7a7ff",
"4X	c #afafaf",
"5X	c #2f2f2f",
"6X	c #b1b1b1",
"7X	c #343434",
"8X	c #eeeeff",
"9X	c #2020ff",
"0X	c #7777ff",
"qX	c #4a4aff",
"wX	c #f3f3f3",
"eX	c Gray1",
"rX	c #c0c0c0",
"tX	c #d7d7ff",
"yX	c #e7e7e7",
"uX	c #fdfdfd",
"                    . X o O + @ # . $ % & *                     ",
"= - ; : > ,     < 1 2   3           4 5   6 7 8                 ",
"9 0 q w 0 e r t y     u i             p       a s               ",
"  d f g h j k         l               z x       c v             ",
"    0 0 b n         m M                 N         B v           ",
"    V C Z     A     S                   D F         @ G         ",
"      l       0 H   J                     K           u L       ",
"    o 8     P I U Y T                     Z             R       ",
"    E     W   Q   !       ~ ^ / / (       )             _ `     ",
"  ' ]         [ ] { s } k |  ...X.o.& Z s O.) +.          @.    ",
"  #.      m $.%.&.*.                      =.-.X.N %       ;.:.  ",
"  >.  ,.<.M   1.  k 2.                      &     3.1 4.  B 5.  ",
"6.7.5.8.      9.  0.                        *.        q.w.  &   ",
"T <.j         e.B a                         }             r.|   ",
"t.4.          e.y.X.                        *.            u.i.  ",
"p.&.          e.a...                        *.              i.  ",
"p.s.          e.y.X.                        d.              i.  ",
"f.t           g.  h.                        j.            k.l.  ",
"z.>.%         9.  0.                        d.          x.n c.  ",
"  x v.7       9.  1                         }         b.c.  n.  ",
"  m.    1 M.# N.  B.                      u.V.    C.E 6.  V.8   ",
"  Z.&.      Z.A.S.<.~                     D.F.J X #       @.    ",
"    G.        H.  < J.} } } d.d.d.j.*.K.L.P.            ^ %     ",
"    I.q.      9.  U.Y.                    0.            T.      ",
"      R.      9.    Z                   E.$.W.  Q.    !.V.      ",
"      ~.J     ^.    M.                  7.+       /.(.).        ",
"        _.;.  `.'.].[.{.}.|.|.|.|.|.|. X.XXX|.|.oXOX+X          ",
"          Z.%         3               z @X        #X0 $X%X0 &X  ",
"            i r.      *X6             =X      -X;X:X>X,X  <X,X  ",
"                K 4.    >.=.        . 1X  v.2X3X    4X5X  6X7X  ",
"                  8X>.m.f.9Xf.    >.X 0XqXu         wX0 eX0 0 rX",
"                        tXY.I.4.4.;.M                   yX  uX  "};
