/* XPM */
static char * gc\dome_xpm[] = {
"32 32 116 2",
"  	c Gray100",
". 	c #cacaca",
"X 	c #a4a4a4",
"o 	c #a5a5a5",
"O 	c #acacac",
"+ 	c Gray94",
"@ 	c #8b8b8b",
"# 	c #676767",
"$ 	c Black",
"% 	c #5f5f5f",
"& 	c #c0c0c0",
"* 	c #cecece",
"= 	c #a2a2a2",
"- 	c #161616",
"; 	c #070707",
": 	c Gray42",
"> 	c #e2e2e2",
", 	c #434343",
"< 	c #e4e4e4",
"1 	c Gray25",
"2 	c Gray99",
"3 	c #989898",
"4 	c #898989",
"5 	c #979797",
"6 	c #494949",
"7 	c #414141",
"8 	c #afafaf",
"9 	c #343434",
"0 	c Gray61",
"q 	c Gray68",
"w 	c #3c3c3c",
"e 	c #c1c1c1",
"r 	c Gray16",
"t 	c #f8f8f8",
"y 	c Gray87",
"u 	c Gray32",
"i 	c #f3f3f3",
"p 	c Gray47",
"a 	c Gray57",
"s 	c #626262",
"d 	c Gray54",
"f 	c Gray64",
"g 	c Gray24",
"h 	c #505050",
"j 	c #5b5b5b",
"k 	c #dfdfdf",
"l 	c #9a9a9a",
"z 	c Gray70",
"x 	c Gray38",
"c 	c #4e4e4e",
"v 	c Gray19",
"b 	c Gray46",
"n 	c Gray93",
"m 	c #606060",
"M 	c #e9e9e9",
"N 	c #6c6c6c",
"B 	c #515151",
"V 	c Gray81",
"C 	c #959595",
"Z 	c #585858",
"A 	c DimGray",
"S 	c Gray98",
"D 	c #656565",
"F 	c #797979",
"G 	c #eaeaea",
"H 	c Gray66",
"J 	c Gray74",
"K 	c #4b4b4b",
"L 	c Gray31",
"P 	c Gray37",
"I 	c Gray48",
"U 	c #eeeeee",
"Y 	c #b9b9b9",
"T 	c #f1f1f1",
"R 	c #747474",
"E 	c Gray36",
"W 	c #b7b7b7",
"Q 	c #b4b4b4",
"! 	c Gray86",
"~ 	c Gray35",
"^ 	c #535353",
"/ 	c #6f6f6f",
"( 	c #cbcbcb",
") 	c #7b7b7b",
"_ 	c #3f3f3f",
"` 	c Gray23",
"' 	c #555555",
"] 	c #727272",
"[ 	c Gray43",
"{ 	c #fdfdfd",
"} 	c #5d5d5d",
"| 	c Gray28",
" .	c #151515",
"..	c Gray51",
"X.	c #dadada",
"o.	c Gray73",
"O.	c #6d6d6d",
"+.	c Gray22",
"@.	c #0c0c0c",
"#.	c #090909",
"$.	c #868686",
"%.	c #f9f9f9",
"&.	c #8e8e8e",
"*.	c Gray55",
"=.	c Gray9",
"-.	c #cdcdcd",
";.	c #909090",
":.	c #777777",
">.	c Gray14",
",.	c #010101",
"<.	c Gray72",
"1.	c Gray67",
"2.	c Gray11",
"3.	c Gray12",
"4.	c #1d1d1d",
"5.	c #353535",
"                                                                ",
"                            . X o O +                           ",
"                      @ # $ % & * = - ; : >                     ",
"                  = , < 1 2           3 4 5 6                   ",
"                7 8   9                 0 q   w e               ",
"              r t   : y                   u i   p a             ",
"            r     i s                       1     d f           ",
"          g 2     h                         a *     j k         ",
"        l z       x                           c       v         ",
"        ,       b n                           m       M N       ",
"      % 2       B                             V C       u       ",
"      Z         x                               A       S D     ",
"    F G       H J                               u         K     ",
"    L         P                                 I U       Y q   ",
"  T R         E                                 W Q         u   ",
"  d !         ~                                 n I         ^   ",
"  A           /   ( l ) % w _ 1 ` 1 g ' ] a W +   D         [ { ",
"  }     { 5 | $ $ $ $ $ $ $ $ $ $ $ $ $ $ $ $ $ $  ...X.    Y o.",
"  O.2 +.$ $ $ $ $ $ $ $ $ $ $ $ $ $ $ $ $ $ $ $ $ $ $ $ @.W   C ",
"  #.$ $ $ $ $ $ $ $ $ $ $ $ $ $ $ $ $ $ $ $ $ $ $ $ $ $ $ $ _ $.",
"%.$ $ $ $ $ $ $ $ $ $ $ $ $ $ $ $ $ $ $ $ $ $ $ $ $ $ $ $ $ $ &.",
"n $ $ $ $ $ $ $ $ $ $ $ $ $ $ $ $ $ $ $ $ $ $ $ $ $ $ $ $ $ $ *.",
"  6 $ $ $ $ $ $ $ $ $ $ $ $ $ $ $ $ $ $ $ $ $ $ $ $ $ $ $ $ =.  ",
"    -. .$ $ $ $ $ $ $ $ $ $ $ $ $ $ $ $ $ $ $ $ $ $ $ $ $ ;.    ",
"        y :.>.$ $ $ $ $ $ $ $ $ $ $ $ $ $ $ $ $ $ ,.% <.        ",
"                k 1.I E 1 2.3.3.3.3.4.5.u ] 5 V                 ",
"                                                                ",
"                                                                ",
"                                                                ",
"                                                                ",
"                                                                ",
"                                                                "};
