/* XPM */
static char * gc\mtl_xpm[] = {
"32 32 486 2",
"  	c #282828",
". 	c #292722",
"X 	c #292723",
"o 	c #282725",
"O 	c #282621",
"+ 	c #29251b",
"@ 	c #2a2415",
"# 	c #1d2d54",
"$ 	c #1e2d4f",
"% 	c #1d2b4e",
"& 	c #232732",
"* 	c #2a261b",
"= 	c #292721",
"- 	c #292824",
"; 	c #29261e",
": 	c #232934",
"> 	c #213056",
", 	c #163d9d",
"< 	c #173f9c",
"1 	c #193e96",
"2 	c #193d93",
"3 	c #183b8f",
"4 	c #16388a",
"5 	c #123383",
"6 	c #172d5f",
"7 	c #1b253f",
"8 	c #2b271e",
"9 	c #282826",
"0 	c #2a2417",
"q 	c #203059",
"w 	c #1942a6",
"e 	c #1c44a3",
"r 	c #1d439f",
"t 	c #1d429d",
"y 	c #1c419a",
"u 	c #1b3f96",
"i 	c #1a3d90",
"p 	c #193989",
"a 	c #173683",
"s 	c #13317a",
"d 	c #152858",
"f 	c #23262b",
"g 	c #292825",
"h 	c #2a2313",
"j 	c #1c3b85",
"k 	c #1c45aa",
"l 	c #1e46a5",
"z 	c #1f46a8",
"x 	c #2048a8",
"c 	c #1f48a7",
"v 	c #2047a5",
"b 	c #1f46a1",
"n 	c #1e439e",
"m 	c #1d4198",
"M 	c #1b3e91",
"N 	c #193a89",
"B 	c #173681",
"V 	c #143177",
"C 	c #0c2769",
"Z 	c #24262b",
"A 	c #1c3c87",
"S 	c #1d46aa",
"D 	c #2048aa",
"F 	c #214aad",
"G 	c #224cae",
"H 	c #234cae",
"J 	c #234bae",
"K 	c #224bab",
"L 	c #2149a7",
"P 	c #2046a3",
"I 	c #1f449e",
"U 	c #1b3d8f",
"Y 	c #193988",
"T 	c #17347d",
"R 	c #142f71",
"E 	c #0b2563",
"W 	c #24252a",
"Q 	c #292826",
"! 	c #29251a",
"~ 	c #1b3a83",
"^ 	c #1e46ab",
"/ 	c #2049ac",
"( 	c #234cb0",
") 	c #244eb3",
"_ 	c #254eb4",
"` 	c #2550b4",
"' 	c #254fb3",
"] 	c #264eb0",
"[ 	c #244bac",
"{ 	c #2249a8",
"} 	c #2046a2",
"| 	c #1f439b",
" .	c #1d3f94",
"..	c #1b3b8c",
"X.	c #183783",
"o.	c #163277",
"O.	c #122c6a",
"+.	c #092057",
"@.	c #222427",
"#.	c #282827",
"$.	c #282724",
"%.	c #252a34",
"&.	c #1b46ae",
"*.	c #2048ab",
"=.	c #234cb1",
"-.	c #254fb6",
";.	c #2751b9",
":.	c #2954bb",
">.	c #2b55ba",
",.	c #2b54bb",
"<.	c #2a53b6",
"1.	c #2850b2",
"2.	c #254cac",
"3.	c #2248a6",
"4.	c #20449e",
"5.	c #1d4097",
"6.	c #1c3d8f",
"7.	c #193987",
"8.	c #17347b",
"9.	c #142e6f",
"0.	c #0f2760",
"q.	c #111d3e",
"w.	c #2c2a24",
"e.	c #1741a7",
"r.	c #1f48a9",
"t.	c #224bb0",
"y.	c #2752b9",
"u.	c #2a56be",
"i.	c #2f5ac2",
"p.	c #335dc4",
"a.	c #345ec4",
"s.	c #325cc0",
"d.	c #2f56b8",
"f.	c #2a51b1",
"g.	c #254ba8",
"h.	c #2147a1",
"j.	c #1f4299",
"k.	c #1c3e91",
"l.	c #193a88",
"z.	c #18357f",
"x.	c #143072",
"c.	c #122963",
"v.	c #0b2050",
"b.	c #161a26",
"n.	c #2a2927",
"m.	c #242a38",
"M.	c #1b45aa",
"N.	c #234db4",
"B.	c #2651b9",
"V.	c #2b56be",
"C.	c #325dc5",
"Z.	c #3a65cd",
"A.	c #436ed4",
"S.	c #4770d8",
"D.	c #436cd0",
"F.	c #3962c4",
"G.	c #3058b8",
"H.	c #294fac",
"J.	c #2349a3",
"K.	c #1f449a",
"L.	c #1c3e92",
"P.	c #1b3b89",
"I.	c #17357f",
"U.	c #163174",
"Y.	c #132b67",
"T.	c #0e2356",
"R.	c #0f1932",
"E.	c #2a2926",
"W.	c #22325a",
"Q.	c #1d47ab",
"!.	c #244eb5",
"~.	c #2f5ac3",
"^.	c #3a66ce",
"/.	c #4d78e1",
"(.	c #638ef8",
").	c #6e98fd",
"_.	c #628cf4",
"`.	c #4d75d8",
"'.	c #3961c1",
"].	c #2d53b0",
"[.	c #264ba5",
"{.	c #20449b",
"}.	c #1e4091",
"|.	c #1a3a89",
" X	c #193780",
".X	c #163274",
"XX	c #132c68",
"oX	c #0f2457",
"OX	c #06163d",
"+X	c #2d2b25",
"@X	c #173fa2",
"#X	c #1f47a6",
"$X	c #214caf",
"%X	c #2b55bc",
"&X	c #345fc7",
"*X	c #4671d9",
"=X	c #6a95fe",
"-X	c #9ecaff",
";X	c #beedff",
":X	c #9dc7ff",
">X	c #6991f6",
",X	c #456ccb",
"<X	c #3258b4",
"1X	c #264ca5",
"2X	c #21459b",
"3X	c #1d4092",
"4X	c #1a3b88",
"5X	c #193580",
"6X	c #102559",
"7X	c #0a1941",
"8X	c #141821",
"9X	c #2a2928",
"0X	c #1840a1",
"qX	c #1f46a6",
"wX	c #234baf",
"eX	c #254fb5",
"rX	c #2b56bc",
"tX	c #3661c8",
"yX	c #4f7ae3",
"uX	c #85b1ff",
"iX	c #e6ffff",
"pX	c Gray100",
"aX	c #e2ffff",
"sX	c #82acff",
"dX	c #4d74d4",
"fX	c #345ab5",
"gX	c #284da5",
"hX	c #21449a",
"jX	c #1e3e90",
"kX	c #1b3a87",
"lX	c #17357d",
"zX	c #163172",
"xX	c #102457",
"cX	c #0a1942",
"vX	c #171b25",
"bX	c #1841a0",
"nX	c #1f46a4",
"mX	c #214aac",
"MX	c #264fb3",
"NX	c #2a54bb",
"BX	c #3660c6",
"VX	c #4f79e2",
"CX	c #89b4ff",
"ZX	c #efffff",
"AX	c #eaffff",
"SX	c #84adff",
"DX	c #4d73d2",
"FX	c #3459b4",
"GX	c #274ba3",
"HX	c #214498",
"JX	c #1c3e8e",
"KX	c #193984",
"LX	c #18347c",
"PX	c #142f70",
"IX	c #122a63",
"UX	c #0f2355",
"YX	c #081940",
"TX	c #183f9d",
"RX	c #1d44a2",
"EX	c #2149aa",
"WX	c #244db0",
"QX	c #335cc1",
"!X	c #4770d5",
"~X	c #acd7ff",
"^X	c #d0f9ff",
"/X	c #a8d1ff",
"(X	c #6b92f4",
")X	c #446ac5",
"_X	c #3055ad",
"`X	c #25499e",
"'X	c #204293",
"]X	c #1c3c8b",
"[X	c #193781",
"{X	c #173378",
"}X	c #142e6d",
"|X	c #122860",
" o	c #0e2151",
".o	c #08183c",
"Xo	c #161a23",
"oo	c #173c97",
"Oo	c #2047a6",
"+o	c #234bac",
"@o	c #274fb2",
"#o	c #2d56b9",
"$o	c #3a63c5",
"%o	c #4f77db",
"&o	c #759dfb",
"*o	c #678ef1",
"=o	c #4d73cf",
"-o	c #375db6",
";o	c #2a4ea5",
":o	c #234599",
">o	c #1e408f",
",o	c #1b3a86",
"<o	c #18357d",
"1o	c #11275c",
"2o	c #0d1f4d",
"3o	c #071536",
"4o	c #16191f",
"5o	c #2a261c",
"6o	c #14378f",
"7o	c #1c4197",
"8o	c #1f44a1",
"9o	c #2148a6",
"0o	c #2951b1",
"qo	c #2f57b7",
"wo	c #3960c0",
"eo	c #426ac9",
"ro	c #476dcb",
"to	c #4167c4",
"yo	c #375cb5",
"uo	c #2e51a8",
"io	c #25479c",
"po	c #204193",
"ao	c #1c3d8a",
"so	c #1a3781",
"do	c #152f6e",
"fo	c #0c1d47",
"go	c #06112e",
"ho	c #131416",
"jo	c #2a2a29",
"ko	c #292620",
"lo	c #193067",
"zo	c #1a3e94",
"xo	c #1d419a",
"co	c #1f45a0",
"vo	c #2147a5",
"bo	c #244ba9",
"no	c #284eac",
"mo	c #2c52b0",
"Mo	c #3056b2",
"No	c #3057b1",
"Bo	c #2f54ad",
"Vo	c #2a4fa6",
"Co	c #25489d",
"Zo	c #204394",
"Ao	c #1d3d8c",
"So	c #1a3984",
"Do	c #18357b",
"Fo	c #11275d",
"Go	c #0e214f",
"Ho	c #0a1a3f",
"Jo	c #030b21",
"Ko	c #201f1e",
"Lo	c #292928",
"Po	c #1d2a4a",
"Io	c #17398b",
"Uo	c #1b3e92",
"Yo	c #1d4299",
"To	c #1f449d",
"Ro	c #2248a3",
"Eo	c #254ba4",
"Wo	c #264aa4",
"Qo	c #264ba2",
"!o	c #23459a",
"~o	c #204294",
"^o	c #1d3d8d",
"/o	c #1b3a85",
"(o	c #19357d",
")o	c #173175",
"_o	c #142e6c",
"`o	c #122962",
"'o	c #0f2456",
"]o	c #0c1e47",
"[o	c #0a1635",
"{o	c #00000c",
"}o	c #2d2d2b",
"|o	c #2b2619",
" O	c #113281",
".O	c #1b3d91",
"XO	c #1d4195",
"oO	c #1e4199",
"OO	c #1f439a",
"+O	c #20449a",
"@O	c #204398",
"#O	c #1f4294",
"$O	c #1f3f90",
"%O	c #1a3a85",
"&O	c #19357e",
"*O	c #173376",
"=O	c #132a65",
"-O	c #102659",
";O	c #0e204c",
":O	c #0a1a3e",
">O	c #040e26",
",O	c #151516",
"<O	c #1c2844",
"1O	c #143582",
"2O	c #193887",
"3O	c #1a3c8b",
"4O	c #1b3e8f",
"5O	c #1d3f91",
"6O	c #1c3f90",
"7O	c #1d3d8e",
"8O	c #1b3d8b",
"9O	c #1b3b87",
"0O	c #193882",
"qO	c #18367d",
"wO	c #132b65",
"eO	c #11275b",
"rO	c #0e224f",
"tO	c #0b1b43",
"yO	c #081431",
"uO	c #000009",
"iO	c #2e2e2c",
"pO	c #2b271d",
"aO	c #152b5d",
"sO	c #15337b",
"dO	c #183681",
"fO	c #193985",
"gO	c #1a3a87",
"hO	c #1a3985",
"jO	c #193782",
"kO	c #18367e",
"lO	c #173479",
"zO	c #163173",
"xO	c #142d6c",
"cO	c #132a64",
"vO	c #11265b",
"bO	c #0e2251",
"nO	c #0c1c45",
"mO	c #091635",
"MO	c #000718",
"NO	c #222220",
"BO	c #23252a",
"VO	c #153173",
"CO	c #163378",
"ZO	c #17347c",
"AO	c #17357c",
"SO	c #163377",
"DO	c #152f6f",
"FO	c #132c69",
"GO	c #0e2150",
"HO	c #0c1c44",
"JO	c #091636",
"KO	c #030b1f",
"LO	c #050608",
"PO	c #2c2c2b",
"IO	c #242529",
"UO	c #0b235f",
"YO	c #122b6a",
"TO	c #142f6f",
"RO	c #122d68",
"EO	c #11285d",
"WO	c #0f2354",
"QO	c #0e1f4d",
"!O	c #0c1b41",
"~O	c #01091c",
"^O	c #2f2e2d",
"/O	c #222326",
"(O	c #112045",
")O	c #0d245b",
"_O	c #11275e",
"`O	c #11285f",
"'O	c #0e204d",
"]O	c #0c1d45",
"[O	c #0a183b",
"{O	c #07122d",
"}O	c #000311",
"|O	c Gray8",
" +	c #2d2d2c",
".+	c #2c2923",
"X+	c #181e2c",
"o+	c #03143a",
"O+	c #091c48",
"++	c #0b1c49",
"@+	c #0b1d48",
"#+	c #0a1b44",
"$+	c #08193f",
"%+	c #081537",
"&+	c #05112c",
"*+	c #000517",
"=+	c #07090e",
"-+	c #212120",
";+	c #2b2b2a",
":+	c #292926",
">+	c #2c2a25",
",+	c #202021",
"<+	c #171c28",
"1+	c #171c27",
"2+	c #171a24",
"3+	c #15181e",
"4+	c #111213",
"5+	c #2e2d2b",
"6+	c Gray16",
"7+	c #292828",
"                                                                ",
"                                                                ",
"                            . . X o                             ",
"                    o O + @ # $ % & * = -                       ",
"                  ; : > , < 1 2 3 4 5 6 7 8 9                   ",
"                0 q w e r r t y u i p a s d f g                 ",
"              h j k l z x c v b n m M N B V C Z g               ",
"            h A S D F G H J K L P I m U Y T R E W Q             ",
"          ! ~ ^ / ( ) _ ` ' ] [ { } |  ...X.o.O.+.@.#.          ",
"        $.%.&.*.=.-.;.:.>.,.<.1.2.3.4.5.6.7.8.9.0.q.w.          ",
"        0 e.r.t.-.y.u.i.p.a.s.d.f.g.h.j.k.l.z.x.c.v.b.n.        ",
"      $.m.M./ N.B.V.C.Z.A.S.D.F.G.H.J.K.L.P.I.U.Y.T.R.E.        ",
"      O W.Q.F !.:.~.^./.(.)._.`.'.].[.{.}.|. X.XXXoXOX+X        ",
"      ! @X#X$X-.%X&X*X=X-X;X:X>X,X<X1X2X3X4X5XU.XX6X7X8X9X      ",
"      ! 0XqXwXeXrXtXyXuXiXpXaXsXdXfXgXhXjXkXlXzXY.xXcXvX9X      ",
"      ! bXnXmXMXNXBXVXCXZXpXAXSXDXFXGXHXJXKXLXPXIXUXYXvX9X      ",
"      ! TXRXEXWX<.QX!X).~X^X/X(X)X_X`X'X]X[X{X}X|X o.oXo9X      ",
"      + oot Oo+o@o#o$o%o>X&o*o=o-o;o:o>o,o<oU.XX1o2o3o4o9X      ",
"      5o6o7o8o9o[ 0oqowoeorotoyouoiopoaoso{XdoIXoXfogohojo      ",
"      kolozoxocovobonomoMoNoBoVoCoZoAoSoDoU.XXFoGoHoJoKoLo      ",
"      X PoIoUoYoToh.RoEoWoQo`X!o~o^o/o(o)o_o`o'o]o[o{o}o        ",
"        |o ON .OXOoOOOOO+O@O#O$O]X%O&O*Odo=O-O;O:O>O,Ojo        ",
"        X <O1O2O3O4Ok.5O6O7O8O9O0OqO*OdowOeOrOtOyOuOiO          ",
"          pOaOsOdOfOl.gOl.hOjOkOlOzOxOcOvObOnOmOMONOLo          ",
"          9 BOC VOCOZOAOAO8.SOzODOFO`o6XGOHOJOKOLOPO            ",
"            g IOUOYO}XTOPX9.xORO`oEOWOQO!OmO~OLO^O              ",
"              Q /O(O)O_O`O`OFo6XWO'O]O[O{O}O|O +                ",
"                #..+X+o+O+++@+#+$+%+&+*+=+-+;+                  ",
"                    :+>+,+b.<+1+2+3+4+5+;+6+                    ",
"                        7+n.n.n.9X9Xjo                          ",
"                                                                ",
"                                                                "};
