/* XPM */
static char * gc\ies_xpm[] = {
"32 32 484 2",
"  	c #000000",
". 	c #000101",
"X 	c #000000",
"o 	c #000100",
"O 	c #010000",
"+ 	c #010001",
"@ 	c #000202",
"# 	c #000002",
"$ 	c #000102",
"% 	c #000200",
"& 	c #010202",
"* 	c #010101",
"= 	c #000201",
"- 	c #020103",
"; 	c #010102",
": 	c #000303",
"> 	c #020203",
", 	c #010203",
"< 	c #010200",
"1 	c #010002",
"2 	c #020303",
"3 	c #020304",
"4 	c #010304",
"5 	c #010504",
"6 	c #020404",
"7 	c #010302",
"8 	c #010303",
"9 	c #020300",
"0 	c #030404",
"q 	c #030505",
"w 	c #040606",
"e 	c #040505",
"r 	c #040707",
"t 	c #020505",
"y 	c #020402",
"u 	c #020202",
"i 	c #020204",
"p 	c #020302",
"a 	c #000103",
"s 	c #060708",
"d 	c #050908",
"f 	c #05080a",
"g 	c #060a0a",
"h 	c #050809",
"j 	c #030606",
"k 	c #030405",
"l 	c #030605",
"z 	c #040506",
"x 	c #040406",
"c 	c #040604",
"v 	c #020606",
"b 	c #030506",
"n 	c #030406",
"m 	c #030504",
"M 	c #010201",
"N 	c #020403",
"B 	c #020506",
"V 	c #090c0c",
"C 	c #090b0c",
"Z 	c #070c0c",
"A 	c #0a0f0e",
"S 	c #080d0e",
"D 	c #060a0b",
"F 	c #050909",
"G 	c #030708",
"H 	c #050708",
"J 	c #040808",
"K 	c #060908",
"L 	c #060909",
"P 	c #040908",
"I 	c #050709",
"U 	c #050807",
"Y 	c #050808",
"T 	c #040708",
"R 	c #040607",
"E 	c #050706",
"W 	c #060808",
"Q 	c #040507",
"! 	c #090e0f",
"~ 	c #0f1516",
"^ 	c #0c1415",
"/ 	c #121a1b",
"( 	c #101619",
") 	c #0b1010",
"_ 	c #091011",
"` 	c #090d0e",
"' 	c #080b0b",
"] 	c #070d0d",
"[ 	c #0a0d0f",
"{ 	c #080e0f",
"} 	c #090f10",
"| 	c #0a0f10",
" .	c #080f0e",
"..	c #090c0f",
"X.	c #090d0d",
"o.	c #080c0d",
"O.	c #070c0e",
"+.	c #080c0b",
"@.	c #080c0c",
"#.	c #080b0d",
"$.	c #060b0a",
"%.	c #070a0b",
"&.	c #07090a",
"*.	c #06090a",
"=.	c #131c1d",
"-.	c #182424",
";.	c #192425",
":.	c #1c292a",
">.	c #121c1d",
",.	c #12191b",
"<.	c #0e1617",
"1.	c #0c1414",
"2.	c #0e1517",
"3.	c #0f1718",
"4.	c #11191a",
"5.	c #10191a",
"6.	c #0f1819",
"7.	c #101717",
"8.	c #101617",
"9.	c #0f1617",
"0.	c #0f1415",
"q.	c #0e1416",
"w.	c #0d1314",
"e.	c #0d1213",
"r.	c #0b1213",
"t.	c #0c1212",
"y.	c #0b1112",
"u.	c #070c0d",
"i.	c #0b1011",
"p.	c #0e1515",
"a.	c #0e1616",
"s.	c #233333",
"d.	c #273a3b",
"f.	c #304648",
"g.	c #223235",
"h.	c #1d292b",
"j.	c #172223",
"k.	c #172121",
"l.	c #1a2626",
"z.	c #1c2a2b",
"x.	c #1c2b2b",
"c.	c #1b2828",
"v.	c #1b2628",
"b.	c #192626",
"n.	c #182425",
"m.	c #192325",
"M.	c #172323",
"N.	c #152022",
"B.	c #162020",
"V.	c #141f20",
"C.	c #151b1c",
"Z.	c #111a1b",
"A.	c #101819",
"S.	c #0e1415",
"D.	c #0b1312",
"F.	c #080d0d",
"G.	c #0d1414",
"H.	c #141c1e",
"J.	c #1d2b2b",
"K.	c #1f2c2e",
"L.	c #223135",
"P.	c #537e83",
"I.	c #5c8c90",
"U.	c #52767b",
"Y.	c #375255",
"T.	c #2d4448",
"R.	c #334d4f",
"E.	c #3b575a",
"W.	c #3c585d",
"Q.	c #3a5456",
"!.	c #385051",
"~.	c #354d50",
"^.	c #344b4e",
"/.	c #32484b",
"(.	c #2f4446",
").	c #2c4042",
"_.	c #293b3d",
"`.	c #263739",
"'.	c #233334",
"].	c #222f30",
"[.	c #1c2b2d",
"{.	c #1b2829",
"}.	c #182527",
"|.	c #172123",
" X	c #141f1f",
".X	c #101919",
"XX	c #0d1212",
"oX	c #121c1c",
"OX	c #1f2e31",
"+X	c #374f51",
"@X	c #3c5b60",
"#X	c #669499",
"$X	c #cefcff",
"%X	c #c7fdff",
"&X	c #85cace",
"*X	c #77a9ae",
"=X	c #8dc0c4",
"-X	c #91cccf",
";X	c #8bc8ce",
":X	c #80bec3",
">X	c #77b7bb",
",X	c #70adb2",
"<X	c #6799a0",
"1X	c #5f8a8e",
"2X	c #597e83",
"3X	c #4d7175",
"4X	c #476769",
"5X	c #3f5c60",
"6X	c #385256",
"7X	c #334a4c",
"8X	c #2d4345",
"9X	c #2a3d3f",
"0X	c #243538",
"qX	c #223233",
"wX	c #192526",
"eX	c #162122",
"rX	c #0e1516",
"tX	c #2d4244",
"yX	c #608990",
"uX	c #88dadf",
"iX	c #e1fdfe",
"pX	c Gray100",
"aX	c #fdffff",
"sX	c #e9ffff",
"dX	c #efffff",
"fX	c #faffff",
"gX	c #f6ffff",
"hX	c #f1ffff",
"jX	c #eeffff",
"kX	c #e8ffff",
"lX	c #dcfdff",
"zX	c #b3f4f5",
"xX	c #9ae8ee",
"cX	c #88ced5",
"vX	c #74a6ac",
"bX	c #5a8387",
"nX	c #4f7275",
"mX	c #456468",
"MX	c #3d5a5d",
"NX	c #375053",
"BX	c #314548",
"VX	c #26393a",
"CX	c #243335",
"ZX	c #202e2f",
"AX	c #1b292a",
"SX	c #1e2c2d",
"DX	c #385454",
"FX	c #90dae3",
"GX	c #c8ffff",
"HX	c #a6f7fd",
"JX	c #8fd0d9",
"KX	c #7eb3b9",
"LX	c #6a9ba0",
"PX	c #5e868b",
"IX	c #54777b",
"UX	c #486a6d",
"YX	c #3e5a5d",
"TX	c #3a5356",
"RX	c #32494b",
"EX	c #2d4043",
"WX	c #283a3d",
"QX	c #243434",
"!X	c #1e2b2d",
"~X	c #385053",
"^X	c #83c9d0",
"/X	c #deffff",
"(X	c #cdffff",
")X	c #b2feff",
"_X	c #99e1e8",
"`X	c #85bec4",
"'X	c #73a6aa",
"]X	c #649298",
"[X	c #5a8084",
"{X	c #4c6f73",
"}X	c #466568",
"|X	c #3d585a",
" o	c #364f53",
".o	c #2f4749",
"Xo	c #2a3e40",
"oo	c #1a2627",
"Oo	c #2e4245",
"+o	c #537a7e",
"@o	c #73b9c0",
"#o	c #eefeff",
"$o	c #f7ffff",
"%o	c #d2ffff",
"&o	c #b8ffff",
"*o	c #a0eaf2",
"=o	c #8ccad0",
"-o	c #7cb0b6",
";o	c #6c9ea2",
":o	c #618b8f",
">o	c #53797d",
",o	c #4d6d71",
"<o	c #436063",
"1o	c #3c5759",
"2o	c #364e51",
"3o	c #2e4447",
"4o	c #0d1313",
"5o	c #141d1e",
"6o	c #202d2f",
"7o	c #2e4143",
"8o	c #314a4d",
"9o	c #8cd2d9",
"0o	c LightCyan",
"qo	c #aef7f9",
"wo	c #92dce4",
"eo	c #d1ffff",
"ro	c #e1ffff",
"to	c #caffff",
"yo	c #b0ffff",
"uo	c #9fe8f0",
"io	c #8fced5",
"po	c #81b7bd",
"ao	c #72a5ab",
"so	c #679598",
"do	c #5d868b",
"fo	c #527678",
"go	c #4c6d70",
"ho	c #3c585a",
"jo	c #365052",
"ko	c #080e0e",
"lo	c #0d1315",
"zo	c #121b1c",
"xo	c #162223",
"co	c #1a2526",
"vo	c #405d62",
"bo	c #58888c",
"no	c #659499",
"mo	c #456569",
"Mo	c #406569",
"No	c #62a2a8",
"Bo	c #76bec4",
"Vo	c #82cbd2",
"Co	c #91dde1",
"Zo	c #9ae4e9",
"Ao	c #9de8ed",
"So	c #99e7ec",
"Do	c #91dde4",
"Fo	c #8aced7",
"Go	c #7fb7be",
"Ho	c #76aab1",
"Jo	c #6e9ea3",
"Ko	c #639094",
"Lo	c #5b8488",
"Po	c #55797d",
"Io	c #4d7074",
"Uo	c #415f63",
"Yo	c #3c5658",
"To	c #314a4c",
"Ro	c #0b1212",
"Eo	c #0d1416",
"Wo	c #111818",
"Qo	c #293c3e",
"!o	c #2f4647",
"~o	c #3f5b5f",
"^o	c #2c3f40",
"/o	c #2a3d40",
"(o	c #466567",
")o	c #4a6c70",
"_o	c #51757a",
"`o	c #567e84",
"'o	c #5d868a",
"]o	c #5e878c",
"[o	c #5f878a",
"{o	c #5a8286",
"}o	c #567d81",
"|o	c #52767a",
" O	c #4d6f73",
".O	c #47676b",
"XO	c #446063",
"oO	c #3f5b5e",
"OO	c #395456",
"+O	c #364e52",
"@O	c #32484a",
"#O	c #2e4244",
"$O	c #2b3e40",
"%O	c #070c0b",
"&O	c #0a1010",
"*O	c #192627",
"=O	c #1c292b",
"-O	c #273639",
";O	c #233435",
":O	c #1d2b2c",
">O	c #1b2629",
",O	c #1b2929",
"<O	c #253537",
"1O	c #2f4346",
"2O	c #314649",
"3O	c #395254",
"4O	c #3a5557",
"5O	c #3d575a",
"6O	c #3b5759",
"7O	c #3b5558",
"8O	c #375155",
"9O	c #344c4d",
"0O	c #2e4345",
"qO	c #2b3f42",
"wO	c #263839",
"eO	c #243435",
"rO	c #213132",
"tO	c #040807",
"yO	c #040608",
"uO	c #172325",
"iO	c #101a1b",
"pO	c #121819",
"aO	c #161f21",
"sO	c #1c2829",
"dO	c #1b2a2a",
"fO	c #1e2d30",
"gO	c #212f31",
"hO	c #223234",
"jO	c #243636",
"kO	c #253538",
"lO	c #253739",
"zO	c #253436",
"xO	c #233436",
"cO	c #223133",
"vO	c #202f31",
"bO	c #202e30",
"nO	c #1d2b2d",
"mO	c #1c2a2a",
"MO	c #0c1112",
"NO	c #0d1214",
"BO	c #0a1011",
"VO	c #131d1d",
"CO	c #141e1e",
"ZO	c #161f20",
"AO	c #152122",
"SO	c #172324",
"DO	c #1a2628",
"FO	c #1b2728",
"GO	c #1a2424",
"HO	c #192426",
"JO	c #172122",
"KO	c #151f20",
"LO	c #060b0b",
"PO	c #0a0d0e",
"IO	c #070b0b",
"UO	c #0b0f10",
"YO	c #0d1515",
"TO	c #101719",
"RO	c #111b1c",
"EO	c #131d1e",
"WO	c #131b1c",
"QO	c #121d1e",
"!O	c #010103",
"~O	c #030607",
"^O	c #060a09",
"/O	c #080c0e",
"(O	c #06080a",
")O	c #070b0a",
"_O	c #080d0c",
"`O	c #0a100f",
"'O	c #0d1415",
"]O	c #030707",
"[O	c #050606",
"{O	c #040706",
"}O	c #030706",
"|O	c #070908",
" +	c #05090b",
".+	c #080a0b",
"X+	c #091010",
"o+	c #030304",
"O+	c #06090c",
"++	c #060c0b",
"@+	c #010204",
"#+	c #010305",
"$+	c #010503",
"%+	c #010505",
"&+	c #030305",
"*+	c #030502",
"=+	c #000205",
"-+	c #030403",
";+	c #050707",
":+	c #050508",
">+	c #000302",
",+	c #000403",
"<+	c #020201",
"1+	c Gray1",
"2+	c #010405",
"3+	c #020605",
"4+	c #020101",
"5+	c #000203",
"                                        . . . X                 ",
"                      o               O . . . X                 ",
"                          O O     . + O O . . . . . .           ",
"                  .   X @ # $ % +   X & O O O O O               ",
"  X o             * * + X @ * &   X     . X       X . o o . o o ",
"        O O   $ = - @ ; : > , $ < ; 1 o o . o X   $ . X o X o = ",
"    X %   @   , 2 3 , 4 5 6 2 * 7 8 X 9 X O 1 @ @ @ @ @ @ @ $ # ",
"X o O $ @ . ; 0 q w e w r t 6 8 6 y 7 u > 3 6 6 6 6 6 6 6 i 2 p ",
"@ . p a 2 @ 8 s d r f g h j j j 0 6 k t l z x e c v v b n m k k ",
"M 8 3 6 q N B V C Z A S D d F G z H J F K L P J I U U Y T j r R ",
"3 q R E W Q ! ~ ^ / ( ) _ ` ' ] [ { } | !  ...X.o.O.+.@.#.$.%.&.",
"q h *.X.{ Z =.-.;.:.>.,.<.1.2.3.4.5.6.7.8.9.0.q.w.e.r.t.y.| | ` ",
"Y u.i.p.9.a.s.d.f.g.h.j.k.l.z.x.c.v.b.n.m.M.N.B.V.C.Z.4.A.<.S.D.",
"F.G.H.J.K.L.P.I.U.Y.T.R.E.W.Q.!.~.^./.(.)._.`.'.].[.{.}.|. X=..X",
"XXoXOX+X@X#X$X%X&X*X=X-X;X:X>X,X<X1X2X3X4X5X6X7X8X9X0XqXK.:.wXeX",
"rXb.tXyXuXiXpXaXsXdXfXgXhXjXkXlXzXxXcXvX#XbXnXmXMXNXBX).VXCXZXAX",
"5.SXDXFXgXpXpXpXpXpXpXpXpXpXpXpXpXdXGXHXJXKXLXPXIXUXYXTXRXEXWXQX",
"4.!X~X^X/XpXpXpXpXpXpXpXpXpXpXpXpXpXfX(X)X_X`X'X]X[X{X}X|X o.oXo",
"9.ooOo+o@o#opXpXpXpXpXpXpXpXpXpXpXpX$o%o&o*o=o-o;o:o>o,o<o1o2o3o",
"4o5o6o7o8o9o0oqowoeofXaXpXpXpXpXgXrotoyouoiopoaosodofogo<ohojof.",
"kolozoxocovobonomoMoNoBoVoCoZoAoSoDoFoGoHoJoKoLoPoIomXUoYo2oToEX",
"g ` RoEoWoQo!o~o/.^o/oQ.(o)o_o`o'o]o[o{o}o|o O.OXOoOOO+O@O#O$Od.",
"r L %Oo.&O*O=O-O;O:O>O,O<O).1O2O~.3O4O5O6O7O8O2o9O2O0OqO_.wOeOrO",
"6 b tOyO%.3./ 5ouOiO,.A.pOaOwXsOdOfOgOhOjOkO`.lOzOxOcOvObOnOmO*O",
"> 6 v 0 T } 4o4o4.a.MONOBOr.9.4.VOCOZOAOSO;.DOooFOv.DOGOHOxoJOKO",
"; 2 0 : k LO` ] ) MOPOF.` IO] UO4oYOp.9.TO5./ ROzoEO=.WOQO/ zoZ.",
"M = !O. 4 ~O^Oh D /O+.Y f K P (O)O_OS | `O| MORoMOe.1.'OS.S.S.'O",
"o . 1 . & k r ]O[O*.F T j H {O}OQ J |O +.+%O%.@.X.] ! PO! | X+&O",
"o o .   $ o+q 6 q r r w l 6 B e 6 q w w U I L K Y &.g )OO+@.++%O",
"O O +   X @+6 #+N $+w j %+p &+*+=+8 -+&+x l ;+E ;+:+U T I L K F ",
".         1 , >+& > ,+3 N !O<+> <+7 . 2 , 4 1+2+t m k B w 3+z R ",
". . . . .   + 7 >+4+7 6 6 @ * & & * $ 8 <+& 5+4 6 -+4 6 3 t q q "};
