/* XPM */
static char * gc\sphere_xpm[] = {
"32 32 53 1",
" 	c Black",
".	c #484848",
"X	c Gray66",
"o	c #5d5d5d",
"O	c Gray57",
"+	c #555555",
"@	c Gray28",
"#	c Gray35",
"$	c #b6b6b6",
"%	c Gray15",
"&	c Gray76",
"*	c Gray100",
"=	c #c3c3c3",
"-	c #181818",
";	c Gray46",
":	c Gray45",
">	c #232323",
",	c #c6c6c6",
"<	c #a4a4a4",
"1	c #0e0e0e",
"2	c #151515",
"3	c Gray67",
"4	c #585858",
"5	c #808080",
"6	c #6d6d6d",
"7	c #f6f6f6",
"8	c Gray96",
"9	c Gray41",
"0	c #7c7c7c",
"q	c #0b0b0b",
"w	c Gray8",
"e	c Gray90",
"r	c #e9e9e9",
"t	c #1e1e1e",
"y	c #343434",
"u	c Gray16",
"i	c #959595",
"p	c Gray58",
"a	c Gray83",
"s	c Gray49",
"d	c #e2e2e2",
"f	c Gray10",
"g	c #efefef",
"h	c #c1c1c1",
"j	c #818181",
"k	c #cecece",
"l	c Gray17",
"z	c Gray43",
"x	c Gray3",
"c	c Gray77",
"v	c #090909",
"b	c #b1b1b1",
"n	c Gray22",
"                                ",
"                                ",
"         .                      ",
"         X                      ",
"    o    O    +@                ",
"    #$ %&**=-;:                 ",
"     >,******<                  ",
"     1********2                 ",
"     3********3                 ",
"  4567********890#              ",
"  qw e********rtyu              ",
"     i********p                 ",
"      ********                  ",
"      a******s                  ",
"     df sghj kl                 ",
"    zx   p    cv                ",
"         b                      ",
"         n                      ",
"                                ",
"                                ",
"                                ",
"                                ",
"                                ",
"                                ",
"                                ",
"                                ",
"                                ",
"                                ",
"                                ",
"                                ",
"                                ",
"                                "};
