/* XPM */
static char *bakeshape[] = {
/* columns rows colors chars-per-pixel */
"32 32 115 2",
"   c #010101",
".  c #170E09",
"X  c #1A110E",
"o  c #0F1112",
"O  c #37160C",
"+  c #211812",
"@  c #1B1F20",
"#  c #252525",
"$  c gray17",
"%  c #332B27",
"&  c #3D312B",
"*  c #343435",
"=  c #383634",
"-  c #34393E",
";  c #3D3E3E",
":  c #581E00",
">  c #562F0A",
",  c #592F09",
"<  c #57391D",
"1  c #672A00",
"2  c #6E2D00",
"3  c #773200",
"4  c #743C1D",
"5  c #523424",
"6  c #533B29",
"7  c #733F22",
"8  c #534133",
"9  c #5A4738",
"0  c #69432E",
"q  c #614D39",
"w  c #3D3E41",
"e  c #3B4245",
"r  c #3A4348",
"t  c #434343",
"y  c #474848",
"u  c #4B4B4B",
"i  c #564B42",
"p  c #5F4E40",
"a  c #5A514B",
"s  c #4B4F51",
"d  c #4D5254",
"f  c #535353",
"g  c #555859",
"h  c #5C5B5B",
"j  c #6A5F55",
"k  c #605E5F",
"l  c #6F6356",
"z  c #6C6359",
"x  c #7D6356",
"c  c #7B6D5F",
"v  c #555E63",
"b  c #5A5E60",
"n  c #5F6162",
"m  c #5E6568",
"M  c #646463",
"N  c #636769",
"B  c #6E6E6E",
"V  c #736C6B",
"C  c #7C7167",
"Z  c #7C746C",
"A  c #696E71",
"S  c #717171",
"D  c #7B7B7B",
"F  c #8C4C29",
"G  c #934E26",
"H  c #9C542C",
"J  c #86583E",
"K  c #995531",
"L  c #A5592E",
"P  c #A8592F",
"I  c #BE602C",
"U  c #B46635",
"Y  c #BA6433",
"T  c #BC6937",
"R  c #C1632F",
"E  c #CB6933",
"W  c #C86D38",
"Q  c #D16D34",
"!  c #CB713A",
"~  c #D4733A",
"^  c #F2803E",
"/  c #FA813A",
"(  c #FF8E48",
")  c #FF954A",
"_  c #797F83",
"`  c #828282",
"'  c #8A8A8A",
"]  c #8C8F92",
"[  c #939393",
"{  c #9A9A9A",
"}  c #9FA0A0",
"|  c #9CA4A9",
" . c #A3A3A3",
".. c #ACACAC",
"X. c #B4B4B4",
"o. c #B3B7BB",
"O. c #B4B9BB",
"+. c #BBBBBB",
"@. c #BABFC2",
"#. c #C3C3C3",
"$. c #CBCBCB",
"%. c #CFD0D1",
"&. c #D3D3D3",
"*. c #D5D9DE",
"=. c #DDDDDD",
"-. c #D8DDE2",
";. c #E2E2E2",
":. c #EEEEEE",
">. c #EFF0EF",
",. c #EBEFF2",
"<. c #F2EEF0",
"1. c #F2F2F2",
"2. c #FAF5F7",
"3. c #FAF6F8",
"4. c #FEFEFE",
/* pixels */
"4.4.4.4.4.4.4.4.4.4.4.#.B ' ..{ M i p z @.:.4.4.,.-.,.4.4.4.4.4.",
"4.4.4.4.4.3.4.4.4.4.4.{ h ' #.@.8 , , 6 %.1.} C 9 < q #.3.3.4.4.",
"4.4.4.4.4.3.4.4.4.4.4... .D f y f S { $.1.[ O 1 2 3 , V :.&...%.",
"4.4.4.4.4.3.4.4.4.4.4.+.B [ X.' A h m m _ ] Z l c c j [ ' ' +.:.",
"4.4.4.4.4.3.4.4.4.4.4.+.` { &.&.@.D a & % w h B o.*.] { #.1.4.4.",
"4.4.4.4.4.3.4.4.4.4.4.X.[ [ &.O.x T ~ Q E Y 0 u h N X.4.3.>.3.4.",
"4.4.4.4.4.3.4.4.4.4.4.X. .D =.| K / ( ( ( ) I t f * ;.4.:.:.1.4.",
"4.4.4.4.4.3.4.4.4.4.4.X...S ..m 5 G H P P P 4 u B * &.3.>.:.3.4.",
"4.4.4.4.4.3.4.4.4.4.4...+.; t e 0 ^ ~ T T W I = u N %.3.,.,.3.4.",
"4.4.4.4.4.3.4.4.4.4.4...+.y y @ + F U ! ! T J g f D $.1.>.>.3.4.",
"4.4.4.4.4.3.4.4.4.4.4.....' X.D u - o X . $ e g M m +.1.>.>.4.4.",
"4.4.4.4.4.3.4.4.4.4.4... .[ =...` n d N d g ; = f 8 ..1.>.>.3.4.",
"4.4.4.4.4.3.4.4.4.4.4...B ; h S  .+.$.$.$.#.+...S $  .3.>.:.3.4.",
"4.4.4.4.4.4.4.4.4.=...D  .D h [ ..+.#.$.%.$.#.%.$.u [ 3.>.,.>.4.",
"4.4.4.4.4.4.4.%.{ ` { ;.4.4.&...' S D [ { X.$.&.$.y ' 4.,.:.:.4.",
"4.4.4.4.4.$.' [ X.=.3.3.:.:.4.4.>.&.#.X.{ ` B ] #.h ` 3.<.:.:.4.",
"4.4.4.4.4.k #.:.4.3.>.:.,.>.>.>.1.3.3.1.1.;.$. .' # ` 3.1.1.3.4.",
"4.4.4.4.4.k [ ..=.:.1.3.3.>.:.>.>.>.1.3.3.4.1.X.D u  .4.1.=.>.4.",
"4.4.4.4.4.{ { [ {  ...+.=.4.3.>.3.3.3.;.X.` u u [ D O.&.{ ' &.4.",
"4.4.4.4.4.:.{ {  .....{ [  .=.4.%...' y ; M B B +.{ S ` ..3.4.4.",
"4.4.4.4.4.3.4.=...{ {  . .' S ` b y M [ &.3.4.&.{ B D :.4.4.4.4.",
"4.4.4.4.4.3.4.4.4.>.;.$.{ ] M u ` X.:.4.4.4.4.4.1.;.3.4.4.4.4.4.",
"4.4.4.4.4.4.4.4.4.4.4.4.4.3.3.3.4.4.4.4.4.4.4.4.4.4.4.4.4.4.4.4.",
"4.4.4.4.4.:.1.<.<.<.<.1.>.1.>.1.>.1.1.1.>.1.1.1.1.1.1.1.1.1.1.1.",
"4.4.4.4.4.4.4.4.4.4.4.4.4.4.4.4.4.4.4.4.4.4.4.4.4.4.4.4.4.4.4.4.",
"4.4.4.4.4.4.      4.4.4.  4.4.4.  4.4.4.          4.4.4.4.4.4.4.",
"4.4.4.4.4.4.  4.  4.4.  4.  4.4.  4.4.  4.  4.4.4.4.4.4.4.4.4.4.",
"4.4.4.4.4.4.      4.4.  4.  4.4.  4.  4.4.        4.4.4.4.4.4.4.",
"4.4.4.4.4.4.  4.  4.4.      4.4.      4.4.  4.4.4.4.4.4.4.4.4.4.",
"4.4.4.4.4.4.  4.  4.  4.4.4.  4.  4.4.  4.  4.4.4.4.4.4.4.4.4.4.",
"4.4.4.4.4.4.      4.  4.4.4.  4.  4.4.4.          4.4.4.4.4.4.4.",
"4.4.4.4.4.4.4.4.4.4.4.4.4.4.4.4.4.4.4.4.4.4.4.4.4.4.4.4.4.4.4.4."
};
