/* XPM */
static const char *CTRL_xpm[] = {
/* width height num_colors chars_per_pixel */
"    32    32      256            2",
/* colors */
"`` c #969696",
"`. c #96a096",
"`# c #96a6a0",
"`a c #96a0a0",
"`b c #96888d",
"`c c #966e80",
"`d c #965673",
"`e c #967a88",
"`f c #965c73",
"`g c #965c7a",
"`h c #967388",
"`i c #967380",
"`j c #964a6e",
"`k c #965373",
"`l c #963a63",
"`m c #96536e",
"`n c #964d6e",
"`o c #968088",
"`p c #96637a",
"`q c #968896",
"`r c #964a67",
"`s c #968d96",
"`t c #96a696",
"`u c #96808d",
"`v c #968d8d",
"`w c #96677a",
"`x c #966e88",
"`y c #96567a",
"`z c #966780",
"`A c #966380",
"`B c #964567",
"`C c #96b0a0",
"`D c #963d63",
"`E c #010101",
"`F c #000000",
"`G c #000000",
"`H c #000000",
"`I c #000000",
"`J c #000000",
"`K c #000000",
"`L c #000000",
"`M c #000000",
"`N c #000000",
"`O c #000000",
"`P c #000000",
"`Q c #000000",
"`R c #000000",
"`S c #000000",
"`T c #000000",
"`U c #000000",
"`V c #000000",
"`W c #000000",
"`X c #000000",
"`Y c #000000",
"`Z c #000000",
"`0 c #000000",
"`1 c #000000",
"`2 c #000000",
"`3 c #000000",
"`4 c #000000",
"`5 c #000000",
"`6 c #000000",
"`7 c #000000",
"`8 c #000000",
".` c #000000",
".. c #000000",
".# c #000000",
".a c #000000",
".b c #000000",
".c c #000000",
".d c #000000",
".e c #000000",
".f c #000000",
".g c #000000",
".h c #000000",
".i c #000000",
".j c #000000",
".k c #000000",
".l c #000000",
".m c #000000",
".n c #000000",
".o c #000000",
".p c #000000",
".q c #000000",
".r c #000000",
".s c #000000",
".t c #000000",
".u c #000000",
".v c #000000",
".w c #000000",
".x c #000000",
".y c #000000",
".z c #000000",
".A c #000000",
".B c #000000",
".C c #000000",
".D c #000000",
".E c #000000",
".F c #000000",
".G c #000000",
".H c #000000",
".I c #000000",
".J c #000000",
".K c #000000",
".L c #000000",
".M c #000000",
".N c #000000",
".O c #000000",
".P c #000000",
".Q c #000000",
".R c #000000",
".S c #000000",
".T c #000000",
".U c #000000",
".V c #000000",
".W c #000000",
".X c #000000",
".Y c #000000",
".Z c #000000",
".0 c #000000",
".1 c #000000",
".2 c #000000",
".3 c #000000",
".4 c #000000",
".5 c #000000",
".6 c #000000",
".7 c #000000",
".8 c #000000",
"#` c #000000",
"#. c #000000",
"## c #000000",
"#a c #000000",
"#b c #000000",
"#c c #000000",
"#d c #000000",
"#e c #000000",
"#f c #000000",
"#g c #000000",
"#h c #000000",
"#i c #000000",
"#j c #000000",
"#k c #000000",
"#l c #000000",
"#m c #000000",
"#n c #000000",
"#o c #000000",
"#p c #000000",
"#q c #000000",
"#r c #000000",
"#s c #000000",
"#t c #000000",
"#u c #000000",
"#v c #000000",
"#w c #000000",
"#x c #000000",
"#y c #000000",
"#z c #000000",
"#A c #000000",
"#B c #000000",
"#C c #000000",
"#D c #000000",
"#E c #000000",
"#F c #000000",
"#G c #000000",
"#H c #000000",
"#I c #000000",
"#J c #000000",
"#K c #000000",
"#L c #000000",
"#M c #000000",
"#N c #000000",
"#O c #000000",
"#P c #000000",
"#Q c #000000",
"#R c #000000",
"#S c #000000",
"#T c #000000",
"#U c #000000",
"#V c #000000",
"#W c #000000",
"#X c #000000",
"#Y c #000000",
"#Z c #000000",
"#0 c #000000",
"#1 c #000000",
"#2 c #000000",
"#3 c #000000",
"#4 c #000000",
"#5 c #000000",
"#6 c #000000",
"#7 c #000000",
"#8 c #000000",
"a` c #000000",
"a. c #000000",
"a# c #000000",
"aa c #000000",
"ab c #000000",
"ac c #000000",
"ad c #000000",
"ae c #000000",
"af c #000000",
"ag c #000000",
"ah c #000000",
"ai c #000000",
"aj c #000000",
"ak c #000000",
"al c #000000",
"am c #000000",
"an c #000000",
"ao c #000000",
"ap c #000000",
"aq c #000000",
"ar c #000000",
"as c #000000",
"at c #000000",
"au c #000000",
"av c #000000",
"aw c #000000",
"ax c #000000",
"ay c #000000",
"az c #000000",
"aA c #000000",
"aB c #000000",
"aC c #000000",
"aD c #000000",
"aE c #000000",
"aF c #000000",
"aG c #000000",
"aH c #000000",
"aI c #000000",
"aJ c #000000",
"aK c #000000",
"aL c #000000",
"aM c #000000",
"aN c #000000",
"aO c #000000",
"aP c #000000",
"aQ c #000000",
"aR c #000000",
"aS c #000000",
"aT c #000000",
"aU c #000000",
"aV c #000000",
"aW c #000000",
"aX c #000000",
"aY c #000000",
"aZ c #000000",
"a0 c #000000",
"a1 c #000000",
"a2 c #000000",
"a3 c #000000",
"a4 c #000000",
"a5 c #000000",
"a6 c #000000",
"a7 c #000000",
"a8 c #000000",
/* pixels */
"````````````````````````````````````````````````````````````````",
"```````````````````.`#`.```````````````a`a`.````````````````````",
"```````````.`a```b`c`d`e`.`````````````f`g`h`b```.``````````````",
"`````````.`i`j`g`d`k`l`e`.```````````.`m`j`k`d`f`k``````````````",
"```````````n`o`.`.`p`q`a```````````````.`p`b`.`#`r`e`.``````````",
"`````````s`g`t`.```k`u`.`````````````.`s`d`u`.`#`p`p`a``````````",
"`````````s`g`.`e`a```d`e`.`````````.`v`k`u`#`o`u`w`g`a``````````",
"`````````s`g`p`d`p`a`.`d`i`.`````.`b`d`b`#`h`d`g`f`p`a``````````",
"```````````l`e`#`i`d```.`d`c`.`.`b`d`v`#`x`d`.`.`d`y`.``````````",
"```````````b`.```.`e`k`s`#`p`c`b`y`s`t`z`p`a```````s````````````",
"```````````````````.`o`k`v`#`p`m`v`#`w`A`.``````````````````````",
"`````````````````````.`b`d`b`.`````p`z`.````````````````````````",
"```````````````````````t`e`g`.`a`u`n`a``````````````````````````",
"`````````````````````.`v`d`v`````a`c`z`a````````````````````````",
"```````````````````.`v`d`b`#`z`j`b`#`p`p`a``````````````````````",
"```````````.```````s`k`s`#`z`z`s`d`b`#`p`c`.`````.`.````````````",
"```````````h```.```y`u`#`c`p`.`.`s`d`q`#`p`c`.`.`e`e````````````",
"`````````s`B`g`s`d`o`#`c`p`.`````.`v`k`v`#`g`h`o`B`y`a``````````",
"`````````s`g`h`n`e`#`e`g`.`````````.`b`d`s`a`g`A`p`g`a``````````",
"`````````.`B`v```a`o`y```````````````.`u`d```.`a`p`g`a``````````",
"`````````.`B`b```.`k`b`.```````````````#`p`h`.`#`m`h`.``````````",
"`````````#`n`i`#`.`b`g`s`````````````.`h`p`.`.`C`n`e`.``````````",
"`````````a`z`m`w`p`w`m`p`.`````````````D`B`B`B`B`j``````````````",
"```````````.`u`e`o`o`u`s`````````````````s`s`s`s````````````````",
"```````````````.`````.``````````````````````````````````````````",
"`````````````E`E`E`````E`E`E`E`E```E`E`E`E`````E````````````````",
"```````````E```````E```````E```````E`````E`````E````````````````",
"```````````E```````````````E```````E`E`E`E`````E````````````````",
"```````````E```````````````E```````E```E```````E````````````````",
"```````````E```````E```````E```````E`````E`````E````````````````",
"`````````````E`E`E`````````E```````E`````E`````E`E`E````````````",
"````````````````````````````````````````````````````````````````"
};
