/* XPM */
static char *freeimage[] = {
/* width height num_colors chars_per_pixel */
"20 20 65 1",
/* colors */
" 	s bg c #0000FFFF0000",
". c #bab4af",
"X c #898c81",
"o c #566151",
"O c #15a314",
"+ c #06c206",
"@ c #16b915",
"# c #b5b0aa",
"$ c #aba8a1",
"% c #5c6657",
"& c #1a3019",
"* c #059205",
"= c #0fb40f",
"- c #a5a39b",
"; c #4f5b4a",
": c #0e260e",
"> c #048f04",
", c #09ad09",
"< c #5a5a5a",
"1 c #3a3a3a",
"2 c #d4d4d4",
"3 c #fefefe",
"4 c #2a2c2a",
"5 c #9e9d95",
"6 c #7d8175",
"7 c #3b4b37",
"8 c #030c03",
"9 c #464a46",
"0 c #d3d9d3",
"q c #c2c4c2",
"w c #1c931b",
"e c #32bf32",
"r c #e9ece9",
"t c #747474",
"y c #068106",
"u c #0d0d0d",
"i c #111111",
"p c #047f04",
"a c #129f12",
"s c #6d716d",
"d c #041d03",
"f c #021202",
"g c #06aa06",
"h c #152315",
"j c #3b453b",
"k c #3d4d3a",
"l c #2a3d28",
"z c #273327",
"x c #5b605b",
"c c #7b7c7b",
"v c #161b16",
"b c #081708",
"n c #343a34",
"m c #454545",
"M c #1a1f1a",
"N c #0f1d0f",
"B c #030403",
"V c #1a211a",
"C c #272a27",
"Z c #2c302c",
"A c #494949",
"S c #c7bfbb",
"D c #353635",
"F c #606360",
"G c #505050",
/* pixels */
"   oO+@             ",
"  %&*+=             ",
"  ;:>+,<12222341    ",
" 678>+,940q333411   ",
"w+++++++++er3241t1  ",
"y+++++++++*uii41t1  ",
"p+++++++++astt<1t1  ",
"dd8f*+gffhjttt<1t1  ",
"kl8f*+ghzjxctt<1t1  ",
"  if*+guuuiiiii1t1  ",
"  vb>+,nmmmmmmmit1  ",
"  MNB8V1mmmmmmmit1  ",
"  CnBVZmAAAAAAAit1  ",
"  DFum9AGGGGGGGit1  ",
"  1ti<<<<<<<<<<it1  ",
"  1ti<<<<<<<<<<it1  ",
"  1ti1tit<<tit1it1  ",
"   1<i11111111i<1   ",
"                    ",
"                    "
};
