/* XPM */
static char *hfAutoGamma2_xpm[] = {
/* width height num_colors chars_per_pixel */
"    32    32      256            2",
/* colors */
"`` c #0000ff",
"`. c #0101fe",
"`# c #0404fb",
"`a c #090cf7",
"`b c #0a0df7",
"`c c #0b0ef5",
"`d c #0c0ff4",
"`e c #0f10f4",
"`f c #090ff9",
"`g c #0b0ff6",
"`h c #141aee",
"`i c #181feb",
"`j c #1b24e8",
"`k c #2330e2",
"`l c #2430e0",
"`m c #1d30ea",
"`n c #2c3bd9",
"`o c #3647d2",
"`p c #3648d2",
"`q c #374cd2",
"`r c #3d53cc",
"`s c #3b53ce",
"`t c #3558db",
"`u c #4663c7",
"`v c #3b62d6",
"`w c #4769c8",
"`x c #4c69c0",
"`y c #4f70c0",
"`z c #5374bb",
"`A c #5678b9",
"`B c #5479bd",
"`C c #527cc2",
"`D c #5880b9",
"`E c #597fb8",
"`F c #4d81ca",
"`G c #5c85b6",
"`H c #619ab9",
"`I c #6e9da8",
"`J c #6faaab",
"`K c #71aba8",
"`L c #75a9a2",
"`M c #73b5ab",
"`N c #74bbad",
"`O c #78b6a5",
"`P c #7accab",
"`Q c #7dbb9e",
"`R c #7fbd9e",
"`S c #83c9a2",
"`T c #81c29d",
"`U c #83d8a4",
"`V c #83c69c",
"`W c #86dfa3",
"`X c #84cd9d",
"`Y c #85cb9c",
"`Z c #89d499",
"`0 c #8ad296",
"`1 c #8ee69b",
"`2 c #8cd797",
"`3 c #90f09c",
"`4 c #8dda96",
"`5 c #8cd896",
"`6 c #8fe397",
"`7 c #8edb96",
"`8 c #93f49a",
".` c #91ea98",
".. c #94f698",
".# c #94f699",
".a c #93ef97",
".b c #93ee97",
".c c #5dda60",
".d c #96f998",
".e c #95f798",
".f c #94ee96",
".g c #93ec96",
".h c #93ea96",
".i c #00ff00",
".j c #01fd01",
".k c #03fc03",
".l c #03fb03",
".m c #04fc04",
".n c #05fb05",
".o c #07f807",
".p c #09ff09",
".q c #09f809",
".r c #0df50d",
".s c #11f211",
".t c #12f412",
".u c #19f018",
".v c #1aee19",
".w c #1dff1c",
".x c #1ced1b",
".y c #1fec1f",
".z c #21eb21",
".A c #29e729",
".B c #35ff34",
".C c #31e531",
".D c #33e532",
".E c #33e833",
".F c #34e333",
".G c #39e138",
".H c #3de13c",
".I c #42de41",
".J c #4dff4c",
".K c #4af349",
".L c #4efe4d",
".M c #49de48",
".N c #48dc48",
".O c #4adb49",
".P c #4cdc4c",
".Q c #55e454",
".R c #5fe15e",
".S c #75d776",
".T c #97fb97",
".U c #95ee95",
".V c #05fc03",
".W c #3fe43a",
".X c #64ff62",
".Y c #6df96b",
".Z c #62d761",
".0 c #77ff75",
".1 c #67d966",
".2 c #66d765",
".3 c #6ad869",
".4 c #6ad668",
".5 c #6dd86c",
".6 c #6ed66c",
".7 c #86ff83",
".8 c #78e477",
"#` c #72d670",
"#. c #84f882",
"## c #88fd86",
"#a c #75d774",
"#b c #8af788",
"#c c #90ff8d",
"#d c #91ff8e",
"#e c #7bd979",
"#f c #8aed88",
"#g c #96ff93",
"#h c #7fd97d",
"#i c #99ff96",
"#j c #98fe95",
"#k c #98fd95",
"#l c #95fa93",
"#m c #83dc81",
"#n c #82da80",
"#o c #98fe96",
"#p c #99fe96",
"#q c #99fd96",
"#r c #98fc95",
"#s c #90ee8d",
"#t c #84db82",
"#u c #99fc96",
"#v c #98fb96",
"#w c #98fa95",
"#x c #98fa96",
"#y c #98f995",
"#z c #98f895",
"#A c #97f896",
"#B c #87dd85",
"#C c #87dc85",
"#D c #97f695",
"#E c #8adf88",
"#F c #95ef93",
"#G c #94ed92",
"#H c #8ee38c",
"#I c #8de28b",
"#J c #95ef94",
"#K c #92e990",
"#L c #90e68e",
"#M c #64d960",
"#N c #99ff95",
"#O c #99fd95",
"#P c #9afc95",
"#Q c #98f794",
"#R c #98f594",
"#S c #97f494",
"#T c #93ed90",
"#U c #8ee48b",
"#V c #94ec91",
"#W c #91e68e",
"#X c #9af893",
"#Y c #99f492",
"#Z c #98ee92",
"#0 c #9af492",
"#1 c #97e890",
"#2 c #9cf390",
"#3 c #9aeb8f",
"#4 c #9df08f",
"#5 c #9ae78e",
"#6 c #a1db86",
"#7 c #a0d785",
"#8 c #9fcf83",
"a` c #9fcc82",
"a. c #aad47d",
"a# c #a7c279",
"aa c #aac478",
"ab c #afb36f",
"ac c #a8a871",
"ad c #bb9b60",
"ae c #b9975f",
"af c #b58b5e",
"ag c #bb8c5a",
"ah c #c28353",
"ai c #b6825b",
"aj c #b97f58",
"ak c #c6744c",
"al c #c96d47",
"am c #c86646",
"an c #cc5b3f",
"ao c #cb5e41",
"ap c #ce563c",
"aq c #d44e36",
"ar c #d25138",
"as c #db432d",
"at c #d14936",
"au c #d74230",
"av c #e92b1c",
"aw c #e62e1f",
"ax c #e62f20",
"ay c #e9261b",
"az c #e7281c",
"aA c #f11710",
"aB c #ff0000",
"aC c #fe0000",
"aD c #fd0202",
"aE c #f90806",
"aF c #f70c09",
"aG c #f40d0b",
"aH c #f3120e",
"aI c #000000",
"aJ c #000000",
"aK c #000000",
"aL c #000000",
"aM c #000000",
"aN c #000000",
"aO c #000000",
"aP c #000000",
"aQ c #000000",
"aR c #000000",
"aS c #000000",
"aT c #000000",
"aU c #000000",
"aV c #000000",
"aW c #000000",
"aX c #000000",
"aY c #000000",
"aZ c #000000",
"a0 c #000000",
"a1 c #000000",
"a2 c #000000",
"a3 c #000000",
"a4 c #000000",
"a5 c #000000",
"a6 c #000000",
"a7 c #000000",
"a8 c #000000",
/* pixels */
"#i#i#i#i#i#i#i#i#padaqaGaBaBaBawae#7#i#i#p.c.i.W.h`e`C#i#i#i#i#i",
"#i#i#i#i#i#i#i#6anaBaBaBaDarab#2#i#i#i#i.S.i.V#T`S```K#i#i#i#i#i",
"#i#i#i#i#i#YahaFaBaBaBaoa##i#i#i#i#i#i#L.q.i#M#i`D```Y#i#i#i#i#i",
"#i#i#i#i#ZauaBaBaBakaa#i#i#i#i#i#i#i#y.H.i.P#z#A`j`h.b#i#i#i#i#i",
"#i#i#i#OapaBaBaxab#i#i#i#i#i#i#i#i#i.4.i.A#S#i`0```u#i#i#i#i#i#i",
"#i#i#iafaBaCaj#4#i#i#i#i#i#i#i#i#i#B.l.o#I#i#i`G```J#i#i#i#i#i#i",
"#i#iacaBaBal#i#i#i#i#i#i#i#i#i#i#H.u.i.5#i#i#v`k`d.g#i#i#i#i#i#i",
"#i#5aEaBat#R#i#i#i#i#i#i#i#i#i#q.C.i.I#u#i#i.U`#`q#i#i#i#i#i#i#i",
"#QasaBay#3#i#i#i#i#i#i#i#i#i#i#a.i.v#V#i#i#i`O```L#i#i#i#i#i#i#i",
"aiaBav#1#i#i#i#i#i#i#i#i#i#i#n.n.t#I#i#i#i#q`o`b.f#i#i#i#i#i#i#i",
"aHaB#8#i#i#i#i#i#i#i#i#i#i#K.s.i#e#i#i#i#i`2```y#i#i#i#i#i#i#i#i",
"aBaA#0#i#i#i#i#i#i#i#i#i#w.G.i.D#w#i#i#i#i`B```X#i#i#i#i#i#i#i#i",
"aBam#i#i#i#i#i#i#i#i#i#i.3.i.x#G#i#i#i#i.``a`i#y#i#i#i#i#i#i#i#i",
"aCa`#i#i#i#i#i#i#i#i#i#E.l.j#C#i#i#i#i#i`I```A#i#i#i#i#i#i#i#i#i",
"az#X#i#i#i#i#i#i#i#i#G.z.i.6#i#i#i#i#i#D`l`.`5#i#i#i#i#i#i#i#i#i",
"ag#i#i#i#i#i#i#i#i#z.F.i.M#i#i#i#i#i#i`R```x#i#i#i#i#i#i#i#i#i#i",
"a.#i#i#i#i#i#i#i#i.Z.i.r#W#i#i#i#i#i#i`z```7#i#i#i#i#i#i#i#i#i#i",
"#P#i#i#i#i#i#i#i#U.m.k#h#i#i#i#i#i#i#J`c`p#p#i#i#i#i#i#i#i#i#i#i",
"#i#i#i#i#i#i#i#F.y.i#`#i#i#i#i#i#i#i`E```4#i#i#i#i#i#i#i#i#i#i#i",
"#i#i#i#i#i#i#p.N.i.O#q#i#i#i#i#i#i.a`g`r#i#i#i#i#i#i#i#i#i#i#i#i",
"#i#i#i#i#i#q.2.i.u#F#i#i#i#i#i#i#i`A```Q#i#i#i#i#i#i#i#i#i#i#i#i",
"#i#i#i#i#i#m.i.j#t#i#i#i#i#i#i#i`V```n#r#i#i#i#i#i#i#i#i#i#i#i#i",
"#i#i#i#i#D.E.p.1#i#i#i#i#i#i#i#i`s`f`T#i#i#i#i#i#i#i#i#i#i#i#i#i",
"#i#i#i#w.R.w.Q#y#i#i#i#i#i#i#i`Z`m`w#r#i#i#i#i#i#i#i#i#i#i#i#i#i",
"#i#i#i.8.B.K#D#i#i#i#i#i#i#i`1`v`t`6#i#i#i#i#i#i#i#i#i#i#i#i#i#i",
"#i#i#s.L.J#f#i#i#i#i#N#i#iaI`H`F`M#i#i#i#i#i#i#i#iaI#i#iaI#i#i#i",
"#i#w.Y.XaIaI#i#iaI#i#iaI..aIaI`N#vaIaIaI#i#i#i#i#i#iaI#iaI#i#i#i",
"#i#b.0#.#p#iaI#iaI#i#iaI`UaI`P#xaI#i#i#iaI#i#i#i#i#i#iaIaI#i#i#i",
"#l.7###raIaIaI#iaI#i.eaI`WaI.d#iaI#i#i#iaI#i#i#i#i#i#iaI#i#i#i#i",
"#d#c#kaI#i#iaI#iaI.#`3aI`8aI#i#iaI#i#i#iaI#i#i#i#i#i#iaI#i#i#i#i",
"#g#j#i#iaIaIaI#o.TaIaIaI#i#iaI#i#iaIaIaI#i#i#i#i#i#i#iaI#i#i#i#i",
"#i#i#i#i#i#i#p#o#o#o#i#i#i#i#i#i#i#i#i#i#i#i#i#i#i#i#i#i#i#i#i#i"
};
