/* XPM */
static char *hfCheckComponentShading_xpm[] = {
/* width height num_colors chars_per_pixel */
"    32    32      256            2",
/* colors */
"`` c #ef0811",
"`. c #ff000e",
"`# c #f2000d",
"`a c #0300ff",
"`b c #0300fc",
"`c c #0000ff",
"`d c #0003fc",
"`e c #0102fe",
"`f c #0203fe",
"`g c #0305fd",
"`h c #0009f6",
"`i c #000af5",
"`j c #0027d8",
"`k c #002ed1",
"`l c #023fc0",
"`m c #4e82c9",
"`n c #0053ac",
"`o c #5c9ac0",
"`p c #5f9fbe",
"`q c #60a0bd",
"`r c #619fbc",
"`s c #62a3bc",
"`t c #63a5bb",
"`u c #64a6bb",
"`v c #008080",
"`w c #71bdb1",
"`x c #73c0b0",
"`y c #79c9ac",
"`z c #00a45b",
"`A c #00ac53",
"`B c #00cc33",
"`C c #00de21",
"`D c #00e718",
"`E c #00fd05",
"`F c #00f807",
"`G c #00ff00",
"`H c #02ff02",
"`I c #03ff03",
"`J c #07ff06",
"`K c #0dff0d",
"`L c #18ff18",
"`M c #26ff26",
"`N c #31ff30",
"`O c #33ff32",
"`P c #07f800",
"`Q c #4cff4a",
"`R c #4fff4d",
"`S c #5eff5c",
"`T c #61ff5f",
"`U c #67ff65",
"`V c #6bff69",
"`W c #6dff6b",
"`X c #83ff81",
"`Y c #8cff89",
"`Z c #8cff8a",
"`0 c #8eff8b",
"`1 c #92ff90",
"`2 c #93ff90",
"`3 c #99ff96",
"`4 c #98fe96",
"`5 c #0df200",
"`6 c #99fe95",
"`7 c #9afd95",
"`8 c #19e600",
".` c #24db00",
".. c #26d900",
".# c #9fef8d",
".a c #2dd200",
".b c #92e878",
".c c #a6de83",
".d c #50af00",
".e c #53ac00",
".f c #adcd79",
".g c #b5b96d",
".h c #808000",
".i c #baad66",
".j c #8b7400",
".k c #c88a51",
".l c #ca854e",
".m c #cc7f4b",
".n c #cd7e4a",
".o c #b44609",
".p c #cf7847",
".q c #c63900",
".r c #cf4312",
".s c #cf3000",
".t c #db5a35",
".u c #e14b2c",
".v c #e14c2d",
".w c #e04e2e",
".x c #e63f25",
".y c #e54026",
".z c #e81700",
".A c #f31e12",
".B c #f12415",
".C c #f70800",
".D c #f60900",
".E c #ff0000",
".F c #fe0302",
".G c #000000",
".H c #000000",
".I c #000000",
".J c #000000",
".K c #000000",
".L c #000000",
".M c #000000",
".N c #000000",
".O c #000000",
".P c #000000",
".Q c #000000",
".R c #000000",
".S c #000000",
".T c #000000",
".U c #000000",
".V c #000000",
".W c #000000",
".X c #000000",
".Y c #000000",
".Z c #000000",
".0 c #000000",
".1 c #000000",
".2 c #000000",
".3 c #000000",
".4 c #000000",
".5 c #000000",
".6 c #000000",
".7 c #000000",
".8 c #000000",
"#` c #000000",
"#. c #000000",
"## c #000000",
"#a c #000000",
"#b c #000000",
"#c c #000000",
"#d c #000000",
"#e c #000000",
"#f c #000000",
"#g c #000000",
"#h c #000000",
"#i c #000000",
"#j c #000000",
"#k c #000000",
"#l c #000000",
"#m c #000000",
"#n c #000000",
"#o c #000000",
"#p c #000000",
"#q c #000000",
"#r c #000000",
"#s c #000000",
"#t c #000000",
"#u c #000000",
"#v c #000000",
"#w c #000000",
"#x c #000000",
"#y c #000000",
"#z c #000000",
"#A c #000000",
"#B c #000000",
"#C c #000000",
"#D c #000000",
"#E c #000000",
"#F c #000000",
"#G c #000000",
"#H c #000000",
"#I c #000000",
"#J c #000000",
"#K c #000000",
"#L c #000000",
"#M c #000000",
"#N c #000000",
"#O c #000000",
"#P c #000000",
"#Q c #000000",
"#R c #000000",
"#S c #000000",
"#T c #000000",
"#U c #000000",
"#V c #000000",
"#W c #000000",
"#X c #000000",
"#Y c #000000",
"#Z c #000000",
"#0 c #000000",
"#1 c #000000",
"#2 c #000000",
"#3 c #000000",
"#4 c #000000",
"#5 c #000000",
"#6 c #000000",
"#7 c #000000",
"#8 c #000000",
"a` c #000000",
"a. c #000000",
"a# c #000000",
"aa c #000000",
"ab c #000000",
"ac c #000000",
"ad c #000000",
"ae c #000000",
"af c #000000",
"ag c #000000",
"ah c #000000",
"ai c #000000",
"aj c #000000",
"ak c #000000",
"al c #000000",
"am c #000000",
"an c #000000",
"ao c #000000",
"ap c #000000",
"aq c #000000",
"ar c #000000",
"as c #000000",
"at c #000000",
"au c #000000",
"av c #000000",
"aw c #000000",
"ax c #000000",
"ay c #000000",
"az c #000000",
"aA c #000000",
"aB c #000000",
"aC c #000000",
"aD c #000000",
"aE c #000000",
"aF c #000000",
"aG c #000000",
"aH c #000000",
"aI c #000000",
"aJ c #000000",
"aK c #000000",
"aL c #000000",
"aM c #000000",
"aN c #000000",
"aO c #000000",
"aP c #000000",
"aQ c #000000",
"aR c #000000",
"aS c #000000",
"aT c #000000",
"aU c #000000",
"aV c #000000",
"aW c #000000",
"aX c #000000",
"aY c #000000",
"aZ c #000000",
"a0 c #000000",
"a1 c #000000",
"a2 c #000000",
"a3 c #000000",
"a4 c #000000",
"a5 c #000000",
"a6 c #000000",
"a7 c #000000",
"a8 c #000000",
/* pixels */
"`3`3`3`3`3`3`3`3`3`3`3`3`3`3`3`3`3`3`3`3`3`3`3`3`3`3`3`3`3`3`3`3",
"`3`3`3`3`3`3`3`3`3`3`3`3`3`3`3`3`3`3`3`3`3`3`3`3`3`3`3`3`3`3`3`3",
"`3`3`3`3`3`3`3`3`3`3`3`3`0`Y`T`K`U`Y`Y`2`3`3`3`3`3`3`3`3`3`3`3`3",
"`3`3`3`3`3`3`3`3`3`3`1`X`L`J`H`G`I`J`J`O`X`X`3`3`3`3`3`3`3`3`3`3",
"`3`3`3`3`3`3`3`3`W`V`N`G`G`G`G`G`G`G`G`G`G`G`S`V`V`Z`3`3`3`3`3`3",
"`3`3`3`3`3.b`R`Q`G`G`G`G`G`G`G`G`G`G`G`G`G`G`G`G`G`M`R`3`3`3`3`3",
"`3`3`3`3`3.r.a`G`G`G`G`G`G`G`G`G`G`G`G`G`G`G`G`G`G`z`n`3`3`3`3`3",
"`3`3`3`3`3.E.z.s`5`P`G`G`G`G`G`G`G`G`G`G`G`G`G`F`A`h`c`3`3`3`3`3",
"`3`3`3`3`3.E.E.E.C.D.j...``G`G`G`G`G`G`G`G`D`B`i`d`c`c`3`3`3`3`3",
"`3`3`3`3`3.E.E.E.E.E.E.E.E.e.d`8`G`G`G`G`C`j`c`c`c`c`c`3`3`3`3`3",
"`3`3`3`3`3.x.E.E.E.E.E.E.E.E.E.q.h`G`E`v`k`c`c`c`c`c`c`3`3`3`3`3",
"`3`3`3`3`3.k.E.E.E.E.E.E.E.E.E.E.E.o`l`c`c`c`c`c`c`c`m`3`3`3`3`3",
"`3`3`3`3.G.G.G.G.G.G.E.E.E.E.E.E.E`.`a`c`c`c`c`c`c`c`y`3`3`3`3`3",
"`3`3`3`3.G.G.G.G.G.G.E.E.E.E.E.E.E`#`b`c`c`c`c`c`c`c`w`3`3`3`3`3",
"`3`3`3`3.G.G.G.G.G.G.E.E.E.E.E.E.E`#`b`c`c`c`c`c`c`c`w`3`3`3`3`3",
"`3.G.G.G`3.m.E.E.E.E.G.G.G.E.E.E.E`#`b`c`c`c`c`c`c`c`w`3`3`3`3`3",
"`3.G.G.G`3.n.E.E.E.E.G.G.G.E.E.E.E`#`b`c`c`c`c`c`c`c`w`3`3`3`3`3",
"`3.G.G.G`3.l.F.E.E.E.G.G.G.E.E.E.E`#`b`c`c`c`c`c`c`e`x`3`3`3`3`3",
"`3`3`3`3`3`7.w.G.G.G.E.E.E.E.E.E.E`#`b`c`c`c`c`c`g`q`4`3`3`3`3`3",
"`3`3`3`3`3`3.y.G.G.G.E.E.E.E.E.E.E`#`b`c`c`c`c`c`o`3`3`3`3`3`3`3",
"`3`3`3`3`3`3.i.G.G.G.E.E.E.E.E.E.E`#`b`c`c`c`c`s`3`3`3`3`3`3`3`3",
"`3`3`3`3.G.G.G`3.g.p.E.E.E.E.E.E.E`#`b`c`c`c`t`3`3`3`3`3`3`3`3`3",
"`3`3`3`3.G.G.G`3`3`6.c.u.E.E.E.E.E`#`b`c`f`u`3`3`3`3`3`3`3`3`3`3",
"`3`3`3`3.G.G.G`3`3`3`3`3.v.B.E.E.E`#`b`g`p`3`3`3`3`3`3`3`3`3`3`3",
"`3`3`3`3`3`3`3`3`3`3`3`3`3.#.t.A.E`#`b`o`3`3`3`3`3`3`3`3`3`3`3`3",
"`3`3`3`3`3`3`3`3`3`3`3`3`3`3`3.f.G```r`3`3`3`3`3`3`3`3`3.G`3`3`3",
"`3`3`3`3`3`3`3`3`3`3`3`3`3`3`3`3.G`3`3`3`3`3`3`3`3`3`3`3.G`3`3`3",
"`3`3`3`3.G.G.G`3`3`3`3`3`3.G.G`3.G.G`3`3`3.G`3`3`3.G.G`3.G`3.G`3",
"`3`3`3`3.G.G.G`3`3`3`3`3.G`3`3`3.G`3.G`3.G`3.G`3.G`3`3`3.G.G`3`3",
"`3`3`3`3.G.G.G`3`3`3`3`3.G`3`3`3.G`3.G`3.G`3`3`3.G`3`3`3.G`3.G`3",
"`3`3`3`3`3`3`3`3`3`3`3`3`3.G.G`3.G`3.G`3`3.G.G`3`3.G.G`3.G`3.G`3",
"`3`3`3`3`3`3`3`3`3`3`3`3`3`3`3`3`3`3`3`3`3`3`3`3`3`3`3`3`3`3`3`3"
};
