/* XPM */
static char *hfQuickCtrl_xpm[] = {
/* width height num_colors chars_per_pixel */
"    32    32      256            2",
/* colors */
"`` c #b5b5bd",
"`. c #9ca5c5",
"`# c #8c9cce",
"`a c #7b94d6",
"`b c #94a5ce",
"`c c #2163f7",
"`d c #316bef",
"`e c #3a73ef",
"`f c #4273e6",
"`g c #4a7be6",
"`h c #5a84de",
"`i c #6b8cd6",
"`j c #0052ff",
"`k c #085aff",
"`l c #085af7",
"`m c #105af7",
"`n c #1963f7",
"`o c #296bef",
"`p c #3a73e6",
"`q c #638cde",
"`r c #7394d6",
"`s c #1063f7",
"`t c #216bf7",
"`u c #216bef",
"`v c #3173ef",
"`w c #427be6",
"`x c #5284de",
"`y c #5a8cde",
"`z c #6b94d6",
"`A c #7b9cce",
"`B c #9cadc5",
"`C c #adb5bd",
"`D c #00ff7b",
"`E c #ffbb96",
"`F c #bdbdbd",
"`G c #000000",
"`H c #000000",
"`I c #000000",
"`J c #000000",
"`K c #000000",
"`L c #000000",
"`M c #000000",
"`N c #000000",
"`O c #000000",
"`P c #000000",
"`Q c #000000",
"`R c #000000",
"`S c #000000",
"`T c #000000",
"`U c #000000",
"`V c #000000",
"`W c #000000",
"`X c #000000",
"`Y c #000000",
"`Z c #000000",
"`0 c #000000",
"`1 c #000000",
"`2 c #000000",
"`3 c #000000",
"`4 c #000000",
"`5 c #000000",
"`6 c #000000",
"`7 c #000000",
"`8 c #000000",
".` c #000000",
".. c #000000",
".# c #000000",
".a c #000000",
".b c #000000",
".c c #000000",
".d c #000000",
".e c #000000",
".f c #000000",
".g c #000000",
".h c #000000",
".i c #000000",
".j c #000000",
".k c #000000",
".l c #000000",
".m c #000000",
".n c #000000",
".o c #000000",
".p c #000000",
".q c #000000",
".r c #000000",
".s c #000000",
".t c #000000",
".u c #000000",
".v c #000000",
".w c #000000",
".x c #000000",
".y c #000000",
".z c #000000",
".A c #000000",
".B c #000000",
".C c #000000",
".D c #000000",
".E c #000000",
".F c #000000",
".G c #000000",
".H c #000000",
".I c #000000",
".J c #000000",
".K c #000000",
".L c #000000",
".M c #000000",
".N c #000000",
".O c #000000",
".P c #000000",
".Q c #000000",
".R c #000000",
".S c #000000",
".T c #000000",
".U c #000000",
".V c #000000",
".W c #000000",
".X c #000000",
".Y c #000000",
".Z c #000000",
".0 c #000000",
".1 c #000000",
".2 c #000000",
".3 c #000000",
".4 c #000000",
".5 c #000000",
".6 c #000000",
".7 c #000000",
".8 c #000000",
"#` c #000000",
"#. c #000000",
"## c #000000",
"#a c #000000",
"#b c #000000",
"#c c #000000",
"#d c #000000",
"#e c #000000",
"#f c #000000",
"#g c #000000",
"#h c #000000",
"#i c #000000",
"#j c #000000",
"#k c #000000",
"#l c #000000",
"#m c #000000",
"#n c #000000",
"#o c #000000",
"#p c #000000",
"#q c #000000",
"#r c #000000",
"#s c #000000",
"#t c #000000",
"#u c #000000",
"#v c #000000",
"#w c #000000",
"#x c #000000",
"#y c #000000",
"#z c #000000",
"#A c #000000",
"#B c #000000",
"#C c #000000",
"#D c #000000",
"#E c #000000",
"#F c #000000",
"#G c #000000",
"#H c #000000",
"#I c #000000",
"#J c #000000",
"#K c #000000",
"#L c #000000",
"#M c #000000",
"#N c #000000",
"#O c #000000",
"#P c #000000",
"#Q c #000000",
"#R c #000000",
"#S c #000000",
"#T c #000000",
"#U c #000000",
"#V c #000000",
"#W c #000000",
"#X c #000000",
"#Y c #000000",
"#Z c #000000",
"#0 c #000000",
"#1 c #000000",
"#2 c #000000",
"#3 c #000000",
"#4 c #000000",
"#5 c #000000",
"#6 c #000000",
"#7 c #000000",
"#8 c #000000",
"a` c #000000",
"a. c #000000",
"a# c #000000",
"aa c #000000",
"ab c #000000",
"ac c #000000",
"ad c #000000",
"ae c #000000",
"af c #000000",
"ag c #000000",
"ah c #000000",
"ai c #000000",
"aj c #000000",
"ak c #000000",
"al c #000000",
"am c #000000",
"an c #000000",
"ao c #000000",
"ap c #000000",
"aq c #000000",
"ar c #000000",
"as c #000000",
"at c #000000",
"au c #000000",
"av c #000000",
"aw c #000000",
"ax c #000000",
"ay c #000000",
"az c #000000",
"aA c #000000",
"aB c #000000",
"aC c #000000",
"aD c #000000",
"aE c #000000",
"aF c #000000",
"aG c #000000",
"aH c #000000",
"aI c #000000",
"aJ c #000000",
"aK c #000000",
"aL c #000000",
"aM c #000000",
"aN c #000000",
"aO c #000000",
"aP c #000000",
"aQ c #000000",
"aR c #000000",
"aS c #000000",
"aT c #000000",
"aU c #000000",
"aV c #000000",
"aW c #000000",
"aX c #000000",
"aY c #000000",
"aZ c #000000",
"a0 c #000000",
"a1 c #000000",
"a2 c #000000",
"a3 c #000000",
"a4 c #000000",
"a5 c #000000",
"a6 c #000000",
"a7 c #000000",
"a8 c #000000",
/* pixels */
"`E`E`E`E`E`E`E`E`E`E`E`E`a`r`v`h`q`m`o`g`z`E`E`E`E`E`E`E`E`E`E`E",
"`E`E`E`E`E`E`E`E`E`E`a`u`k`u`k`j`c`w`o`k`j`k`u`g`q`E`E`E`E`E`E`E",
"`E`E`E`E`E`E`E`E`E`f`j`w`o`z`A`x`E`E`E`E`E`q`v`l`j`w`E`E`E`E`E`E",
"`E`E`E`E`E`E`E`h`o`o`z`E`E`E`E`E`E`E`E`E`E`E`E`E`E`n`o`p`E`E`E`E",
"`E`E`E`E`E`E`E`u`o`E`E`E`E`E`E`E`E`E`E`E`E`E`E`E`E`A`e`m`h`A`E`E",
"`E`E`E`E`E`E`E`k`q`E`E`E`E`E`E`E`E`E`E`E`E`E`E`E`E`E`E`E`j`m`E`E",
"`E`E`E`E`E`E`r`j`E`E`E`E`E`E`E`E`E`E`D`E`D`E`E`E`E`E`E`E`E`w`p`E",
"`E`E`E`E`E`E`g`k`E`E`E`E`E`E`E`E`E`E`E`D`E`E`E`E`E`E`E`E`E`E`k`a",
"`E`E`E`E`E`E`E`s`E`E`E`E`E`E`E`E`E`E`E`D`E`E`E`E`E`E`E`E`E`E`z`n",
"`E`E`E`E`E`E`E`q`m`E`E`E`E`E`E`E`E`E`D`E`D`E`E`E`E`E`E`E`E`E`E`k",
"`E`E`E`E`E`E`E`E`t`q`E`E`E`E`E`E`E`E`E`E`E`E`E`E`E`E`E`E`E`E`E`k",
"`E`E`E`E`E`E`E`E`E`k`k`E`E`E`E`E`E`E`E`E`E`E`E`E`E`E`E`E`E`E`q`o",
"`E`E`E`E`E`E`E`E`E`q`f`v`q`E`E`E`E`E`E`E`E`E`E`E`E`E`E`E`E`E`o`y",
"`E`E`E`E`E`E`E`E`E`E`E`c`k`c`E`E`E`E`E`E`E`E`E`E`E`E`E`E`E`h`n`E",
"`E`E`E`E`E`E`E`E`E`E`E`E`E`e`k`d`q`E`E`E`E`E`E`E`E`E`E`E`o`n`r`E",
"`E`E`E`E`E`E`E`E`E`E`E`E`E`A`g`o`k`j`k`o`x`i`u`m`f`x`j`u`g`E`E`E",
"`E`E`E`E`E`E`E`E`E`E`G`E`E`E`E`E`G`r`x`o`p`n`p`a`x`x`q`E`E`E`E`E",
"`E`E`E`E`E`E`E`E`E`E`E`E`E`E`E`E`G`E`E`E`E`E`E`E`E`E`E`E`E`E`E`E",
"`E`E`G`G`G`E`G`E`G`E`G`E`E`G`G`E`G`E`G`E`E`E`E`E`E`E`E`E`E`E`E`E",
"`E`G`E`E`G`E`G`E`G`E`G`E`G`E`E`E`G`G`E`E`E`E`E`E`E`E`E`E`E`E`E`E",
"`E`G`E`E`G`E`G`E`G`E`G`E`G`E`E`E`G`E`G`E`E`E`E`E`E`E`E`E`E`E`E`E",
"`E`E`G`G`G`E`E`G`G`E`G`E`E`G`G`E`G`E`G`E`E`E`E`E`E`E`E`E`E`E`E`E",
"`E`E`E`E`G`E`E`E`E`E`E`E`E`E`E`E`E`E`E`E`E`E`E`E`E`E`E`E`E`E`E`E",
"`E`E`E`E`G`E`E`E`E`E`E`E`E`E`E`E`E`E`E`E`E`E`E`E`E`E`E`E`E`E`E`E",
"`E`E`E`E`E`E`E`E`E`E`E`E`E`E`E`E`E`E`E`E`E`E`E`E`E`E`E`E`E`E`E`E",
"`E`E`E`E`E`E`E`E`E`E`E`E`G`G`G`E`G`G`G`G`G`E`G`G`G`G`E`E`G`E`E`E",
"`E`E`E`E`E`E`E`E`E`E`E`G`E`E`E`G`E`E`G`E`E`E`G`E`E`E`G`E`G`E`E`E",
"`E`E`E`E`E`E`E`E`E`E`E`G`E`E`E`E`E`E`G`E`E`E`G`E`E`E`G`E`G`E`E`E",
"`E`E`E`E`E`E`E`E`E`E`E`G`E`E`E`E`E`E`G`E`E`E`G`G`G`G`E`E`G`E`E`E",
"`E`E`E`E`E`E`E`E`E`E`E`G`E`E`E`G`E`E`G`E`E`E`G`E`E`E`G`E`G`E`E`E",
"`E`E`E`E`E`E`E`E`E`E`E`E`G`G`G`E`E`E`G`E`E`E`G`E`E`E`G`E`G`G`G`E",
"`E`E`E`E`E`E`E`E`E`E`E`E`E`E`E`E`E`E`E`E`E`E`E`E`E`E`E`E`E`E`E`E"
};
