/* XPM */
static char *hfSafeFreeze_xpm[] = {
/* width height num_colors chars_per_pixel */
"    32    32      256            2",
/* colors */
"`` c #ffbb96",
"`. c #000000",
"`# c #e8f3f4",
"`a c #e3f0f3",
"`b c #cde2e4",
"`c c #b2d7e4",
"`d c #b6dbe8",
"`e c #a7d1de",
"`f c #a6d0dd",
"`g c #acd6e3",
"`h c #aad4e1",
"`i c #add7e4",
"`j c #acd5e2",
"`k c #a9d2df",
"`l c #b0dae7",
"`m c #afd8e5",
"`n c #aed7e4",
"`o c #abd3e0",
"`p c #a1c7d3",
"`q c #b2dbe8",
"`r c #b1d9e6",
"`s c #aed5e1",
"`t c #acd3df",
"`u c #9dc0cb",
"`v c #9bbec9",
"`w c #99bbc6",
"`x c #98bac5",
"`y c #b7dfec",
"`z c #b0d6e3",
"`A c #abd1dd",
"`B c #aacfdb",
"`C c #a9ceda",
"`D c #a4c7d3",
"`E c #a2c5d1",
"`F c #a0c3ce",
"`G c #9dbfca",
"`H c #9cbec9",
"`I c #9bbdc8",
"`J c #b7deeb",
"`K c #aed3df",
"`L c #a8ccd8",
"`M c #a5c8d4",
"`N c #b9e0ec",
"`O c #b9dfec",
"`P c #b8dfeb",
"`Q c #b5dbe7",
"`R c #b3d8e4",
"`S c #b2d7e3",
"`T c #b0d5e1",
"`U c #acd0dc",
"`V c #c1e8f5",
"`W c #bee4f1",
"`X c #bbe2ee",
"`Y c #b7dde9",
"`Z c #bfe6f2",
"`0 c #92afb8",
"`1 c #96b3bc",
"`2 c #b1d1db",
"`3 c #84a9b3",
"`4 c #82a7b1",
"`5 c #81a5af",
"`6 c #86abb5",
"`7 c #82a6b0",
"`8 c #7fa2ac",
".` c #91b8c3",
".. c #aad5e2",
".# c #a9d4e1",
".a c #a8d3e0",
".b c #a8d3df",
".c c #a5cfdb",
".d c #b1ddea",
".e c #afdae7",
".f c #aed9e6",
".g c #add8e5",
".h c #abd6e2",
".i c #a7d1dd",
".j c #b2ddea",
".k c #b1dce9",
".l c #b0dbe8",
".m c #a4ccd8",
".n c #b3deea",
".o c #b2dde9",
".p c #9fc5d0",
".q c #add5e1",
".r c #b1d9e5",
".s c #afd7e3",
".t c #9fc3ce",
".u c #9dc1cc",
".v c #99bcc6",
".w c #b5dde9",
".x c #a4c8d3",
".y c #a3c7d2",
".z c #a1c5d0",
".A c #a1c6d0",
".B c #a7cbd6",
".C c #a1c5cf",
".D c #9ec1cb",
".E c #a7cbd5",
".F c #a2c5cf",
".G c #a1c3cd",
".H c #accfd9",
".I c #a9ccd6",
".J c #9fc0c9",
".K c #9cbcc5",
".L c #95b3bc",
".M c #aed1db",
".N c #9ebec7",
".O c #9cbbc4",
".P c #96b4bd",
".Q c #a0bfc8",
".R c #9ab8c1",
".S c #99b7c0",
".T c #b5d7e1",
".U c #b4d6e0",
".V c #b2d4de",
".W c #b1d3dd",
".X c #b2d3dd",
".Y c #aacad3",
".Z c #b8d9e3",
".0 c #b7d8e2",
".1 c #b6d7e1",
".2 c #deecf0",
".3 c #7ea2ab",
".4 c #89afb9",
".5 c #80a4ad",
".6 c #8db3bd",
".7 c #b1deea",
".8 c #8cb0b9",
"#` c #90b4bd",
"#. c #8eb0b9",
"## c #85a5ad",
"#a c #95b8c1",
"#b c #94b7c0",
"#c c #93b6bf",
"#d c #92b4bd",
"#e c #a3c8d1",
"#f c #a2c7d0",
"#g c #a1c6cf",
"#h c #aaced7",
"#i c #a6c9d2",
"#j c #95b3bb",
"#k c #92b0b8",
"#l c #add0d9",
"#m c #98b6be",
"#n c #aed0d9",
"#o c #c7d7db",
"#p c #c9dde1",
"#q c #cbdee2",
"#r c #cee0e4",
"#s c #c0cfd2",
"#t c #bccacd",
"#u c #b8c6c9",
"#v c #d4e3e6",
"#w c #c8d6d9",
"#x c #bcc9cc",
"#y c #dbeaed",
"#z c #ccdadd",
"#A c #c1ced1",
"#B c #e0eef1",
"#C c #deecef",
"#D c #e2f0f3",
"#E c #e1eff2",
"#F c #deebee",
"#G c #d7e4e7",
"#H c #d5e2e5",
"#I c #e2eff2",
"#J c #d1e3e6",
"#K c #d0e2e5",
"#L c #cddfe2",
"#M c #ccdde0",
"#N c #d5e6e9",
"#O c #cfdfe2",
"#P c #cadee1",
"#Q c #cfe2e5",
"#R c #b3c1c3",
"#S c #bbc9cb",
"#T c #b7c5c7",
"#U c #b5c3c5",
"#V c #c5d3d5",
"#W c #beccce",
"#X c #a0babc",
"#Y c #cbe0e2",
"#Z c #cce1e3",
"#0 c #a5c0c2",
"#1 c #a4bfc1",
"#2 c #a3bec0",
"#3 c #a2bdbf",
"#4 c #ffffff",
"#5 c #000000",
"#6 c #000000",
"#7 c #000000",
"#8 c #000000",
"a` c #000000",
"a. c #000000",
"a# c #000000",
"aa c #000000",
"ab c #000000",
"ac c #000000",
"ad c #000000",
"ae c #000000",
"af c #000000",
"ag c #000000",
"ah c #000000",
"ai c #000000",
"aj c #000000",
"ak c #000000",
"al c #000000",
"am c #000000",
"an c #000000",
"ao c #000000",
"ap c #000000",
"aq c #000000",
"ar c #000000",
"as c #000000",
"at c #000000",
"au c #000000",
"av c #000000",
"aw c #000000",
"ax c #000000",
"ay c #000000",
"az c #000000",
"aA c #000000",
"aB c #000000",
"aC c #000000",
"aD c #000000",
"aE c #000000",
"aF c #000000",
"aG c #000000",
"aH c #000000",
"aI c #000000",
"aJ c #000000",
"aK c #000000",
"aL c #000000",
"aM c #000000",
"aN c #000000",
"aO c #000000",
"aP c #000000",
"aQ c #000000",
"aR c #000000",
"aS c #000000",
"aT c #000000",
"aU c #000000",
"aV c #000000",
"aW c #000000",
"aX c #000000",
"aY c #000000",
"aZ c #000000",
"a0 c #000000",
"a1 c #000000",
"a2 c #000000",
"a3 c #000000",
"a4 c #000000",
"a5 c #000000",
"a6 c #000000",
"a7 c #000000",
"a8 c #000000",
/* pixels */
"`````````````````````a`a`a`a````````````````````````````````````",
"```````````````a`a#D#B.2.2#B#E#E#I`a````````````````````````````",
"``````````#I#F#G#H#v#r#r#r#Q#J#N#y#B`a`a`a`a````````````````````",
"```````V`a#E#H#A#S#t#s#o#M#L#P#p#q#K#B`a`a`a`a`a````````````````",
"```````V`V`Z`T`u#R#R#U#u#W#V#z#O#L#r.2`a`a`a`a.Z.Z``````````````",
"```````W`Y`Y`J`C`G`w`x`x`x.v#T#S#A#w#G#C#I.Z.Z.Z.Z``````````````",
"```````Y`M`E`n`g`t`L.z`H`w`x`x`x`w`I#x.N.Y`2`2.X.0``````````````",
"```````S`u`v.c.b.b`h`j.q`B.B.z`u`I`w`x#k.S.N.J.F.U``````````````",
"```````R.t`u.c.b.b.a.a.#`h`h`g`z`K`D`I`0.S.D.C.C.W``````````````",
"```````R.z.u`f.a`h`i`i`i`h.a.a`g`y`d`D#j.O`F.C.A.V``````````````",
"```````T.t.t`f...f.k.o.o.k.g.#.#`q`N.B#j.O`F.C.x.U``````````````",
"```````A.u.p`e.g.k.n.n.n.n.o.g.#`l`O.B#j.O.F#g.E.T``````````````",
"```````L`G`p`e.e.j.n.n.n.n.n.l`h`r`O.B.L.K.F.A.I.1``````````````",
"``````.x`u.m.a.f.j.n.n.n.n.n.k`j`m`y`L.L.K.C.A#h.0``````````````",
"``````.y.t.i.#.g.k.7.j.j.j.j.k.h`i`P`L`1.K.C#f.H.0``````````````",
"```````D`F`k.a...e.o.d.j.j.j.k...h.w`L.P.N.C#f.H.0``````````````",
"``````.x`E`h.b.a...g.e.k.d.7.l`h.#.r.B.P.J#g#f#l.0``````````````",
"`#`b`b.B`E`r`g.a.a.a.#`i.l.k.g.a.a`j.E.P.G.A#f.M.0``````````````",
"`#`#`b.4`7.6`s.q`j`h.a.#..`g.#.b.a`o`M#m.F.A#e.V.Z`b`b``````````",
"`b`b`b`Q`6`4`7`M`B`z`n`g`h.#.a.b`h`s`M.R#i#e.I.1.Z`b`b`b````````",
"`b`b`b`b#0#0`5.3`8.C.B`A`s.r`m`i.o`c`D.O#n.8#`#a#a`b`b`b`b``````",
"`b`b`b`##Y`b`b#0#0.5`8.5.C.x`U`J`X`U.C.Q#d#b#a.Z`b`b`b`b`b``````",
"`#`#`````#`b`b`b#0#0#0#0#0`7`3`c`Y.x`F###c#a#0`b`#`b`b`b`b`#````",
"`````````#`#`#`b`b`b`b#0#0#X#X#2#3.`.6#.#1`b`b`#```#`#`#`#``````",
"`````````````#`#`b`#`#`#`b`b`b`b`b#Z#2#1`b`b`b`b`#``````````````",
"```````````````#`#`#```#`#`#`#`````#`b`b`b`b`b`#`#``````````````",
"```````````````````````.```#`#`````#`#`#`#`#`#`#````````````````",
"`````````````````````.``````````````````````````````````````````",
"`````````````````````.`.```.`.`````.```````.`````.`.`.`````.````",
"`````````````````````.`````.`````.```.```.```.```````.```.```.``",
"`````````````````````.`````.`````.```````.```````.```````.``````",
"`````````````````````.`````.```````.`.`````.`.```.`.`.`````.`.``"
};
