/* XPM */
static char *hfSplitComponentShading_xpm[] = {
/* width height num_colors chars_per_pixel */
"    32    32      256            2",
/* colors */
"`` c #ef0811",
"`. c #ff000e",
"`# c #f2000d",
"`a c #0300ff",
"`b c #0300fc",
"`c c #0000ff",
"`d c #0003fc",
"`e c #0203fe",
"`f c #0305fd",
"`g c #0009f6",
"`h c #000af5",
"`i c #0027d8",
"`j c #002ed1",
"`k c #023fc0",
"`l c #4e82c9",
"`m c #0053ac",
"`n c #5c9ac0",
"`o c #5f9fbe",
"`p c #619fbc",
"`q c #62a3bc",
"`r c #63a5bb",
"`s c #64a6bb",
"`t c #008080",
"`u c #71bdb1",
"`v c #79c9ac",
"`w c #00a45b",
"`x c #00ac53",
"`y c #00cc33",
"`z c #00de21",
"`A c #00e718",
"`B c #00fd05",
"`C c #00f807",
"`D c #00ff00",
"`E c #07ff06",
"`F c #18ff18",
"`G c #26ff26",
"`H c #31ff30",
"`I c #07f800",
"`J c #4cff4a",
"`K c #4fff4d",
"`L c #5eff5c",
"`M c #61ff5f",
"`N c #6bff69",
"`O c #6dff6b",
"`P c #83ff81",
"`Q c #8cff89",
"`R c #8cff8a",
"`S c #8eff8b",
"`T c #92ff90",
"`U c #99ff96",
"`V c #0df200",
"`W c #99fe95",
"`X c #9afd95",
"`Y c #19e600",
"`Z c #24db00",
"`0 c #26d900",
"`1 c #9fef8d",
"`2 c #2dd200",
"`3 c #92e878",
"`4 c #a6de83",
"`5 c #50af00",
"`6 c #53ac00",
"`7 c #adcd79",
"`8 c #808000",
".` c #8b7400",
".. c #c88a51",
".# c #c78b52",
".a c #ca854e",
".b c #cc7f4b",
".c c #cd7e4a",
".d c #b44609",
".e c #cf7847",
".f c #c63900",
".g c #cf4312",
".h c #cf3000",
".i c #db5a35",
".j c #e14b2c",
".k c #e14c2d",
".l c #e04e2e",
".m c #e63f25",
".n c #e81700",
".o c #f31e12",
".p c #f12415",
".q c #f70800",
".r c #f60900",
".s c #ff0000",
".t c #fe0302",
".u c #000000",
".v c #000000",
".w c #000000",
".x c #000000",
".y c #000000",
".z c #000000",
".A c #000000",
".B c #000000",
".C c #000000",
".D c #000000",
".E c #000000",
".F c #000000",
".G c #000000",
".H c #000000",
".I c #000000",
".J c #000000",
".K c #000000",
".L c #000000",
".M c #000000",
".N c #000000",
".O c #000000",
".P c #000000",
".Q c #000000",
".R c #000000",
".S c #000000",
".T c #000000",
".U c #000000",
".V c #000000",
".W c #000000",
".X c #000000",
".Y c #000000",
".Z c #000000",
".0 c #000000",
".1 c #000000",
".2 c #000000",
".3 c #000000",
".4 c #000000",
".5 c #000000",
".6 c #000000",
".7 c #000000",
".8 c #000000",
"#` c #000000",
"#. c #000000",
"## c #000000",
"#a c #000000",
"#b c #000000",
"#c c #000000",
"#d c #000000",
"#e c #000000",
"#f c #000000",
"#g c #000000",
"#h c #000000",
"#i c #000000",
"#j c #000000",
"#k c #000000",
"#l c #000000",
"#m c #000000",
"#n c #000000",
"#o c #000000",
"#p c #000000",
"#q c #000000",
"#r c #000000",
"#s c #000000",
"#t c #000000",
"#u c #000000",
"#v c #000000",
"#w c #000000",
"#x c #000000",
"#y c #000000",
"#z c #000000",
"#A c #000000",
"#B c #000000",
"#C c #000000",
"#D c #000000",
"#E c #000000",
"#F c #000000",
"#G c #000000",
"#H c #000000",
"#I c #000000",
"#J c #000000",
"#K c #000000",
"#L c #000000",
"#M c #000000",
"#N c #000000",
"#O c #000000",
"#P c #000000",
"#Q c #000000",
"#R c #000000",
"#S c #000000",
"#T c #000000",
"#U c #000000",
"#V c #000000",
"#W c #000000",
"#X c #000000",
"#Y c #000000",
"#Z c #000000",
"#0 c #000000",
"#1 c #000000",
"#2 c #000000",
"#3 c #000000",
"#4 c #000000",
"#5 c #000000",
"#6 c #000000",
"#7 c #000000",
"#8 c #000000",
"a` c #000000",
"a. c #000000",
"a# c #000000",
"aa c #000000",
"ab c #000000",
"ac c #000000",
"ad c #000000",
"ae c #000000",
"af c #000000",
"ag c #000000",
"ah c #000000",
"ai c #000000",
"aj c #000000",
"ak c #000000",
"al c #000000",
"am c #000000",
"an c #000000",
"ao c #000000",
"ap c #000000",
"aq c #000000",
"ar c #000000",
"as c #000000",
"at c #000000",
"au c #000000",
"av c #000000",
"aw c #000000",
"ax c #000000",
"ay c #000000",
"az c #000000",
"aA c #000000",
"aB c #000000",
"aC c #000000",
"aD c #000000",
"aE c #000000",
"aF c #000000",
"aG c #000000",
"aH c #000000",
"aI c #000000",
"aJ c #000000",
"aK c #000000",
"aL c #000000",
"aM c #000000",
"aN c #000000",
"aO c #000000",
"aP c #000000",
"aQ c #000000",
"aR c #000000",
"aS c #000000",
"aT c #000000",
"aU c #000000",
"aV c #000000",
"aW c #000000",
"aX c #000000",
"aY c #000000",
"aZ c #000000",
"a0 c #000000",
"a1 c #000000",
"a2 c #000000",
"a3 c #000000",
"a4 c #000000",
"a5 c #000000",
"a6 c #000000",
"a7 c #000000",
"a8 c #000000",
/* pixels */
"`U`U`U`U`U`U`U`U`U`U`U`U`U`U`U`U`U.u`U`U`U`U`U`U`U`U`U`U`U`U`U`U",
"`U`U`U`U`U`U`U`U`U`U`U`U`U`U`U`U.u.u.u`U`U`U`U`U`U`U`U`U`U`U`U`U",
"`U`U`U`U`U`U`U`U`U`U`U`U`S`Q`M.u.u.u.u.u`U`U`U`U`U`U`U`U`U`U`U`U",
"`U`U`U`U`U`U`U`U`U`U`T`P`F`E.u.u.u.u.u.u.u`P`U`U`U`U`U`U`U`U`U`U",
"`U`U`U`U`U`U`U`U`O`N`H`D`D`D`D`D.u.u.u`D`D`D`L`N`N`R`U`U`U`U`U`U",
"`U`U`U`U`U`3`K`J`D`D`D`D`D`D`D`D.u.u.u`D`D`D`D`D`D`G`K`U`U`U`U`U",
"`U`U`U`U`U.g`2`D`D`D`D`D`D`D`D`D.u.u.u`D`D`D`D`D`D`w`m`U`U`U`U`U",
"`U`U`U`U`U.s.n.h`V`I`D`D`D`D`D`D.u.u.u`D`D`D`D`C`x`g`c`U`U`U`U`U",
"`U`U`U`U`U.s.s.s.q.r.``0`Z`D`D`D.u.u.u`D`D`A`y`h`d`c`c`U`U`U`U`U",
"`U`U`U`U`U.s.s.s.s.s.s.s.s`6`5`Y`D`D`D`D`z`i`c`c`c`c`c`U`U`U`U`U",
"`U`U`U`U`U.m.s.s.s.s.s.s.s.s.s.f`8`D`B`t`j`c`c`c`c`c`c`U`U`U`U`U",
"`U`U`U`U`U...s.s.s.s.s.s.s.s.s.s.s.d`k`c`c`c`c`c`c`c`l`U`U`U`U`U",
"`U`U`U`U`U.b.s.s.s.s.s.s.s.s.s.s.s`.`a`c`c`c`c`c`c`c`v`U`U`U`U`U",
"`U`U`U`U`U.b.s.s.s.s.s.s.s.s.s.s.s`#`b`c`c`c`c`c`c`c`u`U`U`U`U`U",
"`U`U`U`U`U.b.s.s.s.s.s.s.s.s.s.s.s`#`b`c`c`c`c.u`c`c`u`U`U`U`U`U",
"`U`U`U`U`U.b.s.s.s.s.u.s.s.s.s.s.s`#`b`c`c`c.u.u.u`c`u`U`U`U`U`U",
"`U`U`U`U`U.c.s.s.s.u.u.u.s.s.s.s.s`#`b`c`c.u.u.u.u.u`u`U`U`U`U`U",
"`U`U`U`U`U.a.t.s.u.u.u.u.u.s.s.s.s`#`b`c`c`c.u.u.u.u.u`U`U`U`U`U",
"`U`U`U`U`U`X.l.u.u.u.u.u.s.s.s.s.s`#`b`c`c`c`c.u.u.u.u.u`U.u`U`U",
"`U`U`U`U.u`U.u.u.u.u.u.s.s.s.s.s.s`#`b`c`c`c`c`c.u.u.u.u.u.u`U`U",
"`U`U`U`U.u.u.u.u.u.u.s.s.s.s.s.s.s`#`b`c`c`c`c`q`U.u.u.u.u.u`U`U",
"`U`U`U`U.u.u.u.u.u.e.s.s.s.s.s.s.s`#`b`c`c`c`r`U`U`U.u.u.u.u`U`U",
"`U`U`U`U.u.u.u.u`U`W`4.j.s.s.s.s.s`#`b`c`e`s`U`U`U.u.u.u.u.u`U`U",
"`U`U`U`U.u.u.u.u.u`U`U`U.k.p.s.s.s`#`b`f`o`U`U`U`U`U`U`U`U`U`U`U",
"`U`U`U`U`U`U`U`U`U`U`U`U`U`1.i.o.s`#`b`n`U`U`U`U`U`U`U`U`U`U`U`U",
"`U`U`U`U`U`U`U`U`U`U`U`U`U`U`U`7.#```p`U`U`U`U`U`U.u`U.u`U`U`U`U",
"`U`U`U`U`U`U`U`U`U`U`U`U`U`U`U`U`U`U`U`U`U`U`U`U`U.u`U`U`U.u`U`U",
"`U`U`U`U`U`U`U`U`U`U`U`U`U`U`U`U`U.u.u`U.u.u.u`U`U.u`U.u`U.u.u`U",
"`U`U`U`U`U`U`U`U`U`U`U`U`U`U`U`U.u`U`U`U.u`U`U.u`U.u`U.u`U.u`U`U",
"`U`U`U`U`U`U`U`U`U`U`U`U`U`U`U`U`U`U.u`U.u`U`U.u`U.u`U.u`U.u`U`U",
"`U`U`U`U`U`U`U`U`U`U`U`U`U`U`U`U.u.u`U`U.u.u.u`U`U.u`U.u`U`U.u`U",
"`U`U`U`U`U`U`U`U`U`U`U`U`U`U`U`U`U`U`U`U.u`U`U`U`U`U`U`U`U`U`U`U"
};
