/* XPM */
static char *iconBeaverSmall_xpm[] = {
/* width height num_colors chars_per_pixel */
"    32    32        8            1",
/* colors */
"` c #000000",
". c #968d78",
"# c #5e4e31",
"a c #3a3000",
"b c #76746c",
"c c #c4c2c4",
"d c #b3b3b3",
"e c #ffffff",
/* pixels */
"cccccccccccdddcccccccccccccccccc",
"bbbbbbbb.#aaaaa###bbbaa#bbbbbbbb",
"ccccccce#```a`````a#a```#.dccccc",
"cccccccd`#a``aaaaa````aa`#.ccccc",
"ccccccc#ab#`a#aa###a`ab#`abdcccc",
"bbbbbbb`##`a#a````##a`b.a`abbbbb",
"ccccccb`#``#a`dba#`##`#.aa#dcccc",
"ccccccb`a`##`bebdeaaba`baabccccc",
"ccccccda`a#`#eebded`##a#`a.ccccc",
"bbbbbbb#`a#`ce#`aeeaa#```abbbbbb",
"cccccccca##aeea``ee.abaa#bcccccc",
"cccccccd`##`.db`.dd#abaa#bcccccc",
"cccccccaab#aa`````a`#b#`#bdccccc",
"bbbbbbaaa#b..#``a..bb##a`a#bbbbb",
"ccccda`aa`#...aab...#aa#`abdcccc",
"ccccda`a#a#.......b.#aa#`a#dcccc",
"ccccc.`###a#bbb#b..b#a##aa#dcccc",
"bbbbb#`a##aaaaaa`###a###aaabbbbb",
"cccccda`#####acbbaaa###a`abccccc",
"ccccccdaa####aeb.#####a`a#.ccccc",
"cccccccdaa###aaaaa###aa`##dccccc",
"bbbbbbbb`aaa########aaa`aabbbbbb",
"cc```````````````````````````ccc",
"cc`eeeeeeeeeeeeeeeeeeeeeeeee`#dc",
"cc`e```e```e```e`e`e```e```e`a.c",
"bb`e`e`e`eee`e`e`e`e`eee`e`e`a#b",
"cc`e```e```e```e`e`e```e``ee`a.c",
"cc`e`e`e`eee`e`e```e`eee`e`e`abc",
"cc`e```e```e`e`ee`ee```e`e`e`abc",
"bb`eeeeeeeeeeeeeeeeeeeeeeeee`aab",
"cc```````````````````````````#bc",
"cccdaaaaaaaaaaaaaaaaaaaa````a#dc"
};
