/* XPM */
static char *iconBeaverBig_xpm[] = {
/* width height num_colors chars_per_pixel */
"    32    32        8            1",
/* colors */
"` c #000000",
". c #9a8f78",
"# c #5f4e30",
"a c #787366",
"b c #463300",
"c c #c5c3c5",
"d c #b4b4b4",
"e c #ffffff",
/* pixels */
"cccccccccccccccccccccccccccccccc",
"aaaaaaaaaaaaaaaaaaaaaaaaaaaaaaaa",
"ccccccced#aaaa#acccccddaa.dccccc",
"cccccce.```b#```b``#dab```#.dccc",
"cccccce``b```````b``b```b``#adcc",
"aaaaaa#`##b``bbb##bb```b#b``b#aa",
"ccccccbba#b`b#bbb###bb`baab`#acc",
"cccccd`#a``b#b`````###b`a.b`#adc",
"cccccb`ab`b#b`#c`b``##b`a.#`#adc",
"aaaaab`#``##``ee`ee`b##``.#`b#aa",
"ccccc#`b`ba``cee`eea`##b`ab`#.cc",
"cccccd```##`deee`eee`babb#``#dcc",
"ccccccd`ba`beeb```eea`a#```#accc",
"aaaaaaa`ba`#ee#```eec`##``bbaaaa",
"ccccccd`bab`eee``eeec`#ab`##dccc",
"cccccc#`aab```````````aab`##.ccc",
"ccccea`b#a#a.b````#a#aaa#``#adcc",
"aaa.b`bbb#...#```#...aabb#``baaa",
"cccb``#``baa..#b#...aab``#``#adc",
"cccb``b#bbaaa.......aab`b#``b#dc",
"ccccbb###`#a...aa..aaa#b##b`#adc",
"aaaa``b###`b##b``#aaa#`###b`b#aa",
"cccc#``####bb`bd`b`bb`b##bb`#acc",
"cccc.b`b####a`eebebb####b```#.cc",
"cccccd``#####`ee`e`#####b``#adcc",
"aaaaaa#`bb###b``b``b##bb``bb#aaa",
"ccccccc``bbb########bbbb``##.ccc",
"cccccc``bbbbbbbbbbbbbbbbb``#adcc",
"cccccb`bbbbbbbbbbbbbbbbbbb``#adc",
"aaaab`bb`bbbbbbbbbbbbbbb`bb``b#a",
"cceabbb`bbbbbbbb##bbbbbb``b``#ad",
"ce.#`bb`bbbb#########bbbb`bb``#."
};
