/* XPM */
static char *makeNulls_xpm[] = {
/* width height num_colors chars_per_pixel */
"    32    32      256            2",
/* colors */
"`` c #2a2c2b",
"`. c #1c1f1d",
"`# c #162e1b",
"`a c #196126",
"`b c #16361c",
"`c c #224328",
"`d c #2c3c2f",
"`e c #242925",
"`f c #232824",
"`g c #0e3f16",
"`h c #133819",
"`i c #1b3e21",
"`j c #223b26",
"`k c #232f25",
"`l c #313d33",
"`m c #0d4115",
"`n c #104c18",
"`o c #0f3f16",
"`p c #0e3b14",
"`q c #123f18",
"`r c #14411a",
"`s c #133e19",
"`t c #103415",
"`u c #153e1b",
"`v c #143619",
"`w c #15371a",
"`x c #1d4923",
"`y c #132816",
"`z c #224627",
"`A c #203d24",
"`B c #19281b",
"`C c #1f2d21",
"`D c #364538",
"`E c #12741d",
"`F c #10671a",
"`G c #12731d",
"`H c #10651a",
"`I c #0f5e18",
"`J c #158322",
"`K c #158122",
"`L c #126f1d",
"`M c #106219",
"`N c #0e5716",
"`O c #0e5616",
"`P c #178c24",
"`Q c #178c25",
"`R c #178924",
"`S c #168623",
"`T c #158022",
"`U c #157f21",
"`V c #13731e",
"`W c #126d1c",
"`X c #126c1c",
"`Y c #106119",
"`Z c #106019",
"`0 c #0c4813",
"`1 c #157d21",
"`2 c #157c21",
"`3 c #12691c",
"`4 c #0e5316",
"`5 c #157a21",
"`6 c #157921",
"`7 c #11621a",
"`8 c #11611a",
".` c #0f5717",
".. c #0e5116",
".# c #136c1d",
".a c #1a8f27",
".b c #1b932a",
".c c #0b3b11",
".d c #187b23",
".e c #177522",
".f c #12591a",
".g c #135c1c",
".h c #166a20",
".i c #15641e",
".j c #1f902c",
".k c #1b7d26",
".l c #229a31",
".m c #16621f",
".n c #0f4315",
".o c #1f872b",
".p c #1c7b27",
".q c #176320",
".r c #104517",
".s c #249831",
".t c #239430",
".u c #1f832b",
".v c #1b7225",
".w c #269a33",
".x c #269933",
".y c #175a1f",
".z c #134a1a",
".A c #258f31",
".B c #299b37",
".C c #144c1b",
".D c #154f1c",
".E c #299536",
".F c #2a9437",
".G c #30a83e",
".H c #15491b",
".I c #123f17",
".J c #14421a",
".K c #15431b",
".L c #1c5823",
".M c #37aa44",
".N c #113515",
".O c #1a4f20",
".P c #1a4e20",
".Q c #194a1f",
".R c #1c5122",
".S c #17411c",
".T c #40b34d",
".U c #1d4b23",
".V c #143318",
".W c #1d4822",
".X c #1d4722",
".Y c #63db71",
".Z c #1e4222",
".0 c #214826",
".1 c #26492a",
".2 c #224126",
".3 c #254629",
".4 c #243c27",
".5 c #243526",
".6 c #252d26",
".7 c #168d23",
".8 c #0e5a16",
"#` c #106419",
"#. c #0e5816",
"## c #168722",
"#a c #126f1c",
"#b c #0f5c17",
"#c c #188f25",
"#d c #14771e",
"#e c #0e5315",
"#f c #0d4d14",
"#g c #199026",
"#h c #14721e",
"#i c #1a9127",
"#j c #105817",
"#k c #177d22",
"#l c #125f1a",
"#m c #1d942a",
"#n c #14651c",
"#o c #1e952b",
"#p c #1f962c",
"#q c #176f20",
"#r c #1a7b24",
"#s c #20922c",
"#t c #21932d",
"#u c #1f8b2a",
"#v c #1d8228",
"#w c #14591b",
"#x c #208c2b",
"#y c #14571b",
"#z c #114a17",
"#A c #20892b",
"#B c #23932f",
"#C c #259831",
"#D c #228b2d",
"#E c #289f35",
"#F c #269632",
"#G c #144e1a",
"#H c #114216",
"#I c #24892e",
"#J c #22812c",
"#K c #299a35",
"#L c #144b1a",
"#M c #113f16",
"#N c #2c9f38",
"#O c #278d32",
"#P c #2c9e38",
"#Q c #2fa63c",
"#R c #2d9f39",
"#S c #124017",
"#T c #31a33d",
"#U c #34ab41",
"#V c #1b5721",
"#W c #123a16",
"#X c #37ae44",
"#Y c #1a5320",
"#Z c #1a5120",
"#0 c #1f5f26",
"#1 c #18471d",
"#2 c #43ba50",
"#3 c #42b54e",
"#4 c #4ac157",
"#5 c #1a421e",
"#6 c #51c85e",
"#7 c #53ca60",
"#8 c #1f4b23",
"a` c #1c4420",
"a. c #57ce64",
"a# c #193a1c",
"aa c #6de47a",
"ab c #223924",
"ac c #2a352b",
"ad c #202c21",
"ae c #213122",
"af c #2a2e2a",
"ag c #272a27",
"ah c #2c2e2c",
"ai c #242524",
"aj c #f4a351",
"ak c #343434",
"al c #2d2d2d",
"am c #2c2c2c",
"an c #2b2b2b",
"ao c #2a2a2a",
"ap c #292929",
"aq c #000000",
"ar c #ffffff",
"as c #000000",
"at c #000000",
"au c #000000",
"av c #000000",
"aw c #000000",
"ax c #000000",
"ay c #000000",
"az c #000000",
"aA c #000000",
"aB c #000000",
"aC c #000000",
"aD c #000000",
"aE c #000000",
"aF c #000000",
"aG c #000000",
"aH c #000000",
"aI c #000000",
"aJ c #000000",
"aK c #000000",
"aL c #000000",
"aM c #000000",
"aN c #000000",
"aO c #000000",
"aP c #000000",
"aQ c #000000",
"aR c #000000",
"aS c #000000",
"aT c #000000",
"aU c #000000",
"aV c #000000",
"aW c #000000",
"aX c #000000",
"aY c #000000",
"aZ c #000000",
"a0 c #000000",
"a1 c #000000",
"a2 c #000000",
"a3 c #000000",
"a4 c #000000",
"a5 c #000000",
"a6 c #000000",
"a7 c #000000",
"a8 c #000000",
/* pixels */
"ajajajajajajaj#V`Q#m#aapajajajajajajajajajajajajajajajajajajajaj",
"ajajajajajajaj#Y`P#m`Wapajajajajajajajajajajajajajajajajajajajaj",
"ajajajajajajaj#Z`Q#i`Fapajajajajajajajajajajajajajajajajajajajaj",
"ajajajajajajaj.O`R#i`Hapajajajajajajajajajajajajajajajajajajajaj",
".1`j.4ajajajaj.O`J#g`Mapajajajaj`l`c`zajajajajajajajajajajajajaj",
"#r#v#y#W`Aajaj.P`K#g`Yapajaj`d.L#D#I`I.cajajajajajajajajajajajaj",
"#w#A#t#x.g`p`i#1`T#c`Maiac#0#B#K.k`V.`.cajajajajajajajajajajajaj",
".5.N.z.d#C.s.h#j`U#c#b#q.t.x#u#h#e`t`.alajajajajajajajajajajajaj",
"ajajad.V`q.o.w.##d#c#..j#s#k#f`b`.amajajajajajajajajajajajajajaj",
"ajajajaj#H.D.v`4`1.b.l`L`7.c.Qafajajajajajajajajajajajajajajajaj",
"ajaj.W`n.y.e.a#g#..8#o#X#U#o.C`u.2ajajajajajajajajajajajajajajaj",
".0`n.q.p.A#P`U`a.c.c.n`X#Q#4#2#N.i.K.Zajajajajajajajajajajajajaj",
".m.u.F.M.7`0`g.H`E###z`r#M`3.G#6a.#3#J#L#5ajajajajajajajajajajaj",
".E.T#p`O.r`Baj`s.b#p`7agae`w.I#n#R#7#4#E#O.Sajajajajajajajajajaj",
".B..`m`yahajaj#8`R#g`8apajaj`k`v#S.f#Taa.Y#lalajajajajajajajajaj",
"`o`h`eajajajaj.U`S`P#`apajajajaj.6a#.J#F`Ka`aoajajajajajajajajaj",
"ajajajajajajaj`x`U`S`Yapajajajajajaj```C`#`fajajajajajajajajajaj",
"ajajajajajajaj`x`5`T`Zapajajajajajajajajajajajajajajajajajajajaj",
"ajajajajajajaj.W`6`2#bapajajajajajajajajajajajajajajajajajajajaj",
"ajajajajajajaj.X`G#d`Napajajajajajajajajajajajajajajajajajajajaj",
"ajajajajajajaj.3#d#d#Ganajajajajajajajajajajajajajajajajajajajaj",
"ajajajajajajaj`D.R.Habakajajajajajajajajajajajajajajajajajajajaj",
"ajajajajajajajajakapapajajajajajajajajajajajajajajajajajajajajaj",
"ajajajajajajajajajajajajajajajajajajajajajajajaqajaqajajajajajaj",
"ajajajajajajajajajajajajajajajajajajajajajajajaqajaqajajajajajaj",
"ajajajajajajajajajajajajajajajajajajajajajajajaqajaqajajajajajaj",
"ajajajajajajajajajajajaqaqaqaqajajaqajajajaqajaqajaqajajaqaqaqaj",
"ajajajajajajajajajajajaqajajajaqajaqajajajaqajaqajaqajaqajajajaj",
"ajajajajajajajajajajajaqajajajaqajaqajajajaqajaqajaqajajaqaqajaj",
"ajajajajajajajajajajajaqajajajaqajaqajajaqaqajaqajaqajajajajaqaj",
"ajajajajajajajajajajajaqajajajaqajajaqaqajaqajaqajaqajaqaqaqajaj",
"ajajajajajajajajajajajajajajajajajajajajajajajajajajajajajajajaj"
};
