/* XPM */
static char * image_name[]={
"46 48 17 2",
"  	c #121212",
". 	c #00562D",
"X 	c #2E2E2E",
"o 	c #141414",
"O 	c #2F4F4F",
"+ 	c #4D4D4D",
"@ 	c #32814B",
"# 	c #383838",
"$ 	c #303030",
"% 	c #404040",
"& 	c #171717",
"* 	c #0D0D0D",
"= 	c #050505",
"- 	c #080808",
"; 	c #030303",
": 	c #000001",
"> 	c #000000",
"  . . X X X X X X X X X X X X X X X X X X X X X X X X X X X X X X X X X X X X X X X X X X o ",
". O + + + + + + + + + + + + + + + + + + + + + + + + + + + + + + + + + + + + + + + + + @ @ # ",
"O @ @ @ @ @ @ @ @ @ @ @ @ @ @ @ @ @ @ @ @ @ @ @ @ @ @ @ @ @ @ @ @ @ @ @ @ @ @ @ @ @ @ @ @ # ",
"# @ @ @ @ @ @ @ @ @ @ @ @ @ @ @ @ @ @ @ @ @ @ @ @ @ @ @ @ @ @ @ @ @ @ @ @ @ @ @ @ @ @ @ @ @ ",
"@ @ @ @ @ @ @ @ @ @ @ @ @ @ @ @ @ @ @ @ @ @ @ @ @ @ @ @ @ @ @ @ @ @ @ @ @ @ @ @ @ @ @ @ @ # ",
". @ @ @ @ @ @ @ @ @ @ @ @ @ @ @ @ @ @ @ @ @ @ @ @ @ @ @ @ @ @ @ @ @ @ @ @ @ @ @ @ @ @ @ @ @ ",
"@ @ @ @ @ @ @ @ @ @ @ @ @ @ @ @ @ @ @ @ @ @ @ @ @ @ @ @ @ @ @ @ @ @ @ @ @ @ @ @ @ @ @ @ @ # ",
". @ @ @ @ @ @ @ @ @ @ @ @ @ @ @ @ @ @ @ @ @ @ @ @ @ @ @ @ @ @ @ @ @ @ @ @ @ @ @ @ @ @ @ @ @ ",
"O @ @ @ @ @ @ @ @ @ @ @ @ @ @ @ @ @ @ @ @ @ @ @ @ @ @ @ @ @ @ @ @ @ @ @ @ @ @ @ @ @ @ @ @ # ",
"$ @ @ @ @ @ @ @ @ @ @ O O + O O O + @ @ @ @ @ @ @ @ @ @ @ @ @ @ @ @ @ @ @ @ @ @ @ @ @ @ @ @ ",
"+ @ @ @ @ @ @ O % X & & & & & & & & . $ # O @ @ @ @ @ @ @ @ @ @ @ @ @ @ @ @ @ @ @ @ @ @ @ # ",
"# @ @ @ @ + % . & * * = = = = = = = = -   & X # O @ @ @ @ @ @ @ @ @ @ @ @ @ @ @ @ @ @ @ @ @ ",
"@ @ @ + . &   * = ; ; ; ; ; ; ; ; ; ; = = * * & & . O @ @ @ @ @ @ @ @ @ @ @ @ @ @ @ @ @ @ # ",
"X O + # & * = = = = *             * * = = = ; = = -   $ O @ @ @ @ @ @ @ @ @ @ @ @ @ @ @ @ @ ",
". . & * = ; = * & X # % O O O % # $ X . o * ; : ; = *   . # @ @ @ @ @ @ @ @ @ @ @ @ @ @ @ # ",
"*   * = = *   X . O @ @ @ @ @ @ @ @ @ O O . & * = ; ; = = * X O @ @ @ @ @ @ @ @ @ @ @ @ @ @ ",
"= = = =   . O @ @ @ @ @ @ @ @ @ @ @ @ @ @ + O X   = : : = - o . @ @ @ @ @ @ @ @ @ @ @ @ @ # ",
": : =   X O @ @ @ @ @ @ @ @ @ @ @ @ @ @ @ @ @ @ % . * = : : = * . O @ @ @ @ @ @ @ @ @ @ @ @ ",
": * . % @ @ @ @ @ @ @ + O % % O @ @ @ @ @ @ @ @ @ % & - : : ; - o # @ @ @ @ @ @ @ @ @ @ @ # ",
"- & # @ @ @ @ @ @ O # $ . & & & X . % + @ @ @ @ @ @ @ X   = : : = * $ @ @ @ @ @ @ @ @ @ @ @ ",
". O @ @ @ @ @ # . &   * * - - *   o & X . O @ @ @ @ @ # o = ; : = * . O @ @ @ @ @ @ @ @ @ # ",
". @ @ @ @ @ # & * = = = ; ; ; ; ; = = = * & # @ @ @ @ @ O & * : : : = & + @ @ @ @ @ @ @ @ @ ",
"+ @ @ @ % .   = ; : : : > > > : : : ; ; = * & . @ @ @ @ O X * ; > ; - . + @ @ @ @ @ @ @ @ # ",
"# @ @ @ $ * = = ; : = = - * * * * = = : : ; = * . O @ @ @ + . = ; > : - X O @ @ @ @ @ @ @ @ ",
"@ @ O . * ; : : : = * . . # . . X & * ; : : = - & % @ @ @ O . = ; > = * . O @ @ @ @ @ @ @ # ",
"# + # o - = : = -   X % + @ @ @ @ O . & * ; : : =   % @ @ @ O & - : : ; = . + @ @ @ @ @ @ @ ",
"# #   = : ; = o . % @ @ @ @ @ @ @ @ @ .   = ; : = & O @ @ @ # o = > : ; * X @ @ @ @ @ @ @ # ",
"o & * = : = * X O @ @ @ @ @ @ @ @ @ @ @ #   = : : * X @ @ @ @ .   = > : :   O @ @ @ @ @ @ @ ",
"* * = : ; * $ @ @ @ @ @ @ @ @ @ @ @ @ @ # o = : =   . @ @ @ + X - > : : = X @ @ @ @ @ @ @ # ",
": = : : ;   # @ @ @ @ @ @ @ @ @ @ @ @ @ @ . * = : = & O @ @ @ % o = : : :   % @ @ @ @ @ @ @ ",
": : : = * $ @ @ @ @ @ @ O + @ @ @ @ @ @ % & = : = * X @ @ @ @ X * : > : = X @ @ @ @ @ @ @ # ",
": : > = * . @ @ @ @ @ # & X + @ @ @ @ @ O . * = : = . O @ @ @ %   = : : : o O @ @ @ @ @ @ @ ",
"> > ; * X + @ @ @ O .   * X @ @ @ @ @ O . = = : = o O @ @ @ @ . * : : = * $ @ @ @ @ @ @ @ # ",
"> > : = . O @ @ @ @ & - = * . @ @ @ @ % & - ; : :   % @ @ @ @ #   = : = - X + @ @ @ @ @ @ @ ",
"; : =   . @ @ @ @ # * ; = * & . % # X   = : : ; * $ @ @ @ @ O . - : : - & % @ @ @ @ @ @ @ # ",
"; > : = & % @ @ @ @ . = ; ; = *   o * = = : > =   # @ @ @ @ O . * ; : = & % @ @ @ @ @ @ @ @ ",
"> : ; * X O @ @ @ O & = > : : = - = ; : : : = & % @ @ @ @ + & = ; : =   # @ @ @ @ @ @ @ @ # ",
"> > > = * X @ @ @ @ O . * : : : : ; : : = -   X + @ @ @ @ + . - ; : ;   # @ @ @ @ @ @ @ @ @ ",
"; : : = * X @ @ @ @ @ $ * : ; > ; > : = * X % @ @ @ @ @ + X - : > = * . @ @ @ @ @ @ @ @ @ # ",
"= = ; : : * X @ @ @ @ @ # & * * * * * o X % @ @ @ @ @ @ % . * ; : =   . @ @ @ @ @ @ @ @ @ @ ",
"&   ; : = * . O @ @ @ @ @ % # . . # % O @ @ @ @ @ @ @ # o = ; : ; * # @ @ @ @ @ @ @ @ @ @ # ",
". # & = ; ; = & # + @ @ @ @ @ @ @ @ @ @ @ @ @ @ @ @ O X * = : : = o % @ @ @ @ @ @ @ @ @ @ @ ",
"O O X * : : = * & # + @ @ @ @ @ @ @ @ @ @ @ @ @ @ . & - = : : - . O @ @ @ @ @ @ @ @ @ @ @ # ",
"# @ @ # o = ; ; = * & # @ @ @ @ @ @ @ @ @ @ @ @ # & * = ; : =   . @ @ @ @ @ @ @ @ @ @ @ @ @ ",
"@ @ @ O X * = : ; =   & $ % O O + + + O O # X &   = : : : - & # @ @ @ @ @ @ @ @ @ @ @ @ @ # ",
". @ @ @ @ # & * = ; ; = *   & & X X X X . & * - = = : = =   X O @ @ @ @ @ @ @ @ @ @ @ @ @ @ ",
"+ @ @ @ @ O . o - > : ; = = - * * * * * * = = : : : ; * . # @ @ @ @ @ @ @ @ @ @ @ @ @ @ @ # ",
"& % O + + O % X   = : > : : ; ; ; = = = ; ; : : : > > - & # % O + O + O O O O O + O + + @ # "
};
