/* XPM */
static char * mip_cameramap_xpm[] = {
"32 32 256 2",
"  	c None",
". 	c #0A1012",
"+ 	c #0D1214",
"@ 	c #10120F",
"# 	c #0F1416",
"$ 	c #111517",
"% 	c #141513",
"& 	c #0F161C",
"* 	c #121618",
"= 	c #0E1819",
"- 	c #15161D",
"; 	c #161715",
"> 	c #101A1A",
", 	c #171917",
"' 	c #131A20",
") 	c #111B1C",
"! 	c #121C1D",
"~ 	c #151C22",
"{ 	c #181C1E",
"] 	c #1B1C1A",
"^ 	c #141E1E",
"/ 	c #1B1F21",
"( 	c #201F19",
"_ 	c #182223",
": 	c #1B2128",
"< 	c #1D2123",
"[ 	c #192324",
"} 	c #1C2329",
"| 	c #1A2425",
"1 	c #1F2325",
"2 	c #1B2526",
"3 	c #1E252B",
"4 	c #1C2727",
"5 	c #1D2728",
"6 	c #1F262D",
"7 	c #242624",
"8 	c #1E2829",
"9 	c #232728",
"0 	c #24282A",
"a 	c #22292F",
"b 	c #202A2B",
"c 	c #25292B",
"d 	c #232A27",
"e 	c #282927",
"f 	c #1E2C27",
"g 	c #262A2C",
"h 	c #242B31",
"i 	c #272B2D",
"j 	c #222D2D",
"k 	c #242E2F",
"l 	c #292D2F",
"m 	c #272E34",
"n 	c #252F30",
"o 	c #2A2E30",
"p 	c #282F36",
"q 	c #2B2F31",
"r 	c #233136",
"s 	c #2C3032",
"t 	c #283233",
"u 	c #2A3138",
"v 	c #2D3133",
"w 	c #293334",
"x 	c #2C3339",
"y 	c #2F3335",
"z 	c #303436",
"A 	c #2B3636",
"B 	c #29373C",
"C 	c #2D3738",
"D 	c #2F363D",
"E 	c #333739",
"F 	c #2C393F",
"G 	c #2F3A3A",
"H 	c #35393B",
"I 	c #303B3C",
"J 	c #363A3D",
"K 	c #313C3C",
"L 	c #343B41",
"M 	c #303E43",
"N 	c #343E3F",
"O 	c #383D3F",
"P 	c #3A3E40",
"Q 	c #304141",
"R 	c #364141",
"S 	c #3B4042",
"T 	c #344248",
"U 	c #374243",
"V 	c #384344",
"W 	c #3D4244",
"X 	c #3F4345",
"Y 	c #3B4646",
"Z 	c #414547",
"` 	c #39474C",
" .	c #3C4747",
"..	c #3D4849",
"+.	c #3A4C4C",
"@.	c #454A4C",
"#.	c #424D4E",
"$.	c #484C4E",
"%.	c #494E50",
"&.	c #3F5150",
"*.	c #455050",
"=.	c #4D4F4C",
"-.	c #455151",
";.	c #465152",
">.	c #4C5052",
",.	c #475253",
"'.	c #495454",
").	c #445756",
"!.	c #4B5657",
"~.	c #505557",
"{.	c #465858",
"].	c #4E595A",
"^.	c #495B5A",
"/.	c #54585B",
"(.	c #505B5B",
"_.	c #4C5E5D",
":.	c #525E5E",
"<.	c #595D5F",
"[.	c #5C5E5B",
"}.	c #556061",
"|.	c #5A5F61",
"1.	c #506362",
"2.	c #5B6062",
"3.	c #576263",
"4.	c #586464",
"5.	c #536665",
"6.	c #5C6768",
"7.	c #566968",
"8.	c #626668",
"9.	c #5D6969",
"0.	c #5F6A6B",
"a.	c #676C6E",
"b.	c #626E6E",
"c.	c #5E7070",
"d.	c #6B7072",
"e.	c #627574",
"f.	c #687475",
"g.	c #6F7376",
"h.	c #647776",
"i.	c #677A79",
"j.	c #6E7A7A",
"k.	c #74797C",
"l.	c #6D7D77",
"m.	c #717D7E",
"n.	c #6E8180",
"o.	c #748080",
"p.	c #718483",
"q.	c #7C8184",
"r.	c #788484",
"s.	c #748786",
"t.	c #808588",
"u.	c #7B8787",
"v.	c #758988",
"w.	c #82878A",
"x.	c #7E8A8A",
"y.	c #838A92",
"z.	c #818D8E",
"A.	c #878C8E",
"B.	c #838F90",
"C.	c #8B9092",
"D.	c #84948E",
"E.	c #8D9194",
"F.	c #919390",
"G.	c #8C9590",
"H.	c #909497",
"I.	c #879892",
"J.	c #8B9898",
"K.	c #929799",
"L.	c #94999B",
"M.	c #909C9D",
"N.	c #8D9E97",
"O.	c #8B9F9E",
"P.	c #979C9E",
"Q.	c #929E9F",
"R.	c #999EA0",
"S.	c #94A0A1",
"T.	c #9DA2A4",
"U.	c #98A4A5",
"V.	c #97A8A2",
"W.	c #A1A6A9",
"X.	c #9CA9AA",
"Y.	c #A6A8A5",
"Z.	c #A0AAA5",
"`.	c #9EABAC",
" +	c #A6ABAE",
".+	c #A2AEAF",
"++	c #A3B0B1",
"@+	c #AEB3B5",
"#+	c #ABB8B8",
"$+	c #A8BCBC",
"%+	c #AEBBBC",
"&+	c #B6BBBE",
"*+	c #B9BBB8",
"=+	c #B1BEBF",
"-+	c #B4BEB9",
";+	c #B6C3C4",
">+	c #B9C3BE",
",+	c #B8C5C5",
"'+	c #BBC8C9",
")+	c #C4C9CC",
"!+	c #B9CECD",
"~+	c #C0CDCE",
"{+	c #C3CDC8",
"]+	c #CFD1CE",
"^+	c #D0D5D8",
"/+	c #CAD7D8",
"(+	c #D2DBD6",
"_+	c #CFDCDC",
":+	c #D5DFDA",
"<+	c #D8DEE0",
"[+	c #D5E2E3",
"}+	c #D9E3DE",
"|+	c #DCE2E4",
"1+	c #D7E4E5",
"2+	c #E0E2DF",
"3+	c #DDE6E1",
"4+	c #E3E5E1",
"5+	c #DAE7E8",
"6+	c #E1E6E9",
"7+	c #E2E7EA",
"8+	c #DFE9E4",
"9+	c #E6E8E5",
"0+	c #E4E9EC",
"a+	c #EAECE9",
"b+	c #E5EFEA",
"c+	c #E8EEF0",
"d+	c #EBEEEA",
"e+	c #EDEFEB",
"f+	c #EBF0F3",
"g+	c #EFF1ED",
"h+	c #E9F3EE",
"i+	c #EEF3F6",
"j+	c #F1F3EF",
"k+	c #F2F4F1",
"l+	c #F3F5F2",
"m+	c #F8F5FA",
"n+	c #F2F7F9",
"o+	c #F5F8F4",
"p+	c #FAF7FC",
"q+	c #F4F9FC",
"r+	c #F7F9F6",
"s+	c #FEF8F7",
"t+	c #F8FAF7",
"u+	c #F9FBF8",
"v+	c #FCFAFE",
"w+	c #FFFAF9",
"x+	c #F7FCFF",
"y+	c #FAFCF9",
"z+	c #FBFDFA",
"A+	c #FEFCFF",
"B+	c #F8FEFF",
"C+	c #FFFDFB",
"D+	c #FFFDFF",
"E+	c #F9FFFF",
"F+	c #FCFFFB",
"G+	c #FEFFFC",
"G+G+G+G+G+G+G+w+A+G+G+G+G+G+G+G+G+G+G+G+G+G+G+G+G+G+G+G+G+G+G+G+",
"G+G+G+G+G+G+G+G+w+w+w+w+w+w+w+w+w+w+G+G+G+G+G+G+G+G+G+G+G+G+G+G+",
"G+G+G+G+G+z+z+z+z+y+A+w+w+u+s+z+v+A+x+x+x+n+7+7+r+s+v+w+G+G+G+G+",
"G+G+G+G+G+y+g+{+>+-+*+}+h+8+(+{+]+>+#+M.f.'.*.&.3. +m+G+G+G+G+G+",
"G+G+x+B+i+<+g. .*.[.%.N  .-.].#. .N G K N N N Q +.0.&+B+G+G+G+G+",
"G+G+x+C.P H s o b n *.R G G K R -.4.-. .!.b.j.9.1.z.@+G+G+G+G+G+",
"G+G+0+y c o q H g j B.r.e.n.s.v.p.j.].J.#+.+B.3.).4.L.G+G+G+G+G+",
"G+G+0+E s i 5 /.E > U.U.-.'.-.-.-.-.'.'.].}.4.:.^.4.P.G+G+G+G+G+",
"G+G+c+P E J o W y { t.K.Y -.E.x.t.!.o A w n R (._.!.T.G+G+G+G+G+",
"A+G+d+H x H i P v ~ w.H.K ` ` C 1 $ - &  .x.$+!+~+G.++y+G+G+G+G+",
"A+G+k+P h o g H q ~ A.P.C ` T 4 + . $ |.M.B.n.n.I.,+'+g+G+G+G+G+",
"A+G+u+@.h y 8 E q ' t.T.R R D > . { :.J.b.5.7.n.D.++/+*+y+z+G+G+",
"A+G+u+Z u J 4 z q ' k.T.R M r $ 9 s =+c.{.'.m.N.>+Z..+2+t+z+G+G+",
"B+G+y+>.m H 2 z o ' d.R.k L p $ 0 o.#+}. .b.z.C.J o i =.4+z+G+G+",
"B+G+z+~.a o | v o & 8.K.5 F u ^ ! x.z.6.!.x.S.7 7 ] @ ; Y.z+G+G+",
"B+G+z+<.h q | o l & 2.A.8 B u 4 = 0.o.).9. +8.( e ( @ ; F.y+G+G+",
"B+G+z+a.p y | i g & <.q.4 B p j = R s.&.4.W.$., ; ; @ % *+z+G+G+",
"B+G+y+a.m l | b b $ (.j._ y v g / > h.i.4.Q.g.! ^ { / $.k+G+G+G+",
"B+G+z+a.x 4 | 8 b $ 4 v 4 o P X W { f h.I.V.%+-.t G d.^+u+z+G+G+",
"B+G+y+w.x g | 5 g } < 3 6 9 C 4 > @ $ d _.l.O.=+,+)+<+t+u+G+G+G+",
"B+G+z+&+m 8 8 5 4 } 1 } : 0 A #.4.r.`.'+/+(+:+}+3+c+o+G+G+G+G+G+",
"B+G+z+|+y.k > | C *.9.u.X.,+/+[+[+1+5+5+1+9+f+a+a+g+y+G+G+G+G+G+",
"G+G+G+9+_+,+.+,+/+2+9+a+e+e+k+e+b+a+a+a+k+o+y+u+u+u+u+G+G+G+G+G+",
"G+G+B+g+7+6+0+c+f+j+l+o+o+o+o+j+g+l+l+o+u+y+y+y+z+G+G+G+G+G+G+G+",
"G+G+G+o+e+c+i+n+q+o+o+t+t+u+y+u+u+u+z+z+G+G+G+G+G+G+G+G+G+G+G+G+",
"G+G+G+y+l+m+p+u+s+u+u+z+y+G+G+G+G+G+G+G+G+G+G+G+G+G+G+G+G+G+G+G+",
"G+G+G+G+y+s+y+G+A+z+G+G+G+G+G+G+G+G+G+G+G+G+G+G+G+G+G+G+G+G+G+G+",
"G+G+G+G+z+z+z+G+G+G+G+G+G+G+G+G+G+G+G+G+G+G+G+G+G+G+G+G+G+G+G+G+",
"G+G+G+G+G+G+G+G+G+G+G+G+G+G+G+G+G+G+G+G+G+G+G+G+G+G+G+G+G+G+G+G+",
"G+G+G+G+G+G+G+G+G+G+G+G+G+G+G+G+G+G+G+G+G+G+G+G+G+G+G+G+G+G+G+G+",
"G+G+G+G+G+G+G+G+G+G+G+G+G+G+G+G+G+G+G+G+G+G+G+G+G+G+G+G+G+G+G+G+",
"z+z+G+G+G+G+G+z+z+G+G+G+G+G+G+G+G+G+G+G+G+G+G+G+G+z+z+G+G+G+G+G+"};
