/* XPM */
static char *ms_conf[] = {
/* columns rows colors chars-per-pixel */
"32 32 256 2",
"   c #010202",
".  c #00050B",
"X  c #03090C",
"o  c #000710",
"O  c #000A13",
"+  c #000D1C",
"@  c #00101C",
"#  c #08171C",
"$  c #000F20",
"%  c #001423",
"&  c #001825",
"*  c #00192C",
"=  c #001E32",
"-  c #001F3C",
";  c #00202E",
":  c #002234",
">  c #0A2837",
",  c #00243C",
"<  c #002A3D",
"1  c #122732",
"2  c #132C39",
"3  c #002441",
"4  c #002B43",
"5  c #082E41",
"6  c #002C4A",
"7  c #033145",
"8  c #00324C",
"9  c #133E4F",
"0  c #003154",
"q  c #003952",
"w  c #0B3D55",
"e  c #00355A",
"r  c #003A5B",
"t  c #0A3F5B",
"y  c #213541",
"u  c #283F4E",
"i  c #2B3B47",
"p  c #024159",
"a  c #104157",
"s  c #1B4554",
"d  c #25475C",
"f  c #344451",
"g  c #014465",
"h  c #0D4B66",
"j  c #004368",
"k  c #004A6C",
"l  c #094E6D",
"z  c #104963",
"x  c #194F67",
"c  c #004E73",
"v  c #014C79",
"b  c #045372",
"n  c #01527B",
"m  c #095178",
"M  c #0B5A7F",
"N  c #165B78",
"B  c #1B5E78",
"V  c #1A5573",
"C  c #494B4E",
"Z  c #444B50",
"A  c #48515B",
"S  c #4A5661",
"D  c #485E72",
"F  c #5D6167",
"G  c #5B6068",
"H  c #58687C",
"J  c #53667A",
"K  c #696A6D",
"L  c #62666B",
"P  c #646974",
"I  c #800000",
"U  c red",
"Y  c #008300",
"T  c #848400",
"R  c yellow",
"E  c #000084",
"W  c #005483",
"Q  c #005A84",
"!  c #0C5C80",
"~  c #005388",
"^  c #125E82",
"/  c #0F6282",
"(  c #00618D",
")  c #0A628A",
"_  c #056385",
"`  c #1E6986",
"'  c #12678A",
"]  c #106B8D",
"[  c #1F6F8F",
"{  c #197088",
"}  c #026393",
"|  c #006894",
" . c #0F6991",
".. c #016B99",
"X. c #146B94",
"o. c #136F9A",
"O. c #00719B",
"+. c #0B739D",
"@. c #167195",
"#. c #1C7193",
"$. c #14729B",
"%. c #18749B",
"&. c #256E8A",
"*. c #376C88",
"=. c #2B708C",
"-. c #2B798F",
";. c #23758A",
":. c #3B7387",
">. c #257491",
",. c #2C7291",
"<. c #2B7A98",
"1. c #317F95",
"2. c #357D9A",
"3. c #036FA2",
"4. c #0175A4",
"5. c #0E74A2",
"6. c #127BA5",
"7. c #137EAA",
"8. c #237EA3",
"9. c #2A7EA1",
"0. c #267CA9",
"q. c #466580",
"w. c #56728F",
"e. c #417791",
"r. c #427D9C",
"t. c #447E95",
"y. c #5A7693",
"u. c #667890",
"i. c blue",
"p. c #2F819F",
"a. c #1581A9",
"s. c #1D82BA",
"d. c #1A85B3",
"f. c #2F84A3",
"g. c #2A85AC",
"h. c #2584AB",
"j. c #3886A5",
"k. c #338BAE",
"l. c #3C8AAA",
"z. c #248BB2",
"x. c #2F89B5",
"c. c #308BBC",
"v. c #3C8CB4",
"b. c #3690B8",
"n. c #49839A",
"m. c #548594",
"M. c #57899E",
"N. c #5A8998",
"B. c #598299",
"V. c #71829C",
"C. c #4182A0",
"Z. c #4089A1",
"A. c #4C8EA6",
"S. c #568CA1",
"D. c #5481AA",
"F. c #5A94A8",
"G. c #5391A6",
"H. c #4C8CB6",
"J. c #4F9EBD",
"K. c #4492B8",
"L. c #5096BA",
"P. c #5292B1",
"I. c #678AAA",
"U. c #768CAC",
"Y. c #6095A4",
"T. c #6199A9",
"R. c #6998A8",
"E. c #6994AA",
"W. c #719CAE",
"Q. c #6087B0",
"!. c #639BB3",
"~. c #689CB2",
"^. c #6A9EB9",
"/. c #5FA2BA",
"(. c #60A2B7",
"). c #6CA4BC",
"_. c #68A9BC",
"`. c #75A2B4",
"'. c #73A5BB",
"]. c #7BABB9",
"[. c #3D96CA",
"{. c #4398C3",
"}. c #6E9FC5",
"|. c #4CA6C4",
" X c #5BA8C8",
".X c #52A7D8",
"XX c #5AACD2",
"oX c #63A0C1",
"OX c #65A9C5",
"+X c #60ADC9",
"@X c #69AECF",
"#X c #6AA9C3",
"$X c #73A7C6",
"%X c #75AAC4",
"&X c #7DAAC0",
"*X c #6CB4CC",
"=X c #79B7CF",
"-X c #60B1D4",
";X c #6EB5D9",
":X c #78BBD2",
">X c #72B9D1",
",X c cyan",
"<X c #77C1DF",
"1X c #848484",
"2X c #88AFB9",
"3X c #87A9CE",
"4X c #8CBBC9",
"5X c #86B5C7",
"6X c #84B9D0",
"7X c #8FBAD2",
"8X c #86BBD8",
"9X c #8DC1D6",
"0X c #83C4DB",
"qX c #8CC5DA",
"wX c #8AC8DE",
"eX c #99C5D3",
"rX c #93CBDD",
"tX c #92C3D6",
"yX c #A2C4D4",
"uX c #AED1DD",
"iX c #80C8E4",
"pX c #93CEE1",
"aX c #9FD2E3",
"sX c #A4CEE4",
"dX c #A5D2E1",
"fX c #AED6EB",
"gX c #ACD6E4",
"hX c #B6D5E5",
"jX c #B4D9E5",
"kX c #B7DDEB",
"lX c #BBDEE9",
"zX c #BADCE6",
"xX c #C6C6C6",
"cX c #C3DADD",
"vX c #CADBE0",
"bX c #C2DBE0",
"nX c #C2E0EC",
"mX c #CDE2EA",
"MX c #D4E5EA",
"NX c #D2E8EE",
"BX c #DFE9ED",
"VX c #C8E4F0",
"CX c #CEEAF0",
"ZX c #D6EAF0",
"AX c #DAECF2",
"SX c #DBF0F6",
"DX c #F3F3EF",
"FX c #E1ECF1",
"GX c #E9EFF2",
"HX c #E4F0F4",
"JX c #EBF2F4",
"KX c #EDF6F8",
"LX c #E8F8FC",
"PX c #F5F6F1",
"IX c #F3F9FA",
"UX c #FEFEFE",
/* pixels */
"I I I I I I I I I I I I I I I I I I I I I I I I I I I I I I I I ",
"I                     X X X . + = 0 h *.m.m.N.m.:.x 4 - < , = I ",
"I           X           X # * , h M.5XW.S.n.n.S.R.'.~.t.l 0 0 I ",
"I                       X * 6 N '.].-.' ' ) Q n n ! &.G.~.2.^ I ",
"I                       + , l ).2XT.).%X$XoXL.v.k.l.p.1.F.!.P.I ",
"I                   . O = 0 <.^.~.'.H.C.=.` ` &.o.9.j.Z.p.{ ;.I ",
"I                 . O * 6 v 8.0.A.0.#.m ~ ~ ~ v m ! )  .@.@.@.I ",
"I                 X & 6 j Q 7.5.p.+.] 4.7.a.6...} Q v v v m m I ",
"I                 O = h yXOX7.h.f.h.J.kX6X<.>.#.%.%.$.X.! Q v I ",
"I                 + 4 c bXCXk.x.z.s.8XcXF.M l t w z B &.,.>.>.I ",
"I               o * r ( _.IX_.c.s.K.bXBX+...v e 6 4 4 5 9 s s I ",
"I             . % 4 n 4./.IXeX{.[.(.AXvXz.4.n r 6 < = : < < 5 I ",
"I           . + < j ..|.GXHXNX@X.X4XLXPXvXs...c q < > 2 y i f I ",
"I         . + < j | |.PXDXBXAXqX;XuXAXGXUXvXb.@.V d f A G F L I ",
"I       . % < j |  XUXUXUXJXmXeX$XbXMXUXUXUXFX}.D.w.H P P K K I ",
"I     X % 3 k ..*XUXIXIXUXPXhXsX7XfXmXDXUXUXUXGX3XQ.y.J S Z C I ",
"I   X & < k ..>XUXIXIXIXIX1X1X1X1X1X1X1X1X1X1X1X1X1X1X1X1X1X1XI ",
"I . & 4 c O.:XIXJXKXGXAXZX1XxXxXxXxXxXxXxXxXxXxXxXxXxXxXxXxX1XI ",
"I % < k +.qXJXHXAXmXbXkXjX1XxXE U I R T E E E E E E E E E E 1XI ",
"I , g %.tXHXSXNXlXgXdX4X9X1XxXE ,Xi.Y Y E E E E xXxX  xXxX  1XI ",
"I r ,.yXKXBXnXdXaXrXW.B.E.1XxXE i.i.Y Y E E E E             1XI ",
"I J I.jXjXdXrXpX6Xm.<.d.8.1XxXxXxXxXxXxXxXxXxXxXxXxXxXxXxXxX1XI ",
"I V.U.2XwXqXwX%Xe.o...} 4.1XxX1X1X1X1X1X1X1X1X1X1X1X1X1X1XxX1XI ",
"I u.I.Q.0X0X=Xr.+.~ j j Q 1XxX1XUXUXUXUXUXUXUXUXUXUXUXUXUXxX1XI ",
"I D *.r.#XiX@X7.( r < , r 1XxX1XUXUXUXUXUXUXUXUXUXUXUXUXUXxX1XI ",
"I u h ] r.<XXXO.c 4 + $ , 1XxX1XUXUXUXUXUXUXUXUXUXUXUXUXUXxX1XI ",
"I 1 7 k /  X-X_ r = O o + 1XxX1XUXUXUXUXUXUXUXUXUXUXUXUXUXxX1XI ",
"I # ; 8 k =.XXb 8 & . . . 1XxX1XUXUXUXUXUXUXUXUXUXUXUXUXUXxX1XI ",
"I   O : q p Z.l < +       1XxX1XUXUXUXUXUXUXUXUXUXUXUXUXUXxX1XI ",
"I X O # : < a 5 & O       1XxXxXxXxXxXxXxXxXxXxXxXxXxXxXxXxX1XI ",
"I     O @ % & & + .       1X1X1X1X1X1X1X1X1X1X1X1X1X1X1X1X1X1XI ",
"I I I I I I I I I I I I I I I I I I I I I I I I I I I I I I I I "
};
