/* XPM */
static char *rememberShading_xpm[] = {
/* width height num_colors chars_per_pixel */
"    32    32      256            2",
/* colors */
"`` c #99ff96",
"`. c #9bff97",
"`# c #a0fd9b",
"`a c #9ffd9b",
"`b c #a2fc9c",
"`c c #a4fc9d",
"`d c #a3fb9d",
"`e c #a7f99e",
"`f c #a8f59e",
"`g c #aaf89e",
"`h c #acf19d",
"`i c #b1f09c",
"`j c #b1e999",
"`k c #b5df92",
"`l c #b7d289",
"`m c #b5c682",
"`n c #abb376",
"`o c #c0c67d",
"`p c #b8bb77",
"`q c #b9b16f",
"`r c #b7a968",
"`s c #b5985b",
"`t c #e5cdaf",
"`u c #27231f",
"`v c #ea934d",
"`w c #e08847",
"`x c #ed9856",
"`y c #f59f5b",
"`z c #d58950",
"`A c #bc7e4f",
"`B c #f4a669",
"`C c #6e4f38",
"`D c #dfaf89",
"`E c #e07a33",
"`F c #e08547",
"`G c #e78b4a",
"`H c #e2894d",
"`I c #ea9355",
"`J c #e69054",
"`K c #ee985a",
"`L c #cc814d",
"`M c #f09e64",
"`N c #ec9c64",
"`O c #eca16f",
"`P c #f2a976",
"`Q c #e2a277",
"`R c #d66c2b",
"`S c #d87539",
"`T c #d8793e",
"`U c #d1793f",
"`V c #db8047",
"`W c #e1844b",
"`X c #dc834d",
"`Y c #d6814c",
"`Z c #e28c57",
"`0 c #e9935b",
"`1 c #e48e5a",
"`2 c #e5915c",
"`3 c #ea9662",
"`4 c #e59663",
"`5 c #e79867",
"`6 c #e19565",
"`7 c #e89e6d",
"`8 c #e19a6c",
".` c #d59168",
".. c #d09774",
".# c #d36f36",
".a c #cb6d38",
".b c #d3733c",
".c c #c86c39",
".d c #d8753f",
".e c #da7a42",
".f c #cd733f",
".g c #c76f3d",
".h c #da7d46",
".i c #d47945",
".j c #cf7846",
".k c #d47b4a",
".l c #c37144",
".m c #ce7c4c",
".n c #df8753",
".o c #da8553",
".p c #d78253",
".q c #db8c60",
".r c #c8835b",
".s c #cb5c20",
".t c #cc612b",
".u c #ce6531",
".v c #d26b35",
".w c #c46331",
".x c #c56836",
".y c #cd6d3a",
".z c #c86939",
".A c #c06538",
".B c #d17341",
".C c #b46339",
".D c #d77545",
".E c #c16a3f",
".F c #cb7144",
".G c #d17849",
".H c #da7e4d",
".I c #cd7749",
".J c #c4734b",
".K c #ca7a52",
".L c #c25c2c",
".M c #a74f26",
".N c #ba582b",
".O c #ce6e40",
".P c #c56c42",
".Q c #ba6b46",
".R c #d37a51",
".S c #d78259",
".T c #af471c",
".U c #bf4e21",
".V c #b95226",
".W c #8c4022",
".X c #c15d35",
".Y c #b55d37",
".Z c #cc6a40",
".0 c #dc835c",
".1 c #923b1c",
".2 c #b64d24",
".3 c #a94623",
".4 c #ab5737",
".5 c #a43b1d",
".6 c #651908",
".7 c #030303",
".8 c #000000",
"#` c #000000",
"#. c #000000",
"## c #000000",
"#a c #000000",
"#b c #000000",
"#c c #000000",
"#d c #000000",
"#e c #000000",
"#f c #000000",
"#g c #000000",
"#h c #000000",
"#i c #000000",
"#j c #000000",
"#k c #000000",
"#l c #000000",
"#m c #000000",
"#n c #000000",
"#o c #000000",
"#p c #000000",
"#q c #000000",
"#r c #000000",
"#s c #000000",
"#t c #000000",
"#u c #000000",
"#v c #000000",
"#w c #000000",
"#x c #000000",
"#y c #000000",
"#z c #000000",
"#A c #000000",
"#B c #000000",
"#C c #000000",
"#D c #000000",
"#E c #000000",
"#F c #000000",
"#G c #000000",
"#H c #000000",
"#I c #000000",
"#J c #000000",
"#K c #000000",
"#L c #000000",
"#M c #000000",
"#N c #000000",
"#O c #000000",
"#P c #000000",
"#Q c #000000",
"#R c #000000",
"#S c #000000",
"#T c #000000",
"#U c #000000",
"#V c #000000",
"#W c #000000",
"#X c #000000",
"#Y c #000000",
"#Z c #000000",
"#0 c #000000",
"#1 c #000000",
"#2 c #000000",
"#3 c #000000",
"#4 c #000000",
"#5 c #000000",
"#6 c #000000",
"#7 c #000000",
"#8 c #000000",
"a` c #000000",
"a. c #000000",
"a# c #000000",
"aa c #000000",
"ab c #000000",
"ac c #000000",
"ad c #000000",
"ae c #000000",
"af c #000000",
"ag c #000000",
"ah c #000000",
"ai c #000000",
"aj c #000000",
"ak c #000000",
"al c #000000",
"am c #000000",
"an c #000000",
"ao c #000000",
"ap c #000000",
"aq c #000000",
"ar c #000000",
"as c #000000",
"at c #000000",
"au c #000000",
"av c #000000",
"aw c #000000",
"ax c #000000",
"ay c #000000",
"az c #000000",
"aA c #000000",
"aB c #000000",
"aC c #000000",
"aD c #000000",
"aE c #000000",
"aF c #000000",
"aG c #000000",
"aH c #000000",
"aI c #000000",
"aJ c #000000",
"aK c #000000",
"aL c #000000",
"aM c #000000",
"aN c #000000",
"aO c #000000",
"aP c #000000",
"aQ c #000000",
"aR c #000000",
"aS c #000000",
"aT c #000000",
"aU c #000000",
"aV c #000000",
"aW c #000000",
"aX c #000000",
"aY c #000000",
"aZ c #000000",
"a0 c #000000",
"a1 c #000000",
"a2 c #000000",
"a3 c #000000",
"a4 c #000000",
"a5 c #000000",
"a6 c #000000",
"a7 c #000000",
"a8 c #000000",
/* pixels */
"```````````````````````a`j`l`p`q`p...r.4`s`q`j`e````````````````",
"`````````````````e`k`q`p.P.j.m.4.E.F.l.l.A.5.y`q`m`i`.``````````",
"```````````.`h`m`A.w.x.y.G.N.Y.N.L.h.w.L.L.c.L.L.k.O`q`c````````",
"`````````i`s.A.f.A.w.V.A`Y.c.L.z.V.u.5.x`F.v`S.T.h.k.X`q`d`a````",
"```````h`r.j.f`V.x`X.g.M`H.h.z.h.#.V.h`U`T`v.s.u.d`F.5.E`Q`c````",
"`````b`r.A.w.x.F`Y`F.w.2.N`U.m`T.L.x`x`J.a`E`R`v.e.b.#`S.O`o`c``",
"```#`r.J.m.z.b.h.x.g.T.x`H`z.c`S.M`V`G`v`B.L.C`w`J.u`V.v`X.o`k``",
"```t.N.A.a`H.N.T`V`Y.j.x.#`V.E`7.M`L`Y.f`y.M`U`F`J.2`W`J.D.k`o`#",
"``...N.V.a.b.b.1`J.Q.Q`Y`N.c.g`M.E.l.b.6.U`R`I`B`1.L`W`J`W.d.H`D",
"```D.#.w.i.i.e.f`6.A.V`O.Q.M`I`W.n.t`W.N.B.e`R.t.j`M.H.z.L.e`X.o",
"``.`.L.o.b.O.i`Z`8.M.T`T.T`T.f`J.I.Q`4`K`I`N`M.#`H`I.x.M.n`X.H.Y",
"```D.j`X.O.V`3.i`2.1.V.t.5.d.k.L.Y`P`x`G`H`P.E`H.v.t`W.I.Q.R.Z.Z",
"```t.I`Y.i.H`2`V.v.6.6.U.e.e`5.H`Z`P.C.3.w.i.N.i`0.0.J.q.0.0.n`Z",
"```.`m.A.m.o.o.i.x.6.W`L`M.y.E`O`0`F.2.I`I.h`B`N`2`3.4.S`P`1.D.n",
"`````#`s.A.r.Q.E.6.W.q`6.d.F.C.J.G.Q.n.H`B.L.v.e`V`1.X.U.D`3`W.o",
"```````#`m`s.X.Y.l.J.q.V.G`Q.K`5`P`8`8.w.Z`N`2`W`J.3.W.U.t.B.k.H",
"```````````j`l`m`p.o.L.E.r`O`O`A.J`5`O`3`X.P.F.5.X.A.3.u.D.X`m`e",
"`````````````````l.V.X`4`6.J`6`8.q.E.Q.K.F.5.2.H`1`1.v.h.D`Z`i``",
"`````````````````e`p`q.q.K.C.r.`.Q.5.5.O.F.d`0.n`2.o.D`0.n`6`g``",
"`````````````````````e`k`r`p`j`f`n.4.B.Y.C.z.R`N`Q.r`1`5.p`l`.``",
"`````````````````````````#`d`````a`k`s.z.5.3.H`O`P`7.n`1`o`c````",
"`````````````````````````````````````e`o.G`6`5`7`7`4`1`o`g``````",
"```````````````````````````````````````d`o.q.``8`7`o`k`b````````",
"````````````.8````````````````````````.8`c`C.q`f`b`.````````````",
"````````````.8````````````````````````.8```c`m`i````````````````",
"````.8.8.8``.8``.8``````.8.8``````.8.8.8``.8`a`u.7.8``````.8.8.8",
"``.8````````.8.8``.8````````.8``.8````.8``.8``.8````.8``.8````.8",
"````.8.8````.8````.8````.8.8.8``.8````.8``.8``.8````.8``.8````.8",
"````````.8``.8````.8``.8````.8``.8````.8``.8``.8````.8``.8````.8",
"``.8.8.8````.8````.8````.8.8.8````.8.8.8``.8``.8````.8````.8.8.8",
"``````````````````````````````````````````````````````````````.8",
"````````````````````````````````````````````````````````.8.8.8``"
};
