/* XPM */
static char *magick[] = {
/* columns rows colors chars-per-pixel */
"32 32 255 2",
"   c #1a1403",
".  c #02022b",
"X  c #08082c",
"o  c #000033",
"O  c #00003b",
"+  c #09093a",
"@  c #171736",
"#  c #261f07",
"$  c #3a2e03",
"%  c #362c12",
"&  c #22223b",
"*  c #000043",
"=  c #01014c",
"-  c #0c0c46",
";  c #000053",
":  c #010159",
">  c #0c0c56",
",  c #151556",
"<  c #171749",
"1  c #020264",
"2  c #02006a",
"3  c #0a096d",
"4  c #08087d",
"5  c #100c78",
"6  c #1f1d61",
"7  c #16147d",
"8  c #2c2c47",
"9  c #28285f",
"0  c #3f3f59",
"q  c #382f4c",
"w  c #282870",
"e  c #34346a",
"r  c #2a2a6a",
"t  c #4a3a01",
"y  c #4c3d18",
"u  c #49363e",
"i  c #573736",
"p  c #653c27",
"a  c #533648",
"s  c #5a4709",
"d  c #544213",
"f  c #584a3a",
"g  c #604d10",
"h  c #6d550c",
"j  c #70580f",
"k  c #755c11",
"l  c #6d571a",
"z  c #7f6500",
"x  c #71711d",
"c  c #7d6d3d",
"v  c #7d7933",
"b  c #7d6526",
"n  c #424349",
"m  c #484265",
"M  c #4d4d78",
"N  c #505065",
"B  c #6e6e4f",
"V  c #786055",
"C  c #7e714b",
"Z  c #787853",
"A  c #686878",
"S  c #02018a",
"D  c #070686",
"F  c #03039b",
"G  c #08069a",
"H  c #120d87",
"J  c #1b168b",
"K  c #0202a4",
"L  c #0808aa",
"P  c #0000b2",
"I  c #0000bc",
"U  c #100ebb",
"Y  c #1916aa",
"T  c #1717ba",
"R  c #231e8f",
"E  c #261f99",
"W  c #35368f",
"Q  c #2e2ca8",
"!  c #332ba5",
"~  c #352db7",
"^  c #2525b4",
"/  c #0101c4",
"(  c #0000ca",
")  c #0814d0",
"_  c #110fc4",
"`  c #1d1dc5",
"'  c #1d1dd0",
"]  c #0404da",
"[  c #0101f9",
"{  c #171ce7",
"}  c #0a0ae9",
"|  c #2027c1",
" . c #3837c8",
".. c #3d3ddf",
"X. c #2323e1",
"o. c #2727fc",
"O. c #3a3ae6",
"+. c #3838f6",
"@. c #3228e4",
"#. c #3b42e9",
"$. c #473bba",
"%. c #413dcb",
"&. c #575782",
"*. c #47479a",
"=. c #4c4ba6",
"-. c #544ea9",
";. c #5555a4",
":. c #4647ba",
">. c #67678a",
",. c #777792",
"<. c #6667a9",
"1. c #7575a9",
"2. c #7979b5",
"3. c #4d49cb",
"4. c #5c4acb",
"5. c #554cd6",
"6. c #5253cf",
"7. c #5653da",
"8. c #4a49ff",
"9. c #5a4cf9",
"0. c #5151fe",
"q. c #595af7",
"w. c #5351e6",
"e. c #6253c6",
"r. c #6151d3",
"t. c #6659e8",
"y. c #6350ff",
"u. c #7662dc",
"i. c #7b7bd8",
"p. c #7070cc",
"a. c #6363e3",
"s. c #6968ea",
"d. c #6364ff",
"f. c #6c69fb",
"g. c #7567f5",
"h. c #7573e9",
"j. c #7572e8",
"k. c #7975f8",
"l. c #7c68e8",
"z. c #9a5d01",
"x. c #8b6114",
"c. c #8f710a",
"v. c #8e7013",
"b. c #916f11",
"n. c #997815",
"m. c #817d34",
"M. c #9d7b38",
"N. c #ba7f06",
"B. c #b2700b",
"V. c #826766",
"C. c #826cfa",
"Z. c #8670f4",
"A. c #947eff",
"S. c #8a8005",
"D. c #948a0f",
"F. c #aa8608",
"G. c #a89012",
"H. c #b58d17",
"J. c #bc9416",
"K. c #ab8615",
"L. c #a4a413",
"P. c #baaa13",
"I. c #bab73a",
"U. c #b28b2c",
"Y. c #8d8b5d",
"T. c #8c8067",
"R. c #948a77",
"E. c #a3a376",
"W. c #c79918",
"Q. c #d88e04",
"!. c #d29c16",
"~. c #ce9010",
"^. c #c1ac16",
"/. c #d4a700",
"(. c #d3a419",
"). c #deaa19",
"_. c #d1ba15",
"`. c #e2ac19",
"'. c #e6b705",
"]. c #e6b518",
"[. c #f4bd1a",
"{. c #d7ce16",
"}. c #d5d416",
"|. c #dbd416",
" X c #dada16",
".X c #c8c715",
"XX c #c3c123",
"oX c #e6cc16",
"OX c #e9dc17",
"+X c #f9c61a",
"@X c #ffdc0c",
"#X c #fed41a",
"$X c #ffda18",
"%X c #e5da09",
"&X c #e2e117",
"*X c #e7e518",
"=X c #eded18",
"-X c #fee41a",
";X c #ffed1a",
":X c #f9e417",
">X c #f9f90e",
",X c #fff41a",
"<X c #fcfc14",
"1X c #fefe1a",
"2X c #faf417",
"3X c #ffed27",
"4X c #fef92d",
"5X c #fefe36",
"6X c #e7e734",
"7X c #fefe40",
"8X c #fcf957",
"9X c #fcfc79",
"0X c #8d8188",
"qX c #888898",
"wX c #919198",
"eX c #9999a7",
"rX c #9390ad",
"tX c #a7a7ac",
"yX c #adadb3",
"uX c #b3b3b5",
"iX c #bcbcbd",
"pX c #b5b5b8",
"aX c #8c8ccf",
"sX c #8483d8",
"dX c #8f90c9",
"fX c #9393cc",
"gX c #9797d8",
"hX c #8283ed",
"jX c #8d8dfe",
"kX c #8485f5",
"lX c #9494fe",
"zX c #9999ff",
"xX c #9999f3",
"cX c #a6a6cc",
"vX c #bcbcc2",
"bX c #b6b6c5",
"nX c #acacff",
"mX c #a5a5ff",
"MX c #bebee6",
"NX c #b4b4ff",
"BX c #b8b8ff",
"VX c #c3c391",
"CX c #d5d5ad",
"ZX c #f9f996",
"AX c #f8f88a",
"SX c #f7f7ae",
"DX c Gray77",
"FX c #c1c1c1",
"GX c #c7c7ef",
"HX c #cacaff",
"JX c #d5d5ff",
"KX c #f6f6cb",
"LX c #e3e3ff",
"PX c #f4f4e7",
"IX c #f3f3fe",
/* pixels */
"DXDXDXDXDXDXDXDXDXDXDXDXDXDXDXDXDXDXDXDXDXDXDXDXDXDXDXDXDXDXDXDX",
"FXFXFXFXFXFXFXFXFXFXFXFXcXsXi.i.sXaXcXFXvXCXvXFXFXFXFXFXFXFXFXFX",
"DXFXFXFXFXFXFXFXFXDXaXa.q.s.sXgXMXGXxXh.sXbXFXFXFXFXFXFXFXFXFXDX",
"DXFXFXFXFXFXFXFXaXO.s.jXzXnXHXJXLXIXIXHXxXw.a.FXFXFXFXFXFXFXFXDX",
"DXFXFXFXFXFXFX3.w.f.lXlXzXmXnXnXNXBXBXNXnXzXk.O.fXCXFXFXFXFXFXDX",
"DXFXFXFXFXvXQ ..a.s.k.hXkXlXlXzXzXlXjXjXjXlXjXq.X.p.FXFXFXFXFXDX",
"DXFXvXFXFXQ `  .7.a.j.h.h.hXkXjXjXjXkXf.f.d.d.0.o.{ 2.DXFXFXFXDX",
"DXFXvXCX*.L L  .6.7.a.s.h.hXhXkXd.0.q.s.d.q.8.+.o.[ } rXFXFXFXDX",
"DXFXFX,.4 G Y %.7.w.s.j.j.s.8.+.-.f % # f gXhX8.o.} [ ^ pXFXFXDX",
"DXDXFXw D G ~ 5.t.g.k.j.0.@.m d t t t $   tXDXvXZ.X.] / ;.FXFXDX",
"DXFXeX1 D Y 3.t.g.C.k.9.$.d s s s s d s   C FXFXFXbX' ( T pXFXDX",
"DXyX&.2 D Q 5.C.A.A.y.e.h c.k k k j h h d y FXFXFXFXdX/ P 1.FXDX",
"DXqXr 2 H ~ r.Z.A.C.u.c.F.n.v.n.v.n.n.b.H.h V.DXFXFXvX_ I Q tXDX",
"DX>.> 1 H ! 4.l.Z.y.V./.W.J.W.J.H.K.J.W.(.W.l FXFXFXFX-./ F <.DX",
"DXM ; 1 5 E $.r.9.4.F.].`.(.(.(.W.J.!.W.!.+XJ.c FXFXFXqX/ F ;.DX",
"DXM ; : 3 J ! $.@.V '.].[.[.].`.).]._.^._.oX#XG.Y.FXFX0XI K =.DX",
"DX&.; ; 1 5 R ! U M.'.).+X$X+X+XoXoX{.}. XOX*X1XL.Z iXR.S P =.FX",
"DX>., ; ; 3 7 R G U.'.].#X-X-X:XOXOX|.|. X X&X*X1XL.x b S P =.DX",
"DXeXe ; = : 3 4 4 ^.oX#X#X$X;X-X:X=XOX}. X X}. X&X}.S.p K K <.FX",
"DXvX>.= = = : 1 4 m.%X#X-X$X,X,X,X1X=X&X X}.}.|..XD.B.u I Y 1.DX",
"DXFXyX= = * = ; 2 6 OX$X;X,X,X,X1X1X1X2X*X X|..XP.x.z.q { :.tXFX",
"DXFXFXe * * * = ; 1 XX>X;X,X,X1X1X1X1X1X1X=XOX&X~.B.N.J #.2.FXDX",
"FXFXFXeX* * O O * : v >X,X3X4X1X1X1X1X1X,X#X#X-X`.Q.i ) 6.yXFXDX",
"DXFXFXFXM * O O o * ; I.9X8XZXAXAX7X1X1X1X$X#X+X$X!.2 | <.FXFXDX",
"DXFXFXFXiX, O O o o * 8 ZXZXZXKXPX9X1X1X1X1X,X2X@Xa S W pXFXFXDX",
"DXFXFXFXFXuX- O o o . O q KXIXPXKXSX8X5X5X<X<X-Xa 2 3 tXFXFXFXDX",
"DXFXFXFXFXFXuX< o o . . o 8 CXIXPXPXPXKXSX6Xm.- ; > tXFXFXFXFXDX",
"DXFXFXFXFXFXFXiXm o . . X o O q E.VXE.B n * * * 9 yXDXvXFXFXFXDX",
"DXFXFXFXFXFXFXFXFXwX@ . X @ & < > > = * o . + ,.FXFXFXFXFXFXFXDX",
"DXFXFXFXFXFXFXFXFXFXDXeXN & @ & 8 8 & @ 0 qXFXFXFXFXFXFXFXFXFXDX",
"FXFXFXFXFXFXFXFXFXFXFXFXiXwXA A A A A 0XpXFXFXFXFXFXFXFXFXFXFXFX",
"DXDXDXDXDXDXDXDXDXDXDXDXDXDXDXDXFXDXDXDXDXDXDXDXDXDXDXDXDXDXDXDX"
};
