/* XPM */
static char *magick[] = {
/* columns rows colors chars-per-pixel */
"32 32 10 1",
"  c #4e587e",
". c #535d81",
"X c #555e82",
"o c #5f6788",
"O c #676f8d",
"+ c #84899d",
"@ c #9297a6",
"# c #a3a4ae",
"$ c #abaeb5",
"% c #c1c1c1",
/* pixels */
"%%%%%%%%%%%%%%%%%%%%%%%%%%%%%%%%",
"%%%%%%%%%%%%%%%%%%%%%%%%%%%%%%%%",
"%%%%%%%%%%%%%%%%%%%%%%%%%%%%%%%%",
"%%%%%%%%%%%@O.    .O@%%%%%%%%%%%",
"%%%%%%%%%+X          X+%%%%%%%%%",
"%%%%%%%$o              o$%%%%%%%",
"%%%%%%#X                X#%%%%%%",
"%%%%%$X                  X$%%%%%",
"%%%%%o                    o%%%%%",
"%%%%+                      +%%%%",
"%%%%X                      X%%%%",
"%%%@                        @%%%",
"%%%O                        O%%%",
"%%%.                        .%%%",
"%%%                          %%%",
"%%%                          %%%",
"%%%                          %%%",
"%%%                          %%%",
"%%%.                        .%%%",
"%%%O                        O%%%",
"%%%@                        @%%%",
"%%%%X                      X%%%%",
"%%%%+                      +%%%%",
"%%%%%o                    o%%%%%",
"%%%%%$X                  X$%%%%%",
"%%%%%%#X                X#%%%%%%",
"%%%%%%%$o              o$%%%%%%%",
"%%%%%%%%%+X          X+%%%%%%%%%",
"%%%%%%%%%%%@O.    .O@%%%%%%%%%%%",
"%%%%%%%%%%%%%%%%%%%%%%%%%%%%%%%%",
"%%%%%%%%%%%%%%%%%%%%%%%%%%%%%%%%",
"%%%%%%%%%%%%%%%%%%%%%%%%%%%%%%%%"
};
