/* XPM */
static char *p_hair_mapping[] = {
/* columns rows colors chars-per-pixel */
"32 32 251 2",
"   c black",
".  c #020202",
"X  c #060606",
"o  c #070707",
"O  c gray3",
"+  c #0B0B0B",
"@  c #0C0C0C",
"#  c #0E0E0E",
"$  c #0E0F0F",
"%  c #0F0F0E",
"&  c gray6",
"*  c #0F1010",
"=  c #111111",
"-  c gray7",
";  c #121213",
":  c #131413",
">  c gray8",
",  c #141515",
"<  c #151515",
"1  c #161516",
"2  c #161616",
"3  c gray9",
"4  c #191919",
"5  c gray10",
"6  c #1B1B1B",
"7  c gray11",
"8  c #1D1E1E",
"9  c #1E1E1E",
"0  c #1E1F1F",
"q  c gray12",
"w  c #201F20",
"e  c #202020",
"r  c gray13",
"t  c #222222",
"y  c #222223",
"u  c #232323",
"i  c #232324",
"p  c gray14",
"a  c #252424",
"s  c #252626",
"d  c #272727",
"f  c #282828",
"g  c gray16",
"h  c #2A2B2A",
"j  c #2C2C2C",
"k  c #2D2D2D",
"l  c #2D2E2E",
"z  c #302F30",
"x  c gray19",
"c  c #303131",
"v  c #313131",
"b  c #323232",
"n  c #343535",
"m  c #353535",
"M  c gray21",
"N  c #373737",
"B  c gray22",
"V  c #383939",
"C  c #3A3A3A",
"Z  c #3A3B3A",
"A  c gray23",
"S  c #3B3C3B",
"D  c #3C3D3C",
"F  c #3E3E3E",
"G  c #3E3F3F",
"H  c #3F3F3F",
"J  c #414141",
"K  c #434443",
"L  c #444444",
"P  c #444445",
"I  c gray27",
"U  c #464747",
"Y  c #494848",
"T  c #494949",
"R  c gray29",
"E  c #4B4B4A",
"W  c #4B4B4B",
"Q  c #4C4C4C",
"!  c #4C4C4D",
"~  c #4E4E4E",
"^  c #4F5050",
"/  c #505151",
"(  c #515151",
")  c gray32",
"_  c #535353",
"`  c gray33",
"'  c #555555",
"]  c #565655",
"[  c #565756",
"{  c #565757",
"}  c gray35",
"|  c #5A5A5A",
" . c #5A5B5A",
".. c #5B5A5A",
"X. c #5B5B5B",
"o. c gray36",
"O. c #5D5C5C",
"+. c #5F5F5F",
"@. c #606060",
"#. c gray38",
"$. c #626161",
"%. c #626262",
"&. c #646464",
"*. c #656565",
"=. c gray40",
"-. c #666667",
";. c #676767",
":. c #686767",
">. c gray42",
",. c #6C6C6C",
"<. c gray43",
"1. c gray44",
"2. c #717171",
"3. c #727272",
"4. c #747474",
"5. c gray46",
"6. c #767676",
"7. c #777777",
"8. c gray47",
"9. c #797878",
"0. c #797979",
"q. c #7B7B7B",
"w. c #7C7C7C",
"e. c gray49",
"r. c #7D7D7E",
"t. c #808080",
"y. c #818181",
"u. c gray51",
"i. c #828382",
"p. c #848484",
"a. c #848585",
"s. c gray52",
"d. c #868686",
"f. c gray53",
"g. c #888888",
"h. c gray54",
"j. c #8A8B8A",
"k. c gray55",
"l. c #8D8D8D",
"z. c #8E8E8E",
"x. c #8E8E8F",
"c. c #8F8E8E",
"v. c #929292",
"b. c #949493",
"n. c gray58",
"m. c #959595",
"M. c #979797",
"N. c #999898",
"B. c #9A9A9A",
"V. c #9B9B9B",
"C. c #9D9D9D",
"Z. c gray62",
"A. c #9F9E9F",
"S. c #9F9F9F",
"D. c #A0A0A0",
"F. c gray63",
"G. c #A1A2A2",
"H. c gray64",
"J. c #A4A4A4",
"K. c #A4A5A5",
"L. c #A5A5A5",
"P. c #A7A7A7",
"I. c gray66",
"U. c #A9A9A9",
"Y. c #AAAAAA",
"T. c #ABAAAB",
"R. c gray67",
"E. c #ACACAC",
"W. c gray68",
"Q. c #AEAEAE",
"!. c #AFAFAF",
"~. c #B1B1B1",
"^. c #B2B2B2",
"/. c #B2B3B2",
"(. c gray70",
"). c #B4B4B4",
"_. c gray71",
"`. c #B7B7B7",
"'. c gray72",
"]. c gray73",
"[. c #BCBBBB",
"{. c #BCBCBC",
"}. c gray74",
"|. c #BDBEBE",
" X c gray",
".X c gray75",
"XX c #C0C0C0",
"oX c #C1C1C1",
"OX c gray76",
"+X c #C3C3C3",
"@X c gray77",
"#X c #C5C5C5",
"$X c #C6C6C5",
"%X c #C6C6C6",
"&X c #C7C6C6",
"*X c gray78",
"=X c #C7C8C8",
"-X c #C8C8C8",
";X c #C9C9C8",
":X c #C9CAC9",
">X c #CACACA",
",X c #CBCBCB",
"<X c gray80",
"1X c #CCCDCD",
"2X c #CDCCCD",
"3X c #CDCDCD",
"4X c #CECECE",
"5X c #D0D0D0",
"6X c #D0D1D1",
"7X c gray82",
"8X c #D2D2D2",
"9X c LightGray",
"0X c #D3D4D3",
"qX c gray83",
"wX c #D5D5D5",
"eX c gray84",
"rX c #D7D6D7",
"tX c #D7D7D7",
"yX c #D8D8D8",
"uX c gray85",
"iX c #DADADA",
"pX c #DADADB",
"aX c #DCDCDB",
"sX c gainsboro",
"dX c #DDDEDD",
"fX c gray87",
"gX c #DEDEDF",
"hX c #DFDFDF",
"jX c gray88",
"kX c #E1E1E1",
"lX c gray89",
"zX c #E4E3E3",
"xX c #E4E4E4",
"cX c gray90",
"vX c #E6E6E6",
"bX c #E7E7E7",
"nX c gray91",
"mX c #E9E8E9",
"MX c #E9E9E9",
"NX c #EAEAEA",
"BX c gray92",
"VX c #ECEBEB",
"CX c #ECECEC",
"ZX c gray93",
"AX c #EEEEEE",
"SX c gray94",
"DX c #F0F1F0",
"FX c gray95",
"GX c #F6F6F6",
"HX c gray97",
"JX c #F9F8F8",
/* pixels */
"oXoXoXoXoXoXoXoXoXoXoXoXoXoXoXoXoXoXoXoXoXoXoXoXoXoX4X<XoXoXoXoX",
"oXoXoXoXoXoXoXoXoXoXoXoXoXoXoXoXoXoXoXoXoXoXoXoXoXaXsX*XoXoXoXoX",
"oXoXoXoXoXoXoXoXoXoXoXoXoXoXoXoXoXoXoXoXoXoXoX*XjXGX*XoXoXoXoXoX",
"oXoXoXoXoXoXoXoXoXoXoXoXoXoXoXoXoXoXoXoXoX*XwXBXFXiXoXoXoXoXoXoX",
"oXoXoXoXoXoXoXoXoXoXoXoXoXoXoXoXoXoXoX>XiXlXnXBXwXoXoXoXoXoXoXoX",
"oXoXoXoXoXoXoXoXoXoXoXoXoXoXoXoXoX>X9XiXsXjXxXwXoXoXoXoXoXoXoXoX",
"oXoXoXoXoXoXoXoXoXoXoXoXoXoXoXoX>X<X5XwXtXiX<XoXoXoXoXoXoXoXoXoX",
"oXoXoXoXoXoXoXoXoXoXoXoXoX{.].{.oX*X>X<X<X*XoXoXoXoXoXoXoXoXoXoX",
"oXoXoXoXoXoXoXoXoXoXoX].W.!./.].{.oX*X*XoXoXoXoXoXoXoXoXoXoXoXoX",
"oXoXoXoXoXoXoXoXoXoX/.D.K.R.W./.].{.{.oXoXoXoXoXoXoXoXoXoXoXXXV.",
"oXoXoXoXoXoXoXoXoXR.m.B.A.D.I.W.).oXoXoXoXoXoXoXoXoXoXoXoX*X5Xo.",
"oXoXoXoXoXoXoXoXR.h.c.b.B.A.D.W.oXoXoXoXoXoXoXoXoXoXoX*X<X+X} M.",
"oXoXoXoXoXoXoXR.t.p.h.c.v.m.K..XoXoXoXoXoXoXoXoXoX>XiXwXD.T &.oX",
"oXoXoXoXoXoX).0.9.r.u.f.c.A.XXoXoXoXoXoXoXoX>XwXhXwXL.>.n T oXoX",
"oXoXoXoXoXoXd.<.3.6.w.u.c.{.oXoXoXoXoXoX&XsXbXiX/.0.L t O.{.oXoX",
"oXoXoXoXoXL.%.:.,.3.6.0.W.oXoXoXoXoXoXsXDXjX{.j.} z q c.oXoXoXoX",
"oXoXoXoXoX3.O.%.*.>.1.n.oXoXoXoXoX5XDXDXsX/.4.L t K W.oXoXoXoXoX",
"oXoXoXoXL.( [ } #.*.3.].oXoXoXoXxXJXCX<XD.*.x 6 4.oXoXoXoXoXoXoX",
"oXoXoXoX3.~ ( [ } +.A.oXoXoX*XBXHXxX*Xf.[ g 6 B.oXoXoXoXoXoXoXoX",
"oXoXoXR.L L W ( ` 4.oXoXoXoXAXJXbX*Xp.T e 1 L.oXoXoXoXoXoXoXoXoX",
"oXoXoX<.D J L T ~ V.oXoXoXxXHXnX<Xc.T 6 1 A.oXoXoXoXoXoXoXoXoXoX",
"oXoXoXL N D H L [ {.oXoXsXGXxX<XM.( 6 6 D.oXoXoXoXoXoXoXoXoXoXoX",
"oXoXR.j b N V G r.oXoX,XJXxX1XB.} t 1 R.oXoXoXoXoXoXoXoXoXoXoXoX",
"oXoXp.g l v n V W.oXoXnXnX5XL.-.v O d.oXoXoXoXoXoXoXoXoXoXoXoXoX",
"oXXXo.p f j x ( oXoX<XCXyX).8.G , T oXoXoXoXoXoXoXoXoXoXoXoXoXoX",
"oX!.V q t f g 1.oXoXxXhXXXc.~ u * W.oXoXoXoXoXoXoXoXoXoXoXoXoXoX",
"oXD.f 6 q t s m.oX1XBX5XK.#.v * &.oXoXoXoXoXoXoXoXoXoXoXoXoXoXoX",
"oXc.6 1 4 q e R.oXsXxX+Xu.G 6 * /.oXoXoXoXoXoXoXoXoXoXoXoXoXoXoX",
"oX6.* * , 6 s ).*XnXiXI.} u X *.oXoXoXoXoXoXoXoXoXoXoXoXoXoXoXoX",
"oX( # # * 1 l {.4XnX*Xt.V # O R.oXoXoXoXoXoXoXoXoXoXoXoXoXoXoXoX",
"oX~ O @ # * v oXrXjXW.} q . V oXoXoXoXoXoXoXoXoXoXoXoXoXoXoXoXoX",
"oX( X 1 3 1 n oXlX0Xc.B # . %.oXoXoXoXoXoXoXoXoXoXoXoXoXoXoXoXoX"
};
