/* XPM */
static char *render_BA_objectdistance_xpm[]={
"32 32 162 2",
"      c #B5B5B5",
" 0    c #BBBBBB",
" 1    c #B8B8B8",
" 2    c #B4B4B4",
" 3    c #BCBCBC",
" 4    c #B7B7B7",
" 5    c #B6B6B6",
" 6    c #959595",
" 7    c #A4A4A4",
" 8    c #8A8A8A",
" 9    c #A7A7A7",
" a    c #B9B9B9",
" b    c #BDBDBD",
" c    c #C2C2C2",
" d    c #333333",
" e    c #6F6F6F",
" f    c #C1C1C1",
" g    c #4B4B4B",
" h    c #939393",
" i    c #BABABA",
" j    c #8C8C8C",
" k    c #5D5D5D",
" l    c #B0B0B0",
" m    c #828282",
" n    c #A1A1A1",
" o    c #3C3C3C",
" p    c #717171",
" q    c #BEBEBE",
" r    c #B3B3B3",
" s    c #898989",
" t    c #808080",
" u    c #AAAAAA",
" v    c #5E5E5E",
" w    c #272727",
" x    c #202020",
" y    c #2B2B2B",
" z    c #151515",
" A    c #787878",
" B    c #444444",
" C    c #252525",
" D    c #9E9E9E",
" E    c #A9A9A9",
" F    c #161616",
" G    c #090909",
" H    c #5A5A5A",
" I    c #BFBFBF",
" J    c #5C5C5C",
" K    c #313131",
" L    c #ABABAB",
" M    c #191919",
" N    c #767676",
" O    c #262626",
" P    c #ACACAC",
" Q    c #070707",
" R    c #838383",
" S    c #7E7E7E",
" T    c #A0A0A0",
" U    c #626262",
" V    c #383838",
" W    c #3A3A3A",
" X    c #6C6C6C",
" Y    c #494949",
" Z    c #707070",
" &    c #292929",
"0     c #888888",
"00    c #C0C0C0",
"01    c #0F0F0F",
"02    c #585858",
"03    c #AEAEAE",
"04    c #6D6D6D",
"05    c #3F3F3F",
"06    c #565656",
"07    c #C9C9C9",
"08    c #C6C6C6",
"09    c #727272",
"0a    c #A6A6A6",
"0b    c #212121",
"0c    c #4F4F4F",
"0d    c #6A6A6A",
"0e    c #414141",
"0f    c #C4C4C4",
"0g    c #656565",
"0h    c #040404",
"0i    c #222222",
"0j    c #141414",
"0k    c #5F5F5F",
"0l    c #8F8F8F",
"0m    c #282828",
"0n    c #6E6E6E",
"0o    c #1E1E1E",
"0p    c #999999",
"0q    c #7C7C7C",
"0r    c #2C2C2C",
"0s    c #4A4A4A",
"0t    c #555555",
"0u    c #858585",
"0v    c #4D4D4D",
"0w    c #949494",
"0x    c #878787",
"0y    c #5B5B5B",
"0z    c #A3A3A3",
"0A    c #363636",
"0B    c #B2B2B2",
"0C    c #B1B1B1",
"0D    c #ADADAD",
"0E    c #A8A8A8",
"0F    c #AFAFAF",
"0G    c #A2A2A2",
"0H    c #9C9C9C",
"0I    c #9A9A9A",
"0J    c #9F9F9F",
"0K    c #A5A5A5",
"0L    c #C8C8C8",
"0M    c #E6E6E6",
"0N    c #E8E8E8",
"0O    c #E5E5E5",
"0P    c #DDDDDD",
"0Q    c #F5F5F5",
"0R    c #979797",
"0S    c #CFCFCF",
"0T    c #FBFBFB",
"0U    c #DBDBDB",
"0V    c #D3D3D3",
"0W    c #7A7A7A",
"0X    c #797979",
"0Y    c #EDEDED",
"0Z    c #F0F0F0",
"0&    c #F1F1F1",
"1     c #969696",
"10    c #D9D9D9",
"11    c #8B8B8B",
"12    c #E2E2E2",
"13    c #CACACA",
"14    c #7D7D7D",
"15    c #D0D0D0",
"16    c #D4D4D4",
"17    c #F9F9F9",
"18    c #F6F6F6",
"19    c #929292",
"1a    c #E4E4E4",
"1b    c #6B6B6B",
"1c    c #F4F4F4",
"1d    c #9B9B9B",
"1e    c #DADADA",
"1f    c #CECECE",
"1g    c #EAEAEA",
"1h    c #909090",
"1i    c #FEFEFE",
"1j    c #D5D5D5",
"1k    c #CDCDCD",
"1l    c #FFFFFF",
"1m    c #EFEFEF",
"1n    c #D6D6D6",
"1o    c #FCFCFC",
"1p    c #F2F2F2",
"1q    c #8E8E8E",
"1r    c #9D9D9D",
"1s    c #F8F8F8",
"1t    c #E7E7E7",
"1u    c #8D8D8D",
"1v    c #EEEEEE",
"1w    c #DCDCDC",
"                                                                ",
"                                                                ",
"                                                                ",
"                                                                ",
"                                                                ",
"                                                                ",
"                                                                ",
"                                                                ",
"                     0 1 2 3 4                 5                ",
"                   4 6 7 1 8 9 4           2 a 5 2              ",
"               4 b c d e f g h i 5 3 b 1   0 j k b              ",
"             a l m n o p q l r 4 5 s t u i 3 v d 2 5            ",
"           1 u w x y z A f d j b B C w z D E F G H q            ",
"           I J K q L M N f O 8 P Q R a S T I U V r 5            ",
"           q W X f c Y Z f &0 00 J01 F0203 c040500              ",
"          00 B060708 W09 f & s 1 T0a t0b0c070d0e0f              ",
"           3 801 p0g0h N c0i s030j0k0l0m k070n0o0p 1            ",
"             30q0r0s0t0u q0v0w000x d w0y r i0z0A H 3            ",
"               b 3 b 0 4   i 4   3 b 0 q 4 2 1 b a              ",
" r r0B0C0C0B r r       2 r 2 2 2                                ",
" l0D u0E0E u P l0B 2 r0B0F030F0C r                              ",
" P0G0H0I0I0H0J E0F0C0C0D0K n 7 P0C 2                            ",
" n0L0M0N0N0O080J0E03 P0G0D0N 50J0D0B                            ",
"0I0P0M E P 10Q07 D E0E0R0S0T0P0R0E l 2                          ",
"0R0U0V0W t0X0f0Y0I 7 n0H0Z 20& 90J0D r                          ",
"1 1010110l0R1213 60J1  00Y140U151  E0C                          ",
"1 16170Y0Y18180I h0I191a i1b0z1c1d0z03 2                        ",
"1 101e0l0w 61f1g1 1h T1i1j0f1k1l 10p L0B                        ",
"0R1e1j m0 0u1 1i0E0u0L1m0L1f07120O0R0a l 2                      ",
"0p0U1n R s0  01o1d1h1p b0x1q s 91l030G03 2                      ",
"1r1e1s1a0O1t18 f1u 10T0z D0G T0I1v1w0G03 r                      ",
" 90F 4 a a a 90I0J l 4 7 u P L0K0C 0 u0F 2                      "};
