/* XPM */
static char *magick[] = {
/* columns rows colors chars-per-pixel */
"32 32 132 2",
"   c Gray0",
".  c #070707",
"X  c #0d0300",
"o  c Gray3",
"O  c #0c0c0c",
"+  c Gray5",
"@  c #000011",
"#  c #00001e",
"$  c #001700",
"%  c #001f00",
"&  c #180500",
"*  c Gray7",
"=  c Gray10",
"-  c #1e1e1e",
";  c #000021",
":  c #000029",
">  c #00002d",
",  c #000033",
"<  c #002100",
"1  c #003600",
"2  c #240700",
"3  c #240800",
"4  c #360b00",
"5  c #390b00",
"6  c #3f0d00",
"7  c #222222",
"8  c #252525",
"9  c #2a2a2a",
"0  c #2d2d2d",
"q  c Gray19",
"w  c #393939",
"e  c Gray24",
"r  c #00004b",
"t  c #06064e",
"y  c #0b137c",
"u  c #004200",
"i  c #004b00",
"p  c #005100",
"a  c #005a00",
"s  c #006c00",
"d  c #007200",
"f  c #0b7c13",
"g  c #137e0b",
"h  c #480f00",
"j  c #5d1300",
"k  c #4f2217",
"l  c #601400",
"z  c #721700",
"x  c #7b1700",
"c  c #7c290b",
"v  c Gray25",
"b  c Gray27",
"n  c Gray31",
"m  c #505050",
"M  c #555555",
"N  c #565656",
"B  c Gray34",
"V  c #585858",
"C  c Gray35",
"Z  c Gray36",
"A  c #646464",
"S  c Gray41",
"D  c Gray42",
"F  c Gray44",
"G  c #727272",
"H  c Gray46",
"J  c #000087",
"K  c #0b0b84",
"L  c #00009f",
"P  c #131384",
"I  c #0000a2",
"U  c #0000a5",
"Y  c #000cc0",
"T  c #000dc8",
"R  c #0c0ccc",
"E  c #0c0cce",
"W  c #0000db",
"Q  c #0000de",
"!  c #000dd4",
"~  c #0c0cd2",
"^  c Blue",
"/  c #000ff0",
"(  c #0f0fff",
")  c #008100",
"_  c #0b840b",
"`  c #0b860b",
"'  c #00af0b",
"]  c #00b100",
"[  c #00d200",
"{  c #00d800",
"}  c #00ea00",
"|  c #00ed0f",
" . c #00f300",
".. c #00f600",
"X. c #00f00f",
"o. c #00f900",
"O. c Green",
"+. c #0ff300",
"@. c #821a00",
"#. c #901b00",
"$. c #84240b",
"%. c #84260b",
"&. c #8b2308",
"*. c #9f2000",
"=. c #a52400",
"-. c #db2d00",
";. c #de3100",
":. c #df3b00",
">. c #e12e00",
",. c #ed3000",
"<. c #f33200",
"1. c #f03500",
"2. c #f63200",
"3. c #f93300",
"4. c #f93400",
"5. c #ff3000",
"6. c #ff3500",
"7. c #ff3800",
"8. c #ff3c00",
"9. c #f04000",
"0. c #f04400",
"q. c #8b8b8b",
"w. c #9b9b9b",
"e. c #9d9d9d",
"r. c #a2a2a2",
"t. c #aaaaaa",
"y. c #aeaeae",
"u. c Gray71",
"i. c #bbbbbb",
"p. c #bebebe",
"a. c #c1c1c1",
"s. c Gray80",
/* pixels */
"a.a.a.a.a.a.a.a.a.a.a.a.a.a.a.a.a.a.a.a.a.a.a.a.a.a.a.a.a.a.a.a.",
"w C M M M M M M M M m S a.a.a.a.a.a.a.a.a.a.a.a.a.a.a.a.a.a.a.a.",
"C w.w.w.w.w.w.w.w.w.w.A a.a.a.a.a.a.a.a.a.a.a.a.a.a.a.a.a.a.a.a.",
"M w.w.w.w.w.w.w.w.w.w.A a.p.a.a.a.a.a.a.a.a.k %.%.%.%.%.$.$.%.k ",
"M w.w.w.w.w.w.w.w.w.w.A a.7 t.a.a.a.a.a.a.a.&.8.=.7.6.7.6.;.8.&.",
"M w.w.w.w.w.w.w.w.w.w.A a.  v a.a.a.a.a.a.a.%.1.4 j 3.6.*.& ,.%.",
"M w.w.w.w.w.w.w.w.w.w.A a..   G a.a.a.a.a.a.%.6.2.h h @.2 -.7.%.",
"C w.w.w.w.w.w.w.w.w.w.A a.o   + e.a.a.a.a.a.%.7.6.<.3 X -.6.7.%.",
"C w.w.w.w.w.w.w.w.w.w.A a.o     0 i.a.a.a.a.%.6.,.6 l z 2 >.7.%.",
"w C M M M M M M M M m S a.o       Z a.a.a.a.%.6.5 x 5.5.#.2 4.%.",
"a.a.a.a.a.a.a.a.a.a.a.a.a.o         q.a.a.a.c 0.:.9.9.9.9.:.9.c ",
"w C M M M M M M M M m S a.o         - y.a.a.g +.+.+.+.+.+.+.+.g ",
"C s.s.s.s.s.s.s.s.s.s.A a..           b a.a.` { a o.O.O...a  .` ",
"M s.s.s.s.s.s.s.s.s.s.A a..             H a.` o.i a O.O.p s O.` ",
"M s.s.s.s.s.s.s.s.s.s.A a..             + a.` O...1 d ) u o.O.` ",
"M s.s.s.s.s.s.s.s.s.s.A a..             . a.` O.O.} % $ } O.O.` ",
"M s.s.s.s.s.s.s.s.s.s.A a..             S a.` O.O.[ $ [ O.O.O.` ",
"C s.s.s.s.s.s.s.s.s.s.A a..           e a.a.` O.} < ] O.O.O.O.` ",
"C s.s.s.s.s.s.s.s.s.s.A a..         = t.a.a.f X.| ' X.X.X.X.X.f ",
"w C M M M M M M M M m S a..         q.a.a.a.y / ! Y Y Y Y T / y ",
"a.a.a.a.a.a.a.a.a.a.a.a.a..       Z a.a.a.a.K ^ J , , , > : ^ K ",
"+ 0 9 9 9 9 9 9 9 9 8 e a..     q p.a.a.a.a.K ^ ^ ^ ^ Q # L ^ K ",
"0 G G G G G G S G G G w a..   * r.a.a.a.a.a.K ^ ^ ^ Q ; L ^ ^ K ",
"9 G S G G S G G G S G w a..   p.a.a.a.a.a.a.K ^ ^ W # I ^ ^ ^ K ",
"9 G G G G G G G G G G w a.  n a.a.a.a.a.a.a.K ^ W # U ^ ^ ^ ^ K ",
"9 G G G G G G G G G G w a.0 u.a.a.a.a.a.a.a.K ^ @ ; , , , r ^ K ",
"9 G G G S G G S G G G w a.e.a.a.a.a.a.a.a.a.P ( E E E E E ~ ( P ",
"9 G G G S G G S G G G w a.a.a.a.a.a.a.a.a.a.t K K K K K K K K t ",
"0 S S G G G G G S G G w a.a.a.a.a.a.a.a.a.a.a.a.a.a.a.a.a.a.a.a.",
"+ 0 9 9 9 9 9 9 9 9 8 e a.a.a.a.a.a.a.a.a.a.a.a.a.a.a.a.a.a.a.a.",
"a.a.a.a.a.a.a.a.a.a.a.a.a.a.a.a.a.a.a.a.a.a.a.a.a.a.a.a.a.a.a.a.",
"a.a.a.a.a.a.a.a.a.a.a.a.a.a.a.a.a.a.a.a.a.a.a.a.a.a.a.a.a.a.a.a."
};
