/* XPM */
static char *magick[] = {
/* columns rows colors chars-per-pixel */
"32 32 129 2",
"   c Gray0",
".  c #010101",
"X  c #020202",
"o  c #040404",
"O  c #060606",
"+  c #070707",
"@  c Gray3",
"#  c #0c0c0c",
"$  c Gray5",
"%  c Gray7",
"&  c Gray10",
"*  c #1e1e1e",
"=  c #231932",
"-  c #271e36",
";  c #281f37",
":  c #222222",
">  c #2d2d2d",
",  c #2a2038",
"<  c #2a2139",
"1  c #2b2139",
"2  c #2c223a",
"3  c #2c233a",
"4  c #2e253c",
"5  c #30273e",
"6  c #31283f",
"7  c #32293f",
"8  c Gray19",
"9  c Gray24",
"0  c #0b137c",
"q  c #332a40",
"w  c #332a41",
"e  c #362d43",
"r  c #393146",
"t  c #3b3348",
"y  c #3d354a",
"u  c #3f374b",
"i  c #0b7c13",
"p  c #137e0b",
"a  c #4f2217",
"s  c #7c290b",
"d  c #40394c",
"f  c #423a4e",
"g  c #433b4f",
"h  c #463f52",
"j  c Gray25",
"k  c Gray27",
"l  c Gray31",
"z  c #484154",
"x  c #494255",
"c  c #514b5c",
"v  c #534c5e",
"b  c #554e5f",
"n  c Gray36",
"m  c #605a6a",
"M  c #625c6b",
"N  c #645e6d",
"B  c #655f6e",
"V  c #66616f",
"C  c #686868",
"Z  c #686371",
"A  c #727272",
"S  c Gray46",
"D  c #75707c",
"F  c #77727e",
"G  c #79747f",
"H  c Gray",
"J  c #0b0b84",
"K  c #0b0b86",
"L  c #131384",
"P  c Blue",
"I  c #000ff0",
"U  c #0f0fff",
"Y  c #7a7681",
"T  c #7c7c84",
"R  c #0b840b",
"E  c #0b860b",
"W  c #00f00f",
"Q  c Green",
"!  c #0ff300",
"~  c #86220b",
"^  c #84240b",
"/  c #84260b",
"(  c #8b2308",
")  c #ff3000",
"_  c #ff3400",
"`  c #ff3500",
"'  c #ff3800",
"]  c #ff3c00",
"[  c #f04000",
"{  c #f04400",
"}  c #848484",
"|  c #868684",
" . c #848089",
".. c #89868f",
"X. c #898989",
"o. c #8b8b8b",
"O. c #918e95",
"+. c #939097",
"@. c #949299",
"#. c #97949b",
"$. c #9c999f",
"%. c #9d9d9d",
"&. c #9f9f9f",
"*. c #9e9ba1",
"=. c #a09da3",
"-. c #a19fa4",
";. c #a2a2a2",
":. c #a5a3a8",
">. c #a6a4a9",
",. c #a7a5a9",
"<. c #a9a7ab",
"1. c #aaaaaa",
"2. c #aba9ad",
"3. c #aeaeae",
"4. c #b0afb2",
"5. c #b2b1b4",
"6. c #b4b3b5",
"7. c Gray71",
"8. c #b8b7b9",
"9. c #bab9ba",
"0. c #bbbbbb",
"q. c #bbbbbc",
"w. c #bcbcbc",
"e. c Gray74",
"r. c #bdbdbe",
"t. c Gray75",
"y. c #c1c1c1",
"u. c #f0f0ff",
"i. c Gray100",
/* pixels */
"y.y.y.y.y.t.y.y.y.y.y.y.y.y.y.y.y.y.y.y.y.y.a ^ ^ ^ ^ ^ ^ ^ ^ a ",
"y.y.y.y.y.N G y.y.y.y.y.y.y.y.y.y.y.y.y.y.y.( ] ' ' ' ' ' ' ] ( ",
"y.y.y.y.y.6.u F y.y.y.y.y.y.y.y.y.y.y.y.y.y.^ ' ` ` ` ` ` ` ' ^ ",
"<.-.-.-.-.-.#.r N y.y.y.y.y.y.y.y.y.y.y.y.y.^ ' ` ` ` ` ` ` ' ^ ",
"m g g g g g g 5 ; t.y.H y.y.y.y.y.y.y.y.y.y.^ ' ` ` ` ` ` ` ' ^ ",
"y.y.y.y.y.4.h v 8.y.y.: 1.y.y.y.y.y.y.y.y.y.^ ' ` ` ` ` ` ` ' ^ ",
"y.y.y.y.y...F y.y.y.y.  j y.y.y.y.y.y.y.y.y.~ ` ) ) ) ) ) ) ` ~ ",
"y.y.y.y.y.y.y.y.y.y.y.O   A y.y.y.y.y.y.y.y.s { [ [ [ [ [ [ { s ",
"y.y.y.y.y.y.y.y.y.y.y.@   $ %.y.y.y.y.y.y.y.p ! ! ! ! ! ! ! ! p ",
"y.y.y.y.y.y.y.y.y.y.y.@     > 9.y.y.y.y.y.y.E Q Q Q Q Q Q Q Q E ",
"y.y.y.y.y.y.y.y.y.y.y.@       n y.y.y.y.y.y.R Q Q Q Q Q Q Q Q E ",
"M t.y.y.y.y.y.y.y.y.y.@         o.y.y.y.y.y.R Q Q Q Q Q Q Q Q E ",
"b h 5.y.y.y.g y.y.y.y.@         * 3.y.y.y.y.R Q Q Q Q Q Q Q Q R ",
"y.F 7 =.y.y.< 9.y.y.y.O           k y.y.y.y.R Q Q Q Q Q Q Q Q R ",
"y.y.@.5  .y.3 8.y.y.y.O             S y.y.y.E Q Q Q Q Q Q Q Q E ",
"y.y.y.2.t N w 4.y.y.y.O             $ y.y.y.i W W W W W W W W i ",
"y.y.<.-.$.x - >.y.y.y.O             O y.y.y.0 I I I I I I I I 0 ",
"y.y.m g g g c 6.y.y.y.O             C y.y.y.J P P P P P P P P J ",
"y.y.y.y.y.y.y.y.y.y.y.O           9 y.y.y.y.J P P P P P P P P J ",
"y.y.y.y.y.y.y.y.y.y.y.O         & 1.y.y.y.y.J P P P P P P P P J ",
"y.y.y.y.y.y.y.y.y.y.y.O         o.y.y.y.y.y.J P P P P P P P P J ",
"y.y.y.y.y.y.y.y.y.y.y.O       n y.y.y.y.y.y.J P P P P P P P P J ",
"y.y.Y V F =.:.y.y.y.y.O     8 t.y.y.y.y.y.y.J P P P P P P P P J ",
"y.y.Z w 3 = < < y.y.y.O   % ;.y.y.y.y.y.y.y.L U U U U U U U U L ",
"y.y.y.y.+.u g 7 y.y.y.O   H y.y.y.y.y.y.y.y.T u.u.u.u.u.u.u.u.T ",
"y.y.*.x u O.5.4 y.y.y.  l y.y.y.y.y.y.y.y.y.| i.i.i.i.i.i.i.i.| ",
">.v e  .y.y.9.< y.y.y.> 7.y.y.y.y.y.y.y.y.y.} i.i.i.i.i.i.i.i.| ",
"r Y q.y.y.y.y.M y.y.y.%.y.y.y.y.y.y.y.y.y.y.} i.i.i.i.i.i.i.i.| ",
"y.y.y.y.y.y.y.y.y.y.y.y.y.y.y.y.y.y.y.y.y.y.} i.i.i.i.i.i.i.i.} ",
"y.y.y.y.y.y.y.y.y.y.y.y.y.y.y.y.y.y.y.y.y.y.} i.i.i.i.i.i.i.i.} ",
"y.y.y.y.y.y.y.y.y.y.y.y.y.y.y.y.y.y.y.y.y.y.o.i.i.i.i.i.i.i.i.o.",
"y.y.y.y.y.y.y.y.y.y.y.y.y.y.y.y.y.y.y.y.y.y.l } } } } } } } } l "
};
