/* XPM */
static char *render_BA_PT_loader_xpm[]={
"32 32 787 2",
"      c #000000",
" 0    c #020000",
" 1    c #050200",
" 2    c #0F0900",
" 3    c #241C00",
" 4    c #453F00",
" 5    c #696700",
" 6    c #797901",
" 7    c #676B04",
" 8    c #3F5213",
" 9    c #1C462A",
" a    c #094037",
" b    c #023230",
" c    c #001D1C",
" d    c #000C0C",
" e    c #000403",
" f    c #000101",
" g    c #010100",
" h    c #010000",
" i    c #040000",
" j    c #0D0300",
" k    c #1E0B00",
" l    c #3A2200",
" m    c #5E4E00",
" n    c #827F00",
" o    c #949400",
" p    c #7E8204",
" q    c #4E6B1D",
" r    c #226C4A",
" s    c #0B7065",
" t    c #025B58",
" u    c #003635",
" v    c #001716",
" w    c #000706",
" x    c #030300",
" y    c #050500",
" z    c #060600",
" A    c #020200",
" B    c #080000",
" C    c #190200",
" D    c #360900",
" E    c #571E00",
" F    c #6E4500",
" G    c #7F7101",
" H    c #878501",
" I    c #727909",
" J    c #46712C",
" K    c #1E8566",
" L    c #099288",
" M    c #027976",
" N    c #004A46",
" O    c #00231E",
" P    c #000D09",
" Q    c #000402",
" R    c #030000",
" S    c #0B0B00",
" T    c #131300",
" U    c #171700",
" V    c #151500",
" W    c #0D0D00",
" X    c #0E0100",
" Y    c #270200",
" Z    c #510600",
" &    c #781400",
"0     c #842C01",
"00    c #7A4901",
"01    c #6A5905",
"02    c #505A12",
"03    c #2E6438",
"04    c #13806C",
"05    c #068C86",
"06    c #017772",
"07    c #005243",
"08    c #00301C",
"09    c #001808",
"0a    c #010902",
"0b    c #020300",
"0c    c #060000",
"0d    c #0D0000",
"0e    c #110000",
"0f    c #100000",
"0g    c #0B0000",
"0h    c #0C0C00",
"0i    c #1D1D00",
"0j    c #303000",
"0k    c #3B3B00",
"0l    c #353500",
"0m    c #222100",
"0n    c #100F00",
"0o    c #090500",
"0p    c #110200",
"0q    c #2D0200",
"0r    c #5D0500",
"0s    c #880C01",
"0t    c #911602",
"0u    c #782304",
"0v    c #532D09",
"0w    c #313416",
"0x    c #184631",
"0y    c #095E51",
"0z    c #036C5F",
"0A    c #00674F",
"0B    c #005B2F",
"0C    c #004714",
"0D    c #002C06",
"0E    c #021401",
"0F    c #070600",
"0G    c #130100",
"0H    c #240000",
"0I    c #300000",
"0J    c #2D0000",
"0K    c #200000",
"0L    c #050000",
"0M    c #161600",
"0N    c #595900",
"0O    c #6E6E00",
"0P    c #616100",
"0Q    c #3E3E00",
"0R    c #1D1C00",
"0S    c #0D0A00",
"0T    c #110500",
"0U    c #2B0800",
"0V    c #520C01",
"0W    c #740F02",
"0X    c #7A1006",
"0Y    c #60110B",
"0Z    c #391312",
"0&    c #1C1819",
"1     c #0B2524",
"10    c #033B2F",
"11    c #015332",
"12    c #006A28",
"13    c #007817",
"14    c #006C0A",
"15    c #014703",
"16    c #042100",
"17    c #0F0A00",
"18    c #480000",
"19    c #5F0000",
"1a    c #5B0000",
"1b    c #3F0000",
"1c    c #090000",
"1d    c #464600",
"1e    c #777700",
"1f    c #929200",
"1g    c #818100",
"1h    c #525200",
"1i    c #262600",
"1j    c #110F00",
"1k    c #140C00",
"1l    c #2A1600",
"1m    c #462202",
"1n    c #592705",
"1o    c #55210E",
"1p    c #3D151D",
"1q    c #200C2C",
"1r    c #0D0B31",
"1s    c #04132B",
"1t    c #012721",
"1u    c #004A1A",
"1v    c #007512",
"1w    c #00920A",
"1x    c #008704",
"1y    c #015901",
"1z    c #062900",
"1A    c #160C00",
"1B    c #380200",
"1C    c #670000",
"1D    c #890000",
"1E    c #840000",
"1F    c #5C0000",
"1G    c #2E0000",
"1H    c #1C1C00",
"1I    c #434300",
"1J    c #727200",
"1K    c #8C8C00",
"1L    c #7C7C00",
"1M    c #4F4F00",
"1N    c #252500",
"1O    c #131200",
"1P    c #1B1800",
"1Q    c #373000",
"1R    c #544B02",
"1S    c #605405",
"1T    c #524513",
"1U    c #332931",
"1V    c #161353",
"1W    c #070C5C",
"1X    c #02124A",
"1Y    c #002332",
"1Z    c #00431F",
"1&    c #006C13",
"2     c #008709",
"20    c #007C03",
"21    c #015201",
"22    c #072600",
"23    c #180C01",
"24    c #3C0302",
"25    c #6D0303",
"26    c #8F0303",
"27    c #890202",
"28    c #600101",
"29    c #310000",
"2a    c #0E0000",
"2b    c #141400",
"2c    c #2E2E00",
"2d    c #555500",
"2e    c #565600",
"2f    c #373700",
"2g    c #1B1B00",
"2h    c #242400",
"2i    c #4C4A01",
"2j    c #767501",
"2k    c #848401",
"2l    c #6D6C0E",
"2m    c #414039",
"2n    c #1B1F6F",
"2o    c #081780",
"2p    c #02226B",
"2q    c #003550",
"2r    c #00473C",
"2s    c #005728",
"2t    c #006114",
"2u    c #005507",
"2v    c #023802",
"2w    c #081A01",
"2x    c #170A03",
"2y    c #350706",
"2z    c #5A0A0A",
"2A    c #720C0C",
"2B    c #680303",
"2C    c #400000",
"2D    c #0C0101",
"2E    c #090900",
"2F    c #181801",
"2G    c #86866D",
"2H    c #8D8D6C",
"2I    c #2C2C01",
"2J    c #111001",
"2K    c #121102",
"2L    c #292801",
"2M    c #555402",
"2N    c #848301",
"2O    c #797A0A",
"2P    c #484935",
"2Q    c #1E2770",
"2R    c #092684",
"2S    c #024178",
"2T    c #005D70",
"2U    c #006566",
"2V    c #00594A",
"2W    c #014628",
"2X    c #03320F",
"2Y    c #071E05",
"2Z    c #0F0F03",
"2&    c #1E0B07",
"3     c #371110",
"30    c #521A19",
"31    c #591616",
"32    c #7D4B4A",
"33    c #9E8585",
"34    c #352020",
"35    c #050101",
"36    c #0A0A02",
"37    c #E6E6E7",
"38    c #E7E7E7",
"39    c #0B0900",
"3a    c #0D0A03",
"3b    c #151006",
"3c    c #292406",
"3d    c #4A4706",
"3e    c #6A6900",
"3f    c #6F7100",
"3g    c #565D00",
"3h    c #2F3A24",
"3i    c #17285A",
"3j    c #073470",
"3k    c #015D78",
"3l    c #008388",
"3m    c #008384",
"3n    c #00615F",
"3o    c #00352C",
"3p    c #05190E",
"3q    c #190F07",
"3r    c #250A05",
"3s    c #330F0E",
"3t    c #471817",
"3u    c #612423",
"3v    c #631E1C",
"3w    c #AF9090",
"3x    c #FFFFFF",
"3y    c #4D4141",
"3z    c #040402",
"3A    c #DADAD9",
"3B    c #DADADA",
"3C    c #090703",
"3D    c #0A0503",
"3E    c #180D0A",
"3F    c #271610",
"3G    c #342313",
"3H    c #392E08",
"3I    c #555518",
"3J    c #999F6C",
"3K    c #ACB292",
"3L    c #687B68",
"3M    c #0B3039",
"3N    c #023851",
"3O    c #01606C",
"3P    c #028789",
"3Q    c #52B5B5",
"3R    c #8BC0C0",
"3S    c #7E9A99",
"3T    c #453F3D",
"3U    c #360402",
"3V    c #4D0707",
"3W    c #4E0A0A",
"3X    c #7D4C4C",
"3Y    c #C0A09F",
"3Z    c #B58786",
"3&    c #BC9999",
"4     c #4C4040",
"40    c #020202",
"41    c #D9D9D9",
"42    c #DAD9D9",
"43    c #090605",
"44    c #140908",
"45    c #301817",
"46    c #4C2624",
"47    c #532923",
"48    c #5E4535",
"49    c #DEDDD7",
"4a    c #F7FCFA",
"4b    c #D3E8D5",
"4c    c #A3B8AF",
"4d    c #033A33",
"4e    c #00474C",
"4f    c #94C3C4",
"4g    c #CFD5D6",
"4h    c #EFEFEF",
"4i    c #F3EFEF",
"4j    c #772424",
"4k    c #710101",
"4l    c #8F4040",
"4m    c #F8F4F4",
"4n    c #FBF8F8",
"4o    c #EADEDD",
"4p    c #F9F4F4",
"4q    c #4B3F3F",
"4r    c #0D0707",
"4s    c #200F0E",
"4t    c #4A2423",
"4u    c #753938",
"4v    c #7B3633",
"4w    c #C5ABAA",
"4x    c #528642",
"4y    c #007400",
"4z    c #7ABF7D",
"4A    c #49706A",
"4B    c #002834",
"4C    c #486B7A",
"4D    c #4D6F79",
"4E    c #042429",
"4F    c #838789",
"4G    c #A74C4C",
"4H    c #850000",
"4I    c #D7A6A6",
"4J    c #FDFFFF",
"4K    c #804F4F",
"4L    c #59201F",
"4M    c #C9BBBB",
"4N    c #443C3C",
"4O    c #0E0808",
"4P    c #241110",
"4Q    c #542928",
"4R    c #83403E",
"4S    c #8F4341",
"4T    c #ECDBDD",
"4U    c #E1E6DF",
"4V    c #1E590C",
"4W    c #007700",
"4X    c #268A31",
"4Y    c #8291A4",
"4Z    c #00063D",
"4&    c #30466D",
"5     c #A5B1B9",
"50    c #E4E6E7",
"51    c #F4F3F3",
"52    c #9D4B4B",
"53    c #760000",
"54    c #E6C9C9",
"55    c #E6E2E2",
"56    c #401312",
"57    c #260504",
"58    c #837574",
"59    c #3D3939",
"5a    c #D8D7D7",
"5b    c #371212",
"5c    c #602625",
"5d    c #70312F",
"5e    c #DBCBCB",
"5f    c #EFF1EE",
"5g    c #1E4713",
"5h    c #004000",
"5i    c #3B784C",
"5j    c #686EA9",
"5k    c #080A76",
"5l    c #F0F0F8",
"5m    c #D6D5E0",
"5n    c #41404E",
"5o    c #706970",
"5p    c #7A4444",
"5q    c #430000",
"5r    c #D2BBBB",
"5s    c #EFEEEE",
"5t    c #220A0A",
"5u    c #878282",
"5v    c #383636",
"5w    c #D8D8D8",
"5x    c #F1F1F1",
"5y    c #898787",
"5z    c #8E8988",
"5A    c #9C9090",
"5B    c #A59191",
"5C    c #4E2725",
"5D    c #816C69",
"5E    c #A5B1A3",
"5F    c #516852",
"5G    c #D3DCD6",
"5H    c #EEEEF5",
"5I    c #181A85",
"5J    c #16179C",
"5K    c #C4C5D3",
"5L    c #474758",
"5M    c #C5C2C6",
"5N    c #604948",
"5O    c #0F0000",
"5P    c #7D6868",
"5Q    c #959090",
"5R    c #5A5A5A",
"5S    c #EEEEEE",
"5T    c #373636",
"5U    c #C1C1C1",
"5V    c #FDFDFD",
"5W    c #FCFCFC",
"5X    c #F3F1F1",
"5Y    c #4F2B2A",
"5Z    c #280403",
"5&    c #807573",
"6     c #E2E2E3",
"60    c #F8F7F9",
"61    c #C9CED2",
"62    c #39456D",
"63    c #000164",
"64    c #01027D",
"65    c #7576B2",
"66    c #EBEBF1",
"67    c #E9EAEC",
"68    c #949B98",
"69    c #E8E9E9",
"6a    c #75716F",
"6b    c #0C0505",
"6c    c #918E8E",
"6d    c #F2F3F3",
"6e    c #DFDFDF",
"6f    c #A4A4A4",
"6g    c #ECECEC",
"6h    c #323232",
"6i    c #0F0F0F",
"6j    c #131212",
"6k    c #161212",
"6l    c #201313",
"6m    c #331414",
"6n    c #4C1515",
"6o    c #520908",
"6p    c #480A09",
"6q    c #230B09",
"6r    c #192B29",
"6s    c #184343",
"6t    c #012F36",
"6u    c #001C36",
"6v    c #07184A",
"6w    c #081050",
"6x    c #000842",
"6y    c #12283A",
"6z    c #0D321E",
"6A    c #002200",
"6B    c #123112",
"6C    c #11200F",
"6D    c #030600",
"6E    c #101010",
"6F    c #060606",
"6G    c #121212",
"6H    c #040404",
"6I    c #590000",
"6J    c #780504",
"6K    c #6C1110",
"6L    c #3E2827",
"6M    c #144544",
"6N    c #025B59",
"6O    c #055B58",
"6P    c #0E4743",
"6Q    c #18342F",
"6R    c #1E2E25",
"6S    c #1B331D",
"6T    c #0E4110",
"6U    c #055806",
"6V    c #025C03",
"6W    c #003F00",
"6X    c #002000",
"6Y    c #010D00",
"6Z    c #000300",
"6&    c #150000",
"7     c #390100",
"70    c #6A0301",
"71    c #8A0A06",
"72    c #771A15",
"73    c #3F3A35",
"74    c #136662",
"75    c #07847F",
"76    c #0D7F72",
"77    c #1F6446",
"78    c #375420",
"79    c #46560E",
"7a    c #415C08",
"7b    c #2B6D06",
"7c    c #158603",
"7d    c #078601",
"7e    c #016200",
"7f    c #003200",
"7g    c #001300",
"7h    c #000500",
"7i    c #000100",
"7j    c #000201",
"7k    c #230000",
"7l    c #580700",
"7m    c #751306",
"7n    c #692613",
"7o    c #3D4431",
"7p    c #186A5C",
"7q    c #098175",
"7r    c #0E7761",
"7s    c #2D6634",
"7t    c #5A6B13",
"7u    c #757B04",
"7v    c #6E7B03",
"7w    c #4A7C03",
"7x    c #248D02",
"7y    c #0C8C01",
"7z    c #026600",
"7A    c #013500",
"7B    c #001400",
"7C    c #000701",
"7D    c #000503",
"7E    c #010704",
"7F    c #010804",
"7G    c #000603",
"7H    c #000200",
"7I    c #707070",
"7J    c #C0C0C0",
"7K    c #C7C6C6",
"7L    c #C2BEBE",
"7M    c #81706D",
"7N    c #3A0F01",
"7O    c #552503",
"7P    c #5A3C0A",
"7Q    c #474C1B",
"7R    c #235531",
"7S    c #3E7D69",
"7T    c #C8DCD6",
"7U    c #6E865B",
"7V    c #5F6901",
"7W    c #8D8C00",
"7X    c #868801",
"7Y    c #5B7604",
"7Z    c #2B7303",
"7&    c #0E6C01",
"8     c #034E00",
"80    c #002800",
"81    c #001101",
"82    c #000A04",
"83    c #010F08",
"84    c #02170D",
"85    c #021A0E",
"86    c #02160C",
"87    c #010D07",
"88    c #AAAAAA",
"89    c #CACACA",
"8a    c #4E4E4E",
"8b    c #666564",
"8c    c #EAEBEB",
"8d    c #928975",
"8e    c #453700",
"8f    c #666003",
"8g    c #626307",
"8h    c #354706",
"8i    c #9FAC9B",
"8j    c #F7F6F7",
"8k    c #C2C5B7",
"8l    c #4E5507",
"8m    c #797907",
"8n    c #75770A",
"8o    c #505F0E",
"8p    c #274D0A",
"8q    c #0D3F04",
"8r    c #032B01",
"8s    c #011701",
"8t    c #000D03",
"8u    c #011209",
"8v    c #032313",
"8w    c #05371E",
"8x    c #053E22",
"8y    c #04331C",
"8z    c #021E10",
"8A    c #000302",
"8B    c #A8A8A8",
"8C    c #A1A1A1",
"8D    c #82817E",
"8E    c #DEDDD0",
"8F    c #504E00",
"8G    c #787800",
"8H    c #5B5F0F",
"8I    c #E4E4DE",
"8J    c #6D7671",
"8K    c #E4E5E6",
"8L    c #585B4E",
"8M    c #444525",
"8N    c #4A4C2B",
"8O    c #333A26",
"8P    c #192916",
"8Q    c #081D08",
"8R    c #021202",
"8S    c #000A01",
"8T    c #010C05",
"8U    c #021C0F",
"8V    c #053C21",
"8W    c #085E34",
"8X    c #086A3A",
"8Y    c #07572F",
"8Z    c #A6A6A6",
"8&    c #AFAFAF",
"9     c #171717",
"90    c #282827",
"91    c #C2C2C1",
"92    c #9B9B84",
"93    c #4B4A00",
"94    c #787801",
"95    c #6C6C00",
"96    c #96965D",
"97    c #DDDDDE",
"98    c #0A0E0E",
"99    c #BBBBC1",
"9a    c #9C9DB6",
"9b    c #121651",
"9c    c #212659",
"9d    c #171F41",
"9e    c #0B1423",
"9f    c #030C0D",
"9g    c #010603",
"9h    c #000502",
"9i    c #010C06",
"9j    c #032112",
"9k    c #064928",
"9l    c #09733F",
"9m    c #0A8247",
"9n    c #9A9A9A",
"9o    c #F3F3F3",
"9p    c #DBDBDB",
"9q    c #EBEBEB",
"9r    c #EDEDEC",
"9s    c #34341F",
"9t    c #343401",
"9u    c #545406",
"9v    c #494901",
"9w    c #D3D2C1",
"9x    c #7C7D79",
"9y    c #494B64",
"9z    c #E6E7F3",
"9A    c #132070",
"9B    c #071C65",
"9C    c #071F4E",
"9D    c #03172E",
"9E    c #010D14",
"9F    c #000506",
"9G    c #010A06",
"9H    c #054123",
"9I    c #086638",
"9J    c #085E33",
"9K    c #04371E",
"9L    c #02180D",
"9M    c #212121",
"9N    c #969697",
"9O    c #D2D2D2",
"9P    c #242422",
"9Q    c #202016",
"9R    c #46463A",
"9S    c #FDFDFC",
"9T    c #AFB0AD",
"9U    c #909092",
"9V    c #9B9CAC",
"9W    c #566F92",
"9X    c #002B56",
"9Y    c #023D57",
"9Z    c #01303E",
"9&    c #001A20",
"a     c #000A0C",
"a0    c #000404",
"a1    c #000704",
"a2    c #02130B",
"a3    c #042A17",
"a4    c #054124",
"a5    c #A7A7A7",
"a6    c #A5A5A5",
"a7    c #181824",
"a8    c #FDFDFE",
"a9    c #3F3F6A",
"aa    c #000039",
"ab    c #8888A4",
"ac    c #DBDBDF",
"ad    c #8B8B93",
"ae    c #919298",
"af    c #8E8D93",
"ag    c #C0C5CB",
"ah    c #C1D3D7",
"ai    c #005660",
"aj    c #00686D",
"ak    c #005358",
"al    c #002E31",
"am    c #001213",
"an    c #000605",
"ao    c #010905",
"ap    c #021E11",
"aq    c #011009",
"ar    c #676771",
"as    c #F9F9FD",
"at    c #1C1C6D",
"au    c #05056D",
"av    c #E2E2F3",
"aw    c #656586",
"ax    c #000007",
"ay    c #000001",
"az    c #2F4C54",
"aA    c #2E9292",
"aB    c #007E7F",
"aC    c #00696A",
"aD    c #003B3C",
"aE    c #001717",
"aF    c #000202",
"aG    c #000301",
"aH    c #010A05",
"aI    c #010B06",
"aJ    c #C6C6C6",
"aK    c #CBCBCC",
"aL    c #EAEAEB",
"aM    c #69698B",
"aN    c #00004F",
"aO    c #5050A2",
"aP    c #F7F7FC",
"aQ    c #141451",
"aR    c #00001D",
"aS    c #00030E",
"aT    c #000C11",
"aU    c #002325",
"aV    c #D5DDDD",
"aW    c #A1D3D3",
"aX    c #007272",
"aY    c #006060",
"aZ    c #003636",
"a&    c #001515",
"b     c #000505",
"b0    c #272727",
"b1    c #464646",
"b2    c #49494C",
"b3    c #191929",
"b4    c #000020",
"b5    c #000043",
"b6    c #24246C",
"b7    c #36366F",
"b8    c #000030",
"b9    c #000018",
"ba    c #00020A",
"bb    c #001718",
"bc    c #255050",
"bd    c #3B7373",
"be    c #005252",
"bf    c #003F3F",
"bg    c #002323",
"bh    c #000E0E",
"                 0 1 2 3 4 5 6 7 8 9 a b c d e f                ",
"   g g g g g h h i j k l m n o p q r s t u v w f     h h h      ",
" g x y z z x A 0 B C D E F G H I J K L M N O P Q g 0 R i i R h  ",
" y S T U V W z 1 X Y Z &0 000102030405060708090a0b0c0d0e0f0g0c h",
"0h0i0j0k0l0m0n0o0p0q0r0s0t0u0v0w0x0y0z0A0B0C0D0E0F0G0H0I0J0K0f0L",
"0M0l0N0O0P0Q0R0S0T0U0V0W0X0Y0Z0&1 1011121314151617 Y18191a1b0K1c",
"0i1d1e1f1g1h1i1j1k1l1m1n1o1p1q1r1s1t1u1v1w1x1y1z1A1B1C1D1E1F1G0d",
"1H1I1J1K1L1M1N1O1P1Q1R1S1T1U1V1W1X1Y1Z1&2 202122232425262728292a",
"2b2c1I2d2e2f2g T2h2i2j2k2l2m2n2o2p2q2r2s2t2u2v2w2x2y2z2A2B2C0H2D",
"2E2F2G2H2I2g2J2K2L2M2N o2O2P2Q2R2S2T2U2V2W2X2Y2Z2&3 303132333435",
" g3637382K393a3b3c3d3e3f3g3h3i3j3k3l3m3n3o3p3q3r3s3t3u3v3w3x3y  ",
"  3z3A3B3C3D3E3F3G3H3I3J3K3L3M3N3O3P3Q3R3S3T3U3V3W3X3Y3Z3&3x4   ",
"  404142434445464748494a4b3x4c4d4e4f3x4g4h4i4j4k4l4m4n4o4p3x4q  ",
"  4041424r4s4t4u4v4w3x4x4y4z3x4A4B4C4D4E4F3x4G4H4I4J4K4L4M3x4N  ",
"  4041424O4P4Q4R4S4T4U4V4W4X3x4Y4Z4&5 50513x525354555657583x59  ",
"  403B5a  2a5b5c5d5e5f5g5h5i3x5j5k5l5m5n5o3x5p5q5r5s5t  5u3x5v  ",
"  405w5x5y5z5A5B5C5D3x5E5F5G5H5I5J3x5K5L5M3x5N5O5P3x5Q5R5S3x5T  ",
"  405U4h5V5V5W5X5Y5Z5&6 606162636465666768696a  6b6c6d6e6f6g6h  ",
"    6i6j6k6l6m6n6o6p6q6r6s6t6u6v6w6x6y6z6A6B6C6D    6E6F  6G6H  ",
"         h5O1G6I6J6K6L6M6N6O6P6Q6R6S6T6U6V6W6X6Y6Z              ",
"        0L6&7 707172737475767778797a7b7c7d7e7f7g7h7i7j7j7i7i    ",
"           B7k7l7m7n7o7p7q7r7s7t7u7v7w7x7y7z7A7B7C7D7E7F7G Q7H  ",
"  7I7J7K7K7L7M7N7O7P7Q7R7S7T7U7V7W7X7Y7Z7&8 80818283848586877D f",
"  88898a8a8b8c8d8e8f8g8h8i8j8k8l8m8n8o8p8q8r8s8t8u8v8w8x8y8z878A",
"  8B8C      8D8E8F1L8G8H8I8J8K8L8M8N8O8P8Q8R8S8T8U8V8W8X8Y8y867D",
"  8Z8&9 9 909192939495969798999a9b9c9d9e9f9g9h9i9j9k9l9m8X8x857E",
"  9n9o9p9p9q9r9s9t9u9v9w9x  9y9z9A9B9C9D9E9F Q9G8z9H9I9l9J9K9L7G",
"  8Z8&9 9 9M9N9O9P9Q9R9S9T9U9V3x9W9X9Y9Z9&a a0a1a2a3a49k8V8v838A",
"  a5a6      a7a8a9aaabacadaeafagahaiajakalaman Qaoa2ap9j8Uaqa17j",
"  8Ba6      arasatauavawaxay  az3xaAaBaCaDaE waFaG7GaHaIao7DaG7i",
"  8C5xaJaJaKaLaMaNaOaPaQaRaSaTaUaVaWaXaYaZa&b  f7i7H7j7j7j7j7i  ",
"  b0b18a8ab2b3b4b5b6b7b8b9baa bbbcbdbebfbgbha0 f      7i        "};
