/* XPM */
static char *render_p_physical_lens_dof[] = {
/* columns rows colors chars-per-pixel */
"32 32 165 2",
"   c #3A3A3A",
".  c gray23",
"X  c #3C3C3C",
"o  c gray24",
"O  c #3E3E3E",
"+  c #3F3F3F",
"@  c gray25",
"#  c #414141",
"$  c gray26",
"%  c #434343",
"&  c #444444",
"*  c #464646",
"=  c gray28",
"-  c #484848",
";  c gray29",
":  c #4B4B4B",
">  c gray30",
",  c #4E4E4E",
"<  c gray31",
"1  c #505050",
"2  c #515151",
"3  c gray32",
"4  c #535353",
"5  c #565656",
"6  c #585858",
"7  c #5A5A5A",
"8  c gray37",
"9  c #5F5F5F",
"0  c #606060",
"q  c gray38",
"w  c #626262",
"e  c gray39",
"r  c #646464",
"t  c #656565",
"y  c gray40",
"u  c #676767",
"i  c #686868",
"p  c DimGray",
"a  c #6A6A6A",
"s  c gray42",
"d  c #6C6C6C",
"f  c #6D6D6D",
"g  c gray43",
"h  c #6F6F6F",
"j  c gray44",
"k  c #717171",
"l  c #727272",
"z  c gray45",
"x  c gray46",
"c  c #767676",
"v  c #777777",
"b  c gray47",
"n  c #797979",
"m  c gray48",
"M  c #7B7B7B",
"N  c #7C7C7C",
"B  c gray49",
"V  c #7E7E7E",
"C  c gray50",
"Z  c #808080",
"A  c #818181",
"S  c gray51",
"D  c #838383",
"F  c #848484",
"G  c gray52",
"H  c gray53",
"J  c #888888",
"K  c gray54",
"L  c #8B8B8B",
"P  c gray55",
"I  c #8D8D8D",
"U  c #8E8E8E",
"Y  c gray56",
"T  c #909090",
"R  c gray57",
"E  c #929292",
"W  c #939393",
"Q  c #959595",
"!  c gray59",
"~  c #979797",
"^  c #989898",
"/  c gray60",
"(  c #9A9A9A",
")  c #9B9B9B",
"_  c gray61",
"`  c #9D9D9D",
"'  c gray62",
"]  c #9F9F9F",
"[  c #A0A0A0",
"{  c gray63",
"}  c #A2A2A2",
"|  c #A4A4A4",
" . c #A5A5A5",
".. c gray65",
"X. c #A7A7A7",
"o. c gray66",
"O. c #A9A9A9",
"+. c #AAAAAA",
"@. c gray67",
"#. c #ACACAC",
"$. c gray68",
"%. c #AEAEAE",
"&. c #AFAFAF",
"*. c gray69",
"=. c #B1B1B1",
"-. c #B2B2B2",
";. c gray70",
":. c #B4B4B4",
">. c gray71",
",. c #B6B6B6",
"<. c #B7B7B7",
"1. c gray72",
"2. c #B9B9B9",
"3. c gray73",
"4. c #BBBBBB",
"5. c #BCBCBC",
"6. c gray74",
"7. c gray",
"8. c gray75",
"9. c #C0C0C0",
"0. c #C1C1C1",
"q. c gray76",
"w. c #C3C3C3",
"e. c #C5C5C5",
"r. c gray78",
"t. c #C8C8C8",
"y. c gray79",
"u. c #CACACA",
"i. c #CBCBCB",
"p. c gray80",
"a. c #CECECE",
"s. c gray82",
"d. c #D8D8D8",
"f. c gray85",
"g. c #DADADA",
"h. c gray86",
"j. c gainsboro",
"k. c #DFDFDF",
"l. c #E1E1E1",
"z. c #E4E4E4",
"x. c gray90",
"c. c #E6E6E6",
"v. c #E7E7E7",
"b. c #E9E9E9",
"n. c #EAEAEA",
"m. c gray92",
"M. c #ECECEC",
"N. c gray93",
"B. c #EEEEEE",
"V. c #EFEFEF",
"C. c gray94",
"Z. c #F1F1F1",
"A. c gray95",
"S. c #F3F3F3",
"D. c gray96",
"F. c #F6F6F6",
"G. c gray97",
"H. c #F8F8F8",
"J. c #F9F9F9",
"K. c gray98",
"L. c #FBFBFB",
"P. c gray99",
"I. c #FDFDFD",
"U. c #FEFEFE",
"Y. c gray100",
/* pixels */
"0.0.0.0.0.0.0.0.0.0.0.0.0.0.0.0.0.0.0.8.:.$._ U M n S U [ $.2.8.",
"0.0.0.0.0.0.0.0.0.0.0.0.0.0.0.0.0.0.0.&.[ U M j u u i j S E O.2.",
"0.0.0.0.0.0.0.0.0.0.0.0.0.0.0.0.0.8.2.} K v i e e e e e g n E $.",
"0.0.0.0.0.0.0.0.0.0.0.0.0.0.0.0.0.8.&.~ n i e 8 8 8 8 e e i S _ ",
"0.0.0.0.0.0.0.0.0.0.0.0.0.0.0.0.0.2.} K g e 8 e e 8 8 e e e g U ",
"0.0.0.0.0.0.0.0.0.0.0.0.0.0.0.0.0.:.[ M u e e 8 8 8 e 8 8 e u S ",
"0.0.0.0.0.0.0.0.0.0.0.0.0.0.0.0.8.:.~ M u 8 e 8 e 8 e 8 8 e u v ",
"0.0.0.0.0.0.0.0.0.0.0.0.r.k.v.S.S.l.2.S u 8 8 e e 8 8 e 8 8 u n ",
"0.0.0.0.0.0.0.0.0.0.e.c.Y.Y.Y.Y.Y.Y.Y.v.[ e 8 8 8 e e 8 e e i K ",
"0.0.0.0.0.0.0.0.0.r.S.Y.Y.Y.Y.Y.Y.Y.Y.Y.Y.:.e e 8 8 8 8 8 u v Q ",
"0.0.0.0.0.0.0.0.0.S.Y.Y.Y.Y.Y.Y.Y.Y.Y.Y.Y.Y.} u e 8 e e u j K } ",
"0.0.0.0.0.0.0.0.g.Y.Y.Y.Y.Y.Y.Y.Y.Y.Y.Y.Y.Y.G.v u e u i v H _ :.",
"0.0.0.0.0.8.8.0.S.Y.Y.Y.Y.Y.Y.Y.Y.Y.Y.Y.Y.Y.Y.2.n n n S E [ &.8.",
"0.0.0.8.8.8.8.a.S.S.G.S.G.S.G.Y.Y.Y.Y.Y.Y.Y.Y.v.~ ~ ~ [ O.:.8.0.",
"0.8.8.8.2.:.:.a.c.l.l.c.v.B.S.S.S.Y.Y.Y.Y.Y.Y.S.&.&.&.2.2.8.8.0.",
"8.8.2.:.&.O.} 2.0.0.0.0.r.s.g.c.B.S.G.Y.Y.Y.Y.Y.0.0.8.8.0.0.0.0.",
"8.2.&.} _ E H E ~ Q ~ ~ [ $.2.r.g.v.S.G.Y.Y.Y.S.0.0.0.0.0.0.0.0.",
"&.$._ U S j u u g i g i v M U _ :.r.l.B.S.Y.Y.B.0.0.0.0.0.0.0.0.",
"} ~ H j e 5 4 ; < < < < 4 7 u v U } 0.g.v.G.G.g.0.0.0.0.0.0.0.0.",
"E M i 7 4 & % o o o % o % & < 7 i S [ 8.g.B.S.0.0.0.0.0.0.0.0.0.",
"v e 5 ; % o o . o . . . . . % & 4 u S [ 0.l.a.8.0.0.0.0.0.0.0.0.",
"8 < & o . . . . . . . .   . . o % < u S O.&.$.8.8.0.0.0.0.0.0.0.",
"< % o o .           . .       . o % 4 u n U } 2.8.8.0.0.8.8.&.O.",
"& . o .               .         . o & 4 u S _ &.2.8.0.8.:._ K n ",
"% .                             . . o & 7 v Q O.2.8.0.&.E v u 8 ",
"% .                             . o o % 4 i K } &.8.&.E j e 8 e ",
"o . .                           . . . % < e H _ &.:.Q j e 8 8 e ",
"% . .                           . . . o ; e S _ $._ v e 8 8 e 8 ",
"o     .                             . . ; 8 M ~ } H u 8 e 8 8 e ",
"%     .         . .                 . o ; 8 M ~ _ v e e 8 e e 8 ",
"% . . . . .     . . . .         . . . o & 8 M ~ E g 8 8 8 8 8 8 ",
"; o % o % % % o % o % % % o % % % % & & 4 u H _ U i e 8 e e 8 e "
};
