/* XPM */
static char *magick[] = {
/* columns rows colors chars-per-pixel */
"32 32 255 2",
"   c #202112",
".  c #2c2b1a",
"X  c #282c18",
"o  c #2e301a",
"O  c #303317",
"+  c #34341c",
"@  c #353c1b",
"#  c #39351c",
"$  c #3d3b1d",
"%  c #2f3125",
"&  c #363d25",
"*  c #333c2d",
"=  c #38372c",
"-  c #3b3d23",
";  c #323224",
":  c #3a411e",
">  c #364026",
",  c #36402a",
"<  c #3c4323",
"1  c #3d432c",
"2  c #3c4826",
"3  c #3f482d",
"4  c #3e4431",
"5  c #3d4739",
"6  c #413d1f",
"7  c #443c23",
"8  c #443b2b",
"9  c #42431e",
"0  c #434324",
"q  c #44442b",
"w  c #444924",
"e  c #444b2a",
"r  c #484426",
"t  c #4a472a",
"y  c #4d4b26",
"u  c #4c4b2d",
"i  c #434532",
"p  c #454b34",
"a  c #464d3a",
"s  c #484633",
"d  c #4b4b32",
"f  c #4c4e3b",
"g  c #465138",
"h  c #4c5334",
"j  c #4c523b",
"k  c #4d5839",
"l  c #534229",
"z  c #504c27",
"x  c #534f2f",
"c  c #5c462b",
"v  c #524436",
"b  c #514c33",
"n  c #5b4c36",
"m  c #51532e",
"M  c #525433",
"N  c #51543c",
"B  c #54593c",
"V  c #5b5730",
"C  c #5b533f",
"Z  c #5c5836",
"A  c #62523f",
"S  c #414e40",
"D  c #4d4f41",
"F  c #475649",
"G  c #4c5243",
"H  c #4d534c",
"J  c #4d5943",
"K  c #4a574a",
"L  c #4c5d52",
"P  c #525443",
"I  c #525b43",
"U  c #525a4c",
"Y  c #5b5c4a",
"T  c #5d5d45",
"R  c #535b53",
"E  c #48655e",
"W  c #576047",
"Q  c #57614d",
"!  c #556257",
"~  c #54635c",
"^  c #5a6454",
"/  c #5a665c",
"(  c #5d6a5f",
")  c #476663",
"_  c #486764",
"`  c #4b6a65",
"'  c #4c6c6a",
"]  c #4e6e70",
"[  c #4f706c",
"{  c #556760",
"}  c #556d66",
"|  c #506f6b",
" . c #5f6460",
".. c #5b6c63",
"X. c #5a6e6e",
"o. c #596f73",
"O. c #54726b",
"+. c #5c746d",
"@. c #5b7166",
"#. c #547373",
"$. c #5d7573",
"%. c #5b767b",
"&. c #5f7871",
"*. c #5b7a7c",
"=. c #635945",
"-. c #6c5848",
";. c #625f52",
":. c #62634a",
">. c #62655d",
",. c #696354",
"<. c #6b6b5c",
"1. c #676357",
"2. c #7b614c",
"3. c #74624c",
"4. c #776753",
"5. c #726f5d",
"6. c #76735e",
"7. c #7d715d",
"8. c #626a63",
"9. c #6c6f63",
"0. c #647165",
"q. c #63736b",
"w. c #647a6e",
"e. c #687568",
"r. c #647572",
"t. c #667b75",
"y. c #6a7672",
"u. c #6a7c74",
"i. c #6f7c7d",
"p. c #706a61",
"a. c #747464",
"s. c #77766a",
"d. c #797160",
"f. c #7c7a6d",
"g. c #727e7c",
"h. c #7c7c73",
"j. c #787b78",
"k. c #707a75",
"l. c #5e7e83",
"z. c #637f8e",
"x. c #647a81",
"c. c #76827f",
"v. c #7e8070",
"b. c #5f8088",
"n. c #67808a",
"m. c #688186",
"M. c #6f888d",
"N. c #6c8589",
"B. c #6d8b9b",
"V. c #6c8794",
"C. c #758283",
"Z. c #72898d",
"A. c #7c8381",
"S. c #7b8c87",
"D. c #7c8e91",
"F. c #7f9196",
"G. c #7b959b",
"H. c #7e9aa2",
"J. c #7b9caf",
"K. c #7c97a5",
"L. c #7598b1",
"P. c #7b9eb9",
"I. c #7ea1b6",
"U. c #826e5a",
"Y. c #817767",
"T. c #827967",
"R. c #857c6a",
"E. c #887c6c",
"W. c #877f74",
"Q. c #897e73",
"!. c #80806d",
"~. c #828472",
"^. c #83827c",
"/. c #888179",
"(. c #8e8673",
"). c #958871",
"_. c #988c78",
"`. c #92927f",
"'. c #a6957d",
"]. c #828686",
"[. c #808788",
"{. c #848c8b",
"}. c #848f92",
"|. c #88938e",
" X c #86918c",
".X c #8b9396",
"XX c #869498",
"oX c #949385",
"OX c #959189",
"+X c #9a9991",
"@X c #989996",
"#X c #849ca3",
"$X c #8f9fa5",
"%X c #9fa09b",
"&X c #85a2ac",
"*X c #8ca4ad",
"=X c #84a6bc",
"-X c #86aabf",
";X c #8babbc",
":X c #82a2b2",
">X c #92a3ac",
",X c #90a8af",
"<X c #92a2a5",
"1X c #91a7b2",
"2X c #94aab3",
"3X c #97afbb",
"4X c #98adb8",
"5X c #95b0be",
"6X c #98b1bf",
"7X c #a0a18c",
"8X c #a3a19b",
"9X c #a9a49d",
"0X c #a5a5a1",
"qX c #a2a8a5",
"wX c #acaba6",
"eX c #aaaba9",
"rX c #a7acaa",
"tX c #aeb0ae",
"yX c #a3b5bc",
"uX c #b1afad",
"iX c #b3b2ae",
"pX c #b4b4b2",
"aX c #b8b8b7",
"sX c #bdbcbc",
"dX c #81a6c1",
"fX c #85aac5",
"gX c #85adc9",
"hX c #8aadc6",
"jX c #8fb0c7",
"kX c #8bb2cc",
"lX c #8db5d0",
"zX c #90afc2",
"xX c #93b2c5",
"cX c #93b6cc",
"vX c #95b9ce",
"bX c #9ab4c2",
"nX c #9eb9c7",
"mX c #9cbbce",
"MX c #93b9d0",
"NX c #9cbdd1",
"BX c #a0b6c2",
"VX c #a1bbc7",
"CX c #a1bdce",
"ZX c #a2bfd1",
"AX c #a5c1d1",
"SX c #bfc0c0",
"DX c #c1bfbf",
"FX c #c1c1c1",
"GX c #c5c5c6",
"HX c #c3c3c4",
"JX c #c7c7c9",
"KX c #c7c8c9",
"LX c #c8c6c7",
"PX c #c8c7c9",
"IX c #c8c8ca",
/* pixels */
"FXFXFXFXFXFXFXFXFXFXFXFXFXFXGXGXGXGXFXFXFXFXFXFXFXFXFXFXFXFXFXFX",
"FXFXFXFXFXFXFXFXFXFXFXJXJXsXiXwXwXiXsXPXJXFXFXFXFXFXFXFXFXFXFXFX",
"FXFXFXFXFXFXFXFXFXIXsX+Xa.^ N N N B :.a.+XDXIXFXFXFXFXFXFXFXFXFX",
"FXFXFXFXFXFXFXGXFXoXT p G ! / / / 0.e.^ p N oXHXGXFXFXFXFXFXFXFX",
"FXFXFXFXFXFXPXwX:.< q U { $.t.o.%.V.J.:XZ.L > T uXIXFXFXFXFXFXFX",
"FXFXFXFXFXIX8Xx @ 3 U $.B.I.=X=X;XzXcXjX&Xt.F , d 0XIXFXFXFXFXFX",
"FXFXFXFXJX8Xu : j ..m.L.gXlXlXMXmXmXmXZXbXD.L * & d wXGXFXFXFXFX",
"FXFXFXGXpXZ w I ..M.-XlXlXkXkXkXhXhXhXmXAXVX#XL * - T sXGXFXFXFX",
"FXFXFXJXd.w B J ! G.xX-XP.dXgXfXfXdXdXfXcXZXmXH.! i 0 h.JXFXFXFX",
"FXFXJX8Xy e f 1 Q Z.G.x.z.L.P.=XxXjXfXdXhXcXNX;Xr.S q d eXGXFXFX",
"FXDXJX6.9 - - < J / ^ ~ n.B.z.K.nXCXcXhXgXjXMXcXN.S 4 0 h.IXFXFX",
"FXHXpXM @ + @ 2 g j P r.Z.X.L C.bXAXmXcXkXjXcXcXH.K 4 q U sXHXFX",
"FXJXOX7 o o @ e I P R c.u.J g u.*XcXvXMXcXcXcX;XD.^ q d f qXGXDX",
"FXJXf.# . o @ h ^ G H y.0.M k 0.Z.G.;XcXcXcXvX&X8.G q d D {.JXFX",
"FXGX<.# + O @ k ^ 5 * K W m M ^ ~ { M.&X#X*XbX,X..i q d U [.HXFX",
"FXFX1.$ 6 $ < k I * X & 2 w e a S 5 ! t...u.2XyXC.j q N 8.{.FXFX",
"FXHX1.7 y y w h p + O @ @ : < , 4 4 p f a 8.<XyX$X8.d P x.}.HXFX",
"FXHXp.7 z V m h q # $ $ 0 e e 1 q q t 0 i e.>XBX4Xc.Y >.}..XHXFX",
"FXGXf.8 t V m m w $ 6 0 d N d d d d d q N g.>XbX3XXXy.C.}.OXGXFX",
"FXJXOXv q x r m y 0 r b j p q s D P f f ^ D.1X6XbX*XF.}.[.8XGXFX",
"FXGXiX-.v b 7 7 y 0 u N i ; . = H >.8.8.C.*XbXbXbX6XXX].^.pXHXFX",
"FXFXFXQ.-.A n l c l u t - X   % R g.C.D.1XbXbXxX5X>X^.W.OXFXFXFX",
"FXFXGX9XU.2.4.3.2.2.=.b 0 - + i >.j.A..X>X1X*X#XXX/.R.(.wXGXFXFX",
"FXFXFXSX_.U.7.R.).'._.7.=.C C ,.Y.E.E.Q.^.A.i.k.s.d.R.oXFXFXFXFX",
"FXFXFXGXiXT.5.f.~.oX7X`.a.^ 1.d.!.v.a.9.q.q.$.q.0.0.v.pXGXFXFXFX",
"FXFXFXFXGX8X<.0.w.w.c.t.q...} @.+.&.$.*.l.l.*.$.+.e.0XGXFXFXFXFX",
"FXFXFXFXFXGX+X( O.O.O.O.O.' ` ` | #.*.l.b.l.*.O.@.@XGXFXFXFXFXFX",
"FXFXFXFXFXFXGX%X+.[ O.[ ` ` ) ) ' #.%.*.%.#.O.q.0XGXFXFXFXFXFXFX",
"FXFXFXFXFXFXFXGXpXS.@.` ` ` _ _ ' ] #.' ` O.{.aXGXFXFXFXFXFXFXFX",
"FXFXFXFXFXFXFXFXGXGXtX|.t.} ` E E ` } t.|.pXGXHXFXFXFXFXFXFXFXFX",
"FXFXFXFXFXFXFXFXFXFXGXLXDXpXrXqXqXrXpXFXLXGXFXFXFXFXFXFXFXFXFXFX",
"FXFXFXFXFXFXFXFXFXFXFXFXFXGXGXGXGXGXGXFXFXFXFXFXFXFXFXFXFXFXFXFX"
};
