/* XPM */
static char * image_name[]={
"32 32 144 2",
"  	c #C2C2C2",
". 	c #BDBDBD",
"X 	c #B8B8B8",
"o 	c #B3B3B3",
"O 	c #B0B0B0",
"+ 	c #ADADAD",
"@ 	c #BFBFBF",
"# 	c #ABABAB",
"$ 	c #A1A1A1",
"% 	c #9C9C9C",
"& 	c #9E9E9E",
"* 	c #999999",
"= 	c #919191",
"- 	c #A6A6A6",
"; 	c #9DB0C6",
": 	c #B1BBC6",
"> 	c #ABB8C8",
", 	c #A0B4CC",
"< 	c #9AB2CD",
"1 	c #92AFD0",
"2 	c #97B1CE",
"3 	c #81A8D5",
"4 	c #B6E2CE",
"5 	c #BABABA",
"6 	c #949494",
"7 	c #A3A3A3",
"8 	c #858585",
"9 	c #7C98D3",
"0 	c #1E90FF",
"q 	c #0678FC",
"w 	c #0477FD",
"e 	c #0578FD",
"r 	c #0076FE",
"t 	c #A8B7C9",
"y 	c #8C8C8C",
"u 	c #8F8F8F",
"i 	c #969696",
"p 	c #7F7F7F",
"a 	c #828282",
"s 	c #0E7BF9",
"d 	c #0277FE",
"f 	c #878787",
"g 	c #7D7D7D",
"h 	c #117CF8",
"j 	c #AFBAC7",
"k 	c #0F7BF9",
"l 	c #0176FE",
"z 	c #B5B5B5",
"x 	c #787878",
"c 	c #A8A8A8",
"v 	c #778899",
"b 	c #0979FB",
"n 	c #6A6A8D",
"m 	c #5773B8",
"M 	c #729FFF",
"N 	c #8A8A8A",
"B 	c #7E88AB",
"V 	c #5470AA",
"C 	c #5F929E",
"Z 	c #0C7AFA",
"A 	c #7A7A7A",
"S 	c #89AAD1",
"D 	c #82B0E6",
"F 	c #95AECB",
"G 	c #7E7E7E",
"H 	c #8EBDF2",
"J 	c #87CEFA",
"K 	c #89B8ED",
"L 	c #757575",
"P 	c #8CBAEF",
"I 	c #8CBBF0",
"U 	c #707070",
"Y 	c #737373",
"T 	c #85B3E9",
"R 	c #83B2E7",
"E 	c #6E6E6E",
"W 	c #666666",
"Q 	c #696969",
"! 	c #4D4D4D",
"~ 	c #404040",
"^ 	c #5C5C5C",
"/ 	c #708090",
"( 	c #474747",
") 	c #363636",
"_ 	c #525252",
"` 	c #545454",
"' 	c #333333",
"] 	c #454545",
"[ 	c #383838",
"{ 	c #2E66A7",
"} 	c #2974CA",
"| 	c #384B66",
" .	c #1757A2",
"..	c #0573F1",
"X.	c #1074E7",
"o.	c #3775BB",
"O.	c #1970D3",
"+.	c #0274F8",
"@.	c #0475F7",
"#.	c #1D73D7",
"$.	c #3E75B4",
"%.	c #6B6B6B",
"&.	c #B6BDC4",
"*.	c #8BACD2",
"=.	c #0974EE",
"-.	c #2172CF",
";.	c #3A71B0",
":.	c #3F6DA3",
">.	c #3C6AA0",
",.	c #3A699E",
"<.	c #3C689B",
"1.	c #636363",
"2.	c #8EADD1",
"3.	c #0175FB",
"4.	c #0972EB",
"5.	c #1A6BC9",
"6.	c #2B65A9",
"7.	c #35649A",
"8.	c #37669B",
"9.	c #3D6798",
"0.	c #85AAD4",
"q.	c #097AFB",
"w.	c #0176FB",
"e.	c #0972EC",
"r.	c #166FD5",
"t.	c #2A6EBC",
"y.	c #3D6FA9",
"u.	c #A0B4CB",
"i.	c #0C7BFA",
"p.	c #0176FC",
"a.	c #0775F4",
"s.	c #1573E0",
"d.	c #616161",
"f.	c #127DF8",
"g.	c #356FB2",
"h.	c #595959",
"j.	c #0276FC",
"k.	c #3E74B3",
"l.	c #B2BBC6",
"z.	c #0277FD",
"x.	c #AEBAC7",
"c.	c #BABEC3",
"v.	c #9DB3CC",
"b.	c #B6BDC5",
"                                                                ",
"                      . X o O + + O o X .                       ",
"                @ X # $ % % & & * = = * $ - ; : > , < < 1 2 3 4 ",
"              5 # * = 6 % $ - 7 6 8 8 = = 9 0 0 q w e r r r r t ",
"            o * y u i % $ 7 - 7 = p a 6 $ % 9 9 0 s d r r r 0 t ",
"          o u 8 y 6 * % & $ $ 7 % f g y $ # $ 9 9 0 h d r r 0 j ",
"        o 6 a f u 6 i * % $ 7 - - 6 g a % - 9 9 9 9 0 k l r 0 4 ",
"      z y x a f y = i % & $ 7 - c $ 8 x v 9 9 9 9 9 9 0 b l 0   ",
"    . $ x x a f u 6 i % & $ 7 - # c = n m 9 9 9 9 9 9 9 0 d M   ",
"    z = g g a N u 6 i % & $ - c # c B V V C 9 9 9 9 9 9 0 Z 9   ",
"    # f A g a N u 6 * % % $ $ $ & B C C C C C 9 9 9 9 C 9 0 9   ",
"  . $ 8 x g a N u 6 6 i i i i 6 B 9 9 9 C C 9 9 9 9 B $ i 0 S   ",
"  X * 8 x g a f N y y u u = 6 9 9 9 D 9 9 C 9 9 9 9 c c 7 9 F   ",
"  o 6 8 x A G a 8 8 N u 6 6 9 9 9 H J K 9 C 9 9 9 # # c 7 - X   ",
"  + 6 8 L L A p 8 N u 6 B 9 9 9 9 P J I 9 C 9 9 c # c - 7 7 X   ",
"  7 N a U Y A a f u = B C 9 9 9 9 9 T R 9 C C 7 # c c - $ $ z   ",
"@ i E W Q L g a f N C C C 9 9 9 9 9 9 9 9 C = $ - - - 7 $ & o   ",
"@ 6 ! ~ ^ Y A / v C C C C C 9 9 9 9 9 9 9 6 u % 7 7 7 $ & $ z   ",
"  % ( ) _ E x n V C C C C C C 9 9 9 9 9 & i y * $ 7 7 7 $ 7 X   ",
"  c ` ' ] W V V m m C C C C C C 9 9 B * & 6 y % - c c c - c 5   ",
"  z Q ' [ { } V V m m C C C C C C C 6 6 u f y - O + # - & c .   ",
"  . N |  ...X.o.V V m C C C C C C v p x Y E a # O c $ * i O     ",
"    $ O.+.r @.#.$.V V V V V V V E Q W Q %.W %.y % * = N * 5     ",
"&.*.0 r r r r =.-.;.V :.>.,.<.1.1.Q E x G U W g y y f N #       ",
"2.0 r r r r r 3.4.5.6.7.8.9.n U x g a f f x Q x 8 8 a * 5       ",
"0.0 q.r r r r r w.e.r.t.y.n L g a a 8 8 a Y Q L g x N o         ",
"  u.M i.r r r r r p.a.s.V Y L x A g G p g %.d.Q E a # @         ",
"    > 9 f.r r r r r r g.Q %.E Y Y L x A x Q h.1.a # @           ",
"      j 9 0 l r r j.k.E W 1.W Q E Y L x x Y L 6 z               ",
"        l.9 0 z.r 9 % N A %.d.W %.Y x a = $ O .                 ",
"          &.9 0 M x.@ 5 O $ 6 6 6 * 7 O 5 @                     ",
"            c.v.b.          . @ @ @                             "
};
