/* XPM */
static char * image_name[]={
"32 32 143 2",
"  	c #C2C2C2",
". 	c #B6E2CE",
"X 	c #91D2A0",
"o 	c #9BEEB4",
"O 	c #B6E191",
"+ 	c #91D2DE",
"@ 	c #B0E0E6",
"# 	c #D4D4D4",
"$ 	c #BABABA",
"% 	c #B0B0B0",
"& 	c #85BDC1",
"* 	c #72D5CD",
"= 	c #87CEFA",
"- 	c #B0E2FF",
"; 	c #7E88AB",
": 	c #5F929E",
"> 	c #B5B5B5",
", 	c #A3A3A3",
"< 	c #7C98D3",
"1 	c #AFEEEE",
"2 	c #DCDCDC",
"3 	c #D6D6D6",
"4 	c #CCCCCC",
"5 	c #C4C4C4",
"6 	c #B3B3B3",
"7 	c #729FFF",
"8 	c #9BEFF2",
"9 	c #E0FFFF",
"0 	c #E6E6FA",
"q 	c #E3E3E3",
"w 	c #E5E5E5",
"e 	c #778899",
"r 	c #D1D1D1",
"t 	c #BFBFBF",
"y 	c #D9D9D9",
"u 	c #D8BFD8",
"i 	c #B8B8B8",
"p 	c #84BCFC",
"a 	c #5773B8",
"s 	c #9693E5",
"d 	c #EF84EF",
"f 	c #9FB8C0",
"g 	c #84B8FC",
"h 	c #8ABFFC",
"j 	c #8B96C4",
"k 	c #9370DB",
"l 	c #D15DE1",
"z 	c #BBBFC1",
"x 	c #8FB3C9",
"c 	c #B4BCC1",
"v 	c #81AED0",
"b 	c #E8E8E8",
"n 	c #FFB5C5",
"m 	c #F0F8FF",
"M 	c #FCFCFC",
"N 	c #FFF0F5",
"B 	c #DEB887",
"V 	c #A5B3C0",
"C 	c #86ACFA",
"Z 	c #91ABFF",
"A 	c #9DAEFF",
"S 	c #B1BCFF",
"D 	c #F8F8FF",
"F 	c #A8A8A8",
"G 	c #819AF9",
"H 	c #889CFD",
"J 	c #909FFF",
"K 	c #9AA4FF",
"L 	c #A9AEFF",
"P 	c #BCBCFF",
"I 	c #999999",
"U 	c #5470AA",
"Y 	c #8092F5",
"T 	c #8694FB",
"R 	c #8E98FE",
"E 	c #969BFF",
"W 	c #A1A1FF",
"Q 	c #AEA9FF",
"! 	c #BEB4FF",
"~ 	c #949494",
"^ 	c #4D4D4D",
"/ 	c #2F4F4F",
"( 	c #4955A5",
") 	c #4169E1",
"_ 	c #848DF7",
"` 	c #8B90FC",
"' 	c #9494FF",
"] 	c #9B97FF",
"[ 	c #A49AFF",
"{ 	c #AE9FFF",
"} 	c #B7A3FF",
"| 	c #BFA4FF",
" .	c #9C9C9C",
"..	c #474747",
"X.	c #333333",
"o.	c #384B66",
"O.	c #8387F2",
"+.	c #8A8AF8",
"@.	c #908BFC",
"#.	c #988EFF",
"$.	c #9F91FF",
"%.	c #A793FF",
"&.	c #AE95FF",
"*.	c #B596FF",
"=.	c #545454",
"-.	c #303030",
";.	c #8080EC",
":.	c #8782F2",
">.	c #8E84F7",
",.	c #9586FB",
"<.	c #9B88FE",
"1.	c #A28AFF",
"2.	c #A98BFF",
"3.	c #B08CFE",
"4.	c #F08080",
"5.	c #696969",
"6.	c #383838",
"7.	c #595959",
"8.	c #8470FF",
"9.	c #9881F9",
"0.	c #9E80F9",
"q.	c #BD52BD",
"w.	c #BDBDBD",
"e.	c #8A8A8A",
"r.	c #3D3D3D",
"t.	c #ABABAB",
"y.	c #5E5E5E",
"u.	c #575757",
"i.	c #735694",
"p.	c #8D82D7",
"a.	c #8C8C8C",
"s.	c #424242",
"d.	c #2F2F64",
"f.	c #592F71",
"g.	c #663E80",
"h.	c #6A3F86",
"j.	c #6E6E6E",
"k.	c #363636",
"l.	c #636363",
"z.	c #6A6A8D",
"x.	c #919191",
"c.	c #969696",
"v.	c #A6A6A6",
"                                                                ",
"                    . X . . . o O O o o .                       ",
"                . X X + + + @ # . X X o o o .                   ",
"              $ % & * + = = - - + ; : + . . . .                 ",
"          . > , < < * = = = - - < : : + 1 1 2 3 4 5             ",
"          6 ; < < 7 * = = = 8 - = < : < - 9 9 0 q # 5           ",
"        6 ; : < < 7 * = = = - - - < : < = 0 0 0 0 w # 5         ",
"      > e : < < < 7 * = = = = - - = < : < - 0 0 0 0 q r 5       ",
"    t , : : < < < 7 7 = = = = - - - < : < - 0 0 0 0 0 y u       ",
"    i ; : : < < < 7 7 p = = = - - - + : a s u d d d d d u u     ",
"  . f < : : < < < 7 7 g h = = = 8 8 + < j k l d d d d d d u     ",
"  z x < : : < < < 7 7 7 = + + + + 8 @ @ u u d u u u u u d u u   ",
"  c v < : : < < < < < * * * + + - - 9 b u n u 0 0 0 0 u u u u   ",
"  > < < : : : : < < < * * = = - 0 m M N u B u u u u u u u u u   ",
"  V < < : : : : < < 7 7 C Z A S 0 0 D N u B u u u u u u d u u   ",
"  F < < : : : < < < 7 G H J K L P 0 0 0 u B n u u u d d d u u   ",
"t I U U U : : < < < 7 Y T R E W Q ! u u u B B u d d d d d d u   ",
"t ~ ^ / ( U a ) < < < 7 _ ` ' ] [ { } | u u B d d d d d d d u   ",
"   ...X.o.U a ) ) ) < < O.+.@.#.$.%.&.*.d u B d d d d d d u u   ",
"  F =.-./ ( U a ) ) ) ) ;.:.>.,.<.1.2.3.d d 4.d d u u 0 u u u   ",
"  > 5.X.6.7.U a ) ) ) ) ) 8.8.8.9.0.k k k q.B u 0 0 0 0 u u u   ",
"  w.e.r.-.o.( U a ) ) ) ) k k k k k k q.q.q.q.u 0 u d d d B     ",
"    t.y.X.6.u.( U a ) ) ) a i.i.i.i.i.i.i.i.( p.d d l l t.B     ",
"    w.a.s.-.d.( ( ( i.i.i.i.f.g.h.i.i.q.q.i.( ) k k k q.6       ",
"      6 j.6.k.f.f.f.f.f.f.f.i.i.i.q.k k k i.( i.k k q., w.      ",
"        , l.^ 7.f.f.f.i.i.i.i.i.k k k k k i.( i.q.q.q.6         ",
"        w., z.i.i.i.i.i.i.i.i.i.i.q.q.k q.i.i.i.q.q.t.u         ",
"          t t.q.i.i.i.i.i.i.i.i.i.i.q.q.q.i.7.l.q.t.t           ",
"              > I z.i.i.i.i.i.i.i.i.i.q.q.i.z.~ >               ",
"                w.%  .q.i.i.i.i.i.i.i.q.q., % w.                ",
"                    t $ % , ~ x.c.I v.% $ B                     ",
"                            w.t t t                             "
};
