/* XPM */
static char *magick[] = {
/* columns rows colors chars-per-pixel */
"32 32 187 2",
"   c #0b0b0b",
".  c #111213",
"X  c #161717",
"o  c #161618",
"O  c #191a1b",
"+  c #202122",
"@  c #222326",
"#  c #232427",
"$  c #252627",
"%  c #232529",
"&  c #25272a",
"*  c #27282b",
"=  c #292a2b",
"-  c #292b2d",
";  c #2a2c2e",
":  c #2d2d2f",
">  c #2a2c30",
",  c #2d2f31",
"<  c #2f3033",
"1  c #2f3135",
"2  c #303033",
"3  c #313235",
"4  c #343537",
"5  c #333539",
"6  c #353739",
"7  c #373839",
"8  c #38393b",
"9  c #393a3e",
"0  c #3b3c3e",
"q  c #3c3d3f",
"w  c #3b3d40",
"e  c #3d3e41",
"r  c #3e4043",
"t  c #3f4246",
"y  c #404143",
"u  c #424346",
"i  c #434447",
"p  c #464646",
"a  c #454649",
"s  c #47494b",
"d  c #494a4b",
"f  c #494a4d",
"g  c #4b4d4f",
"h  c #4c4d4f",
"j  c #4d4e51",
"k  c #4f5153",
"l  c #515153",
"z  c #515255",
"x  c #535457",
"c  c #555657",
"v  c #535558",
"b  c #55565a",
"n  c #56575c",
"m  c #56585b",
"M  c #57595d",
"N  c #595a5e",
"B  c #5a5c5f",
"V  c #5a5c60",
"C  c #5c5e61",
"Z  c #5f6062",
"A  c #5f6164",
"S  c #606266",
"D  c #656566",
"F  c #65676a",
"G  c #676869",
"H  c #68696b",
"J  c #6a6b6e",
"K  c #6b6c6d",
"L  c #6c6d6f",
"P  c #6d6e71",
"I  c #6e7074",
"U  c #707173",
"Y  c #717275",
"T  c #737477",
"R  c #757779",
"E  c #77797a",
"W  c #77797c",
"Q  c #78797b",
"!  c #797a7d",
"~  c #7b7c7e",
"^  c #7d7d7f",
"/  c #7c7d80",
"(  c #7f8082",
")  c #808182",
"_  c #818385",
"`  c #838486",
"'  c #858687",
"]  c #858688",
"[  c #878889",
"{  c #898a8b",
"}  c #8a8b8d",
"|  c #8b8c8e",
" . c #8d8e8f",
".. c #8e8f91",
"X. c #8f9193",
"o. c #909193",
"O. c #929395",
"+. c #939496",
"@. c #959697",
"#. c #969699",
"$. c #97989a",
"%. c #99999b",
"&. c #999b9d",
"*. c #9b9c9e",
"=. c #9d9d9f",
"-. c #9e9fa1",
";. c #9fa0a2",
":. c #a1a2a3",
">. c #a1a2a5",
",. c #a3a4a7",
"<. c #a5a6a7",
"1. c #a6a6a9",
"2. c #a7a8aa",
"3. c #a8a9aa",
"4. c #a9abac",
"5. c #abacaf",
"6. c #acadaf",
"7. c #adaeb1",
"8. c #afb0b2",
"9. c #afb1b4",
"0. c #b1b1b2",
"q. c #b1b2b5",
"w. c #b2b4b7",
"e. c #b4b5b6",
"r. c #b3b5b8",
"t. c #b5b6b9",
"y. c #b6b8bb",
"u. c #b7b9bc",
"i. c #babbbb",
"p. c #b9babd",
"a. c #babcbf",
"s. c #bdbdbf",
"d. c #bbbdc0",
"f. c #bdbec1",
"g. c #bec0c3",
"h. c #c1c2c5",
"j. c #c2c4c7",
"k. c #c5c5c6",
"l. c #c5c6c9",
"z. c #c6c8ca",
"x. c #c7c9cc",
"c. c #c9c9ca",
"v. c #c9cacd",
"b. c #cacccf",
"n. c Gray81",
"m. c #cbcdd0",
"M. c #cdced1",
"N. c #ced0d3",
"B. c #d1d1d2",
"V. c #d1d2d5",
"C. c #d5d5d6",
"Z. c #d3d5d8",
"A. c #d5d6d9",
"S. c #d7d8da",
"D. c #d7d9dc",
"F. c #dadbdb",
"G. c #d9dadd",
"H. c #dbdcde",
"J. c #dcdddd",
"K. c #dbdde0",
"L. c #dddee1",
"P. c #dee0e3",
"I. c #dfe1e4",
"U. c #e1e1e1",
"Y. c #e1e2e5",
"T. c #e2e4e7",
"R. c #e6e6e7",
"E. c #e3e4e8",
"W. c #e6e6e9",
"Q. c #e7e8e9",
"!. c #e9e9e9",
"~. c #ebebec",
"^. c #edeeee",
"/. c #ebedf0",
"(. c #edeef2",
"). c Gray95",
"_. c #f2f3f6",
"`. c #f2f4f6",
"'. c Gray96",
"]. c #f3f6f8",
"[. c #f6f7f9",
"{. c #f6f8fb",
"}. c #f7f8fc",
"|. c #f9f9f9",
" X c #f9fbfd",
".X c #fbfcfd",
"XX c #fefefe",
/* pixels */
"v v v b b b b n m m m m N N N N N N B B m ) ~.XXR.S B B d a t i ",
"v v b b n n m m m m V N V V B B B B B N N R !.XX~.F N N b A F I ",
"b b n m m m N N N N V V V V V B B B B N N L Y.XX).U b m | J.L.J.",
"n m m m N N N B V V V C V V B d r e i z N Z J.XX'.R z x / ).XX!.",
"m N N N V V V V C C C C C d 2 e F / U b z m H.XXXX( k z ! ).XX!.",
"N N B V V V C C C C C C w 2 ! r.Z.R.R.Z.K d V.XXXX] j j U W.XXR.",
"B B V V V V V V C C C 0 t >.G.XXXXXXXXC.d e n.XX.XO.h j K R.XXR.",
"V V B V B B B B V C d 2 &.L.XX).s.8.F.%.i 6 s.XXXX*.d g H !.XX!.",
"B B N N N m N N N B < U B.XXC.P N b V b r 2 3.XXXX<.d d Z R.XXR.",
"N N N m b b x k m j 5 7.'.~.F B B b z j r 2 %.XXXX0.a s B Q.XX~.",
"N m m b a 1 w S ! j b B.XXt.b x z z v z i , ` '.XXs.2 0 h U.XX|.",
"N m b t ; S w.F.!.z ~ L.XX .j a e 8 q i z 6 K !.XXR.y.-.z i.XXXX",
"m b s > m p.'.XX|.0 ..Q.XX{ i 8 = X 2 O.R k h J.XXXX|.c.P U J.XX",
"v x > 5 -.R.XX~.J.; } W.XX=.: + o 8 #.W.l.P N / C.'.'.z.! E E 4.",
"b i - P M.XX:.d G - Q U.XXG.d a W g._. X~.] ! ! ! { %.+. . .o.%.",
"x 2 - #.R.B.7 : + O l B.XXXXH.L.(. XXXU.#.^ ' | O.=.1.4.1.1.2.6.",
"m * r d.|.Q y 4 = O O -.~.XXXXXXXX~.h.o.} O.&.;.2.4.7.8.7.7.8.w.",
"N & b M.|.j d d 0 < + 4 6.!.|.!.c.2.1.1.1.2.4.4.7.7.w.w.w.w.w.w.",
"j % F C.!.i 8 y 4 | L k x L ) [ $.3.7.7.6.6.7.7.9.w.w.t.t.t.y.y.",
"j @ T J.!.$ . X z M.H.! ! ( | &.2.7.7.7.7.7.w.w.t.t.p.p.p.d.d.d.",
"z @ J S.|.O   , &._.[...` ..*.1.7.7.7.8.9.w.t.y.p.a.d.d.g.h.h.h.",
"! h N C.XXp @ _ T..Xl.' ..*.1.4.7.8.w.w.t.y.p.d.g.h.h.l.l.z.x.x.",
"l.~.( v.XXi.| H. XW.o.@.;.2.4.7.9.w.w.t.p.d.g.h.l.z.v.b.M.M.M.N.",
"F.XX!.e.~.XX!.[.'.4.-.<.4.7.7.9.w.r.y.p.d.h.h.l.v.M.N.V.V.Z.Z.Z.",
"Q.XXXXk.J.XXXXXXl.3.7.7.7.7.8.w.t.u.a.d.h.l.x.m.N.V.Z.D.G.H.K.L.",
"~.F.).B.0.~.'.k.>.7.8.7.7.8.w.t.u.d.d.h.l.v.M.V.Z.S.G.L.I.Y.Y.Y.",
"~.2.C.'.h ) { } :.6.7.7.8.w.t.u.a.d.h.l.v.M.V.Z.G.L.I.E.W.W.W.W.",
"R.U d.|.Q T ( O.>.4.7.7.w.t.y.a.d.h.l.v.M.V.Z.G.L.Y.W.Q.L.W./.`.",
"H.m ;.R.=.~ ` #.,.4.7.w.w.t.p.d.h.h.x.m.V.Z.G.L.Y.T.L.Z.(.[.{.}.",
"C.j { U.3._ | =.2.7.8.w.t.p.a.g.h.l.v.N.Z.G.L.Y.T.T.z._.{. XXXXX",
"l.D ^ J.0.] X.;.4.7.w.w.t.p.d.h.h.x.m.V.Z.H.I.Y.T.g.Z.]. XXXXXXX",
"1.=.~ Q.w.} #.1.4.7.w.w.y.p.d.h.l.v.M.V.D.K.Y.T.I.+.(.[. XXXXXXX"
};
