/* XPM */
static char *magick[] = {
/* columns rows colors chars-per-pixel */
"32 32 71 1",
"  c #5c9000",
". c #609200",
"X c #029088",
"o c #029289",
"O c #079088",
"+ c #1f8e87",
"@ c #1f8f88",
"# c #318e87",
"$ c #318f88",
"% c #3f9088",
"& c #569389",
"* c #67968a",
"= c #6f978a",
"- c #709d88",
"; c #749889",
": c #799a8a",
"> c #7e9d8a",
", c #76a089",
"< c #7ca08a",
"1 c #bb0700",
"2 c #bc0000",
"3 c #bc0400",
"4 c #bc0700",
"5 c #bc1d0f",
"6 c #bc2f22",
"7 c #bb3e2e",
"8 c #bc3e2e",
"9 c #bc5445",
"0 c #bc634c",
"q c #bc6352",
"w c #bc6b52",
"e c #bc6f57",
"r c #bc745a",
"t c #bc7960",
"y c #bc7961",
"u c #849345",
"i c #84964c",
"p c #95a05f",
"a c #9da56d",
"s c #bc9a7f",
"d c #a7ac79",
"f c #abae7e",
"g c #b1ae7f",
"h c #c0997e",
"j c #8ca590",
"k c #9aac95",
"l c #9eae96",
"z c #a1ae90",
"x c #aeb082",
"c c #a2b097",
"v c #a7b193",
"b c #a5b198",
"n c #a7b299",
"m c #aab296",
"M c #adb496",
"N c #afb698",
"B c #bba486",
"V c #bca084",
"C c #bca689",
"Z c #beaa8d",
"A c #b3b387",
"S c #bab88e",
"D c #bdb992",
"F c #bebb96",
"G c #bfbc9e",
"H c #c09d81",
"J c #c2a387",
"K c #c1bc9a",
"L c #c4be9c",
"P c #c0bea0",
"I c #c9c2a4",
/* pixels */
"IIIIIIIIIIIIIIIIIIIIIIIIIIIIIIII",
"Ir0000000eIdiiiiiiiixI=*******>I",
"I633333335Ip........aIOooooooo%I",
"I633333335Ip........aIOooooooo%I",
"I633333335Ip........aIOooooooo%I",
"I633333335Ip........aIOooooooo%I",
"I633333335Ip........aIOooooooo%I",
"I633333335Ip........aIOooooooo%I",
"I633333335Ip........aIOooooooo%I",
"I633333335Ip........aIOooooooo%I",
"ICsssssssBIKggggggggLIvzzzzzzzNI",
"I:*******;Ik********cIw0000000tI",
"I$ooooooo@I<oooooooojI433333338I",
"I$ooooooo@I<oooooooojI433333338I",
"I$ooooooo@I<oooooooojI333333338I",
"I$ooooooo@I<oooooooojI333333338I",
"I$ooooooo@I<oooooooojI433333338I",
"I$ooooooo@I<oooooooojI433333338I",
"I$ooooooo@I<oooooooojI433333338I",
"I$ooooooo@I<oooooooojI433333338I",
"IMzzzzzzzmIGzzzzzzzzPIVsssssssZI",
"IblllllllbIDffffffffFIHhhhhhhhJI",
"I#ooooooo+Ip        aI122222227I",
"I$ooooooo@Ip........aI433333338I",
"I$ooooooo@Ip........aI433333338I",
"I$ooooooo@Ip........aI433333338I",
"I$ooooooo@Ip........aI433333338I",
"I$ooooooo@Ip........aI433333338I",
"I$ooooooo@Ip........aI433333338I",
"I$ooooooo@Ip........aI433333338I",
"I:&&&&&&&-IAuuuuuuuuSIq9999999tI",
"IIIIIIIIIIIIIIIIIIIIIIIIIIIIIIII"
};
