/* XPM */
static char * render_mip_rayswitch_environment_xpm[] = {
"32 32 255 2",
"  	c #000100",
". 	c #030006",
"+ 	c #070000",
"@ 	c #000508",
"# 	c #0D010B",
"$ 	c #070A06",
"% 	c #000F42",
"& 	c #0F100D",
"* 	c #110F13",
"= 	c #0A1213",
"- 	c #021731",
"; 	c #00193D",
"> 	c #191B18",
", 	c #181B1E",
"' 	c #231B22",
") 	c #092645",
"! 	c #002A46",
"~ 	c #282329",
"{ 	c #202921",
"] 	c #2B2725",
"^ 	c #002F57",
"/ 	c #282926",
"( 	c #152D37",
"_ 	c #192D31",
": 	c #262D2E",
"< 	c #00346A",
"[ 	c #003958",
"} 	c #2C2F46",
"| 	c #1E3440",
"1 	c #173641",
"2 	c #12394B",
"3 	c #0C3B51",
"4 	c #2C3641",
"5 	c #25393D",
"6 	c #363634",
"7 	c #383539",
"8 	c #193E49",
"9 	c #303A31",
"0 	c #134557",
"a 	c #0B457B",
"b 	c #094867",
"c 	c #15456F",
"d 	c #1D4854",
"e 	c #40403E",
"f 	c #2A484E",
"g 	c #2F4658",
"h 	c #194D60",
"i 	c #3B4741",
"j 	c #3B464E",
"k 	c #474847",
"l 	c #175A64",
"m 	c #14597E",
"n 	c #185A6C",
"o 	c #175A75",
"p 	c #26576C",
"q 	c #22578F",
"r 	c #3A565D",
"s 	c #4E524F",
"t 	c #2C5782",
"u 	c #355865",
"v 	c #555253",
"w 	c #4A565E",
"x 	c #44586B",
"y 	c #406079",
"z 	c #236984",
"A 	c #1C68AA",
"B 	c #1E6A93",
"C 	c #2C64AF",
"D 	c #266B7E",
"E 	c #256A8B",
"F 	c #306794",
"G 	c #31669F",
"H 	c #256AA0",
"I 	c #48656C",
"J 	c #606159",
"K 	c #3F687A",
"L 	c #5E6261",
"M 	c #646163",
"N 	c #1A6FB6",
"O 	c #57656E",
"P 	c #696175",
"Q 	c #2570B0",
"R 	c #3071AA",
"S 	c #2676AB",
"T 	c #3B72A0",
"U 	c #2878A2",
"V 	c #3D7396",
"W 	c #2D798A",
"X 	c #2A7993",
"Y 	c #237B9B",
"Z 	c #4071AC",
"` 	c #3C768A",
" .	c #367899",
"..	c #3D7793",
"+.	c #606F86",
"@.	c #49778B",
"#.	c #59757D",
"$.	c #747072",
"%.	c #67737C",
"&.	c #6F7271",
"*.	c #71736A",
"=.	c #697572",
"-.	c #3F7EC3",
";.	c #178BBD",
">.	c #7B7580",
",.	c #3287AC",
"'.	c #258AB6",
").	c #268BAB",
"!.	c #2E87BF",
"~.	c #3688A2",
"{.	c #4485AC",
"].	c #4F84A2",
"^.	c #7D7D7A",
"/.	c #1D94C5",
"(.	c #7E7E82",
"_.	c #698390",
":.	c #488CA1",
"<.	c #79827A",
"[.	c #5888A0",
"}.	c #39929D",
"|.	c #7C808B",
"1.	c #2995C0",
"2.	c #4A8CBB",
"3.	c #748588",
"4.	c #2798BA",
"5.	c #3892C5",
"6.	c #8D7F8A",
"7.	c #927D90",
"8.	c #3695B8",
"9.	c #3896A9",
"0.	c #858581",
"a.	c #3C97B0",
"b.	c #4A94B5",
"c.	c #5A92A1",
"d.	c #5594B8",
"e.	c #8B8D92",
"f.	c #8E8E8B",
"g.	c #2FA5D0",
"h.	c #8591A2",
"i.	c #839396",
"j.	c #37A5C9",
"k.	c #9F8C96",
"l.	c #7A96A2",
"m.	c #3FA5C2",
"n.	c #4DA0CD",
"o.	c #A28F92",
"p.	c #59A2BF",
"q.	c #8F978D",
"r.	c #979693",
"s.	c #94979B",
"t.	c #69A2C1",
"u.	c #68A3D1",
"v.	c #38B4DE",
"w.	c #7DA0DA",
"x.	c #40B3D8",
"y.	c #9C9F9B",
"z.	c #49B3CF",
"A.	c #99A0A2",
"B.	c #AA9DA0",
"C.	c #4FB2DC",
"D.	c #A49F9F",
"E.	c #9DA298",
"F.	c #A49FAC",
"G.	c #63AFDB",
"H.	c #99A4AB",
"I.	c #90A6B3",
"J.	c #6AAFCD",
"K.	c #63B4C1",
"L.	c #81ACC9",
"M.	c #A2A7A6",
"N.	c #36C1E5",
"O.	c #81B1BF",
"P.	c #3EC1EA",
"Q.	c #54BEE6",
"R.	c #48C4DE",
"S.	c #39C8F7",
"T.	c #48C4F5",
"U.	c #3CC7FD",
"V.	c #5BC2DE",
"W.	c #3CCAEE",
"X.	c #A8B0B3",
"Y.	c #50C5E9",
"Z.	c #47C7F1",
"`.	c #4EC4FB",
" +	c #6CBFDE",
".+	c #71BEEA",
"++	c #79BED4",
"@+	c #AFB2AE",
"#+	c #84BBDA",
"$+	c #6BC0F6",
"%+	c #B5B1B8",
"&+	c #B9B1B0",
"*+	c #A2B6C6",
"=+	c #5FC6EF",
"-+	c #47CFE9",
";+	c #AFB8BB",
">+	c #94C0E1",
",+	c #4DD3F7",
"'+	c #5CD0EC",
")+	c #67CEEC",
"!+	c #73CCE0",
"~+	c #5CD1F8",
"{+	c #6CCFF8",
"]+	c #76CEEE",
"^+	c #B8C0C5",
"/+	c #8CC9EE",
"(+	c #7DCEE9",
"_+	c #88CBEA",
":+	c #8ACDE3",
"<+	c #C0C4BF",
"[+	c #B0C7D5",
"}+	c #85D0FC",
"|+	c #97CEDE",
"1+	c #CEC1C2",
"2+	c #C5C3C9",
"3+	c #66DBF5",
"4+	c #C9C3C1",
"5+	c #73D9F7",
"6+	c #7AD7FF",
"7+	c #C1C9CD",
"8+	c #8BD7E4",
"9+	c #82D8FA",
"0+	c #89D7F3",
"a+	c #82DBEF",
"b+	c #95D7F9",
"c+	c #93DBF1",
"d+	c #8CE2FE",
"e+	c #94E0FF",
"f+	c #B0DAE9",
"g+	c #A4DEEE",
"h+	c #D3D2DF",
"i+	c #A2DEFF",
"j+	c #D1D5D8",
"k+	c #D5D5D1",
"l+	c #A7DFF8",
"m+	c #C7D8E2",
"n+	c #88E9FF",
"o+	c #9EE6FC",
"p+	c #B0E9FA",
"q+	c #BEE8F8",
"r+	c #A5F1FE",
"s+	c #98F6FF",
"t+	c #E2E5E8",
"u+	c #E6E5E2",
"v+	c #D8E8F3",
"w+	c #F1E4EE",
"x+	c #C0F5FE",
"y+	c #B7FEFF",
"z+	c #F0F2F7",
"A+	c #F3F2F0",
"B+	c #C4FFFD",
"C+	c #F4F5EB",
"D+	c #D6FDFF",
"E+	c #FEF3F9",
"F+	c #FCFCFB",
"          @     $ / L =.L &.0.<.=.k ~ ~ > & # + $               ",
"              6 &.0.k+F+u+A+A+E+E+F+A+F+;+@ @ . . .             ",
"          & L s.7+t+u+u+t+t+v+v+v+F+z+A+E+t+M.$ . .             ",
"        e r.<+j+7+7+_.I.f+q+g+c+c+:+l+L.h.j+k+k+q.    $         ",
"      e r.k+<+;+s.i.f+p+o+e+d+d+6+]+5+)+a+++H.t+%+s.            ",
".   & f.4+k+M.O q+p+d+e+_+8+o+l+c+0+9+5+,+3+ +_.4+%+&.$ . +     ",
"    s <+<+s.w q+p+o+f+l+}+]+2.b.8.b.8.6+)+{+~+R.@.h+r.s .       ",
"  / A.j+M.w q+p+o+0+l+T F G.d+;.;.;.1.C.i+b.W.Y.j._.@+*.*       ",
"  &.X.H.|.q+p+d+0+r+R Q G t (+8.;.;./.'.V n+W.v.j.:.H.B.L $ +   ",
"/ f.j+i.%.|+c+9+{+/+Q Q A %  +n+'./.U ,.3 V.S.P.j.).K 1+=.  +   ",
"M @+@+w g+o+3+'+G.T -.A m n+Q.x+a.4.Y [ ~+T.P.W.v.1.X _.y.>     ",
"(.<+r.O g+b+~+Y..+o+q F o 3+Y.n+i+i+o+a+z.C.=+N.v.8.X g ;+6     ",
"e.<+f.f+o+e+5+)+)+]+/+c =+,+P.S.S.S.N.'+e+/+,.Q.v.4.z K X.k     ",
"0.&+(.g+e+t.t.b.4. .Y.Y.T.U.`.`.W.-+{+i+T F S }+Q.4...h H.s     ",
"<.B.&.8+9+8+n+4.4.1.9+Y.S.T.S.U.U.U.{+A A N Q a C.4.E h h.k     ",
"^.B.>.c+6+0+G.4.;.!.U d+T.U.U.,+Z.Y.N.}+S A Q q .+4.z d i.k     ",
"&.B.%.:+)+i+4.!.1.~.r+0 V.Y.Y.T.T.Z.=+W.5.C F m !+a.n 8 i.e     ",
"M y.(.c+3+e+1.!.1.- Y.Z.T.U.U.T.W.{+T V.(+; ; J.m.~.p 1 M.6     ",
"v E.0.t.'+~+}+1.{.q+_+6+6+9+6+W.R.r+c e+8+n+i+t.n.E 0 ( @+/     ",
"k q.f.g ~+P.~+Y - i+S S H F ) Y.6+J.).;.;.4.V 8+~.o 2 j M./     ",
"/ s o.+.!+`.Y.d+o+i+H R G F ) V.r+;.1.;./.U ) K.W d 8 A.^.= .   ",
"& 9 r.6.W P.Y.Y.=+2.A -.N Q < V.'.;./.;./.U _+W n 8 _ @+6 . .   ",
"# > { f.i.:.m.v.Q.=+b ) ^ ) - )+n+'.Y o ^ p.W n 2 4 ^+L ] .     ",
". $ { 0.D.%.[.8.j.z.j.Q.Q.=+V.=+Y. +) J.p.W l 2 ( X.r.] +       ",
"  + * = r.y.3.` ~.,.j.j.j.v.v.C.x.z.- ~.z n 2 - s.@+6 & @       ",
"  + . @ 6 D.X.M.u K D X ~.~.,.~.~...K n 3 1 ( 2+@+6 >           ",
"          , e.@+7+#.n n h p o n h 0 2 1 ( j t+y.6 &             ",
"          . + 0.@+^+^+3._ 1 1 1 1 1 : %.j+k+&.6                 ",
"          @   + J 0.D.k+k+u+u+t+t+z+t+4+D.6 ]   .               ",
"                .   @ k (.$.$.$.M v 7 : . . . + + +             ",
"                .   @ @ . .         . . . .                     ",
"                                                                "};
