/* XPM */
static char *magick[] = {
/* columns rows colors chars-per-pixel */
"32 32 64 1",
"  c #fe0202",
". c #fe0505",
"X c #fe0a0a",
"o c #fe0e0e",
"O c #fe1111",
"+ c #fe1616",
"@ c #fe1a1a",
"# c #fe1d1d",
"$ c #fe2121",
"% c #fe2525",
"& c #fe2a2a",
"* c #fe2d2d",
"= c #fe3232",
"- c #fe3636",
"; c #fe3939",
": c #fe3d3d",
"> c #ff4242",
", c #fe4545",
"< c #fe4a4a",
"1 c #fe4d4d",
"2 c #fe5252",
"3 c #fe5555",
"4 c #fe5959",
"5 c #fe5e5e",
"6 c #fe6262",
"7 c #fe6666",
"8 c #fe6969",
"9 c #fe6d6d",
"0 c #fe7272",
"q c #ff7676",
"w c #fe7a7a",
"e c #fe7e7e",
"r c #fe8181",
"t c #fe8585",
"y c #fe8a8a",
"u c #fe8e8e",
"i c #fe9292",
"p c #fe9595",
"a c #fe9a9a",
"s c #fe9e9e",
"d c #fea2a2",
"f c #fea5a5",
"g c #fea9a9",
"h c #feaeae",
"j c #feb2b2",
"k c #feb6b6",
"l c #ffbaba",
"z c #febdbd",
"x c #fec3c3",
"c c #fec6c6",
"v c #fec9c9",
"b c #fecece",
"n c #fed2d2",
"m c #fed5d5",
"M c #fedada",
"N c #fedede",
"B c #fee3e3",
"V c #fee6e6",
"C c #fee9e9",
"Z c #feeeee",
"A c #fef1f1",
"S c #fef6f6",
"D c #fefafa",
"F c #fefdfd",
/* pixels */
" .XXooO+++@#@######@#@++OOooXX. ",
".XO+@#$%&**===---;===*&&%$#@+oX.",
".O@$&=-;>,,<1121121<<,>:;=*&$@OX",
"X+$&-:,12345667767655321<>:=&$+X",
"X@&->135780qqweewewq097642<>-&@o",
"o$=:1469qetyuiiiiiuytrwq9641:=$O",
"O%->369wtyiasdddddsapiyrw963,-%+",
"O&:159wtiadghjkkkkjhgdaitw951:&+",
"+*>37qrisgjlzxxxxxxzkhfsitq73>*@",
"+*,48eyagjzxvbnnnnbxxljgaye94,=@",
"+=<50tidjlxbmMNNNNMnbxljdpt05<=#",
"@-16qyaglxbmNBBCCBBNmbxlgayw61-#",
"@-16wusjzvmNBCZZZZCBNmvzhsuw72-$",
"@-27eidjxbMBCAASSAACBMbxkdie72;$",
"#;28rpfkxnNCZSDDDDSZBNnvkfpr83;$",
"@;28rpfkxmNCZSDFFDSZCNnxkfpr83;$",
"@;28rpfkxnNCZSDFFDSACNnvlfpr83;$",
"#;28rpfkxnNCZSDDDDSZCNnxkfpr83;$",
"@-27eidkxnMBCASSSSACBNnxkdie82;$",
"@-16wushzvmNBCZAAZZBNmvzjsuw72-#",
"@-16qyaglxbMNBBCCCBNMnxlgauw61-#",
"+=<50tpfjzxbmMNNNNMmnvzjfpt05<=#",
"+=,39euagjzxvbnmnnnvxzjgsue94,=@",
"+*>37qtisgjlzxxxxxxzljgdptw73>*@",
"O&:159wtiadghjkkkkkhgfapyw951:&+",
"O%-,369wtyiasddfffdsaputw973,-%+",
"o$=:1469qeryuiipppiuutew9741:=$O",
"X@&->135780qqweeereww097631>-&#O",
"X+$&-:><23466687787665331,:-*$+o",
"XO@$&=-;>,,1112223211<,>:-=&$@OX",
".XO+@#$%&**-=-;-;;---=**&%$@+Oo.",
" ..XXooO+++@@@#@@#@@@+++OooXX.. "
};
