/* XPM */
static char *render_BA_particle_info_xpm[]={
"32 32 767 2",
"      c #000000",
" 0    c #020000",
" 1    c #070300",
" 2    c #120A00",
" 3    c #251D00",
" 4    c #3B3500",
" 5    c #454300",
" 6    c #403C00",
" 7    c #312A00",
" 8    c #1E2001",
" 9    c #0E1C0A",
" a    c #06221B",
" b    c #022524",
" c    c #001B1B",
" d    c #000D0D",
" e    c #000404",
" f    c #000101",
" g    c #010100",
" h    c #010000",
" i    c #050000",
" j    c #0E0300",
" k    c #210C00",
" l    c #341E00",
" m    c #3C3100",
" n    c #3D3600",
" o    c #353E13",
" p    c #166A84",
" q    c #097BB2",
" r    c #076B99",
" s    c #053B40",
" t    c #022E2A",
" u    c #012A29",
" v    c #001816",
" w    c #000907",
" x    c #000201",
" y    c #030300",
" z    c #060600",
" A    c #070700",
" B    c #040400",
" C    c #020200",
" D    c #030000",
" E    c #0A0000",
" F    c #1C0200",
" G    c #360A00",
" H    c #401600",
" I    c #361F00",
" J    c #2F2D0B",
" K    c #0D80B4",
" L    c #009EF9",
" M    c #029AEF",
" N    c #029EF5",
" O    c #0388CE",
" P    c #023A3F",
" Q    c #012D28",
" R    c #00201B",
" S    c #000F0A",
" T    c #000502",
" U    c #040000",
" V    c #050500",
" W    c #0D0D00",
" X    c #161600",
" Y    c #1B1B00",
" Z    c #181800",
" &    c #0F0F00",
"0     c #060200",
"00    c #100000",
"01    c #2B0200",
"02    c #4A0600",
"03    c #4A0C00",
"04    c #390C00",
"05    c #204047",
"06    c #009CF3",
"07    c #0395E5",
"08    c #039CF3",
"09    c #025675",
"0a    c #012619",
"0b    c #012818",
"0c    c #001909",
"0d    c #010B02",
"0e    c #080000",
"0f    c #0F0000",
"0g    c #140000",
"0h    c #130000",
"0i    c #0D0000",
"0j    c #070000",
"0k    c #0E0E00",
"0l    c #212100",
"0m    c #393900",
"0n    c #454500",
"0o    c #3E3E00",
"0p    c #272700",
"0q    c #131200",
"0r    c #0A0600",
"0s    c #140200",
"0t    c #310300",
"0u    c #4F0500",
"0v    c #4B0600",
"0w    c #3B0100",
"0x    c #1F3E54",
"0y    c #019EF3",
"0z    c #025774",
"0A    c #01270B",
"0B    c #013910",
"0C    c #002E06",
"0D    c #021701",
"0E    c #090800",
"0F    c #160100",
"0G    c #290000",
"0H    c #370000",
"0I    c #350000",
"0J    c #250000",
"0K    c #120000",
"0L    c #1A1A00",
"0M    c #696900",
"0N    c #808000",
"0O    c #727200",
"0P    c #484800",
"0Q    c #222100",
"0R    c #0F0C00",
"0S    c #140600",
"0T    c #2E0800",
"0U    c #440A01",
"0V    c #3D0801",
"0W    c #2F0200",
"0X    c #20151C",
"0Y    c #048CD7",
"0Z    c #029EF2",
"0&    c #0397E8",
"1     c #039CF0",
"10    c #0393E2",
"11    c #023931",
"12    c #013805",
"13    c #015508",
"14    c #014B03",
"15    c #052700",
"16    c #120C00",
"17    c #2D0200",
"18    c #540000",
"19    c #6F0000",
"1a    c #6B0000",
"1b    c #4A0000",
"1c    c #0B0000",
"1d    c #222200",
"1e    c #525200",
"1f    c #8B8B00",
"1g    c #AAAA00",
"1h    c #979700",
"1i    c #606000",
"1j    c #2D2C00",
"1k    c #141200",
"1l    c #170E00",
"1m    c #2C1701",
"1n    c #3A1C01",
"1o    c #2E1403",
"1p    c #210C05",
"1q    c #180203",
"1r    c #0B2845",
"1s    c #037CC1",
"1t    c #038EDB",
"1u    c #0380C4",
"1v    c #023E49",
"1w    c #012600",
"1x    c #014B05",
"1y    c #016D03",
"1z    c #015E02",
"1A    c #073000",
"1B    c #1A0E00",
"1C    c #420300",
"1D    c #790000",
"1E    c #A00101",
"1F    c #9A0000",
"1G    c #360000",
"1H    c #4F4F00",
"1I    c #868600",
"1J    c #A4A400",
"1K    c #919100",
"1L    c #5C5C00",
"1M    c #2C2C00",
"1N    c #161500",
"1O    c #1F1C00",
"1P    c #3B3301",
"1Q    c #483F01",
"1R    c #362E03",
"1S    c #211A07",
"1T    c #140F12",
"1U    c #0A0013",
"1V    c #04021D",
"1W    c #020B22",
"1X    c #010A0C",
"1Y    c #010F00",
"1Z    c #012806",
"1&    c #014A05",
"2     c #006903",
"20    c #015801",
"21    c #082C00",
"22    c #1C0E01",
"23    c #460402",
"24    c #7F0303",
"25    c #A70404",
"26    c #A10303",
"27    c #700101",
"28    c #390000",
"29    c #110000",
"2a    c #171700",
"2b    c #363600",
"2c    c #5D5D00",
"2d    c #717100",
"2e    c #646400",
"2f    c #404100",
"2g    c #202000",
"2h    c #2A2900",
"2i    c #535101",
"2j    c #676601",
"2k    c #4F4B00",
"2l    c #2F2500",
"2m    c #19110B",
"2n    c #0B0C27",
"2o    c #04153E",
"2p    c #023864",
"2q    c #026BA6",
"2r    c #0274AE",
"2s    c #013029",
"2t    c #013406",
"2u    c #014B07",
"2v    c #023D02",
"2w    c #091F01",
"2x    c #1C0C03",
"2y    c #3F0907",
"2z    c #690C0B",
"2A    c #850D0D",
"2B    c #7F0B0A",
"2C    c #5A0606",
"2D    c #2E0303",
"2E    c #0E0101",
"2F    c #0B0B00",
"2G    c #2E2E00",
"2H    c #383800",
"2I    c #323200",
"2J    c #131301",
"2K    c #151401",
"2L    c #302E02",
"2M    c #5D5C02",
"2N    c #777200",
"2O    c #4C6528",
"2P    c #156C8C",
"2Q    c #0B6EA2",
"2R    c #057CC2",
"2S    c #038EDD",
"2T    c #039BEE",
"2U    c #039DF2",
"2V    c #0399EC",
"2W    c #02363F",
"2X    c #022510",
"2Y    c #032D0E",
"2Z    c #082105",
"2&    c #121104",
"3     c #230D08",
"30    c #401413",
"31    c #5F1E1D",
"32    c #6E2221",
"33    c #641C1B",
"34    c #461010",
"35    c #230707",
"36    c #0A0202",
"37    c #090900",
"38    c #101000",
"39    c #141400",
"3a    c #131201",
"3b    c #0F0D02",
"3c    c #100C04",
"3d    c #1A1306",
"3e    c #302A07",
"3f    c #514C06",
"3g    c #645A00",
"3h    c #35664F",
"3i    c #009EFD",
"3j    c #029BF0",
"3k    c #039AEC",
"3l    c #0396E7",
"3m    c #023B48",
"3n    c #03221B",
"3o    c #0C1E14",
"3p    c #1B1108",
"3q    c #2B0B06",
"3r    c #3B1110",
"3s    c #582423",
"3t    c #7A3836",
"3u    c #873F3D",
"3v    c #723332",
"3w    c #491E1E",
"3x    c #220D0D",
"3y    c #090303",
"3z    c #060501",
"3A    c #080602",
"3B    c #0F0906",
"3C    c #1C0F0C",
"3D    c #2D1913",
"3E    c #3C2815",
"3F    c #453811",
"3G    c #433C00",
"3H    c #215751",
"3I    c #009FFD",
"3J    c #039BF2",
"3K    c #0394E2",
"3L    c #023B49",
"3M    c #061F1B",
"3N    c #1D1715",
"3O    c #410A08",
"3P    c #590908",
"3Q    c #611615",
"3R    c #742F2E",
"3S    c #994A48",
"3T    c #AA5452",
"3U    c #8D4443",
"3V    c #542927",
"3W    c #241111",
"3X    c #090404",
"3Y    c #020101",
"3Z    c #090504",
"3&    c #1A0D0C",
"4     c #381C1B",
"40    c #592D2A",
"41    c #65362F",
"42    c #543624",
"43    c #34330B",
"44    c #16432E",
"45    c #056985",
"46    c #046787",
"47    c #038FDA",
"48    c #0396E8",
"49    c #023340",
"4a    c #0C1512",
"4b    c #32100F",
"4c    c #6D0706",
"4d    c #8E0707",
"4e    c #861514",
"4f    c #802E2C",
"4g    c #964745",
"4h    c #A4504F",
"4i    c #864240",
"4j    c #4F2726",
"4k    c #211010",
"4l    c #080404",
"4m    c #030101",
"4n    c #0D0606",
"4o    c #281313",
"4p    c #572B2A",
"4q    c #894341",
"4r    c #984C49",
"4s    c #764037",
"4t    c #3B381B",
"4u    c #143403",
"4v    c #082A00",
"4w    c #042C03",
"4x    c #0387C9",
"4y    c #0398EB",
"4z    c #042735",
"4A    c #100807",
"4B    c #3F0808",
"4C    c #860303",
"4D    c #AB0505",
"4E    c #980E0E",
"4F    c #7A201F",
"4G    c #753130",
"4H    c #753837",
"4I    c #5E2D2C",
"4J    c #371B1A",
"4K    c #170B0B",
"4L    c #060303",
"4M    c #0F0707",
"4N    c #2D1615",
"4O    c #62302F",
"4P    c #9A4B4A",
"4Q    c #AC5452",
"4R    c #83443E",
"4S    c #3E351D",
"4T    c #123208",
"4U    c #052F00",
"4V    c #022F10",
"4W    c #0387CB",
"4X    c #0397E7",
"4Y    c #041E30",
"4Z    c #0F0100",
"4&    c #360304",
"5     c #750101",
"50    c #980202",
"51    c #860707",
"52    c #620F0F",
"53    c #4B1818",
"54    c #401C1B",
"55    c #301616",
"56    c #1B0D0D",
"57    c #0B0606",
"58    c #0C0606",
"59    c #251212",
"5a    c #512827",
"5b    c #7E3E3C",
"5c    c #8C4543",
"5d    c #6B3933",
"5e    c #332B18",
"5f    c #0E2407",
"5g    c #042001",
"5h    c #022113",
"5i    c #0386CC",
"5j    c #0392E2",
"5k    c #031A30",
"5l    c #090000",
"5m    c #210103",
"5n    c #480001",
"5o    c #600101",
"5p    c #570303",
"5q    c #3C0606",
"5r    c #260909",
"5s    c #1A0A09",
"5t    c #120808",
"5u    c #0A0504",
"5v    c #040202",
"5w    c #010001",
"5x    c #070303",
"5y    c #180B0A",
"5z    c #331717",
"5A    c #502423",
"5B    c #582927",
"5C    c #44231E",
"5D    c #211A0F",
"5E    c #0A1406",
"5F    c #031002",
"5G    c #021416",
"5H    c #0385CD",
"5I    c #0399EA",
"5J    c #021A31",
"5K    c #0D0202",
"5L    c #1F0101",
"5M    c #2B0100",
"5N    c #270100",
"5O    c #1A0101",
"5P    c #0E0202",
"5Q    c #080202",
"5R    c #050201",
"5S    c #0F0404",
"5T    c #220A0A",
"5U    c #380F0F",
"5V    c #401211",
"5W    c #34110E",
"5X    c #1A0E0A",
"5Y    c #080C08",
"5Z    c #030A06",
"5&    c #021018",
"6     c #0384CD",
"60    c #021D2F",
"61    c #020100",
"62    c #040601",
"63    c #090500",
"64    c #0D0200",
"65    c #0C0100",
"66    c #110101",
"67    c #290303",
"68    c #480505",
"69    c #590707",
"6a    c #470B0B",
"6b    c #210F0E",
"6c    c #0A1110",
"6d    c #041010",
"6e    c #03181E",
"6f    c #0398EA",
"6g    c #0392E1",
"6h    c #02252C",
"6i    c #020C00",
"6j    c #020F01",
"6k    c #030600",
"6l    c #030200",
"6m    c #170000",
"6n    c #3B0000",
"6o    c #6C0202",
"6p    c #820606",
"6q    c #600F0E",
"6r    c #261817",
"6s    c #091D1D",
"6t    c #04211E",
"6u    c #042627",
"6v    c #0385CB",
"6w    c #0397E9",
"6x    c #0393E0",
"6y    c #043325",
"6z    c #031D00",
"6A    c #021C00",
"6B    c #011600",
"6C    c #010C00",
"6D    c #000400",
"6E    c #000100",
"6F    c #060000",
"6G    c #190000",
"6H    c #430100",
"6I    c #7A0401",
"6J    c #900A06",
"6K    c #621511",
"6L    c #221E1C",
"6M    c #082623",
"6N    c #042B25",
"6O    c #05373B",
"6P    c #0489D0",
"6Q    c #0394E3",
"6R    c #0395E6",
"6S    c #074734",
"6T    c #052A00",
"6U    c #022500",
"6V    c #011C00",
"6W    c #001000",
"6X    c #000600",
"6Y    c #000200",
"6Z    c #0C0000",
"6&    c #2C0000",
"7     c #640800",
"70    c #781406",
"71    c #511D0F",
"72    c #1F1D11",
"73    c #093E4C",
"74    c #0074AE",
"75    c #0077B7",
"76    c #0087D3",
"77    c #038ED9",
"78    c #0391DF",
"79    c #048BCD",
"7a    c #0483BA",
"7b    c #034E55",
"7c    c #021400",
"7d    c #000701",
"7e    c #000603",
"7f    c #010805",
"7g    c #010905",
"7h    c #000704",
"7i    c #000402",
"7j    c #707070",
"7k    c #C0C0C0",
"7l    c #C7C6C6",
"7m    c #C2BEBE",
"7n    c #85706D",
"7o    c #431201",
"7p    c #572603",
"7q    c #462F09",
"7r    c #242003",
"7s    c #053E4F",
"7t    c #2B9FE1",
"7u    c #C2E4F7",
"7v    c #43A1D4",
"7w    c #0081CC",
"7x    c #0397EB",
"7y    c #03A2FF",
"7z    c #035A78",
"7A    c #010900",
"7B    c #010A01",
"7C    c #010903",
"7D    c #011109",
"7E    c #021B0F",
"7F    c #031F11",
"7G    c #02190E",
"7H    c #010F08",
"7I    c #AAAAAA",
"7J    c #CACACA",
"7K    c #4E4E4E",
"7L    c #676664",
"7M    c #EAEBEB",
"7N    c #978C75",
"7O    c #4A3A00",
"7P    c #554F02",
"7Q    c #383200",
"7R    c #05373F",
"7S    c #8CC8EA",
"7T    c #F7FEFF",
"7U    c #B0D6EA",
"7V    c #007CC5",
"7W    c #028EDB",
"7X    c #0295E5",
"7Y    c #0399EB",
"7Z    c #039AED",
"7&    c #03A3FD",
"8     c #035476",
"80    c #010702",
"81    c #011008",
"82    c #032615",
"83    c #053F23",
"84    c #064928",
"85    c #053C20",
"86    c #032313",
"87    c #000302",
"88    c #A8A8A8",
"89    c #A1A1A1",
"8a    c #83827E",
"8b    c #E0E0D0",
"8c    c #595600",
"8d    c #757400",
"8e    c #545200",
"8f    c #313C1D",
"8g    c #DEE6E9",
"8h    c #647277",
"8i    c #E3E6E8",
"8j    c #355362",
"8k    c #0E303C",
"8l    c #153846",
"8m    c #0F3545",
"8n    c #083141",
"8o    c #043041",
"8p    c #02191E",
"8q    c #010300",
"8r    c #010703",
"8s    c #031A0E",
"8t    c #064124",
"8u    c #096C3C",
"8v    c #0A7B44",
"8w    c #086538",
"8x    c #053B21",
"8y    c #010603",
"8z    c #A6A6A6",
"8A    c #AFAFAF",
"8B    c #171717",
"8C    c #282827",
"8D    c #C2C2C1",
"8E    c #9F9F84",
"8F    c #565600",
"8G    c #7F7E00",
"8H    c #5F5F00",
"8I    c #86855A",
"8J    c #DCDADA",
"8K    c #050302",
"8L    c #B9B9BB",
"8M    c #979299",
"8N    c #020013",
"8O    c #110C1E",
"8P    c #0C0713",
"8Q    c #070205",
"8R    c #010301",
"8S    c #032213",
"8T    c #06522D",
"8U    c #0B8549",
"8V    c #0C9753",
"8W    c #010804",
"8X    c #9A9A9A",
"8Y    c #F3F3F3",
"8Z    c #DBDBDB",
"8&    c #EBEBEB",
"9     c #EEEEEC",
"90    c #393920",
"91    c #3D3D02",
"92    c #5F5F07",
"93    c #4E4D01",
"94    c #D2D2C1",
"95    c #7A7A78",
"96    c #48495D",
"97    c #E6E7EE",
"98    c #101950",
"99    c #041244",
"9a    c #061535",
"9b    c #03101F",
"9c    c #01080E",
"9d    c #010405",
"9e    c #010302",
"9f    c #032012",
"9g    c #064A29",
"9h    c #0A7741",
"9i    c #0B864A",
"9j    c #096E3C",
"9k    c #054123",
"9l    c #010704",
"9m    c #212121",
"9n    c #969698",
"9o    c #D3D3D3",
"9p    c #292927",
"9q    c #27271B",
"9r    c #4B4B3D",
"9s    c #FDFDFC",
"9t    c #B0B0AD",
"9u    c #909092",
"9v    c #9B9CAB",
"9w    c #FFFFFF",
"9x    c #576F90",
"9y    c #002952",
"9z    c #023B53",
"9A    c #012E3B",
"9B    c #001A1F",
"9C    c #000A0C",
"9D    c #02160C",
"9E    c #04311B",
"9F    c #064C2A",
"9G    c #06562F",
"9H    c #064627",
"9I    c #042917",
"9J    c #01110A",
"9K    c #A7A7A7",
"9L    c #A5A5A5",
"9M    c #181827",
"9N    c #FDFDFE",
"9O    c #404073",
"9P    c #000046",
"9Q    c #8A8AAA",
"9R    c #DCDCE0",
"9S    c #8B8B95",
"9T    c #919299",
"9U    c #8E8E95",
"9V    c #C0C6CB",
"9W    c #C1D5DA",
"9X    c #00606C",
"9Y    c #00747A",
"9Z    c #005C62",
"9&    c #003436",
"a     c #001415",
"a0    c #000706",
"a1    c #000403",
"a2    c #010A06",
"a3    c #032715",
"a4    c #02130A",
"a5    c #000804",
"a6    c #676773",
"a7    c #F9F9FE",
"a8    c #1C1C7C",
"a9    c #05057F",
"aa    c #E2E2F6",
"ab    c #65658B",
"ac    c #00000D",
"ad    c #000004",
"ae    c #2F515A",
"af    c #2EA2A2",
"ag    c #009495",
"ah    c #007A7B",
"ai    c #004445",
"aj    c #000807",
"ak    c #010B06",
"al    c #010D07",
"am    c #F1F1F1",
"an    c #C6C6C6",
"ao    c #CBCBCC",
"ap    c #EAEAEB",
"aq    c #696991",
"ar    c #000060",
"as    c #5151B0",
"at    c #F7F7FD",
"au    c #15145B",
"av    c #000023",
"aw    c #000411",
"ax    c #000F13",
"ay    c #00292C",
"az    c #D5DEDE",
"aA    c #A1DBDB",
"aB    c #008788",
"aC    c #007071",
"aD    c #003F3F",
"aE    c #001818",
"aF    c #000707",
"aG    c #000301",
"aH    c #272727",
"aI    c #464646",
"aJ    c #49494C",
"aK    c #19192B",
"aL    c #000027",
"aM    c #00004F",
"aN    c #252578",
"aO    c #363679",
"aP    c #000038",
"aQ    c #00001C",
"aR    c #00030C",
"aS    c #000B0D",
"aT    c #001B1D",
"aU    c #255757",
"aV    c #3B7D7D",
"aW    c #006060",
"aX    c #004B4A",
"aY    c #002A2A",
"aZ    c #001010",
"                 0 1 2 3 4 5 6 7 8 9 a b c d e f                ",
"   g g g g g   h i j k l m n o p q r s t u v w x       h h      ",
" g y z A z B C D E F G H I J K L M N O P Q R S T g 0 U i U D 0  ",
" V W X Y Z & A0 0001020304050607070708090a0b0c0d y0e0f0g0h0i0j 0",
"0k0l0m0n0o0p0q0r0s0t0u0v0w0x0y070707080z0A0B0C0D0E0F0G0H0I0J0K i",
"0L0o0M0N0O0P0Q0R0S0T0U0V0W0X0Y0Z0&1 101112131415161718191a1b0J1c",
"1d1e1f1g1h1i1j1k1l1m1n1o1p1q1r1s1t1u1v1w1x1y1z1A1B1C1D1E1F1a1G00",
"0l1H1I1J1K1L1M1N1O1P1Q1R1S1T1U1V1W1X1Y1Z1&2 20212223242526272829",
"2a2b2c2d2e2f2g X2h2i2j2k2l2m2n2o2p2q2r2s2t2u2v2w2x2y2z2A2B2C2D2E",
"2F Y2G2H2I0l2J2K2L2M2N2O2P2Q2R2S2T2U2V2W2X2Y2Z2&3 30313233343536",
" B3738393a3b3c3d3e3f3g3h3i3j3k0&073l103m3n3o3p3q3r3s3t3u3v3w3x3y",
" g C B3z3A3B3C3D3E3F3G3H3I3J3l07073l3K3L3M3N3O3P3Q3R3S3T3U3V3W3X",
"      3Y3Z3&4 404142434445464748073l10494a4b4c4d4e4f4g4h4i4j4k4l",
"      4m4n4o4p4q4r4s4t4u4v4w4x4y073l104z4A4B4C4D4E4F4G4H4I4J4K4L",
"      4m4M4N4O4P4Q4R4S4T4U4V4W4y074X104Y4Z4&5 50515253545556574m",
"      4m58595a5b5c5d5e5f5g5h5i4y074X5j5k5l5m5n5o5p5q5r5s5t5u5v h",
"      5w5x5y5z5A5B5C5D5E5F5G5H5I074X5j5J U5K5L5M5N5O5P5Q5v3Y h  ",
"       h5R5S5T5U5V5W5X5Y5Z5&6 5I074X5j6061626364650e U h        ",
"       h i666768696a6b6c6d6e5H6f073l6g6h6i6j6i6k6l h            ",
"       h0j6m6n6o6p6q6r6s6t6u6v6w073l6x6y6z6A6B6C6D6E            ",
"        6F6G6H6I6J6K6L6M6N6O6P6Q106R6R6S6T6U6V6W6X6Y x x6Y6E    ",
"          6Z6&7 7071727374757677786Q48797a7b7c1Y7d7e7f7g7h7i x  ",
"  7j7k7l7l7m7n7o7p7q7r7s7t7u7v7w1t10077x7y7z7A7B7C7D7E7F7G7H7e x",
"  7I7J7K7K7L7M7N7O7P7Q7R7S7T7U7V7W7X7Y7Z7&8 61808182838485867H87",
"  8889      8a8b8c8d8e8f8g8h8i8j8k8l8m8n8o8p8q8r8s8t8u8v8w8x7G8y",
"  8z8A8B8B8C8D8E8F8G8H8I8J8K8L8M8N8O8P8Q D 08R7g8S8T8U8V8v847F8W",
"  8X8Y8Z8Z8&9 909192939495  969798999a9b9c9d9e7g9f9g9h9i9j9k7E9l",
"  8z8A8B8B9m9n9o9p9q9r9s9t9u9v9w9x9y9z9A9B9C e9l9D9E9F9G9H9I9J7i",
"  9K9L      9M9N9O9P9Q9R9S9T9U9V9W9X9Y9Z9&a a0a1a29D86a39fa4a5 x",
"  889L      a6a7a8a9aaabacadadae9wafagahai caj87879lakala27e x6E",
"  89amananaoapaqarasatauavawaxayazaAaBaCaDaEaF f6E6EaGaG x f6E  ",
"  aHaI7K7KaJaKaLaMaNaOaPaQaRaSaTaUaVaWaXaYaZ e f      6E        "};
