/* XPM */
static char *magick[] = {
/* columns rows colors chars-per-pixel */
"32 32 250 2",
"   c #030311",
".  c #070718",
"X  c #090913",
"o  c #080817",
"O  c #0d0d16",
"+  c #0b0b1a",
"@  c #0e0e1e",
"#  c #11111a",
"$  c #15151d",
"%  c #101023",
"&  c #171725",
"*  c #121226",
"=  c #191b21",
"-  c #1b1b25",
";  c #181c21",
":  c #1c1b23",
">  c #1c1e23",
",  c #1d1e24",
"<  c #1a1d25",
"1  c #1c1c2e",
"2  c #1d1d2a",
"3  c #1d1d33",
"4  c #1f2126",
"5  c #1d2129",
"6  c #212227",
"7  c #23232d",
"8  c #25242b",
"9  c #24272e",
"0  c #27292f",
"q  c #242432",
"w  c #242435",
"e  c #212138",
"r  c #2d2e36",
"t  c #292931",
"y  c #2a2a3b",
"u  c #2a2a3e",
"i  c #2d2d3a",
"p  c #2f3238",
"a  c #303236",
"s  c #33333d",
"d  c #343539",
"f  c #35373e",
"g  c #35383f",
"h  c #343440",
"j  c #353547",
"k  c #33334a",
"l  c #34344a",
"z  c #373a41",
"x  c #393942",
"c  c #383846",
"v  c #3a3c41",
"b  c #3b3f47",
"n  c #3e3d45",
"m  c #373750",
"M  c #3f3f57",
"N  c #3f4146",
"B  c #3e4249",
"V  c #414249",
"C  c #43464a",
"Z  c #45474b",
"A  c #45454f",
"S  c #47494e",
"D  c #484a4e",
"F  c #424254",
"G  c #464653",
"H  c #45455c",
"J  c #474a52",
"K  c #48475d",
"L  c #494b50",
"P  c #4b4b54",
"I  c #4b4d52",
"U  c #4a4d54",
"Y  c #4c4e53",
"T  c #4d4f55",
"R  c #4c4c5e",
"E  c #4e5156",
"W  c #4f5259",
"Q  c #515254",
"!  c #505359",
"~  c #51515e",
"^  c #51545a",
"/  c #53565d",
"(  c #54555e",
")  c #55585e",
"_  c #4c4c62",
"`  c #4d4d65",
"'  c #525263",
"]  c #545467",
"[  c #535368",
"{  c #55556a",
"}  c #57576e",
"|  c #575a61",
" . c #585a62",
".. c #595c63",
"X. c #5a5e65",
"o. c #5d5e63",
"O. c #5d5e67",
"+. c #5a5a66",
"@. c #5b5b6a",
"#. c #5b5b6e",
"$. c #5b5c6a",
"%. c #5e5e6c",
"&. c #5d5d72",
"*. c #5d5d74",
"=. c #5e6169",
"-. c #61616a",
";. c #61646b",
":. c #62656d",
">. c #626277",
",. c #676776",
"<. c #63637b",
"1. c #66667a",
"2. c #67677d",
"3. c #666a72",
"4. c #686a71",
"5. c #696974",
"6. c #686c73",
"7. c #696d75",
"8. c #69697f",
"9. c #6f6f79",
"0. c #6e6e7c",
"q. c #6e727a",
"w. c #6f737c",
"e. c #747575",
"r. c #72727c",
"t. c #73767d",
"y. c #74767e",
"u. c #7b7c7d",
"i. c #7a7a7d",
"p. c #6e6e82",
"a. c #6e6e84",
"s. c #707080",
"d. c #767686",
"f. c #747484",
"g. c #737388",
"h. c #767689",
"j. c #767a82",
"k. c #777b84",
"l. c #777c85",
"z. c #7b7b86",
"x. c #7a7d83",
"c. c #787c84",
"v. c #7d7e87",
"b. c #7a7a8c",
"n. c #7f7f8a",
"m. c #7d7d8f",
"M. c #7b7b90",
"N. c #7d7d91",
"B. c #7d8189",
"V. c #838486",
"C. c #868687",
"Z. c #83838f",
"A. c #81848b",
"S. c #82868d",
"D. c #85868e",
"F. c #858589",
"G. c #808092",
"H. c #828295",
"J. c #858591",
"K. c #858596",
"L. c #878799",
"P. c #838890",
"I. c #858991",
"U. c #878b94",
"Y. c #878c95",
"T. c #8a8a97",
"R. c #8a8e95",
"E. c #8e8f93",
"W. c #89899a",
"Q. c #8a8a9c",
"!. c #8b8f98",
"~. c #8e8e9a",
"^. c #8e8e9e",
"/. c #8f9198",
"(. c #91919e",
"). c #91959d",
"_. c #94949e",
"`. c #94989f",
"'. c #9d9d9e",
"]. c #8f8fa0",
"[. c #9292a2",
"{. c #9696a2",
"}. c #9696a5",
"|. c #9599a2",
" X c #979ba4",
".X c #9999a6",
"XX c #999ea7",
"oX c #9c9ca0",
"OX c #9999a1",
"+X c #9a9aa9",
"@X c #9d9dab",
"#X c #9e9eac",
"$X c #9fa3ab",
"%X c #a1a1a7",
"&X c #a6a6a5",
"*X c #a2a2a1",
"=X c #a0a0a9",
"-X c #a1a1ae",
";X c #a2a6ae",
":X c #a5a5af",
">X c #a9a9a8",
",X c #aeaeaf",
"<X c #a9a9ad",
"1X c #a5a5b1",
"2X c #a4a9b1",
"3X c #a7abb4",
"4X c #a9a9b3",
"5X c #ababb4",
"6X c #aeaeb6",
"7X c #acafb9",
"8X c #acb0b9",
"9X c #afb3bc",
"0X c #b2b2b3",
"qX c #b2b2b4",
"wX c Gray71",
"eX c #b5b5bb",
"rX c #b6b6bd",
"tX c #b2b3ba",
"yX c #babab9",
"uX c #b9b9bf",
"iX c #bdbdbe",
"pX c #b7bbc3",
"aX c #babec6",
"sX c #bdbdc2",
"dX c #bfbfc4",
"fX c #c1c1c2",
"gX c #c2c2c6",
"hX c #c6c6c6",
"jX c #c0c3cc",
"kX c #c6c6c9",
"lX c #c9c9ca",
"zX c #cacacc",
"xX c #cecece",
"cX c #c8cdd5",
"vX c #cfcfd0",
"bX c Gray82",
"nX c #d3d3d4",
"mX c #d4d4d3",
"MX c Gray84",
"NX c #d1d6de",
"BX c #d8d8d7",
"VX c Gray85",
"CX c #dddddd",
"ZX c #d5d9e2",
"AX c #e1e1e1",
"SX c #e6e6e6",
"DX c #e9e9e8",
"FX c #e6eaf2",
"GX c #edf1f8",
"HX c #f1f4fa",
/* pixels */
"GXZXjX7XXXU.c.7.=./ I v Q mXCXVXVXmXmXnXnXbXvXzXzXzXlXhXhXfXfXfX",
"HXNXaX3X|.S.y.3.X.! D C a u.SXCXVXVXVXmXmXnXbXbXzXzXxXzXlXhXhXhX",
"FXcXtX$XR.v.q.:.| E D Z N v fXSXCXVXVXVXmXmXmXnXbXvXzXzXzXlXlXhX",
"NXaX2X).A.t.3.O.^ I D S C f V.SXCXCXVXVXVXVXmXmXmXbXbXzXxXzXlXlX",
"pX2X`.D.j.7.;.) E I L S S B o.VXAXCXCXVXVXVXmXmXmXbXbXbXxXxXxXlX",
"$X).S.j.7.:...! Y Y U U U J ^ fXSXCXCXCXVXVXVXmXmXmXbXbXvXzXxXzX",
"U.B.y.7.:.o.^ E Y E E W W W / 0XDXAXCXCXCXVXVXVXmXmXmXmXvXvXxXxX",
"j.q.4.:...^ E E ! ^ / / / ..| ,XDXAXCXCXCXCXVXVXBXVXmXmXbXvXvXxX",
"7.:.=.| ! E E ^ / )  .X.=.:.=.qXSXCXAXCXCXCXVXVXVXBXBXmXmXnXbXbX",
"=.| ^ E Y Y ! / | =.:.3.7.7.7.iXAXCXCXCXCXCXCXVXVXVXBXBXmXnXbXbX",
"/ W Y I Y ! ) X.:.7.q.j.k.j.x.zXCXVXVXVXVXVXVXVXVXVXVXmXmXmXbXbX",
"^ E E E ^ ) X.:.7.j.B.R.!.I.E.BXVXVXVXVXVXVXVXVXVXVXmXmXBXmXmXnX",
"Y U Y W /  .=.6.j.I.|.;X2XS.oXiXiXfXkXzXbXmXVXVXVXVXBXBXmXmXmXnX",
"L I E ^ ) X.:.w.S. X9XaX;Xt.] #.>.p.b.Q.[.:XeXhXvXmXBXmXBXmXmXmX",
"L U E / | =.3.j.!.;X8X;X/.' K [ &.1.p.h.M.H.Q.[.1XrXkXvXmXBXBXmX",
"S E ^ | X.:.7.w.j.l.P.R.+.R $.,.s.d.m.K.L.Q.^.(.[.@X4XpXzXnXmXmX",
"> 0 p g v b b B U =.4.Y G +.5.f.n.J.T.^.[.[.[.}.}.+X@X1XeXhXvXmX",
"6 = ; < 5 9 r z V N x A / ;.9.v.J.T.(.[.}..X+X+X+X+X@X-X4XrXkXvX",
"e.d = , 4 6 6 6 8 r n P  .4.r.v.I.~._.[..X+X@X@X@X@X@X-X1X5XsXzX",
"'.V   X O # $ : t f V Y O.5.y.n.D.~.(.OX.X.X@X@X@X@X@X-X1X5XrXkX",
"&Xo.+ o # $ - 7 r x A ~ %.5.r.z.Z.T.~.(.[..X.X+X+X+X@X@X:X5XrXkX",
",XC.s . @ & 2 q i c G ~ @.,.0.d.n.J.T.~.(.[.[.}.}..X+X@X:X5XuXkX",
"wX&Xi.h % * 1 w y j F R ] %.1.p.d.b.G.K.Q.Q.^.].[.}..X@X1XtXdXzX",
"wX0X*XC.' y 3 e y l M H _ [ &.1.p.g.h.M.M.H.L.Q.^.[..X-X5XsXkXbX",
"0X0X,X>X'.F.;.F k k m M H ` } *.<.8.a.h.b.M.H.Q.^..X:XtXsXzXbXmX",
"0XwXwXwX0X,X>X'.D.r.&.[ [ [ [ &.>.2.p.h.m.K.^..X:XtXsXkXvXnXmXmX",
"iXyXyXyXyXwXwXyXyXyX0X<X%XOX_.(.(._..X=X:X5XrXfXkXzXnXmXmXBXmXBX",
"hXfXfXfXfXiXiXfXfXfXhXlXzXzXzXzXzXzXzXzXvXbXnXmXmXmXVXBXBXBXBXBX",
"xXzXzXzXlXlXlXhXzXzXzXzXzXvXbXbXmXmXmXmXBXBXBXVXVXmXmXVXVXBXBXBX",
"bXbXvXbXzXvXzXzXzXbXbXbXbXbXmXmXmXmXmXVXmXVXVXVXVXVXVXVXVXBXVXBX",
"BXmXmXmXmXmXmXmXmXmXmXmXmXBXBXBXBXVXVXVXVXVXVXVXVXVXVXVXVXVXVXmX",
"CXVXVXVXVXVXVXVXVXVXVXVXVXVXVXVXVXVXVXVXVXVXVXVXVXVXVXVXVXVXVXBX"
};
