/* XPM */
static char * render_mip_matteshadow_xpm[] = {
"32 32 346 2",
"  	c #FEFEFE",
". 	c #FFFFFF",
"+ 	c #FDFDFD",
"@ 	c #FCFCFC",
"# 	c #F9F9F9",
"$ 	c #FAFAFA",
"% 	c #D9D9D9",
"& 	c #EAEAE8",
"* 	c #F7F7F5",
"= 	c #F8F8F6",
"- 	c #FDFDFC",
"; 	c #FDFDFB",
"> 	c #FCFCFB",
", 	c #BDBFB8",
"' 	c #909484",
") 	c #B4B8A8",
"! 	c #CCD0C2",
"~ 	c #D9DBD5",
"{ 	c #FBFCFD",
"] 	c #FBFDFC",
"^ 	c #FEFEFC",
"/ 	c #FDFEFD",
"( 	c #E2E5DD",
"_ 	c #7C836F",
": 	c #545D42",
"< 	c #515940",
"[ 	c #7A7F6C",
"} 	c #92958C",
"| 	c #F5F7F5",
"1 	c #F4F5F2",
"2 	c #FBFEF9",
"3 	c #FAFDF8",
"4 	c #F9FCF7",
"5 	c #99A18B",
"6 	c #47532F",
"7 	c #3A4521",
"8 	c #485236",
"9 	c #4B513B",
"0 	c #707468",
"a 	c #C7C9C3",
"b 	c #D0D2CB",
"c 	c #FDFEFE",
"d 	c #F8FCF8",
"e 	c #D4D9CC",
"f 	c #ACB49D",
"g 	c #6E7A54",
"h 	c #38471A",
"i 	c #3A481C",
"j 	c #465134",
"k 	c #343B22",
"l 	c #323627",
"m 	c #8C8F85",
"n 	c #B0B3A8",
"o 	c #FBFBFB",
"p 	c #FBFDFD",
"q 	c #E1E6E1",
"r 	c #9DA68E",
"s 	c #515D39",
"t 	c #4B592C",
"u 	c #4C5B2A",
"v 	c #3B4920",
"w 	c #374329",
"x 	c #3F472E",
"y 	c #414633",
"z 	c #717569",
"A 	c #B6B9AD",
"B 	c #DCDDDB",
"C 	c #FDFCFE",
"D 	c #FAFBFD",
"E 	c #EEF3E9",
"F 	c #8E9778",
"G 	c #343E1E",
"H 	c #262F10",
"I 	c #3F4727",
"J 	c #676D56",
"K 	c #2E331E",
"L 	c #202513",
"M 	c #22261A",
"N 	c #40433B",
"O 	c #4A4D45",
"P 	c #B8BAB0",
"Q 	c #E7E7E6",
"R 	c #FDFCFF",
"S 	c #FDFDFE",
"T 	c #FEFEFD",
"U 	c #F9FAF8",
"V 	c #E5EAE1",
"W 	c #778062",
"X 	c #3F4928",
"Y 	c #242D0B",
"Z 	c #41482B",
"` 	c #646858",
" .	c #36392C",
"..	c #393C32",
"+.	c #1F2218",
"@.	c #222519",
"#.	c #2E3124",
"$.	c #53554A",
"%.	c #BCBDBB",
"&.	c #EAEBE3",
"*.	c #DEE1D3",
"=.	c #C1C7B9",
"-.	c #7F886C",
";.	c #4E5837",
">.	c #222B0F",
",.	c #3B402C",
"'.	c #46493F",
").	c #3B3E35",
"!.	c #1E201C",
"~.	c #25291D",
"{.	c #424733",
"].	c #383D29",
"^.	c #55574B",
"/.	c #D5D5D4",
"(.	c #F4F4F4",
"_.	c #F5F6EA",
":.	c #A0A689",
"<.	c #747C64",
"[.	c #848C73",
"}.	c #777F65",
"|.	c #2E3422",
"1.	c #414536",
"2.	c #34382B",
"3.	c #4A4F3A",
"4.	c #4E5246",
"5.	c #5B6147",
"6.	c #555D3C",
"7.	c #42482D",
"8.	c #87887D",
"9.	c #E1E1E0",
"0.	c #FCFCFE",
"a.	c #F5F5F5",
"b.	c #E1E1E1",
"c.	c #D0D0D0",
"d.	c #C4C4C4",
"e.	c #D8D8D8",
"f.	c #DBDBDB",
"g.	c #EFEFEF",
"h.	c #ECEEDF",
"i.	c #9BA27E",
"j.	c #757F5A",
"k.	c #727A61",
"l.	c #4D5342",
"m.	c #7D8173",
"n.	c #6E7265",
"o.	c #626752",
"p.	c #404725",
"q.	c #363B23",
"r.	c #3D451F",
"s.	c #40491D",
"t.	c #474D31",
"u.	c #A5A69C",
"v.	c #C8C8C8",
"w.	c #B6B6B6",
"x.	c #A6A6A6",
"y.	c #A4A4A4",
"z.	c #B5B5B5",
"A.	c #CDCDCD",
"B.	c #DFDFDF",
"C.	c #F0F0F0",
"D.	c #FEFDFF",
"E.	c #FAFBF3",
"F.	c #B3B9A0",
"G.	c #5E6C3D",
"H.	c #5D644F",
"I.	c #505245",
"J.	c #76786D",
"K.	c #929589",
"L.	c #878C75",
"M.	c #3D4521",
"N.	c #20270E",
"O.	c #283109",
"P.	c #3A460E",
"Q.	c #494F34",
"R.	c #B3B4AB",
"S.	c #F6F6F7",
"T.	c #C4C4C1",
"U.	c #A2A2A2",
"V.	c #AAAAAA",
"W.	c #A3A3A3",
"X.	c #A1A1A1",
"Y.	c #949494",
"Z.	c #A7A7A7",
"`.	c #B8B8B8",
" +	c #E3E3E3",
".+	c #FCFDF8",
"++	c #EDF0E2",
"@+	c #BEC6B0",
"#+	c #7F837A",
"$+	c #787A6C",
"%+	c #636753",
"&+	c #6A6F5C",
"*+	c #686D58",
"=+	c #50563E",
"-+	c #3F4D1E",
";+	c #1F2C06",
">+	c #2C3A0E",
",+	c #353F26",
"'+	c #C2C3BB",
")+	c #E2E2E3",
"!+	c #A4A5A2",
"~+	c #B3B3B3",
"{+	c #9D9D9D",
"]+	c #959595",
"^+	c #8F8F8F",
"/+	c #8C8C8C",
"(+	c #BDBDBD",
"_+	c #CECECE",
":+	c #F1F1F1",
"<+	c #F2F2F2",
"[+	c #FEFEFF",
"}+	c #FDFEFC",
"|+	c #FDFDFA",
"1+	c #F6F8F7",
"2+	c #F2F4F2",
"3+	c #ABB19C",
"4+	c #3A421D",
"5+	c #50582F",
"6+	c #6E7554",
"7+	c #3A4125",
"8+	c #435712",
"9+	c #233508",
"0+	c #3D4D25",
"a+	c #374525",
"b+	c #E6E7DE",
"c+	c #FBFBFA",
"d+	c #DFDFE0",
"e+	c #9C9C9A",
"f+	c #ADADAD",
"g+	c #9A9A9A",
"h+	c #919191",
"i+	c #B0B0B0",
"j+	c #D3D3D3",
"k+	c #E5E5E5",
"l+	c #F8F7F9",
"m+	c #C4C7C2",
"n+	c #8D9778",
"o+	c #495524",
"p+	c #3F481B",
"q+	c #373F1B",
"r+	c #28300F",
"s+	c #324007",
"t+	c #2A3515",
"u+	c #2A3519",
"v+	c #343E22",
"w+	c #A4A69D",
"x+	c #FAFAF9",
"y+	c #F0F0F1",
"z+	c #9A9A98",
"A+	c #9F9F9F",
"B+	c #8A8A8A",
"C+	c #999999",
"D+	c #9E9E9E",
"E+	c #878787",
"F+	c #8D8D8D",
"G+	c #979797",
"H+	c #F9F9F4",
"I+	c #D6DACD",
"J+	c #AFB993",
"K+	c #828E60",
"L+	c #4E5633",
"M+	c #2D341C",
"N+	c #242A16",
"O+	c #1C210F",
"P+	c #343630",
"Q+	c #5F6256",
"R+	c #42443E",
"S+	c #83847D",
"T+	c #F8F8F8",
"U+	c #E1E1E2",
"V+	c #A1A19F",
"W+	c #A0A0A0",
"X+	c #8B8B8B",
"Y+	c #929292",
"Z+	c #F6F6F6",
"`+	c #FDFEFA",
" @	c #DDDFD2",
".@	c #666B53",
"+@	c #747E54",
"@@	c #3F4C1E",
"#@	c #2B341B",
"$@	c #2C3424",
"%@	c #6A6D65",
"&@	c #B8B9B4",
"*@	c #7C7D76",
"=@	c #B4B5AF",
"-@	c #EDEDEC",
";@	c #969696",
">@	c #898989",
",@	c #C2C2C2",
"'@	c #9C9C9C",
")@	c #B2B2B2",
"!@	c #E2E2E2",
"~@	c #FEFEF9",
"{@	c #F7F8F2",
"]@	c #DDDED5",
"^@	c #C6CCB4",
"/@	c #5D693D",
"(@	c #37421B",
"_@	c #606850",
":@	c #9FA19A",
"<@	c #F8F9F4",
"[@	c #CACBC6",
"}@	c #CCCCC8",
"|@	c #F7F7F7",
"1@	c #C3C3C3",
"2@	c #AFAFAF",
"3@	c #FEFEFA",
"4@	c #E7E9E2",
"5@	c #919977",
"6@	c #687245",
"7@	c #51583E",
"8@	c #D5D6D1",
"9@	c #FBFBF8",
"0@	c #FBFCF9",
"a@	c #C5C7B8",
"b@	c #898D78",
"c@	c #B5B7A9",
"d@	c #ECECEC",
"e@	c #DADADA",
"f@	c #ABABAB",
"g@	c #8E8E8E",
"h@	c #B9B9B9",
"i@	c #B7B7B7",
"j@	c #FEFFFB",
"k@	c #FCFDF7",
"l@	c #EBEBEC",
"m@	c #D7D7D4",
"n@	c #CFCFCF",
"o@	c #B4B4B4",
"p@	c #909090",
"q@	c #B1B1B1",
"r@	c #D4D4D4",
"s@	c #E7E7E7",
"t@	c #DEDEDE",
"u@	c #D5D5D5",
"v@	c #DCDCDC",
"w@	c #CCCCCC",
"x@	c #A8A8A8",
"y@	c #BFBFBF",
"z@	c #C0C0C0",
"A@	c #F3F3F3",
"B@	c #E4E4E4",
"C@	c #C1C1C1",
"D@	c #D2D2D2",
"E@	c #E8E8E8",
"                                                                ",
"                                                                ",
"            . + @ @                           .                 ",
"            . + # $ + + +                   . .                 ",
"            .   % & * = -                   . .                 ",
"          + ; > , ' ) ! ~ { ] + .                               ",
"        ^ / + ( _ : < [ } | 1 + .                               ",
"      / 2 3 4 5 6 7 8 9 0 a b @                                 ",
"      c d e f g h i j k l m n o +                               ",
"      p q r s t u v w x y z A B o                               ",
"  ^ C D E F G H I J K L M N O P Q R S                           ",
"T   - U V W X Y Z `  ...+.@.#.$.%.R S                           ",
"T   &.*.=.-.;.>.,.'.).!.~.{.].^./.R + $ o (.+ + + + + +         ",
"^   _.:.<.[.}.|.1.2.3.4.5.6.7.8.9.0.a.b.c.d.e.f.g.$ + +         ",
"T   h.i.j.k.l.m.n.o.p.q.r.s.t.u.* C e.v.w.x.y.z.A.B.C.          ",
"D.T E.F.G.H.I.J.K.L.M.N.O.P.Q.R.$ S.T.U.V.W.X.Y.Z.`. +$ +       ",
"D.T .+++@+#+$+%+&+*+=+-+;+>+,+'+o )+!+~+{+]+^+/+X.(+_+:+<+      ",
"D.[+}+|+1+2+3+4+5+6+7+8+9+0+a+b+c+d+e+z.f+^+g+h+/+Y.i+w.j+k++ + ",
"[+[+[+[+l+m+n+o+p+q+r+s+t+u+v+w+x+y+z+A+U.B+C+D+C+E+F+G+Z.b.o + ",
"[+[+D.+ H+I+J+K+L+M+N+O+P+Q+R+S+T+U+V+]+W+/+X+/+h+^+Y+]+x.(+Z++ ",
"        `+ @.@+@@@#@$@%@&@*@=@-@+ % X.;@C+G+B+X+>@/+~+,@'@)@!@$ ",
"      T ~@{@]@^@/@(@_@:@<@[@}@+ + |@1@W+'@'@B+;@X+X+h+`.2@'@Z.<+",
"      T 3@T S 4@5@6@7@8@9@0@9@@ + $ A.y.^+^+'@;@>@B+X+;@f+U.)@% ",
"        T     9@a@b@c@c++ $ |@d@e@j+W+f@>@X+/+g@B+X+B+/+D+h@1@i@",
"          ^ j@k@9@l@m@c+n@w.o@X.Y.D+V.h+p@B+/+p@X+Y.Y.h+p@p@q@v.",
"                  + r@x+s@t@!@u@w.d.v@w@w.x@Y.Y.F+G+W.G+{+i+y@z@",
"                  + !@C.A@T+$ $ @ a.n@B@z@x@'@V.i+_+A.t@d.C@D@E@",
"                  + +           + @ o :+<+s@# o @ + @ + @ o o + ",
"                                        + +                     ",
"                                      +                         ",
"                      + +         + + + +           + +         ",
"                      + +         + + + +           + +         "};
