/* XPM */
static char * render_mip_motionblur_xpm[] = {
"32 32 255 2",
"  	c #010400",
". 	c #061604",
"+ 	c #0F2A11",
"@ 	c #003004",
"# 	c #272629",
"$ 	c #282533",
"% 	c #26272F",
"& 	c #212D1D",
"* 	c #46222C",
"= 	c #2A2B33",
"- 	c #2E2751",
"; 	c #2E2D30",
"> 	c #342C29",
", 	c #292E3A",
"' 	c #2D2E36",
") 	c #342B47",
"! 	c #372D3D",
"~ 	c #4C2839",
"{ 	c #2E333F",
"] 	c #31333B",
"^ 	c #353437",
"/ 	c #024E03",
"( 	c #393942",
"_ 	c #363A46",
": 	c #45373E",
"< 	c #3C3A3D",
"[ 	c #503744",
"} 	c #453A48",
"| 	c #444034",
"1 	c #404049",
"2 	c #2C492B",
"3 	c #424044",
"4 	c #443C71",
"5 	c #46405E",
"6 	c #603C3E",
"7 	c #4C4449",
"8 	c #484749",
"9 	c #52444B",
"0 	c #474952",
"a 	c #5A4356",
"b 	c #524652",
"c 	c #4E4853",
"d 	c #544A50",
"e 	c #4F4D50",
"f 	c #514D4B",
"g 	c #0B6814",
"h 	c #565150",
"i 	c #51535D",
"j 	c #545356",
"k 	c #57525C",
"l 	c #5A5257",
"m 	c #5C5252",
"n 	c #535552",
"o 	c #3A6033",
"p 	c #2C652D",
"q 	c #5D5261",
"r 	c #5A5554",
"s 	c #5C554F",
"t 	c #635259",
"u 	c #57584E",
"v 	c #675266",
"w 	c #495F40",
"x 	c #60575D",
"y 	c #595A58",
"z 	c #5B595D",
"A 	c #5D5958",
"B 	c #5B5964",
"C 	c #635859",
"D 	c #5D5592",
"E 	c #615780",
"F 	c #795556",
"G 	c #5E605D",
"H 	c #615F63",
"I 	c #645F5E",
"J 	c #645E69",
"K 	c #675E64",
"L 	c #705C63",
"M 	c #68615B",
"N 	c #61626B",
"O 	c #6E5E72",
"P 	c #6A6070",
"Q 	c #606371",
"R 	c #785C70",
"S 	c #64655A",
"T 	c #6D6262",
"U 	c #696564",
"V 	c #6A646F",
"W 	c #6D6469",
"X 	c #676669",
"Y 	c #716B76",
"Z 	c #726C6B",
"` 	c #746B70",
" .	c #756C66",
"..	c #6E6D71",
"+.	c #6D6D76",
"@.	c #6C6D7C",
"#.	c #7C6A6C",
"$.	c #86677C",
"%.	c #6D7352",
"&.	c #7D6B73",
"*.	c #7E6B79",
"=.	c #70716C",
"-.	c #717261",
";.	c #786D7F",
">.	c #34893A",
",.	c #8C6C6E",
"'.	c #7A6E90",
").	c #836F6F",
"!.	c #7A7177",
"~.	c #7D707D",
"{.	c #78727D",
"].	c #797372",
"^.	c #757477",
"/.	c #747385",
"(.	c #906C7A",
"_.	c #7D736D",
":.	c #74747E",
"<.	c #7970B3",
"[.	c #86746A",
"}.	c #777F56",
"|.	c #867874",
"1.	c #7A7B84",
"2.	c #7C7B7F",
"3.	c #817B74",
"4.	c #7F7B7A",
"5.	c #927580",
"6.	c #8475AA",
"7.	c #807A85",
"8.	c #7B7B8A",
"9.	c #837A7F",
"0.	c #857A7A",
"a.	c #7B7B90",
"b.	c #867986",
"c.	c #887991",
"d.	c #86799C",
"e.	c #917A7C",
"f.	c #79836C",
"g.	c #96788A",
"h.	c #838170",
"i.	c #877D90",
"j.	c #79847A",
"k.	c #907C8A",
"l.	c #8E807B",
"m.	c #8C7F8B",
"n.	c #85818C",
"o.	c #89827B",
"p.	c #878281",
"q.	c #8C8181",
"r.	c #8A8187",
"s.	c #848386",
"t.	c #838293",
"u.	c #908376",
"v.	c #968385",
"w.	c #9A8380",
"x.	c #8F868C",
"y.	c #8F8598",
"z.	c #9B8297",
"A.	c #8D8886",
"B.	c #8B888C",
"C.	c #A87F94",
"D.	c #888A87",
"E.	c #958782",
"F.	c #938692",
"G.	c #868B8D",
"H.	c #8A8B83",
"I.	c #9D867D",
"J.	c #A1838F",
"K.	c #918983",
"L.	c #8F8893",
"M.	c #948888",
"N.	c #8A8A94",
"O.	c #719571",
"P.	c #838F78",
"Q.	c #8C8999",
"R.	c #9485AD",
"S.	c #659B66",
"T.	c #8E8D7B",
"U.	c #908B8A",
"V.	c #9585BA",
"W.	c #888C9B",
"X.	c #948A90",
"Y.	c #8B9167",
"Z.	c #918F75",
"`.	c #9C8B81",
" +	c #4DA856",
".+	c #988E82",
"++	c #998C9A",
"@+	c #918E9F",
"#+	c #978F88",
"$+	c #978E94",
"%+	c #8F909A",
"&+	c #9A8E8E",
"*+	c #9D8D95",
"=+	c #95908F",
"-+	c #958F9A",
";+	c #61A465",
">+	c #958ACE",
",+	c #919573",
"'+	c #919390",
")+	c #A29187",
"!+	c #A8919A",
"~+	c #A3939B",
"{+	c #9C95A1",
"]+	c #969895",
"^+	c #9F959B",
"/+	c #9797A1",
"(+	c #9996A6",
"_+	c #9E9790",
":+	c #9C9796",
"<+	c #9498A7",
"[+	c #9A9B85",
"}+	c #B490A9",
"|+	c #A69792",
"1+	c #A8978D",
"2+	c #9C9A9E",
"3+	c #A395BB",
"4+	c #A394CB",
"5+	c #A69999",
"6+	c #A698A6",
"7+	c #A19C9B",
"8+	c #9F9CAD",
"9+	c #A39CA7",
"0+	c #9D9EA7",
"a+	c #A99BA2",
"b+	c #9B9FAE",
"c+	c #B1A096",
"d+	c #B1A0A8",
"e+	c #B4A1A3",
"f+	c #AAA3AE",
"g+	c #A4A5AD",
"h+	c #A2A6B5",
"i+	c #B1A4A5",
"j+	c #AEA69F",
"k+	c #AFA0D9",
"l+	c #B2A4B1",
"m+	c #B6A5AD",
"n+	c #ADAAA8",
"o+	c #B1AAB5",
"p+	c #ACAEB5",
"q+	c #BBAAB2",
"r+	c #B9AAB8",
"s+	c #C8A7C0",
"t+	c #ABB0C0",
"u+	c #B6B4A2",
"v+	c #BAB2BC",
"w+	c #AEB7BE",
"x+	c #B7B7BE",
"y+	c #BAB8B6",
"z+	c #BBBAB1",
"A+	c #C4C5C2",
"B+	c #C7C6BD",
"C+	c #C4C6CD",
"D+	c #CCC9B8",
"E+	c #D6D3C2",
"F+	c #D0D4D8",
"~+^+$+-+^+a+a+a+++F.m.L.{+L.7.9.x.^+7+5+a+q+v+r+q+r+r+r+r+r+r+q+",
"~+$+$+-+-+9+f+{+++b.m.-+7.V Y 9.X.X.7+5+i+p+x+v+v+r+r+r+r+r+r+q+",
"~+$+$+-+-+9+f+-+-+n.L.7.J J Y 9.9.^+=+:+y+C+F+C+v+o+r+o+l+l+m+m+",
"~+X.X.L.-+9+9+f+9+L.-+V J {.n.X.r.$+7+=+:+p+x+x+x+p+p+o+o+l+m+m+",
"*+X.X.L.@+(+(+f+f+{+7.{.{.L.-+x.r.` U T 4.2+p+w+t+x+p+o+o+l+d+d+",
"++F.X.X.%+/+0+g+g+{+7.4.L.c.m.Z.h.=.s C Z B.2+w+w+t+t+o+f+l+d+d+",
"F.F.X.X.%+/+0+g+0+%+n.n.b.X.T.,+[+ .7 3 z :.%+g+h+h+t+o+f+l+d+d+",
"F.m.x.X.%+%+0+b+g+%+t.i.m._+Y.,+.+].W 1.+.@.W.8+h+g+g+f+f+l+d+d+",
"b.b.r.r.N.%+0+<+h+h+(+i.L.3.}.-.7+a+~+/+0+b+b+0+0+0+g+8+f+l+d+d+",
"~.~.7.9.n.N.%+<+h+t+@+@.:.G S B.L.F.v.x.L.L.0+y+p+$+{+8+9+6+a+a+",
"` ` !.!.{.{.n.L.(+b+8.B +.X m.{.,.v.n.y.r.!.{.j+E+y+9.L.-+2+^+9+",
"` ` ` !.{.Y {.7.t.<+8.i N !.*.~ F C.m.r.x.x.#. .[+E+y+B.@+-+{+{+",
"` ` ` ` Y V V V @.8.@.i k d &.: | (.s.x.m.x.].r S u+E+'+L.@+-+-+",
"W W ` ` Y B B B k N N 1 c } o.o O.X.G.F.R.c.q.H n 3.z+y+N.Q.L.-+",
"K K W ` {.k k c c 1 1 ( ! ! & g  +x.s.c.V.6.~...B N s.p+%+Q.N.N.",
"x x W W ` x 7 7 _ ] ' $ $ % & + o H.i.5 >+k+d.:.Q Q @./+%+N.N.N.",
"l l l x H H e ; ' = ' $ $ ; X S h.[.,.5 D 6.d.2.:.+.+.n.%+N.W.N.",
"h h f h j H e < = ' = $ % ; # G.=+`.[.! - E 3+^.2.1.1.n.N.W.W.N.",
"r h f f e j e e 8 ' , ] % = % = B &+Z.b ! 5 ++p.4.s.s.N.W.Q.W.N.",
"r A h f j j e I I e _ ] ^ % % ! g.J.u.#.h d r.U.A.s.G.N.t.a.W.W.",
"r A A h e z e i Z 4...y X 2.9.O O &.|+o.M h 2.A.U.A.A.B.B./.a.t.",
"n y y G e e i i A p.:+'+D.B.r.P k B.p.=.y r ..p.A.U.A.D.B.@./.a.",
"f r A U =.h 8 j U Z 4.].s.B.N.@.N z 8 8 8 8 H =.4.A.=+U.p.{./.a.",
"s s M  .3.4.U r I Z Z z e ] ] 0 ( ] ' ' ' < e G Z p.A.#+A.9./.8.",
"s M M  ._.A.A.Z A 8 f 8 ( = ] ( ] 1 _ ! = ^ 8 y U ].q..+#+r./.t.",
"T T T #._.o.o.].Z Z A e ( ' = ^ z H 8 ( ] ' ( e I 3.K.)+)+M.9.8.",
" ._._.|.3.o.o.3.U f f e 3 ^ j U.p.Z r 0 ( ] ] e U 3.K.)+)+E.9.8.",
"_.3.l.l.o.o.o.o.o.T  .U Z =+7+7+U.4.I j 8 ( 3 z Z 3.#+)+1+E.4.7.",
"o.o.l.E.K.K.K.K.K.E.E.U.=+:+7+7+:+p.Z z e 8 j H ].3.#+)+1+|+9.7.",
".+.+`.E.#+#+#+K.U.A.A.A.A.=+:+7+7+=+].X H H X ..Z 3.K.)+c+|+q.r.",
".+.+.+|+)+|+_+#+U.U.U.=+'+'+]+7+7+=+4.^...^.^.2.Z 3.K.|+c+|+M.B.",
".+.+.+.+)+)+_+_+_+:+=+=+'+]+]+:+:+=+p.2.2.s.s.2.].p.=+c+c+|+U.=+"};
