/* XPM */
static char *render_BA_wireframe_xpm[]={
"32 32 491 2",
"      c #B5B5B5",
" 0    c #BCB7BC",
" 1    c #ABB2AB",
" 2    c #2B8D2B",
" 3    c #007D00",
" 4    c #319031",
" 5    c #BFB7BF",
" 6    c #70A270",
" 7    c #007F00",
" 8    c #8FAA8F",
" 9    c #BDB7BD",
" a    c #C0B8C0",
" b    c #6AA06A",
" c    c #058305",
" d    c #198819",
" e    c #298D29",
" f    c #BAB7BA",
" g    c #BBB7BB",
" h    c #96AD96",
" i    c #288B28",
" j    c #088108",
" k    c #76A376",
" l    c #BEB8BE",
" m    c #BAB6BA",
" n    c #ACB2AC",
" o    c #1E891E",
" p    c #218A21",
" q    c #3C923C",
" r    c #188818",
" s    c #B2B4B2",
" t    c #B7B6B7",
" u    c #B6B5B6",
" v    c #B9B6B9",
" w    c #258C25",
" x    c #248C24",
" y    c #C4B9C4",
" z    c #8DAA8D",
" A    c #6CA06C",
" B    c #77A477",
" C    c #068406",
" D    c #A9B1A9",
" E    c #B6B6B6",
" F    c #4E974E",
" G    c #007E00",
" H    c #3B923B",
" I    c #A6B1A6",
" J    c #BFB8BF",
" K    c #1D891D",
" L    c #89A989",
" M    c #038303",
" N    c #A7B1A7",
" O    c #B8B6B8",
" P    c #90AB90",
" Q    c #028102",
" R    c #4E984E",
" S    c #0C850C",
" T    c #439443",
" U    c #88A888",
" V    c #A8B1A8",
" W    c #84A784",
" X    c #138513",
" Y    c #0C830C",
" Z    c #83A783",
" &    c #C5B9C5",
"0     c #AAB2AA",
"00    c #CBBBCB",
"01    c #5A9C5A",
"02    c #007B00",
"03    c #C1B8C1",
"04    c #469546",
"05    c #ACB3AC",
"06    c #87A887",
"07    c #038103",
"08    c #97AC97",
"09    c #78A378",
"0a    c #1B891B",
"0b    c #268C26",
"0c    c #AEB3AE",
"0d    c #8AA98A",
"0e    c #2C8E2C",
"0f    c #008000",
"0g    c #95AC95",
"0h    c #1E881E",
"0i    c #208A20",
"0j    c #A6B0A6",
"0k    c #81A681",
"0l    c #0A830A",
"0m    c #238B23",
"0n    c #86A886",
"0o    c #86A786",
"0p    c #2A8C2A",
"0q    c #2E8F2E",
"0r    c #188918",
"0s    c #078307",
"0t    c #C7BAC7",
"0u    c #679F67",
"0v    c #068106",
"0w    c #138613",
"0x    c #098509",
"0y    c #94AC94",
"0z    c #088308",
"0A    c #9EAF9E",
"0B    c #068206",
"0C    c #3E943E",
"0D    c #078407",
"0E    c #1F8A1F",
"0F    c #499649",
"0G    c #7AA47A",
"0H    c #99AD99",
"0I    c #B4B4B4",
"0J    c #72A272",
"0K    c #A3B0A3",
"0L    c #2C8D2C",
"0M    c #569956",
"0N    c #ADB3AD",
"0O    c #CABBCA",
"0P    c #6DA16D",
"0Q    c #B3B5B3",
"0R    c #3A923A",
"0S    c #0D860D",
"0T    c #589B58",
"0U    c #308F30",
"0V    c #C2B8C2",
"0W    c #5C9C5C",
"0X    c #A1AFA1",
"0Y    c #7BA47B",
"0Z    c #048204",
"0&    c #008100",
"1     c #158715",
"10    c #479647",
"11    c #148814",
"12    c #1A891A",
"13    c #0A840A",
"14    c #91AB91",
"15    c #529952",
"16    c #1F8B1F",
"17    c #96AC96",
"18    c #0F850F",
"19    c #90AA90",
"1a    c #5B9C5B",
"1b    c #599B59",
"1c    c #349034",
"1d    c #C2B9C2",
"1e    c #B4B5B4",
"1f    c #3C933C",
"1g    c #288E28",
"1h    c #118611",
"1i    c #228B22",
"1j    c #75A275",
"1k    c #A5B1A5",
"1l    c #4F974F",
"1m    c #078207",
"1n    c #2B8E2B",
"1o    c #038203",
"1p    c #B0B4B0",
"1q    c #BEB7BE",
"1r    c #218C21",
"1s    c #4D984D",
"1t    c #8CA98C",
"1u    c #409340",
"1v    c #349134",
"1w    c #168816",
"1x    c #419441",
"1y    c #018101",
"1z    c #018201",
"1A    c #2F8E2F",
"1B    c #6FA16F",
"1C    c #C9BAC9",
"1D    c #6EA16E",
"1E    c #0B830B",
"1F    c #8CAA8C",
"1G    c #8BA98B",
"1H    c #0E840E",
"1I    c #1C881C",
"1J    c #0B850B",
"1K    c #78A478",
"1L    c #449544",
"1M    c #C8BBC8",
"1N    c #0E860E",
"1O    c #359135",
"1P    c #649E64",
"1Q    c #389138",
"1R    c #9FAF9F",
"1S    c #2D8D2D",
"1T    c #028002",
"1U    c #AFB3AF",
"1V    c #3E933E",
"1W    c #639D63",
"1X    c #88A988",
"1Y    c #98AD98",
"1Z    c #70A170",
"1&    c #2A8D2A",
"2     c #AAB1AA",
"20    c #82A782",
"21    c #C3B9C3",
"22    c #589A58",
"23    c #2E8E2E",
"24    c #068306",
"25    c #088208",
"26    c #B7B5B7",
"27    c #A5B0A5",
"28    c #C8BAC8",
"29    c #539953",
"2a    c #0C820C",
"2b    c #1D881D",
"2c    c #C6BAC6",
"2d    c #499749",
"2e    c #B8B5B8",
"2f    c #4F984F",
"2g    c #298C29",
"2h    c #4C964C",
"2i    c #3F933F",
"2j    c #579A57",
"2k    c #9CAE9C",
"2l    c #3D933D",
"2m    c #288D28",
"2n    c #4B964B",
"2o    c #288C28",
"2p    c #328F32",
"2q    c #89A889",
"2r    c #058405",
"2s    c #318F31",
"2t    c #629E62",
"2u    c #088408",
"2v    c #0A850A",
"2w    c #5A9B5A",
"2x    c #228C22",
"2y    c #C1B9C1",
"2z    c #74A374",
"2A    c #098409",
"2B    c #549954",
"2C    c #85A885",
"2D    c #C5BAC5",
"2E    c #2A8E2A",
"2F    c #1F891F",
"2G    c #1E8A1E",
"2H    c #148714",
"2I    c #248A24",
"2J    c #2E8D2E",
"2K    c #C3B7C3",
"2L    c #B7B3B7",
"2M    c #82A382",
"2N    c #298A29",
"2O    c #2B8C2B",
"2P    c #2F8F2F",
"2Q    c #BAB5BA",
"2R    c #BFB6BF",
"2S    c #208B20",
"2T    c #559955",
"2U    c #168716",
"2V    c #619D61",
"2W    c #709E70",
"2X    c #007A00",
"2Y    c #90A290",
"2Z    c #AFAAAF",
"2&    c #B1ABB1",
"3     c #B0ACB0",
"30    c #7F9F7F",
"31    c #298929",
"32    c #048004",
"33    c #017F01",
"34    c #238A23",
"35    c #B6B3B6",
"36    c #B8B1B8",
"37    c #ADAEAD",
"38    c #6A9D6A",
"39    c #429442",
"3a    c #058105",
"3b    c #75A375",
"3c    c #5F9D5F",
"3d    c #A5AAA5",
"3e    c #037503",
"3f    c #498449",
"3g    c #A49DA4",
"3h    c #999A99",
"3i    c #9C9C9C",
"3j    c #A9A2A9",
"3k    c #268726",
"3l    c #088008",
"3m    c #098009",
"3n    c #448E44",
"3o    c #A5A5A5",
"3p    c #A3A1A3",
"3q    c #ACA6AC",
"3r    c #7E9F7E",
"3s    c #078007",
"3t    c #248B24",
"3u    c #048304",
"3v    c #80A680",
"3w    c #A3A2A3",
"3x    c #A3BEA3",
"3y    c #CADECA",
"3z    c #EDEAED",
"3A    c #E7E8E7",
"3B    c #E8E6E8",
"3C    c #CDC8CD",
"3D    c #398339",
"3E    c #097909",
"3F    c #8DA48D",
"3G    c #8BA38B",
"3H    c #017201",
"3I    c #408E40",
"3J    c #EDE9ED",
"3K    c #719271",
"3L    c #077E07",
"3M    c #AEB1AE",
"3N    c #A1B0A1",
"3O    c #9A9A9A",
"3P    c #E9E0E9",
"3Q    c #BCDABC",
"3R    c #829E82",
"3S    c #B6AFB6",
"3T    c #ACB5AC",
"3U    c #E5F1E5",
"3V    c #76B276",
"3W    c #759275",
"3X    c #B3ACB3",
"3Y    c #B1AAB1",
"3Z    c #7A8F7A",
"3&    c #9CC19C",
"4     c #E4F4E4",
"40    c #E4E0E4",
"41    c #6E8C6E",
"42    c #0C7C0C",
"43    c #7EA27E",
"44    c #9DAE9D",
"45    c #979797",
"46    c #E3DDE3",
"47    c #8FC08F",
"48    c #1C5F1C",
"49    c #7D7F7D",
"4a    c #055605",
"4b    c #76AE76",
"4c    c #FAF0FA",
"4d    c #A09BA0",
"4e    c #A6A5A6",
"4f    c #A29EA2",
"4g    c #FAF3FA",
"4h    c #7FA57F",
"4i    c #EAEFEA",
"4j    c #629362",
"4k    c #047104",
"4l    c #047B04",
"4m    c #439343",
"4n    c #689F68",
"4o    c #969696",
"4p    c #E0DBE0",
"4q    c #A9CBA9",
"4r    c #1D6B1D",
"4s    c #2F732F",
"4t    c #307830",
"4u    c #D3DED3",
"4v    c #D0CCD0",
"4w    c #999699",
"4x    c #959C95",
"4y    c #8B938B",
"4z    c #B5B9B5",
"4A    c #E4EAE4",
"4B    c #567056",
"4C    c #BFD3BF",
"4D    c #87BC87",
"4E    c #006400",
"4F    c #308630",
"4G    c #BFB5BF",
"4H    c #569A56",
"4I    c #979697",
"4J    c #D7D5D7",
"4K    c #F3F7F3",
"4L    c #D8E6D8",
"4M    c #D6E6D6",
"4N    c #EEF4EE",
"4O    c #E9F2E9",
"4P    c #3C7F3C",
"4Q    c #1A701A",
"4R    c #067006",
"4S    c #056805",
"4T    c #C2DBC2",
"4U    c #7FA97F",
"4V    c #004400",
"4W    c #5C8F5C",
"4X    c #E8F1E8",
"4Y    c #1A761A",
"4Z    c #057405",
"4&    c #038003",
"5     c #208920",
"50    c #989798",
"51    c #D8D9D8",
"52    c #A4CBA4",
"53    c #1B6B1B",
"54    c #126E12",
"55    c #207220",
"56    c #AEC5AE",
"57    c #CFE2CF",
"58    c #477D47",
"59    c #547E54",
"5a    c #7A957A",
"5b    c #FAFCFA",
"5c    c #CED3CE",
"5d    c #BBC1BB",
"5e    c #CCCDCC",
"5f    c #FFFFFF",
"5g    c #B3B6B3",
"5h    c #5C875C",
"5i    c #147F14",
"5j    c #419341",
"5k    c #CCBBCC",
"5l    c #3B913B",
"5m    c #297629",
"5n    c #9DC99D",
"5o    c #C9D2C9",
"5p    c #6F7C6F",
"5q    c #4B774B",
"5r    c #005B00",
"5s    c #2E792E",
"5t    c #B9ADB9",
"5u    c #8E888E",
"5v    c #CEC9CE",
"5w    c #EFEFEF",
"5x    c #CAC9CA",
"5y    c #D4D0D4",
"5z    c #ABC0AB",
"5A    c #B8D6B8",
"5B    c #EBE6EB",
"5C    c #A19AA1",
"5D    c #A6A6A6",
"5E    c #6C9C6C",
"5F    c #168616",
"5G    c #4C974C",
"5H    c #118711",
"5I    c #137113",
"5J    c #C1D4C1",
"5K    c #DED8DE",
"5L    c #878487",
"5M    c #918C91",
"5N    c #657E65",
"5O    c #6FA66F",
"5P    c #EBF7EB",
"5Q    c #6F8F6F",
"5R    c #969296",
"5S    c #F2F2F2",
"5T    c #BDBDBD",
"5U    c #878787",
"5V    c #989198",
"5W    c #357135",
"5X    c #2C842C",
"5Y    c #AEAEAE",
"5Z    c #A6A3A6",
"5&    c #C2B4C2",
"6     c #BBB6BB",
"60    c #519951",
"61    c #B1B4B1",
"62    c #9A9C9A",
"63    c #DEDBDE",
"64    c #F8F8F8",
"65    c #E4E4E4",
"66    c #E5E5E5",
"67    c #FEF8FE",
"68    c #91B391",
"69    c #005F00",
"6a    c #72A472",
"6b    c #A8A5A8",
"6c    c #9D9E9D",
"6d    c #AAA5AA",
"6e    c #2D802D",
"6f    c #267926",
"6g    c #F8F0F8",
"6h    c #E7DFE7",
"6i    c #9FA09F",
"6j    c #7B9F7B",
"6k    c #338F33",
"6l    c #509850",
"6m    c #0E850E",
"6n    c #A9A8A9",
"6o    c #AFAFAF",
"6p    c #B7B7B7",
"6q    c #B9B9B9",
"6r    c #A7A7A7",
"6s    c #9E9B9E",
"6t    c #678F67",
"6u    c #288828",
"6v    c #4A964A",
"6w    c #869C86",
"6x    c #B1ACB1",
"6y    c #A9ACA9",
"6z    c #107F10",
"6A    c #508D50",
"6B    c #AAAFAA",
"6C    c #6AA36A",
"6D    c #1A801A",
"6E    c #258A25",
"6F    c #048104",
"         0 1 2 3 4 0       5 6 7 8 9 a b c d e f g h i j k l m  ",
"       0 n o p q r s t     u v w x y z 3 A B C D t 0 E F G H I J",
"     0 n K K u L M N O       9 P Q R S T y U C V O   O J W X Y Z",
"   0 n K K n & Z C0  O        000102 e g03 Z C V O       a O04 7",
" J05 K K n 0 0060708 g     m l090a 70b0c y Z C D O   u l f0d0e0f",
"0g0h0i n 0   O0j c0k 9 u a I H0f0b M0l0m m0n c0j v l g0o0p G0q0r",
"0s p050t l g m V C0n & m0u0v0w z 80x0y0z T0A0B 8 y0o0p G0p0o y0C",
" c0D0E0F0G0H t0I0x0J0K0L 70M0N0O0P C0Q0y0B0R0S0T0U G0p0o g l0V0W",
"0X0Y0F0a0Z0&1 10111213 p1403 v031516 v0317180& 7 219 J l u  031a",
" m l a t I L1b0& 7 71c g1d1e   l1f1g 003 h1h 70f1i1j1k 9 a v031b",
"       u1d O1l1m1n1o07041p1q1e g1r1s001t1m1u1v1w1x1y1z1A1B0K1C1D",
"     t03 z X1E1F1G0z0P1H1I0g y0c1J1D1K G1L1M0u1N v I1B1A1z1z1O01",
"   g g1P G1Q I y1R0Z z0c1S1T0J1U1N1V0&1W g a1X Q1Y J a 90K1Z1&0s",
" a1k1S G1P 0 g t2  C2021 v220f2324251Z2126 O271o B1q     v28 929",
"1K2a2b14 a26   O V C Z 9 u2c200f 72d2e a g u E0r2f03   v a P2g0&",
"0f2h O J       O V C Z 0 0052i 71J241E2j2k1q282l2m l030 2n 72o 8",
"0&2p2q f l u   O N2r W & n0i r 40e0K221E0&2s 82t1N1p0J1E1E1Z v 9",
"2u x 71&0n g l O0N2v b O K K t2w2x2y a0c2z2g0f1h2A e0B2B05 a u  ",
"0f2C 80p G1&0n g2D2E1c p2F052815 x g   O J 00g2G0f 32H0n u03 v  ",
"2I2J2K2L2M2N 32O1t2P 32J D2Q2R1l2S f     v 02T13130q1O 72U2V0K l",
"2W2X2Y2Z2&3 303132333435363736380B D t f t393a3b r3c0t081L0B1y1f",
"3d3e3f3g3h3i3j2&3k3l3m3n3o3p3q3r3s0j1d 13t0B0y  3u3v1q g a V A0E",
"3w3x3y3z3A3B3C3D3E3F3G3H3I3J l3K3L3M3N K2b0A1d27 c20 9     v J 0",
"3O3P3Q3R3S3T3U3V3W3X3Y3Z3&4 40414243253t 1 l 0060708 g     u a44",
"45464748494a4b4c4d4e3p4f4g4h4i4j4k4l4m E f   9 W C0  O   0 m4n07",
"4o4p4q4r4s4t4u4v4w4x4y4z4A4B4C4D4E4F4G J    1q1K M N v a2k0L 74H",
"4I4J4K4L4M4N4O4P4Q4R4S4T4U4V4W4X4Y4Z3I08 J 0031512 0 a1B4&5 1403",
"505152535455565758595a5b5c5d5e5f5g5h5i 35j0H5k4H2E0c5l G22  1q  ",
"5m5n5o5p5q5r5s5f5t5u5v5w5x5y5z5A5B5C5D5E5F075G1n5H180w W03 O    ",
"5I5J5K5L5M5N5O5P5Q5R5S5T5U5V5W5X5f5Y5Z5&6 60 3 30f5G61 J        ",
"62636465663J6768696a5f6b6c6d6e6f6g6h6i6j6k0s1 6l6m5G1q u        ",
"6n6o6p6q6q6q6r6s6t6u6v6w6x6y6z6A6B6C6D2X6E2z0c2c 86F R 9        "};
