/* XPM */
static char *magick[] = {
/* columns rows colors chars-per-pixel */
"32 32 199 2",
"   c #7a007f",
".  c #7c017e",
"X  c #2809d9",
"o  c #2e10d7",
"O  c #3002cd",
"+  c #3503c9",
"@  c #3915d0",
"#  c #57009f",
"$  c #5b009b",
"%  c #5b009e",
"&  c #5e009b",
"*  c #5e029d",
"=  c #4b00ab",
"-  c #4800af",
";  c #4e01aa",
":  c #4c03af",
">  c #4f06af",
",  c #4500b0",
"<  c #4501b5",
"1  c #4207bd",
"2  c #450ebd",
"3  c #4900b0",
"4  c #4b07b5",
"5  c #4d02b0",
"6  c #4c05b3",
"7  c #4c0bb5",
"8  c #4e0ab2",
"9  c #5300a4",
"0  c #5500a3",
"q  c #5400a4",
"w  c #5304ab",
"e  c #5206ad",
"r  c #5403a9",
"t  c #5506aa",
"y  c #570ba9",
"u  c #5a00a0",
"i  c #5f0ea3",
"p  c #5711ad",
"a  c #5912ac",
"s  c #5d16ac",
"d  c #5f1aac",
"f  c #5614b0",
"g  c #511fbc",
"h  c #5a19b0",
"j  c #5b22b6",
"k  c #5f30bb",
"l  c #67008f",
"z  c #6a008d",
"x  c #6c008b",
"c  c #620096",
"v  c #640093",
"b  c #61029a",
"n  c #63079c",
"m  c #650599",
"M  c #6a0795",
"N  c #6d0792",
"B  c #680798",
"V  c #690996",
"C  c #6e0891",
"Z  c #720087",
"A  c #770081",
"S  c #770586",
"D  c #710289",
"F  c #72078d",
"G  c #760789",
"H  c #73088b",
"J  c #73088d",
"K  c #75088a",
"L  c #7b0381",
"P  c #7a0483",
"I  c #780484",
"U  c #7d0681",
"Y  c #7a0886",
"T  c #7d0882",
"R  c #600da3",
"E  c #601fae",
"W  c #6121af",
"Q  c #6725ab",
"!  c #6829ad",
"~  c #6336bc",
"^  c #6e3cb5",
"/  c #4613c2",
"(  c #4a19c1",
")  c #4f26c5",
"_  c #4223d1",
"`  c #562fc5",
"'  c #582bc0",
"]  c #592cc0",
"[  c #5d38c4",
"{  c #6c41ba",
"}  c #6e46bb",
"|  c #7e49af",
" . c #7041b6",
".. c #7d4eb2",
"X. c #7c57b8",
"o. c #7d59b8",
"O. c #7e60be",
"+. c #6041c7",
"@. c #6441c2",
"#. c #654ac8",
"$. c #684cc5",
"%. c #6c52c6",
"&. c #7255c2",
"*. c #7456c1",
"=. c #745cc5",
"-. c #715ac8",
";. c #7561c8",
":. c #7b64c3",
">. c #7e67c3",
",. c #7d65c5",
"<. c #7a61c2",
"1. c #7d6bc7",
"2. c #7968c8",
"3. c #89006f",
"4. c #8f0069",
"5. c #8d016d",
"6. c #850073",
"7. c #860577",
"8. c #850275",
"9. c #82047a",
"0. c #83097b",
"q. c #82097d",
"w. c #860979",
"e. c #880372",
"r. c #8a0473",
"t. c #880775",
"y. c #890976",
"u. c #8d0972",
"i. c #940064",
"p. c #91066d",
"a. c #920a6e",
"s. c #950a6a",
"d. c #9b0a63",
"f. c #9a0a65",
"g. c #9e0b61",
"h. c #9c0b64",
"j. c #980a68",
"k. c #900970",
"l. c #a10b5e",
"z. c #a60b59",
"x. c #a40b5c",
"c. c #a90b56",
"v. c #aa0c55",
"b. c #ae0c51",
"n. c #b20c4d",
"m. c #b50c4a",
"M. c #b40c4c",
"N. c #b90c46",
"B. c #bd0d42",
"V. c #b00c50",
"C. c #c70d37",
"Z. c #c20d3d",
"A. c #c60d39",
"S. c #cb0e33",
"D. c #c90d36",
"F. c #cc0e33",
"G. c #800980",
"H. c #815eba",
"J. c #8168bf",
"K. c #907bbf",
"L. c #8476c6",
"P. c #8171c6",
"I. c #8a79c3",
"U. c #8979c4",
"Y. c #8d7fc4",
"T. c #9381bf",
"R. c #8e84c7",
"E. c #948ac4",
"W. c #978fc6",
"Q. c #9a93c5",
"!. c #9c95c6",
"~. c #9e9dc8",
"^. c #a09bc5",
"/. c #a5a0c3",
"(. c #a6a3c5",
"). c #a7a4c5",
"_. c #a8a3c4",
"`. c #aaa7c5",
"'. c #aaa8c5",
"]. c #aaacc6",
"[. c #afafc5",
"{. c #b1b1c4",
"}. c #b3b4c4",
"|. c #b5b6c4",
" X c #b8bac4",
".X c #babcc3",
"XX c #babdc4",
"oX c #bcbec3",
"OX c #bfc2c3",
"+X c #bdc1c4",
"@X c #c1c1c1",
"#X c #c3c5c2",
"$X c #c5c6c1",
"%X c #c3c8c4",
"&X c #c6c9c2",
"*X c #c4cac4",
"=X c #c7ccc3",
"-X c #c8cac1",
";X c #c8ccc1",
/* pixels */
"@X@X@X@X@X@X@X@X@X@X@X@X@X@X@X@X@X@X@X@X@X@X@X@X@X@X@X@X@X@X@X@X",
"@X@X@X@X@X@X@X@X@X@X@X@X@X@X@X@X@X@X@X@X@X@X@X@X@X@X@X@X@X@X@X@X",
"@X@X@X@X@X@X@X@X@X@X@X@X@X@X@X@X@X@X@X@X@X@X@X@X@X@X@X@X@X@X@X@X",
"@X@X@X@X@X@X@X@X@X@X@X@X@X@X@X@X@X@X@X@X@X@X@X@X@X@X@X@X@X@X@X@X",
"@X@X@X@X@X@X@X@X@X@X@X#X&X=X*X*X*X*X=X&X&X@X@X@X@X@X@X@X@X@X@X@X",
"@X@X@X@X@X@X@X@X#X;X+X_.T.H...| | ..H.K./.XX;X#X@X@X@X@X@X@X@X@X",
"@X@X@X@X@X@X#X;X[.J.! V A 6.5.i.i.5.6.A V Q O.`.&X#X@X@X@X@X@X@X",
"@X@X@X@X@X&XoX:.p z 8.f.z.n.N.B.B.N.n.c.d.e.x y &.|.-X@X@X@X@X@X",
"@X@X@X@X-X'.' # P u.f.z.n.B.A.D.D.A.B.M.c.f.u.U $ g ^.;X@X@X@X@X",
"@X@X@X&X`.( % Y 0.y.s.x.n.B.A.F.F.D.B.n.z.s.u.0.Y & 2 !.-X@X@X@X",
"@X@X#X.X) 0 H Y Y T w.s.z.n.N.B.B.N.n.z.s.y.T Y Y H u ( {.#X@X@X",
"@X@X;X;., N H H C M N Y y.p.5.3.3.5.p.u.T N M N H H C = #.&X@X@X",
"@X#X}./ * H Y H m t 6 w q s ^ X.o. .d q r 6 e n F Y H m 1 (.#X@X",
"@X-XR.< N Y 0.Y M t + X 2.|.%X=X=X&X XL.o O e M Y G.T C - 1.;X@X",
"@X;X-.= H 0.y.w.T M 5 @ ~.&X;X;X;X;X&X]._ < B Y w.y.0.H q +.&X@X",
"@X&X$.9 Y y.a.s.a.y.Y m > k &.:.:.*.~ 8 b Y w.a.s.a.y.Y * ` #X@X",
"@X;X%.9 Y u.j.g.x.x.h.s.y.. Z x z D   t.s.f.x.x.g.f.u.T % [ &X@X",
"@X;XP.= Y u.f.z.v.v.v.v.v.v.c.z.z.c.c.v.v.v.v.v.z.f.u.Y 9 =.;X@X",
"@X#X).4 F y.f.z.v.M.N.B.B.B.B.B.B.B.B.B.B.N.M.n.z.d.u.G 3 W.-X@X",
"@X@X&X@.& 0.s.x.v.N.B.Z.A.C.D.D.D.D.A.A.Z.B.N.n.z.f.w.c ] OX@X@X",
"@X@X&X`.7 D u.g.v.M.B.Z.A.D.F.F.F.D.D.A.Z.B.M.v.g.u.S : Q.-X@X@X",
"@X@X@X-XY.= I a.x.v.M.B.Z.A.D.D.D.D.A.Z.B.N.v.x.s.U 9 >.&X@X@X@X",
"@X@X@X@X;XU.e Z k.g.v.n.N.B.Z.Z.Z.Z.B.N.M.v.x.a.L 9 <.&X@X@X@X@X",
"@X@X@X@X@X;XQ.j c 9.s.x.c.v.n.M.M.n.v.v.x.f.7.l f Y.&X@X@X@X@X@X",
"@X@X@X@X@X@X-X X>.h c A r.s.f.g.g.f.s.r.  v a *.[.;X@X@X@X@X@X@X",
"@X@X@X@X@X@X@X#X;X|.Y.} W i b b b b R E { I.[.=X#X@X@X@X@X@X@X@X",
"@X@X@X@X@X@X@X@X@X#X-X&XXX'.!.E.E.!.'. X&X;X#X@X@X@X@X@X@X@X@X@X",
"@X@X@X@X@X@X@X@X@X@X@X@X@X#X&X-X-X&X#X@X@X@X@X@X@X@X@X@X@X@X@X@X",
"@X@X@X@X@X@X@X@X@X@X@X@X@X@X@X@X@X@X@X@X@X@X@X@X@X@X@X@X@X@X@X@X",
"@X@X@X@X@X@X@X@X@X@X@X@X@X@X@X@X@X@X@X@X@X@X@X@X@X@X@X@X@X@X@X@X",
"@X@X@X@X@X@X@X@X@X@X@X@X@X@X@X@X@X@X@X@X@X@X@X@X@X@X@X@X@X@X@X@X",
"@X@X@X@X@X@X@X@X@X@X@X@X@X@X@X@X@X@X@X@X@X@X@X@X@X@X@X@X@X@X@X@X"
};
