/* XPM */
static char *image[] = {
"32 32 244 2 0 0",
"   c #000000",
"!  c #030203",
"#  c #040604",
"$  c #070904",
"%  c #0C0904",
"&  c #130A04",
"'  c #9A5704",
"(  c #A25904",
")  c #995D04",
"*  c #A65F04",
"+  c #C26904",
",  c #C66F04",
"-  c #CE7304",
".  c #7E7B04",
"/  c #DA7D04",
"0  c #867F04",
"1  c #928104",
"2  c #FE8304",
"3  c #FE8B04",
"4  c #FA8D04",
"5  c #F68F04",
"6  c #FE9304",
"7  c #BAAC04",
"8  c #E6AE04",
"9  c #C2B804",
":  c #FEBB04",
";  c #C6BE04",
"<  c #DED304",
"=  c #171A05",
">  c #7A4A05",
"?  c #905105",
"@  c #8C5305",
"A  c #140F06",
"B  c #241B06",
"C  c #1F1E06",
"D  c #3B3906",
"E  c #633C06",
"F  c #7A4306",
"G  c #484506",
"H  c #031207",
"I  c #2C1E07",
"J  c #2F2207",
"K  c #342207",
"L  c #363307",
"M  c #513407",
"N  c #D67807",
"O  c #372608",
"P  c #905B09",
"Q  c #03220A",
"R  c #95630C",
"S  c #D2750C",
"T  c #FDED0C",
"U  c #FEF60C",
"V  c #02320D",
"W  c #87580D",
"X  c #024210",
"Y  c #034411",
"Z  c #0C4C11",
"[  c #025213",
"\  c #A66F14",
"]  c #026216",
"^  c #2C2E18",
"_  c #825818",
"`  c #0B1A1A",
"a  c #16241A",
"b  c #02711A",
"c  c #56A11A",
"d  c #1D261B",
"e  c #23281B",
"f  c #463D1B",
"g  c #2B881B",
"h  c #16231C",
"i  c #1B241C",
"j  c #6F511C",
"k  c #AE771C",
"l  c #CA811C",
"m  c #E2951C",
"n  c #15221D",
"o  c #2B321D",
"p  c #2A331D",
"q  c #3E3F1D",
"r  c #315D1D",
"s  c #01811D",
"t  c #55AE1D",
"u  c #14201E",
"v  c #2A341E",
"w  c #3A3C1E",
"x  c #47451E",
"y  c #4E491E",
"z  c #544D1E",
"{  c #262D1F",
"|  c #252F1F",
"}  c #2B311F",
"~  c #2F351F",
" ! c #4E4A1F",
"!! c #64581F",
"#! c #333620",
"$! c #494720",
"%! c #4D4920",
"&! c #4F4B20",
"'! c #534E20",
"(! c #585020",
")! c #5B5320",
"*! c #635920",
"+! c #675B20",
",! c #019120",
"-! c #494721",
".! c #534E21",
"/! c #544F21",
"0! c #585121",
"1! c #675D21",
"2! c #5D5522",
"3! c #665C22",
"4! c #3FB822",
"5! c #625923",
"6! c #6D6023",
"7! c #716423",
"8! c #418623",
"9! c #01A023",
":! c #02A323",
";! c #5D5724",
"<! c #746624",
"=! c #BE8324",
">! c #DA9524",
"?! c #21BD24",
"@! c #5F5425",
"A! c #766825",
"B! c #766826",
"C! c #796B26",
"D! c #0BAA26",
"E! c #01B126",
"F! c #7B6C27",
"G! c #7F7027",
"H! c #2C8B27",
"I! c #7E7128",
"J! c #7A6D29",
"K! c #817229",
"L! c #70672A",
"M! c #796D2A",
"N! c #80732A",
"O! c #83752A",
"P! c #01C02A",
"Q! c #02C22A",
"R! c #1EDD2A",
"S! c #27E62A",
"T! c #736A2B",
"U! c #787C2B",
"V! c #786E2C",
"W! c #D2952C",
"X! c #E2A52C",
"Y! c #796F2D",
"Z! c #00D02D",
"[! c #28F12D",
"\! c #84792F",
"]! c #817830",
"^! c #A98230",
"_! c #03D430",
"`! c #00E030",
"a! c #10E930",
"b! c #847B31",
"c! c #8A7E31",
"d! c #897F32",
"e! c #8E8232",
"f! c #8E8233",
"g! c #00F033",
"h! c #01F133",
"i! c #0FF833",
"j! c #6F7134",
"k! c #857D34",
"l! c #C68F34",
"m! c #C29134",
"n! c #CE9B34",
"o! c #22E934",
"p! c #0FFE34",
"q! c #7A7635",
"r! c #7F7835",
"s! c #888035",
"t! c #7F8835",
"u! c #54C635",
"v! c #29D735",
"w! c #8C8436",
"x! c #0FEF36",
"y! c #10F036",
"z! c #0AF836",
"{! c #00FF36",
"|! c #7E7637",
"}! c #1BF537",
"~! c #888238",
" # c #4BA738",
"!# c #0BFB38",
"## c #807A3A",
"$# c #85833A",
"%# c #7E7C3B",
"&# c #82803B",
"'# c #9F8B3B",
"(# c #8A883C",
")# c #B9903C",
"*# c #CEA73C",
"+# c #DEAF3C",
",# c #E6B33C",
"-# c #D8B83C",
".# c #84783D",
"/# c #21F13E",
"0# c #817A3F",
"1# c #87843F",
"2# c #88883F",
"3# c #8B8B40",
"4# c #8B8D40",
"5# c #3AE842",
"6# c #938B43",
"7# c #868C43",
"8# c #B49643",
"9# c #3FD643",
":# c #868D44",
";# c #858346",
"<# c #878546",
"=# c #8F8A47",
"># c #898A48",
"?# c #918D49",
"@# c #85934A",
"A# c #B4A14A",
"B# c #53D44A",
"C# c #87964C",
"D# c #A29B52",
"E# c #9F9C52",
"F# c #BCA952",
"G# c #999853",
"H# c #C5AE53",
"I# c #C9B453",
"J# c #90A054",
"K# c #ABA154",
"L# c #9C9D56",
"M# c #9FA056",
"N# c #94A856",
"O# c #A29E57",
"P# c #A6A458",
"Q# c #9DA559",
"R# c #AFAA59",
"S# c #C1BC5B",
"T# c #A6A95E",
"U# c #BCB65E",
"V# c #B1B462",
"W# c #FFFFFF",
"X# c None",
"! ! ! $ # ! ! ! ! ! ! ! ! ! ! ! ! ! ! ! ! ! ! ! ! ! ! ! ! ! ! ! ",
"! ! C < 0 ! ! ! ! ! ! ! ! ! ! ! ! ! ! ! ! ! ! ! ! ! ! ! ! ! ! ! ",
"C L G T 7 = = ! ! ! ! ! ! ! ! ! ! ! ! ! ! ! ! ! ! ! ! ! ! ! ! ! ",
"9 U < : 5 8 ; # ! ! ! ! ! ! ! ! ! ! ! ! ! ! ! ! ! ! ! ! ! ! ! ! ",
". ; T 6 2 6 1 # ! ! ! ! ! ! ! ! ! ! ! ! V H ! ! ! ! ! ! V H ! ! ",
"X {!{!{!{!i!g ! ! ! ! g!{!s ! ! ! H ,!{!{!{!P!Q ! H ,!{!{!{!P!Q ",
"Y {!p!S![!{!{!Z ! ! ] {!{!`!! ! ! b {!`!9!`!{!s ! b {!`!9!`!{!s ",
"X {!R!! D ?!{!t ! ! P!{!{!{![ ! ! E!{!s ! Q Q!E!! E!{!s ! Q P!E!",
"X {!P!H X Z!{!c ) Q {!`!] {!E!! ! X {!{!g!9!8!% ! X {!{!g!9![ ! ",
"X {!{!{!{!{!g!Q ? 4!{!,!H {!{!Q ! ! ] `!{!{!{!:!! ! ] `!{!{!{!D!",
"X {!`!s s s Q ! ! a!{!Z!P!g!{!s ! X X ! V u!{!{!H X X ! r B#{!{!",
"X {!P!! ! ! ! ! [ {!{!{!{!{!{!`!! P!{!] O -#z!{!V P!{! #S#N#h!{!",
"X {!P!! ! ! ! ! E!{!b P @ ! `!{![ ] {!{!o!{!{!_!| H!{!{!/#{!{!x!",
"V P!,!! ! ! ! ! P!P!Q ! > P b P!s ! ,!h!{!}!5#U!s!3#9#!#{!y!v!t!",
"! ! ! ! ! ! ! ! ! ! ! ! ! P R ! ! ! ! v j!M#c!s!$#:#C#f!d!~!s!s!",
"! ! ! ! ! ! ! ! ! ! ! ! ! ! W W ! h !!$#Q#@#$#$#@#E#N!N!N!K!K!G!",
"! ! ! ! ! ! ! ! ! ! ! ! ! ! ! E '#\!4#s!V#f!]!C#O#A!A!B!C!A!A!B!",
"! ! ! ! ! ! ! ! ! ! ! ! ! ! ! /!,#+#*#V#V#I!1#K#A!A!B!A!A!B!C!A!",
"! ! # ! ! ! ! ! ! ! ! ! ! # !!J#M#2#U#H#%#C!D#V!C!B!C!A!C!C!A!J!",
"! ! J ( , + , - O ! ! ! # +!7#V#d!]!G!%#P#K#G#<!A!A!G!C!A!j!&#q!",
"! ! ! I ' 6 2 2 * E K & y 7#w!U#O!A!A!C!A!R#F#6#F!6!1!L!>#%#5!.!",
"! ! ! ! ! B ( N I M F k I#V#T#*#M!C!<!C!F!K#T!;#L###<#<#;!.! !.!",
"! ! ! ! ! ! ! A ! ! ` N!e!2#*#>!A#K#D#r!?#;#'!'!2!|!;!.! !.!0!.!",
"! ! ! ! ! ! ! ! ! ! !!4#$#O!l!Y!A!J!=#D#n!.#.!.! !.!.!.!(!(!.!.!",
"! ! ! ! ! ! ! ! ! a s!$#b!8#D#<!A!A!*!'!2!=!0#%!.!.!.! !$!#!#!} ",
"! ! ! ! ! ! ! ! ! z (#@#K#)#A!A!A!3!.!.! !0!^!^!l &!~ { d i i d ",
"! ! ! ! ! ! ! ! ` \!(#X!2 n!F!A!3!.!.!0!.!%!.#2 2 \ u i d e i d ",
"! ! ! ! ! ! ! ! q 3#d!4 2 >!C!)!.!.!.!.!(!-!@!S 2 3 f n d d d e ",
"! ! ! ! ! ! ! ! 7!7#R#2 W!C!*!.!.!0!'!.!w e n e j N / ^ i i d i ",
"! ! ! ! ! ! ! ` s!\!m W!F!3!0!.!.!(!.!o i i d i n e _ > i d e i ",
"! ! ! ! ! ! ! p (#k!m!C!<!(!.!.!(! !#!i d d d i d i n ^ e i i d ",
"! ! ! ! ! ! ! x 4#V!F!A!1!.!.!.!.!o i d i e i e i d i i d d e i "
};
