/* XPM */
static char *magick[] = {
/* columns rows colors chars-per-pixel */
"32 32 191 2",
"   c #010100",
".  c #0e0700",
"X  c #0b0a07",
"o  c #0f0800",
"O  c #0d0c0a",
"+  c #0e0e0e",
"@  c #120f0a",
"#  c #150f08",
"$  c #17160f",
"%  c #16120d",
"&  c #1f1101",
"*  c #1e1308",
"=  c #1a120a",
"-  c Gray7",
";  c #161616",
":  c #1b1510",
">  c #181716",
",  c #1b1811",
"<  c #1b1b17",
"1  c #1c1915",
"2  c #1b1b1b",
"3  c #1e1e1e",
"4  c #23190c",
"5  c #2b1c07",
"6  c #201e1a",
"7  c #381f02",
"8  c #23231e",
"9  c #252019",
"0  c #25241f",
"q  c #29261b",
"w  c #2d291c",
"e  c #2e2919",
"r  c #352007",
"t  c #3b2205",
"y  c #3b3018",
"u  c #222222",
"i  c #252525",
"p  c #2d2b22",
"a  c Gray18",
"s  c #2a2a2a",
"d  c #322f21",
"f  c #383322",
"g  c #393727",
"h  c #323232",
"j  c #353333",
"k  c Gray21",
"l  c #3a3a3a",
"z  c Gray24",
"x  c #462702",
"c  c #4b2a03",
"v  c #492a04",
"b  c #483516",
"n  c #502c02",
"m  c #543004",
"M  c #593507",
"N  c #59390d",
"B  c #563a13",
"V  c #413d2a",
"C  c #623a08",
"Z  c #643b08",
"A  c #673e09",
"S  c #6d3f06",
"D  c #5b4018",
"F  c #47412a",
"G  c #734308",
"H  c #7f4905",
"J  c #7e4a09",
"K  c #625c3f",
"L  c Gray26",
"P  c #464646",
"I  c #494949",
"U  c #4e4e4e",
"Y  c #535353",
"T  c Gray34",
"R  c Gray35",
"E  c #5f5f5f",
"W  c #625e41",
"Q  c #636043",
"!  c #676141",
"~  c #75704d",
"^  c Gray40",
"/  c #626262",
"(  c #6a6a6a",
")  c #6f6f6f",
"_  c #767676",
"`  c #797979",
"'  c Gray",
"]  c #8b5913",
"[  c #b76808",
"{  c #ba6b0a",
"}  c #bd6d09",
"|  c #b0741c",
" . c #847a51",
".. c #c77007",
"X. c #ce7609",
"o. c #bc842d",
"O. c #8c865c",
"+. c #9c8850",
"@. c #a18a51",
"#. c #be8f40",
"$. c #a49d6e",
"%. c #ad9c60",
"&. c #a8a271",
"*. c #b4ac77",
"=. c #d8800e",
"-. c #cc8320",
";. c #d48e2c",
":. c #d28f30",
">. c #e5840b",
",. c #e8830a",
"<. c #ed8d0f",
"1. c #ff9e0f",
"2. c #f59312",
"3. c #ff9716",
"4. c #fa9511",
"5. c #ff9d11",
"6. c #ff9e15",
"7. c #f99d1f",
"8. c #ff9919",
"9. c #eb9a26",
"0. c #ffa71b",
"q. c #ffa41f",
"w. c #f6a328",
"e. c #ffa322",
"r. c #ffa125",
"t. c #ffa522",
"y. c #ffa328",
"u. c #ffa923",
"i. c #ffac25",
"p. c #ffa92b",
"a. c #ffac36",
"s. c #ffaf3a",
"d. c #ffb02d",
"f. c #ffb033",
"g. c #ffb03c",
"h. c #ffba3f",
"j. c #c6a55d",
"k. c #e0b158",
"l. c #ffb946",
"z. c #ffbd49",
"x. c #ffbc4e",
"c. c #ffbe53",
"v. c #ffc24c",
"b. c #ffc056",
"n. c #ffc452",
"m. c #ffcd5f",
"M. c #ffca61",
"N. c #ffd165",
"B. c #f7d276",
"V. c #ffd171",
"C. c #ffd670",
"Z. c #ffd777",
"A. c #808080",
"S. c #848484",
"D. c #8b8b8b",
"F. c Gray56",
"G. c #929292",
"H. c Gray58",
"J. c Gray60",
"K. c Gray62",
"L. c #beb881",
"P. c #a2a2a2",
"I. c Gray65",
"U. c #aaaaaa",
"Y. c #aeaeae",
"T. c #b1b1b1",
"R. c #b6b6b6",
"E. c Gray73",
"W. c #bebebe",
"Q. c #c6c085",
"!. c #cdc78c",
"~. c #ded99b",
"^. c #ead587",
"/. c #e5df9c",
"(. c #ffdd83",
"). c #e9e09d",
"_. c #ffe38d",
"`. c #ffe98c",
"'. c #f7eda1",
"]. c #f4eea7",
"[. c #ffefa1",
"{. c #fff2a0",
"}. c #fff7a0",
"|. c #fff5ab",
" X c #fffdab",
".X c #fffeaf",
"XX c #fef9b1",
"oX c #ffffb3",
"OX c #ffffba",
"+X c #c1c1c1",
"@X c #ffffc2",
/* pixels */
"Y +X+X+X+X+X+X+X+X+X+X+X+XP.- ^ +X+X+X+X+X+X+X+X+X+X+X+X+X+X+X+X",
"2 Y +X+X+X+X+X+X+X+X+X+X+X+XP.+ ^ +X+X+X+X+X+X+X+X+X+X+X+X+X+X+X",
"Y.2 U +X+X+X+X+X+X+X+X+X+X+X+XP.- ( +X+X+X+X+X+X+X+X+X+X+X+X+X+X",
"+XT.u U +X+X+X+X+X+X+X+X+X+X+X+XI.- E +X+X+X+X+X+X+X+X+X+X+X+X+X",
"+X+XR.3 I +X+X+X+X+X+X+X+X+X+X+X+XI.- / +X+X+X+X+X+X+X+X+X+X+X+X",
"+X+X+XT.u I +X+X+X+X) T.+X+X+X+X+X+XI.- / +X+X+X+X+X+X+X+X+X+X+X",
"+X+X+X+XR.u I +X+XT   G.+X+X+X+X+X+X+XU.+ E +X+X+X+X+X+X+X+X+X+X",
"+X+X+X+X+XR.i Y / v A / +X+X+X+X+X+X+X+XI.- E +X+X+X+X+X+X+X+X+X",
"+X+X+X+X+X+XR.+ t w.:.s +X+X+X+X+X+X+X+X+XU.- R +X+X+XR.L Y.+X+X",
"+X+X+X+X+X+XE r 9.n.B.q U.+X+X+X+X+X+X+X+X+XY.- R +XE.h   D.+X+X",
"+X+X+X+X+XE v 7.v.(..XW ` +X+X+X+X+X+X+X+X+X+XY.3 E z G J U +X+X",
"+X+X+X+XR   S | k.{.@XL.l +X+X+X+X+X+X+X+X+X+X+XI.  Z u.;.u W.+X",
"+X+X+X+XP.S.E k 0 f K  .O E.+X+X+X+X+X+X+X+X+XW.z C e.l.V.e K.+X",
"+X+X+X+X+X+X+X+XE.K.A.R u z +X+X+X+X+X+X+XY.T.k S 0.h.Z. X~ ^ +X",
"W.+X+X+X+X+X+X+X+X+X+X+XE.s z +X+X+X+X+XD.- h   m ] #.^.OX!.k +X",
"k W.+X+X+X+X+X+X+X+X+X+X+XE.a l W.+X+XD.* x Y P.' R h 8 g Q X U.",
"k h E.+X+X+X+X+X+X+X+X+X+X+XE.h k +XF.# X.,.1 E.+X+X+XR.J._ U P.",
"W.h h W.+X+X+X+X+X+X+X+X+X+X+XW.l h : } 1.6.M ( +X+X+X+X+X+X+X+X",
"+XW.l h W.+X+X+X+X+X+X+X+X+X+X+XD.. { 5.8.t.-.> E.+X+X+X+X+X+X+X",
"+X+XW.k h W.+X+X+X+X+X+X+X+X+XG.% { 5.8.r.a.z.b _ +X+X+X+X+X+X+X",
"+X+X+XW.l a E.+X+X+X+X+X+X+XF.@ [ 5.8.y.g.c.C.j.u W.+X+X+X+X+X+X",
"+X+X+X+X+Xz s W.+X+X+X+X+XD.= ..1.3.r.s.b.V._.{.V S.+X+X+X+X+X+X",
"+X+X+X+X+XW.l s E.+X+X+XW.I o H =.q.f.x.V._.[.oX*.a +X+X+X+X+X+X",
"+X+X+X+X+X+X+XL s E.+X+X+XP P / 6 N o.M.`.{.|.XXXXd D.+X+X+X+X+X",
"+X+X+X+X+X+X+X+XL s E.+XI & j +XR.) u y %.'.OXoXOX$.h +X+X+X+X+X",
"+X+X+X+X+X+X+X+X+XL k U n >.4 T.+X+XW.S.k w O./.OXXXq J.+X+X+X+X",
"+X+X+X+X+X+X+X+X+X+X2 c 4.i.B ` +X+X+X+X+XJ.I , ! ~.&.L +X+X+X+X",
"+X+X+X+X+X+X+X+X+XU v 2.p.m.@.z +X+X+X+X+X+X+XI.E 6 F X I.+X+X+X",
"+X+X+X+X+X+X+XR.L 7 <.d.N.}.).< R.+X+X+X+X+X+X+X+XR.` i I W.+X+X",
"+X+X+X+X+X+X+XH.h 9 5 D +.Q.].V G.+X+X+X+X+X+X+X+X+X+XW.G.E.+X+X",
"+X+X+X+X+X+X+X+X+XE.K.' Y h p $ U +X+X+X+X+X+X+X+X+X+X+X+X+X+X+X",
"+X+X+X+X+X+X+X+X+X+X+X+X+X+XR.J.G.+X+X+X+X+X+X+X+X+X+X+X+X+X+X+X"
};
