/* XPM */
static char *render_BA_falloff_primitive_xpm[]={
"32 32 406 2",
"      c #000000",
" 0    c #010101",
" 1    c #020203",
" 2    c #030303",
" 3    c #020202",
" 4    c #050505",
" 5    c #080808",
" 6    c #0A0A0B",
" 7    c #0C0C0C",
" 8    c #0D0D0D",
" 9    c #0E0D0E",
" a    c #0B0C0C",
" b    c #09090A",
" c    c #070707",
" d    c #040404",
" e    c #010102",
" f    c #060606",
" g    c #0B0B0B",
" h    c #0F0F0F",
" i    c #131313",
" j    c #161716",
" k    c #191919",
" l    c #1A1A1A",
" m    c #1B1A1B",
" n    c #181818",
" o    c #161616",
" p    c #121212",
" q    c #0F0E0E",
" r    c #0A0A0A",
" s    c #010201",
" t    c #111111",
" u    c #1C1C1C",
" v    c #212021",
" w    c #242525",
" x    c #272727",
" y    c #292929",
" z    c #2A2A2A",
" A    c #232423",
" B    c #201F1F",
" C    c #1B1B1B",
" D    c #151515",
" E    c #090909",
" F    c #030304",
" G    c #070607",
" H    c #0E0D0D",
" I    c #232323",
" J    c #30302F",
" K    c #343434",
" L    c #383838",
" M    c #3A3A3A",
" N    c #393939",
" O    c #373737",
" P    c #333333",
" Q    c #2E2E2E",
" R    c #292828",
" S    c #222122",
" T    c #000101",
" U    c #181717",
" V    c #202020",
" W    c #323132",
" X    c #404040",
" Y    c #454545",
" Z    c #494949",
" &    c #4C4C4C",
"0     c #4C4C4D",
"00    c #4B4B4B",
"01    c #484849",
"02    c #444444",
"03    c #3E3E3E",
"04    c #2F2F2F",
"05    c #1E1E1E",
"06    c #161516",
"07    c #000100",
"08    c #181819",
"09    c #222222",
"0a    c #2C2D2D",
"0b    c #494A49",
"0c    c #515151",
"0d    c #575757",
"0e    c #5C5C5C",
"0f    c #5F5F5F",
"0g    c #5F6060",
"0h    c #5E5E5E",
"0i    c #5B5B5B",
"0j    c #565656",
"0k    c #4F4F4F",
"0l    c #474747",
"0m    c #171717",
"0n    c #2E2D2E",
"0o    c #505050",
"0p    c #5A5A5A",
"0q    c #636363",
"0r    c #6A6A6A",
"0s    c #6F6F6F",
"0t    c #737372",
"0u    c #737373",
"0v    c #727272",
"0w    c #6E6E6E",
"0x    c #686868",
"0y    c #616161",
"0z    c #585858",
"0A    c #4E4D4D",
"0B    c #424242",
"0C    c #373636",
"0D    c #2B2A2B",
"0E    c #1F1F1F",
"0F    c #151514",
"0G    c #020102",
"0H    c #141414",
"0I    c #2C2C2C",
"0J    c #474646",
"0K    c #535353",
"0L    c #605F5F",
"0M    c #6B6B6B",
"0N    c #757574",
"0O    c #7D7D7C",
"0P    c #828383",
"0Q    c #868686",
"0R    c #878787",
"0S    c #868685",
"0T    c #818181",
"0U    c #7B7B7B",
"0V    c #5C5D5D",
"0W    c #434343",
"0X    c #363636",
"0Y    c #1D1C1C",
"0Z    c #282828",
"0&    c #6E6F6F",
"1     c #8F8F8F",
"10    c #969696",
"11    c #9A9A9A",
"12    c #9B9B9B",
"13    c #999999",
"14    c #949494",
"15    c #8D8E8D",
"16    c #848483",
"17    c #787878",
"18    c #5D5E5D",
"19    c #404041",
"1a    c #323232",
"1b    c #242425",
"1c    c #212222",
"1d    c #303030",
"1e    c #3F3F3F",
"1f    c #4F4E4F",
"1g    c #5F5E5E",
"1h    c #7D7D7D",
"1i    c #8B8B8B",
"1j    c #979797",
"1k    c #A1A1A1",
"1l    c #A9A8A8",
"1m    c #ADADAD",
"1n    c #AEAEAE",
"1o    c #ACACAC",
"1p    c #A7A7A7",
"1q    c #9F9F9F",
"1r    c #878788",
"1s    c #797979",
"1t    c #6A6B6A",
"1u    c #5B5A5A",
"1v    c #4B4A4A",
"1w    c #3B3B3B",
"1x    c #040303",
"1y    c #0E0E0E",
"1z    c #696969",
"1A    c #7A7A7A",
"1B    c #8A8A8A",
"1C    c #A7A7A6",
"1D    c #B1B2B2",
"1E    c #BABABA",
"1F    c #BFBFBF",
"1G    c #C0C0C0",
"1H    c #BEBEBE",
"1I    c #B8B8B8",
"1J    c #AFAFAF",
"1K    c #A3A3A3",
"1L    c #959596",
"1M    c #767676",
"1N    c #656565",
"1O    c #545454",
"1P    c #242424",
"1Q    c #171716",
"1R    c #020201",
"1S    c #2D2D2D",
"1T    c #3D3D3D",
"1U    c #606060",
"1V    c #848484",
"1W    c #959595",
"1X    c #A6A6A6",
"1Y    c #B4B4B4",
"1Z    c #C0C1C0",
"1&    c #CACACA",
"2     c #D0D0D0",
"20    c #D2D1D2",
"21    c #CFCFCF",
"22    c #C8C8C8",
"23    c #B1B1B1",
"24    c #A1A1A2",
"25    c #919191",
"26    c #808080",
"27    c #6E6E6D",
"28    c #4A4A4A",
"29    c #222121",
"2a    c #313131",
"2b    c #676767",
"2c    c #8C8C8C",
"2d    c #9E9F9F",
"2e    c #B0B0B0",
"2f    c #C0BFC0",
"2g    c #CECDCD",
"2h    c #D8D8D8",
"2i    c #DFDFDF",
"2j    c #E1E1E1",
"2k    c #DEDEDE",
"2l    c #D6D6D6",
"2m    c #BCBCBC",
"2n    c #ACABAC",
"2o    c #888888",
"2p    c #757575",
"2q    c #626262",
"2r    c #4F504F",
"2s    c #060506",
"2t    c #0A090A",
"2u    c #464646",
"2v    c #6C6B6C",
"2w    c #7F7F7F",
"2x    c #929292",
"2y    c #A5A6A5",
"2z    c #B7B7B7",
"2A    c #D7D7D7",
"2B    c #E4E3E3",
"2C    c #ECECEC",
"2D    c #EFEFEE",
"2E    c #EAEAEA",
"2F    c #E0E0E1",
"2G    c #D3D3D3",
"2H    c #C4C4C4",
"2I    c #B3B3B3",
"2J    c #A1A0A1",
"2K    c #8D8D8D",
"2L    c #676766",
"2M    c #545353",
"2N    c #414141",
"2O    c #202021",
"2P    c #262626",
"2Q    c #5A5A5B",
"2R    c #828281",
"2S    c #959696",
"2T    c #A9A9A9",
"2U    c #BBBBBB",
"2V    c #CDCDCD",
"2W    c #DDDDDD",
"2X    c #F5F5F5",
"2Y    c #FAFAFA",
"2Z    c #F3F3F3",
"2&    c #E7E7E7",
"3     c #D9D9D9",
"30    c #C8C9C9",
"31    c #A4A4A4",
"32    c #909191",
"33    c #555656",
"34    c #131414",
"35    c #252625",
"36    c #484847",
"37    c #5A5B5B",
"38    c #828282",
"39    c #EBEBEB",
"3a    c #F7F7F7",
"3b    c #FCFCFC",
"3c    c #F4F4F4",
"3d    c #E8E8E8",
"3e    c #C9C9C9",
"3f    c #A5A4A4",
"3g    c #252524",
"3h    c #353535",
"3i    c #595959",
"3j    c #6C6C6C",
"3k    c #939394",
"3l    c #B9B9B9",
"3m    c #E6E5E5",
"3n    c #EFEFEF",
"3o    c #F2F2F2",
"3p    c #EDEDED",
"3q    c #E2E2E3",
"3r    c #D5D5D5",
"3s    c #C5C6C5",
"3t    c #A2A2A2",
"3u    c #212120",
"3v    c #070708",
"3w    c #090908",
"3x    c #151414",
"3y    c #565655",
"3z    c #8E8E8E",
"3A    c #A1A0A0",
"3B    c #B2B2B2",
"3C    c #C2C2C2",
"3D    c #DBDBDB",
"3E    c #E3E2E3",
"3F    c #E5E4E5",
"3G    c #AEADAE",
"3H    c #9C9C9C",
"3I    c #898989",
"3J    c #3F3E3F",
"3K    c #1F1E1F",
"3L    c #3E3E3F",
"3M    c #747474",
"3N    c #878686",
"3O    c #989898",
"3P    c #A8A8A8",
"3Q    c #CECECE",
"3R    c #D4D4D4",
"3S    c #CCCCCC",
"3T    c #C1C1C1",
"3U    c #70706F",
"3V    c #4B4C4C",
"3W    c #3A3B3A",
"3X    c #1B1C1C",
"3Y    c #292928",
"3Z    c #6B6C6B",
"3&    c #AAAAAA",
"4     c #B5B5B5",
"40    c #C3C4C3",
"41    c #C5C5C5",
"42    c #C3C3C3",
"43    c #989999",
"44    c #787979",
"45    c #262525",
"46    c #0C0B0C",
"47    c #1C1B1B",
"48    c #717171",
"49    c #808180",
"4a    c #ABABAA",
"4b    c #ABABAB",
"4c    c #5D5D5D",
"4d    c #4D4D4D",
"4e    c #707070",
"4f    c #CBCBCB",
"4g    c #CDCDCE",
"4h    c #444443",
"4i    c #545455",
"4j    c #646465",
"4k    c #9D9D9D",
"4l    c #A0A0A0",
"4m    c #9E9E9E",
"4n    c #7C7C7C",
"4o    c #525252",
"4p    c #353534",
"4q    c #272626",
"4r    c #19191A",
"4s    c #3F403F",
"4t    c #565657",
"4u    c #666667",
"4v    c #FAFBFB",
"4w    c #DADADA",
"4x    c #8B8A8A",
"4y    c #7F7F80",
"4z    c #777777",
"4A    c #383939",
"4B    c #2B2B2B",
"4C    c #484848",
"4D    c #525151",
"4E    c #646464",
"4F    c #A5A6A6",
"4G    c #767777",
"4H    c #6D6D6D",
"4I    c #454646",
"4J    c #2D2E2D",
"4K    c #0D0C0C",
"4L    c #1D1C1D",
"4M    c #C7C7C7",
"4N    c #969595",
"4O    c #252525",
"4P    c #8C8C8D",
"4Q    c #E9E9E9",
"4R    c #555555",
"4S    c #D2D2D2",
"4T    c #5B5A5B",
"4U    c #545453",
"4V    c #0F0E0F",
"4W    c #EEEEEE",
"4X    c #313030",
"4Y    c #272827",
"4Z    c #494948",
"4&    c #212121",
"5     c #1D1D1D",
"50    c #FDFDFD",
"51    c #FFFFFF",
"52    c #7E7E7E",
"53    c #3B3B3C",
"54    c #A5A5A5",
"55    c #DFE0DF",
"56    c #939393",
"57    c #CACACB",
"58    c #0B0C0B",
"59    c #050506",
"5a    c #666666",
"5b    c #F9F9F9",
"5c    c #E3E3E3",
"5d    c #6F7070",
"5e    c #464647",
"5f    c #151615",
"5g    c #F1F1F1",
"5h    c #C6C6C6",
"5i    c #010001",
"5j    c #4E4E4E",
"5k    c #040505",
"                           0 1 2 2 2 3 0                        ",
"                     3 4 5 6 7 8 9 8 a b c d e                  ",
"                 3 f g h i j k l m l n o p q r 4 s              ",
"             0 4 g t o u v w x y z y x A B C D h E F            ",
"           0 G H D u I z J K L M M N O P Q R S l i 7 4 T        ",
"         0 c h U V y W N X Y Z &0 00010203 O04 x0506 8 4        ",
"      07 f h08090a O X0b0c0d0e0f0g0h0i0j0k0l03 K z V o 8 d      ",
"       d 80m090n N Y0o0p0q0r0s0t0u0v0w0x0y0z0A0B0C0D0E0F g 3    ",
"    0G r0H B0I N0J0K0L0M0N0O0P0Q0R0S0T0U0v0x0V0o0W0X y0Y t c    ",
"     4 h C0Z0X020K0y0&0U0Q1 10111213141516170M180k191a1b n 8 2  ",
"   0 r D1c1d1e1f1g0w1h1i1j1k1l1m1n1o1p1q141r1s1t1u1v1w0I05 p c  ",
"  1x1y l0Z O0l0z1z1A1B131C1D1E1F1G1H1I1J1K1L0Q1M1N1O0W P1P1Q g1R",
"   f t051S1T1f1U0v1V1W1X1Y1Z1&2 2021221H23242526270e28 N y C1y d",
"   50H292a0B1O2b1A2c2d2e2f2g2h2i2j2k2l1&2m2n112o2p2q2r031S05 t2s",
" 02t o1P K2u0z2v2w2x2y2z222A2B2C2D2E2F2G2H2I2J2K1A2L2M2N1d2O i c",
" 0 r0m2P0X0l2Q0w2R2S2T2U2V2W2E2X2Y2Z2&3 302z31321h1z330W2a2934 5",
" 0 r0m350X36370w382S2T2m2V2W393a3b3c3d3 3e2z3f251h1z0j0W1a090H 5",
" 0 r o3g3h2u3i3j263k1C3l1&3 3m3n3o3p3q3r3s1Y3t1 0U2b1O0B1d3u i3v",
" 03w3x091a0W3y0x0U3z3A3B3C2 3D3E3F2j3 2V1H3G3H3I1M0q0c3J Q3K t f",
"   G p0E Q3L0o2q3M3N3O3P2z2H3Q3R2l2G3S3T1Y3114383U0h3V3W z3X h d",
"  1x1y l3Y L Z0p3Z1h2K3H3&4 1H4041422m2I1p433I442b0j Y3h45 n46 3",
"     31y47 y0C0o2q48491 131k4a3B2I234b1K3O1i1h274c4d1T Q V i 507",
"  4e3C4f4g1&1 4h4i4j0u0U4k2&4 114l4m132x2o4n0s0y4o0W4p4q4r1y d  ",
"  3&1&4d3i3M3p1j4s4t0q4u3C4v4w0S2c4x0Q4y4z3j1U2M2u4A4B3K i E 0  ",
"  3P1k      3z3D K4C4D4E394F3n2K3M4G0u4H1N0e0c4I M4J09 o4K 2    ",
"  1X1J0m4L044M4N4O M1w4P4Q4R4S2m0p0q1U4T4U000B L1S09 n4V f      ",
"  112Z3D4w2C4W4X C0I1S4g3O4Y4n4W0d4d4d4Z0B1w P z4& n h c 0      ",
"  1X1J0m0m4&104S5  o0W501F1X4 5152 P53 O1a0I4O5  o1y c 0        ",
"  1p54      0m50 X  2K55561q1j573S4O z x I05 n p5859 0          ",
"  3P54      5a5b5  c5c5d   7 f4C515e i k5f t 83v 2              ",
"  1k5g5h5h4f2E1z  0c3a C 4 81y g2h3P 3 72t f 25i                ",
"   x2u5j5j Z k    1P0X   0 25k 0 y03 2 3 0                      "};
