/* XPM */
static char * render_mip_gamma_gain_xpm[] = {
"32 32 255 2",
"  	c #010060",
". 	c #000353",
"+ 	c #0A006B",
"@ 	c #010184",
"# 	c #02008C",
"$ 	c #01037D",
"% 	c #07008E",
"& 	c #0000A6",
"* 	c #0000B0",
"= 	c #00029D",
"- 	c #000394",
"; 	c #00048B",
"> 	c #0A0096",
", 	c #000582",
"' 	c #0000BA",
") 	c #0002A8",
"! 	c #0001B2",
"~ 	c #0003A9",
"{ 	c #11009F",
"] 	c #0900BC",
"^ 	c #000A77",
"/ 	c #000798",
"( 	c #0105AA",
"_ 	c #1700A9",
": 	c #0005C2",
"< 	c #19029B",
"[ 	c #1200C6",
"} 	c #0B04B4",
"| 	c #0007B9",
"1 	c #0005CD",
"2 	c #000F6C",
"3 	c #1202BE",
"4 	c #041061",
"5 	c #001074",
"6 	c #040AA4",
"7 	c #01117D",
"8 	c #021286",
"9 	c #0C0BAE",
"0 	c #110F9F",
"a 	c #820106",
"b 	c #550F00",
"c 	c #890002",
"d 	c #830200",
"e 	c #8C0000",
"f 	c #8C0004",
"g 	c #940001",
"h 	c #8D0205",
"i 	c #002551",
"j 	c #980000",
"k 	c #8E0300",
"l 	c #970004",
"m 	c #95000A",
"n 	c #7C0A02",
"o 	c #9F0000",
"p 	c #A10002",
"q 	c #9F0009",
"r 	c #900600",
"s 	c #A30104",
"t 	c #990406",
"u 	c #A40200",
"v 	c #9A0500",
"w 	c #AB0000",
"x 	c #AA0007",
"y 	c #AE0002",
"z 	c #5F1800",
"A 	c #A30313",
"B 	c #A30319",
"C 	c #B60000",
"D 	c #B80000",
"E 	c #B70007",
"F 	c #920B09",
"G 	c #8A0E05",
"H 	c #B0011B",
"I 	c #AF030C",
"J 	c #B00400",
"K 	c #BA0101",
"L 	c #9D0A01",
"M 	c #920C15",
"N 	c #C20000",
"O 	c #B00504",
"P 	c #B90113",
"Q 	c #C20005",
"R 	c #72180A",
"S 	c #9C0B18",
"T 	c #A70A07",
"U 	c #CC0002",
"V 	c #A80B00",
"W 	c #662001",
"X 	c #9E0E11",
"Y 	c #A01000",
"Z 	c #BF060D",
"` 	c #A90D10",
" .	c #B30C0F",
"..	c #99150F",
"+.	c #6E2500",
"@.	c #6C2900",
"#.	c #203756",
"$.	c #8C1D1B",
"%.	c #9B191B",
"&.	c #AC141C",
"*.	c #AF1600",
"=.	c #752A00",
"-.	c #961E1D",
";.	c #A21D17",
">.	c #B7162A",
",.	c #743000",
"'.	c #C21624",
").	c #7A3300",
"!.	c #872E20",
"~.	c #A6262A",
"{.	c #2D4966",
"].	c #BB2727",
"^.	c #00612F",
"/.	c #006326",
"(.	c #B52F2E",
"_.	c #B73037",
":.	c #3D49C7",
"<.	c #AA392C",
"[.	c #35547B",
"}.	c #006E30",
"|.	c #3F5486",
"1.	c #9C4135",
"2.	c #026F3B",
"3.	c #1C7000",
"4.	c #C83837",
"5.	c #4252C8",
"6.	c #3F5B79",
"7.	c #D53644",
"8.	c #A34733",
"9.	c #05773D",
"0.	c #0E7443",
"a.	c #AF463D",
"b.	c #057F01",
"c.	c #007B3B",
"d.	c #485F86",
"e.	c #C54146",
"f.	c #446092",
"g.	c #008305",
"h.	c #008400",
"i.	c #1C7E01",
"j.	c #495BDF",
"k.	c #486585",
"l.	c #008146",
"m.	c #4D5CD2",
"n.	c #028800",
"o.	c #535DCD",
"p.	c #0B8140",
"q.	c #515DDB",
"r.	c #AA5243",
"s.	c #A25541",
"t.	c #098A00",
"u.	c #008D03",
"v.	c #008F00",
"w.	c #D94751",
"x.	c #019200",
"y.	c #5663DA",
"z.	c #D04F54",
"A.	c #009510",
"B.	c #D4504C",
"C.	c #0A9400",
"D.	c #009701",
"E.	c #C05849",
"F.	c #328812",
"G.	c #567099",
"H.	c #587291",
"I.	c #009B00",
"J.	c #009B09",
"K.	c #B75E51",
"L.	c #079D00",
"M.	c #EE5258",
"N.	c #00A200",
"O.	c #0D9B23",
"P.	c #0E9F00",
"Q.	c #DD5959",
"R.	c #00A026",
"S.	c #389116",
"T.	c #2F9413",
"U.	c #00A404",
"V.	c #6270E8",
"W.	c #00A500",
"X.	c #00A416",
"Y.	c #0CA113",
"Z.	c #C16657",
"`.	c #06A700",
" +	c #00A80C",
".+	c #00A71B",
"++	c #B96A57",
"@+	c #00AB00",
"#+	c #627F9D",
"$+	c #00AD00",
"%+	c #0FA900",
"&+	c #40981B",
"*+	c #657FA8",
"=+	c #389B1D",
"-+	c #00AF03",
";+	c #13AA00",
">+	c #00B107",
",+	c #C56F61",
"'+	c #0BB200",
")+	c #40A017",
"!+	c #00B600",
"~+	c #00B800",
"{+	c #09B40E",
"]+	c #ED6869",
"^+	c #D67268",
"/+	c #00BC04",
"(+	c #00BB17",
"_+	c #6F8CA9",
":+	c #14B714",
"<+	c #CD786B",
"[+	c #0CBD00",
"}+	c #00C100",
"|+	c #01C00D",
"1+	c #EB7369",
"2+	c #7A8CC3",
"3+	c #748FB8",
"4+	c #7996BE",
"5+	c #7D93D1",
"6+	c #DC877A",
"7+	c #7F9CBC",
"8+	c #D79681",
"9+	c #8EA9DC",
"0+	c #8EAAD4",
"a+	c #8EACCC",
"b+	c #9AB5DF",
"c+	c #9FBBDF",
"d+	c #A3BCF4",
"e+	c #A3BFDC",
"f+	c #A4C0F1",
"g+	c #A4C1EC",
"h+	c #A9C5E9",
"i+	c #AEC6F2",
"j+	c #ACC9FB",
"k+	c #AFC8FF",
"l+	c #ADCDF8",
"m+	c #B6CAFD",
"n+	c #B1CDF2",
"o+	c #B0CEEC",
"p+	c #B4CCF8",
"q+	c #B0CDFF",
"r+	c #B8CCF2",
"s+	c #ACD0F3",
"t+	c #B3D0FF",
"u+	c #B1D2FC",
"v+	c #B6D2F7",
"w+	c #B9D1FD",
"x+	c #B7D6F3",
"y+	c #BCD4FF",
"z+	c #C3D7FE",
"A+	c #BEDAFF",
"B+	c #C3DEFC",
"C+	c #CCDCFD",
"D+	c #C9E3FF",
"E+	c #D2EEFF",
"F+	c #D6F3FE",
"p p c r p v d d p v D.P.b.v.N.L.h.v.L.O.{ = @ = & - , % { o.w+q+",
"p p c r p v c c p L P.L.b.v.N.L.n.x.L.R.{ = @ = & > @ - { o.w+q+",
"v p c k p p f k p v L.L.b.x.U.L.n.C.P.O.{ = @ = & > @ - { m.h+u+",
"v p c k u p h k T L D.N.b.x.U.L.n.C.N.R.6 = @ = & = @ > ) o.x+[.",
"u p G g w s r k p u N.L.h.x.%+N.n.C.U.R.) = @ = ) = @ > ) m.v+l+",
"w u c m w s r k v u %+L.g.x.%+N.n.C.N.Y.{ = @ = ) = @ > ) m.u+p+",
"p s k g w s r k p p D.L.g.x.%+U.t.C.N.A.) = @ = ) = @ > ) m.u+p+",
"t T r l w p r k p V %+P.g.C.%+N.n.D.N..+) = @ = ) = @ > ) m.u+p+",
"%.t r v w p r k p V %+P.g.C.%+N.n.D.N..+) = @ = ) = @ > ) m.u+p+",
"a x g l y x g g P L L.%+h.C.$+%+u.J.;+.+} & % { * = ; = ) o.y+#+",
"e.s g l y x g g I Y %+N.h.C.$+%+u.J.;+.+_ & % { * { % = ) 5.f+c+",
"~.s g l y x g g I L %+%+h.C.-+%+u.J.$+.+* ) ; { * { % = * q.q+l+",
"~.I g l y x g g  .Y U.%+h.C.-+%+u.J.$+.+* ) ; { * & % { * m.w+n+",
"$.s r p y w l l w V -+%+n.D.'+@+u.P.$+ +* ) ; & * ) % = * q.q+v+",
"7.w r v y w l l w V -+%+n.D.'+@+u.N.$+-+* ) % & * ) % = * q.q+v+",
"B D g v y w l l y w -+%+n.D.'+@+u.N.$+-+* ) % & * ) % = * y.y+7+",
"^+y g p O x l l w V $+W.n.D.~+$+v.N.$+$+* ) % & * ) % = * m.9+H.",
"z.D v v O x l l y V -+%+n.D.~+$+v.N.$+{+* ) % & * ) % = * V.A+u+",
"e.P v v J D l v O V '+%+n.L.~+$+x.N.-+ +' ) % ) ' ) % = * q.q+n+",
"%.u v v J D l v Z J -+%+n.L.~+$+x.N.-+{+3 ) % ) ' ) % = * q.q+l+",
"_.I v q J D l v O w '+;+n.L.~+-+x.U.-+>+' ( - ) ' ) % = * q.q+g+",
"~.x v q J D l v O V '+%+n.L.~+-+x.U.-+-+' ( - ) ' ) % = * m.j+n+",
"~.P r p J D t v E J ~+$+n.P.~+-+C.W.{+{+' * % ) ' ) - { ' 5.g+e+",
"(.E h v J D t v D J ~+$+n.P.~+'+C.W.{+{+' * % ) ' ) - & ' m.j+n+",
"x Z t v J D t v D J ~+$+n.P.~+'+C.W.{+{+' * % ) ' ) - & ' j.k+w+",
"y y p v E D t l D w @+$+n.P.~+'+C.%+~+ +' * % ) ' ( - & ' j.q+p+",
"E u s v E D t l D y ~+%+n.P.~+'+C.%+~+-+' * % ) ' ( - & ' q.q+n+",
"K K l p D K p v K y /+-+u.N./+~+D.%+~+:+: * - * : * > ) : :.q+A+",
"D K l p D K p v D J -+$+u.N./+~+D.%+~+(+' * - * : * > ) : 5.f+a+",
"D K l p D N p v D J /+-+u.N./+~+D.%+~+(+' * - * : * > ) : q.q+n+",
"D K l p D N p v D J /+-+u.N./+~+D.%+~+(+' * - * : * > ) : q.w+l+",
"E K t V K D v v Q *.'+'+v.U./+~+C.%+/+-+| } > * : * % ) ' m.w+l+"};
