/* XPM */
static char *magick[] = {
/* columns rows colors chars-per-pixel */
"32 32 81 1",
"  c #2e2a22",
". c #3e3b2f",
"X c #3e3b30",
"o c #504d40",
"O c #514d40",
"+ c #535042",
"@ c #585546",
"# c #595449",
"$ c #5d5a48",
"% c #64614c",
"& c #64614d",
"* c #65614c",
"= c #66624e",
"- c #7e7760",
"; c #5c9000",
": c #5d9000",
"> c #609200",
", c #029088",
"< c #029289",
"1 c #3f9088",
"2 c #419189",
"3 c #529389",
"4 c #53948a",
"5 c #569289",
"6 c #759889",
"7 c #bc0000",
"8 c #bc0400",
"9 c #bc170a",
"0 c #bc180a",
"q c #bc1d0f",
"w c #847e64",
"e c #bc5143",
"r c #bc644c",
"t c #bc664e",
"y c #ca31bc",
"u c #ca35bc",
"i c #cf30cd",
"p c #cf35cd",
"a c #c95aa3",
"s c #c970a2",
"d c #c974a3",
"f c #849345",
"g c #889546",
"h c #8b9554",
"j c #848066",
"k c #848067",
"l c #868269",
"z c #9da56d",
"x c #abae7b",
"c c #abae7e",
"v c #acaf7f",
"b c #a29b80",
"n c #a29c80",
"m c #a69f84",
"M c #aba486",
"N c #ada789",
"B c #a1ae90",
"V c #a3af91",
"C c #a1b092",
"Z c #afb698",
"A c #b1a990",
"S c #b6af91",
"D c #b6af94",
"F c #b8b78f",
"G c #bab88e",
"H c #bcb598",
"J c #beb79a",
"K c #bebb96",
"L c #c989a2",
"P c #c99fa4",
"I c #c2af97",
"U c #c1b095",
"Y c #c2b299",
"T c #c2b29a",
"R c #c4bd9f",
"E c #c9a0a4",
"W c #c9a1a4",
"Q c #c9a8a4",
"! c #c9c2a2",
"~ c #c9c2a3",
"^ c #c9c2a4",
/* pixels */
"^^^^^^^^^^^^^^^^^^^^^^^^^^^^^^^^",
"^reeeeeeer^^^^^^^^^^^^^^^^^^^^^^",
"^08888888q^^^^^^^^^^^^^^^^^^^^^^",
"^08888888q^^^^^^^^^^^^^^^^^^^^^^",
"^08888888q^-^^^^^^^^^^^^^^^^^^^^",
"^08888888q^X^^^^^^^^^^^^^^^^^^^^",
"^08888888q^X^DR^^^^^^^^^^^^^^^^^",
"^08888888q^X^&l^^^^^^^^^^^^^^^^^",
"^08888888q^.^&k^^^^^^^^^^^^^^^^^",
"^97777777q^.^&k^^^^^^^^^^^^^^^^^",
"^TIIIIIUIT^X^&k^^^^^^^^^^^^^^^^^",
"^^^^w@@#@@@ ^&k^^^^^^^533333336^",
"^^^^HMMNMMMS^&k^^^^^^^,<<<<<<<1^",
"^^^^^^^mbbnnb$k^^^^^^^,<<<<<<<1^",
"^^^^^^H+OOOOOOA^^^^^^^<<<<<<<<1^",
"^^^^^^^^^^^^^^^^^^^^^^<<<<<<<<1^",
"^^^^^^^^^^^^^^^^^^^^^^,<<<<<<<2^",
"^^^^^^^^^^^^^^^^^^^^^^,<<<<<<<1^",
"^^^^^^^^^^^^^^^^^^^^^^<<<<<<<<1^",
"^^^^^^^^^^^^^^^^^^^^^^<<<<<<<<1^",
"^^^^^^^^^^^^^^^^^^^^^^VCVVVVVVZ^",
"^^^^^^^^^^^FcccvccccK^WWPPPPPPQ^",
"^^^^^^^^^^^h;;;;;;;;z!yiiiiiiia^",
"^^^^^^^^^^^h>>>>>>>>z!upppppppa^",
"^^^^^^^^^^^h>>>>>>>>z!upppppppa^",
"^^^^^^^^^^^h>>>>>>>>z!upppppppa^",
"^^^^^^^^^^^h>>>>>>>>z!upppppppa^",
"^^^^^^^^^^^h>>>>>>>>z!upppppppa^",
"^^^^^^^^^^^h>>>>>>>>z!upppppppa^",
"^^^^^^^^^^^h>>>>>>>>z!upppppppa^",
"^^^^^^^^^^^xfffgffffF!dsssssssL^",
"^^^^^^^^^^^^^^^^^^^^^^^^^^^^^^^^"
};
