/* XPM */
static char *render_BA_geometry_mesh_xpm[]={
"32 32 220 2",
"      c #B9B9B9",
" 0    c #B8B8B8",
" 1    c #C1C1C1",
" 2    c #AFAFAF",
" 3    c #2B2B2B",
" 4    c #000000",
" 5    c #333333",
" 6    c #C3C3C3",
" 7    c #737373",
" 8    c #929292",
" 9    c #C2C2C2",
" a    c #C5C5C5",
" b    c #6C6C6C",
" c    c #050505",
" d    c #1A1A1A",
" e    c #2A2A2A",
" f    c #BFBFBF",
" g    c #9A9A9A",
" h    c #292929",
" i    c #080808",
" j    c #797979",
" k    c #B0B0B0",
" l    c #1F1F1F",
" m    c #222222",
" n    c #3D3D3D",
" o    c #181818",
" p    c #B6B6B6",
" q    c #BBBBBB",
" r    c #BABABA",
" s    c #BDBDBD",
" t    c #262626",
" u    c #252525",
" v    c #C8C8C8",
" w    c #919191",
" x    c #6E6E6E",
" y    c #7A7A7A",
" z    c #060606",
" A    c #ADADAD",
" B    c #BCBCBC",
" C    c #C0C0C0",
" D    c #505050",
" E    c #3C3C3C",
" F    c #AAAAAA",
" G    c #C4C4C4",
" H    c #1E1E1E",
" I    c #8C8C8C",
" J    c #030303",
" K    c #949494",
" L    c #020202",
" M    c #4F4F4F",
" N    c #0C0C0C",
" O    c #454545",
" P    c #8B8B8B",
" Q    c #ABABAB",
" R    c #878787",
" S    c #131313",
" T    c #0D0D0D",
" U    c #868686",
" V    c #C9C9C9",
" W    c #CFCFCF",
" X    c #5B5B5B",
" Y    c #474747",
" Z    c #8A8A8A",
" &    c #1C1C1C",
"0     c #272727",
"00    c #B2B2B2",
"01    c #ACACAC",
"02    c #8D8D8D",
"03    c #2D2D2D",
"04    c #999999",
"05    c #202020",
"06    c #A9A9A9",
"07    c #848484",
"08    c #0A0A0A",
"09    c #242424",
"0a    c #BEBEBE",
"0b    c #898989",
"0c    c #2F2F2F",
"0d    c #191919",
"0e    c #070707",
"0f    c #CCCCCC",
"0g    c #CACACA",
"0h    c #6A6A6A",
"0i    c #141414",
"0j    c #909090",
"0k    c #979797",
"0l    c #444444",
"0m    c #A1A1A1",
"0n    c #404040",
"0o    c #4B4B4B",
"0p    c #7C7C7C",
"0q    c #9C9C9C",
"0r    c #090909",
"0s    c #757575",
"0t    c #A7A7A7",
"0u    c #2E2E2E",
"0v    c #585858",
"0w    c #CECECE",
"0x    c #6F6F6F",
"0y    c #B7B7B7",
"0z    c #3B3B3B",
"0A    c #0E0E0E",
"0B    c #5A5A5A",
"0C    c #313131",
"0D    c #C6C6C6",
"0E    c #5E5E5E",
"0F    c #A5A5A5",
"0G    c #7D7D7D",
"0H    c #040404",
"0I    c #151515",
"0J    c #494949",
"0K    c #1B1B1B",
"0L    c #545454",
"0M    c #0F0F0F",
"0N    c #5D5D5D",
"0O    c #353535",
"0P    c #111111",
"0Q    c #787878",
"0R    c #515151",
"0S    c #2C2C2C",
"0T    c #B4B4B4",
"0U    c #D0D0D0",
"0V    c #8F8F8F",
"0W    c #424242",
"0X    c #161616",
"0Y    c #010101",
"0Z    c #727272",
"0&    c #CDCDCD",
"1     c #707070",
"10    c #1D1D1D",
"11    c #0B0B0B",
"12    c #464646",
"13    c #696969",
"14    c #363636",
"15    c #5C5C5C",
"16    c #676767",
"17    c #3A3A3A",
"18    c #A2A2A2",
"19    c #B3B3B3",
"1a    c #3F3F3F",
"1b    c #656565",
"1c    c #9B9B9B",
"1d    c #858585",
"1e    c #C7C7C7",
"1f    c #A8A8A8",
"1g    c #555555",
"1h    c #7B7B7B",
"1i    c #959595",
"1j    c #CBCBCB",
"1k    c #4A4A4A",
"1l    c #4E4E4E",
"1m    c #595959",
"1n    c #9F9F9F",
"1o    c #3E3E3E",
"1p    c #AEAEAE",
"1q    c #4D4D4D",
"1r    c #A6A6A6",
"1s    c #323232",
"1t    c #646464",
"1u    c #B1B1B1",
"1v    c #232323",
"1w    c #767676",
"1x    c #565656",
"1y    c #888888",
"1z    c #535353",
"1A    c #282828",
"1B    c #303030",
"1C    c #525252",
"1D    c #212121",
"1E    c #575757",
"1F    c #969696",
"1G    c #808080",
"1H    c #616161",
"1I    c #9E9E9E",
"1J    c #7E7E7E",
"1K    c #686868",
"1L    c #989898",
"1M    c #8E8E8E",
"1N    c #9D9D9D",
"1O    c #838383",
"1P    c #E2E2E2",
"1Q    c #E5E5E5",
"1R    c #E4E4E4",
"1S    c #E1E1E1",
"1T    c #D8D8D8",
"1U    c #E7E7E7",
"1V    c #F6F6F6",
"1W    c #FBFBFB",
"1X    c #DDDDDD",
"1Y    c #484848",
"1Z    c #D7D7D7",
"1&    c #D4D4D4",
"2     c #E9E9E9",
"20    c #EFEFEF",
"21    c #F3F3F3",
"22    c #D6D6D6",
"23    c #DADADA",
"24    c #E3E3E3",
"25    c #DEDEDE",
"26    c #A0A0A0",
"27    c #D1D1D1",
"28    c #F9F9F9",
"29    c #EAEAEA",
"2a    c #F2F2F2",
"2b    c #747474",
"2c    c #F4F4F4",
"2d    c #E8E8E8",
"2e    c #FEFEFE",
"2f    c #FFFFFF",
"2g    c #414141",
"2h    c #828282",
"2i    c #818181",
"2j    c #A4A4A4",
"2k    c #7F7F7F",
"2l    c #EEEEEE",
"2m    c #FCFCFC",
"2n    c #B5B5B5",
"2o    c #F5F5F5",
"2p    c #939393",
"2q    c #EBEBEB",
"       0 1 2 3 4 5 1       6 7 4 8 9 a b c d e f f g h i j 9 f  ",
"     0 1 k l m n o p q     r s t u v w 4 x y z A B C r D 4 E F G",
"   0 1 k H H   I J F s       9 K L M N O v P z Q s   B G R S T U",
" 0 1 k H H k V U z A s       r W X 4 e C a U z Q s       G s Y 4",
" 6 k H H k 1 1 Z J g C     f 9 y & 40 00 v U z01 s   r 9 f0203 4",
"04 l05 k 1 0 s06 c07 9 q a06 E 40  J08090a0b c060a 9 f0b 3 40c0d",
"0e m k0f 9 f f Q z0b0g0a0h0e0i0j 8080k i0l0m z 8 v0b 3 4 30b v0n",
" c i050o0p0q B 00r0s0t0u 40v000w0x z0y0k z0z0A0B0C 4 30b f 90D0E",
"0F0G0o &0H 40I0J0I0K08 m K0D s a0L050a a040M 4 4 3 K G 6 r   a0N",
"0a 6 a q F I X 4 4 40O f0D 0   6 n h 1 a g0P 4 4 m0Q06 1 G s a X",
"       r0D B0R0e0S J J Y0T 9 0 C m M0U0V0e0W0O0X0W0Y0Y0C0Z0t0&1 ",
"     q0D0j0i N0V0V0r0x0M1004 v00111  y 4120&130M s F0Z0C0Y0Y1415",
"   f f16 417 F V180H0j000u L0s190A1a 41b f a P L1c G G 10t 7 30e",
" a060u 416 C f B A z1d v0a0B 40c0e i0Z1e q s1f J j 6     s0& 11g",
"1h N101i a q   s Q z U 9 q1j1d 4 41k B a f r q o0R a  0a G K e 4",
" 41l s G       s Q z U 9 C k0n 4 N z111m1n 90f1o h 9 a1p1q 4 h 8",
" 4 502 f 9 r   s F c R V k05 o 5031r0B11 41s 81t0A0T0s11110Z s 9",
"0r u 4 30b f 9 s1u11 b B H H B151v0D G1u1w e 40P0r e z1x k a r  ",
" 41y 8 3 4 31y f0g 30O m05 k0&1z u C   B G C04 l 4 40I0b q a0a  ",
"1A 51e s U0u L0C0j1B 40c A0a 61C1D f     s C1E08080c14 40X1t0t 6",
"1h1D1F0601 F1G E0X0H1A0T0T06 0 x08 A B f q0l c0Q o1H1j g120e0Y n",
"1I161J02 Z P0j1c1m t1v1K1L1M1N1O0X F0D 2 u z0k  0H1O 6 C G01 x05",
" I f1P1Q1R1S B1y1w w021K041P A j e000F H H181e1f c1d 9     s G C",
"1d1T1U06010y1V f R1c g1d0g1W1X0p1Y1O0r u 2 6 1 Z J g C     q G0m",
"071Z1&0p1O0s 62  R K0V1M20 p21040L0X Y r f 0 9 R z A s   C0a0h J",
"072223 R0G1y240D R0V U19201O251j0E1x0a 6     61h J F0a a260u 40v",
"07272829242a1V K1J0Q1G1P0a2b062c070v1E g 6 C a0L d C G0Z J1D K0D",
"1d2223 R y U0&2d0b1G1L2e1T v272f191h2g080W0q0U0v 300 E 40B   9  ",
"2h1Z222i1d1G K2f2j2k a2l1e0w1e1S1P0b1L 7 o J1l0S0P0M S R a B    ",
"2i1Z221G U07  2m1i1y2a0y0p1d0G1I2f1I02 p s1z 4 4 41l2n 6        ",
"1d1&28241R1U2o r2k 22m2p1y Z0b U2q1&1y070z0e0I1C0M1l 9 r        ",
"0j0q F1p1p Q1F1d1y04261y I P R U g2j0s0S e1w001j 80H D 9        "};
