/* XPM */
static char *magick[] = {
/* columns rows colors chars-per-pixel */
"32 32 182 2",
"   c Gray19",
".  c #313131",
"X  c #323232",
"o  c Gray20",
"O  c #343434",
"+  c #353535",
"@  c Gray21",
"#  c #373737",
"$  c Gray22",
"%  c #393939",
"&  c #3a3a3a",
"*  c Gray23",
"=  c #3c3c3c",
"-  c Gray24",
";  c #3e3e3e",
":  c #3f3f3f",
">  c Gray25",
",  c #414141",
"<  c Gray26",
"1  c #434343",
"2  c #444444",
"3  c Gray27",
"4  c #464646",
"5  c Gray28",
"6  c #484848",
"7  c #494949",
"8  c Gray29",
"9  c #4b4b4b",
"0  c #4c4c4c",
"q  c Gray30",
"w  c #4e4e4e",
"e  c Gray31",
"r  c #505050",
"t  c #515151",
"y  c Gray32",
"u  c #535353",
"i  c Gray33",
"p  c #555555",
"a  c #565656",
"s  c Gray34",
"d  c #585858",
"f  c Gray35",
"g  c #5a5a5a",
"h  c #5b5b5b",
"j  c Gray36",
"k  c #5d5d5d",
"l  c Gray37",
"z  c #5f5f5f",
"x  c Gray38",
"c  c #626262",
"v  c Gray39",
"b  c #646464",
"n  c #656565",
"m  c Gray40",
"M  c #676767",
"N  c Gray41",
"B  c #6a6a6a",
"V  c Gray42",
"C  c #6c6c6c",
"Z  c #6d6d6d",
"A  c Gray43",
"S  c #6f6f6f",
"D  c Gray44",
"F  c #717171",
"G  c #727272",
"H  c Gray45",
"J  c #747474",
"K  c Gray46",
"L  c #767676",
"P  c #777777",
"I  c Gray47",
"U  c Gray48",
"Y  c #7c7c7c",
"T  c Gray49",
"R  c Gray",
"E  c Gray50",
"W  c #818181",
"Q  c Gray51",
"!  c #838383",
"~  c #848484",
"^  c Gray52",
"/  c #868686",
"(  c Gray53",
")  c #888888",
"_  c #8b8b8b",
"`  c Gray55",
"'  c #8d8d8d",
"]  c #8e8e8e",
"[  c Gray56",
"{  c #909090",
"}  c #939393",
"|  c Gray58",
" . c #959595",
".. c Gray59",
"X. c #979797",
"o. c Gray60",
"O. c #9b9b9b",
"+. c Gray61",
"@. c #9f9f9f",
"#. c #a0a0a0",
"$. c Gray63",
"%. c #a2a2a2",
"&. c #a4a4a4",
"*. c #a5a5a5",
"=. c Gray65",
"-. c #a7a7a7",
";. c Gray66",
":. c #a9a9a9",
">. c #aaaaaa",
",. c Gray67",
"<. c #acacac",
"1. c Gray68",
"2. c #aeaeae",
"3. c #afafaf",
"4. c Gray69",
"5. c #b1b1b1",
"6. c #b2b2b2",
"7. c Gray70",
"8. c #b4b4b4",
"9. c Gray71",
"0. c #b6b6b6",
"q. c #b7b7b7",
"w. c Gray72",
"e. c #b9b9b9",
"r. c Gray73",
"t. c #bbbbbb",
"y. c #bcbcbc",
"u. c Gray74",
"i. c #bebebe",
"p. c Gray75",
"a. c #c0c0c0",
"s. c #c1c1c1",
"d. c Gray76",
"f. c #c3c3c3",
"g. c Gray77",
"h. c #c5c5c5",
"j. c #c6c6c6",
"k. c Gray78",
"l. c #c8c8c8",
"z. c Gray79",
"x. c #cacaca",
"c. c #cbcbcb",
"v. c Gray80",
"b. c #cecece",
"n. c Gray81",
"m. c #d0d0d0",
"M. c Gray82",
"N. c #d2d2d2",
"B. c #d3d3d3",
"V. c Gray83",
"C. c #d5d5d5",
"Z. c Gray85",
"A. c Gray86",
"S. c #dddddd",
"D. c Gray88",
"F. c #e2e2e2",
"G. c Gray89",
"H. c #e4e4e4",
"J. c Gray90",
"K. c #e6e6e6",
"L. c #e7e7e7",
"P. c Gray91",
"I. c #e9e9e9",
"U. c #eaeaea",
"Y. c Gray92",
"T. c Gray93",
"R. c #eeeeee",
"E. c #efefef",
"W. c Gray94",
"Q. c Gray95",
"!. c #f3f3f3",
"~. c Gray96",
"^. c #f6f6f6",
"/. c Gray97",
"(. c #f8f8f8",
"). c #f9f9f9",
"_. c Gray98",
"`. c #fbfbfb",
"'. c Gray99",
"]. c #fdfdfd",
"[. c #fefefe",
"{. c Gray100",
/* pixels */
"{.{.{.{.{.{.{.{.{.{.{.{.{.{.{.{.{.{.{.{.{.{.{.{.{.{.{.{.{.{.{.{.",
"{.{.{.{.{.{.{.{.{.{.{.{.{.{.{.{.{.{.{.{.{.{.{.{.{.{.{.{.{.{.{.{.",
"{.{.{.{.{.{.{.{.{.{.{.{.{.{.{.{.{.{.{.{.{.{.{.{.{.{.{.{.{.{.{.{.",
"{.{.{.{.{.{.{.{.{.{.{.{.{.{.{.{.{.{.{.{.{.{.{.{.{.{.{.{.{.{.{.{.",
"{.{.{.{.{.{.{.{.{.{._.W.E.P.P.P.P.P.E.W./._.{.{.{.{.{.{.{.{.{.{.",
"{.{.{.{.{.{.{.E.D.C.n.n.B.B.B.B.B.B.B.B.B.B.S.P._.{.{.{.{.{.{.{.",
"{.{.{.{.{.E.n.u.u.u.s.h.h.l.n.n.n.n.l.l.h.s.s.u.h.Z./.{.{.{.{.{.",
"{.{.{.{.Z.4.,.1.4.0.t.u.s.h.l.l.l.l.h.s.s.u.t.0.4.4.u.H.{.{.{.{.",
"{.{./.h.#.+.+.#.*.1.4.t.s.s.h.h.h.h.s.u.t.0.1.,.*.#.#.,.C.{.{.{.",
"{.{.h. .' ' '  .+.*.1.0.u.s.h.l.l.h.h.u.0.4.,.#.o. .{  .+.n.{.{.",
"{.H.{ / Q Y Q / { +.,.0.u.h.l.n.n.l.h.u.0.,.+. .' / / / _ o.P.{.",
"_.*.Q U J D D J Y ' *.0.s.l.B.C.C.B.l.s.0.*. ./ Y U J U Y _ ,._.",
"D./ U D N n n n N J o.s.Z.E.W./._.E.H.B.t.+.Y D N N Z Z J Y ' D.",
"s.Y D n x j g g a g N ,.E.{.{.{.{.{.{.H.1.D j j j j x n N D Y u.",
"1.J N x g a t 0 0 0 7 0 n _ *.4.t.0.#.Q g 0 t t a a g j n Z J ,.",
"#.D n j a t 0 7 4 1 1 1 1 1 1 1 1 1 1 1 1 4 4 7 7 0 t g j N D o.",
"1.Z x g t 0 7 4 1 1 ; ; $ $ $ $ $ $ $ $ ; ; 1 1 4 7 0 a g x Z +.",
"s.Z j a 0 7 4 1 ; $ $ $ O O O o O O O $ $ ; ; 1 1 4 0 t g x Z 0.",
"E.J x a 0 7 1 ; ; $ O O O O o o o o O O O $ $ ; 1 4 7 t a x Z n.",
"{.,.x a 0 7 1 ; $ $ O O o o o o o o o O O O $ ; 1 4 7 0 a x _ /.",
"{.E.Y g 0 7 1 ; $ $ O o o o o   o o o o O O $ ; 1 4 7 t g n l.{.",
"{.{.C.Z a 0 4 1 ; $ O O o o o   o   o o O O $ ; 1 4 0 t g t.{.{.",
"{.{.{.B.N 0 7 1 ; $ $ O O O o o o o o O O $ ; ; 1 7 0 g #.{.{.{.",
"{.{.{.{.H./ t 7 1 1 $ $ O O O O o O O O $ ; ; 1 7 0 x t.{.{.{.{.",
"{.{.{.{.{._.4.n 7 4 1 ; $ $ $ $ $ $ $ $ ; 1 4 7 t Q D.{.{.{.{.{.",
"{.{.{.{.{.{.{./.t.Y t 4 1 1 ; ; ; ; 1 1 4 7 x  .C.{.{.{.{.{.{.{.",
"{.{.{.{.{.{.{.{.{.{.P.h.*._ Y D D J /  .4.B./.{.{.{.{.{.{.{.{.{.",
"{.{.{.{.{.{.{.{.{.{.{.{.{.{.{.{.{.{.{.{.{.{.{.{.{.{.{.{.{.{.{.{.",
"{.{.{.{.{.{.{.{.{.{.{.{.{.{.{.{.{.{.{.{.{.{.{.{.{.{.{.{.{.{.{.{.",
"{.{.{.{.{.{.{.{.{.{.{.{.{.{.{.{.{.{.{.{.{.{.{.{.{.{.{.{.{.{.{.{.",
"{.{.{.{.{.{.{.{.{.{.{.{.{.{.{.{.{.{.{.{.{.{.{.{.{.{.{.{.{.{.{.{.",
"{.{.{.{.{.{.{.{.{.{.{.{.{.{.{.{.{.{.{.{.{.{.{.{.{.{.{.{.{.{.{.{."
};
