/* XPM */
static char *magick[] = {
/* columns rows colors chars-per-pixel */
"32 32 157 2",
"   c Gray0",
".  c #010105",
"X  c #03030d",
"o  c #020209",
"O  c #040411",
"+  c #060616",
"@  c #07071a",
"#  c #08081b",
"$  c #09091e",
"%  c #0b0b21",
"&  c #0d0d26",
"*  c #0e0e28",
"=  c #11112e",
"-  c #131331",
";  c #161632",
":  c #171737",
">  c #181833",
",  c #191939",
"<  c #1b1b3c",
"1  c #1c1c3e",
"2  c #1e1e41",
"3  c #222242",
"4  c #222246",
"5  c #262644",
"6  c #232348",
"7  c #25254a",
"8  c #27274c",
"9  c #292948",
"0  c #2c2c53",
"q  c #2e2e55",
"w  c #2a2a51",
"e  c #333350",
"r  c #343451",
"t  c #313159",
"y  c #373758",
"u  c #36365e",
"i  c #383858",
"p  c #393961",
"a  c #3b3b64",
"s  c #3e3e67",
"d  c #3f3f68",
"f  c #41416a",
"g  c #43436c",
"h  c #46466f",
"j  c #4e4e66",
"k  c #474770",
"l  c #4a4a73",
"z  c #4b4b74",
"x  c #4d4d76",
"c  c #4f4f78",
"v  c #56566d",
"b  c #505071",
"n  c #51517a",
"m  c #53537c",
"M  c #55557e",
"N  c #606075",
"B  c #69697f",
"V  c #575780",
"C  c #595982",
"Z  c #5b5b84",
"A  c #5e5e86",
"S  c #616189",
"D  c #65658d",
"F  c #6c6c84",
"G  c #6a6a91",
"H  c #6c6c93",
"J  c #6f6f96",
"K  c #727283",
"L  c #767685",
"P  c #70708f",
"I  c #79798e",
"U  c #7e7e8b",
"Y  c #7f7f8c",
"T  c #707097",
"R  c #737399",
"E  c #75759b",
"W  c #77779c",
"Q  c #79799e",
"!  c #7b7ba0",
"~  c #7d7da2",
"^  c #818190",
"/  c #818197",
"(  c #8d8d9b",
")  c #8d8d9f",
"_  c #8181a0",
"`  c #8181a5",
"'  c #8686a9",
"]  c #8989ab",
"[  c #8a8aac",
"{  c #8d8daf",
"}  c #8f8fb0",
"|  c #9292ad",
" . c #9e9eab",
".. c #9191b2",
"X. c #9696b6",
"o. c #9898b7",
"O. c #9a9ab8",
"+. c #9c9cba",
"@. c #9e9ebc",
"#. c #a1a1a6",
"$. c #a5a5aa",
"%. c #a3a3b3",
"&. c #a6a6b5",
"*. c #a2a2be",
"=. c #a8a8b2",
"-. c #aeaeb1",
";. c #a8a8bc",
":. c #b1b1b3",
">. c #b2b2b4",
",. c #b5b5b7",
"<. c #b5b5b9",
"1. c #b8b8ba",
"2. c #bdbdbf",
"3. c #a6a6c2",
"4. c #aaaac0",
"5. c #aaaac4",
"6. c #adadc7",
"7. c #afafc9",
"8. c #b2b2ca",
"9. c #b6b6ce",
"0. c #babac2",
"q. c #b9b9cf",
"w. c #bbbbd1",
"e. c #bdbdd2",
"r. c #bfbfd4",
"t. c #c1c1c1",
"y. c #c7c7c9",
"u. c #c1c1cd",
"i. c #cbcbcf",
"p. c #c2c2d6",
"a. c #c5c5d8",
"s. c #c9c9db",
"d. c #cbcbdc",
"f. c #cecede",
"g. c #ceceda",
"h. c #d5d5da",
"j. c #dadadf",
"k. c #d2d2e1",
"l. c #d5d5e3",
"z. c #d7d7e5",
"x. c #dadae6",
"c. c #dcdce2",
"v. c #dedee6",
"b. c #dedee9",
"n. c #e0e0e6",
"m. c #e1e1ea",
"M. c #e3e3ed",
"N. c #e5e5eb",
"B. c #e5e5ee",
"V. c #eaeaf1",
"C. c #ededf3",
"Z. c #eeeef4",
"A. c #f2f2f6",
"S. c #f5f5f8",
"D. c #f9f9fb",
"F. c #fbfbfd",
"G. c Gray100",
/* pixels */
"t.t.t.t.t.t.t.t.t.t.t.t.t.t.t.t.t.t.t.t.t.t.t.t.t.t.t.t.t.t.t.t.",
"t.t.t.t.t.t.t.t.t.t.2.0.u.g.m.A.F.S.C.N.j.y.t.t.t.t.t.t.t.t.t.t.",
"t.t.t.t.t.t.t.t.<.&.4.e.f.b.Z.F.F.F.F.F.F.S.n.i.t.t.t.t.t.t.t.t.",
"t.t.t.t.t.t.t. .| @.8.a.l.m.Z.F.F.F.F.F.F.F.F.S.j.t.t.t.t.t.t.t.",
"t.t.t.t.t.,.) ` X.3.9.a.l.m.C.D.F.F.F.F.F.F.F.F.F.N.y.t.t.t.t.t.",
"t.t.t.t.,./ Q ] o.5.9.a.k.b.V.S.F.F.F.F.F.F.F.F.F.F.N.y.t.t.t.t.",
"t.t.t.t.I G Q ] X.3.8.p.f.x.B.A.F.F.F.F.F.F.F.F.F.F.F.N.t.t.t.t.",
"t.t.t.^ M G Q ' X.3.8.e.s.k.m.C.D.F.F.F.F.F.F.F.F.F.F.F.j.t.t.t.",
"t.t.$.b C D E ' ..@.5.9.a.f.b.B.A.F.F.F.F.F.F.F.F.F.F.F.S.i.t.t.",
"t.t.B f C D R ` } O.3.8.p.d.z.m.V.S.F.F.F.F.F.F.F.F.F.F.F.n.t.t.",
"t.-.y g n S J ! ] X.*.6.w.a.k.x.M.V.S.F.F.F.F.F.F.F.F.F.F.S.y.t.",
"t.Y 2 s x Z G E ` { O.3.8.e.s.k.x.B.C.S.F.F.F.F.F.F.F.F.F.F.h.t.",
"t.v 2 u k M S J ! ' ..@.5.9.p.d.k.x.m.V.A.S.D.F.F.F.F.F.F.F.c.t.",
"t.r , q f x C D R ! [ X.*.6.q.p.s.k.z.b.B.C.Z.A.S.D.F.F.F.S.n.t.",
"t.> - 8 p k m A G E ` [ X.*.7.9.e.a.f.k.x.m.B.B.V.C.Z.A.C.V.x.t.",
"t.+ & 2 t d l M S G W ` { X.*.5.8.w.p.a.f.z.x.b.b.m.M.B.M.b.k.t.",
"t.+ $ : 7 u f x M A G E ` [ X.@.3.6.9.w.p.s.f.k.k.z.l.l.l.k.p.t.",
"t.; + = 2 0 p f z M S G E ! ] ..O.*.3.7.9.w.r.a.a.d.s.s.s.p.8.t.",
"t.e o % : 4 q u f x M S G E ! ' { X.O.*.5.7.8.9.q.w.e.e.q.8.;.t.",
"t.v   + * , 4 q u f l M S G R ! ` ' ..X.@.*.3.5.5.6.7.7.5.*.%.t.",
"t.U   o # = , 7 q p f z M A D T E ! ` ] ..X.O.O.+.@.*.@.+.{ =.t.",
"t.-.3   X $ = < 7 q p g x M A D G J E ! ` ' { { } ....{ [ _ 1.t.",
"t.t.N     + % = < 7 t a g z M C A D G T E Q ! ! ` ` ` ` E ) t.t.",
"t.t.#.5   o + % ; 2 8 t p f l c m C A D G H T T R R R R P -.t.t.",
"t.t.t.K     X @ & ; 1 7 q u s h l n M V A S S D D D D A ( t.t.t.",
"t.t.t.t.v   . O @ & = , 4 w t p f h z x n M M V C V M I t.t.t.t.",
"t.t.t.t.-.j   . O + $ * : 3 8 t u a f g h k l z z l F >.t.t.t.t.",
"t.t.t.t.t.-.v   . o X @ & - , 6 8 0 t u u a s s u B :.t.t.t.t.t.",
"t.t.t.t.t.t.t.K 5   . o + # * - : < 3 6 7 8 6 i L t.t.t.t.t.t.t.",
"t.t.t.t.t.t.t.t.#.N 3   . o O + # % & & % 9 N #.t.t.t.t.t.t.t.t.",
"t.t.t.t.t.t.t.t.t.t.-.U v e ; + + ; e v U -.t.t.t.t.t.t.t.t.t.t.",
"t.t.t.t.t.t.t.t.t.t.t.t.t.t.t.t.t.t.t.t.t.t.t.t.t.t.t.t.t.t.t.t."
};
