/* XPM */
static char *render_BA_particle_density3_xpm[]={
"32 32 813 2",
"      c #000000",
" 0    c #020000",
" 1    c #070300",
" 2    c #150B00",
" 3    c #332500",
" 4    c #675C00",
" 5    c #A7A201",
" 6    c #CFCF01",
" 7    c #BEC205",
" 8    c #7F9618",
" 9    c #3C7B3F",
" a    c #14725D",
" b    c #055D58",
" c    c #003A3A",
" d    c #001B1B",
" e    c #000909",
" f    c #000202",
" g    c #020200",
" h    c #010100",
" i    c #010000",
" j    c #050000",
" k    c #110300",
" l    c #2B0D00",
" m    c #572E00",
" n    c #917100",
" o    c #D1C801",
" p    c #FDFD00",
" q    c #EAEC03",
" r    c #9DBF23",
" s    c #4BB76D",
" t    c #19C3AA",
" u    c #06AAA4",
" v    c #016D6B",
" w    c #003331",
" x    c #001210",
" y    c #000403",
" z    c #040400",
" A    c #080800",
" B    c #0A0A00",
" C    c #070700",
" D    c #040100",
" E    c #0A0000",
" F    c #220200",
" G    c #4F0C00",
" H    c #892900",
" I    c #B56400",
" J    c #D4B201",
" K    c #E9E301",
" L    c #D3D809",
" M    c #8DC238",
" N    c #42DA98",
" O    c #16FBE5",
" P    c #05E0DA",
" Q    c #00948E",
" R    c #004A41",
" S    c #001D15",
" T    c #000905",
" U    c #010201",
" V    c #070000",
" W    c #030000",
" X    c #060600",
" Y    c #101000",
" Z    c #1D1D00",
" &    c #272700",
"0     c #252500",
"00    c #1A1A00",
"01    c #0D0D00",
"02    c #080500",
"03    c #120100",
"04    c #340200",
"05    c #770800",
"06    c #C11A00",
"07    c #E34000",
"08    c #D77302",
"09    c #BF9606",
"0a    c #989B17",
"0b    c #5EA54C",
"0c    c #2BCFA4",
"0d    c #0EF2E3",
"0e    c #03DBD3",
"0f    c #009C88",
"0g    c #005F3E",
"0h    c #003114",
"0i    c #011504",
"0j    c #030700",
"0k    c #090200",
"0l    c #130000",
"0m    c #1C0000",
"0n    c #1D0000",
"0o    c #160000",
"0p    c #0C0000",
"0q    c #292900",
"0r    c #4C4C00",
"0s    c #646400",
"0t    c #606000",
"0u    c #434300",
"0v    c #222100",
"0w    c #100C00",
"0x    c #170400",
"0y    c #3E0300",
"0z    c #8A0700",
"0A    c #DB1001",
"0B    c #FD2102",
"0C    c #DC3705",
"0D    c #9E4A0C",
"0E    c #62561E",
"0F    c #326F47",
"0G    c #15987F",
"0H    c #07B7A3",
"0I    c #01B693",
"0J    c #00A35F",
"0K    c #00852B",
"0L    c #00580E",
"0M    c #022B03",
"0N    c #0A0F00",
"0O    c #1B0300",
"0P    c #360000",
"0Q    c #4E0000",
"0R    c #520000",
"0S    c #3D0000",
"0T    c #210000",
"0U    c #0D0000",
"0V    c #4B4B00",
"0W    c #8C8C00",
"0X    c #B9B900",
"0Y    c #B2B200",
"0Z    c #7B7B00",
"0&    c #3E3E00",
"1     c #1A1700",
"10    c #180A00",
"11    c #3B0B00",
"12    c #7C1301",
"13    c #BD1903",
"14    c #D61B08",
"15    c #B41D11",
"16    c #731F1C",
"17    c #3B2628",
"18    c #183939",
"19    c #085C4C",
"1a    c #028457",
"1b    c #00AC4B",
"1c    c #00CB2F",
"1d    c #00C516",
"1e    c #008E07",
"1f    c #054802",
"1g    c #131900",
"1h    c #360500",
"1i    c #6D0100",
"1j    c #9E0000",
"1k    c #A40000",
"1l    c #7C0000",
"1m    c #430000",
"1n    c #1A0000",
"1o    c #F6F600",
"1p    c #EDED00",
"1q    c #A4A400",
"1r    c #525200",
"1s    c #222000",
"1t    c #1D1400",
"1u    c #3C2100",
"1v    c #6C3602",
"1w    c #944306",
"1x    c #993C13",
"1y    c #75292B",
"1z    c #421747",
"1A    c #1D1254",
"1B    c #0A1C4D",
"1C    c #02383E",
"1D    c #006E31",
"1E    c #00B723",
"1F    c #00F414",
"1G    c #00F309",
"1H    c #01B003",
"1I    c #075900",
"1J    c #1C1E00",
"1K    c #4E0600",
"1L    c #9E0101",
"1M    c #E30001",
"1N    c #EC0101",
"1O    c #B20000",
"1P    c #610000",
"1Q    c #250000",
"1R    c #E3E300",
"1S    c #9D9D00",
"1T    c #4F5000",
"1U    c #242300",
"1V    c #272300",
"1W    c #504601",
"1X    c #877602",
"1Y    c #A59107",
"1Z    c #988018",
"1&    c #665345",
"2     c #302882",
"20    c #11169F",
"21    c #051A8A",
"22    c #013360",
"23    c #00643D",
"24    c #00A825",
"25    c #00E113",
"26    c #00E107",
"27    c #01A202",
"28    c #085200",
"29    c #1F1C01",
"2a    c #550702",
"2b    c #A60404",
"2c    c #ED0505",
"2d    c #F60505",
"2e    c #BA0303",
"2f    c #660101",
"2g    c #270000",
"2h    c #6D6E00",
"2i    c #383800",
"2j    c #212000",
"2k    c #333100",
"2l    c #706D01",
"2m    c #BCBA02",
"2n    c #E4E302",
"2o    c #CBC90F",
"2p    c #83824A",
"2q    c #3B3FAA",
"2r    c #1326DD",
"2s    c #0434C4",
"2t    c #005394",
"2u    c #007370",
"2v    c #00904D",
"2w    c #00A52A",
"2x    c #009C11",
"2y    c #026F05",
"2z    c #0A3802",
"2A    c #201604",
"2B    c #4D0D09",
"2C    c #8C1010",
"2D    c #BD1313",
"2E    c #C21111",
"2F    c #950B0B",
"2G    c #520505",
"2H    c #200201",
"2I    c #0C0C00",
"2J    c #212100",
"2K    c #4E4E00",
"2L    c #373700",
"2M    c #201F01",
"2N    c #1C1A02",
"2O    c #393602",
"2P    c #7E7C03",
"2Q    c #D1D102",
"2R    c #FFFF00",
"2S    c #E3E308",
"2T    c #919444",
"2U    c #424DAB",
"2V    c #153DE4",
"2W    c #0562D6",
"2X    c #0096C2",
"2Y    c #00AEB6",
"2Z    c #01A08F",
"2&    c #018152",
"3     c #045F22",
"30    c #0B3C0B",
"31    c #161E05",
"32    c #2B120A",
"33    c #521918",
"34    c #832928",
"35    c #A03231",
"36    c #9B2D2B",
"37    c #741C1C",
"38    c #3F0D0D",
"39    c #180404",
"3a    c #161600",
"3b    c #1D1C01",
"3c    c #181502",
"3d    c #161005",
"3e    c #201708",
"3f    c #3C330A",
"3g    c #6F680A",
"3h    c #AFAC08",
"3i    c #D2D305",
"3j    c #BAC00F",
"3k    c #76833F",
"3l    c #364D8C",
"3m    c #124FBC",
"3n    c #048BCA",
"3o    c #00D6E4",
"3p    c #00F1F3",
"3q    c #01C9C7",
"3r    c #058175",
"3s    c #114431",
"3t    c #25200F",
"3u    c #3B1109",
"3v    c #511512",
"3w    c #762D2C",
"3x    c #AA4C4A",
"3y    c #C75D5B",
"3z    c #B55250",
"3A    c #7C3533",
"3B    c #3E1818",
"3C    c #160808",
"3D    c #030300",
"3E    c #050500",
"3F    c #0B0902",
"3G    c #130B07",
"3H    c #23130F",
"3I    c #3C211A",
"3J    c #553520",
"3K    c #68501C",
"3L    c #7B7713",
"3M    c #83980D",
"3N    c #709C14",
"3O    c #477F31",
"3P    c #205A5E",
"3Q    c #0A5B87",
"3R    c #0294B0",
"3S    c #00DFE4",
"3T    c #00FBFB",
"3U    c #01CECE",
"3V    c #0B7B79",
"3W    c #2B3733",
"3X    c #5B1410",
"3Y    c #7F0B0A",
"3Z    c #8C1918",
"3&    c #A13B39",
"4     c #D46562",
"40    c #FB7C79",
"41    c #E06E6B",
"42    c #914644",
"43    c #44201F",
"44    c #160A0A",
"45    c #030101",
"46    c #0A0504",
"47    c #1E0F0E",
"48    c #462322",
"49    c #783C39",
"4a    c #954E45",
"4b    c #8C533D",
"4c    c #6F6428",
"4d    c #518B15",
"4e    c #38B210",
"4f    c #20B11C",
"4g    c #0E8933",
"4h    c #046956",
"4i    c #017B83",
"4j    c #00AAB2",
"4k    c #00BDC1",
"4l    c #049A9D",
"4m    c #185B5C",
"4n    c #4E2726",
"4o    c #9C0D0D",
"4p    c #CF0909",
"4q    c #CB1817",
"4r    c #BA3937",
"4s    c #D3615E",
"4t    c #F27774",
"4u    c #D76967",
"4v    c #894342",
"4w    c #3F1F1E",
"4x    c #140A0A",
"4y    c #0D0607",
"4z    c #2E1716",
"4A    c #6D3534",
"4B    c #BA5B59",
"4C    c #E3706D",
"4D    c #CA6960",
"4E    c #87683D",
"4F    c #46961D",
"4G    c #1FD90E",
"4H    c #0DE712",
"4I    c #05AF25",
"4J    c #016B44",
"4K    c #005466",
"4L    c #00617C",
"4M    c #01677B",
"4N    c #08545F",
"4O    c #243136",
"4P    c #671516",
"4Q    c #C30707",
"4R    c #FC0606",
"4S    c #EC1110",
"4T    c #BB2827",
"4U    c #AB4342",
"4V    c #B05250",
"4W    c #964947",
"4X    c #5F2E2D",
"4Y    c #2B1515",
"4Z    c #0E0707",
"4&    c #0F0707",
"5     c #341919",
"50    c #7B3C3B",
"51    c #D26664",
"52    c #FF7D7B",
"53    c #E3716D",
"54    c #926645",
"55    c #448E20",
"56    c #18CF0F",
"57    c #06D916",
"58    c #019735",
"59    c #004B62",
"5a    c #002B85",
"5b    c #002987",
"5c    c #01286B",
"5d    c #092043",
"5e    c #231320",
"5f    c #5F080C",
"5g    c #AF0203",
"5h    c #E10202",
"5i    c #D20808",
"5j    c #9C1413",
"5k    c #742121",
"5l    c #622928",
"5m    c #4D2423",
"5n    c #301717",
"5o    c #070403",
"5p    c #0D0606",
"5q    c #2B1514",
"5r    c #663130",
"5s    c #AC5452",
"5t    c #D26764",
"5u    c #BA5F59",
"5v    c #785439",
"5w    c #376B1B",
"5x    c #129212",
"5y    c #049022",
"5z    c #005854",
"5A    c #00209B",
"5B    c #000BCE",
"5C    c #000BC6",
"5D    c #010C8D",
"5E    c #05094A",
"5F    c #17061D",
"5G    c #3E0308",
"5H    c #700101",
"5I    c #910101",
"5J    c #870303",
"5K    c #620707",
"5L    c #3E0C0B",
"5M    c #2A0E0E",
"5N    c #1D0D0D",
"5O    c #110808",
"5P    c #080404",
"5Q    c #080303",
"5R    c #1B0C0C",
"5S    c #401D1C",
"5T    c #6C3130",
"5U    c #843D3B",
"5V    c #773B34",
"5W    c #4E3623",
"5X    c #253F15",
"5Y    c #0D5015",
"5Z    c #034B2E",
"5&    c #002B69",
"6     c #000CBD",
"60    c #0002FA",
"61    c #0002F1",
"62    c #0003A8",
"63    c #020654",
"64    c #0A071E",
"65    c #1C0507",
"66    c #330301",
"67    c #420100",
"68    c #3E0100",
"69    c #2C0101",
"6a    c #190303",
"6b    c #0E0404",
"6c    c #040202",
"6d    c #020101",
"6e    c #050101",
"6f    c #110505",
"6g    c #2A0C0C",
"6h    c #4A1514",
"6i    c #5F1A19",
"6j    c #5C1C18",
"6k    c #411E16",
"6l    c #21291A",
"6m    c #0C3425",
"6n    c #03333C",
"6o    c #012468",
"6p    c #0212A9",
"6q    c #0308DC",
"6r    c #0306D3",
"6s    c #020992",
"6t    c #02144A",
"6u    c #031A1A",
"6v    c #091607",
"6w    c #100D01",
"6x    c #150500",
"6y    c #140100",
"6z    c #130101",
"6A    c #320303",
"6B    c #600606",
"6C    c #850909",
"6D    c #85100F",
"6E    c #5D211E",
"6F    c #2D3B39",
"6G    c #0F5353",
"6H    c #065860",
"6I    c #074567",
"6J    c #0B2E79",
"6K    c #0F1F8B",
"6L    c #0F1D82",
"6M    c #0A2A5B",
"6N    c #05432E",
"6O    c #024E11",
"6P    c #014004",
"6Q    c #032401",
"6R    c #050F00",
"6S    c #060000",
"6T    c #190000",
"6U    c #470000",
"6V    c #8E0202",
"6W    c #C90706",
"6X    c #C61614",
"6Y    c #803937",
"6Z    c #336E6C",
"6&    c #0F9D9B",
"7     c #0AA5A1",
"70    c #14857E",
"71    c #246058",
"72    c #324F43",
"73    c #325437",
"74    c #246E26",
"75    c #129413",
"76    c #07A307",
"77    c #028202",
"78    c #004900",
"79    c #001D00",
"7a    c #010800",
"7b    c #000100",
"7c    c #1B0000",
"7d    c #500100",
"7e    c #A30401",
"7f    c #E70D07",
"7g    c #DE231B",
"7h    c #86544A",
"7i    c #2E9D95",
"7j    c #0CDCD3",
"7k    c #12E3D2",
"7l    c #2CB88F",
"7m    c #549445",
"7n    c #75921D",
"7o    c #769C10",
"7p    c #55B20B",
"7q    c #2DDD06",
"7r    c #10ED02",
"7s    c #04BC00",
"7t    c #006A00",
"7u    c #002A00",
"7v    c #000D00",
"7w    c #000301",
"7x    c #000201",
"7y    c #370000",
"7z    c #870900",
"7A    c #C41C07",
"7B    c #C13819",
"7C    c #7D6644",
"7D    c #36A58B",
"7E    c #13D9C4",
"7F    c #17DCBB",
"7G    c #44BB74",
"7H    c #8AB52C",
"7I    c #C4CF0A",
"7J    c #C8D704",
"7K    c #91D204",
"7L    c #4CEB03",
"7M    c #1CF701",
"7N    c #07C500",
"7O    c #016F00",
"7P    c #002D00",
"7Q    c #000F01",
"7R    c #000903",
"7S    c #010B06",
"7T    c #010D07",
"7U    c #010C07",
"7V    c #010804",
"7W    c #000402",
"7X    c #707070",
"7Y    c #C0C0C0",
"7Z    c #C6C6C6",
"7&    c #C7C6C6",
"8     c #C3BEBE",
"80    c #8A716D",
"81    c #5A1601",
"82    c #8D3803",
"83    c #9E5F0E",
"84    c #857D25",
"85    c #4D914C",
"86    c #51B591",
"87    c #CAF1E8",
"88    c #83B779",
"89    c #99B213",
"8a    c #EBEC01",
"8b    c #F2F301",
"8c    c #B2D207",
"8d    c #5DC607",
"8e    c #22C103",
"8f    c #099601",
"8g    c #015400",
"8h    c #002402",
"8i    c #011205",
"8j    c #02170C",
"8k    c #032514",
"8l    c #032D19",
"8m    c #032816",
"8n    c #021A0E",
"8o    c #AAAAAA",
"8p    c #CACACA",
"8q    c #4E4E4E",
"8r    c #676664",
"8s    c #E9EBEB",
"8t    c #A19175",
"8u    c #745900",
"8v    c #AA9C04",
"8w    c #AEAD09",
"8x    c #748C0E",
"8y    c #B1C4A1",
"8z    c #F7F5F5",
"8A    c #CAD3BE",
"8B    c #7F8F1B",
"8C    c #CACD0F",
"8D    c #D4D60E",
"8E    c #9DAF17",
"8F    c #528A14",
"8G    c #1E7409",
"8H    c #085402",
"8I    c #012F01",
"8J    c #001803",
"8K    c #021A0C",
"8L    c #04341C",
"8M    c #075730",
"8N    c #086B3B",
"8O    c #085F34",
"8P    c #053D21",
"8Q    c #021C0F",
"8R    c #010905",
"8S    c #A8A8A8",
"8T    c #A1A1A1",
"8U    c #83827E",
"8V    c #E4E3D0",
"8W    c #807A00",
"8X    c #CDCC00",
"8Y    c #D8D900",
"8Z    c #A5A910",
"8&    c #EBEBDE",
"9     c #7A887A",
"90    c #E6E8E7",
"91    c #727969",
"92    c #777B48",
"93    c #84884C",
"94    c #636D46",
"95    c #344D2E",
"96    c #143613",
"97    c #052305",
"98    c #011401",
"99    c #011106",
"9a    c #032714",
"9b    c #0C9552",
"9c    c #0EB664",
"9d    c #0DA159",
"9e    c #096739",
"9f    c #042F1A",
"9g    c #010F08",
"9h    c #A6A6A6",
"9i    c #AFAFAF",
"9j    c #171717",
"9k    c #282827",
"9l    c #C2C2C1",
"9m    c #A5A484",
"9n    c #777600",
"9o    c #C6C601",
"9p    c #CACB00",
"9q    c #C9C95D",
"9r    c #DFE0DE",
"9s    c #1C2318",
"9t    c #BDBFC3",
"9u    c #A3A5CF",
"9v    c #292F97",
"9w    c #3B44A1",
"9x    c #2D3A7E",
"9y    c #182749",
"9z    c #09171E",
"9A    c #020D09",
"9B    c #000803",
"9C    c #010F07",
"9D    c #12DF7A",
"9E    c #10C66D",
"9F    c #0A7E46",
"9G    c #043A20",
"9H    c #01120A",
"9I    c #9A9A9A",
"9J    c #F3F3F3",
"9K    c #DBDBDB",
"9L    c #EBEBEB",
"9M    c #EEEEEC",
"9N    c #3F3F22",
"9O    c #535306",
"9P    c #8B8B0B",
"9Q    c #8A8A04",
"9R    c #E3E3C2",
"9S    c #88887C",
"9T    c #4D5072",
"9U    c #E6E7FA",
"9V    c #1A2EB9",
"9W    c #0F31BA",
"9X    c #0E3896",
"9Y    c #082C5D",
"9Z    c #031A2B",
"9&    c #000B0F",
"a     c #000604",
"a0    c #0EAF60",
"a1    c #09703D",
"a2    c #04331C",
"a3    c #011109",
"a4    c #212121",
"a5    c #969698",
"a6    c #D4D4D4",
"a7    c #333334",
"a8    c #3C3C2E",
"a9    c #61614D",
"aa    c #FEFEFB",
"ab    c #B6B6AE",
"ac    c #909197",
"ad    c #9C9EB4",
"ae    c #FFFFFF",
"af    c #577DBC",
"ag    c #004FA0",
"ah    c #036C9E",
"ai    c #015C78",
"aj    c #003744",
"ak    c #00171B",
"al    c #000808",
"am    c #053D22",
"an    c #0A7E45",
"ao    c #09703E",
"ap    c #064827",
"aq    c #032112",
"ar    c #A7A7A7",
"as    c #A5A5A5",
"at    c #191929",
"au    c #FDFDFD",
"av    c #43438A",
"aw    c #030372",
"ax    c #8E8EC0",
"ay    c #DCDCE5",
"az    c #8A8AA1",
"aA    c #91939E",
"aB    c #8D8F99",
"aC    c #C0C7CF",
"aD    c #C1DDE4",
"aE    c #0090A6",
"aF    c #00B8C2",
"aG    c #009EA7",
"aH    c #006065",
"aI    c #00282A",
"aJ    c #000D0D",
"aK    c #000503",
"aL    c #666674",
"aM    c #F9F9FE",
"aN    c #1D1D9E",
"aO    c #0404BA",
"aP    c #E2E2FF",
"aQ    c #6767A9",
"aR    c #000030",
"aS    c #000011",
"aT    c #00000D",
"aU    c #2F5664",
"aV    c #2ED0D1",
"aW    c #00E5E5",
"aX    c #00C8C9",
"aY    c #007A7B",
"aZ    c #003434",
"a&    c #000F0F",
"b     c #000404",
"b0    c #01130A",
"b1    c #011009",
"b2    c #010A06",
"b3    c #F1F1F1",
"b4    c #CBCBCC",
"b5    c #E9E9EB",
"b6    c #69699A",
"b7    c #000088",
"b8    c #5151D8",
"b9    c #F7F7FF",
"ba    c #15158D",
"bb    c #000044",
"bc    c #00041D",
"bd    c #001019",
"be    c #003237",
"bf    c #D5DEDF",
"bg    c #A1F3F3",
"bh    c #00D1D1",
"bi    c #00B7B8",
"bj    c #006F6F",
"bk    c #002F2F",
"bl    c #000E0E",
"bm    c #000303",
"bn    c #000302",
"bo    c #272727",
"bp    c #464646",
"bq    c #49494D",
"br    c #19192D",
"bs    c #000032",
"bt    c #00006B",
"bu    c #25259C",
"bv    c #36369F",
"bw    c #000062",
"bx    c #000033",
"by    c #000315",
"bz    c #000C11",
"bA    c #002223",
"bB    c #256465",
"bC    c #3B9798",
"bD    c #009191",
"bE    c #007A7A",
"bF    c #004949",
"bG    c #001F1F",
"bH    c #000101",
"                 0 1 2 3 4 5 6 7 8 9 a b c d e f                ",
"     g g g h i i j k l m n o p q r s t u v w x y       i i i    ",
" h z A B B C z D E F G H I J K L M N O P Q R S T U 0 j V V j W i",
" X Y Z &0 000102030405060708090a0b0c0d0e0f0g0h0i0j0k0l0m0n0o0p j",
" Y0q0r0s0t0u0v0w0x0y0z0A0B0C0D0E0F0G0H0I0J0K0L0M0N0O0P0Q0R0S0T0U",
" Z0V0W0X0Y0Z0&1 101112131415161718191a1b1c1d1e1f1g1h1i1j1k1l1m1n",
" &0s0X1o1p1q1r1s1t1u1v1w1x1y1z1A1B1C1D1E1F1G1H1I1J1K1L1M1N1O1P1Q",
"0 0t0Y1p1R1S1T1U1V1W1X1Y1Z1&2 202122232425262728292a2b2c2d2e2f2g",
"000u0Z1q1S2h2i2j2k2l2m2n2o2p2q2r2s2t2u2v2w2x2y2z2A2B2C2D2E2F2G2H",
"2I2J0&1r2K2L2M2N2O2P2Q2R2S2T2U2V2W2X2Y2Z2&3 30313233343536373839",
" z2I3a Z3b3c3d3e3f3g3h3i3j3k3l3m3n3o3p3q3r3s3t3u3v3w3x3y3z3A3B3C",
" h3D3E A3F3G3H3I3J3K3L3M3N3O3P3Q3R3S3T3U3V3W3X3Y3Z3&4 4041424344",
"     h45464748494a4b4c4d4e4f4g4h4i4j4k4l4m4n4o4p4q4r4s4t4u4v4w4x",
"      454y4z4A4B4C4D4E4F4G4H4I4J4K4L4M4N4O4P4Q4R4S4T4U4V4W4X4Y4Z",
"      454&5 505152535455565758595a5b5c5d5e5f5g5h5i5j5k5l5m5n445o",
"      455p5q5r5s5t5u5v5w5x5y5z5A5B5C5D5E5F5G5H5I5J5K5L5M5N5O5P45",
"       i5Q5R5S5T5U5V5W5X5Y5Z5&6 606162636465666768696a6b5Q6c6d  ",
"       i6e6f6g6h6i6j6k6l6m6n6o6p6q6r6s6t6u6v6w6x6y0U V W i      ",
"         j6z6A6B6C6D6E6F6G6H6I6J6K6L6M6N6O6P6Q6R z W i          ",
"       i6S6T6U6V6W6X6Y6Z6&7 707172737475767778797a7b            ",
"        6S7c7d7e7f7g7h7i7j7k7l7m7n7o7p7q7r7s7t7u7v7w7x7w7x7x7b  ",
"          0U7y7z7A7B7C7D7E7F7G7H7I7J7K7L7M7N7O7P7Q7R7S7T7U7V7W7b",
"  7X7Y7Z7&8 808182838485868788898a8b8c8d8e8f8g8h8i8j8k8l8m8n7U7W",
"  8o8p8q8q8r8s8t8u8v8w8x8y8z8A8B8C8D8E8F8G8H8I8J8K8L8M8N8O8P8Q8R",
"  8S8T      8U8V8W8X8Y8Z8&9 909192939495969798999a8M9b9c9d9e9f9g",
"  9h9i9j9j9k9l9m9n9o9p9q9r9s9t9u9v9w9x9y9z9A9B9C8l8N9c9D9E9F9G9H",
"  9I9J9K9K9L9M9N9O9P9Q9R9S  9T9U9V9W9X9Y9Z9&a 7U8m8O9d9Ea0a1a2a3",
"  9h9i9j9ja4a5a6a7a8a9aaabacadaeafagahaiajakal8R8nam9eanaoapaq7S",
"  aras      atauavawaxayazaAaBaCaDaEaFaGaHaIaJa 7U8Q9f9Ga2aq9gaK",
"  8Sas      aLaMaNaOaPaQaRaSaTaUaeaVaWaXaYaZa&b 7W8R9gb0b1b2aK7x",
"  8Tb37Z7Zb4b5b6b7b8b9babbbcbdbebfbgbhbibjbkblbm7b7xbn7Wbn7w7b  ",
"  bobp8q8qbqbrbsbtbubvbwbxbybzbAbBbCbDbEbFbG ebH      7b        "};
