/* XPM */
static char *render_lm2DMV[] = {
/* width height num_colors chars_per_pixel */
"    32    32        8            1",
/* colors */
"` c #b4760c",
". c #97c108",
"# c #9bf304",
"a c #cfc411",
"b c #9e990e",
"c c #cb9d28",
"d c #c4c3c2",
"e c #aeb563",
/* pixels */
"dddddddddddddddddddddddddddddddd",
"dddddddddddddddddddddddddddddddd",
"dddddddddddddddddddddddddddddddd",
"dddddddddddddde``cdddddddddddddd",
"dddddddddddec```````eddddddddddd",
"dddddddddcc```````````cddddddddd",
"ddddddacccccccc`c````````edddddd",
"dddaaaacaacacccccbabbbbbb`bbeddd",
"dddaaaaaaaaaaa.a..b.c.b.bbbbbddd",
"ddddaaa#aaa#a.a.a.a........beddd",
"ddddaa#############.#.....bbeddd",
"ddddaaa#################..bbdddd",
"dddddaa###############....bbdddd",
"dddddaa################..bbedddd",
"dddddaaa##############...b`ddddd",
"dddddaa#a############...bb`ddddd",
"dddddd.aa#############.bb`eddddd",
"ddddddc..a##########...bb`eddddd",
"ddddddc.a.##########..bb``dddddd",
"ddddddeb...########...bb``dddddd",
"dddddddeb..########..bb``ddddddd",
"dddddddda....#####...b``dddddddd",
"dddddddddeb..#####..bb`ddddddddd",
"dddddddddde...###..bbbdddddddddd",
"ddddddddddd....#...bbddddddddddd",
"ddddddddddddb..#..bedddddddddddd",
"ddddddddddddde...beddddddddddddd",
"dddddddddddddd..bedddddddddddddd",
"dddddddddddddddeeddddddddddddddd",
"dddddddddddddddddddddddddddddddd",
"dddddddddddddddddddddddddddddddd",
"dddddddddddddddddddddddddddddddd"
};
