/* XPM */
static char *magick[] = {
/* columns rows colors chars-per-pixel */
"32 32 201 2",
"   c #150000",
".  c #1b0000",
"X  c #1e0505",
"o  c #200000",
"O  c #250000",
"+  c #290000",
"@  c #2c0000",
"#  c #320101",
"$  c #3c0000",
"%  c #3d0b0b",
"&  c #430000",
"*  c #450000",
"=  c #460c0c",
"-  c #490000",
";  c #4c0000",
":  c #4b1414",
">  c #550202",
",  c #5c0000",
"<  c #4c2e09",
"1  c #4d2f0f",
"2  c #502f09",
"3  c #503107",
"4  c #483b3b",
"5  c #572020",
"6  c #552f2f",
"7  c #5a3838",
"8  c #620000",
"9  c #640000",
"0  c #6b0000",
"q  c #690b0b",
"w  c #631b1b",
"e  c #730000",
"r  c #720808",
"t  c #7a0000",
"y  c #780404",
"u  c #7e0000",
"i  c #751a1a",
"p  c #672c2c",
"a  c #7f3a3a",
"s  c #7f7e16",
"d  c #544040",
"f  c #6e5454",
"g  c #6d6565",
"h  c #2e8f1b",
"j  c #2ca01b",
"k  c #29a91f",
"l  c #21ab21",
"z  c #21ae21",
"x  c #26ae20",
"c  c #21b121",
"v  c #21b521",
"b  c #24b220",
"n  c #21ba21",
"m  c #39a737",
"M  c #36b136",
"N  c #31d41c",
"B  c #21c721",
"V  c #21c221",
"C  c #21c921",
"Z  c #2fc027",
"A  c #3fd12b",
"S  c #539e19",
"D  c #4eab17",
"F  c #45b918",
"G  c #51a214",
"H  c #54a416",
"J  c #55b517",
"K  c #688410",
"L  c #738013",
"P  c #7c8010",
"I  c #729613",
"U  c #43af43",
"Y  c #59bc59",
"T  c #54bc54",
"R  c #61954e",
"E  c #7fa87a",
"W  c #4bc019",
"Q  c #42c23f",
"!  c #46c646",
"~  c #55da55",
"^  c #46f146",
"/  c #7bca7b",
"(  c #66e466",
")  c #860000",
"_  c #890000",
"`  c #8e0000",
"'  c #8d0808",
"]  c #8e170c",
"[  c #930000",
"{  c #940000",
"}  c #980000",
"|  c #9f0000",
" . c #9a3535",
".. c #a10000",
"X. c #a60000",
"o. c #a80000",
"O. c #ad0100",
"+. c #b60100",
"@. c #b90100",
"#. c #be0000",
"$. c #b41a04",
"%. c #b31303",
"&. c #b52305",
"*. c #b62e09",
"=. c #a13130",
"-. c #ab3131",
";. c #af3333",
":. c #b72b2b",
">. c #b23333",
",. c #98670d",
"<. c #8d4141",
"1. c #955e4a",
"2. c #876e6e",
"3. c #897c7c",
"4. c #8e7c7c",
"5. c #a44646",
"6. c #a15c5c",
"7. c #b54949",
"8. c #b75555",
"9. c #aa6f6f",
"0. c #bc7272",
"q. c #c30000",
"w. c #c60000",
"e. c #c90000",
"r. c #cd0000",
"t. c #d20000",
"y. c #d50000",
"u. c #d20b0b",
"i. c #d90000",
"p. c #dd0000",
"a. c #dc0808",
"s. c #dd1404",
"d. c #db1111",
"f. c #e10000",
"g. c #e30606",
"h. c #e50100",
"j. c #e10d0d",
"k. c #ea0000",
"l. c #ef0000",
"z. c #f10100",
"x. c #f60000",
"c. c #f90000",
"v. c #c04848",
"b. c #c84747",
"n. c #d24444",
"m. c #c37171",
"M. c #89814d",
"N. c #9c9a9a",
"B. c #8fbb8f",
"V. c #8fbd8f",
"C. c #a28c82",
"Z. c #a89696",
"A. c #b19292",
"S. c #a3bb93",
"D. c #a3bda3",
"F. c #b3a0a0",
"G. c #b8a5a5",
"H. c #bea6a6",
"J. c #b6b3b3",
"K. c #a9da9e",
"L. c #a0dca0",
"P. c #bfc2bf",
"I. c #cc8181",
"U. c #c88c8c",
"Y. c #c48484",
"T. c #cd9b9a",
"R. c #c2a3a3",
"E. c #c5a2a2",
"W. c #c7b7b7",
"Q. c #c2bcbc",
"!. c #c8b2b2",
"~. c #d5b7b7",
"^. c #d1bdbd",
"/. c #c1c1c1",
"(. c #c5c5c5",
"). c #cfc7c7",
"_. c #cacaca",
"`. c #cdcdcd",
"'. c #dbc2c2",
"]. c #d0d0d0",
"[. c Gray84",
"{. c #dadada",
"}. c #dddddd",
"|. c #dcd4d4",
" X c #def1de",
".X c #ebdcdc",
"XX c #e8c7c7",
"oX c #e2e2e2",
"OX c Gray90",
"+X c #e5eee1",
"@X c #ebe6e1",
"#X c #eaeaea",
"$X c Gray93",
"%X c #f1e9e9",
"&X c #f0ecec",
"*X c #f5e9e9",
"=X c #f2f3ef",
"-X c #f1f1f1",
";X c Gray96",
":X c Gray98",
">X c Gray100",
/* pixels */
"/././././././././././.( ! T Y D././././././././././././././././.",
"/./././././././././.P.^ B c v B././././././././././././././././.",
"/././././././././././.^ B c c B././././././././././././././././.",
"/./././././.H.0.7.-.=.A B c c B././././././././././././././././.",
"/./././.R.b.u.t.r.q.+.F B z c E /./././././././././././././././.",
"/././.Y.d.k.,.P s L K N V z c j Q ~ ~ / /./././././././././././.",
"/./.I.g.x.x.W n v v v v c c c c z z l U _._._.(././././././././.",
"/.E.j.x.c.x.J v c v c c c c c z z m L. X>X>X>X;XOX/././././././.",
"/.n.z.c.c.x.I n x x k b v c z h R =X>X>X>X>X>X>X-X/././././././.",
"H.a.x.x.x.z.s.*.&.$.%.D C z z 3 ; Z.>X>X>X>X>X>X:X(././././././.",
"m.f.l.z.z.k.h.p.t.w.@.H C l z 2 - 7 >X>X>X>X>X>X>X$X_./.`./././.",
"v.p.k.k.k.h.p.y.r.#.+.G Z l z < & f >X>X>X>X>X>X>X>X:X;X>X{././.",
">.i.f.f.f.p.y.r.q.+.O.S K.M z 1 : ).>X>X>X>X>X>X>X>X>X>X>X;X/./.",
";.r.y.y.y.t.e.q.@.O...M.>X+XS.C.|.>X>X'.{.}.-X>X>X>X>X>X>X>X]./.",
"5.#.w.e.e.w.#.+.O...] @X>X>X>X>X>X>XA. ././.(.$X>X>X>X>X>X>XoX/.",
"9.X.+.@.@.+.O.o.| { 1.>X>X>X>X>X>X&Xi 8./././.].>X>X>X>X>X>X#X/.",
"G.' ..X.X.X.| } ` ) T.>X>X>X>X>X>X^.) U./././.`.>X>X>X>X>X>X$X/.",
"/.<._ [ { [ ` _ u y *X>X>X>X>X>X>X.X:.Q./././.[.>X>X>X>X>X>X-X/.",
"/.F.q t u u t e 0 i %X!.W.>X>X>X>X>XXX/././.`.;X>X>X>X>X>X>X$X/.",
"/./.4.> 8 9 8 , > w 5 # + 2.>X>X>X>X>X-X#X$X:X>X>X>X>X>X;X}.[./.",
"/././.3.% & & & $ # O o + = %X>X>X>X>X>X>X>X>X>X>X>X>X:X_./././.",
"/./././.N.4 X .     . @ - r *X>X>X>X>X>X:X>X>X>X>X>X>X$X/./././.",
"/./././././.N.g d 6 p a 6.~.>X>X>X>XOX_.(.}.>X>X>X>X>X#X/./././.",
"/././././././././.J.{.[.oX>X>X>X>X$X/./././.#X>X>X>X>X:X(./././.",
"/./././././././././.$X>X>X>X>X>X>X}././././.}.>X>X>X>X>XoX/././.",
"/./././././././././.{.>X>X>X>X>X>X#X/./././.OX>X>X>X>X>X`./././.",
"/././././././././././.-X>X>X>X>X>X>X[.(.(.[.:X>X>X>X>X{././././.",
"/././././././././././.`.>X>X>X>X>X>X>X:X:X>X>X>X>X>X}./././././.",
"/./././././././././././.[.:X>X>X>X>X>X>X>X>X>X>X:X[././././././.",
"/././././././././././././.`.$X>X>X>X>X>X>X>X:XOX_./././././././.",
"/././././././././././././././.].oX$X-X$X#X}._./././././././././.",
"/./././././././././././././././././././././././././././././././."
};
