/* XPM */
static char * render_mip_rayswitch_advanced_xpm[] = {
"32 32 256 2",
"  	c None",
". 	c #383424",
"+ 	c #3D3516",
"@ 	c #403627",
"# 	c #343931",
"$ 	c #3E3823",
"% 	c #4B3716",
"& 	c #353945",
"* 	c #383B2E",
"= 	c #4A3A0A",
"- 	c #3B3D2B",
"; 	c #423C22",
"> 	c #473B27",
", 	c #403D31",
"' 	c #493D19",
") 	c #3F3F28",
"! 	c #3C4133",
"~ 	c #44402F",
"{ 	c #46402A",
"] 	c #3E423A",
"^ 	c #444135",
"/ 	c #4D4027",
"( 	c #414240",
"_ 	c #4F4123",
": 	c #4B4134",
"< 	c #424431",
"[ 	c #41424A",
"} 	c #4B4328",
"| 	c #474528",
"1 	c #574220",
"2 	c #564225",
"3 	c #494534",
"4 	c #4B452F",
"5 	c #434734",
"6 	c #50442F",
"7 	c #414552",
"8 	c #444739",
"9 	c #444643",
"0 	c #494544",
"a 	c #45473F",
"b 	c #494831",
"c 	c #4F472C",
"d 	c #4F463B",
"e 	c #4D4641",
"f 	c #58452D",
"g 	c #464845",
"h 	c #564729",
"i 	c #5B471F",
"j 	c #45494C",
"k 	c #4B493C",
"l 	c #574824",
"m 	c #524929",
"n 	c #4A484C",
"o 	c #404B4C",
"p 	c #4E4938",
"q 	c #504933",
"r 	c #4A4B38",
"s 	c #534939",
"t 	c #4E4948",
"u 	c #57492F",
"v 	c #494B48",
"w 	c #474E3A",
"x 	c #4C4C44",
"y 	c #544C31",
"z 	c #554D32",
"A 	c #614B28",
"B 	c #4C4F41",
"C 	c #524E3C",
"D 	c #544E38",
"E 	c #524D4C",
"F 	c #505038",
"G 	c #5A4D39",
"H 	c #4D4F4C",
"I 	c #5A4F29",
"J 	c #504E51",
"K 	c #5D4E2F",
"L 	c #5C4E34",
"M 	c #50513E",
"N 	c #505048",
"O 	c #59502F",
"P 	c #535044",
"Q 	c #5F4F2B",
"R 	c #554F49",
"S 	c #565230",
"T 	c #644F26",
"U 	c #565140",
"V 	c #4E543A",
"W 	c #50524F",
"X 	c #505159",
"Y 	c #58523B",
"Z 	c #565150",
"` 	c #4E5641",
" .	c #575251",
"..	c #595438",
"+.	c #535452",
"@.	c #5A534D",
"#.	c #545643",
"$.	c #6A522A",
"%.	c #665424",
"&.	c #5A5544",
"*.	c #5C553F",
"=.	c #525658",
"-.	c #56564E",
";.	c #59564A",
">.	c #5F563B",
",.	c #555754",
"'.	c #645541",
").	c #655636",
"!.	c #675631",
"~.	c #64563C",
"{.	c #595940",
"].	c #59575A",
"^.	c #625837",
"/.	c #5C5756",
"(.	c #5E5A37",
"_.	c #5D5A3D",
":.	c #575C42",
"<.	c #585A57",
"[.	c #695A2E",
"}.	c #605B49",
"|.	c #645B3F",
"1.	c #745A2C",
"2.	c #675B51",
"3.	c #6B5C42",
"4.	c #745B33",
"5.	c #655E47",
"6.	c #685D4D",
"7.	c #606047",
"8.	c #5F604C",
"9.	c #6F5E39",
"0.	c #715F2B",
"a.	c #6C6039",
"b.	c #736035",
"c.	c #6D6140",
"d.	c #6A6245",
"e.	c #736343",
"f.	c #66664D",
"g.	c #73663A",
"h.	c #696754",
"i.	c #6C6844",
"j.	c #6A675A",
"k.	c #6E6750",
"l.	c #79663B",
"m.	c #716840",
"n.	c #716658",
"o.	c #6C694B",
"p.	c #736947",
"q.	c #736A4D",
"r.	c #7B6944",
"s.	c #7C6854",
"t.	c #6F6C68",
"u.	c #706F56",
"v.	c #736E5C",
"w.	c #756E57",
"x.	c #836D39",
"y.	c #737051",
"z.	c #7B6F47",
"A.	c #7A6E5D",
"B.	c #756F63",
"C.	c #7E7043",
"D.	c #806F4E",
"E.	c #826F49",
"F.	c #7A7154",
"G.	c #797550",
"H.	c #7C746E",
"I.	c #7D7658",
"J.	c #8A764A",
"K.	c #8A7750",
"L.	c #7C796B",
"M.	c #89795E",
"N.	c #787D7A",
"O.	c #837C64",
"P.	c #877C59",
"Q.	c #917C50",
"R.	c #8A7C66",
"S.	c #8E7D56",
"T.	c #887E61",
"U.	c #967C58",
"V.	c #7B8083",
"W.	c #818078",
"X.	c #85806D",
"Y.	c #957F4D",
"Z.	c #8C806F",
"`.	c #8B8176",
" +	c #828381",
".+	c #908562",
"++	c #998458",
"@+	c #98864F",
"#+	c #98855E",
"$+	c #8D8774",
"%+	c #9C8653",
"&+	c #9B8671",
"*+	c #998A5B",
"=+	c #898B88",
"-+	c #8E8B7D",
";+	c #9E8A5D",
">+	c #8D8B8F",
",+	c #9C8B63",
"'+	c #9D8D58",
")+	c #9A8C75",
"!+	c #8E8F8C",
"~+	c #908F87",
"{+	c #A68E5B",
"]+	c #A09073",
"^+	c #999373",
"/+	c #AB9152",
"(+	c #919390",
"_+	c #A79164",
":+	c #94938B",
"<+	c #AB9259",
"[+	c #909597",
"}+	c #A7955A",
"|+	c #A19571",
"1+	c #959794",
"2+	c #9B9694",
"3+	c #989996",
"4+	c #9A989C",
"5+	c #B09865",
"6+	c #A99970",
"7+	c #9A9B98",
"8+	c #9F9A99",
"9+	c #989D9F",
"0+	c #9B9D9A",
"a+	c #9A9FA2",
"b+	c #A39D9C",
"c+	c #A59D97",
"d+	c #A09F96",
"e+	c #9EA09D",
"f+	c #A29FA3",
"g+	c #ACA283",
"h+	c #A4A391",
"i+	c #A7A2A1",
"j+	c #A2A4A1",
"k+	c #ACA49D",
"l+	c #B0A492",
"m+	c #A4A6A3",
"n+	c #AFA498",
"o+	c #A7A79E",
"p+	c #B5A68E",
"q+	c #A7A9A6",
"r+	c #AAACA9",
"s+	c #AEADA4",
"t+	c #B1ACAA",
"u+	c #ADAFAC",
"v+	c #B2AFA1",
"w+	c #AFB1AE",
"x+	c #B8B0A9",
"y+	c #B8B297",
"z+	c #B2B2A9",
"A+	c #B6B1B0",
"B+	c #B9B4B3",
"C+	c #B4B6B3",
"D+	c #B7B6AD",
"E+	c #BCB6A2",
"F+	c #BBB7A9",
"G+	c #BEB6AF",
"( 9 9 j n x v v H H H W W W W W W W W W W W H H v v v n n 9 9 ( ",
"9 9 g j v v J J H H W W W W W W W W W W W W W H H v n n n n 9 9 ",
"9 9 g j j v E J W W W +.+.+.+.+.+.+.+.+.+.W W H H H J t t n 9 9 ",
"9 g g j J P s e W W +.+.+.+.+.+.+.+.+.+.+.+.W W W H E k 3 0 g 9 ",
"g g t J J C c C +.+.+.+.+.,.,.,.,.+.=.+.+.+.+.W W W N {.u., g 9 ",
"n g a p C c u } D C k N -.,.,.,.=.].].-.,.J  .W W H D h h 4 g g ",
"j x ^ p } } 6 ~ - * ] P P -.,.].].].].;.;. .+.+.W W u 2 _ { g g ",
"0 P U Y ^+o.: , * # ] C 3 -./.]././.-.5.z -.-. . .J '.1 / k v g ",
"t &.*.}.F._.p , # # ! F p -.<./.R k U ^.Q &.B P @. .2.~.q x v g ",
"t *.|.6.k.{.M ^ , ! 8 F h.:+N.;.C &.F I i p M r , @.W U ) g v g ",
"e ..|.G o.7.M 8 < b < *.j.u+r+d.U C y I c ~ ^ ^ b W &.3 } d v v ",
"L u c >.o.7.#.B b (.+ K j.f+(+p.7.f.g+F.q ~ ! ^ F N U $ ; : v v ",
"l.% ' m.F.o.7.{.O C.= 0.v.( C m.q.k.I.k.&.k < 8 F P *.> c e t v ",
"S.J.l.T !.a.a.a.%.x.0.C.B j.[.z.k.w.F.h.&.r 5 a #.U ~.> | x v v ",
"&+++%+U.Q.Q.*+{+<+/+{+Y [ Z Y.9.w.D w.k.{.V w B #.D L 6 f.=+=+t.",
"d+c+]+{+<+<+<+<+}+J.h a o W <+%.a.m I.o.7.&.M ` :.m '.2.X.W.7+3+",
"d+k+l+P.K.,+#+r.).s e /.N.k+5+x.l.9.P.o.7.8.}.5.S z.L @ q W.b+3+",
"c+i+k+n+)+)+R.O.X.-+c+x+D+G+6+%+1.$.b.% K ).~.K a.S.^.6.5.:+b+3+",
"e+j+o+s+v+v+v+F+F+F+D+G+F+G+y+6+Q.K.E.T i r.E.Q.,+d.>.s v.b+7+3+",
"e+d+o+o+s+s+z+w+A+B+B+B+D+C+F+.+O O ).u ; m a.*+c.C Y s B.f+7+3+",
"e+e+j+m+q+r+u+u+w+w+C+F+B+F+-+c D K 4.; { $ O U v C k.Z.`.a+7+3+",
"7+e+j+m+q+q+r+u+u+w+w+D+B+E+5.D 3 4 h ~ < 3 { B. +w.q ~ n.b+7+3+",
"7+e+j+j+q+u+r+r+u+u+w+z+B+y+d.p ~ 3 4 - * - *.n+:+q.} ~ L.c+7+3+",
"3+7+e+j+m+r+q+r+r+u+w+z+B+g+p.5.*.*.{ - * < >.n.H.F.e.v.d+7+7+3+",
"3+7+e+j+j+m+q+q+r+u+u+z+x+|+a.F.T.T.{.r r #.O k.t.3.A v.e+a+3+1+",
"3+7+7+e+j+m+q+r+r+u+u+u+n+#+9.G.i.y.7.M F {.z w.G l 2 B.e+7+7+3+",
"1+3+7+e+j+j+q+q+r+r+u+~+. l.).c.c.y.f.{..._.m q.s m f `.e+7+3+1+",
"1+3+7+e+e+j+m+q+q+r+u+o+h+++Q ' p.F.q.|.^.O Q q.d _ '.d+7+3+3+1+",
"(+3+3+7+e+j+j+m+q+q+r+u+v+_+g.!.!.e.d.^.Q l r.5.x l A.d+9+3+1+(+",
"!+1+3+7+e+e+j+m+m+q+r+t+v+_+@+[.Q l K 9.b.K.M.d N Q $+7+7+3+2+V.",
"!+(+1+3+7+e+e+j+m+q+q+r+s+p+6+;+{+@+#+%+Y.#+&.( 5.s.X.8+3+[+>+7 ",
"=+!+(+1+3+7+e+j+j+m+q+s+s+v+y+]+P.'+;+++D.U x  +O.R.v.4+3+[+X & "};
