/* XPM */
static char *render_BA_pick_alpha_xpm[]={
"32 32 153 2",
"      c #B9B9B9",
" 0    c #BABABA",
" 1    c #C5C5C5",
" 2    c #C4C4C4",
" 3    c #BFBFBF",
" 4    c #C1C1C1",
" 5    c #BBBBBB",
" 6    c #B4B4B4",
" 7    c #616161",
" 8    c #686868",
" 9    c #525252",
" a    c #6A6A6A",
" b    c #C3C3C3",
" c    c #828282",
" d    c #000000",
" e    c #919191",
" f    c #C2C2C2",
" g    c #5F5F5F",
" h    c #8F8F8F",
" i    c #353535",
" j    c #161616",
" k    c #0D0D0D",
" l    c #414141",
" m    c #C0C0C0",
" n    c #060606",
" o    c #AAAAAA",
" p    c #A2A2A2",
" q    c #636363",
" r    c #515151",
" s    c #040404",
" t    c #A6A6A6",
" u    c #BEBEBE",
" v    c #B6B6B6",
" w    c #202020",
" x    c #222222",
" y    c #BCBCBC",
" z    c #BDBDBD",
" A    c #5E5E5E",
" B    c #929292",
" C    c #626262",
" D    c #C9C9C9",
" E    c #A8A8A8",
" F    c #464646",
" G    c #B7B7B7",
" H    c #151515",
" I    c #2A2A2A",
" J    c #1C1C1C",
" K    c #383838",
" L    c #242424",
" M    c #232323",
" N    c #2B2B2B",
" O    c #090909",
" P    c #6E6E6E",
" Q    c #858585",
" R    c #D0D0D0",
" S    c #D1D1D1",
" T    c #707070",
" U    c #5D5D5D",
" V    c #5C5C5C",
" W    c #666666",
" X    c #4E4E4E",
" Y    c #020202",
" Z    c #8C8C8C",
" &    c #3D3D3D",
"0     c #505050",
"00    c #5B5B5B",
"01    c #494949",
"02    c #363636",
"03    c #9A9A9A",
"04    c #757575",
"05    c #767676",
"06    c #A4A4A4",
"07    c #080808",
"08    c #010101",
"09    c #050505",
"0a    c #949494",
"0b    c #0A0A0A",
"0c    c #4A4A4A",
"0d    c #818181",
"0e    c #B3B3B3",
"0f    c #ACACAC",
"0g    c #7A7A7A",
"0h    c #ABABAB",
"0i    c #AFAFAF",
"0j    c #ADADAD",
"0k    c #191919",
"0l    c #B8B8B8",
"0m    c #B1B1B1",
"0n    c #C7C7C7",
"0o    c #A1A1A1",
"0p    c #6D6D6D",
"0q    c #6C6C6C",
"0r    c #868686",
"0s    c #0E0E0E",
"0t    c #9C9C9C",
"0u    c #9E9E9E",
"0v    c #101010",
"0w    c #313131",
"0x    c #8B8B8B",
"0y    c #656565",
"0z    c #B5B5B5",
"0A    c #4C4C4C",
"0B    c #DBDBDB",
"0C    c #EEEEEE",
"0D    c #F0F0F0",
"0E    c #EFEFEF",
"0F    c #EDEDED",
"0G    c #D7D7D7",
"0H    c #CBCBCB",
"0I    c #E8E8E8",
"0J    c #CDCDCD",
"0K    c #D4D4D4",
"0L    c #FAFAFA",
"0M    c #D9D9D9",
"0N    c #E0E0E0",
"0O    c #FDFDFD",
"0P    c #E9E9E9",
"0Q    c #E7E7E7",
"0R    c #E5E5E5",
"0S    c #B0B0B0",
"0T    c #DCDCDC",
"0U    c #F2F2F2",
"0V    c #F6F6F6",
"0W    c #D3D3D3",
"0X    c #F7F7F7",
"0Y    c #DDDDDD",
"0Z    c #D2D2D2",
"0&    c #F5F5F5",
"1     c #ECECEC",
"10    c #E1E1E1",
"11    c #E4E4E4",
"12    c #FCFCFC",
"13    c #F4F4F4",
"14    c #D8D8D8",
"15    c #CCCCCC",
"16    c #F8F8F8",
"17    c #E2E2E2",
"18    c #F1F1F1",
"19    c #FEFEFE",
"1a    c #DEDEDE",
"1b    c #E3E3E3",
"1c    c #FFFFFF",
"1d    c #E6E6E6",
"1e    c #C8C8C8",
"1f    c #B2B2B2",
"1g    c #D5D5D5",
"1h    c #C6C6C6",
"1i    c #FBFBFB",
"1j    c #F9F9F9",
"1k    c #D6D6D6",
"1l    c #CFCFCF",
"1m    c #F3F3F3",
"1n    c #CECECE",
"                                                                ",
"                                                                ",
"                                                                ",
"                                                                ",
"                                                                ",
"                                                                ",
"                                                                ",
"         0 1 2 0                                 3 4            ",
"       5 6 7 8   0                             3 9 a 2          ",
"       b c d d e 4                             f g d h b        ",
"       4 i j k l b                             0 m l n o m      ",
"     3 p d q r s t u                             3 v w x y z    ",
"     1 A d p B d C 1 0 m m m m m m m m m m m m m 3 D E k F b 0  ",
"   5 G H I 4 0 J j   v K L L L L L L L L L L L L L M N O d P 2  ",
"   f Q d c R S T d c m a U U U U U U U U U U U U U V V W X Y Z m",
"   f & d0 00 U01 d02 403 B B B B B B B B B B B B B B e0304 d05 b",
" u0607 n s08080909 n0a L n n n n n n n n n n n n n n0b s d0c 4 0",
" 1 C d0d0e0f0f 60g d 9 00h0h0h0h0h0h0h0h0h0h0h0h0h0i0j0k M 5 z  ",
"0l0k0k 0 u z z 3 G j k0m m z z z z z z z z z z y u0n01 O0o 4    ",
" Q d U 1         100 d0p 2                       20q d0r 10l    ",
"010s0t 3         30u0v0w 0 0                   40x d0y 1        ",
"0h0h0l G G v0z     50j o v G G                 f040A z 5        ",
"  0B0C0D0E0F0G0l     y 0 10C0H v              0l z 4 0          ",
"0z0I0D0H0J0K0L0M0z    0z0N0O0P v                                ",
"0z0Q0R0S0z0i0T0U v  0l y0V0W0X 2 G                              ",
"0z0Q0P y 3 f0C0Y v  0z0Z0& v1 100z                              ",
"0z11120&130L0L m G   v0F140f1516 50l                            ",
"0z0Q0P y 3 m1718 5 v f190I1a1b1c R0z                            ",
"0z0Q1d0e0l0z 31c1e1f0T0&0Y101a0C0C v                            ",
"0z0Q1d0e v0z1g19 m0l0X0K0m 60m1h1c1h v                          ",
"0z1d1i0C0E0D1j1k0e1l0O u0l     G1m0R0z                          ",
"0l 2151l1n0J m v0l b1e0l      0l b D                            "};
