/* XPM */
static char *magick[] = {
/* columns rows colors chars-per-pixel */
"32 32 243 2",
"   c Gray0",
".  c #070707",
"X  c #090909",
"o  c Gray4",
"O  c #0b0b0b",
"+  c #0c0c0c",
"@  c Gray5",
"#  c #0e0e0e",
"$  c #1b1003",
"%  c #1e1207",
"&  c #19130a",
"*  c #111111",
"=  c Gray7",
"-  c #151617",
";  c #161617",
":  c #181818",
">  c #191919",
",  c Gray10",
"<  c #1a1a1c",
"1  c #1c1c1d",
"2  c #1d1e1f",
"3  c #1e1e1f",
"4  c #211b13",
"5  c #29241f",
"6  c #222426",
"7  c Gray15",
"8  c #25282a",
"9  c #27292f",
"0  c #29292c",
"q  c #2b2c2f",
"w  c #2d2d2d",
"e  c #2f3234",
"r  c #37312a",
"t  c #36312d",
"y  c #323339",
"u  c #30343a",
"i  c #3f3933",
"p  c #3e3f41",
"a  c #3f4143",
"s  c #3f4247",
"d  c #422500",
"f  c #442500",
"g  c #452600",
"h  c #462700",
"j  c #522f04",
"k  c #523005",
"l  c #5c3100",
"z  c #5c3201",
"x  c #663700",
"c  c #673600",
"v  c #6b3a00",
"b  c #683b04",
"n  c #683c04",
"m  c #6c3a01",
"M  c #6c3d03",
"N  c #6d3e02",
"B  c #713c00",
"V  c #713d00",
"C  c #784304",
"Z  c #794304",
"A  c #7d4301",
"S  c #7d4400",
"D  c #444444",
"F  c Gray28",
"G  c #414449",
"H  c #4b4b4b",
"J  c #4a4a4c",
"K  c #4c4c4c",
"L  c Gray31",
"P  c #4e5051",
"I  c #4c5054",
"U  c #505050",
"Y  c #515151",
"T  c Gray32",
"R  c Gray33",
"E  c #565656",
"W  c #585858",
"Q  c Gray36",
"!  c #5f5f5f",
"~  c #5d6165",
"^  c #606060",
"/  c Gray38",
"(  c Gray39",
")  c #717171",
"_  c #727272",
"`  c Gray45",
"'  c Gray46",
"]  c #73767a",
"[  c #747678",
"{  c #77787a",
"}  c Gray47",
"|  c #797979",
" . c #7b7b7b",
".. c #7c7c7c",
"X. c Gray49",
"o. c Gray",
"O. c Gray50",
"+. c #7c7f82",
"@. c #814702",
"#. c #904e00",
"$. c #955202",
"%. c #a75b02",
"&. c #a85e04",
"*. c #de7e04",
"=. c #e48206",
"-. c #e08208",
";. c #e68609",
":. c #e88105",
">. c #e88207",
",. c #f28807",
"<. c #f28909",
"1. c #ff970c",
"2. c #ff980d",
"3. c #ff990e",
"4. c #ff9b0c",
"5. c #ff9b0d",
"6. c #ff9b0e",
"7. c #ff9d0d",
"8. c #ff9a11",
"9. c #ff9b11",
"0. c #ff9c10",
"q. c #ff9d11",
"w. c #ff9e10",
"e. c #ff9e11",
"r. c #ff9e12",
"t. c #ff9e13",
"y. c #ff9e14",
"u. c #ff9d1a",
"i. c #ff9d1b",
"p. c #ff9e1b",
"a. c #ff9e1d",
"s. c #ff9f22",
"d. c #ffa016",
"f. c #ffa021",
"g. c #ffa120",
"h. c #ffa024",
"j. c #ffa224",
"k. c #ffa324",
"l. c #ffa42b",
"z. c #ffa42c",
"x. c #ffa42d",
"c. c #ffa52c",
"v. c #ffa52d",
"b. c #ffa731",
"n. c #ffa833",
"m. c #ffa935",
"M. c #ffab38",
"N. c #ffac39",
"B. c #ffad3b",
"V. c #ffae3d",
"C. c #ffb040",
"Z. c #ffb141",
"A. c #ffb345",
"S. c #ffb447",
"D. c #ffb548",
"F. c #ffb549",
"G. c #ffb64b",
"H. c #ffbb53",
"J. c #ffbc54",
"K. c #ffbc55",
"L. c #ffbd57",
"P. c #ffc868",
"I. c #ffc96b",
"U. c #ffcb6d",
"Y. c #ffce73",
"T. c #ffd077",
"R. c #ffd27a",
"E. c #ffd47d",
"W. c #ffd47e",
"Q. c #ffd57e",
"!. c #ffd57f",
"~. c #818181",
"^. c Gray51",
"/. c #808286",
"(. c #848484",
"). c #858789",
"_. c #888a8d",
"`. c Gray56",
"'. c #909090",
"]. c Gray57",
"[. c #929292",
"{. c #909295",
"}. c #929395",
"|. c Gray58",
" X c #959595",
".X c #979797",
"XX c #989898",
"oX c #9a9a9a",
"OX c #9a9c9d",
"+X c Gray61",
"@X c #a0a0a0",
"#X c Gray63",
"$X c #a2a2a2",
"%X c #a2a3a4",
"&X c #a3a3a4",
"*X c Gray66",
"=X c #adadae",
"-X c #aeaeaf",
";X c #afafaf",
":X c Gray69",
">X c #b0b1b1",
",X c #b1b1b1",
"<X c #b2b2b2",
"1X c #b4b4b5",
"2X c Gray71",
"3X c #b9b9b9",
"4X c Gray73",
"5X c #bcbcbc",
"6X c Gray74",
"7X c #bebebe",
"8X c Gray75",
"9X c #ffd580",
"0X c #ffd884",
"qX c #ffd984",
"wX c #ffda88",
"eX c #ffdc8a",
"rX c #ffdd8c",
"tX c #ffde8e",
"yX c #ffdf91",
"uX c #ffe092",
"iX c #ffe192",
"pX c #ffeda6",
"aX c #ffeea9",
"sX c #ffefaa",
"dX c #fff1ae",
"fX c #fff2b0",
"gX c #fff3b1",
"hX c #fff4b3",
"jX c #fff6b6",
"kX c #fff6b7",
"lX c #fff7b8",
"zX c #fff7b9",
"xX c #fff9bb",
"cX c #fff9bc",
"vX c #fffabc",
"bX c #fffbbf",
"nX c #c0c0c0",
"mX c #c1c1c1",
"MX c Gray76",
"NX c #c3c3c3",
"BX c #c8c8c8",
"VX c #fffbc0",
"CX c #fffcc0",
/* pixels */
"mXmXmXmXmXmXmXmXmXmXmXmXmXmXmXmXmXmXmXmXmXmXmXmXmXmXmXmXmXmXmXmX",
"mXmXmXmXmXmXmXmXmXmXmXmXmXmXmX} (.mXmXmXmXmXmXmXmXmXmXmXmXmXmXmX",
"mXmXmXmXmXmXmXmXmXmXmXmXmXmXmXH ! mXmXmXmXmXmXmXmXmXmXmXmXmXmXmX",
"mXmXmXmXmXmXmXmXmXmXmXmXmXmXmXH ! mXmXmXmXmXmXmXmXmXmXmXmXmXmXmX",
"mXmXmXmXmXmXmXmXmXmXmXmXmXmXmXH ! mXmXmXmXmXmXmXmXmXmXmXmXmXmXmX",
"mXmXmXmXmX*X7XmXmXmXmXmXmXmXmXH ! mXmXmXmXmXmXmXmXoX..mXmXmXmXmX",
"mXmXmXBX7Xw Y mXmXmXmXmXmXmXmXH ! mXmXmXmXmXmXmX@X# ' mXmXmXmXmX",
"mXmXmXmXmX;X: R mXmXmXmXmXmXmXK ^ mXmXmXmXmXmX@X= _ mXmXmXmXmXmX",
"mXmXmXmXmXmX<X: Y mXmXmXmX*X[ 6 q { ;XmXmXmX@X# _ mXmXmXmXmXmXmX",
"mXmXmXmXmXmXmX<X: Y mX;XG $ l @.@.l % I 1X*X= _ mXmXmXmXmXmXmXmX",
"mXmXmXmXmXmXmXmX<X7 J < S <.q.y.q.5.,.A 1 1 } mXmXmXmXmXmXmXmXmX",
"mXmXmXmXmXmXmXmXmX&X  &.q.f.m.Z.Z.b.a.7.%.- 3XmXmXmXmXmXmXmXmXmX",
"mXmXmXmXmXmXmXmXmX~ V q.z.J.R.rXeXY.D.j.5.V ] mXmXmXmXmXmXmXmXmX",
"mXmXmXmXmXmXmXmX1X& ;.j.J.yXhXvXxXdX0XD.i.=.4 3XmXmXmXmXmXmXmXmX",
"mXmXmXmXmXmXmXmX).h 9.N.W.hXCXCXCXvXsXI.z.1.h OXmXmXmXmXmXmXmXmX",
";X} D H H H H Y 9 n d.D.iXvXVXvXvXCXkX9XM.q.N u K H H H K D ^ mX",
"<X~.R Q Q ! ! ^ y b d.D.iXvXVXvXVXCXkXW.M.q.N s ^ ! Q Q Q W _ mX",
"mXmXmXmXmXmXmXmX{.h 9.N.W.fXCXCXCXvXpXI.l.1.d &XmXmXmXmXmXmXmXmX",
"mXmXmXmXmXmXmXmX7X5 -.j.J.rXfXlXlXsXW.A.i.*.t 7XmXmXmXmXmXmXmXmX",
"mXmXmXmXmXmXmXmXmX+.c q.z.H.T.wX0XU.S.s.5.c {.mXmXmXmXmXmXmXmXmX",
"mXmXmXmXmXmXmXmXmX7X0 $.q.f.n.V.N.z.i.5.#.p mXmXmXmXmXmXmXmXmXmX",
"mXmXmXmXmXmXmXmXmX.X- 8 m :.5.q.q.5.:.v e 1 +XmXmXmXmXmXmXmXmXmX",
"mXmXmXmXmXmXmXmX[.O ~.mX/.r j C C k i _.mX~.# .XmXmXmXmXmXmXmXmX",
"mXmXmXmXmXmXmX.X. ..mXmXmX7X<Xa P <X7XmXmXmX} O .XmXmXmXmXmXmXmX",
"mXmXmXmXmXmX[.O ..mXmXmXmXmXmXH ! mXmXmXmXmXmX..# .XmXmXmXmXmXmX",
"mXmXmXmXmX[.. ~.mXmXmXmXmXmXmXH ! mXmXmXmXmXmXmX~.O [.mXmXmXmXmX",
"mXmXmXmXmX`...mXmXmXmXmXmXmXmXH ! mXmXmXmXmXmXmXmX....mXmXmXmXmX",
"mXmXmXmXmXmXmXmXmXmXmXmXmXmXmXH ! mXmXmXmXmXmXmXmXmXmXmXmXmXmXmX",
"mXmXmXmXmXmXmXmXmXmXmXmXmXmXmXH ! mXmXmXmXmXmXmXmXmXmXmXmXmXmXmX",
"mXmXmXmXmXmXmXmXmXmXmXmXmXmXmXH ! mXmXmXmXmXmXmXmXmXmXmXmXmXmXmX",
"mXmXmXmXmXmXmXmXmXmXmXmXmXmXmX^ _ mXmXmXmXmXmXmXmXmXmXmXmXmXmXmX",
"mXmXmXmXmXmXmXmXmXmXmXmXmXmXmXmXmXmXmXmXmXmXmXmXmXmXmXmXmXmXmXmX"
};
