/* XPM */
static char *render_BA_volume_solid_xpm[]={
"32 32 220 2",
"      c #B5B5B5",
" 0    c #B6B6B6",
" 1    c #B7B7B7",
" 2    c #B9B9B9",
" 3    c #BABABA",
" 4    c #ADADAD",
" 5    c #A0A0A0",
" 6    c #9E9E9E",
" 7    c #9D9D9D",
" 8    c #A1A1A1",
" 9    c #AFAFAF",
" a    c #BBBBBB",
" b    c #8E8E8E",
" c    c #737373",
" d    c #636363",
" e    c #5B5B5B",
" f    c #5A5A5A",
" g    c #575757",
" h    c #5C5C5C",
" i    c #6C6C6C",
" j    c #B1B1B1",
" k    c #BCBCBC",
" l    c #B2B2B2",
" m    c #898989",
" n    c #5E5E5E",
" o    c #5D5D5D",
" p    c #595959",
" q    c #545454",
" r    c #4C4C4C",
" s    c #454545",
" t    c #505050",
" u    c #878787",
" v    c #A7A7A7",
" w    c #6F6F6F",
" x    c #606060",
" y    c #626262",
" z    c #616161",
" A    c #5F5F5F",
" B    c #585858",
" C    c #535353",
" D    c #4D4D4D",
" E    c #434343",
" F    c #353535",
" G    c #AEAEAE",
" H    c #A4A4A4",
" I    c #656565",
" J    c #676767",
" K    c #686868",
" L    c #555555",
" M    c #4A4A4A",
" N    c #414141",
" O    c #2E2E2E",
" P    c #494949",
" Q    c #B8B8B8",
" R    c #6E6E6E",
" S    c #787878",
" T    c #7D7D7D",
" U    c #797979",
" V    c #707070",
" W    c #565656",
" X    c #525252",
" Y    c #444444",
" Z    c #3B3B3B",
" &    c #262626",
"0     c #828282",
"00    c #9A9A9A",
"01    c #888888",
"02    c #727272",
"03    c #666666",
"04    c #3C3C3C",
"05    c #333333",
"06    c #1E1E1E",
"07    c #BFBFBF",
"08    c #9C9C9C",
"09    c #C6C6C6",
"0a    c #DCDCDC",
"0b    c #CECECE",
"0c    c #808080",
"0d    c #6B6B6B",
"0e    c #464646",
"0f    c #3D3D3D",
"0g    c #252525",
"0h    c #A3A3A3",
"0i    c #767676",
"0j    c #6A6A6A",
"0k    c #ACACAC",
"0l    c #E2E2E2",
"0m    c #FFFFFF",
"0n    c #ECECEC",
"0o    c #6D6D6D",
"0p    c #292929",
"0q    c #131313",
"0r    c #696969",
"0s    c #A6A6A6",
"0t    c #D7D7D7",
"0u    c #F2F2F2",
"0v    c #E1E1E1",
"0w    c #868686",
"0x    c #515151",
"0y    c #4B4B4B",
"0z    c #313131",
"0A    c #171717",
"0B    c #2C2C2C",
"0C    c #B3B3B3",
"0D    c #909090",
"0E    c #747474",
"0F    c #8F8F8F",
"0G    c #C1C1C1",
"0H    c #979797",
"0I    c #4F4F4F",
"0J    c #383838",
"0K    c #242424",
"0L    c #191919",
"0M    c #0F0F0F",
"0N    c #939393",
"0O    c #7F7F7F",
"0P    c #7A7A7A",
"0Q    c #2A2A2A",
"0R    c #202020",
"0S    c #161616",
"0T    c #060606",
"0U    c #757575",
"0V    c #2F2F2F",
"0W    c #1C1C1C",
"0X    c #010101",
"0Y    c #C0C0C0",
"0Z    c #101010",
"0&    c #000000",
"1     c #474747",
"10    c #3F3F3F",
"11    c #363636",
"12    c #232323",
"13    c #1A1A1A",
"14    c #0C0C0C",
"15    c #4E4E4E",
"16    c #424242",
"17    c #393939",
"18    c #303030",
"19    c #272727",
"1a    c #0E0E0E",
"1b    c #090909",
"1c    c #BEBEBE",
"1d    c #212121",
"1e    c #181818",
"1f    c #111111",
"1g    c #0B0B0B",
"1h    c #050505",
"1i    c #999999",
"1j    c #B4B4B4",
"1k    c #A8A8A8",
"1l    c #484848",
"1m    c #343434",
"1n    c #1B1B1B",
"1o    c #0D0D0D",
"1p    c #080808",
"1q    c #B0B0B0",
"1r    c #AAAAAA",
"1s    c #2D2D2D",
"1t    c #1D1D1D",
"1u    c #151515",
"1v    c #0A0A0A",
"1w    c #A2A2A2",
"1x    c #373737",
"1y    c #3E3E3E",
"1z    c #070707",
"1A    c #C8C8C8",
"1B    c #E6E6E6",
"1C    c #E8E8E8",
"1D    c #EAEAEA",
"1E    c #CFCFCF",
"1F    c #8A8A8A",
"1G    c #030303",
"1H    c #7B7B7B",
"1I    c #DDDDDD",
"1J    c #A9A9A9",
"1K    c #FDFDFD",
"1L    c #8B8B8B",
"1M    c #323232",
"1N    c #9F9F9F",
"1O    c #F8F8F8",
"1P    c #040404",
"1Q    c #DBDBDB",
"1R    c #D3D3D3",
"1S    c #CBCBCB",
"1T    c #CCCCCC",
"1U    c #2B2B2B",
"1V    c #E5E5E5",
"1W    c #404040",
"1X    c #969696",
"1Y    c #D9D9D9",
"1Z    c #E4E4E4",
"1&    c #C7C7C7",
"2     c #DFDFDF",
"20    c #BDBDBD",
"21    c #989898",
"22    c #D4D4D4",
"23    c #F9F9F9",
"24    c #EDEDED",
"25    c #F6F6F6",
"26    c #C4C4C4",
"27    c #E7E7E7",
"28    c #141414",
"29    c #DADADA",
"2a    c #949494",
"2b    c #959595",
"2c    c #E9E9E9",
"2d    c #9B9B9B",
"2e    c #D5D5D5",
"2f    c #858585",
"2g    c #FEFEFE",
"2h    c #EFEFEF",
"2i    c #D6D6D6",
"2j    c #E3E3E3",
"2k    c #838383",
"2l    c #FCFCFC",
"2m    c #8D8D8D",
"2n    c #FBFBFB",
"2o    c #EEEEEE",
"2p    c #ABABAB",
"2q    c #A5A5A5",
"                                                                ",
"                         0 1 2 2 2 2 1                          ",
"                     1 3 0 4 5 6 7 8 9 2 a 1                    ",
"                 1 3 4 b c d e f g g h i b j k 0                ",
"               2 l m d e h n n o h p q r s t u 2 2              ",
"             3 v w e x y z x A n o e B C D E F A G a            ",
"           2 H I A J K J I y x A n h p L t M N O P 4 2          ",
"         Q G K y R S T U V J y x n h f W X r Y Z & D Q 0        ",
"         Q U A w0 00 v 6010203 z n h f g C D s040506 R07        ",
"       300 o J U08090a0b v0c0d y A o e g C D0e0f05 &0g0h 2      ",
"       10i o0j0c0k0l0m0n 3 m0o d A o f g C D s04050p0q I07      ",
"     Q v x z0r T0s0t0u0v l0w i z n h f W0x0y Y Z0z &0A0B0C 0    ",
"     30D e z030E0F 90G 00H U J x n e B q0I P N0J O0K0L0M0N k    ",
"     20O e z y0r0i0w b m0P0d d A o f g X r0e0f050Q0R0S0T c07    ",
"     Q0U h x z d K i w R K d A o e B L0I P N0J0V0g0W0q0X h0Y    ",
"     Q0U e A x A z y y y z n o e p W0x r s04050p0R0A0Z0& n0Y    ",
"     Q0E f n n n n n n n o h e p W X D1 1011 O12130q140& e0Y    ",
"     30  g o o h h h h e e f B W X15 P16171819060S1a1b0&0P1c    ",
"     30N L f f f f f p p B g L X15 P E Z050Q1d1e1f1g1h0T1i 3    ",
"0C0C1j1k B C L W W W W q C0x0I r1l E041m0B121n0q1o1p0&0p 2      ",
"1q 41r 4 i0e D15 t t0I D0y1l1  s N Z F1s0g1t1u0M1v0T0&0o0Y      ",
"0k1w08 6 u041x Y1 1l1  s1y1x0J Z0J051s0g060S0Z1g1z0&13 G Q      ",
" 81A1B1C1D1E1F11 Z1y0f05 W1E0319 O0Q0g060A1f1g1p1G0&1H0Y        ",
"001I1B1J0k k1K1L0g1M0z0R1N1O a1n0K1d1t0A1f141p1P0&0x0Y          ",
"0H1Q1R0P0c U1S1T0A0g121U0l021V1W0q1e1u0Z141b1G0& P 3 1          ",
"1X1Y1Y1L0F0H1Z1&1 1u1p i2 1420211G1f0M140T0&0T J a Q            ",
"1X222324242525 721 c0g260P0&1527281P0X0&1b0f2107 1              ",
"1X1Y290F2a2b0b2c1X1X1w1K0h u2b0m A0M05 y2d20 a                  ",
"0H292e0 012f1X2g1k2f1A2h0b2i1E2j0v0D 4 3 3                      ",
"1i1Q2i2k m01 a2l2d0D0u20 u b m v0m j1w G1j                      ",
" 7291O1Z1V27250G2m Q2n0h 61w 5002o0a1w G0C                      ",
" v 9 1 2 2 2 v001N1q 1 H1r0k2p2q j a1r 91j                      "};
