/* XPM */
static char *magick[] = {
/* columns rows colors chars-per-pixel */
"32 32 247 2",
"   c #070000",
".  c #0c0000",
"X  c #0a0103",
"o  c #120000",
"O  c #140301",
"+  c #131317",
"@  c #000022",
"#  c #000027",
"$  c #060626",
"%  c #000028",
"&  c #00002c",
"*  c #0a0b25",
"=  c #040436",
"-  c #1c0b2a",
";  c #190738",
":  c #180b35",
">  c #1a1a24",
",  c #181328",
"<  c #1e201f",
"1  c #260304",
"2  c #2e0000",
"3  c #2b0c09",
"4  c #220a12",
"5  c #2c0511",
"6  c #300000",
"7  c #3b050a",
"8  c #221128",
"9  c #231b3b",
"0  c #321a28",
"q  c #311030",
"w  c #242523",
"e  c #242526",
"r  c #2c2a26",
"t  c #2f2b2a",
"y  c #2c2d2b",
"u  c #32282c",
"i  c #352232",
"p  c #323232",
"a  c #3e3e3e",
"s  c #393939",
"d  c #3c3434",
"f  c #03034b",
"g  c #000059",
"h  c #07075a",
"j  c #1f1f53",
"k  c #02036b",
"l  c #010172",
"z  c #192066",
"x  c #2f194c",
"c  c #3e0756",
"v  c #321840",
"b  c #2b2a41",
"n  c #282848",
"m  c #282954",
"M  c #2f2f50",
"N  c #3f2b45",
"B  c #343551",
"V  c #343463",
"C  c #383877",
"Z  c #450100",
"A  c #4c0101",
"S  c #4d1414",
"D  c #530000",
"F  c #590101",
"G  c #590e17",
"H  c #561112",
"J  c #471934",
"K  c #472b2d",
"L  c #453737",
"P  c #4c3633",
"I  c #4d3434",
"U  c #4f3d3c",
"Y  c #503737",
"T  c #523438",
"R  c #5c3636",
"E  c #630202",
"W  c #680302",
"Q  c #6b171e",
"!  c #760000",
"~  c #760606",
"^  c #7a0505",
"/  c #780808",
"(  c #600b2c",
")  c #6e0a26",
"_  c #6d0e2d",
"`  c #7e183c",
"'  c #672f36",
"]  c #7b3a39",
"[  c #412656",
"{  c #473340",
"}  c #4b3b4f",
"|  c #643e46",
" . c #424243",
".. c #444443",
"X. c #484848",
"o. c #4e4e4e",
"O. c #464656",
"+. c #50504f",
"@. c #555555",
"#. c #5b5b5b",
"$. c #5d5d5d",
"%. c #515161",
"&. c #5a5a61",
"*. c #565670",
"=. c #5e6162",
"-. c #664040",
";. c #6a5656",
":. c #6a5b5b",
">. c #724c72",
",. c Gray38",
"<. c Gray40",
"1. c #656568",
"2. c #6a6a6a",
"3. c #6e6e6d",
"4. c #6f6f74",
"5. c #6b6b7f",
"6. c #6c6e7d",
"7. c #687273",
"8. c #6f7b7b",
"9. c #736262",
"0. c #776b6b",
"q. c #756c6c",
"w. c #727272",
"e. c #707473",
"r. c #737575",
"t. c #757573",
"y. c #747474",
"u. c #727276",
"i. c #727979",
"p. c #707c7c",
"a. c #747979",
"s. c #797976",
"d. c #797979",
"f. c Gray",
"g. c #000094",
"h. c #000099",
"j. c #15159b",
"k. c #343a81",
"l. c #3e3391",
"z. c #4f4f92",
"x. c #4d5190",
"c. c #54548b",
"v. c #535392",
"b. c #6d6e82",
"n. c #64679f",
"m. c #7c7c99",
"M. c #870909",
"N. c #8a0202",
"B. c #8f0505",
"V. c #8a0b0b",
"C. c #880f0f",
"Z. c #900909",
"A. c #9b0000",
"S. c #900816",
"D. c #911216",
"F. c #9e1d1d",
"G. c #9f1331",
"H. c #822e2f",
"J. c #823838",
"K. c #8d3130",
"L. c #963d3d",
"P. c #a60909",
"I. c #ab0d17",
"U. c #a01212",
"Y. c #a91212",
"T. c #b90707",
"R. c #b40303",
"E. c #b60e10",
"W. c #b31515",
"Q. c #b71010",
"!. c #b31111",
"~. c #b11c1b",
"^. c #bf1817",
"/. c #ba1815",
"(. c #b81f1d",
"). c #bc1313",
"_. c #bc1d21",
"`. c #a62424",
"'. c #bf2626",
"]. c #bf3f3f",
"[. c #870f52",
"{. c #be1c42",
"}. c #a5394b",
"|. c #b02245",
" X c #844a4a",
".X c #8d4845",
"XX c #8b4444",
"oX c #835050",
"OX c #954646",
"+X c #b14342",
"@X c #b94846",
"#X c #ba4553",
"$X c #a06363",
"%X c #bf6666",
"&X c #c00101",
"*X c #c30b0b",
"=X c #c11413",
"-X c #c31615",
";X c #c61715",
":X c #c8151a",
">X c #d00b0b",
",X c #c32323",
"<X c #c22c2c",
"1X c #c13c3c",
"2X c #d32322",
"3X c #c1474b",
"4X c #c34a4a",
"5X c #c05656",
"6X c #c25c5c",
"7X c #c25959",
"8X c #82827a",
"9X c Gray51",
"0X c #868686",
"qX c #8c8c87",
"wX c Gray54",
"eX c #8e8e8e",
"rX c #929292",
"tX c #959595",
"yX c #97979f",
"uX c #9a9a9a",
"iX c #9d9898",
"pX c #9d9d9d",
"aX c #9696a1",
"sX c #a29a97",
"dX c #a1a2a2",
"fX c #a2a4a4",
"gX c #a5a5a5",
"hX c #a5a5a3",
"jX c #a8aaa2",
"kX c #aaaaaa",
"lX c Gray68",
"zX c #b0b0af",
"xX c #b1b1b1",
"cX c Gray71",
"vX c Gray73",
"bX c #bebebe",
"nX c #bbbbc2",
"mX c Gray76",
"MX c #c5c5c5",
"NX c #c5c5c2",
"BX c #cacaca",
"VX c #cdcdcd",
"CX c #d0d0cf",
"ZX c Gray82",
"AX c Gray84",
"SX c #d5d5d2",
"DX c Gray86",
/* pixels */
"y.y.y.y.y.y.y.y.y.w.w.y.y.y.y.y.y.y.y.y.y.y.y.y.y.y.y.y.y.y.y.y.",
"y.y.y.y.y.y.y.y.w.y.w.3.w.w.y.y.y.y.y.y.y.y.y.y.y.y.y.y.y.y.y.y.",
"y.y.y.y.y.y.y.w.y.kXlXtX9Xy.w.w.w.w.y.y.y.y.y.y.y.y.y.y.y.y.y.y.",
"y.y.y.y.y.y.w.d.xXBXMXmXvXlXuXwXf.y.w.w.w.y.y.y.y.y.y.y.y.y.y.y.",
"y.y.y.y.y.w.d.cXBXmXvXcXxXlXlXkXgXuXeX9Xd.y.w.w.w.y.y.y.y.y.y.y.",
"y.y.y.y.w.f.cXBXmXvXxXkXdXuXrXeXeXeXrXtXtXrXwX9Xd.y.w.w.w.y.y.y.",
"y.y.y.w.f.cXMXvXvXcXlXdXtX9Xy.<.$.#.,.2.y.9XwXrXtXrXwX9Xd.w.w.y.",
"y.y.3.9XvXvXkXdXdXgXgXpXeXd.,.+. .s p p a @.2.d.9XtXpXdXdXuXeXy.",
"y.3.wXBXZXMXkX9X,.@.3.eX9Xf.d.y.w.<.$.o.a s o.<.d.9XrXuXdXlXrXw.",
"w.rXZXDXAXvXeX2.X.s f.gXdXpXuXtXrXwX9Xd.3.$.@.2.f.wXrXuXgXdXd.w.",
"d.cXAXAXmXgXtX9X3.pXmXvXvXcXxXkXgXdXuXrXwXf.3.d.tXuXpXdXkXwXw.y.",
"y.y.9XxXZXMXxXpXtXBXVXBXMXMXvXvXcXxXkXgXpXtXwX9XlXlXlXxXdXy.w.y.",
"y.w.3.wXAXZXmXxXzXVXVXVXVXBXBXMXmXvXvXcXlXkXpXtXvXvXvXvX9Xw.y.y.",
"y.y.y.w.dXBXVXBXNXCXZXVXBXBXBXBXBXMXMXvXvXcXkXkXMXmXBXgXw.y.y.y.",
"y.y.y.w.w.f.tXm.z.z.nXAXVXBXBXBXBXMXMXMXmXvXvXmXMXMXvX9Xw.y.y.y.",
"y.y.y.y.y.y.&.= & % n yXVXSXCXVXBXBXBXBXMXmXmXmXmXMXuX3.w.y.y.y.",
"y.y.y.y.y.s. .> , $ @ # B 6.uXlXxXkXfXvXmXMXMXmXmXmXrXd.y.y.y.y.",
"y.y.y.y.3.+...y w e > * @ : N { U L d ,.dXxXcXvXmXcXlXkXdXd.w.y.",
"y.y.y.u.b + < e t t r u v [ x ; i P Y I :.uXgXgXlXkXkXxXdXy.w.y.",
"y.y.w.V g f , I | Y K 0 8 - - q J ' ] .XXXoXuXgXgXgXkXkX9Xw.y.y.",
"y.y.2.B m 9 5 G ) ( 4 X O 1 7 H Q _ ` }.6X+X$XfXfXgXkXuXw.w.y.y.",
"y.y.y.t.=.3 F N.E.D.  o 2 Z F W ^ M.S.G.#X3X@XsXjXhXgX9Xw.y.y.y.",
"y.y.y.y.e.S N.T.2XK.. 6 A E ~ V.U.~.(./._.{.|.l.n.aXtXt.w.y.y.y.",
"y.y.y.y.a.;.C.&X>XW.6 Z E ^ Z.Y.'.4X7X1X^.:X[.g.h.j.5.t.y.y.y.y.",
"y.y.y.y.y.a.q. XL.OXR D ! B.P.).<X5X%X].-X=X>.x.v.c.4.y.y.y.y.y.",
"y.y.y.y.y.y.y.i.8.p.i.-./ A.R.*X-X,X,X;XI.c k.b.qX8Xt.y.y.y.y.y.",
"y.y.y.y.y.y.y.y.y.y.y.a.9.J.F.!.Q.W.`.H.} z k l C y.y.y.y.y.y.y.",
"y.y.y.y.y.y.y.y.y.y.y.y.a.i.w.q.0.q.r.7.=.O.j h *.s.y.y.y.y.y.y.",
"y.y.y.y.y.y.y.y.y.y.y.y.y.y.y.r.r.r.r.y.y.t.1.%.w.y.y.y.y.y.y.y.",
"y.y.y.y.y.y.y.y.y.y.y.y.y.y.y.y.y.y.y.y.y.y.s.s.y.y.y.y.y.y.y.y.",
"y.y.y.y.y.y.y.y.y.y.y.y.y.y.y.y.y.y.y.y.y.y.y.y.y.y.y.y.y.y.y.y.",
"y.y.y.y.y.y.y.y.y.y.y.y.y.y.y.y.y.y.y.y.y.y.y.y.y.y.y.y.y.y.y.y."
};
