/* XPM */
static char *render_BA_particle_density_xpm[]={
"32 32 781 2",
"      c #BC4545",
" 0    c #BA4545",
" 1    c #BF4545",
" 2    c #8D4545",
" 3    c #424545",
" 4    c #444545",
" 5    c #454545",
" 6    c #464545",
" 7    c #494745",
" 8    c #4F4A45",
" 9    c #5C5645",
" a    c #756F45",
" b    c #928F46",
" c    c #A4A446",
" d    c #9D9E47",
" e    c #7F8A50",
" f    c #617E62",
" g    c #4E7970",
" h    c #48706E",
" i    c #456060",
" j    c #455151",
" k    c #454949",
" l    c #454646",
" m    c #414545",
" n    c #4B4545",
" o    c #A34545",
" p    c #BE4545",
" q    c #B34545",
" r    c #BD4545",
" s    c #C34545",
" t    c #804645",
" u    c #3D4645",
" v    c #484545",
" w    c #4D4745",
" x    c #594B45",
" y    c #6D5A45",
" z    c #887945",
" A    c #A5A146",
" B    c #B9BA45",
" C    c #B1B247",
" D    c #8D9D56",
" E    c #679977",
" F    c #519E93",
" G    c #489390",
" H    c #467777",
" I    c #455D5C",
" J    c #454D4C",
" K    c #454747",
" L    c #4C4545",
" M    c #C04545",
" N    c #B94545",
" O    c #5E4645",
" P    c #B74545",
" Q    c #BB4545",
" R    c #754745",
" S    c #404845",
" T    c #474645",
" U    c #4A4545",
" V    c #554645",
" W    c #6A4A45",
" X    c #845845",
" Y    c #997345",
" Z    c #A79746",
" &    c #B0AD46",
"0     c #A6A94A",
"00    c #869E5F",
"01    c #64A98B",
"02    c #4FB8AE",
"03    c #48ACA9",
"04    c #458986",
"05    c #456763",
"06    c #45534F",
"07    c #454948",
"08    c #464646",
"09    c #4D4545",
"0a    c #A44545",
"0b    c #C14545",
"0c    c #404945",
"0d    c #754A45",
"0e    c #BD4345",
"0f    c #BB4445",
"0g    c #764845",
"0h    c #424845",
"0i    c #4D4645",
"0j    c #5D4645",
"0k    c #7C4945",
"0l    c #9E5145",
"0m    c #AD6345",
"0n    c #A87A46",
"0o    c #9D8A48",
"0p    c #8B8D50",
"0q    c #709168",
"0r    c #59A491",
"0s    c #4BB4AE",
"0t    c #47AAA6",
"0u    c #458D84",
"0v    c #457162",
"0w    c #455C4F",
"0x    c #464F47",
"0y    c #434945",
"0z    c #4F4645",
"0A    c #4C4D45",
"0B    c #525A45",
"0C    c #895B45",
"0D    c #BC4245",
"0E    c #BA4445",
"0F    c #774845",
"0G    c #484845",
"0H    c #614745",
"0I    c #854945",
"0J    c #AA4D46",
"0K    c #B95446",
"0L    c #AA5F48",
"0M    c #8E674B",
"0N    c #726D53",
"0O    c #5C7866",
"0P    c #4F8B80",
"0Q    c #489990",
"0R    c #469989",
"0S    c #459071",
"0T    c #458259",
"0U    c #456E4C",
"0V    c #425A47",
"0W    c #4F4C45",
"0X    c #A54545",
"0Y    c #A84545",
"0Z    c #5A4545",
"0&    c #474545",
"1     c #535245",
"10    c #686845",
"11    c #818945",
"12    c #A87A45",
"13    c #BA4345",
"14    c #7A4845",
"15    c #5B4B45",
"16    c #7E4E46",
"17    c #9C5047",
"18    c #A75249",
"19    c #98524D",
"1a    c #7A5452",
"1b    c #605758",
"1c    c #505F5F",
"1d    c #496F68",
"1e    c #46826D",
"1f    c #459468",
"1g    c #45A35B",
"1h    c #459F4F",
"1i    c #418848",
"1j    c #4D6546",
"1k    c #A44745",
"1l    c #C14445",
"1m    c #B44545",
"1n    c #814545",
"1o    c #614545",
"1p    c #514545",
"1q    c #575745",
"1r    c #737345",
"1s    c #9A9A45",
"1t    c #B3BC45",
"1u    c #B78945",
"1v    c #BB4245",
"1w    c #BD4445",
"1x    c #7A5145",
"1y    c #716146",
"1z    c #896448",
"1A    c #8B614E",
"1B    c #7B5859",
"1C    c #645066",
"1D    c #524E6C",
"1E    c #4A5269",
"1F    c #465F62",
"1G    c #45785B",
"1H    c #459955",
"1I    c #45B54F",
"1J    c #41B849",
"1K    c #4C9146",
"1L    c #A34E45",
"1M    c #C14345",
"1N    c #B04545",
"1O    c #954545",
"1P    c #724545",
"1Q    c #564545",
"1R    c #565645",
"1S    c #717145",
"1T    c #979745",
"1U    c #B2B245",
"1V    c #AAB345",
"1W    c #A27245",
"1X    c #BD4245",
"1Y    c #BC4445",
"1Z    c #B54645",
"1&    c #8E7046",
"2     c #8F8D48",
"20    c #8B8050",
"21    c #746B65",
"22    c #5B5881",
"23    c #4D4F8E",
"24    c #485184",
"25    c #465C71",
"26    c #457361",
"27    c #459256",
"28    c #40AF4F",
"29    c #4BA649",
"2a    c #A35745",
"2b    c #C14145",
"2c    c #B04848",
"2d    c #B54847",
"2e    c #9B4747",
"2f    c #744646",
"2g    c #574545",
"2h    c #515145",
"2i    c #646445",
"2j    c #7E7E45",
"2k    c #909045",
"2l    c #8D8E45",
"2m    c #747A45",
"2n    c #965045",
"2o    c #C04345",
"2p    c #BC4345",
"2q    c #B94A45",
"2r    c #AE9646",
"2s    c #A1A84C",
"2t    c #818168",
"2u    c #616393",
"2v    c #4E57AB",
"2w    c #475D9F",
"2x    c #456B8A",
"2y    c #457A79",
"2z    c #418A6A",
"2A    c #4B8E59",
"2B    c #A35646",
"2C    c #C14045",
"2D    c #AA4646",
"2E    c #884C4C",
"2F    c #9B4E4E",
"2G    c #9E4D4D",
"2H    c #8A4B4A",
"2I    c #6B4748",
"2J    c #544646",
"2K    c #4B4B45",
"2L    c #555545",
"2M    c #626245",
"2N    c #6B6B45",
"2O    c #696945",
"2P    c #5D5F45",
"2Q    c #515546",
"2R    c #914945",
"2S    c #BB4145",
"2T    c #BC4D44",
"2U    c #AD9749",
"2V    c #868E65",
"2W    c #646893",
"2X    c #4F61AE",
"2Y    c #4772A7",
"2Z    c #468A9E",
"2&    c #40999C",
"3     c #4B8B83",
"30    c #A3504C",
"31    c #C14043",
"32    c #A74746",
"33    c #70504F",
"34    c #7E5858",
"35    c #8F5C5C",
"36    c #8D5A59",
"37    c #7A5252",
"38    c #624B4B",
"39    c #504747",
"3a    c #474745",
"3b    c #4F4F45",
"3c    c #535345",
"3d    c #525246",
"3e    c #504F46",
"3f    c #4D4D48",
"3g    c #515249",
"3h    c #964D47",
"3i    c #BF4344",
"3j    c #BA4A44",
"3k    c #85775E",
"3l    c #5A6C87",
"3m    c #4E699C",
"3n    c #4785A2",
"3o    c #41ACB2",
"3p    c #4AACAD",
"3q    c #A35859",
"3r    c #C14041",
"3s    c #A94646",
"3t    c #6E4F4D",
"3u    c #785A59",
"3v    c #936867",
"3w    c #A0706F",
"3x    c #986B6A",
"3y    c #7E5D5D",
"3z    c #615050",
"3A    c #4F4949",
"3B    c #464645",
"3C    c #494945",
"3D    c #4A4946",
"3E    c #4E4B48",
"3F    c #564E4C",
"3G    c #605551",
"3H    c #695F54",
"3I    c #9F524B",
"3J    c #BE4344",
"3K    c #BE4244",
"3L    c #AB4D4A",
"3M    c #596E6E",
"3N    c #467184",
"3O    c #428C99",
"3P    c #4BA4A7",
"3Q    c #A35E5E",
"3R    c #C13F3F",
"3S    c #AD4646",
"3T    c #824B4A",
"3U    c #825150",
"3V    c #8F6160",
"3W    c #A77372",
"3X    c #B87E7D",
"3Y    c #AC7776",
"3Z    c #886565",
"3&    c #655453",
"4     c #504A4A",
"40    c #474646",
"41    c #4A4847",
"42    c #534C4C",
"43    c #665555",
"44    c #7C615F",
"45    c #886965",
"46    c #836E62",
"47    c #AA504B",
"48    c #BF4144",
"49    c #C04243",
"4a    c #A44F4B",
"4b    c #4B746D",
"4c    c #497D80",
"4d    c #A35556",
"4e    c #BF4444",
"4f    c #AC4848",
"4g    c #8E4B4B",
"4h    c #A24A4A",
"4i    c #A35050",
"4j    c #9B5F5F",
"4k    c #A67170",
"4l    c #B47C7A",
"4m    c #A87674",
"4n    c #846463",
"4o    c #625353",
"4p    c #4E4A4A",
"4q    c #4B4848",
"4r    c #5A4F4F",
"4s    c #775E5D",
"4t    c #9A6F6E",
"4u    c #AD7977",
"4v    c #A07772",
"4w    c #86735F",
"4x    c #AA5248",
"4y    c #A0504D",
"4z    c #A04E4E",
"4A    c #C14141",
"4B    c #C04444",
"4C    c #A64849",
"4D    c #774E4F",
"4E    c #9C4949",
"4F    c #B94848",
"4G    c #B24D4D",
"4H    c #9B5757",
"4I    c #946463",
"4J    c #966B6A",
"4K    c #8B6766",
"4L    c #715A5A",
"4M    c #594F4F",
"4N    c #4C4848",
"4O    c #4C4948",
"4P    c #5D5150",
"4Q    c #7E6160",
"4R    c #A57473",
"4S    c #BB7F7E",
"4T    c #857766",
"4U    c #698253",
"4V    c #A55746",
"4W    c #C04245",
"4X    c #BE4343",
"4Y    c #C14542",
"4Z    c #A4474A",
"4&    c #5A4E54",
"5     c #6D4A4B",
"50    c #964646",
"51    c #AC4646",
"52    c #A64949",
"53    c #8D4E4E",
"54    c #7B5554",
"55    c #725857",
"56    c #695655",
"57    c #5B5050",
"58    c #4F4A4A",
"59    c #494747",
"5a    c #594F4E",
"5b    c #745C5B",
"5c    c #946C6B",
"5d    c #A57573",
"5e    c #9B716E",
"5f    c #7C6C5F",
"5g    c #5A7A52",
"5h    c #50844E",
"5i    c #A45048",
"5j    c #BD4543",
"5k    c #9D4655",
"5l    c #4C4967",
"5m    c #4B4954",
"5n    c #624749",
"5o    c #794646",
"5p    c #874646",
"5q    c #834747",
"5r    c #724948",
"5s    c #594C4C",
"5t    c #534B4B",
"5u    c #4D4949",
"5v    c #524B4B",
"5w    c #635252",
"5x    c #775C5B",
"5y    c #826160",
"5z    c #7C605D",
"5A    c #6A5E55",
"5B    c #506450",
"5C    c #5F654E",
"5D    c #AE4B47",
"5E    c #BF4542",
"5F    c #8C4660",
"5G    c #3F4970",
"5H    c #484854",
"5I    c #524848",
"5J    c #5D4746",
"5K    c #634645",
"5L    c #624645",
"5M    c #594646",
"5N    c #514747",
"5O    c #4C4747",
"5P    c #484646",
"5Q    c #4D4848",
"5R    c #594B4B",
"5S    c #684F4F",
"5T    c #715151",
"5U    c #705250",
"5V    c #5E5551",
"5W    c #69544F",
"5X    c #B44646",
"5Y    c #BE4444",
"5Z    c #BF4443",
"5&    c #BC4444",
"6     c #C14443",
"60    c #8C4951",
"61    c #425353",
"62    c #475048",
"63    c #4D4B46",
"64    c #4F4845",
"65    c #4E4645",
"66    c #494545",
"67    c #4E4646",
"68    c #5C4747",
"69    c #714848",
"6a    c #82494A",
"6b    c #7F4E4E",
"6c    c #7F5150",
"6d    c #B54646",
"6e    c #BE4445",
"6f    c #BF4242",
"6g    c #974C55",
"6h    c #AE464B",
"6i    c #C24444",
"6j    c #8D5148",
"6k    c #426548",
"6l    c #455746",
"6m    c #484C45",
"6n    c #664545",
"6o    c #A04A49",
"6p    c #A44D4C",
"6q    c #B84646",
"6r    c #BD4444",
"6s    c #C13F40",
"6t    c #915E5B",
"6u    c #4E7473",
"6v    c #6E645E",
"6w    c #B54746",
"6x    c #BD4244",
"6y    c #C24345",
"6z    c #8C5945",
"6A    c #426945",
"6B    c #445345",
"6C    c #464945",
"6D    c #454645",
"6E    c #524545",
"6F    c #6A4645",
"6G    c #8E4846",
"6H    c #AF4A48",
"6I    c #BC4646",
"6J    c #906E6B",
"6K    c #559C8A",
"6L    c #6A8B66",
"6M    c #768C54",
"6N    c #897F4C",
"6O    c #B74A45",
"6P    c #C44245",
"6Q    c #805A45",
"6R    c #3B5D45",
"6S    c #454B45",
"6T    c #454746",
"6U    c #424242",
"6V    c #414141",
"6W    c #424141",
"6X    c #444141",
"6Y    c #4B4140",
"6Z    c #5D4542",
"6&    c #8E4946",
"7     c #BA4645",
"70    c #C03F41",
"71    c #8F6C68",
"72    c #4CAC9D",
"73    c #629D7C",
"74    c #85985A",
"75    c #A0A44A",
"76    c #9CAD48",
"77    c #949247",
"78    c #B84845",
"79    c #735145",
"7a    c #3D4E46",
"7b    c #454947",
"7c    c #464A48",
"7d    c #464B48",
"7e    c #464947",
"7f    c #797979",
"7g    c #A3A3A3",
"7h    c #A0A0A0",
"7i    c #A1A1A1",
"7j    c #9AA0A0",
"7k    c #8B6967",
"7l    c #B24241",
"7m    c #BE3F43",
"7n    c #985E51",
"7o    c #689C8A",
"7p    c #A3B8B6",
"7q    c #81997D",
"7r    c #8C974E",
"7s    c #B1B146",
"7t    c #B4B546",
"7u    c #91AC49",
"7v    c #8E7C48",
"7w    c #744B47",
"7x    c #3E514C",
"7y    c #46564E",
"7z    c #475A51",
"7A    c #47584F",
"7B    c #46514C",
"7C    c #3F3F3F",
"7D    c #939393",
"7E    c #A4A4A4",
"7F    c #646464",
"7G    c #626968",
"7H    c #8B7373",
"7I    c #C35555",
"7J    c #BC4343",
"7K    c #BC3F45",
"7L    c #AD6646",
"7M    c #78894E",
"7N    c #95A190",
"7O    c #B9B8BA",
"7P    c #A2A69D",
"7Q    c #7F8751",
"7R    c #A2A34C",
"7S    c #A6A74C",
"7T    c #8D9550",
"7U    c #648A4F",
"7V    c #7C6448",
"7W    c #74544D",
"7X    c #41705D",
"7Y    c #497760",
"7Z    c #49715D",
"7&    c #486155",
"8     c #46524C",
"80    c #929292",
"81    c #8F8F8F",
"82    c #313939",
"83    c #584040",
"84    c #AE3F3F",
"85    c #BD4045",
"86    c #B46D45",
"87    c #A6AA44",
"88    c #90944D",
"89    c #B1B1AB",
"8a    c #7D837D",
"8b    c #AFAFAF",
"8c    c #7A7C76",
"8d    c #7C7E66",
"8e    c #828368",
"8f    c #737765",
"8g    c #5D695A",
"8h    c #47614E",
"8i    c #744F46",
"8j    c #74705D",
"8k    c #449E76",
"8l    c #4C8F6E",
"8m    c #49745F",
"8n    c #475B51",
"8o    c #464C49",
"8p    c #929191",
"8q    c #919999",
"8r    c #5A4343",
"8s    c #B44444",
"8t    c #BE4043",
"8u    c #A55E45",
"8v    c #9DA146",
"8w    c #A2A440",
"8x    c #A1A170",
"8y    c #ACACAB",
"8z    c #525550",
"8A    c #9C9D9F",
"8B    c #9091A4",
"8C    c #585B8A",
"8D    c #61648F",
"8E    c #5A607F",
"8F    c #505767",
"8G    c #495053",
"8H    c #3E4D49",
"8I    c #734846",
"8J    c #BD4344",
"8K    c #B84947",
"8L    c #639671",
"8M    c #46A57A",
"8N    c #4A7F65",
"8O    c #476053",
"8P    c #464E4A",
"8Q    c #8B9292",
"8R    c #BDA5A5",
"8S    c #B84949",
"8T    c #C24445",
"8U    c #964F4B",
"8V    c #6B6F4B",
"8W    c #84864A",
"8X    c #858545",
"8Y    c #ADAD9E",
"8Z    c #83847E",
"8&    c #3E3F42",
"9     c #696A79",
"90    c #AEAFB8",
"91    c #515A9A",
"92    c #4C5C9B",
"93    c #4C5F8A",
"94    c #495A70",
"95    c #475159",
"96    c #454A4C",
"97    c #3C4948",
"98    c #804746",
"99    c #BE4243",
"9a    c #B54B49",
"9b    c #618568",
"9c    c #427C63",
"9d    c #475D52",
"9e    c #464D49",
"9f    c #3B4242",
"9g    c #8A7373",
"9h    c #C25353",
"9i    c #BB4242",
"9j    c #BE4040",
"9k    c #AA6364",
"9l    c #9FA3A3",
"9m    c #5C5E5E",
"9n    c #61615A",
"9o    c #727269",
"9p    c #BBBBB9",
"9q    c #999995",
"9r    c #87888A",
"9s    c #8D8E98",
"9t    c #C0BEBD",
"9u    c #6D7E9C",
"9v    c #416A8F",
"9w    c #47778E",
"9x    c #466F7D",
"9y    c #455E64",
"9z    c #455051",
"9A    c #444949",
"9B    c #434A48",
"9C    c #8C4847",
"9D    c #C24545",
"9E    c #B44846",
"9F    c #5F6054",
"9G    c #3F564E",
"9H    c #5D4545",
"9I    c #B24343",
"9J    c #BC4242",
"9K    c #884143",
"9L    c #52565E",
"9M    c #B8BABA",
"9N    c #646484",
"9O    c #46467A",
"9P    c #86869D",
"9Q    c #ADADAF",
"9R    c #84848F",
"9S    c #88888D",
"9T    c #83878B",
"9U    c #A1A3A6",
"9V    c #9EAAAE",
"9W    c #418791",
"9X    c #45999E",
"9Y    c #458E92",
"9Z    c #457174",
"9&    c #455858",
"a     c #454B4B",
"a0    c #434848",
"a1    c #414B49",
"a2    c #8C4947",
"a3    c #5D4B48",
"a4    c #3F4847",
"a5    c #BE4141",
"a6    c #884041",
"a7    c #3A3E43",
"a8    c #72747A",
"a9    c #B8B8BA",
"aa    c #52528E",
"ab    c #46469B",
"ac    c #ADADBA",
"ad    c #747492",
"ae    c #39395B",
"af    c #3E404D",
"ag    c #39434B",
"ah    c #5B6D73",
"ai    c #BBBBBB",
"aj    c #5BA5A5",
"ak    c #40AEAE",
"al    c #45A1A2",
"am    c #457D7E",
"an    c #455D5D",
"ao    c #454C4C",
"ap    c #434747",
"aq    c #414A48",
"ar    c #8C4746",
"as    c #B54545",
"at    c #594645",
"au    c #BD7676",
"av    c #9FA4A4",
"aw    c #A0A2A3",
"ax    c #B3B3B2",
"ay    c #75758C",
"az    c #3B3B84",
"aA    c #6A6AA8",
"aB    c #B6B6BB",
"aC    c #4F4F86",
"aD    c #434365",
"aE    c #454753",
"aF    c #444D50",
"aG    c #425D5F",
"aH    c #A7ABAB",
"aI    c #8FB5B4",
"aJ    c #3FA5A5",
"aK    c #45999A",
"aL    c #457878",
"aM    c #455B5B",
"aN    c #434646",
"aO    c #414746",
"aP    c #8C4646",
"aQ    c #A74545",
"aR    c #8E4646",
"aS    c #5F6464",
"aT    c #686A6B",
"aU    c #676769",
"aV    c #51515A",
"aW    c #40405D",
"aX    c #434377",
"aY    c #56568D",
"aZ    c #5E5E8E",
"a&    c #434372",
"b     c #45455D",
"b0    c #45474F",
"b1    c #454B4D",
"b2    c #435555",
"b3    c #567374",
"b4    c #608B8B",
"b5    c #458888",
"b6    c #457D7D",
"b7    c #456767",
"b8    c #455454",
"b9    c #434545",
"ba    c #414645",
"bb    c #9C4545",
"   0 1 2 3 4 5 5 6 7 8 9 a b c d e f g h i j k l 5 5 5 m n o p 0",
" q r 0 s t u 5 6 v w x y z A B C D E F G H I J K 5 5 m L o M N p",
" O P r Q r R S T U V W X Y Z &0 000102030405060708 3090a0b N M o",
"0c0d0e0f   p0g0h0i0j0k0l0m0n0o0p0q0r0s0t0u0v0w0x0y0z0a0b 0 M0a09",
"0A0B0C0D0E   p0F0G0H0I0J0K0L0M0N0O0P0Q0R0S0T0U0V0W0X0b 0 p0Y0Z0&",
"1 1011120D13   p1415161718191a1b1c1d1e1f1g1h1i1j1k1l 0 Q1m1n1o1p",
"1q1r1s1t1u1v0E  1w1x1y1z1A1B1C1D1E1F1G1H1I1J1K1L1M 0 Q Q1N1O1P1Q",
"1R1S1T1U1V1W1X 01Y1Z1&2 202122232425262728292a2b 0 r1m2c2d2e2f2g",
"2h2i2j2k2l2m2n2o 02p2q2r2s2t2u2v2w2x2y2z2A2B2C 0 12D2E2F2G2H2I2J",
"2K2L2M2N2O2P2Q2R1l 02S2T2U2V2W2X2Y2Z2&3 3031 0 13233343536373839",
"3a2K3b3c3d3e3f3g3h3i 02S3j3k3l3m3n3o3p3q3r 0 p3s3t3u3v3w3x3y3z3A",
"3B3a0G3C3D3E3F3G3H3I3J 03K3L3M3N3O3P3Q3R 0 p3S3T3U3V3W3X3Y3Z3&4 ",
" 5 53B404142434445464748 0494a4b4c4d3R N4e4f4g4h4i4j4k4l4m4n4o4p",
" 5 5 5404q4r4s4t4u4v4w4x48 N494y4z4A N4B4C4D4E4F4G4H4I4J4K4L4M4N",
" 5 5 5404O4P4Q4R4S4u4T4U4V4W N3J4X N4Y4Z4&5 50515253545556575859",
" 5 5 5084q5a5b5c5d5e5f5g5h5i3J 0 05j5k5l5m5n5o5p5q5r385s5t5u5908",
" 5 5 5 6595v5w5x5y5z5A5B5C5D1Y 0 05E5F5G5H5I5J5K5L5M5N5O594008 5",
" 5 5 5 65P5Q5R5S5T5U5V5W5X5Y 05Z5& 06 606162636465 n660& 6 5 5 5",
" 5 5 5 5 v6768696a6b6c6d6e 06f6g6h5Y 06i6j6k6l6m3a0& 6 5 5 5 5 5",
" 5 5 5 6 v1p6n5p6o6p6q6r 06s6t6u6v6w6x 06y6z6A6B6C6D 5 5 5 5 5 5",
" 5 5 5 6 v6E6F6G6H6I Q 06s6J6K6L6M6N6O0D 06P6Q6R6S6T6T6T l l6D 5",
" 56U6V6W6X6Y6Z6&7  Q 07071727374757677782p Q r797a7b7c7d7d7e6T6D",
"6V7f7g7h7i7j7k7l   07m7n7o7p7q7r7s7t7u7v0e1Y  6e7w7x7y7z7A7B7d6T",
"7C7D7E7F7G7H7I7J 07K7L7M7N7O7P7Q7R7S7T7U7V6e    5Y7W7X7Y7Z7&8 7e",
"7C80818283847J 085868788898a8b8c8d8e8f8g8h8i6e  1Y3i8j8k8l8m8n8o",
"7C8p8q8r8s p 08t8u8v8w8x8y8z8A8B8C8D8E8F8G8H8I r Q8J8K8L8M8N8O8P",
"7C8Q8R8S6r 08T8U8V8W8X8Y8Z8&9 909192939495969798 s 0999a9b9c9d9e",
"9f9g9h9i 09j9k9l9m9n9o9p9q9r9s9t9u9v9w9x9y9z9A9B9C9D 03K9E9F9G7c",
"9H9I9J 09D9K9L9M9N9O9P9Q9R9S9T9U9V9W9X9Y9Z9&a a0a1a29D 05Y1ma3a4",
" q p 0a5a6a7a8a9aaabacadaeafagahaiajakalamanao Kapaqar9D 0 pasat",
"   06fauavawaxayazaAaBaCaDaEaFaGaHaIaJaKaLaMao l6DaNaOaP M 0 MaQ",
" 0 paRaSaTaUaVaWaXaYaZa&b b0b1b2b3b4b5b6b7b8 k l 5 5b9babb 1 0 r"};
