/* XPM */
static char *magick[] = {
/* columns rows colors chars-per-pixel */
"32 32 247 2",
"   c #010001",
".  c #050000",
"X  c #050006",
"o  c #0a0001",
"O  c #0e0100",
"+  c #0e0305",
"@  c #0d030c",
"#  c #0d0011",
"$  c #110001",
"%  c #150101",
"&  c #140306",
"*  c #14050a",
"=  c #140808",
"-  c #190001",
";  c #1e0101",
":  c #1c0205",
">  c #1b050a",
",  c #1c0a0c",
"<  c #1c0a13",
"1  c #1f0e18",
"2  c #130911",
"3  c #161615",
"4  c #1b1415",
"5  c #1c1817",
"6  c #1b191a",
"7  c #1d1019",
"8  c #1f0528",
"9  c #230204",
"0  c #240508",
"q  c #230a0c",
"w  c #2a0203",
"e  c #2a060a",
"r  c #2c0808",
"t  c #240c12",
"y  c #2a0e12",
"u  c #2a0f18",
"i  c #200e1c",
"p  c #251415",
"a  c #23131a",
"s  c #201816",
"d  c #24191b",
"f  c #2b1516",
"g  c #2b151b",
"h  c #2f1a17",
"j  c #2a191b",
"k  c #340102",
"l  c #35060a",
"z  c #300a07",
"x  c #39040a",
"c  c #360809",
"v  c #320c14",
"b  c #3d0e15",
"n  c #3b0f19",
"m  c #331214",
"M  c #33141b",
"N  c #321a1b",
"B  c #3b131b",
"V  c #3c1a1d",
"C  c #3d1015",
"Z  c #230429",
"A  c #280b27",
"S  c #2c092d",
"D  c #200123",
"F  c #271520",
"G  c #2b1722",
"H  c #2d1c22",
"J  c #271e23",
"K  c #2c1f30",
"L  c #380629",
"P  c #380b2c",
"I  c #320931",
"U  c #331a22",
"Y  c #3c1d23",
"T  c #34162a",
"R  c #3b1939",
"E  c #212022",
"W  c #2d2424",
"Q  c #2e2c2a",
"!  c #342224",
"~  c #3e2426",
"^  c #38222a",
"/  c #3b2b2d",
"(  c #34252a",
")  c #392e33",
"_  c #3a2f3a",
"`  c #3b2732",
"'  c #343232",
"]  c #3d3437",
"[  c #3c333a",
"{  c #3c393c",
"}  c #353439",
"|  c #470507",
" . c #460609",
".. c #4b060e",
"X. c #4d080d",
"o. c #4b0e1a",
"O. c #4b0811",
"+. c #42121b",
"@. c #4c1216",
"#. c #49131a",
"$. c #4b1817",
"%. c #491d1d",
"&. c #421e1b",
"*. c #55090d",
"=. c #580a19",
"-. c #561418",
";. c #480c2a",
":. c #40102a",
">. c #461b23",
",. c #45192b",
"<. c #4a152b",
"1. c #4e1b25",
"2. c #491e28",
"3. c #451425",
"4. c #421534",
"5. c #560727",
"6. c #560b2c",
"7. c #5b0927",
"8. c #561e27",
"9. c #541b2b",
"0. c #5a142d",
"q. c #5b1634",
"w. c #581835",
"e. c #52211c",
"r. c #422324",
"t. c #462826",
"y. c #442b2e",
"u. c #4b252b",
"i. c #432229",
"p. c #44283f",
"a. c #482739",
"s. c #4a2a35",
"d. c #45322c",
"f. c #423536",
"g. c #41353a",
"h. c #423939",
"j. c #48333a",
"k. c #4d393b",
"l. c #57222c",
"z. c #59252c",
"x. c #5a2c2a",
"c. c #5a2f38",
"v. c #582833",
"b. c #52343d",
"n. c #5b3a3d",
"m. c #5a343c",
"M. c #61120d",
"N. c #661116",
"B. c #771718",
"V. c #630d30",
"C. c #6f1328",
"Z. c #691c27",
"A. c #641936",
"S. c #7d1828",
"D. c #7a1428",
"F. c #79183b",
"G. c #6b211e",
"H. c #632b2e",
"J. c #6b252e",
"K. c #602136",
"L. c #66293b",
"P. c #69303f",
"I. c #7f273f",
"U. c #77273d",
"Y. c #79313d",
"T. c #482742",
"R. c #552c43",
"E. c #5e3b42",
"W. c #543b58",
"Q. c #6d2e41",
"!. c #633748",
"~. c #633d43",
"^. c #6e3049",
"/. c #673b4c",
"(. c #6f3251",
"). c #782141",
"_. c #792c44",
"`. c #742b45",
"'. c #7e2650",
"]. c #7d334a",
"[. c #7c3b4d",
"{. c #733949",
"}. c #7b3b51",
"|. c #753b52",
" X c #4d4a4b",
".X c #494647",
"XX c #5c4647",
"oX c #564848",
"OX c #5c4c52",
"+X c #5c5452",
"@X c #575556",
"#X c #60464f",
"$X c #614d4e",
"%X c #6d454d",
"&X c #62485d",
"*X c #624d52",
"=X c #635356",
"-X c #62525a",
";X c #6b575a",
":X c #744d4e",
">X c #7b4957",
",X c #7a575b",
"<X c #665b63",
"1X c #765f65",
"2X c #7e5f71",
"3X c #6a6465",
"4X c #74656a",
"5X c #746868",
"6X c #881a28",
"7X c #931727",
"8X c #9e1725",
"9X c #9a1a27",
"0X c #932318",
"qX c #802520",
"wX c #872929",
"eX c #8c2a26",
"rX c #812730",
"tX c #802b3e",
"yX c #8f352a",
"uX c #8f3034",
"iX c #982127",
"pX c #942f37",
"aX c #a81822",
"sX c #a61c29",
"dX c #a72428",
"fX c #a73125",
"gX c #b03025",
"hX c #b3342d",
"jX c #852b47",
"kX c #813b4b",
"lX c #8d3045",
"zX c #823c54",
"xX c #883658",
"cX c #854556",
"vX c #864a5b",
"bX c #8b4359",
"nX c #804b55",
"mX c #81565f",
"MX c #8a5468",
"NX c #935668",
"BX c #8d7c7d",
"VX c #8f717d",
"CX c #9a6172",
"ZX c #8b7683",
"AX c #a4798c",
"SX c #aa7f92",
"DX c #928484",
/* pixels */
"Q 3 5 5 5 5 5 5 5 3 5 W h.oX#X*X$XXXk./ H d j ! ! Y / ) ) / )  X",
"3               , Y m.E.b.a.a.a.R./.>XmX,XXX! : > q p d d d J } ",
"s . o o .   = r.u.M * . . . . o o o > g v.>XNX:Xr.9 p j G j J { ",
"5 o o o o t M , o o o o o $ $ $ % % % % % m P.bXMX~.f f j f J { ",
"s o o o , q o o $ $ % % % % % - - - - 9 0 : e P.kXcX>XU j j H { ",
"d o $ % $ $ $ $ $ $ $ % - - ; - ; : 9 9 w e 0 C kX].vX~.f j H { ",
"! p N t.x.x.H.x.l.z.v.c.f o % % % - ; : 9 0 9 B zX[.cX%Xj j H g.",
"d o = , q m %.H.Y._.>.f , $ % % % & % : 9 : q %X>X[.cXm.j g H g.",
"d % % % % $ o $ +._.s.o % % - - : - ; 9 ; m >XvX}.cX|.U g M H g.",
"j % % $ % $ o $ o o.jX>.o % - - - - ; - Y vXzX[.zX^.U f g g U g.",
"j $ $ $ $ o o $ o $ =.F.v o % % - - % u.cX].].zXL.v y g g f j f.",
"j o o o . o + o $ o % 7.F.q o % $ = v.jXU.U._.9.e 0 y g f f j g.",
"5 .           . . o   $ 5.A.&   , L.A.q.A.A.B : q 0 t g a a d _ ",
"6                       & ;.<.a A.6.6.0.<.- o & > - > 1 1 a a ) ",
"s . . / ] { + . . o o o o 9 5.V.q.MX|.!.y =X~ y.y.y.=X#XY a G _ ",
"j o h.3X= $X$X( oX~ 9 d.y.Q.bX`.6.AXl.t.9 n.BX~.l n.1X4X<Xq U [ ",
"j o +X+X. f.3X;XoX5XoX;XMXNXMXCXV.ZXk.s.; ; DX;X; s.ZXZXH f H [ ",
"5   E 3X6 @XQ +X}  XOXZXT.&X&X2Xw.DX! ' a OX! BXy.k.4X-X<Xa G [ ",
"6 X   5 Q d   3X.XT R W.R R K E 7 R.(.! 4 ( > ^ ^ U ` a [ F F _ ",
"6             { p.I Z D Z #       X L :.+ o & $ & > * 7 < 7 a ) ",
"6           2 T S 8 S A @           t q.,.+ * > > > t a a a G _ ",
"6         i 4.P :.0.3.+               +.I.u.$ > > q t f f g j [ ",
"6   .   g q.0.C.D.o.o . . . . o . o o o 9.kX>.: e e v M M g U g.",
"s o . , Z.D.S.6Xb o $ $ % $ % % & % : ; e ^.bX%.w l b V B M V j.",
"j % o @.6X6X7X-.$ % ; ; ; ; ; ; : ; 9 9 w v.xXbXJ.#.B B m m M j.",
"j - $ =.7X7X9Xx o - % - - ; ; ; 9 ; ; +.Y.jX).'.jXlXkX{.c.u.i.j.",
"h ; ; | 8X8XsXN.9 k k k k k k k k k k | ..| ..X.O...o.8.l.1.2.b.",
"j % - % N.aX9XpXc - 9 w 9 9 w w w w w k k x x x x k #.1.M M M g.",
"d + $ o o *.iXdXuX&.o o $ - - - ; - 9 9 0 9 w 9 v 9.,.g f p d [ ",
"d $ % % % o z B.dXhXyXe.q + o o o $ o % ; w n <.<.v , a a a d [ ",
"p $ $ % $ $ o o r M.0XgXfXeXG.-.$.@.#.1.8.9.3.v 0 9 t s 7 a d ' ",
"/ p f h g g f h p d h %.G.qXeXwXwXrXJ.z.1.>.&.&.>.%.u.y./ / `  X"
};
