/* XPM */
static char *cubos[] = {
/* columns rows colors chars-per-pixel */
"32 32 256 2",
"   c #0B0B0B",
".  c #080709",
"X  c #120B0C",
"o  c #1C0C0B",
"O  c #17130D",
"+  c #0D0F12",
"@  c #0C1113",
"#  c #0D191E",
"$  c #0E171B",
"%  c #121313",
"&  c #1A1512",
"*  c #14191C",
"=  c #1C1B1B",
"-  c #161718",
";  c #24190D",
":  c #2A1C14",
">  c #311D14",
",  c #250D0D",
"<  c #3F2C1B",
"1  c #372617",
"2  c #22201E",
"3  c #0E1B21",
"4  c #151D23",
"5  c #201D20",
"6  c #192128",
"7  c #102830",
"8  c #0F2C37",
"9  c #242322",
"0  c #2A2523",
"q  c #292827",
"w  c #3A2C2B",
"e  c #3A352B",
"r  c #232B33",
"t  c #2B3335",
"y  c #373436",
"u  c #481A18",
"i  c #631F1E",
"p  c #513E0E",
"a  c #422C1A",
"s  c #472C19",
"d  c #483516",
"f  c #5E391E",
"g  c #703E1B",
"h  c #5A2B2B",
"j  c #463423",
"k  c #4B3623",
"l  c #483828",
"z  c #593E24",
"x  c #543B24",
"c  c #463833",
"v  c #493734",
"b  c #613E22",
"n  c #633330",
"m  c #3D423E",
"M  c #52461D",
"N  c #654C16",
"B  c #6B5212",
"V  c #6C581C",
"C  c #775B14",
"Z  c #56453A",
"A  c #4E503A",
"S  c #684626",
"D  c #7B4C23",
"F  c #754D26",
"G  c #7B532C",
"H  c #785326",
"J  c #7A5837",
"K  c #664B36",
"L  c #7A672B",
"P  c #72693C",
"I  c #0F3745",
"U  c #283E44",
"Y  c #3B3D44",
"T  c #164453",
"R  c #3A5554",
"E  c #2C4349",
"W  c #2A5C69",
"Q  c #17627A",
"!  c #306568",
"~  c #3B7476",
"^  c #28666D",
"/  c #165468",
"(  c #494847",
")  c #594E48",
"_  c #4D5849",
"`  c #645544",
"'  c #705A55",
"]  c #5C7958",
"[  c #726D4E",
"{  c #527173",
"}  c #727668",
"|  c #874B1C",
" . c #836616",
".. c #966A1E",
"X. c #977515",
"o. c #8C7119",
"O. c #A37D16",
"+. c #A0750A",
"@. c #8D5525",
"#. c #83562A",
"$. c #8B5728",
"%. c #8A5C2B",
"&. c #865528",
"*. c #935C2C",
"=. c #975A25",
"-. c #895D33",
";. c #89572C",
":. c #A15E28",
">. c #876425",
",. c #95612D",
"<. c #9D662B",
"1. c #897326",
"2. c #936433",
"3. c #9C6532",
"4. c #9B6A35",
"5. c #827938",
"6. c #8D6A39",
"7. c #AB662C",
"8. c #AD682D",
"9. c #A5642C",
"0. c #B4652C",
"q. c #B46B2D",
"w. c #BC6B2D",
"e. c #BA652A",
"r. c #A7762C",
"t. c #A46B33",
"y. c #AA6C33",
"u. c #A46D3B",
"i. c #B26E31",
"p. c #AC733B",
"a. c #A77339",
"s. c #B37335",
"d. c #BC7433",
"f. c #B1753A",
"g. c #B4793D",
"h. c #BA7A3D",
"j. c #B97634",
"k. c #B5752E",
"l. c #C37835",
"z. c #C67D3A",
"x. c #C97B36",
"c. c #D27E3A",
"v. c #916A41",
"b. c #88715A",
"n. c #8A6441",
"m. c #AA7744",
"M. c #B37B43",
"N. c #B37C4A",
"B. c #A97A51",
"V. c #C47F40",
"C. c #728854",
"Z. c #588A76",
"A. c #718F6D",
"S. c #98801F",
"D. c #A2811A",
"F. c #A98314",
"G. c #B38A15",
"H. c #BB9114",
"J. c #9D8A2B",
"K. c #86863F",
"L. c #B38428",
"P. c #BC9824",
"I. c #A59A3D",
"U. c #B78736",
"Y. c #BFA431",
"T. c #C2951C",
"R. c #C79B17",
"E. c #D09E15",
"W. c #CCA31B",
"Q. c #CFA010",
"!. c #D4A312",
"~. c #DDAA12",
"^. c #D8AB19",
"/. c #D8A813",
"(. c #EAB20F",
"). c #E2AD11",
"_. c #E6B011",
"`. c #EBB311",
"'. c #E4B31A",
"]. c #ECBA19",
"[. c #F4BB13",
"{. c #F9BF12",
"}. c #F1BF1D",
"|. c #C79428",
" X c #C8833B",
".X c #D2843C",
"XX c #D5893F",
"oX c #C28F29",
"OX c #CCA72B",
"+X c #DAB323",
"@X c #D3A236",
"#X c #D9AF2C",
"$X c #EBBD23",
"%X c #E5B92C",
"&X c #FBC314",
"*X c #FECA15",
"=X c #F4C219",
"-X c #FAC51B",
";X c #FCCD1C",
":X c #F5C117",
">X c #FFD918",
",X c #F3C212",
"<X c #DFC338",
"1X c #E9C729",
"2X c #FCCB21",
"3X c #F3C926",
"4X c #FDD324",
"5X c #FCD229",
"6X c #FEDD2D",
"7X c #F7D629",
"8X c #E9CB36",
"9X c #FBD832",
"0X c #E5D034",
"qX c #FFE72A",
"wX c #FAE637",
"eX c #FFF134",
"rX c #8B954C",
"tX c #939B4F",
"yX c #BD8042",
"uX c #B7834B",
"iX c #B49068",
"pX c #C78646",
"aX c #CC914B",
"sX c #D4B641",
"dX c #D69A61",
"fX c #EDD942",
"gX c #FFF143",
"hX c #196B84",
"jX c #16728E",
"kX c #177896",
"lX c #2C7787",
"zX c #33788C",
"xX c #177FA1",
"cX c #0B7CA8",
"vX c #547A83",
"bX c #268397",
"nX c #368797",
"mX c #3E878F",
"MX c #1281AA",
"NX c #1684A7",
"BX c #1289B4",
"VX c #128AB7",
"CX c #0D86B5",
"ZX c #2486A3",
"AX c #308FAB",
"SX c #74919E",
"DX c #7BA2AB",
"FX c #4B918D",
"GX c #0E8DC0",
"HX c #1893C0",
"JX c #0A93CA",
"KX c #269EC8",
"LX c #809AA6",
"PX c #8AA5B9",
"IX c #C1C3BD",
"UX c #FCE8C5",
/* pixels */
"    6 & & O X 1 g | =.| D D D F G %.#.F j q ( IXUXB.s s a a < a ",
"  t E X     . . . > f | D G #.#.G &.,.K Y U { PXLX} v s k k j a ",
"- vXt . . . . s K v w Z J @.&.$.$.$.J ) ` b.IXLX( Y ) v k l j a ",
"c SX=   . o h ' E 4 * # 9 S $.$.=.&.v c c J dXiX( 7 ( ) S S k a ",
"v { % + , i c * = 9 9 : * 1 $.=.$.Z y & @ - E b.K y y ( G 2.#.S ",
"= = % O i w .     = 0 2 9 2 S &.x 0 - % = 2 * 6 ` K 6 y -.,.t.9.",
"    @ u h @ .   . . + = 4 0 S S 0 2   @ * * 6 9 4 v y x 0.8.8.i.",
"  +   u 0 O +     & p  .< 0 b j e & @ 3 3 3 # # 4 q e $.w.8.s.h.",
"    X w = ; M B X.H.).[.F.0 z > t T 7 3 3 $ * 3 4 3 l d.l.s.d.q.",
"X   X w B F.Q.~.Q.).(.(.&X1.; , E MXkXhXQ T 7 # 3 4 z y.8.7.:.t.",
"o X . N _.~./.Q.(.{.(.[.qX0X: & I kXhXhXjXkXjX/ 8 9 &.*.,.u.u.a.",
": o o N `.)./.`.*X,X,X;XfXsX1.M I kXkXkXxXkXjXkXhXx F G 4.h.M.M.",
"a : & w G.R.W./.Q.E.|.OX<X'.W.[ ! lXbXcXGXKXKXHXW | %.<.,.3.s.j.",
"a a 1 , H W.P.H.R.+X%X5X7XR.~.F.5.Z.Z.ZXVXKXHXBXR $.<.4.4.,.,.y.",
"s s s > 1 '.eXqX>X>X7X^.H.'.-X^.+.J.rXFXFXHXGXVXcXxX[ 8.t.s.h.2.",
"a > a > : X.7XwXwX^.R.+X5X4X-XOXJ.H.C.nXnXZXZXGXVXCXnXy.j.i.t.y.",
"z z z k p M X.<XfX].[.;X6X9X5XOXI.O.1._ ^ ^ bXMXMXMX{ 8.9.9.8.8.",
"2.2.-.<.+.C C +X2X`.(.:X=X2X9X2X=X1. .A C.^ NXNXMXCX~ 2.v.3.s.8.",
"p.p.t.^.(.(.[.`.{.`._.[.{.2X$X3X=XH.C V L C.bXMXMXJXAX} y.t.8.7.",
"t.y.t.@X{._.*X&X{.{.[.[.:X[.)./.Q.H.F.X.D.rXA.bXbXzXAXA.9.8.0.7.",
"t.p.p.U.{.'.*X,X4X-X{.{.[.[.~.).~.!.X.X.N rX] I.[ ` vX} 9.s.q.w.",
"p.f.f.t.oXQ.[.;XwX}.;X`.[.{.`.).~.Q.R.D.R I.o.X.@._ [ [ 8.w.0.9.",
"M.M.p.#X-X=X;X-X2X}.9X&X&X*X[.~._.)./.G.d M o.K.G { 3.=.9.9.9.8.",
"h.g.f.@XaXP.,X*X&X[.5X6X-X-X[._.)._.).C B S.C U { -.=.:.7.q.0.8.",
"h.h.uXuXm.6.J R.,X1X8XeX2X-X[.[.].`.).~.R. .^.S.~ %.=.8.0.<.%.3.",
"m.M.uXuXaXaXN.L.L.%X4X5X7X2X6X5X2X[.[.`.(.F.D.K.^ J =.,.%.4.p.f.",
"M.N.N.yXz.j.y.r.L.L.9X@X7X6X9X5X4X`.).~.(.!.B P.rX[ X.V t.p.y.f.",
"pXg.h.x.l.z. Xj.a.H a.4.4XeX3X-X2X5X].~.)./.H.Q.1X^.O.F u.f.y.9.",
"d.l.x.l.z..Xz.a.a.a.oXP.P.1X1XW.].4X;X*X:X[.(.G.D.;X2XU.m.a.p.s.",
"l.l.l.l.h.f.y.a.N.p.L.f.2.k. Xy.T.+XR.'.&X=XR.Q._.gX1X~.'.k.w.w.",
".Xz.p.u.h.pXpXpXV.h.h. X.X.X X3.r.s.3.>.C 1.>.#.X.0X4X/.L.q.e.e.",
"f.m.M.N.pXaXpX.X.XXX.Xc.j.*.,.p.z.M.m.m.n.n.m.u.t.....d.s.0.e.e."
};
