/* XPM */
static char *render_p_HairTK[] = {
/* columns rows colors chars-per-pixel */
"32 32 256 2",
"   c #0D0905",
".  c #130D07",
"X  c #1B160E",
"o  c #19140D",
"O  c #271A0E",
"+  c #261F15",
"@  c #2D2114",
"#  c #322515",
"$  c #322619",
"%  c #34281A",
"&  c #392615",
"*  c #3A2A17",
"=  c #3C2D1D",
"-  c #3B2E20",
";  c #422E1A",
":  c #43301C",
">  c #4A361F",
",  c #463623",
"<  c #493420",
"1  c #4C3925",
"2  c #4A3926",
"3  c #533622",
"4  c #533B24",
"5  c #523D2A",
"6  c #5C3F24",
"7  c #593D2D",
"8  c #544429",
"9  c #5A4126",
"0  c #5B4429",
"q  c #5C4632",
"w  c #594D3C",
"e  c #5F533C",
"r  c #63452A",
"t  c #644A2D",
"y  c #6B4D2D",
"u  c #684329",
"i  c #624A35",
"p  c #6B5132",
"a  c #6E553A",
"s  c #764F30",
"d  c #75532E",
"f  c #735333",
"g  c #735A37",
"h  c #755B38",
"j  c #7A5435",
"k  c #7B593B",
"l  c #7E5737",
"z  c #7D623D",
"x  c #796A3B",
"c  c #5E4F40",
"v  c #675C4F",
"b  c #765B47",
"n  c #6B6053",
"m  c #6D685E",
"M  c #7A6748",
"N  c #756B56",
"B  c #7B6C50",
"V  c #706556",
"C  c #7C7058",
"Z  c #726E67",
"A  c #7D7668",
"S  c #7D796B",
"D  c #767268",
"F  c #7D7973",
"G  c #825C39",
"H  c #855A36",
"J  c #82613B",
"K  c #86683F",
"L  c #8B633C",
"P  c #92693E",
"I  c #96633B",
"U  c #846641",
"Y  c #836A43",
"T  c #8C6642",
"R  c #8A6943",
"E  c #8B6F4A",
"W  c #876D53",
"Q  c #8D744B",
"!  c #8A7449",
"~  c #82715A",
"^  c #8C7451",
"/  c #8B775D",
"(  c #8C7B5C",
")  c #8E7855",
"_  c #946B44",
"`  c #9A6D42",
"'  c #9D6D49",
"]  c #946640",
"[  c #967246",
"{  c #91734A",
"}  c #9C7145",
"|  c #9B7449",
" . c #9A794B",
".. c #987C43",
"X. c #9A7C52",
"o. c #937C56",
"O. c #847563",
"+. c #807867",
"@. c #837A6B",
"#. c #8C7A62",
"$. c #8B7E6A",
"%. c #847E72",
"&. c #887E71",
"*. c #A47244",
"=. c #A4794B",
"-. c #AC754A",
";. c #A37E50",
":. c #B2734A",
">. c #B47B4C",
",. c #BD7045",
"<. c #DC7F4E",
"1. c #CA7648",
"2. c #8A805C",
"3. c #9C8155",
"4. c #9B855A",
"5. c #9E8A5A",
"6. c #8E8165",
"7. c #8D816B",
"8. c #848069",
"9. c #85827C",
"0. c #8A8274",
"q. c #8A847B",
"w. c #8E897C",
"e. c #848074",
"r. c #958464",
"t. c #92836B",
"y. c #998364",
"u. c #9A8B65",
"i. c #928673",
"p. c #938974",
"a. c #91897C",
"s. c #998D74",
"d. c #9E916C",
"f. c #9A9079",
"g. c #A38353",
"h. c #A28559",
"j. c #AC8C5B",
"k. c #A68857",
"l. c #AD925D",
"z. c #B3824F",
"x. c #B48854",
"c. c #B28B59",
"v. c #B98E5B",
"b. c #B98653",
"n. c #B3925E",
"m. c #B9945C",
"M. c #A28B63",
"N. c #A08F69",
"B. c #A49262",
"V. c #A3916B",
"C. c #AE9362",
"Z. c #AB966A",
"A. c #AE9B6A",
"S. c #A49679",
"D. c #AB9D75",
"F. c #A69571",
"G. c #B49562",
"H. c #B69C67",
"J. c #B99661",
"K. c #BC9C64",
"L. c #B39C69",
"P. c #AFA16E",
"I. c #AFA479",
"U. c #B5A36B",
"Y. c #BEA163",
"T. c #BCA46B",
"R. c #BAAA6E",
"E. c #B3A175",
"W. c #B0A37A",
"Q. c #B9A373",
"!. c #BFA877",
"~. c #BAAA7E",
"^. c #B7A872",
"/. c #C48C59",
"(. c #C09A5D",
"). c #DE935D",
"_. c #C49661",
"`. c #D49D66",
"'. c #C3A564",
"]. c #C3A16B",
"[. c #C9A263",
"{. c #C9AB6B",
"}. c #C5A96B",
"|. c #C8AB73",
" X c #C3A773",
".X c #CFB076",
"XX c #CBB37C",
"oX c #D4A265",
"OX c #D4A368",
"+X c #D3AB71",
"@X c #D3BA6F",
"#X c #D3B57A",
"$X c #D3BA7D",
"%X c #D9BB7A",
"&X c #D5B674",
"*X c #E68A55",
"=X c #E5AF70",
"-X c #868580",
";X c #898681",
":X c #8D8984",
">X c #8E8C8A",
",X c #908E8B",
"<X c #908B84",
"1X c #959085",
"2X c #93918D",
"3X c #9E9883",
"4X c #959492",
"5X c #989693",
"6X c #9A9896",
"7X c #9B9A99",
"8X c #9FA0A0",
"9X c #A09F9D",
"0X c #A0A09E",
"qX c #B7A781",
"wX c #B5AC83",
"eX c #BBAC83",
"rX c #B7AD8B",
"tX c #B0AD92",
"yX c #A4A3A2",
"uX c #A8A8A7",
"iX c #ACADAC",
"pX c #A8A7A5",
"aX c #B4B6A1",
"sX c #B4B4B4",
"dX c #BCBCBC",
"fX c #C3B584",
"gX c #C7B78F",
"hX c #C9BF87",
"jX c #CDBE8F",
"kX c #C3B992",
"lX c #D2BD85",
"zX c #CDC798",
"xX c #DFC684",
"cX c #DDCC90",
"vX c #D4CA94",
"bX c #CFC7A0",
"nX c #D1CBA5",
"mX c #D7D2AD",
"MX c #DCD7B2",
"NX c #E0C98C",
"BX c #E4CA91",
"VX c #ECD99D",
"CX c #F8CD86",
"ZX c #E8DBA7",
"AX c #E1DEBB",
"SX c #FFE7A0",
"DX c #F5E0A9",
"FX c #FEF5BD",
"GX c #C1C1C1",
"HX c #CACACA",
"JX c #D6D6C1",
"KX c #EAE9CE",
"LX c #EFECD0",
"PX c #FFFDD1",
"IX c #F5F4DA",
"UX c #FFFEE0",
/* pixels */
"HXGXGXGXHXGXGXHXGXGXHXGXGXHXGXGX7XdXGXGXGXHXGXGXGXdXGXHXGXGXHXHX",
"GXGXGXdXGXGXGXGXGXGXGXGXGXdXGXdXq.GXGXGXGXGXuXdXiXsXGXGXGXGXGXGX",
"GXGXGXGXGXGXGXGXGXdXGXdXsX0XGX5X%.GXGXGXGXdX>XdX4XsXGXiXdXGXGXGX",
"HXGXGXGXGXGXdXGXGXGXGXGX7XyXGXA 9.GXGXGXGXiX%.dXq.dXdX6XGXGXGXGX",
"GXGXGXdXGXGXGXGXGXGXGXGXq.sXiXB @.GXGXpXGX-X9.sXF GXuX:XGXGXdXHX",
"GXGXGXGXdXGXGXdXdXdXdXdX0.GX,Xo.A GXdX>XGX@.4X>XA GX9.:XGXGXGXGX",
"HXGXGXGXGXGXGXsXdXyXdXpX$.GX%.K.A GXiXw.GX/ 7X&.@.GX@.>XGXGXGXGX",
"GXGXGXGXdXGXGXuXiX>XGX>X7.sXr.{.+.GX2X9.iXX.6Xr.%.GX~ 4XGXGXGXdX",
"GXGXGXGXdXGXGX2X9Xq.GXp.p.6Xh.%X$.sX@.>X7Xl.>Xl.<XiXE 5XGXGXGXyX",
"GXGXGXGXGXGXGXq.,X&.GXS.t.0.A.xX( q.C 0X2Xm.F '.4X6X3.7XGXGXGX5X",
"GXGXGXGXGXGXsXa.w.0.GXI.2.M.B.zX4.S ) iXw.m.S @X7X,Xv.4XGXGXdX0.",
"GXdXGXGXGXGX9Xt.0.0.dXrXC.XXu.vX4.B ! dXe.Y.N $X9X;X`.4XGXGX0X+.",
"HXGXGXGXGXsXe.t.t.0.sXkXlX|.d.ZX! G.~ sXS {.2.hXyX$.OX2XGXdX2Xr.",
"GXGXdXdXGXuX( r.r.i.uXbXcXC.7.ZXY XXe.yX8.T.~.xX6Xr.OX2XsXsXp.t.",
"GXGXsXsXGX6XT.r.V.a.9XmXVX) w.vXM +X:X2Xr.H.nXfX-X4._.>X5X7Xl.q.",
"HXGXyXsXGX1X#X/ D.S.6XMXZXW aX~.X.].q.1XA.G.AXeXm 3.v.;Xa.2X%Xw.",
"GXGX2XiXGXS #X~ W.D.2XnXBXN JXU.l.j.q.f.|.X.KXD.M 3.c.F $.e.cX>X",
"GXGXq.iXGXN $XN W.~.<XgX$Xn LXl.n.X.t.F.K.M IXZ.X. .c.D ) #.hX2X",
"HXGX8.pXsX2.%Xn W.eXq.XX[.C PX! j.Q V.Q.j.B UXh.h.{ g.D 4.|.H.-X",
"GXGX( 5XiXu.&Xn W.eX7.|.k.s.FXp n.U ~.!.g.6.UX3.4.R | 8.5.%Xh.F ",
"GXGX) -X8X^.'.n E.E.r.G.z 3XDX4 J.z wXQ.[ d.PX{ 3.K Y p.) &X .~ ",
"HXGX/ %.4XR.n.v Q.Q.d.n.8 tXBX: J.z rXH.k D.FXY { K a 6.Y oX| #.",
"GXGXO.#.4X}.;.c  XT.A.k., zX#X& G.{ jXj.t E.SXz E G q V.g /.J h.",
"HXGX@.W 2X'._ 5 Q.T.L.| - cX`.O c.h.cX| > ^.CXh g d w U.0 >.t U.",
"GXGXq._ S J.R 4 l.H.G.K $ xXm.. ;.G.NXK * ].=Xp 9 y e l.9 *.1 T.",
"GXGX,X*.M z.U 8  .m.l.h + +Xc.  ` k.%Xp $ `./.8 > r z =.0 P 8 {.",
"HXGX9X` R *.G 9 K c.g.p o /.z.. k k.[.4 + ).:.2 : r ! l t H x Y.",
"GXGX0XT } G g 9 f b.[ t . } z.X y k.x.> % *XH = * y K 0 f u ..h.",
"GXGXpXG _ f y 0 i b.G 0 X G >.% 9 =.*.= < <.s % @ f a 4 J 3 *.W ",
"GXGXyXk H s f 6 4 b.s 4 # r >.; > P _ * 3 1.u $ @ J 9 4 P ; I b ",
"HXGX7Xl r j H 3 = :.r ; ; 7 :.: * s L # 3 ,.6 @ = P < 7 ] & H 0 ",
"HXGXyXk 5 k _ 4 - ' p - 5 5 -.1 = i T % 7 :.0 $ t P , p | = j i "
};
