/* XPM */
static char *magick[] = {
/* columns rows colors chars-per-pixel */
"32 32 86 1",
"  c Gray0",
". c #010101",
"X c #020202",
"o c #040404",
"O c #060606",
"+ c #070707",
"@ c Gray3",
"# c #0c0c0c",
"$ c Gray5",
"% c #0e0e0e",
"& c Gray7",
"* c Gray10",
"= c #1e1e1e",
"- c #222222",
"; c #252525",
": c #2a2a2a",
"> c Gray17",
", c #2d2d2d",
"< c Gray18",
"1 c Gray19",
"2 c #393939",
"3 c #3a3a3a",
"4 c Gray24",
"5 c #3e3e3e",
"6 c #0b137c",
"7 c #0b7c13",
"8 c #137e0b",
"9 c #4f2217",
"0 c #7c290b",
"q c Gray25",
"w c Gray27",
"e c Gray31",
"r c #505050",
"t c #555555",
"y c #565656",
"u c #585858",
"i c Gray35",
"p c Gray36",
"a c #646464",
"s c #656565",
"d c #686868",
"f c Gray41",
"g c Gray44",
"h c #727272",
"j c Gray46",
"k c #0b0b84",
"l c #0b0b86",
"z c #131384",
"x c Blue",
"c c #000ff0",
"v c #0f0fff",
"b c #7c7c84",
"n c #0b840b",
"m c #0b860b",
"M c #00f00f",
"N c Green",
"B c #0ff300",
"V c #86220b",
"C c #84240b",
"Z c #84260b",
"A c #8b2308",
"S c #ff3000",
"D c #ff3400",
"F c #ff3500",
"G c #ff3800",
"H c #ff3c00",
"J c #f04000",
"K c #f04400",
"L c #848484",
"P c #868684",
"I c #898989",
"U c #8b8b8b",
"Y c #9b9b9b",
"T c #9d9d9d",
"R c #9f9f9f",
"E c #a2a2a2",
"W c #aaaaaa",
"Q c #aeaeae",
"! c Gray71",
"~ c #bbbbbb",
"^ c #bcbcbc",
"/ c #bebebe",
"( c #c1c1c1",
") c Gray80",
"_ c #f0f0ff",
"` c Gray100",
/* pixels */
"2ittttttttrf((((((((((9CCCCCCCC9",
"iYYYYYYYYYYa((((((((((AHGGGGGGHA",
"tYYYYYYYYYYa((((((((((CGFFFFFFGC",
"tYYYYYYYYYYa((((((((((CGFFFFFFGC",
"tYYYYYYYYYYa(/((((((((CGFFFFFFGC",
"iYYYYYYYYYYa(-W(((((((CGFFFFFFGC",
"2ittttttttrf( q(((((((VFSSSSSSFV",
"(((((((((((((+ h((((((0KJJJJJJK0",
"2ittttttttrf(@ $T(((((8BBBBBBBB8",
"i))))))))))a(@  ,~((((mNNNNNNNNm",
"t))))))))))a(@   p((((nNNNNNNNNm",
"t))))))))))a(@    U(((nNNNNNNNNm",
"t))))))))))a(@    =Q((nNNNNNNNNn",
"i))))))))))a(+     w((nNNNNNNNNn",
"2ittttttttrf(+      j(mNNNNNNNNm",
"(((((((((((((+      #(7MMMMMMMM7",
"$,::::::::;4(+      +(6cccccccc6",
",hhhhhhfhhh2(+      f(kxxxxxxxxk",
":hfhhfhhhfh2(+     4((kxxxxxxxxk",
":hhhhhhhhhh2(+    *W((kxxxxxxxxk",
":hhhfhhfhhh2(+    U(((kxxxxxxxxk",
",ffhhhhhfhh2(+   p((((kxxxxxxxxk",
"$,::::::::;4(+  1/((((kxxxxxxxxk",
"(((((((((((((+ &E(((((zvvvvvvvvz",
"2ittttttttrf(+ /((((((b________b",
"iTYYYYYYYYYa( e(((((((P````````P",
"tYYYYYYYYYYa(,!(((((((L````````P",
"tYYYYYYYYYYa(T((((((((L````````P",
"tYYYYYYYYYYa((((((((((L````````L",
"iYYYYYYYYYYa((((((((((L````````L",
"2ittttttttef((((((((((U````````U",
"((((((((((((((((((((((eLLLLLLLLe"
};
