/* XPM */
static char *magick[] = {
/* columns rows colors chars-per-pixel */
"32 32 238 2",
"   c #000002",
".  c #080400",
"X  c Gray6",
"o  c #0a0909",
"O  c #0f110f",
"+  c #13130f",
"@  c #1e1303",
"#  c #18140b",
"$  c #141613",
"%  c #1e1d15",
"&  c #181818",
"*  c #1c1e22",
"=  c #231505",
"-  c #2c1a03",
";  c #221c14",
":  c #242117",
">  c #2a251c",
",  c #2d2213",
"<  c #372207",
"1  c #31220c",
"2  c #3a2306",
"3  c #392308",
"4  c #3e2709",
"5  c #342b16",
"6  c #3b2b18",
"7  c Gray15",
"8  c #262520",
"9  c #2f2e24",
"0  c #2a2a2a",
"q  c #2f3026",
"w  c #302e2c",
"e  c #36362a",
"r  c #3b3424",
"t  c #393128",
"y  c #343325",
"u  c Gray19",
"i  c #363536",
"p  c #353638",
"a  c #3d3933",
"s  c #39393a",
"d  c #3c3d40",
"f  c #412c12",
"g  c #413117",
"h  c #40331d",
"j  c #413929",
"k  c #4a3f26",
"l  c #413d37",
"z  c #513e20",
"x  c #623a08",
"c  c #5b461e",
"v  c #43433c",
"b  c #50452c",
"n  c #5e4c28",
"m  c #644317",
"M  c #724206",
"N  c #75460c",
"B  c #7d4504",
"V  c #68522b",
"C  c #655e3f",
"Z  c #685431",
"A  c #6b5a36",
"S  c #7a5821",
"D  c #434241",
"F  c #46494f",
"G  c #4d4d4e",
"H  c #4c4e52",
"J  c #52584c",
"K  c #5d5a44",
"L  c Gray32",
"P  c #535355",
"I  c #55585d",
"U  c Gray35",
"Y  c #5b5d63",
"T  c #6a6549",
"R  c #626250",
"E  c #6e6e56",
"W  c #706946",
"Q  c #796d48",
"!  c #716f50",
"~  c #7b704a",
"^  c #717157",
"/  c #70705d",
"(  c #7b7757",
")  c #63656a",
"_  c #6d6d6d",
"`  c #626262",
"'  c #6f767e",
"]  c #767676",
"[  c #727476",
"{  c Gray49",
"}  c #767c85",
"|  c #797e85",
" . c #7e8186",
".. c #834d0b",
"X. c #8c520a",
"o. c #9c5804",
"O. c #99590b",
"+. c #976e2d",
"@. c #9c6f2c",
"#. c #9e732d",
"$. c #ad6306",
"%. c #bc6b09",
"&. c #ad7526",
"*. c #887343",
"=. c #8b7848",
"-. c #8a7c50",
";. c #c1710e",
":. c #c77a16",
">. c #da7c0a",
",. c #8d825b",
"<. c #97834d",
"1. c #9c824c",
"2. c #968655",
"3. c #99976f",
"4. c #ae8842",
"5. c #a89055",
"6. c #b8a268",
"7. c #c3842a",
"8. c #c48932",
"9. c #cb9139",
"0. c #e0820c",
"q. c #e68a13",
"w. c #e5961f",
"e. c #f18f12",
"r. c #ff990f",
"t. c #ff9412",
"y. c #ff9716",
"u. c #ff9a11",
"i. c #ff9e12",
"p. c #ff9f17",
"a. c #ff9b1c",
"s. c #ff9f23",
"d. c #ffa117",
"f. c #ffa227",
"g. c #ffa82b",
"h. c #ffaa34",
"j. c #ffb32d",
"k. c #ffb233",
"l. c #ffb932",
"z. c #c09348",
"x. c #c09c58",
"c. c #dea142",
"v. c #cdb26c",
"b. c #c9b374",
"n. c #f5b145",
"m. c #ffb244",
"M. c #ffb549",
"N. c #ffb840",
"B. c #f0b657",
"V. c #ffbf5a",
"C. c #d9c17d",
"Z. c #ffc75c",
"A. c #ffc95e",
"S. c #e7c06b",
"D. c #e5c87f",
"F. c #edcb7a",
"G. c #ffca64",
"H. c #ffca6b",
"J. c #f4cf7a",
"K. c #ffcf77",
"L. c #ffd06f",
"P. c #ffd56b",
"I. c #f6d37f",
"U. c #ffd573",
"Y. c #ffd37d",
"T. c #ffd67c",
"R. c #ffd977",
"E. c #ffda7f",
"W. c #838486",
"Q. c #848a92",
"!. c #959697",
"~. c #929499",
"^. c #96989d",
"/. c #9c9d9e",
"(. c #999a9d",
"). c #a1a586",
"_. c #b1b28f",
"`. c Gray63",
"'. c #a3a7ac",
"]. c #adadae",
"[. c #abacaf",
"{. c #acb0b4",
"}. c #b4b5b6",
"|. c #b4b6b9",
" X c #b7b8ba",
".X c #b9b9b9",
"XX c Gray74",
"oX c #bbbcbd",
"OX c #bebfc0",
"+X c #d7cc95",
"@X c #dfd194",
"#X c #dcd69b",
"$X c #c7c8a2",
"%X c #c8caa3",
"&X c #eed182",
"*X c #ecdc9a",
"=X c #ffd783",
"-X c #ffd884",
";X c #ffde8f",
":X c #f8da8d",
">X c #ffe295",
",X c #ffe792",
"<X c #ffe996",
"1X c #ffeb9d",
"2X c #fff09e",
"3X c #e8e7ba",
"4X c #ffe7a0",
"5X c #ffe9a2",
"6X c #ffeda5",
"7X c #feeeab",
"8X c #fff1a3",
"9X c #fff1a4",
"0X c #fff6af",
"qX c #fef3ab",
"wX c #fff8ad",
"eX c #fff5b2",
"rX c #fff7b5",
"tX c #fef2b2",
"yX c #fef7ba",
"uX c #fffab4",
"iX c #fef8bd",
"pX c #ffffb9",
"aX c #fdfcbe",
"sX c #c1c1c1",
"dX c #c1c2c4",
"fX c #c6c6c6",
"gX c #c3c4c5",
"hX c #c7c7c8",
"jX c #c7c8c9",
"kX c Gray79",
"lX c #cdcdcd",
"zX c #cbcccc",
"xX c #f7f8c3",
"cX c #ffffc6",
"vX c #fbfbc3",
"bX c #feffc8",
"nX c #fcfccd",
"mX c #ffffd5",
/* pixels */
"sXsXsXkXzXkXsXsXsXsXsXsXsXsXsXsXsXsXsXsXsXsXsXsXsXsXsXsXsXsXsXsX",
"sXsXkX(.P G oXfXsXsXsXsXsXsXsXsXsXsXsXsXsXsXsXsXsXsXsXsXsXsXsXsX",
"sXkX) y 3.~ s XXfXsXsXsXsXsXsXsXsXsXsXsXsXsXsXsXsXsXsXsXsXsXsXsX",
"kX| 1 &XcXaX-.i XXfXsXsXsXsXsXsXsXsXsXsXsXsXsXsXsXsXsXsXsXsXsXsX",
"dXw :.Z.4XiXpX-.p OXkXsXsXsXsXsXsXsXsXsXsXsXsXsXsXsXsXsXsXsXsXsX",
"}.; 0.g.H.7XiXpX2.s ].jXlXfXsXsXsXsXsXsXsXsXsXsXsXsXsXsXsXsXsXsX",
"fX .3 q.h.K.eXiX,.# > D ) ^.oXlXkXfXsXsXsXsXsXsXsXsXsXsXsXsXsXsX",
"sXlX| < q.l.I.v K #X*Xb.=.b a H  .[.hXlXfXsXsXsXsXsXsXsXsXsXsXsX",
"sXsXlX| 3 w.m Z 8X0XeXrXwX1XD.5.A j D ) /.sXlXkXsXsXsXsXsXsXsXsX",
"sXsXsXlX .= - n.G.=X>X5X7XtXeX0X8X:Xv.<.r * F W.fXsXsXsXsXsXsXsX",
"sXsXsXsXlX' 4 g.m.V.H.Y.;X5X7XqXrXpX@XQ > 5 c @ [ kXsXsXsXsXsXsX",
"sXsXsXsXsXdXt q.f.h.M.V.H.Y.;X9X*XT 9 ( C.T.P.8.s jXsXsXsXsXsXsX",
"sXsXsXsXsXlXH $.p.a.f.h.m.V.R.6.: R 3XbX6X-XL.9.G kXsXsXsXsXsXsX",
"sXsXsXsXsXkX} M i.t.y.a.s.k.@.+ _.mXnXcXtX;XU.+.) lXsXsXsXsXsXsX",
"sXsXsXsXsXfX'.f t.t.t.t.d...$ $XmXbXbXbXyX>XL.z ^.fXsXsXsXsXsXsX",
"sXsXsXsXsXsXgXa >.u.t.i.O.O q / bXbXbXbXyX<Xz.D kXsXsXsXsXsXsXsX",
"sXsXsXsXsXsXzXI o.i.u.;.X $XnXe E bXbXcXrXI.h (.kXsXsXsXsXsXsXsX",
"sXsXsXsXsXsXkXQ.x i.e.= ).mXbXxXe E bXvX8XV Y lXsXsXsXsXsXsXsXsX",
"sXsXsXsXsXsXfX{.6 r.B J mXbXbXbXxX9 ^ uX1.s gXsXsXsXsXsXsXsXsXsX",
"sXsXsXsXsXsXsXjXv %.1 +XcXcXbXbXbXiXy k i  XfXsXsXsXsXsXsXsXsXsX",
"sXsXsXsXsXsXsXlX_ - A <X6XtXyXiXrX8X*.o G kXsXsXsXsXsXsXsXsXsXsX",
"sXsXsXsXsXsXsXkX/.  6.E.=X;X>X<XF.n d }.0 P sXsXsXsXsXsXsXsXsXsX",
"sXsXsXsXsXsXsXdX}.> B.G.H.U.H.4., I kXfXXX0 L sXsXsXsX}.[ sXsXsX",
"sXsXsXsXsXsXsXsXhXl &.n.c.#.g i ~.lXsXsXsXXX0 L sXsXXXu X sXsXsX",
"sXsXsXsXsXsXsXsXfX(.w j l I ~.fXkXsXsXsXsXsXXX7 L }.u ..2 !.sXsX",
"sXsXsXsXsXsXsXsXsXkXOX|.dXzXkXsXsXsXsXsXsXsXsXXX7 & N l.S U sXsX",
"sXsXsXsXsXsXsXsXsXsXsXsXsXsXsXsXsXsXsXsXsXsXsX.X7 N k.G.v.7 sXsX",
"sXsXsXsXsXsXsXsXsXsXsXsXsXsXsXsXsXsXsXsXsXsX.X0 ..j.A.,XwX% ].sX",
"sXsXsXsXsXsXsXsXsXsXsXsXsXsXsXsXsXsXsXsXsX].u . X.7.S.qXcX! [ sX",
"sXsXsXsXsXsXsXsXsXsXsXsXsXsXsXsXsXsXsXsXsX.X`.W.` i > r W C u !.",
"sXsXsXsXsXsXsXsXsXsXsXsXsXsXsXsXsXsXsXsXsXsXsXsXsXsXoX`.{ U u _ ",
"sXsXsXsXsXsXsXsXsXsXsXsXsXsXsXsXsXsXsXsXsXsXsXsXsXsXsXsXsXsXsXsX"
};
