/* XPM */
static char *magick[] = {
/* columns rows colors chars-per-pixel */
"32 32 212 2",
"   c Gray100",
".  c Yellow",
"X  c Magenta",
"o  c Red",
"O  c Cyan",
"+  c Green",
"@  c Blue",
"#  c Gray0",
"$  c #a8a3a9",
"%  c #aaa5ad",
"&  c #a8a3ab",
"*  c #a6a0aa",
"=  c #a7a2ab",
"-  c #a5a0a9",
";  c #a5a0aa",
":  c #a7a2ac",
">  c #a9a6ac",
",  c #a39fa9",
"<  c #9f9ba5",
"1  c #a19da8",
"2  c #9f9ba7",
"3  c #a7a4ad",
"4  c #9d99a6",
"5  c #9f9ba8",
"6  c #a09da7",
"7  c #9692a1",
"8  c #a3a1a9",
"9  c #9a97a4",
"0  c #9794a3",
"q  c #9491a0",
"w  c #9f9da7",
"e  c #9491a2",
"r  c #9592a2",
"t  c #a09ea9",
"y  c #9d9ba6",
"u  c #9997a4",
"i  c #9f9da9",
"p  c #9b99a5",
"a  c #9593a1",
"s  c #8f8da0",
"d  c #8d8b9e",
"f  c #918f9f",
"g  c #7f7d96",
"h  c #848297",
"j  c #87859a",
"k  c #89879b",
"l  c #878599",
"z  c #9897a3",
"x  c #8d8c9e",
"c  c #8a899a",
"v  c #8f8e9f",
"b  c #8c8b9c",
"n  c #9493a4",
"m  c #91909f",
"M  c #9291a0",
"N  c #9594a2",
"B  c #9796a4",
"V  c #9998a5",
"C  c #7a7993",
"Z  c #828197",
"A  c #89889d",
"S  c #878699",
"D  c #7d7d97",
"F  c #7b7b95",
"G  c #7d7d95",
"H  c #808098",
"J  c #808097",
"K  c #7e7e94",
"L  c #848499",
"P  c #838398",
"I  c #85859a",
"U  c #87879b",
"Y  c #8a8a9b",
"T  c #8f8fa0",
"R  c #8d8d9d",
"E  c #9292a2",
"W  c #8e8e9d",
"Q  c #9292a1",
"!  c #9191a0",
"~  c #9494a1",
"^  c #9696a2",
"/  c #a7a7b0",
"(  c #a8a8b0",
")  c #70718d",
"_  c #787992",
"`  c #777891",
"'  c #787991",
"]  c #7a7b93",
"[  c #7d7e95",
"{  c #7e7f96",
"}  c #83849a",
"|  c #818297",
" . c #85869b",
".. c #838499",
"X. c #828397",
"o. c #858698",
"O. c #8a8b9c",
"+. c #88899a",
"@. c #8b8c9c",
"#. c #71738e",
"$. c #73758f",
"%. c #757791",
"&. c #787a94",
"*. c #777993",
"=. c #7a7c95",
"-. c #7c7e97",
";. c #797b93",
":. c #7e8096",
">. c #6e718d",
",. c #727591",
"<. c #737690",
"1. c #757892",
"2. c #757891",
"3. c #87899d",
"4. c #87899b",
"5. c #888a9c",
"6. c #a3a4ae",
"7. c #6f738f",
"8. c #797c93",
"9. c #81849a",
"0. c #808399",
"q. c #6b708e",
"w. c #6a6f8d",
"e. c #686d8a",
"r. c #696e8b",
"t. c #6c718e",
"y. c #6a6f8b",
"u. c #6f7490",
"i. c #70748e",
"p. c #72768f",
"a. c #797d95",
"s. c #838699",
"d. c #5a6184",
"f. c #5c6384",
"g. c #5e6586",
"h. c #5d6485",
"j. c #606788",
"k. c #5e6585",
"l. c #5f6686",
"z. c #616888",
"x. c #666c89",
"c. c #6b718d",
"v. c #6d738f",
"b. c #6d728d",
"n. c #707590",
"m. c #6e738d",
"M. c #737891",
"N. c #898da0",
"B. c #989ba9",
"V. c #525b80",
"C. c #525b7f",
"Z. c #545d81",
"A. c #535c80",
"S. c #555e82",
"D. c #596184",
"F. c #5a6283",
"G. c #5b6384",
"H. c #5d6586",
"J. c #5f6788",
"K. c #5c6382",
"L. c #5f6685",
"P. c #616887",
"I. c #606786",
"U. c #636a89",
"Y. c #626988",
"T. c #626987",
"R. c #686f8e",
"E. c #666d8b",
"W. c #636a87",
"Q. c #656c89",
"!. c #646b88",
"~. c #69708e",
"^. c #646b87",
"/. c #69708d",
"(. c #686f8c",
"). c #6b728f",
"_. c #676e8a",
"`. c #6d7491",
"'. c #686e89",
"]. c #717792",
"[. c #707690",
"{. c #767b91",
"}. c #84899d",
"|. c #8a8ea0",
" X c #4f597e",
".X c #505a7f",
"XX c #515b80",
"oX c #525c80",
"OX c #555e81",
"+X c #565f82",
"@X c #576083",
"#X c #565f81",
"$X c #586183",
"%X c #596284",
"&X c #596283",
"*X c #5b6485",
"=X c #5b6483",
"-X c #676f8d",
";X c #868b9e",
":X c #888d9f",
">X c #adafb6",
",X c #566081",
"<X c #979ba8",
"1X c #9297a6",
"2X c #9499a7",
"3X c #afb1b7",
"4X c #abaeb5",
"5X c #c3c3c2",
"6X c #c2c2c1",
"7X c #c4c3c2",
"8X c #c1c1c1",
"9X c Gray100",
/* pixels */
"8X8X8X8X8X8X8X8X8X8X8X8X8X8X8X8X8X8X8X8X8X8X8X8X8X8X8X8X8X8X8X8X",
"8X8X8X8X8X8X8X8X8X8X8X8X8X8X6X6X6X6X6X8X8X8X8X8X8X8X8X8X8X8X8X8X",
"8X8X8X8X8X8X8X8X8X8X6X5X5X5X7X7X7X7X7X5X5X6X6X8X8X8X8X8X8X8X8X8X",
"8X8X8X8X8X8X8X8X6X5X7X<X].z.l.I.L.L.P.,.B.7X5X6X8X8X8X8X8X8X8X8X",
"8X8X8X8X8X8X8X6X5X|.U.Y.x.r.c.m.#.p.b.!.h.I.|.7X5X6X8X8X8X8X8X8X",
"8X8X8X8X8X8X6X3Xc.I.c.{.[ h +.O.+.} | ;.b.l.D.(.3X5X8X8X8X8X8X8X",
"8X8X8X8X8X6X/ P.!.p.:.U ^ B n ~ r @.:.=.=.i.Y.G.l./ 6X8X8X8X8X8X",
"8X8X8X8X6X3Xj.W.` S q < 8 t u 0 f j J K | 0.<.!.f.H.>X8X8X8X8X8X",
"8X8X8X6X5XR.I.$.j u 6 1 - & , ; B A ..P ..l $.x.H.OXz.8X8X8X8X8X",
"8X8X8X6XN.g.c.:.R u 4 w * = t i V m k k I 9.c.^.f.A..X}.8X8X8X8X",
"8X8X8X5Xj.Q.2.L m u y - > 3 1 9 q W L H [ _ r.P.G.Z. XS.8X8X8X8X",
"8X8X6X<Xh.b.=.A v a < $ % : 2 p a d +.P F m.T.P.U.%XC. X1X8X8X8X",
"8X8X6Xu.P.<.-.O.b ! z 5 p u N M Q A J s.{ v.!.E.E.d.C. X-X8X8X8X",
"8X8X6XH.Q.` { c L O.7 M s N E x 5.J D K ' '.g.g.d.$XZ. XZ.8X8X8X",
"8X8X6Xh.x.<.G o.F X.5.b T M 4.P { 1._ #.Y.#XZ.OX@XZ.S.XX X8X8X8X",
"8X8X5Xg.U.i.] g ` 8.Z  .U P g C _ 1.M.e.G.A.OXS.oXC.S.A. X8X8X8X",
"8X8X5Xl.x.c.M.[.7.#._ &.&.%.` &.<.n.w.P.g.@X+XXX.XA.+XZ..X8X8X8X",
"8X8X5Xg.x.w.t.b.%.>.w.t.u.E.r.w.w.Y.$Xj.g.@XC. XXX@X*Xk.C.8X8X8X",
"8X8X6XJ.Y.!.!.e.7.r.U.Y.!.h.Y.E.j.+X+XD.+X.X X.XOXh.e.L.,X8X8X8X",
"8X8X8X`.h.z.Q.x.e._.Q.P.Y.G.k.d.@X@X+XZ..X X.XOXG.y.m.=X-X8X8X8X",
"8X8X8X2X$Xl._.(._.P.g.j.P.H.h.$XA.Z.XX X XXX+Xh.(.=.i.K.1X8X8X8X",
"8X8X8X8XG.D.g.P.P.f.I.z.l.H.$XA..X X X.XZ.$Xh.w.0.../.z.8X8X8X8X",
"8X8X8X8X;XS.@XD.F.S.&XG.$XS..X X X XXX+XD.P.t.L O.<.Y.|.8X8X8X8X",
"8X8X8X8X8XY.Z.Z.V..X X X X X X.XC.OXD.l.r.a.A s F ^.q.6X8X8X8X8X",
"8X8X8X8X8X4X+X X X X X X X XC.+Xh.W.c.;.3.e m -.U.U.3X8X8X8X8X8X",
"8X8X8X8X8X8X6.S. X X.X.X X XZ.!.q.*...Y f U *.U.z.( 6X8X8X8X8X8X",
"8X8X8X8X8X8X8X4XJ. XXXZ.Z.A.G.P.e.7.n.$.) U.L.~.3X6X8X8X8X8X8X8X",
"8X8X8X8X8X8X8X8X8X}.+X.XA.OXd.G.G.H.h.D.@Xh.:X6X6X8X8X8X8X8X8X8X",
"8X8X8X8X8X8X8X8X8X8X8X1XR.S..X.X.XC.$X).2X8X8X8X8X8X8X8X8X8X8X8X",
"8X8X8X8X8X8X8X8X8X8X8X8X8X8X8X8X8X8X8X8X8X8X8X8X8X8X8X8X8X8X8X8X",
"8X8X8X8X8X8X8X8X8X8X8X8X8X8X8X8X8X8X8X8X8X8X8X8X8X8X8X8X8X8X8X8X",
"8X8X8X8X8X8X8X8X8X8X8X8X8X8X8X8X8X8X8X8X8X8X8X8X8X8X8X8X8X8X8X8X"
};
