/* XPM */
static char * render_mip_mirrorball_xpm[] = {
"32 32 255 2",
"  	c #1F1F27",
". 	c #22202D",
"+ 	c #1E222E",
"@ 	c #1B2333",
"# 	c #22222A",
"$ 	c #1D242A",
"% 	c #202426",
"& 	c #23242B",
"* 	c #20272D",
"= 	c #272629",
"- 	c #22273D",
"; 	c #27272F",
"> 	c #25292B",
", 	c #272927",
"' 	c #282930",
") 	c #2B292C",
"! 	c #252B32",
"~ 	c #282C38",
"{ 	c #2B2D2A",
"] 	c #2C2C34",
"^ 	c #2E2C30",
"/ 	c #302C2B",
"( 	c #272E34",
"_ 	c #2C3032",
": 	c #2B3238",
"< 	c #303230",
"[ 	c #353039",
"} 	c #353130",
"| 	c #32323A",
"1 	c #353337",
"2 	c #2F363C",
"3 	c #393433",
"4 	c #3B342F",
"5 	c #343633",
"6 	c #333739",
"7 	c #333743",
"8 	c #39373A",
"9 	c #3B3A33",
"0 	c #3F3A39",
"a 	c #3A3C39",
"b 	c #3D3B3E",
"c 	c #383D3F",
"d 	c #3B3C44",
"e 	c #393D4A",
"f 	c #413E32",
"g 	c #394047",
"h 	c #413F43",
"i 	c #433F3E",
"j 	c #3D4244",
"k 	c #40423F",
"l 	c #38434E",
"m 	c #47413B",
"n 	c #474342",
"o 	c #414547",
"p 	c #48463A",
"q 	c #45454E",
"r 	c #454744",
"s 	c #484649",
"t 	c #484740",
"u 	c #434754",
"v 	c #3E4955",
"w 	c #3F4A56",
"x 	c #484851",
"y 	c #4A4942",
"z 	c #4F4A49",
"A 	c #464D54",
"B 	c #494D4F",
"C 	c #4E4C4F",
"D 	c #4C4E4B",
"E 	c #47515D",
"F 	c #525053",
"G 	c #4B5259",
"H 	c #4E5254",
"I 	c #515350",
"J 	c #52525B",
"K 	c #555357",
"L 	c #535648",
"M 	c #50575E",
"N 	c #58574F",
"O 	c #58565A",
"P 	c #56575F",
"Q 	c #545765",
"R 	c #5C5756",
"S 	c #585957",
"T 	c #505C5C",
"U 	c #5F5D61",
"V 	c #585F66",
"W 	c #5D5F5C",
"X 	c #55606D",
"Y 	c #5E5F67",
"Z 	c #5D6264",
"` 	c #636165",
" .	c #62636C",
"..	c #5A6571",
"+.	c #676457",
"@.	c #646563",
"#.	c #616668",
"$.	c #5F666E",
"%.	c #616573",
"&.	c #69676B",
"*.	c #64696B",
"=.	c #626971",
"-.	c #686967",
";.	c #61697C",
">.	c #696A73",
",.	c #676C6E",
"'.	c #6D6B6F",
").	c #686C7A",
"!.	c #65707C",
"~.	c #706E72",
"{.	c #687077",
"].	c #717068",
"^.	c #6F716E",
"/.	c #6D7274",
"(.	c #71727B",
"_.	c #6F7381",
":.	c #777478",
"<.	c #797473",
"[.	c #727A81",
"}.	c #6C7B8D",
"|.	c #707C7C",
"1.	c #7B797D",
"2.	c #777B89",
"3.	c #787D7F",
"4.	c #737E8B",
"5.	c #767E85",
"6.	c #767D91",
"7.	c #827D7C",
"8.	c #857D77",
"9.	c #7B8082",
"0.	c #77828F",
"a.	c #7D8190",
"b.	c #80827F",
"c.	c #81818B",
"d.	c #848185",
"e.	c #8B8175",
"f.	c #7C848B",
"g.	c #7F8486",
"h.	c #7A8592",
"i.	c #7C8497",
"j.	c #73869E",
"k.	c #7B869F",
"l.	c #7D8895",
"m.	c #7888A6",
"n.	c #80879B",
"o.	c #83888A",
"p.	c #868885",
"q.	c #818991",
"r.	c #788BA2",
"s.	c #808C8D",
"t.	c #838A9E",
"u.	c #7C8BAA",
"v.	c #868B8E",
"w.	c #868A99",
"x.	c #7A8DA5",
"y.	c #848C94",
"z.	c #8A8B94",
"A.	c #8A8AA0",
"B.	c #8D8C84",
"C.	c #828DA7",
"D.	c #858DA1",
"E.	c #808FA1",
"F.	c #7D90A8",
"G.	c #8F8D91",
"H.	c #878EA3",
"I.	c #8A8E9C",
"J.	c #958D87",
"K.	c #8F907B",
"L.	c #889098",
"M.	c #8B9092",
"N.	c #8E908D",
"O.	c #8E8F98",
"P.	c #7F92AA",
"Q.	c #8191AF",
"R.	c #8990A4",
"S.	c #8392A4",
"T.	c #8D91A0",
"U.	c #8194AC",
"V.	c #8A92A6",
"W.	c #8793AC",
"X.	c #8894A1",
"Y.	c #8B93A7",
"Z.	c #8C949B",
"`.	c #8F9496",
" +	c #8396AE",
".+	c #8696A8",
"++	c #8D94A8",
"@+	c #9094A3",
"#+	c #93949E",
"$+	c #8B96AF",
"%+	c #8F979F",
"&+	c #9296A5",
"*+	c #979883",
"=+	c #959794",
"-+	c #8F97AB",
";+	c #9995A6",
">+	c #8A99AB",
",+	c #8E99A6",
"'+	c #94999B",
")+	c #889BB3",
"!+	c #9299AD",
"~+	c #9599A8",
"{+	c #9E9998",
"]+	c #999AA4",
"^+	c #909BB5",
"/+	c #949BB0",
"(+	c #9D99AA",
"_+	c #979C9F",
":+	c #979BAA",
"<+	c #959DA5",
"[+	c #939EAC",
"}+	c #9C9DA7",
"|+	c #9F9DA1",
"1+	c #9A9EAD",
"2+	c #9D9F9C",
"3+	c #9B9FAE",
"4+	c #9F9FA9",
"5+	c #9DA1B1",
"6+	c #9BA3AB",
"7+	c #9EA3A5",
"8+	c #A1A2AB",
"9+	c #96A5B8",
"0+	c #A2A3AD",
"a+	c #A9A88D",
"b+	c #A5A6B0",
"c+	c #A8A6AA",
"d+	c #A0A8B0",
"e+	c #A6ABAE",
"f+	c #A6AAB9",
"g+	c #A5ADB5",
"h+	c #B0AE93",
"i+	c #ACACB6",
"j+	c #B6ADA7",
"k+	c #A9B1B9",
"l+	c #B7B19D",
"m+	c #B8B493",
"n+	c #B3B3BD",
"o+	c #B1B6B8",
"p+	c #BDB790",
"q+	c #AFB7BF",
"r+	c #BDB5AE",
"s+	c #B5B7B4",
"t+	c #C1B89E",
"u+	c #B8B8C2",
"v+	c #B5BABD",
"w+	c #BDBAAB",
"x+	c #BDBCA0",
"y+	c #B4BDC5",
"z+	c #BDBBBF",
"A+	c #BCBDC7",
"B+	c #C0C5C8",
"C+	c #C8C7AB",
"D+	c #D7D3C4",
"E+	c #E1DBDA",
"F+	c #DCDEDB",
"6.6.6.6.i.i.i.i.i.i.i.n.n.i.i.i.i.k.j.j.j.j.j.j.j.k.k.k.k.k.m.m.",
"i.i.i.n.n.n.t.t.t.R.R.++++R.H.H.H.R.F.r.r.r.r.r.r.r.r.x.x.C.u.m.",
"D.H.R.R.R.H.t.t.H.++-+-+++R.R.H.R.R.S.C.F.r.r.r.r.x.F.F.x.x.u.m.",
"R.R.R.R.R.t.t.D.H.R.++R.R.R.R.R.++R.R.R.r.r.r.r.r.r.r.x.x.C.u.m.",
"++R.R.R.A.A.A.n.t.R.++R.@+&+@+I.T.T.++!+P.F.F.x.F.F.F.F.P.F.C.u.",
"R.R.R.R.t.t.t.t.H.++@+O.c.{.M A P %.;.}.S.>+U.F.C.F.F.F.P.U.F.Q.",
"R.R.R.R.R.R.R.R.++&+z.,.B 2 * * ] 7 e v Q 0..+U.W.U. +P.P.P.F.Q.",
"R.++++R.++R.@+@+&+G.7.S _ * ! ! ' ( ; ^ b Y 2..+P.P. +U.U.P.P.Q.",
"D.R.++++&+&+@+@+Z.J.j+c ( ) = % # _ 1 } n n q 0.)+U.U.U.P.P.P.Q.",
"H.++++++~+~+~+#+e.r+<.| ' ]       & = / 0 0 0 $.E.^+W.P.S.P.P.W.",
"R.!+-+++~+~+1+z.8.{+A ~ & #       $ % = } 3 i F h.^+$+P.S. + +P.",
"R.!+-+!+~+:+@+ .P E l : * &   # $ > > , , / i s {.++^+W..+)+)+U.",
"R.!+!+!+~+:+w.{.J X w : ( &   # * > { , _ ^ 0 h >.l./+$+U.)+)+U.",
"++-+!+!+:+1+w.(.M %+G 2 ( & # & > > { < 5 1 i i O 4.!+$+$+$+$+W.",
";+&+:+:+(+<+s.(.d.F+p.8 2 > = ) = > { a 3 4 p y J !.!+!+/+^+$+W.",
";+~+:+]+(+<+o./.l+D+z+G : ) ^ 0 ) b #.^.3 m p y =...-+!+!+!+++++",
";+~+~+]+(+3+f.g.p+t+E+2+D 8 1 < F K O :.r r N k 3.[.T.!+:+!+++-+",
";+~+~+4+:+3+f.`.t+m+C+D+s+^.2 @ u q O '.z a 0 6 |.[.w.~+,+>+>+>+",
"&+~+3+8+4+5+h.M.B.h+p+x+w+N.! - 7 h F &.H 5 8 6 T $.l.X.X.X.X.X.",
"@+~+5+8+4+b+Z.f.M.+.K.a+*+].1 . [ z R U h r j c V V f.c.q.q.q.y.",
"@+[+5+8+4+4+<+f.O.`.L p f 9 b + ; 0 0 1 1 B j B Z Z /././.~.:.:.",
"@+[+1+}+]+4+d+f.w.Z.7+7+N.I s & ' b 0 i 3 1 K >.M *.^.-.,.&.&.&.",
":+1+3+4+4+8+d+<+l.q.o.%+|+=+K ] ] 8 3 R R C Y Y J ~.'.'.&.=.$.$.",
"1+1+8+8+4+4+8+b+X.l.f.q.z._+=+O 1 b 6 : g Q  .G ` -.@.@.-.=.=.=.",
"~+~+}+4+8+8+8+b+f+X.l.h.2.y.M.'+z.>. .{._.).M H S S S W @.*.=.=.",
"3+3+8+b+b+8+b+i+u+u+%+4.0.0.h.h.h.a.2._.%.Q q r t D I S Z #.#.*.",
"3+5+8+b+b+b+8+i+u+A+A+g+y.h.S.,+l.a.(.Y x d b 0 k s C K U #.*.,.",
"1+5+8+8+8+8+b+i+q+y+A+z+B+q+9+X.5.=.H h a k o s s F O U &.*.,.,.",
"}+}+4+4+8+8+b+i+k+q+v+z+z+v+n+6+`.b.^.@.@.` ` ` ` #.,././.:.:.:.",
"8+4+4+}+4+8+8+8+g+q+v+v+o+q+g+6+_+=+N.p.9.1.:.:.1.3.3.9.3.3.1.d.",
"4+1+]+]+1+4+8+7+7+e+k+k+k+k+g+d+<+'+`.M.v.o.d.d.9.9.g.9.g.5.f.f.",
"@+I.I.I.I.#+]+_+_+c+k+g+k+k+g+d+d+6+<+Z.Z.`.M.y.o.o.o.v.q.q.f.5."};
