/* XPM */
static char *magick[] = {
/* columns rows colors chars-per-pixel */
"32 32 245 2",
"   c Gray0",
".  c #010105",
"X  c #03030d",
"o  c #020209",
"O  c #040411",
"+  c #060616",
"@  c #07071a",
"#  c #08081b",
"$  c #09091e",
"%  c #0b0b21",
"&  c #0d0d26",
"*  c #0e0e28",
"=  c #11112e",
"-  c #131331",
";  c #171737",
":  c #161632",
">  c #181833",
",  c #1b1b3c",
"<  c #1c1c3e",
"1  c #191939",
"2  c #17174f",
"3  c #1e1e41",
"4  c #1c1b4b",
"5  c #00007b",
"6  c #020d77",
"7  c #0b167a",
"8  c #0b3f4f",
"9  c #262644",
"0  c #222244",
"q  c #27274c",
"w  c #25254a",
"e  c #25255a",
"r  c #2a2855",
"t  c #2c2c53",
"y  c #2d2d54",
"u  c #303048",
"i  c #39394f",
"p  c #333350",
"a  c #343451",
"s  c #373758",
"d  c #34345c",
"f  c #3f3053",
"g  c #3a3a51",
"h  c #303061",
"j  c #303065",
"k  c #3b3b64",
"l  c #3e3e67",
"z  c #393961",
"x  c #3f3f68",
"c  c #094609",
"v  c #174f17",
"b  c #026a18",
"n  c #067c02",
"m  c #0f7f0b",
"M  c #117202",
"N  c #19760b",
"B  c #0b6e20",
"V  c #394f39",
"C  c #335e30",
"Z  c #365b30",
"A  c #306030",
"S  c #4a2635",
"D  c #493636",
"F  c #572b2b",
"G  c #5a2626",
"H  c #53313f",
"J  c #573930",
"K  c #503e3e",
"L  c #5f3032",
"P  c #5d3636",
"I  c #6a1902",
"U  c #790c0c",
"Y  c #7c1515",
"T  c #6e210b",
"R  c #613131",
"E  c #434343",
"W  c #55555f",
"Q  c #5e5757",
"!  c #43436c",
"~  c #41416a",
"^  c #4e4e66",
"/  c #474770",
"(  c #4a4a73",
")  c #4b4b74",
"_  c #4d4d76",
"`  c #56566d",
"'  c #5b5b64",
"]  c #505071",
"[  c #53537c",
"{  c #55557e",
"}  c #606075",
"|  c #69697f",
" . c #0b0b8a",
".. c #08088e",
"X. c #0b0b84",
"o. c #0c03d8",
"O. c #0200ee",
"+. c #0b00e7",
"@. c #0000f1",
"#. c #0000f5",
"$. c Blue",
"%. c #000bf5",
"&. c #0a00ff",
"*. c #0a16e8",
"=. c #0014fa",
"-. c #2100dd",
";. c #3800d9",
":. c #2511e1",
">. c #0057a8",
",. c #0057af",
"<. c #174bb3",
"1. c #006ba5",
"2. c #4500be",
"3. c #4f04b5",
"4. c #6a0096",
"5. c #5500c0",
"6. c #5b518f",
"7. c #5b5b84",
"8. c #5c5c84",
"9. c #63638b",
"0. c #6f6f96",
"q. c #6a6a91",
"w. c #727283",
"e. c #7e7e8b",
"r. c #7f7f8c",
"t. c #79798e",
"y. c #737399",
"u. c #75759b",
"i. c #77779c",
"p. c #79799e",
"a. c #7b7ba0",
"s. c #028202",
"d. c #028902",
"f. c #0f8000",
"g. c #0a8a0a",
"h. c #0b840b",
"j. c #28930a",
"k. c #00a15e",
"l. c #01bf4c",
"z. c #00d03a",
"x. c #03fb00",
"c. c Green",
"v. c #3dd400",
"b. c #25c638",
"n. c #49cb02",
"m. c #810303",
"M. c #810204",
"N. c #840b0d",
"B. c #840c0c",
"V. c #99006a",
"C. c #ad024a",
"Z. c #a3005c",
"A. c #bf0146",
"S. c #bb004c",
"D. c #986700",
"F. c #cb2500",
"G. c #ce3200",
"H. c #e10c0c",
"J. c #eb0005",
"K. c #ed0013",
"L. c #ef1400",
"P. c #f00101",
"I. c #f40404",
"U. c #f80000",
"Y. c Red",
"T. c #ff0707",
"R. c #fa0a00",
"E. c #f70012",
"W. c #f41d00",
"Q. c #c37500",
"!. c #b40090",
"~. c #dd01b2",
"^. c #d42b92",
"/. c #e60080",
"(. c #f103bd",
"). c #f100d4",
"_. c #f800e1",
"`. c #fc02e6",
"'. c #fc01ee",
"]. c #fc00f1",
"[. c #fd00f5",
"{. c #ff07f7",
"}. c #ff00f9",
"|. c #83a82c",
" X c #a5b700",
".X c #83895a",
"XX c #cdf502",
"oX c #d2ee00",
"OX c #ddf500",
"+X c #ebee00",
"@X c #e9f700",
"#X c #edf800",
"$X c #ffe500",
"%X c #f2f700",
"&X c #fffa00",
"*X c #f9fe01",
"=X c #818190",
"-X c #818197",
";X c #8d8d9f",
":X c #8181a5",
">X c #8686a9",
",X c #8989ab",
"<X c #8a8aac",
"1X c #8d8daf",
"2X c #8f8fb0",
"3X c #9292ad",
"4X c #9e9eab",
"5X c #9595b5",
"6X c #9898b7",
"7X c #9a9ab8",
"8X c #9e9ebc",
"9X c #a1a1a6",
"0X c #a5a5aa",
"qX c #a6a6b5",
"wX c #a2a2be",
"eX c #aeaeb1",
"rX c #b5b5b7",
"tX c #b5b5b9",
"yX c #bdbdbf",
"uX c #a6a6c2",
"iX c #aaaac0",
"pX c #aaaac4",
"aX c #adadc7",
"sX c #afafc9",
"dX c #b4b4cc",
"fX c #babac2",
"gX c #b9b9cf",
"hX c #bbbbd1",
"jX c #bdbdd2",
"kX c #c1c1c1",
"lX c #c1c1cd",
"zX c #c2c2d6",
"xX c #c5c5d8",
"cX c #c9c9db",
"vX c #cbcbdc",
"bX c #cecedd",
"nX c #d5d5e3",
"mX c #d7d7e5",
"MX c #d2d2e1",
"NX c #dadae6",
"BX c #dedee9",
"VX c #e2e2eb",
"CX c #ededf3",
"ZX c #eeeef4",
"AX c #eaeaf1",
/* pixels */
"kXkXkXkXkXkXkXkXkXkXkXkXkXkXkX  kXkXkXkXK Y B.N.T N h.m h.h.h.v ",
"kXkXkXkXkXkXkXkXkXkXyXfXlXbXVX  kXkXkXkXR T.Y.Y.W.v.c.c.c.c.c.g.",
"kXkXkXkXkXkXkXkXtXqXiXjXbXBXZX  kXkXkXkXR P.Y.Y.Y.D.x.c.c.c.c.h.",
"kXkXkXkXkXkXkX4X3X8XdXxXnXVXZX  kXkXkXkXR P.Y.Y.Y.L.n.c.c.c.c.h.",
"kXkXkXkXkXrX;X:X5XuXdXxXnXVXCX  E E E E R P.Y.Y.Y.E.6.l.c.c.c.g.",
"kXkXkXkXrX-Xp.,X6XpXdXxXMXBXAX  kXkXkXkXR U.Y.Y.K.4.$.%.>.k.z.B ",
"kXkXkXkXt.q.p.,X5XuXdXzXbXNXVX  kXkXkXkXH C.S.V.2.$.$.$.$.$.=.7 ",
"kXkXkX=X{ q.p.>X5XuXdXjXcXMXVX  kXkXkXkXr o.+.O.#.@.@.@.@.@.@.5 ",
"kXkX0X] 7.9.u.>X5X8XpXdXxXbXBX  kXkXkXkXW h j h h h h h h h h i ",
"kXkX| ~ 7.9.y.:X1X7XuXdXzXvXmX  kXkXkXkXkXkXkXkXkXkXkXkXkXkXkXkX",
"kXeXs ! [ 9.0.a.,X5XwXaXhXxXMX  kXkXkXkXkXkXkXkXkXkXkXkXkXkXkXkX",
"kXr.3 l _ 7.q.u.:X1X7XuXdXjXcX  kXkXkXkXD U m.M.I M s.n s.s.s.c ",
"kX` 3 d / { 9.0.a.>X5X8XpXdXzX  kXkXkXkXG {.}.}.`..Xc.c.c.c.c.d.",
"kXa 1 y ~ _ 7.9.y.a.<X5XwXaXgX  kXkXkXkXG '.}.}.}.^.x.c.c.c.c.s.",
"kX> - q z / [ 8.q.u.:X<X5XwXsX  kXkXkXkXG [.}.}.}.(.n.c.c.c.c.s.",
"kX+ & 3 d x ( { 9.q.i.:X1X5XwX  E E E E G ].}.}.}._.6.l.c.c.c.s.",
"kX+ $ ; w d ~ _ { 8.q.u.:X<X5X  kXkXkXkXG [.}.}./.4.$.%.>.k.z.b ",
"kX: + = 3 y z ~ ) { 9.q.u.a.,X  kXkXkXkXS ~.).!.2.$.$.$.$.$.=.6 ",
"kXp o % ; 0 y d ~ _ { 9.q.u.a.  kXkXkXkX4 o.+.O.#.@.@.@.@.@.@.5 ",
"kX`   + * 1 0 y d ~ ( { 9.q.u.  kXkXkXkX' e e e e e e e e e e u ",
"kXr.  o # = 1 w y z ~ ) { 8.9.  kXkXkXkXkXkXkXkXkXkXkXkXkXkXkXkX",
"kXeX0   X $ = , w y z ! _ { 8.  kXkXkXkXkXkXkXkXkXkXkXkXkXkXkXkX",
"kXkX}     + % = , w d k ! ) {   kXkXkXkXkXkXkXkXkXkXkXkXkXkXkXkX",
"kXkX9X9   o + % : 3 w d z ~ (   kXkXkXkXQ P R R J Z A C A A A V ",
"kXkXkXw.    X @ & : < w y d l   kXkXkXkXF H.P.P.F. X+X#X%X@XOXf.",
"kXkXkXkX`   . O @ & = 1 0 t d   kXkXkXkXR I.Y.Y.R.Q.$X&X&X&X&Xj.",
"kXkXkXkXeX^   . O + $ * ; 0 q   kXkXkXkXR P.Y.Y.Y.G.oX&X&X&X&Xh.",
"kXkXkXkXkXeX`   . o X @ & - 1   E E E E R P.Y.Y.Y.Y.|.*X&X&X&Xh.",
"kXkXkXkXkXkXkXw.9   . o + # *   kXkXkXkXR P.Y.Y.Y.A.:.,.b.XX&Xh.",
"kXkXkXkXkXkXkXkX9X} 0   . o O   kXkXkXkXL J.Y.K.Z.-.$.$.*.<.1.8 ",
"kXkXkXkXkXkXkXkXkXkXeXe.` p :   kXkXkXkXf 3.5.;.&.$.$.$.$.$.$...",
"kXkXkXkXkXkXkXkXkXkXkXkXkXkXkX  kXkXkXkXg X. . .X.X.X.X.X.X.X.2 "
};
