/* XPM */
static char * render_shaveBackground2_xpm[] = {
"32 32 227 2",
"  	c None",
". 	c #C1C1C1",
"+ 	c #C0C0C0",
"@ 	c #969596",
"# 	c #3B393B",
"$ 	c #838283",
"% 	c #BABABA",
"& 	c #B4B4B4",
"* 	c #9E9D9E",
"= 	c #B1B1B1",
"- 	c #717171",
"; 	c #8A898A",
"> 	c #939293",
", 	c #ABABAB",
"' 	c #BDBDBD",
") 	c #B7B7B7",
"! 	c #BFBFBF",
"~ 	c #4D4C4D",
"{ 	c #050305",
"] 	c #5C5B5C",
"^ 	c #B2B1B2",
"/ 	c #818081",
"( 	c #312F31",
"_ 	c #757475",
": 	c #201F20",
"< 	c #262526",
"[ 	c #3F3E3F",
"} 	c #6A696A",
"| 	c #A4A4A4",
"1 	c #939393",
"2 	c #6D6C6D",
"3 	c #ADADAD",
"4 	c #8D8C8D",
"5 	c #201E20",
"6 	c #1D1C1D",
"7 	c #878687",
"8 	c #AFAEAF",
"9 	c #545354",
"0 	c #161416",
"a 	c #090709",
"b 	c #171617",
"c 	c #898889",
"d 	c #ACABAC",
"e 	c #5A595A",
"f 	c #413F41",
"g 	c #1C1A1C",
"h 	c #0D0B0D",
"i 	c #0E0C0E",
"j 	c #403F40",
"k 	c #A8A8A8",
"l 	c #A6A6A6",
"m 	c #474647",
"n 	c #222022",
"o 	c #8B8B8B",
"p 	c #B8B8B8",
"q 	c #504F50",
"r 	c #080608",
"s 	c #2D2B2D",
"t 	c #A1A1A1",
"u 	c #BEBEBE",
"v 	c #AAAAAA",
"w 	c #585758",
"x 	c #100E10",
"y 	c #343334",
"z 	c #797979",
"A 	c #A3A2A3",
"B 	c #5D5C5D",
"C 	c #121012",
"D 	c #787778",
"E 	c #BBBBBB",
"F 	c #9A999A",
"G 	c #5C5A5B",
"H 	c #1B191B",
"I 	c #0C0A0C",
"J 	c #605F60",
"K 	c #A1A0A1",
"L 	c #141314",
"M 	c #131113",
"N 	c #575657",
"O 	c #454345",
"P 	c #4F4E4F",
"Q 	c #373637",
"R 	c #302E30",
"S 	c #3C3B3C",
"T 	c #181618",
"U 	c #1B1A1B",
"V 	c #B2B2B2",
"W 	c #494849",
"X 	c #0A080A",
"Y 	c #171517",
"Z 	c #616061",
"` 	c #B5B5B5",
" .	c #8B8A8B",
"..	c #242324",
"+.	c #121112",
"@.	c #282728",
"#.	c #6D6E6E",
"$.	c #878787",
"%.	c #232123",
"&.	c #141214",
"*.	c #B9B9B9",
"=.	c #959695",
"-.	c #414141",
";.	c #292829",
">.	c #343234",
",.	c #424142",
"'.	c #616161",
").	c #6F6E6F",
"!.	c #A2A2A2",
"~.	c #9D9C9D",
"{.	c #909090",
"].	c #858585",
"^.	c #464446",
"/.	c #6E6D6E",
"(.	c #949594",
"_.	c #3A3A3A",
":.	c #313031",
"<.	c #6B6A6B",
"[.	c #383838",
"}.	c #8F908F",
"|.	c #9B9B9B",
"1.	c #2E2C2E",
"2.	c #252425",
"3.	c #AFAFAF",
"4.	c #4C4B4C",
"5.	c #3E3E3E",
"6.	c #343434",
"7.	c #7E7E7E",
"8.	c #110F11",
"9.	c #454445",
"0.	c #151415",
"a.	c #1D1B1D",
"b.	c #1A181A",
"c.	c #626162",
"d.	c #8C8B8C",
"e.	c #B0B0B0",
"f.	c #706E6F",
"g.	c #0F0D0F",
"h.	c #262426",
"i.	c #797879",
"j.	c #BCBCBC",
"k.	c #7B7B7B",
"l.	c #696969",
"m.	c #535253",
"n.	c #252426",
"o.	c #434243",
"p.	c #ACACAC",
"q.	c #A4A3A4",
"r.	c #363436",
"s.	c #514F50",
"t.	c #595859",
"u.	c #363536",
"v.	c #999999",
"w.	c #151315",
"x.	c #868586",
"y.	c #979797",
"z.	c #858485",
"A.	c #696869",
"B.	c #2A292A",
"C.	c #242224",
"D.	c #5B5A5B",
"E.	c #7F7E7F",
"F.	c #989798",
"G.	c #1A191A",
"H.	c #3C3A3C",
"I.	c #2F2E2F",
"J.	c #6B6B6B",
"K.	c #9A9A9A",
"L.	c #9B9A9B",
"M.	c #959495",
"N.	c #252325",
"O.	c #969696",
"P.	c #211F21",
"Q.	c #2D2C2D",
"R.	c #737373",
"S.	c #B3B3B3",
"T.	c #9C9C9C",
"U.	c #474748",
"V.	c #232223",
"W.	c #070507",
"X.	c #0D0C0D",
"Y.	c #676667",
"Z.	c #7F7F7F",
"`.	c #4B4A4B",
" +	c #353335",
".+	c #797A7A",
"++	c #403E40",
"@+	c #848384",
"#+	c #A0A1A1",
"$+	c #A7A7A7",
"%+	c #464546",
"&+	c #0E0D0E",
"*+	c #181718",
"=+	c #7A797A",
"-+	c #1F1D1F",
";+	c #828182",
">+	c #8D8D8D",
",+	c #929292",
"'+	c #565556",
")+	c #2B2A2B",
"!+	c #323132",
"~+	c #272627",
"{+	c #A8A7A8",
"]+	c #555355",
"^+	c #888888",
"/+	c #272527",
"(+	c #6E6E6F",
"_+	c #777677",
":+	c #807F80",
"<+	c #0B090B",
"[+	c #979697",
"}+	c #7D7D7D",
"|+	c #3B3A3B",
"1+	c #242223",
"2+	c #747575",
"3+	c #3E3C3E",
"4+	c #323032",
"5+	c #908F90",
"6+	c #868686",
"7+	c #7C7B7C",
"8+	c #8F8E8F",
"9+	c #666566",
"0+	c #767576",
"a+	c #525152",
"b+	c #4A484A",
"c+	c #5F5E5F",
"d+	c #383638",
". . . . . . . . . . . . . . . . . . . + @ # $ % . . . + & * % . ",
". . . . = - ; > , ' . . . . . ' ) ! . & ~ { ] % . + ^ / ~ ( @ . ",
". . . . _ { : < [ } | ' . . % 1 2 3 . 4 5 6 7 + . 8 9 0 a b c . ",
". . . . d e f g h i j k . . l m n o p q r s t u v w x x y z ) . ",
". . . . + ) A 7 B n C D E ) F G q @ c H I J E K f L M N l u . . ",
". . . . . % u u & ~ { O - P Q R R Q S T U $ V W X Y Z ` . . . . ",
". . . . . u ! ! u  .....C { { { { { { +.@.#.$.%.&.Z ` . . . . . ",
". + p = 3 *.V u =.-.{ { I ;.( >.>.( ;.I { { ,.'.).!.. E ~.{.v u ",
". ) ].] ^./.8 (._.X X :.<., % . . % , <.:.X X [.}.' |.w 1.2.B 3.",
". k 4.6 I L w 5.X { 4.k u . . . . . . u k 4.{ X 6.7.1.a 8.n B 3.",
". ' t / 9.0.a.{ X 4.. . . . . . . . . . . . 4.X { b.a b.c.d.v u ",
". . . + e.f.a.{ :.k . . . . . . . . . . . . k :.{ g.h.i.% . . . ",
". . . . j.k.0 I <.u . . . . . . . . . . . . u <.I x l.E . . . . ",
". . . . *.m.{ ;., . . . . . . . . . . . . . . | n.{ m.*.. . . . ",
". . . . = o.{ ( % . . . . . . . . . . . . . . . >.{ S p.E q.E . ",
". . . . v r.{ >.. . . . . . . . . . . . . . . . >.{ Y s.t.u.v.. ",
". . . . v r.{ >.. . . . . . . . . . . . . . . . >.{ { { a w.x.. ",
". % y.z.A.B.{ R % . . . . . . . . . . . . . . . >.{ C.D.} E.` . ",
". F.s G.g.X { .., . . . . . . . . . . . . . . | n.{ m.*.. . . . ",
". F.( R H.I.8.I J.u . . . . . . . . . . . . j.t.{ x J.% . . . . ",
". % K.L.k M.N.{ :.k . . . . . . . . . . . . O.P.{ h Q.m.N R.S.. ",
". . . + ) T.U.{ X 4.. . . . . . . . . . . V V.{ { &.x W.W.X.Y.E ",
". + V Z.`. +x 0 a { 4.k u . . . . . . S..+b.{ X o.$ _ e ++L Q q.",
"V @+~ b { b.5 J [.X X :.J.#+% . u $+Z.%+&+{ r *+k.E % . ` x.v.E ",
"=+-+I -+o.;+>+,+'+)+{ { I C.( y !+~+M { { { T { u.{+u . . . . . ",
"].S ]+^+S.3.k.;.I &.C.n Y { { { { { { M /+(+_+a.H 7 u ! . . . . ",
"` t ` + ' :+6 <+/+J.[+!.}+m.|+1+1+|+m.2+$+u , 3+I Y.% u . . . . ",
". . . . !.4+X :.5+j.. . j.*.6+h.n ].*.j.. . ' q { w . . . . . . ",
". . . . 7+M H E.u . . . . . 8+-+w.;+. . . . ! J a 9+. . . . . . ",
". . . . 0+i a+V . . . . . . 3.b+C D . . . . ` ]+I - . . . . . . ",
". . . . k c+A + . . . . . . ! 5+d+F.. . . . ! l =+^ . . . . . . ",
". . . . ! ` ! . . . . . . . . E q.E . . . . . . . . . . . . . . "};
