/* XPM */
static char * render_mip_binaryproxy_xpm[] = {
"32 32 255 2",
"  	c #000100",
". 	c #030005",
"+ 	c #000200",
"@ 	c #070000",
"# 	c #01010E",
"$ 	c #010400",
"% 	c #030602",
"& 	c #08050B",
"* 	c #0B0900",
"= 	c #070A05",
"- 	c #0E0806",
"; 	c #110800",
"> 	c #0D0A11",
", 	c #110A15",
"' 	c #0E0E03",
") 	c #120F00",
"! 	c #140F0D",
"~ 	c #141201",
"{ 	c #10120F",
"] 	c #141309",
"^ 	c #171500",
"/ 	c #161715",
"( 	c #1E1516",
"_ 	c #1A180A",
": 	c #191811",
"< 	c #1A1A04",
"[ 	c #1E1813",
"} 	c #1F1A06",
"| 	c #221908",
"1 	c #1F1F0C",
"2 	c #211E13",
"3 	c #201F18",
"4 	c #1F1F1D",
"5 	c #222101",
"6 	c #25250A",
"7 	c #262515",
"8 	c #26251A",
"9 	c #2A2510",
"0 	c #2B241A",
"a 	c #27251E",
"b 	c #262624",
"c 	c #2D2529",
"d 	c #2E2B0A",
"e 	c #2C2E05",
"f 	c #2F2C16",
"g 	c #2A2D20",
"h 	c #2B2C29",
"i 	c #2E2C21",
"j 	c #2E2C25",
"k 	c #302D1C",
"l 	c #2E2C2F",
"m 	c #372F25",
"n 	c #303325",
"o 	c #34331B",
"p 	c #363221",
"q 	c #353227",
"r 	c #323230",
"s 	c #34322B",
"t 	c #353514",
"u 	c #3C3928",
"v 	c #3B3A22",
"w 	c #383937",
"x 	c #3A3932",
"y 	c #393A2D",
"z 	c #3B3C1A",
"A 	c #3D3D16",
"B 	c #423A30",
"C 	c #434127",
"D 	c #414039",
"E 	c #434034",
"F 	c #41403F",
"G 	c #454130",
"H 	c #473F44",
"I 	c #444422",
"J 	c #46461E",
"K 	c #484740",
"L 	c #484745",
"M 	c #4A4839",
"N 	c #4A4930",
"O 	c #524E40",
"P 	c #504F48",
"Q 	c #534F4F",
"R 	c #4F514E",
"S 	c #53542B",
"T 	c #525430",
"U 	c #545335",
"V 	c #595053",
"W 	c #55543C",
"X 	c #59574F",
"Y 	c #5A5849",
"Z 	c #5F5E57",
"` 	c #61604C",
" .	c #636141",
"..	c #636339",
"+.	c #656255",
"@.	c #66645E",
"#.	c #676854",
"$.	c #6F6E55",
"%.	c #6E6E5A",
"&.	c #73706A",
"*.	c #747453",
"=.	c #767265",
"-.	c #767660",
";.	c #7C7F65",
">.	c #82804E",
",.	c #7F7E70",
"'.	c #847D79",
").	c #88816D",
"!.	c #858563",
"~.	c #87875B",
"{.	c #85876E",
"].	c #888679",
"^.	c #8F8E7A",
"/.	c #918F82",
"(.	c #939278",
"_.	c #979462",
":.	c #979372",
"<.	c #94966F",
"[.	c #98986B",
"}.	c #9B9783",
"|.	c #A29F6C",
"1.	c #9F9F89",
"2.	c #A1A17C",
"3.	c #A59F8C",
"4.	c #A0A19D",
"5.	c #A6A577",
"6.	c #A6A596",
"7.	c #A8A981",
"8.	c #AAA887",
"9.	c #A7A893",
"0.	c #B2AE8D",
"a.	c #AFB09A",
"b.	c #AFB28F",
"c.	c #B2B195",
"d.	c #B3B485",
"e.	c #B5B68D",
"f.	c #B5B3AD",
"g.	c #B6B5A6",
"h.	c #B7B79B",
"i.	c #B6B896",
"j.	c #B9B8A3",
"k.	c #BFC0AA",
"l.	c #C1C293",
"m.	c #C1C19F",
"n.	c #C1C299",
"o.	c #C3BFB1",
"p.	c #C2C1A5",
"q.	c #C4C48E",
"r.	c #C9CAA0",
"s.	c #C8C8B9",
"t.	c #C9CAA7",
"u.	c #CBCB9B",
"v.	c #CBCAAE",
"w.	c #CACAB4",
"x.	c #CAC9C1",
"y.	c #D0D2A1",
"z.	c #D3D1B4",
"A.	c #D2D3A9",
"B.	c #D1D2BB",
"C.	c #CED4B6",
"D.	c #D1D4B0",
"E.	c #D4D3CB",
"F.	c #D7D89B",
"G.	c #D7D5B9",
"H.	c #D5D4D2",
"I.	c #D6D6C7",
"J.	c #DAD9A2",
"K.	c #DADBAA",
"L.	c #DADBB1",
"M.	c #DBDABD",
"N.	c #DADBB8",
"O.	c #DADAC4",
"P.	c #D6DCBE",
"Q.	c #E3E2B2",
"R.	c #E1E2B8",
"S.	c #E1E1CB",
"T.	c #E4E4AD",
"U.	c #E0E6B4",
"V.	c #E4E3C6",
"W.	c #E8E3C1",
"X.	c #E2E5C1",
"Y.	c #E3E4D4",
"Z.	c #E8E6B6",
"`.	c #E6E6BC",
" +	c #E6E7D0",
".+	c #E6E6E2",
"++	c #EEEBB4",
"@+	c #EAEBC0",
"#+	c #EDEBBA",
"$+	c #EAEDB5",
"%+	c #F1EAC2",
"&+	c #EDEADA",
"*+	c #EAEDC9",
"=+	c #EDEBD5",
"-+	c #E9EFBC",
";+	c #EEECCF",
">+	c #E8EECF",
",+	c #F1ECCA",
"'+	c #E9EDDC",
")+	c #F0EFBE",
"!+	c #EEEFC4",
"~+	c #EEF1B1",
"{+	c #F6F2BB",
"]+	c #F0F4BB",
"^+	c #F4F3C2",
"/+	c #F8F2C9",
"(+	c #F4F2D5",
"_+	c #F0F4CF",
":+	c #F7F2CF",
"<+	c #F3F4C9",
"[+	c #F1F6C4",
"}+	c #F0F6D7",
"|+	c #F9F3DE",
"1+	c #FBF6BF",
"2+	c #F5F8BF",
"3+	c #F2FAB9",
"4+	c #F8F7C6",
"5+	c #F8F4E5",
"6+	c #F2F6E5",
"7+	c #F5F6DF",
"8+	c #F8F9BA",
"9+	c #F8F6D9",
"0+	c #FBF6D3",
"a+	c #F7F8CD",
"b+	c #F5F8D3",
"c+	c #FEF7CE",
"d+	c #FBF9C8",
"e+	c #F8FCC3",
"f+	c #FFFBC4",
"g+	c #FDFBCA",
"h+	c #FBFBD0",
"i+	c #FFFAD0",
"j+	c #F7FDCA",
"k+	c #FCFADD",
"l+	c #F9FCD7",
"m+	c #FEFCCB",
"n+	c #FAFEC4",
"o+	c #F6FED1",
"p+	c #FDFEBF",
"q+	c #FFFBD8",
"r+	c #FFFDC6",
"s+	c #F7FDDE",
"t+	c #FEFAEB",
"u+	c #FFFDCC",
"v+	c #FDFDD2",
"w+	c #FCFAF4",
"x+	c #FBFFC6",
"y+	c #FAFFCC",
"z+	c #FDFFC7",
"A+	c #FFFECD",
"B+	c #FEFFD4",
"C+	c #FDFFDB",
"D+	c #FFFEE1",
"E+	c #FBFEED",
"F+	c #FEFEE7",
"+ + + + = + & @ + + = + @ @ @ @ % % + + + + + = = % % % & + + . ",
"+ + + + + t.p.m.l.y.`.y+j+h+v+v+v+v+v+v+y+j+d+v+v+v+v+j+h+A+C++ ",
"+ + + + + e+x+x+y+y+y+x+]+y+<+!+d+4+4+#+v+f+m+y+y+y+y+f+m+n+C++ ",
"+ + + + @ e+u+m+m+m+m+m+e+4+C+0.+ + % * * y+z+u+A+A+A+A+A+z+s+@ ",
"+ + + + + d+u+y+u+u+u+u+e+m+v+0+;+;+;+;+!+z+e+d+x+z+2+A+z+g+d+@ ",
"+ + + + + d+u+y+u+u+u+u+d+e+v+h+x+x+x+z+v+-+A.7.e.b._+l+2+c+A+@ ",
"+ + + + + d+u+y+m+m+m+m+g+x+C+,+(+D+D+k+C+L.C+l+W ,.Z < A+v+d+. ",
"+ + + + + d+u+y+m+m+m+m+d+e+h+8.E E q K Q f.@ t F+w+w+w+A+A+v+. ",
"+ + + + + d+u+y+y+y+y+m+4+4+v+<+y+y+y+j+x+~+]+A+D+^./.).A+u+C+. ",
"+ + + + + 4+2+*.h w L ] ).} m.v+f+f+f+f+f+g+^+A+x+e+2+u+v+z+D+@ ",
"+ + + + + 4+]+T A+j+j+y+h+h+a+g+x+x+x+z+g+<+C+<+X.C+h+m+v+x+D+@ ",
"+ + + + + d+z+z y+y+y+x+2+p+A+h+C+C+l+C+C+9+b+w.+.&.* v+m+z+D+@ ",
"+ + + + + d+z+z z+z+z+x+4+d+q+j.: 8 2 2 s.+ }+k+* ' ~ A+m+z+D+@ ",
"+ + + + + h+y+A m+u+m+m+d+g+v+d+e+z+e+e+1+A+1+C+k+k+9+v+g+z+D+@ ",
"+ + + + + e+p+v m+u+m+m+d+g+u+a+l+D+D+D+|+;+v+A+x+z+A+f+g+x+s+@ ",
"+ = + + = y+A+C m+u+m+u+1+g+m+L.].,.,.,.].;.h+A+A+A+A+A+v+z+s+@ ",
"4 { = = { ' I I m+u+u+A+A+A+v+v+A+A+A+A+C+<+4+A+v+v+v+A+v+e+s+@ ",
"+ = { { 3 k+,+z m+u+g+Z.L.K.v+u+f+f+f+f+f+u+4+m+g+x+x+h+p+h+j+. ",
"+ + + + * D+A+I m+u+v+4+d+d+n+x+m+m+u+a+;+b+)+b+X.*+C+C+p+h+j+. ",
"+ + + + + d+x+A u+A+4+A+A+g+x+z+e+f+e+$+e+v+C + % @ * F+f+v+y+@ ",
"+ + + + + d+x+z u+A+m+m+A+q+(+(+(+9+D+;+C+_+w+6+7+F+F+v.f+v+y+@ ",
"+ + + + + d+u+z u+A+A+A+v+,+} 2 i 2 i w+* G.k r 3 D i _ v+v+v++ ",
"+ + + + + h+u+A n+n+e+n+g+e+m+<+v+v+v+<+v+)+C r l l H g c.z+D++ ",
"+ + + + + h+x+A C+C+l+C+h+m+A+A+x+x+x+m+A+^+D+h+j+[+y+l+C+z+D++ ",
"+ + + + + h+2+!+~ @ k @ 1.v+m+m+u+u+g+u+v+v+C+D+k+D+D+v+v+{+D++ ",
"+ + + + + h+e+[+v+v+v+)+v+T.x+n+z+z+n+g+<+q+C+0+q+0+q+2+j+++s++ ",
"+ + + + + d+u+y+u+u+A+A+4+4+)+v+h+<+C+<+h+a+D+-.-.%.%.L.v+~+b++ ",
"+ + + + + d+u+y+u+u+A+z+x+N.m c x s Z E ; t w.b b Z R u F+{+l++ ",
"+ + + + + d+u+y+u+u+m+m+u+u+h+a+o+o+o+h+q+`.@+=+S.O. +Y.O.)+_++ ",
"+ + + + + d+u+y+u+u+m+m+u+u+z+z+x+x+x+z+A+]+h+o.o.x.x.s.p.++}++ ",
"+ + + + + )+p+n+g+g+4+#+#+)+Z.Z.Z.Z.Z.Q.Z.Z.Q.Q.Z.#+)+U.$+T.9+@ ",
"+ + + + , @ @ @ @ @ + + + + + + + + + + + + + + + @ + @ % @ @ . "};
