/* XPM */
static char *magick[] = {
/* columns rows colors chars-per-pixel */
"32 32 121 2",
"   c Gray0",
".  c #010101",
"X  c #020202",
"o  c #040404",
"O  c #060606",
"+  c #090909",
"@  c #0e0e0e",
"#  c #101010",
"$  c #111111",
"%  c #151515",
"&  c Gray9",
"*  c #181818",
"=  c Gray10",
"-  c #1b1b1b",
";  c Gray11",
":  c #1d1d1d",
">  c Gray13",
",  c Gray15",
"<  c Gray16",
"1  c #343434",
"2  c Gray21",
"3  c #373737",
"4  c Gray22",
"5  c Gray26",
"6  c Gray27",
"7  c Gray28",
"8  c Gray30",
"9  c Gray32",
"0  c Gray33",
"q  c #555555",
"w  c #5a5a5a",
"e  c Gray36",
"r  c Gray37",
"t  c #5f5f5f",
"y  c #626262",
"u  c Gray40",
"i  c Gray41",
"p  c #6f6f6f",
"a  c Gray47",
"s  c #797979",
"d  c Gray",
"f  c #888888",
"g  c #8b8b8b",
"h  c Gray55",
"j  c Gray57",
"k  c #929292",
"l  c #939393",
"z  c #989898",
"x  c Gray60",
"c  c #a0a0a0",
"v  c Gray63",
"b  c #a2a2a2",
"n  c Gray64",
"m  c #a4a4a4",
"M  c #a5a5a5",
"N  c Gray65",
"B  c #a7a7a7",
"V  c Gray66",
"C  c #a9a9a9",
"Z  c #aaaaaa",
"A  c Gray67",
"S  c #acacac",
"D  c Gray68",
"F  c #aeaeae",
"G  c #afafaf",
"H  c Gray69",
"J  c #b1b1b1",
"K  c #b2b2b2",
"L  c Gray70",
"P  c #b4b4b4",
"I  c Gray71",
"U  c #b7b7b7",
"Y  c Gray72",
"T  c #b9b9b9",
"R  c Gray74",
"E  c #bebebe",
"W  c Gray75",
"Q  c #c0c0c0",
"!  c #c1c1c1",
"~  c Gray76",
"^  c #c3c3c3",
"/  c Gray77",
"(  c Gray78",
")  c #c8c8c8",
"_  c #cacaca",
"`  c #cbcbcb",
"'  c Gray80",
"]  c #cdcdcd",
"[  c #cecece",
"{  c Gray81",
"}  c #d0d0d0",
"|  c #d3d3d3",
" . c #d5d5d5",
".. c Gray84",
"X. c Gray85",
"o. c Gray86",
"O. c #dddddd",
"+. c #e1e1e1",
"@. c #e2e2e2",
"#. c Gray89",
"$. c #e4e4e4",
"%. c Gray90",
"&. c #e7e7e7",
"*. c #e9e9e9",
"=. c #eaeaea",
"-. c #ececec",
";. c #efefef",
":. c #f1f1f1",
">. c #f3f3f3",
",. c #f4f4f4",
"<. c Gray96",
"1. c #f6f6f6",
"2. c Gray97",
"3. c #f8f8f8",
"4. c #f9f9f9",
"5. c Gray98",
"6. c #fbfbfb",
"7. c Gray99",
"8. c #fdfdfd",
"9. c #fefefe",
"0. c Gray100",
/* pixels */
"H H H H H H H H H H H H H H H H H H H H H H H H H H H H H H H H ",
"H H H H H H H H H H H H H H H H H H H H H H H H H H H H H H H H ",
"H H H H H H H D M v v M M C H H H H H H H H H H H H H H H H H H ",
"C C C C D C v D R ) } [ Q H M M H H H H H H H H H H H H H H H H ",
"T I H H C H  .>.7.7.7.7.7.3.$.Q v v M v M v M M M C C C C D D D ",
"7.7.3.3.;.7.7.7.7.7.7.7.7.7.7.7.O.) } [ ) ) / / R R T T H H D D ",
"7.7.7.7.7.7.7.7.7.7.7.7.7.7.7.7.7.7.7.7.7.7.7.7.7.7.7.7.7.3.<.>.",
"7.7.7.7.7.7.7.7.7.7.7.7.7.7.7.7.7.3.I >.7.7.7.7.7.7.7.7.7.7.7.7.",
"7.7.7.7.7.7.7.7.7.7.7.7.7.7.7.7.7.7.C d 7.7.7.7.7.7.7.7.7.7.7.7.",
"7.7.7.7.7.7.7.7.7.7.7.7.7.7.7.7.7.7.=.: ) 7.7.7.7.7.7.7.7.7.7.7.",
"7.7.7.7.7.7.7.7.7.7.7.7.7.7.7.7.7.7.7.  t 7.7.7.7.7.7.7.7.7.7.7.",
"7.7.7.7.7.7.7.7.7.7.7.7.7.7.7.7.7.7.$.  > 7.7.7.7.7.7.7.7.7.7.7.",
"7.7.7.7.7.7.7.7.7.7.7.7.7.7.7.7.7.7./     D [ X.;.7.7.7.7.7.7.7.",
"7.7.7.7.7.7.7.7.7.7.7.7.7.7.7.7.7.7.h     o : 3 y l Q $.7.7.7.7.",
"7.7.7.7.7.7.7.7.7.7.7.7.7.7.7.7.7.<.7             : t x ) <.7.7.",
"7.7.7.7.7.7.7.7.7.7.7.7.7.7.7.7.7.D +               $ q l [ 3.7.",
"7.7.7.7.7.7.7.7.7.7.7.7.7.7.7.7.>.6                   , p H $.7.",
"7.7.7.7.7.7.7.7.7.7.7.7.7.7.7.7.f                     * u D $.7.",
"7.7.7.7.7.7.7.7.7.7.7.7.7.7.7.H *                     , s Q <.7.",
"7.7.7.7.7.7.7.7.7.7.7.7.7.7.D *                       9 v $.7.7.",
"7.7.7.7.7.7.7.7.7.7.7.7.3.l *                       5 x O.7.7.7.",
"7.7.7.7.7.7.7.7.7.7.7.[ y                       o 9 D ;.7.7.7.7.",
"7.7.7.7.3.} H X.+.I i :                       3 h  .7.7.7.7.7.7.",
"7.7.7.7.7.+.d <                         % 8 x +.7.7.7.7.7.7.7.7.",
"7.7.7.7.7.7.7.X.h t 4 : $ @ $ > 4 q s C O.7.7.7.7.7.7.7.7.7.7.7.",
"7.7.7.7.7.7.7.7.7.7.7.3.=.$.$.<.7.7.7.7.7.7.7.7.7.7.7.7.7.7.7.7.",
"7.7.7.7.7.7.7.7.7.7.7.7.7.7.7.7.7.7.7.7.7.7.7.7.7.7.7.7.7.7.7.7.",
"7.7.7.7.7.7.7.7.7.7.7.7.7.7.7.7.7.7.7.7.7.7.7.7.7.7.7.7.7.7.7.7.",
"7.7.7.7.7.7.7.7.7.7.7.7.7.7.7.7.7.7.7.7.7.7.7.7.7.7.7.7.7.7.7.7.",
"7.7.7.7.7.7.7.7.7.7.7.7.7.7.7.7.7.7.7.7.7.7.7.7.7.7.7.7.7.7.7.7.",
"7.7.7.7.7.7.7.7.7.7.7.7.7.7.7.7.7.7.7.7.7.7.7.7.7.7.7.7.7.7.7.7.",
"7.7.7.7.7.7.7.7.7.7.7.7.7.7.7.7.7.7.7.7.7.7.7.7.7.7.7.7.7.7.7.7."
};
