/* XPM */
static char * render_mip_card_opacity_xpm[] = {
"32 32 256 2",
"  	c None",
". 	c #3B051F",
"+ 	c #4F0028",
"@ 	c #4D0524",
"# 	c #420457",
"$ 	c #5C022C",
"% 	c #670240",
"& 	c #630343",
"* 	c #63034A",
"= 	c #7D001F",
"- 	c #5E0735",
"; 	c #6C023E",
"> 	c #6D0522",
", 	c #76003E",
"' 	c #730047",
") 	c #65063B",
"! 	c #720432",
"~ 	c #7B0236",
"{ 	c #81003A",
"] 	c #840037",
"^ 	c #8B011C",
"/ 	c #7E032F",
"( 	c #70063C",
"_ 	c #720638",
": 	c #8C0218",
"< 	c #8E012D",
"[ 	c #910034",
"} 	c #8F003A",
"| 	c #80062C",
"1 	c #980037",
"2 	c #A00022",
"3 	c #920426",
"4 	c #9B0034",
"5 	c #A00027",
"6 	c #8D0156",
"7 	c #9F002C",
"8 	c #95032C",
"9 	c #87007F",
"0 	c #8A0264",
"a 	c #8A007B",
"b 	c #8E0071",
"c 	c #A7002A",
"d 	c #8D0077",
"e 	c #AC001D",
"f 	c #8A045A",
"g 	c #AA0027",
"h 	c #A0004B",
"i 	c #9A005D",
"j 	c #A3041B",
"k 	c #86065D",
"l 	c #990062",
"m 	c #96006B",
"n 	c #980067",
"o 	c #90026E",
"p 	c #9E005A",
"q 	c #9B006D",
"r 	c #980077",
"s 	c #B70023",
"t 	c #B60027",
"u 	c #8D0851",
"v 	c #A80054",
"w 	c #A5005D",
"x 	c #A40439",
"y 	c #A70059",
"z 	c #B6002D",
"A 	c #AF0043",
"B 	c #900663",
"C 	c #890770",
"D 	c #9B0649",
"E 	c #980652",
"F 	c #C3000F",
"G 	c #AE004D",
"H 	c #A10356",
"I 	c #B40416",
"J 	c #A80441",
"K 	c #C40017",
"L 	c #C2001D",
"M 	c #9A074E",
"N 	c #B1014A",
"O 	c #B50237",
"P 	c #C20028",
"Q 	c #A30553",
"R 	c #B80048",
"S 	c #B60333",
"T 	c #B60051",
"U 	c #BF0037",
"V 	c #BC0040",
"W 	c #BE003B",
"X 	c #B8004D",
"Y 	c #BC0045",
"Z 	c #D0001D",
"` 	c #CA0032",
" .	c #731846",
"..	c #C50044",
"+.	c #CD002D",
"@.	c #CA0037",
"#.	c #C70040",
"$.	c #2B2882",
"%.	c #830F78",
"&.	c #D3002B",
"*.	c #D60026",
"=.	c #D80021",
"-.	c #721489",
";.	c #DB001D",
">.	c #D50031",
",.	c #791481",
"'.	c #C4062F",
").	c #B50947",
"!.	c #A60E45",
"~.	c #40296F",
"{.	c #C50935",
"].	c #8C1A3F",
"^.	c #B90D3F",
"/.	c #781F50",
"(.	c #991465",
"_.	c #38366B",
":.	c #2E31BB",
"<.	c #382EBD",
"[.	c #4B27DE",
"}.	c #9F197A",
"|.	c #90234E",
"1.	c #B42260",
"2.	c #40409B",
"3.	c #9F2784",
"4.	c #3F4390",
"5.	c #C0284C",
"6.	c #403CFF",
"7.	c #3342FB",
"8.	c #413EFA",
"9.	c #3A43F4",
"0.	c #BA2B6B",
"a.	c #4242EE",
"b.	c #8338AD",
"c.	c #604A8D",
"d.	c #48537F",
"e.	c #863DA6",
"f.	c #983AA6",
"g.	c #9E3B91",
"h.	c #943EA6",
"i.	c #614F97",
"j.	c #BA3E80",
"k.	c #984AB0",
"l.	c #9751B3",
"m.	c #A44FAB",
"n.	c #D7476B",
"o.	c #C44C8D",
"p.	c #9158B5",
"q.	c #A158A8",
"r.	c #C55664",
"s.	c #85699C",
"t.	c #A45EB4",
"u.	c #717492",
"v.	c #726FC3",
"w.	c #6A73BE",
"x.	c #7171BE",
"y.	c #6C72C4",
"z.	c #6675C5",
"A.	c #85729F",
"B.	c #DE5C83",
"C.	c #AF65B6",
"D.	c #8076B9",
"E.	c #7B79BA",
"F.	c #9171DE",
"G.	c #7E7EB2",
"H.	c #7C80AD",
"I.	c #897DA8",
"J.	c #DA688D",
"K.	c #847EC7",
"L.	c #7E81C8",
"M.	c #9B7CED",
"N.	c #A083A6",
"O.	c #CA78AD",
"P.	c #9584F9",
"Q.	c #9C82F9",
"R.	c #8F8FA5",
"S.	c #928F9F",
"T.	c #9286FF",
"U.	c #938CD7",
"V.	c #D97D9E",
"W.	c #908AF6",
"X.	c #908ED1",
"Y.	c #8F8AFE",
"Z.	c #8C93B4",
"`.	c #8791D8",
" +	c #9C90BC",
".+	c #8A90F2",
"++	c #CB82C4",
"@+	c #9A92B6",
"#+	c #9394C0",
"$+	c #C58ABE",
"%+	c #D288C1",
"&+	c #A798E6",
"*+	c #CA93C6",
"=+	c #A39FD6",
"-+	c #9DA1D7",
";+	c #9FA0DC",
">+	c #AA9ED7",
",+	c #A3A4C5",
"'+	c #BF9CCF",
")+	c #B49DF4",
"!+	c #A9A0FF",
"~+	c #A8A2FC",
"{+	c #B2A6C6",
"]+	c #A6A5F6",
"^+	c #A3A6FD",
"/+	c #CE9ECE",
"(+	c #B9A9DD",
"_+	c #B4ABDE",
":+	c #D7A4C9",
"<+	c #B3AEDA",
"[+	c #A8B2E0",
"}+	c #A9B4DC",
"|+	c #ADB4D6",
"1+	c #B7B0FD",
"2+	c #ABB4FD",
"3+	c #B2B2FD",
"4+	c #B7B2F8",
"5+	c #B5B4F2",
"6+	c #E2ABCA",
"7+	c #B0B6FA",
"8+	c #DDB2D3",
"9+	c #BFBBD9",
"0+	c #EEAFD2",
"a+	c #BABEDA",
"b+	c #C2BAED",
"c+	c #C0BBFF",
"d+	c #C6BDE3",
"e+	c #C0BFE3",
"f+	c #CDBAF3",
"g+	c #BFBEFB",
"h+	c #BBC1F8",
"i+	c #B7C4F2",
"j+	c #BAC2FE",
"k+	c #CFC0DB",
"l+	c #D8C4D0",
"m+	c #C6CBCE",
"n+	c #CECADC",
"o+	c #D2CAE4",
"p+	c #CACEE5",
"q+	c #D7CBEC",
"r+	c #D1CDEC",
"s+	c #CCCFEC",
"t+	c #D9D4FF",
"u+	c #E0D4FC",
"v+	c #D9D8FD",
"w+	c #D4DAFA",
"x+	c #D1DCF8",
"y+	c #CADEFE",
"z+	c #DCDCF4",
"A+	c #DCDFE9",
"B+	c #E2DEF0",
"C+	c #E0E4F4",
"D+	c #EEE1F2",
"E+	c #EBE2FC",
"F+	c #E5E6FE",
"G+	c #EAE6F8",
"$.<.:.:.:.:._.x.y.w.x.y.d.D.K.L.K.K.E.u.X.X.X.X.`.u.=+;+-+=+;+Z.",
"<.8.8.8.8.9.2.Y.T.W.P.P.c.p.f.f.h.f.l.s.~+~+!+]+^+I.4+3+3+1+3+;+",
":.8.7.7.8.a.4..+W.F.b.-.% f l l l l k ~ }.m.&+]+^+G.1+1+3+1+1+;+",
":.8.7.8.6.8.2.M.b.%.o b ( f n n n n f | v y (.q.)+H.4+3+4+3+3+-+",
":.8.8.6.7.9.~.%.o C d a * 0 m m m m B { y y v H 3.s.7+3+3+3+2+;+",
":.9.a.8.a.[.# d d o C 0 & 6 i i i i u ~ Q p h h M  .'+5+7+4+7+=+",
"_.2.4.2.~.# . ) - ) & ; + ! _ _ _ _ ! > [ } [ [ / ^ ].N.#+#+@+S.",
"x.Y..+M.%.d ) o B l n i , h H H H H D < A G A G N 5 ^.j.f+j+g+}+",
"z.T.W.b.b a - m n l n l ; E H H H H h [ R T R N N 7 W Y O.i+h+|+",
"w.Y.F.9 C o % l l i l i ( M v v v v D [ N T A A N 3 O #.1.b+c+[+",
"x.T.e.r b C * n m l q l ' H w w w w M [ G T N X N 7 W #.Y ++g+_+",
"v.Q.,.d d 0 ; i l i l p , h v v v v D 1 N X A N N 7 ^.W W j.i+<+",
"d.i.) % * & @ , ; ( ' , $ / ] ] ] ] / = < 4 8 4 4 : g g t x {+,+",
"D.p.6 k 0 u ! h M D H h / x J J A A x 2 S U z O O j P '.P z :+a+",
"L.k.l n m i _ H H v w Q ] A N N N N A c W ..W V W e '.` @.` *+e+",
"K.h.l l m i _ H H v w Q ] A N N N N A c W ..W V W e '.+.@.+.$+e+",
"K.h.l l m i _ H H v w Q ] A N N N N A c W ..W V W e '.+.@.` $+d+",
"L.k.l n m i _ H H v w Q ] A N N N N A c W ..W V W e '.` @.` *+e+",
"E.p.k k 0 u ! D h D M D / x J J J J 7 2 z {.S S O e L +.P S 8+a+",
"u.s.~ | { ~ > < [ [ } 1 = 2 7 7 7 7 5 j s s t t z I L Z L ^.k+a+",
"U.^+3.v y Q [ A X N N N < S V V W W S t +.+.` +.` K =.;.=.B.x+r+",
"X.~+t.y y p } G T X T X 4 U ........U s +.>.` +.` L =.=.+.6+v+r+",
"X.!+&+n y Q [ A R A N A 8 z W W W W S t +.+.` ` @.L *.&.n.z+u+p+",
"X.]+]+C.H M } R X N X N 4 O W W W W S t +.+.` @.@.I Z {.0+x+v+s+",
"`.~+^+)+g.E ~ !.N N N N 4 O W W W W O z ` ` @.@.{.K P V.z+y+u+o+",
"u.I.G.H.A./.3 3 7 7 7 7 : j e e e e e I K K L I K F r.l+n+n+n+m+",
">+5+4+4+5+(+|.O ^.O W ^.g P '.'.'.'.P L =.=.*.*.P r.D+G+E+F+C+A+",
";+2+3+3+3+7+N.o.).V #.W z '.+.+.>.+.&.Z ;.=.&.{.V.l+G+F+F+F+F+B+",
"-+3+3+4+3+4+#+f+%+0.).W t '.{.@.@.{.t L =.` n.0+z+n+D+F+E+F+F+z+",
";+1+1+3+3+1+#+j+h+b+++o.!.O '.` +.` S 5.J.8+w+x+y+o+E+F+E+E+F+z+",
";+3+1+3+3+4+ +g+h+c+g+i+{+8+/+*+*+/+8+k+x+w+t+v+u+n+C+F+F+F+G+B+",
"Z.;+;+-+;+>+R.[+<+[+(+_+,+9+e+e+e+e+a+9+q+r+s+s+r+m+A+z+B+B+C+A+"};
