/* XPM */
static char *magick[] = {
/* columns rows colors chars-per-pixel */
"32 32 95 2",
"   c Gray0",
".  c #010101",
"X  c #020202",
"o  c #040404",
"O  c #060606",
"+  c #070707",
"@  c Gray3",
"#  c #0c0c0c",
"$  c Gray5",
"%  c Gray7",
"&  c Gray10",
"*  c #1e1e1e",
"=  c #222222",
"-  c #2d2d2d",
";  c #3a2f2b",
":  c Gray19",
">  c Gray24",
",  c #0b137c",
"<  c #373950",
"1  c #393955",
"2  c #3a3a56",
"3  c #3e3e58",
"4  c #0b7c13",
"5  c #137e0b",
"6  c #375039",
"7  c #395137",
"8  c #395539",
"9  c #3a563a",
"0  c #4f2217",
"q  c #503d37",
"w  c #553e39",
"e  c #553f39",
"r  c #563f3a",
"t  c #7c290b",
"y  c #57413b",
"u  c Gray25",
"i  c Gray27",
"p  c Gray31",
"a  c Gray36",
"s  c #686868",
"d  c #727272",
"f  c Gray46",
"g  c Gray",
"h  c #0b0b84",
"j  c #0b0b86",
"k  c #131384",
"l  c Blue",
"z  c #000ff0",
"x  c #0f0fff",
"c  c #61648d",
"v  c #676796",
"b  c #7f7f81",
"n  c #7c7c84",
"m  c #70709c",
"M  c #0b840b",
"N  c #0b860b",
"B  c #00f00f",
"V  c Green",
"C  c #0ff300",
"Z  c #618d64",
"A  c #668f63",
"S  c #679667",
"D  c #86220b",
"F  c #84240b",
"G  c #84260b",
"H  c #8b2308",
"J  c #8d6d61",
"K  c #8d6e61",
"L  c #967067",
"P  c #967167",
"I  c #967267",
"U  c #ff3000",
"Y  c #ff3400",
"T  c #ff3500",
"R  c #ff3800",
"E  c #ff3c00",
"W  c #f04000",
"Q  c #f04400",
"!  c #848484",
"~  c Gray52",
"^  c #868684",
"/  c #898989",
"(  c #8b8b8b",
")  c #9d9d9d",
"_  c #9f9f9f",
"`  c #a2a2a2",
"'  c #aaaaaa",
"]  c #aeaeae",
"[  c Gray71",
"{  c #bbbbbb",
"}  c #bcbcbc",
"|  c #c1c1c1",
" . c #f0f0ff",
".. c #f6f6f9",
"X. c Gray100",
/* pixels */
"0 G G G F G G F G 0 | | | | | | | | | | | | ; r r r r r r r r ; ",
"H E R R T R R T E H | | | | | | | | | | | | y P P P P P P P P y ",
"G R T T T T T T R G | | | | | | | | | | | | r P P P P P P P P r ",
"G T T T T T T T R G | | | | | | | | | | | | r P P P P P P P P r ",
"F R Y Y T T T T R G | | g | | | | | | | | | r P P P P P P P P r ",
"F R Y Y T T T T T G | | = ' | | | | | | | | r P P P P P P P P r ",
"F T U U U U U U T F | |   u | | | | | | | | r P P P P P P P P r ",
"t Q W W W W W E Q t | | +   d | | | | | | | q K K K K K K K K q ",
"5 C C C C C C C C 5 | | @   $ ) | | | | | | 7 A A A A A A A A 7 ",
"N V V V V V V V V N | | @     - { | | | | | 9 S S S S S S S S 9 ",
"N V V V V V V V V M | | @       a | | | | | 9 S S S S S S S S 9 ",
"N V V V V V V V V M | | @         ( | | | | 9 S S S S S S S S 9 ",
"M V V V V V V V V M | | @         * ] | | | 9 S S S S S S S S 9 ",
"M V V V V V V V V M | | +           i | | | 9 S S S S S S S S 9 ",
"N V V V V V V V V N | | +             f | | 9 S S S S S S S S 9 ",
"4 B B B B B B B B 4 | | +             $ | | 6 Z Z Z Z Z Z Z Z 6 ",
", z z z z z z z z , | | +             + | | < c c c c c c c c < ",
"j l l l l l l l l j | | +             s | | 1 v v v v v v v v 1 ",
"h l l l l l l l l j | | +           > | | | 1 v v v v v v v v 1 ",
"h l l l l l l l l j | | +         & ' | | | 1 v v v v v v v v 1 ",
"h l l l l l l l l h | | +         ( | | | | 1 v v v v v v v v 1 ",
"h l l l l l l l l h | | +       a | | | | | 1 v v v v v v v v 1 ",
"h l l l l l l l l h | | +     : } | | | | | 1 v v v v v v v v 1 ",
"k x x x x x x x x k | | +   % ` | | | | | | 3 m m m m m m m m 3 ",
"b  . . . . . . . .n | | +   g | | | | | | | b ................b ",
"~ X.X.X.X.X.X.X.X.~ | |   p | | | | | | | | ~ X.X.X.X.X.X.X.X.~ ",
"~ X.X.X.X.X.X.X.X.~ | | - [ | | | | | | | | ~ X.X.X.X.X.X.X.X.~ ",
"~ X.X.X.X.X.X.X.X.~ | | ) | | | | | | | | | ~ X.X.X.X.X.X.X.X.~ ",
"~ X.X.X.X.X.X.X.X.~ | | | | | | | | | | | | ~ X.X.X.X.X.X.X.X.~ ",
"~ X.X.X.X.X.X.X.X.~ | | | | | | | | | | | | ~ X.X.X.X.X.X.X.X.~ ",
"( X.X.X.X.X.X.X.X.( | | | | | | | | | | | | ( X.X.X.X.X.X.X.X.( ",
"p ~ ~ ~ ~ ~ ~ ~ ~ p | | | | | | | | | | | | p ~ ~ ~ ~ ~ ~ ~ ~ p "
};
