/* XPM */
static char * render_mip_rayswitch_xpm[] = {
"32 32 256 2",
"  	c None",
". 	c #18110A",
"+ 	c #17170F",
"@ 	c #1D1609",
"# 	c #1A1913",
"$ 	c #201A15",
"% 	c #281A0A",
"& 	c #1F1C11",
"* 	c #231C0C",
"= 	c #231C12",
"- 	c #201F19",
"; 	c #241E19",
"> 	c #1D2022",
", 	c #221E29",
"' 	c #291E1B",
") 	c #2D1F13",
"! 	c #252120",
"~ 	c #212229",
"{ 	c #232225",
"] 	c #2C220F",
"^ 	c #2C211D",
"/ 	c #2A2126",
"( 	c #2B2222",
"_ 	c #30230B",
": 	c #272423",
"< 	c #28232C",
"[ 	c #2B241A",
"} 	c #272529",
"| 	c #2B251F",
"1 	c #31241A",
"2 	c #25262E",
"3 	c #2E2617",
"4 	c #282721",
"5 	c #2C2827",
"6 	c #282931",
"7 	c #3C2617",
"8 	c #2B292C",
"9 	c #292B28",
"0 	c #2D2B20",
"a 	c #302A25",
"b 	c #352A17",
"c 	c #392A0E",
"d 	c #2F2B2A",
"e 	c #372A20",
"f 	c #322A2F",
"g 	c #3C2C15",
"h 	c #342D23",
"i 	c #362C2C",
"j 	c #342F1A",
"k 	c #442C0D",
"l 	c #422C17",
"m 	c #392D29",
"n 	c #2F3038",
"o 	c #3B3017",
"p 	c #3A301C",
"q 	c #32312A",
"r 	c #34302F",
"s 	c #412F14",
"t 	c #402F18",
"u 	c #37302B",
"v 	c #3F2F1E",
"w 	c #3E3025",
"x 	c #393223",
"y 	c #363428",
"z 	c #3D352B",
"A 	c #473418",
"B 	c #41342B",
"C 	c #3E3434",
"D 	c #3C3530",
"E 	c #4B340E",
"F 	c #46341D",
"G 	c #433427",
"H 	c #3D371C",
"I 	c #353734",
"J 	c #35363E",
"K 	c #4C3319",
"L 	c #46332C",
"M 	c #39372B",
"N 	c #433618",
"O 	c #3A3635",
"P 	c #4D331F",
"Q 	c #413531",
"R 	c #513316",
"S 	c #413728",
"T 	c #3A3932",
"U 	c #44381F",
"V 	c #4F3617",
"W 	c #3F3A2A",
"X 	c #493826",
"Y 	c #473739",
"Z 	c #3E3A39",
"` 	c #4C391D",
" .	c #443A2B",
"..	c #413A34",
"+.	c #463A26",
"@.	c #4B3922",
"#.	c #3A3C39",
"$.	c #3A3B43",
"%.	c #3E3C30",
"&.	c #3D3C35",
"*.	c #4E3A19",
"=.	c #443B31",
"-.	c #493C1E",
";.	c #413C3B",
">.	c #473A40",
",.	c #543B20",
"'.	c #4F3C25",
").	c #503D20",
"!.	c #4B3E25",
"~.	c #4A3E2A",
"{.	c #563C1C",
"].	c #404038",
"^.	c #543C26",
"/.	c #433F3D",
"(.	c #4D3F21",
"_.	c #593D12",
":.	c #3F4043",
"<.	c #463F39",
"[.	c #3F4048",
"}.	c #573E18",
"|.	c #40413F",
"1.	c #4A4031",
"2.	c #494036",
"3.	c #4D3F36",
"4.	c #464231",
"5.	c #55401E",
"6.	c #544024",
"7.	c #51421E",
"8.	c #464337",
"9.	c #464241",
"0.	c #544129",
"a.	c #45443D",
"b.	c #49433D",
"c.	c #504329",
"d.	c #4D4343",
"e.	c #44454D",
"f.	c #534335",
"g.	c #554330",
"h.	c #454644",
"i.	c #494544",
"j.	c #5E431D",
"k.	c #4F4536",
"l.	c #514531",
"m.	c #584428",
"n.	c #514440",
"o.	c #5B451D",
"p.	c #4D4640",
"q.	c #4F463B",
"r.	c #5F4424",
"s.	c #494841",
"t.	c #55472E",
"u.	c #59462E",
"v.	c #5D4725",
"w.	c #484951",
"x.	c #57492A",
"y.	c #604922",
"z.	c #544A3E",
"A.	c #5E492C",
"B.	c #694723",
"C.	c #63482D",
"D.	c #514B45",
"E.	c #654923",
"F.	c #584B37",
"G.	c #494E4A",
"H.	c #5C4C27",
"I.	c #5B4B3D",
"J.	c #5D4B38",
"K.	c #5F4B33",
"L.	c #564E33",
"M.	c #5B4D33",
"N.	c #634D2A",
"O.	c #574D53",
"P.	c #684C2B",
"Q.	c #684D31",
"R.	c #654D3C",
"S.	c #684F20",
"T.	c #525245",
"U.	c #594F4F",
"V.	c #654F2C",
"W.	c #655032",
"X.	c #5D532C",
"Y.	c #6C4F29",
"Z.	c #605238",
"`.	c #5D543E",
" +	c #5D5539",
".+	c #66542A",
"++	c #645435",
"@+	c #665530",
"#+	c #6B5431",
"$+	c #5B5749",
"%+	c #6D552D",
"&+	c #635641",
"*+	c #5E5841",
"=+	c #72542E",
"-+	c #6B582E",
";+	c #685933",
">+	c #6D573A",
",+	c #63594B",
"'+	c #6F5835",
")+	c #76572B",
"!+	c #67584E",
"~+	c #715930",
"{+	c #5C5C54",
"]+	c #5D5D5D",
"^+	c #6B5C42",
"/+	c #605F52",
"(+	c #725C3E",
"_+	c #666040",
":+	c #6E5E3E",
"<+	c #775D2F",
"[+	c #695F49",
"}+	c #705F39",
"|+	c #736036",
"1+	c #7B6239",
"2+	c #7B6241",
"3+	c #63675E",
"4+	c #676866",
"5+	c #7A6833",
"6+	c #796741",
"7+	c #71675C",
"8+	c #6B6A59",
"9+	c #706A4D",
"0+	c #646C73",
"a+	c #746D55",
"b+	c #846B41",
"c+	c #7A6D57",
"d+	c #7B6E4F",
"e+	c #836C4D",
"f+	c #7F703D",
"g+	c #837044",
"h+	c #86724C",
"i+	c #867557",
"j+	c #90754B",
"k+	c #787B6C",
"l+	c #757B80",
"m+	c #777D73",
"n+	c #897C5C",
"o+	c #797F7B",
"p+	c #937B5B",
"q+	c #97805A",
"r+	c #87836D",
"s+	c #958362",
"t+	c #9D8961",
"u+	c #8E8F7A",
"v+	c #9A9066",
"w+	c #9C916F",
"x+	c #A69063",
"y+	c #A99A66",
"z+	c #A09A86",
"A+	c #B6A96B",
"B+	c #BBB188",
"C+	c #B9B29B",
"D+	c #C3B898",
"E+	c #CBB794",
"F+	c #DDD38C",
"G+	c #D7D3B1",
"/./.9.p.s.s.h.p.p.p.p.9.;.O r 5 8 8 6 n J e.w.$.$.w.]+]+O.Y Q ..",
"/.9.9.p.i.i.p.p.p.p.p.9.;.Z r 5 } } < 2 2 J [.$.$.e.O.O.d.m D ..",
"9.9.9.d.d.p.q.q.p.p.p.9./.;.O d 8 } < < 2 J e.$.$.[.O.U.z a D D ",
"9.9.9.i.p.7+&+k.p.p.p././.;.O d 8 2 2 2 2 n $.J J $.>.I.U G D u ",
"b.9.p.D.z.&+7.l.z.z.b.<.;.;.O d 8 8 2 2 < < 2 2 2 2 n.c+6.K.Q Q ",
"8.b.T._+v+E+P.}+y+h+[+F.2...O f f 8 9 2 / { > { ~ / 4.c.,.0.Q C ",
"a.D.z+G+B+w+v.@+f+~+'+x.l.z u q 9 d 9 <.G ! , < ~ ~ ,+'.l w C C ",
"<.q.C+9+X.t.(.x.y+j+Y.@+^+G i 8 9 d i d+H.e , / ~ { k.@.g w C i ",
"Z 4.C+A.` v t '.g+h+v.}+M.h i d W l.g.g+S.!.S 2.a { a U g m C i ",
"r 1.i+m.^.7 7 P E.P.m.:+ +{+:.`.v+y+f+<+}.H.;+:+I.( d ~.K.L Q m ",
"B Z.t+y.v.` l P r.~+E.'+ +k+{+s+G+6+.+.+m.5.y.Y.W.G f.A.6. .<...",
"c.i+q+y.@+v.A {.j._._.v.L.u+[+(+G+>+H.x.6.C.2+=+W.f.J.N.(+1.b.<.",
"N 7.E N.;+H.x.V.~+}.1+,.L.9+:+p+D+Q.x.g l R B.=+V.g.g.r.m.=.b.b.",
"b N s 6.-.N (.++x.g _ c *+L.v.q+i+P.H.*.K R B.=+V.c.0.'+>+3.b.b.",
"<.4._ v F F t c _ % ] H r+a+s t+6+E.-+y.{.,.r.~+@+-.(.v.m.3.p.b.",
"].T.W 3 g t o % % ) % 4.u+r+o '+=+y.|+%+r.,.r.'+W.A c.x.Z.q.h.h.",
"&./+$+= @ * 3 @ . . @ * 4.r+j ` V {.1+)+%+V.'+e+m.'.M.++t.2.h.h.",
"].8+y $ + # - + + # # = [ /+x g ^.m.'+S.%+g+6+W.K.'.Z.5.c.<.h.h.",
"{+/+T O I T &.; $ $ $ ; | 8.y j F *.'+{.E o.5.'.@.g.A.@+!.b.|.h.",
"{+/+<.Z ....<.u ; ; ; ' | M 0 H @+h+.+r.V V.m.u.X I.m.v.~.|.|.|.",
"3+$+b.&.;.;.;.<...a ^ 1 [ q x X.F+A+#+j.H.N.A.S b.J.!.t.1.|././.",
"3+s.%.&.;.;.O O D e 7 ) 4 0 8+B+f+g+v.j.5.#+u.2.].l.6.u. .a./.;.",
"m+&.T q | | | : | ) R.e q 4.n+w+++>+v.N.o.P.u.8.].k.A.K.S 2.;.;.",
"m+&.T a.O ;.;./.<.3.!+p.s.$+d+w+@+N.A.#+x+b+6.1.8.F.K X 2.<.;.;.",
"o+T 4+o+/.;.<./.<.p.p.h.s.`.w+^+-+@+'..+S.<+*.~.,+M.^.2./.;.;.;.",
"l+..3+l+G.|.|././.9...T W &+:+W..+2+,.'+#+>+` +.f.` K G /./.;.Z ",
"0+..s.G.h.|.|.b.O 5 5 =.S c.5.5+5+|+v.V.>+2+m.+.1.F l  .;.;.;.Z ",
":.9.].|.|.|.|.r | | | h b F '+S..+++0.@+>+(+K.+.f.F v =.;.;.;.Z ",
";.|.].].|.|.#.: | | | | [ g ` k ` t U :+:+).U +.2.t G ..;...Z O ",
"d #.&.].#.|.#.: | | | ! [ 3 F K ` -.-.x.).A U  .=.v S ..;...Z O ",
"{ 9 #.#.;./.;.d | | | ! ; 0 3 b p t g s F !.=.<.S X =.Z #...O O ",
"{ { 9 #.;.;./.Z 5 | | ! ; y & & * 3 b b b S <.<.S X =.Z #...O O "};
