/* XPM */
static char * render_mip_grayball_xpm[] = {
"32 32 43 1",
" 	c #D5D5D5",
".	c #D6D6D6",
"+	c #D7D7D7",
"@	c #D8D8D8",
"#	c #D9D9D9",
"$	c #DADADA",
"%	c #DBDBDB",
"&	c #DCDCDC",
"*	c #DDDDDD",
"=	c #DEDEDE",
"-	c #DFDFDF",
";	c #E0E0E0",
">	c #E1E1E1",
",	c #E2E2E2",
"'	c #E3E3E3",
")	c #E4E4E4",
"!	c #E5E5E5",
"~	c #E6E6E6",
"{	c #E7E7E7",
"]	c #E8E8E8",
"^	c #E9E9E9",
"/	c #EAEAEA",
"(	c #EBEBEB",
"_	c #ECECEC",
":	c #EDEDED",
"<	c #EEEEEE",
"[	c #EFEFEF",
"}	c #F0F0F0",
"|	c #F1F1F1",
"1	c #F2F2F2",
"2	c #F3F3F3",
"3	c #F4F4F4",
"4	c #F5F5F5",
"5	c #F6F6F6",
"6	c #F7F7F7",
"7	c #F8F8F8",
"8	c #F9F9F9",
"9	c #FAFAFA",
"0	c #FBFBFB",
"a	c #FCFCFC",
"b	c #FDFDFD",
"c	c #FEFEFE",
"d	c #FFFFFF",
"cccccccca0aa83|[[}19ba0aacabbbbc",
"cccccccbb0|)%$%#@#%(7}7bcabbbbbc",
"cccccccb3)&&#$$##@$&5/#/7bcbbbbc",
"bcccbca85663^=&%##$#>8;@;|bbbbbc",
"bcbba1>=*&-~|5<'@$+$%}[@%&:abacc",
"dbcb1=+$$@#$#,}5<-#%$-6>$%&[b0cc",
"aad6>@%@##@@%##-}6(&$$}<@##*6acc",
"cba{$$@$$%%$@$%$$'23^&)6-##-69cc",
"aa1%$$$$$$$$$$$%&@%^53(5,.%}<<bc",
"0b!#$$$$$$$$$$$@@$##$/397:25;=5b",
"b3*$$$$$$$$$$$$%%@$$$$&{8_]#$@:a",
"9^$$%#$%%%%%$$#+$@#$@$$=6=$$@#'0",
"b,#$#%%$*>!~^:|||||[_])>4{.@#$&5",
"7*&%'^15653|[(]{{{{^_}14953_'&#2",
"8/1641/,-*$@+@#######@@%|():44<2",
"9:]>*##$%%%%%$$$$$$@&$#+}~#$$':8",
"5@$#$$$$$$$$$$$&%$$$$$>>4_@$%#@<",
"7#&@$$$$$$$$$$$$%%@$~}6497}=@$@|",
"0=#@$$$$$$$$$$$%#%)36(>*2/}1*$#3",
"b~+$$$$$$$$$%%$+%_6_=$#*6**3{$*8",
"a<.#$$$$$$$$&@$~63>@ @$!|%@{4&~a",
"a6&#$$$$$$$%#&<6/++@#@$[{$$;6;|c",
"b0]$$$$$$$$%!72>@##$%@-5=$%+4_9b",
"ac5*@$#@&*,[5{#$$$$$&@(|$+%+[9bc",
"0a0<=#$='[6|-@$#$$$#$=8,##%@<ccc",
"aaba72144<,@#$$$$$$%$1}##$%-6dbc",
"bcbc9[)>&$&#@$##%$##{7-#%$>3bbcc",
"ccccb6~%$##$$$$$#@$,6{@$@>3bbbbc",
"ccccac0/-%$%$$$#%%=4_$$%^5bbbbbc",
"cccbabab5^&#$$$#@;3|$%)20bcbbbbc",
"ccccbccbcb7[~-##>2|~/2accabbbbcc",
"cccccccccbaa0996adb9bbcccccccccd"};
