/* XPM */
static char *render_BA_meshdistance_xpm[]={
"32 32 577 2",
"      c #000000",
" 0    c #020202",
" 1    c #020201",
" 2    c #010101",
" 3    c #000100",
" 4    c #000001",
" 5    c #080307",
" 6    c #070207",
" 7    c #060607",
" 8    c #060606",
" 9    c #060506",
" a    c #060505",
" b    c #050505",
" c    c #050405",
" d    c #040404",
" e    c #040304",
" f    c #030303",
" g    c #030003",
" h    c #020003",
" i    c #020102",
" j    c #000101",
" k    c #0C1E0C",
" l    c #0B1C0B",
" m    c #0D050D",
" n    c #0D030D",
" o    c #0C030C",
" p    c #0B030C",
" q    c #0B020B",
" r    c #0A010A",
" s    c #0A000A",
" t    c #090009",
" u    c #071207",
" v    c #071807",
" w    c #080008",
" x    c #070007",
" y    c #060007",
" z    c #060006",
" A    c #050105",
" B    c #050205",
" C    c #050404",
" D    c #01EE01",
" E    c #00F600",
" F    c #02D302",
" G    c #02CF02",
" H    c #02D002",
" I    c #02CE02",
" J    c #03C203",
" K    c #068A06",
" L    c #068507",
" M    c #068506",
" N    c #068B06",
" O    c #01E301",
" P    c #01ED01",
" Q    c #03C503",
" R    c #02C302",
" S    c #049504",
" T    c #048D04",
" U    c #075D07",
" V    c #084B07",
" W    c #093409",
" X    c #0A1A0A",
" Y    c #0A0F0A",
" Z    c #0E890D",
" &    c #126712",
"0     c #0D940D",
"00    c #0C980C",
"01    c #0C970C",
"02    c #0C960C",
"03    c #0C930C",
"04    c #0D8C0D",
"05    c #0D880D",
"06    c #0B940B",
"07    c #04DA04",
"08    c #00FF00",
"09    c #01F501",
"0a    c #00FD00",
"0b    c #05C606",
"0c    c #06C206",
"0d    c #01F901",
"0e    c #00F500",
"0f    c #01E601",
"0g    c #02CD02",
"0h    c #03BD03",
"0i    c #069006",
"0j    c #068706",
"0k    c #0A500A",
"0l    c #00F900",
"0m    c #108310",
"0n    c #221122",
"0o    c #230623",
"0p    c #220822",
"0q    c #230323",
"0r    c #210821",
"0s    c #1D1E1D",
"0t    c #155315",
"0u    c #0C920C",
"0v    c #04D504",
"0w    c #03E603",
"0x    c #0AB50A",
"0y    c #107D10",
"0z    c #173E17",
"0A    c #192619",
"0B    c #117011",
"0C    c #03E403",
"0D    c #01EA01",
"0E    c #0D800C",
"0F    c #181818",
"0G    c #181B18",
"0H    c #162B16",
"0I    c #125212",
"0J    c #115C11",
"0K    c #0C8F0C",
"0L    c #0C910C",
"0M    c #08B708",
"0N    c #07C207",
"0O    c #03EC03",
"0P    c #1A811A",
"0Q    c #03F403",
"0R    c #08CF08",
"0S    c #1F511F",
"0T    c #204C20",
"0U    c #148814",
"0V    c #0AC509",
"0W    c #03EB03",
"0X    c #03F603",
"0Y    c #0AD10A",
"0Z    c #149514",
"0&    c #1E501E",
"1     c #242524",
"10    c #260E27",
"11    c #270B27",
"12    c #251125",
"13    c #251324",
"14    c #240D24",
"15    c #1F2D1F",
"16    c #128E12",
"17    c #02F702",
"18    c #04DD04",
"19    c #146514",
"1a    c #211121",
"1b    c #210822",
"1c    c #210622",
"1d    c #210221",
"1e    c #1D1A1D",
"1f    c #154C15",
"1g    c #01E901",
"1h    c #0BC80B",
"1i    c #01F302",
"1j    c #02F302",
"1k    c #0DBF0D",
"1l    c #139A14",
"1m    c #159115",
"1n    c #168D16",
"1o    c #1E651E",
"1p    c #1E641E",
"1q    c #1D641D",
"1r    c #1E631E",
"1s    c #244324",
"1t    c #273227",
"1u    c #282728",
"1v    c #1F5520",
"1w    c #0CC40C",
"1x    c #0AC20A",
"1y    c #1A641B",
"1z    c #187118",
"1A    c #0EAA0E",
"1B    c #04E604",
"1C    c #02FA02",
"1D    c #07E007",
"1E    c #129713",
"1F    c #1C561C",
"1G    c #1CA71C",
"1H    c #1DA11D",
"1I    c #1D9D1D",
"1J    c #1D9F1D",
"1K    c #1C9E1D",
"1L    c #1D9B1D",
"1M    c #12C012",
"1N    c #0ECE0E",
"1O    c #0DD30D",
"1P    c #0CD80C",
"1Q    c #0CD70C",
"1R    c #06EB06",
"1S    c #02F902",
"1T    c #02F802",
"1U    c #03F703",
"1V    c #01FE01",
"1W    c #01F601",
"1X    c #01F801",
"1Y    c #02F002",
"1Z    c #02EE02",
"1&    c #06D607",
"2     c #09C709",
"20    c #09CA09",
"21    c #463646",
"22    c #463546",
"23    c #453545",
"24    c #443445",
"25    c #443444",
"26    c #443344",
"27    c #423742",
"28    c #413841",
"29    c #403740",
"2a    c #403540",
"2b    c #3C403C",
"2c    c #394B38",
"2d    c #384A38",
"2e    c #384A37",
"2f    c #384837",
"2g    c #345334",
"2h    c #2B712B",
"2i    c #2B722B",
"2j    c #2A712A",
"2k    c #2A702A",
"2l    c #297329",
"2m    c #1E991E",
"2n    c #1D9C1D",
"2o    c #1C9C1C",
"2p    c #1C9B1C",
"2q    c #1B9B1B",
"2r    c #1B9E1B",
"2s    c #1AA319",
"2t    c #19A419",
"2u    c #4C4C4C",
"2v    c #4C4C4B",
"2w    c #4B4B4B",
"2x    c #4A4B4A",
"2y    c #4A4A4A",
"2z    c #4A4A49",
"2A    c #494949",
"2B    c #494849",
"2C    c #484748",
"2D    c #474747",
"2E    c #474447",
"2F    c #474247",
"2G    c #464246",
"2H    c #464146",
"2I    c #454145",
"2J    c #453F45",
"2K    c #463A46",
"2L    c #453945",
"2M    c #443944",
"2N    c #443844",
"2O    c #433343",
"2P    c #433242",
"2Q    c #423242",
"2R    c #413142",
"2S    c #413041",
"2T    c #403040",
"2U    c #3F2F3F",
"2V    c #565656",
"2W    c #555555",
"2X    c #545454",
"2Y    c #535353",
"2Z    c #525252",
"2&    c #525151",
"3     c #515151",
"30    c #515051",
"31    c #505050",
"32    c #504F50",
"33    c #4F4F4F",
"34    c #4E4E4E",
"35    c #4D4D4D",
"36    c #4D4C4C",
"37    c #4A4B4B",
"38    c #484848",
"39    c #464747",
"3a    c #464646",
"3b    c #454545",
"3c    c #606060",
"3d    c #5F5F5F",
"3e    c #5E5F5F",
"3f    c #5E5E5E",
"3g    c #5D5E5D",
"3h    c #5D5D5D",
"3i    c #5D5C5D",
"3j    c #5C5C5C",
"3k    c #5B5B5B",
"3l    c #5B5A5B",
"3m    c #5A5A5A",
"3n    c #595959",
"3o    c #585958",
"3p    c #585858",
"3q    c #585757",
"3r    c #575757",
"3s    c #575656",
"3t    c #535253",
"3u    c #525251",
"3v    c #6A6A6A",
"3w    c #696969",
"3x    c #696868",
"3y    c #686868",
"3z    c #686867",
"3A    c #676767",
"3B    c #676766",
"3C    c #666666",
"3D    c #656565",
"3E    c #646464",
"3F    c #646463",
"3G    c #636363",
"3H    c #626363",
"3I    c #626262",
"3J    c #616162",
"3K    c #616161",
"3L    c #5E5D5D",
"3M    c #5A5B5B",
"3N    c #5A5959",
"3O    c #595858",
"3P    c #747474",
"3Q    c #737373",
"3R    c #727272",
"3S    c #717271",
"3T    c #717171",
"3U    c #707170",
"3V    c #707070",
"3W    c #6F6F6F",
"3X    c #6F6F6E",
"3Y    c #6E6E6E",
"3Z    c #6D6D6D",
"3&    c #6D6C6D",
"4     c #6C6C6C",
"40    c #6B6B6C",
"41    c #6B6B6B",
"42    c #696A6A",
"43    c #676768",
"44    c #666667",
"45    c #666566",
"46    c #7E7E7E",
"47    c #7D7D7D",
"48    c #7C7C7C",
"49    c #7B7C7B",
"4a    c #7B7A7B",
"4b    c #7A7A7A",
"4c    c #797A79",
"4d    c #797979",
"4e    c #787978",
"4f    c #787878",
"4g    c #777777",
"4h    c #767677",
"4i    c #767676",
"4j    c #757675",
"4k    c #757575",
"4l    c #737474",
"4m    c #727373",
"4n    c #727171",
"4o    c #706F6F",
"4p    c #6E6D6E",
"4q    c #6C6C6D",
"4r    c #888988",
"4s    c #888888",
"4t    c #878787",
"4u    c #878687",
"4v    c #868686",
"4w    c #858686",
"4x    c #858585",
"4y    c #848484",
"4z    c #838383",
"4A    c #828283",
"4B    c #828282",
"4C    c #818181",
"4D    c #808080",
"4E    c #7F7F7F",
"4F    c #7F7E7F",
"4G    c #7D7D7E",
"4H    c #7C7C7D",
"4I    c #7B7B7B",
"4J    c #7A7979",
"4K    c #787879",
"4L    c #777776",
"4M    c #929292",
"4N    c #919191",
"4O    c #909191",
"4P    c #909090",
"4Q    c #8F8F8F",
"4R    c #8E8E8E",
"4S    c #8D8D8D",
"4T    c #8D8C8D",
"4U    c #8C8C8C",
"4V    c #8B8B8B",
"4W    c #8A8A8A",
"4X    c #898989",
"4Y    c #878888",
"4Z    c #868786",
"4&    c #838484",
"5     c #818180",
"50    c #9B9A9B",
"51    c #999899",
"52    c #979797",
"53    c #969696",
"54    c #959595",
"55    c #959696",
"56    c #979796",
"57    c #949494",
"58    c #939393",
"59    c #929293",
"5a    c #929393",
"5b    c #929392",
"5c    c #929291",
"5d    c #8F908F",
"5e    c #8E8E8D",
"5f    c #8D8D8C",
"5g    c #A0A0A0",
"5h    c #9B9B9B",
"5i    c #939394",
"5j    c #959495",
"5k    c #989898",
"5l    c #9B9C9C",
"5m    c #9F9E9F",
"5n    c #A0A09F",
"5o    c #9E9E9E",
"5p    c #9C9B9C",
"5q    c #969797",
"5r    c #999999",
"5s    c #9C9C9C",
"5t    c #9A9B9B",
"5u    c #9A9A9A",
"5v    c #999A99",
"5w    c #A2A2A2",
"5x    c #A3A3A3",
"5y    c #A6A6A6",
"5z    c #A4A4A4",
"5A    c #8F8E8E",
"5B    c #A1A1A1",
"5C    c #A5A5A5",
"5D    c #A6A5A6",
"5E    c #9FA09F",
"5F    c #9F9F9F",
"5G    c #9D9D9D",
"5H    c #C4C3C4",
"5I    c #E3E3E3",
"5J    c #E5E5E5",
"5K    c #E4E4E5",
"5L    c #E2E2E2",
"5M    c #BFBFBF",
"5N    c #AAAAAA",
"5O    c #A8A8A8",
"5P    c #A3A2A2",
"5Q    c #E4E4E4",
"5R    c #ABABAB",
"5S    c #949493",
"5T    c #ADADAD",
"5U    c #AFAFAF",
"5V    c #AFB0AF",
"5W    c #AEAEAE",
"5X    c #ACACAC",
"5Y    c #ABAAAA",
"5Z    c #A9A9A9",
"5&    c #A8A9A9",
"6     c #9C9B9B",
"60    c #DCDCDC",
"61    c #B1B2B2",
"62    c #F5F5F5",
"63    c #C7C7C7",
"64    c #9E9D9D",
"65    c #ABABAC",
"66    c #CBCBCB",
"67    c #FAFAFA",
"68    c #DADADA",
"69    c #A7A6A6",
"6a    c #B2B3B2",
"6b    c #B8B8B8",
"6c    c #B9B9B9",
"6d    c #B7B7B7",
"6e    c #B6B6B6",
"6f    c #B6B5B6",
"6g    c #B5B5B5",
"6h    c #B4B5B5",
"6i    c #B4B4B4",
"6j    c #B3B3B3",
"6k    c #B3B2B2",
"6l    c #9F9F9E",
"6m    c #DBDBDB",
"6n    c #D0CFD0",
"6o    c #717071",
"6p    c #C0C0C0",
"6q    c #EDEDED",
"6r    c #ACABAC",
"6s    c #A7A7A7",
"6t    c #EFEFEF",
"6u    c #F0F0F0",
"6v    c #C2C2C2",
"6w    c #C1C1C1",
"6x    c #C0C1C0",
"6y    c #BFBEBF",
"6z    c #BEBEBE",
"6A    c #BDBDBD",
"6B    c #BDBCBC",
"6C    c #BCBCBC",
"6D    c #DCDCDB",
"6E    c #D7D7D7",
"6F    c #949393",
"6G    c #E1E1E1",
"6H    c #CDCDCD",
"6I    c #BEBDBE",
"6J    c #EBEBEB",
"6K    c #D8D8D8",
"6L    c #D1D1D1",
"6M    c #B8B7B7",
"6N    c #C5C5C5",
"6O    c #CACACA",
"6P    c #C9C9CA",
"6Q    c #C9C9C9",
"6R    c #C8C8C9",
"6S    c #C8C8C8",
"6T    c #C7C8C7",
"6U    c #C6C6C7",
"6V    c #C6C6C6",
"6W    c #C5C6C5",
"6X    c #F9F9F9",
"6Y    c #F6F6F6",
"6Z    c #A1A0A0",
"6&    c #A8A8A9",
"7     c #E7E7E7",
"70    c #A0A1A0",
"71    c #F4F4F4",
"72    c #D3D3D3",
"73    c #D2D2D2",
"74    c #D2D2D1",
"75    c #D0D1D0",
"76    c #D0D0D0",
"77    c #CFD0CF",
"78    c #CFCFCF",
"79    c #CECECE",
"7a    c #CECDCD",
"7b    c #B1B1B1",
"7c    c #DFDFE0",
"7d    c #ECECEC",
"7e    c #ABACAB",
"7f    c #FEFDFE",
"7g    c #D4D4D4",
"7h    c #C3C3C3",
"7i    c #CCCCCC",
"7j    c #FFFFFF",
"7k    c #B0AFB0",
"7l    c #D6D6D6",
"7m    c #DADADB",
"7n    c #D9D9D9",
"7o    c #D6D6D7",
"7p    c #A4A4A3",
"7q    c #FEFEFE",
"7r    c #D5D5D5",
"7s    c #D1D0D0",
"7t    c #E6E6E6",
"7u    c #E9E9E9",
"7v    c #DADAD9",
"7w    c #E0E0E0",
"7x    c #E0DFE0",
"7y    c #DFDFDF",
"7z    c #DFDEDE",
"7A    c #DEDEDE",
"7B    c #DDDDDD",
"7C    c #FCFCFC",
"7D    c #A3A4A4",
"7E    c #BAB9BA",
"7F    c #C7C7C8",
"7G    c #CACBCA",
"7H    c #DDDEDE",
"7I    c #E8E9E9",
"7J    c #E8E8E8",
"7K    c #E8E7E7",
"7L    c #E7E6E7",
"7M    c #EAEAEA",
"7N    c #B2B2B1",
"7O    c #F2F3F3",
"7P    c #EEEFEF",
"7Q    c #EFEEEE",
"7R    c #EEEEEE",
"7S    c #EDEDEC",
"7T    c #ECEDED",
"7U    c #E1E1E0",
"7V    c #DAD9D9",
"7W    c #CFD0D0",
"7X    c #E2E3E3",
"7Y    c #F3F3F3",
"7Z    c #F5F4F4",
"7&    c #F4F3F3",
"8     c #F3F2F2",
"                                                                ",
" 0 0 1 2 2 2 2 2 2 3 4                                          ",
" 5 6 7 8 9 a b c c d e e d f f f g h i i 0 2 2 2 2 2 2 j        ",
" k l m n o p q q q r r s s s t t u v w x x x y z z A B C d d d f",
" D E F G H H H H H H I J K L M N O P Q R S T U V W X Y s s s s t",
" Z &0 0000010203040506070808080809080a0b0c070d0d080e0f0g0h0i0j0k",
"0l0m0n0o0p0q0r0s0t0u0v E0w0x0y0z0A0B0C0D0E0F0G0H0I0J0K0L0M0N0O08",
"0P0Q0R0S0T0U0V0W0X0Y0Z0&1 101112131415161718191a1b1c1d1e1f0L1g08",
"1h1i08080808081j1k1l1m1n1o1p1o1q1r1s1t1u1v1w081x1y1z1A1B1C1D1E1F",
"1G1H1I1J1K1L1M1N1O1P1Q1R1S1T1T1U1V0a1W1X1Y1Z0808080808080l1&2 20",
"212223242526272829292a2b2c2d2e2f2g2h2i2j2k2l2m2n2o2o2p2q2r2s2t2t",
"2u2v2w2x2y2z2A2B2C2D2D2E2F2G2H2I2J2K2L2L2M2N25262O2P2Q2R2S2T2T2U",
"2V2W2W2X2X2Y2Y2Z2&3 3031323334343535362v2w372y2z2A38382C2D393a3b",
"3c3d3e3f3g3h3i3j3k3k3l3m3n3o3p3q3r3s2V2W2W2X2X2Y3t2Z3u3 31313333",
"3v3w3x3y3z3A3B3C3D3D3E3F3G3H3I3J3K3c3c3d3f3f3L3h3j3j3k3M3m3N3n3O",
"3P3Q3Q3R3S3T3U3V3W3X3Y3Y3Z3&4 40413v423w3w3y433A44453D3D3E3G3G3I",
"4647474849494a4b4c4d4e4f4g4h4i4j4k3P4l3Q4m3R4n3T3V3V4o3W3Y4p3Z4q",
"4r4s4t4u4v4w4x4y4y4z4A4B4B4C4D4D4E4F464G4H48494I4I4b4J4d4K4f4g4L",
"4M4N4N4O4P4Q4Q4R4R4S4T4U4U4V4W4W4X4X4s4Y4t4Z4v4x4x4y4&4z4z4B4C5 ",
"5051525354555352525653545758595a59595b5c4N4O4P5d4Q4R5e4S5f4U4U4V",
"5g5h535i585j5k5l5m5n5o5p5k535q5r5h5s5s5s5h5t5u5v5r5k5k5252535554",
"5w534S4X4X4V4Q5h5x5y5z5o545A4M5h5B5C5y5D5C5C5z5x5x5w5w5B5B5g5E5F",
"5G5H5I5J5K5L5M535x5N5O5r5P5Q5R5S5C5T5U5V5U5W5W5T5T5X5X5R5Y5N5Z5&",
"6 605I5B5z61626364655Z4M6667684P696a6b6c6b6b6d6d6e6f6g6h6i6i6j6k",
"6l6m6n3T4g6o6p6q6l6r6s5h6t5X6u5z5x6e5M6v6v6w6x6p5M5M6y6z6A6A6B6C",
"5x6D6E4s4U6F6G6H5F5R5g6I6J3Q6K6L5G6M6N6O6O6O6P6Q6R6S6T636U6V6W6N",
"5N6K6X6q6q6Y6Y5B6Z6&5G7 6b3C70715C6e6S6L727373746L7576777878797a",
"7b7c60526 5o737d5z5g7e7f7g7h7i7j6w7k6Q7l687m68687n7n6K6K6E6E7o7l",
"6b5L7n4N52547p7q6e5r766u767r7s7t7u7b6O7v6G5L5L6G6G7w7w7x7y7y7z7A",
"6w7t7B5u5n5g6S7C7b5O627i5x5Z7D7E7j7F7G7H7 7u7u7I7J7K7 7L7t7t7t5J",
"797J6X7u7M7d6X7g7N797C6V6S6H6Q6p7O7M6L5I6q6u6t6t7P7Q7R6q6q7S7T7d",
"7U7V6K6K6E6K766O7W687A7n5I7 5Q686m7X6G6J7Y6262627Z7171717&7Y8 8 "};
