/* XPM */
static char *render_p_HairTK_shadow[] = {
/* columns rows colors chars-per-pixel */
"32 32 133 2",
"   c #2A231E",
".  c #2D2520",
"X  c #352D27",
"o  c #352E2B",
"O  c #392F28",
"+  c #3A312B",
"@  c #3D3630",
"#  c #411B01",
"$  c #482005",
"%  c #4B240A",
"&  c #442611",
"*  c #4D2D18",
"=  c #50270A",
"-  c #51290D",
";  c #532C12",
":  c #553016",
">  c #583114",
",  c #59351C",
"<  c #5E391E",
"1  c #453123",
"2  c #43382F",
"3  c #433B35",
"4  c #453E38",
"5  c #483F39",
"6  c #513927",
"7  c #563D2B",
"8  c #5D3A21",
"9  c #503F32",
"0  c #613C1F",
"q  c #613F26",
"w  c #45403D",
"e  c #4A423C",
"r  c #5A422C",
"t  c #554438",
"y  c #5C4331",
"u  c #5D4A3C",
"i  c #65432A",
"p  c #614C3D",
"a  c #6D4C34",
"s  c #6C4E39",
"d  c #6F503A",
"f  c #72543D",
"g  c #4C4641",
"h  c #4F4D4C",
"j  c #504741",
"k  c #534B44",
"l  c #564E48",
"z  c #5C4D42",
"x  c #584E48",
"c  c #57514B",
"v  c #5B524C",
"b  c #575553",
"n  c #5D5650",
"m  c #5D5853",
"M  c #5E5C5B",
"N  c #60574F",
"B  c #605750",
"V  c #625A54",
"C  c #635D59",
"Z  c #755944",
"A  c #765C4A",
"S  c #785B44",
"D  c #785D49",
"F  c #67615C",
"G  c #69635E",
"H  c #7C624C",
"J  c #7D6452",
"K  c #656362",
"L  c #6B6561",
"P  c #6F6A65",
"I  c #6C6B6A",
"U  c #716C69",
"Y  c #75706D",
"T  c #747272",
"R  c #787471",
"E  c #7D7976",
"W  c #7D7B79",
"Q  c #826853",
"!  c #846C5A",
"~  c #87705E",
"^  c #89725E",
"/  c #867061",
"(  c #8B7564",
")  c #8E7864",
"_  c #8E7A6A",
"`  c #817D7B",
"'  c #917D6C",
"]  c #81807F",
"[  c #958274",
"{  c #968679",
"}  c #97887C",
"|  c #988676",
" . c #998778",
".. c #9A8A7D",
"X. c #858381",
"o. c #888583",
"O. c #8A8886",
"+. c #8E8C8A",
"@. c #918D8B",
"#. c #9E8E81",
"$. c #94908E",
"%. c #9E9084",
"&. c #939190",
"*. c #989696",
"=. c #9A9896",
"-. c #9D9B9A",
";. c #A09184",
":. c #A2958B",
">. c #A6998E",
",. c #A69B92",
"<. c #A09F9D",
"1. c #A89D95",
"2. c #AA9F99",
"3. c #A7A09A",
"4. c #AAA294",
"5. c #ABA29B",
"6. c #B0A79F",
"7. c #A3A2A1",
"8. c #ACA6A1",
"9. c #AEA8A3",
"0. c #ACAAA9",
"q. c #B1A9A3",
"w. c #B2AEAB",
"e. c #B4B1AD",
"r. c #B8B3AD",
"t. c #B6B3B1",
"y. c #B8B6B3",
"u. c #BAB8B5",
"i. c #BDBCBB",
"p. c #BFC0BF",
"a. c #C0BEBE",
"s. c #C0C0BF",
"d. c #C0C0C0",
/* pixels */
"&.j ` +.v t.C v -.l E w.l W s.s.Y j -.s.d.d.d.d.d.d.d.d.d.d.d.d.",
"&.k R +.v 0.F v =.l P e.l Y d.i.C e e.s.d.d.d.d.d.d.d.d.d.d.d.d.",
"+.k Y +.v 7.G k $.v F 0.c P s.9.v k i.d.d.d.d.d.d.d.s.d.d.d.d.d.",
"+.k P O.v -.G k +.l m 7.c G d.$.v m d.d.d.d.d.d.d.d.d.d.d.d.d.d.",
"O.k G ] v $.G k o.v l -.x V d.E c L d.d.d.d.d.d.d.d.d.d.d.d.d.d.",
"X.z G ] v O.G x ] v k &.v n d.P v T d.d.d.d.d.d.d.d.d.d.d.d.d.d.",
"] k C E v ` G v R v g o.v v i.m j X.d.d.d.d.d.d.d.d.d.d.d.d.d.d.",
"] k m E v R G x U v e W l l =.k g $.d.d.d.d.d.d.d.d.d.d.d.d.d.d.",
"W k m Y v U G k L n e U v k o.v e &.d.d.d.d.d.d.d.d.d.d.d.d.d.d.",
"W k v U v L G v C n 4 m v k Y v e *.d.d.d.d.d.d.d.d.d.d.d.d.d.d.",
"E l v L v C C v c n e 4 x k M v 5 -.d.d.d.d.d.d.d.d.d.d.d.d.d.d.",
"T k l C v c C v k n e o v j e B 3 7.d.d.d.d.d.d.d.d.d.d.d.d.d.d.",
"T k l m v l m v g v e   v e 4 B 3 -.d.d.d.d.d.d.d.d.d.d.d.d.d.d.",
"I k k c v g v v 3 v e . v g 3 B 3 +.a.d.d.d.d.d.d.d.d.d.d.d.d.d.",
"I k k h n e l v @ v e . x j 2 v 4 7 ) 1.t.u.i.d.d.i.d.d.d.d.a.i.",
"I k k e n 3 k v o l g . x j 2 u 1 # % 8 S ~ ..5.e.u.i.u.u.u.u.u.",
"K x k 3 v 3 e N O l t . x k v Q a 0 > - - - , a D ^ [ ..>.>.,.5.",
"K x j + N 3 4 v o l k X N z r H )  .| ) ! Q S a a d S Q ' [ ..:.",
"M k j + N 3 4 N o v k 5 Q i > = = q Q ..q.r.y.8.2.6.2.1.1.1.2.q.",
"m x j + N 3 4 m o 7 6 & Z ' ' H i - % , f [ w.d.d.d.a.a.i.u.i.a.",
"h k k + N 3 e B + f a 0 = ; f / ' ' ! f 8 , s ( 4.y.d.d.d.d.d.d.",
"e k k + N 4 7 y & , f ^ ~ D i : 8 H { :.#.) J A J ( #.5.y.i.d.d.",
"e k l + v e 7 Q H i ; < f ( ..| ! Z Z ! ..1.5.1.%.} [ | #.1.w.i.",
"@ k l 3 p * $ , H | ' D 8 , D #.q.q.1.} [ { ;.1.8.0.2.:.;.#.;.1.",
"@ c v t ..[ S , ; i J } #._ A A _ %.q.t.w.,.;.;.:.1.8.9.8.5.2.,.",
"C v 7 % 8 ) ,.>.) a ; 8 ! 1.9.2.} _ | :.8.e.w.8.1.,.1.q.w.y.u.t.",
"i.u.;.H i : 8 ! 1.q...! s A [ 5.t.9.,.#.#.,.q.w.t.t.q.q.w.y.p.p.",
"a.s.a.u.,.~ i < D ;.e.t.5.../ _ :.8.w.9.4.>.,.5.w.y.i.u.u.i.i.p.",
"d.d.d.d.d.i.5.{ ! J _ :.t.u.w.,.} #.1.8.w.w.8.5.q.r.i.d.d.d.d.d.",
"d.d.d.d.d.d.d.d.u.5.} _ { ,.w.u.e.5.1.1.5.w.u.u.r.r.i.d.d.d.d.d.",
"d.d.s.d.d.d.d.d.d.d.a.w.:.{ #.5.u.i.u.e.8.2.q.i.d.a.a.a.a.d.d.d.",
"d.d.s.d.d.d.d.d.d.d.a.d.a.w.8.2.q.p.d.i.i.e.q.r.d.d.d.d.d.d.d.d."
};
