/* XPM */
static char *magick[] = {
/* columns rows colors chars-per-pixel */
"32 32 254 2",
"   c #5a3e3a",
".  c #6a0000",
"X  c #6c0000",
"o  c #720000",
"O  c #750000",
"+  c #740707",
"@  c #7b0000",
"#  c #7d0000",
"$  c #7e1010",
"%  c #7d1b1b",
"&  c #652a11",
"*  c #762d2d",
"=  c #782b2b",
"-  c #7d440e",
";  c #6e4747",
":  c #6b5959",
">  c #704343",
",  c #666257",
"<  c #63625d",
"1  c #7c6f45",
"2  c #7f784b",
"3  c #7e7753",
"4  c #7e7c54",
"5  c #676764",
"6  c #6c6464",
"7  c Gray43",
"8  c #706f61",
"9  c #777676",
"0  c Gray48",
"q  c Gray",
"w  c #3d749f",
"e  c #377d9c",
"r  c #7f3ba2",
"t  c #5b5e9f",
"y  c #446f9e",
"u  c #4e659d",
"i  c #437d96",
"p  c #477f9b",
"a  c #576d98",
"s  c #5263a0",
"d  c #7b4f97",
"f  c #775f94",
"g  c #6654a0",
"h  c #29977b",
"j  c #2e9877",
"k  c #359471",
"l  c #389778",
"z  c #4c9667",
"x  c #569766",
"c  c #529967",
"v  c #729d57",
"b  c #7d9956",
"n  c #0c978e",
"m  c #059f9d",
"M  c #0d9e9e",
"N  c #1d9782",
"B  c #1b958f",
"V  c #129e9e",
"C  c #179b9b",
"Z  c #179e9e",
"A  c #199b9b",
"S  c #1a9e9e",
"D  c #1d9e9e",
"F  c #0999a2",
"G  c #1493a1",
"H  c #02a2a2",
"J  c #02a6a6",
"K  c #05a2a2",
"L  c #04a4a6",
"P  c #02a9a9",
"I  c #02aeae",
"U  c #05adad",
"Y  c #06aaaa",
"T  c #0aa2a2",
"R  c #0ba6a6",
"E  c #0ea7a7",
"W  c #0ea1a1",
"Q  c #0aaaaa",
"!  c #09acac",
"~  c #0da9a9",
"^  c #02b1b1",
"/  c #12a1a1",
"(  c #12a6a6",
")  c #15a1a1",
"_  c #17a5a5",
"`  c #12a9a9",
"'  c #1aa1a1",
"]  c #1aa4a4",
"[  c #1da2a2",
"{  c #1da4a4",
"}  c #208f8e",
"|  c #26899b",
" . c #29869e",
".. c #229a9a",
"X. c #219d9d",
"o. c #269999",
"O. c #2e9797",
"+. c #2b9a9a",
"@. c #329595",
"#. c #359797",
"$. c #319999",
"%. c #359999",
"&. c #359c9c",
"*. c #399797",
"=. c #389898",
"-. c #3f9b9b",
";. c #2090a0",
":. c #22a2a2",
">. c #4a8b8b",
",. c #449797",
"<. c #810000",
"1. c #850000",
"2. c #860f00",
"3. c #890000",
"4. c #8d0000",
"5. c #920000",
"6. c #950000",
"7. c #980000",
"8. c #9d0000",
"9. c #862b05",
"0. c #85370b",
"q. c #aa0000",
"w. c #af0000",
"e. c #b10000",
"r. c #a53c0d",
"t. c #845016",
"y. c #875e1c",
"u. c #886a1d",
"i. c #9d691d",
"p. c #857b37",
"a. c #8d7e36",
"s. c #8a7e52",
"d. c #817860",
"f. c #882fa2",
"g. c #9f26a2",
"h. c #aa069d",
"j. c #aa0d9c",
"k. c #ac109c",
"l. c #a9149a",
"z. c #b1019e",
"x. c #b1079b",
"c. c #b2059e",
"v. c #b10e96",
"b. c #b2089d",
"n. c #b30e98",
"m. c #b51797",
"M. c #b51399",
"N. c #b81696",
"B. c #b101a1",
"V. c #b101a6",
"C. c #b304a5",
"Z. c #b407a3",
"A. c #b205a3",
"S. c #b201aa",
"D. c #b101ad",
"F. c #b304a8",
"G. c #b308a3",
"H. c #b100b1",
"J. c #ab358c",
"K. c #a53097",
"L. c #85479a",
"P. c #824f93",
"I. c #944281",
"U. c #988023",
"Y. c #9d8a31",
"T. c #9f883d",
"R. c #959139",
"E. c #ab8f26",
"W. c #a98f29",
"Q. c #aa9126",
"!. c #af9527",
"~. c #af9227",
"^. c #aa9128",
"/. c #ac9328",
"(. c #ae9429",
"). c #b1972a",
"_. c #b29929",
"`. c #b49b2a",
"'. c #b69b2d",
"]. c #b59d2a",
"[. c #b69c2e",
"{. c #b3992e",
"}. c #b99d2d",
"|. c #b79f31",
" X c #b99e32",
".X c #bca22c",
"XX c #bca42b",
"oX c #bfa42c",
"OX c #b4aa3f",
"+X c #bba033",
"@X c #978049",
"#X c #9d8b49",
"$X c #959c4b",
"%X c #96a24c",
"&X c #99a44b",
"*X c #b29f49",
"=X c #a1a64b",
"-X c #a3a84b",
";X c #b9a444",
":X c #c2a62e",
">X c #c3a52e",
",X c #c5a92f",
"<X c #cbac2f",
"1X c #c9ab2f",
"2X c #c2a632",
"3X c #c2a634",
"4X c #c4a732",
"5X c #c3a73b",
"6X c #c5a932",
"7X c #c6aa36",
"8X c #c9a932",
"9X c #c8aa35",
"0X c #caad32",
"qX c #cdad31",
"wX c #ceaf36",
"eX c #caad36",
"rX c #c9ad38",
"tX c #cfb032",
"yX c #cdb136",
"uX c #ceb238",
"iX c #d0af33",
"pX c #d0b132",
"aX c #d1b136",
"sX c #d4b435",
"dX c #d1b239",
"fX c #d2b53a",
"gX c #d4b73b",
"hX c #d3b83b",
"jX c #d7bc3c",
"kX c #d6b83b",
"lX c #d8b837",
"zX c #d9ba38",
"xX c #dbbc3d",
"cX c #debd3b",
"vX c #dbba3b",
"bX c #e0bf3b",
"nX c #d0ba4a",
"mX c #dec03e",
"MX c #e1c13f",
"NX c #e2c340",
"BX c #e6c641",
"VX c #e3c541",
"CX c #e8c742",
"ZX c #eac941",
"AX c #eecd44",
"SX c #f0ce44",
"DX c #f2d145",
"FX c #f5d347",
"GX c #f7d549",
"HX c #f5d348",
"JX c #f9d648",
"KX c #fedb4b",
"LX c #fedc4b",
"PX c #fbd849",
/* pixels */
"3.3.o o O 4.8.8.# . O O 3.4.3.1.3.<.1.3.3.O @ X O 7.e.4.. X O . ",
"1.3.3.3.<.<.o # q.6.3.<.o <.o 1.5.8.8.1.O # @ 4.3.<.# <.3.3.5.3.",
"6 * <.3.3.3.3.3.# <.3.w.6.3.3.@ # O O 5.q.e.q.3.O + % * > : 7 q ",
"q q 9 ; $ 4.3.3.3.4.3.<.# 4.q.e.e.5.1.9.0.&   5 0 q q q q q q q ",
"q q q q q 6 = 3.e.e.8.4.2.r.- t.u.).3X|.Q.}.>XY.#X4 5 q q q q q ",
"7 < 3 s.@Xa.5X0Xi.y.U.aX7X+X`.:XqX}.`.W.0XlXQ.).E.6XfX;X1 , 7 q ",
"xX'._.tXwXaX'.'.lXpX>X).Q.2XBXcXQ.`.XXdX9X6X<X0XqX'.{.^.0XKX Xp.",
"gXDXvX^._.iXwXfXyXpXqXpXqX|.).'.JXSX.XQ.).6XkXCXwX:XoXpX7X X:XpX",
"~.9XBXKXcXW._.aXuXgXxXaXpXpXqX0X'.(.cXKXZX_.!.Q.8XNXSXdX8X.XqXaX",
"qX`._.fXNXKXJX2X`.pXwXdXhXdXpXGXpXtX'.'._.KXKXKX2X(._.aXvXDXdXpX",
"KXKXaX/.oXaXuXVXFXdXaXlXqXaX9X'.1XDXKXKXtX^.!.:XNXKXGXfXqX,XqXaX",
"wXfXZXKXBXpXzXpXqXaXuX6XsXKXKXSXqX(.!.2XDXKXKXNXwX.XqXaXfXZXyXtX",
"*XZXqXpXwXdX3XsXKXKXKXbX:X_.`.jXPXKXKXmXqXqXqXaXfXDXdXtXcXKXHXrX",
"0 1 MXKXKXKXKXtX(.:XuXBXKXKXAXaXlXzXqXaXdXbXwXsXKXKXKXcXT.2 8 0 ",
"q q d.OXqXaXfXFXKXBXqXDXKXzXqXaX7X4XzXKXKXKXKXAXY.v j } q q q q ",
"#.{ ' m %XKXKXKXKXcXqX{.).ZXKXKXKXKXZXyX0X=Xx n M *.#._ ^ ` >.q ",
"J X.D -.T c 0X0X0XBXKXLXSX0XZXLXKXzX$Xk H R *.,.~ ^ ^ :.+.X.:.! ",
"D ^ ^ P O.+.l nXKXKXKXKXKXSXR.b h H V %.@.~ ^ I ) +.A ' ~ { C I ",
"+.+.' ` ^ Q V B -XKXfX&Xz n J X.#.+.I ^ I ] o.S ' Q ] S I J S &.",
"^ ! W J A ' [ X.J N H T &.+.( ^ ^ ~ S Z Z { ` [ K ^ P S &.&.I ^ ",
"Z S [ +.^ ^ ^ I O.o.' Q ^ ! S P Z ' ' ] M ^ ^ I o.=.D ^ ^ ^ ] S ",
"I ^ ^ I ..S ' ] I Q M ^ P S S &.K ^ ^ ^ Y *.o._ ^ ^ E ' J W S _ ",
"P / S { ( ' P ^ ^ J ..=./ ^ ^ ^ Y S V S ] ^ R S P ^ J S +...I ^ ",
"L.I ^ ^ ^ ^ ..D ' ( ^ ^ ) J ^ W Z { ) K ^ ^ ^ ^ @.&.E ^ ^ ^ _ Z ",
"n.g I T S [ Q / J ^ ^ ^ K +.O.I ^ ^ ^ Q Z T S ] ^ I D J ^ ^ G g ",
"H.c.f Q ^ ^ ^ ^ L ) S ] Q ^ I S I ^ P S ' :.H ^ ^ ^ ^ E i r N.m.",
"B.Z.z.s ^ ^ J S ' ] K ^ ^ ^ ^ ^ @.X.E ^ ^ ^ Q S I H u K.v.C.H.D.",
"H.H.D.N.a [ E ^ ^ ^ Y W ^ K S ] I ( K ^ ^ ^ ^ ;.P.k.B.F.S.c.S.H.",
"z.c.C.D.B.w ^ ^ ^ ^ P o.O.Q ^ ^ ^ ^ Y Z P e f.b.B.G.V.H.H.H.x.M.",
"V.H.H.H.S.m.e ^ M ' ( ^ I ' ^ ^ ^ ^ F t l.N.c.H.H.H.V.z.B.B.S.D.",
"I.H.B.c.Z.S.h.p I ^ ^ ^ ^ ^ S I  .d x.A.V.H.V.B.H.H.B.b.b.S.H.H.",
"q J.D.H.H.H.S.j.| ^ ^ ^ ^ P y g.z.A.x.D.H.H.H.S.v.B.D.H.H.C.z.H."
};
