/* XPM */
static char *render_BA_fractal4d2_scl_xpm[]={
"32 32 212 2",
"      c #454545",
" 0    c #323232",
" 1    c #1A1A1A",
" 2    c #0D0D0D",
" 3    c #131313",
" 4    c #343434",
" 5    c #5A5A5A",
" 6    c #787878",
" 7    c #838383",
" 8    c #7C7C7C",
" 9    c #7B7B7B",
" a    c #7E7E7E",
" b    c #666666",
" c    c #585858",
" d    c #505050",
" e    c #3C3C3C",
" f    c #3F3F3F",
" g    c #4A4A4A",
" h    c #565656",
" i    c #494949",
" j    c #393939",
" k    c #363636",
" l    c #2B2B2B",
" m    c #232323",
" n    c #1F1F1F",
" o    c #373737",
" p    c #414141",
" q    c #444444",
" r    c #212121",
" s    c #3A3A3A",
" t    c #404040",
" u    c #353535",
" v    c #1E1E1E",
" w    c #1C1C1C",
" x    c #4B4B4B",
" y    c #616161",
" z    c #707070",
" A    c #7F7F7F",
" B    c #818181",
" C    c #757575",
" D    c #545454",
" E    c #464646",
" F    c #474747",
" G    c #5B5B5B",
" H    c #606060",
" I    c #535353",
" J    c #171717",
" K    c #2D2D2D",
" L    c #424242",
" M    c #484848",
" N    c #595959",
" O    c #4D4D4D",
" P    c #313131",
" Q    c #5E5E5E",
" R    c #797979",
" S    c #696969",
" T    c #6A6A6A",
" U    c #5D5D5D",
" V    c #646464",
" W    c #6F6F6F",
" X    c #6D6D6D",
" Y    c #4F4F4F",
" Z    c #2A2A2A",
" &    c #727272",
"0     c #656565",
"00    c #262626",
"01    c #1B1B1B",
"02    c #3D3D3D",
"03    c #555555",
"04    c #6B6B6B",
"05    c #6C6C6C",
"06    c #525252",
"07    c #2C2C2C",
"08    c #515151",
"09    c #626262",
"0a    c #141414",
"0b    c #0F0F0F",
"0c    c #4C4C4C",
"0d    c #3E3E3E",
"0e    c #6E6E6E",
"0f    c #767676",
"0g    c #222222",
"0h    c #282828",
"0i    c #292929",
"0j    c #050505",
"0k    c #242424",
"0l    c #202020",
"0m    c #303030",
"0n    c #808080",
"0o    c #858585",
"0p    c #828282",
"0q    c #717171",
"0r    c #111111",
"0s    c #181818",
"0t    c #161616",
"0u    c #151515",
"0v    c #0E0E0E",
"0w    c #4E4E4E",
"0x    c #121212",
"0y    c #868686",
"0z    c #939393",
"0A    c #848484",
"0B    c #7A7A7A",
"0C    c #0B0B0B",
"0D    c #000000",
"0E    c #040404",
"0F    c #030303",
"0G    c #5C5C5C",
"0H    c #3B3B3B",
"0I    c #777777",
"0J    c #878787",
"0K    c #929292",
"0L    c #101010",
"0M    c #080808",
"0N    c #020202",
"0O    c #070707",
"0P    c #191919",
"0Q    c #737373",
"0R    c #969696",
"0S    c #979797",
"0T    c #949494",
"0U    c #434343",
"0V    c #1D1D1D",
"0W    c #2F2F2F",
"0X    c #090909",
"0Y    c #383838",
"0Z    c #888888",
"0&    c #9C9C9C",
"1     c #636363",
"10    c #272727",
"11    c #575757",
"12    c #333333",
"13    c #2E2E2E",
"14    c #676767",
"15    c #252525",
"16    c #5F5F5F",
"17    c #0A0A0A",
"18    c #747474",
"19    c #898989",
"1a    c #060606",
"1b    c #909090",
"1c    c #686868",
"1d    c #8A8A8A",
"1e    c #A9A9A9",
"1f    c #A8A8A8",
"1g    c #8B8B8B",
"1h    c #7D7D7D",
"1i    c #BFBFBF",
"1j    c #BCBCBC",
"1k    c #C0C0C0",
"1l    c #C3C3C3",
"1m    c #9E9E9E",
"1n    c #8C8C8C",
"1o    c #A6A6A6",
"1p    c #ADADAD",
"1q    c #9D9D9D",
"1r    c #8D8D8D",
"1s    c #8E8E8E",
"1t    c #919191",
"1u    c #8F8F8F",
"1v    c #959595",
"1w    c #ABABAB",
"1x    c #AFAFAF",
"1y    c #989898",
"1z    c #B6B6B6",
"1A    c #B7B7B7",
"1B    c #A0A0A0",
"1C    c #9A9A9A",
"1D    c #AEAEAE",
"1E    c #AAAAAA",
"1F    c #D0D0D0",
"1G    c #D4D4D4",
"1H    c #DFDFDF",
"1I    c #DDDDDD",
"1J    c #D1D1D1",
"1K    c #CECECE",
"1L    c #E1E1E1",
"1M    c #F3F3F3",
"1N    c #B0B0B0",
"1O    c #B3B3B3",
"1P    c #FFFFFF",
"1Q    c #D6D6D6",
"1R    c #DADADA",
"1S    c #B9B9B9",
"1T    c #E3E3E3",
"1U    c #E9E9E9",
"1V    c #EFEFEF",
"1W    c #CFCFCF",
"1X    c #E0E0E0",
"1Y    c #E5E5E5",
"1Z    c #CBCBCB",
"1&    c #CDCDCD",
"2     c #FAFAFA",
"20    c #EDEDED",
"21    c #EEEEEE",
"22    c #F7F7F7",
"23    c #F1F1F1",
"24    c #D9D9D9",
"25    c #CCCCCC",
"26    c #D7D7D7",
"27    c #A1A1A1",
"28    c #0C0C0C",
"29    c #C8C8C8",
"2a    c #FDFDFD",
"2b    c #D5D5D5",
"2c    c #B1B1B1",
"2d    c #9F9F9F",
"2e    c #F9F9F9",
"2f    c #ACACAC",
"2g    c #F5F5F5",
"2h    c #D3D3D3",
"2i    c #FCFCFC",
"   0 1 2 3 4 5 6 7 8 9 a b c d e f g h i j k l m n m o p q j r s",
" t q u v w 0 x y z A B C y D E k F G H I q   4 J K f x L M N L u",
" l u O g j P E d Q 6 R S T U x f   D V W X Y P m Z O 5 i D &0  p",
"0001 j N D  02 q03 G S0405 6 C06 t E S B05 O L s07 408 509 W09 q",
"0a0b n p0c x0d j s02 F h H0e X D h U0f 6 T d 4 l0g0h p03 U08 s0i",
"0j0k0707 F   o0i0l0i0m0h 4 F c T a0n0o0p0q020g w0r0s P o070t0u0v",
"0v l j L D0w o K m0s 30x v02090y0z0A0B09 O07 v 30b0x0t J0C0D0E0F",
"0u n L04 W0G0w M0H n 2 w s y0I0J0K0B030k0L0l0h v 10M0F0N0O 10P0L",
"00 w0d C W d g i f r 1 m020Q0R0S0T &0U0u0N0V0W l010b0X0r J v0m0Y",
"0d0i0d0q y F M q0Y0l 10h L W0Z0&0o1  t0m10 K k0m07 Z0V0l n J0l0Y",
"08 M h T O0d0U L 0 r0g 00811 H B0B06 L F E12 4   p p   k13 l0i q",
"14 X0 1 0602 u r150m e F I x E0w I   L0w p0i1203 N 50  V I i0c0G",
" C C U04 G Z0L0E0x130d x g M j r m 0 u L0U f11 W 8 6 60Z 81 1116",
" 8 X c06 u0v0M0j0j1700 o k t130M0L0i0m u i0 180I0A0J0Z19 8 V09 X",
" C0 03 i130X0X1a0E0X m 0 4 e10 20b r13 K M0Q0p0o1b1b190p X1c C 6",
" U060w0c i000x 2 3 r0i s u0g J0l0V0v0r 3 L X1d1e1f0&1g a R1h a1c",
"0d13 u O i0i0g r0i1010 s0h0r0s0g 1170j0M P U1d1i1j0&0J0o0y0y0p14",
"0U K0706 g01 10g0k0s00 k v0v0v0b 20C 2010d161b1k1l1m A1d1n0n R14",
" b06 s Y d K Z0Y u 402 4 w0O0X0u 31a0b 0 g161g1o1p1q1r1s1t1b0A0q",
"0A W G 5  0d M D V y O q K 1 J0115 k e F N0B1u191s1v0Z B0K1w1x1y",
"1s 9160w F h b z18 Q g E P01 m Z0Y H C V181t1r a0J1s0y0p0S1z1A1B",
"1905 i j0G0q18 R V d0d q 4 r K0H F0f1m0z0p1s0S1d1g0Z1s1r1C1D1E0S",
" &1p1F1G1H1I1z W Y q e0H T1J 80c &0z0z1y1t0K0K1g1r0Z1r1v1t0K190n",
" z1K1L1h z1u1M1N i0d u P1O1P1Q04 & S T0I0q X18 B0z1n A1g1u0o0q1h",
" 61R1l u j i1S1T0w0H0m O1U0S1V0q q q L I h081 0p1g B0n1h C S H0Q",
" z1Q1W V181r1X1p0d Z130K1Y0H1Z1z e12000g j E16 S C0B X N q F0w16",
" b1&2 20212223 D0707 f240T v0f1M G0m0u1a 10Y0G16 V T q0k 1070w16",
" 52524 a0A0p1O26 o 0051P1j271z1P1t0m280O17 P06 T0e S x0a0F10 x06",
" L1i29 G0q05 52a0G l1x1Y271p1D1Q2b150M1a0E0s j N S03 o0x0a0H0c0U",
"0s2c1i02030 2d2e Y E2327 u o02 z1P I0r0u n0l0g 0 o000s0l12 p  13",
"0C2f2g1F2h1H2g27 L1g2i 804 N Y i1L1O0V120H l v0101 2 v 002 e0Y0g",
" K0U03 N Q0e0f X0 0p0K 60I1  Y t11140d L s07 n0x0L0a r f O o07 j"};
