/* XPM */
static char *magick[] = {
/* columns rows colors chars-per-pixel */
"32 32 160 2",
"   c Gray0",
".  c #010101",
"X  c #020202",
"o  c #040404",
"O  c Gray2",
"+  c #060606",
"@  c #070707",
"#  c Gray3",
"$  c #090909",
"%  c Gray4",
"&  c #0b0b0b",
"*  c #0c0c0c",
"=  c Gray5",
"-  c Gray6",
";  c #101010",
":  c #111111",
">  c Gray7",
",  c #131313",
"<  c Gray8",
"1  c #151515",
"2  c #161616",
"3  c Gray9",
"4  c #191919",
"5  c Gray10",
"6  c Gray11",
"7  c #1e1e1e",
"8  c Gray12",
"9  c Gray13",
"0  c Gray14",
"q  c #252525",
"w  c Gray15",
"e  c #272727",
"r  c #282828",
"t  c Gray16",
"y  c Gray17",
"u  c Gray18",
"i  c #313131",
"p  c #323232",
"a  c #373737",
"s  c #393939",
"d  c #3c3c3c",
"f  c Gray26",
"g  c #434343",
"h  c #444444",
"j  c #484848",
"k  c #494949",
"l  c #4b4b4b",
"z  c #4c4c4c",
"x  c #4e4e4e",
"c  c #515151",
"v  c Gray32",
"b  c Gray33",
"n  c #565656",
"m  c Gray35",
"M  c #5b5b5b",
"N  c Gray36",
"B  c #5d5d5d",
"V  c Gray37",
"C  c #5f5f5f",
"Z  c Gray38",
"A  c #626262",
"S  c Gray40",
"D  c #676767",
"F  c #686868",
"G  c #6a6a6a",
"H  c Gray42",
"J  c #6d6d6d",
"K  c Gray43",
"L  c Gray44",
"P  c #717171",
"I  c #727272",
"U  c #747474",
"Y  c #767676",
"T  c #797979",
"R  c Gray48",
"E  c #7b7b7b",
"W  c #7c7c7c",
"Q  c Gray49",
"!  c Gray50",
"~  c #808080",
"^  c #818181",
"/  c Gray51",
"(  c #838383",
")  c #848484",
"_  c #868686",
"`  c Gray53",
"'  c #888888",
"]  c #898989",
"[  c Gray54",
"{  c #8b8b8b",
"}  c Gray55",
"|  c #8d8d8d",
" . c #8e8e8e",
".. c Gray56",
"X. c Gray57",
"o. c #929292",
"O. c #939393",
"+. c Gray58",
"@. c Gray59",
"#. c #979797",
"$. c #9a9a9a",
"%. c #9b9b9b",
"&. c Gray61",
"*. c #9d9d9d",
"=. c #a0a0a0",
"-. c Gray63",
";. c #a2a2a2",
":. c #a4a4a4",
">. c #a5a5a5",
",. c Gray65",
"<. c #a7a7a7",
"1. c #aaaaaa",
"2. c Gray67",
"3. c #acacac",
"4. c Gray68",
"5. c #aeaeae",
"6. c #afafaf",
"7. c Gray69",
"8. c #b1b1b1",
"9. c #b2b2b2",
"0. c #b4b4b4",
"q. c Gray71",
"w. c #b6b6b6",
"e. c Gray74",
"r. c #bebebe",
"t. c #c1c1c1",
"y. c Gray77",
"u. c Gray78",
"i. c #cacaca",
"p. c #cbcbcb",
"a. c Gray80",
"s. c #cdcdcd",
"d. c Gray81",
"f. c #d2d2d2",
"g. c Gray83",
"h. c Gray84",
"j. c Gray85",
"k. c #dddddd",
"l. c Gray88",
"z. c #e1e1e1",
"x. c #e4e4e4",
"c. c #e6e6e6",
"v. c Gray91",
"b. c #e9e9e9",
"n. c Gray92",
"m. c #ececec",
"M. c #eeeeee",
"N. c #f1f1f1",
"B. c #f4f4f4",
"V. c Gray96",
"C. c #f6f6f6",
"Z. c Gray97",
"A. c #f8f8f8",
"S. c #f9f9f9",
"D. c Gray98",
"F. c #fbfbfb",
"G. c Gray99",
"H. c #fdfdfd",
"J. c #fefefe",
"K. c Gray100",
/* pixels */
"  k K.K.K.K.K.F               h K.K.K.K.K.K.K.K.h         ; c.K.",
"  :.K.K.K.K.M.1       O * 5 e M g.k.b.V.K.K.K.K.%.          X.K.",
"5 M.K.K.K.K.1.e B _ 3.d.c.N.V.3.% % ; 8 s M ^ 3.r.;         d K.",
"J K.K.l.=.B 3.V.K.K.K.K.K.K.K.3.                ; ..X.x 1     d.",
"%.@.k ;   O c.K.K.K.K.K.K.K.K.:.                  U K.K.c.=.x ..",
";         v K.K.K.K.K.K.K.K.K.=.                  e V.K.K.K.K.d.",
"          @.K.K.K.K.K.K.K.K.K.%.                    u.K.K.K.K.K.",
"        O g.K.K.K.K.K.K.K.K.K.@.                    { K.K.K.K.K.",
"        y S.K.K.K.K.K.K.K.K.K.X.                    v K.K.K.K.K.",
"        B K.K.K.K.K.K.K.K.K.K...                    9 V.K.K.K.K.",
"        { K.K.K.K.K.K.K.K.K.K.{                     O g.K.K.K.K.",
"        8.K.K.K.K.K.K.K.K.K.K._                       8.K.K.K.K.",
"      O d.K.K.K.K.K.K.K.K.K.K.^                       X.K.K.K.K.",
"      * c.K.K.K.K.K.K.K.K.K.K.Q                       Q K.K.K.K.",
"      ; V.K.K.K.K.K.S.S.S.S.V.Q % O O O               F K.K.K.K.",
"..@.%.@.B b x k f d a p u y y _ g.f.d.i.u.r.w.3.:.*.@._ T ^ { X.",
"K.K.K.M.                      { K.K.K.K.K.K.K.K.K.K.K.*.        ",
"K.K.K.b.*                     { K.K.K.K.K.K.K.K.K.K.K.X.        ",
"K.K.K.N.5                     _ K.K.K.K.K.K.K.K.K.K.K.^         ",
"K.K.K.S.u                     ^ K.K.K.K.K.K.K.K.K.K.K.F         ",
"K.K.K.K.x                     ^ K.K.K.K.K.K.K.K.K.K.K.k         ",
"K.K.K.K.L                     Q K.K.K.K.K.K.K.K.K.K.V.e         ",
"K.K.K.K.*.                    T K.K.K.K.K.K.K.K.K.K.j.%         ",
"K.K.K.K.d.O                   U K.K.K.K.K.K.K.K.K.K.:.          ",
"K.K.K.K.V.e                   L K.K.K.K.K.K.K.K.K.K.J           ",
"K.K.K.K.K.A                   J K.K.K.K.K.K.K.K.K.S.u           ",
"A 1.M.K.K.3.                  F K.K.K.K.K.K.K.K.K.d.      % f A ",
"p   8 B :.i.1                 S K.K.K.K.K.K.K.K.K._ ; x ..g.K.T ",
"@.        ; ^ ..b y *         B K.K.K.K.K.V.k.8.^ w.c.K.K.K.V.e ",
"l.*         S K.K.V.l.t.:.X.^ ^ ^ Q L B f e %   8 S.K.K.K.K.w.  ",
"K.b         1 b.K.K.K.K.K.K.K.:.                T K.K.K.K.K.B   ",
"K.3.          :.K.K.K.K.K.K.K.:.              O i.K.K.K.K.l.;   "
};
