/* XPM */
static char *GA_xpm[]={
"32 32 189 2",
"      c #C1C1C1",
" 0    c #C1C0C0",
" 1    c #C5B4B4",
" 2    c #CAA6A6",
" 3    c #CC9D9D",
" 4    c #CE9797",
" 5    c #CF9494",
" 6    c #CB8E8E",
" 7    c #B58A93",
" 8    c #BFB4BA",
" 9    c #C3BBBB",
" a    c #CBA1A1",
" b    c #D77D7D",
" c    c #E45656",
" d    c #EC3C3C",
" e    c #F42222",
" f    c #FA0E0E",
" g    c #FE0404",
" h    c #FF0000",
" i    c #FE0202",
" j    c #EB0F10",
" k    c #9B0862",
" l    c #876FBD",
" m    c #DD6A6A",
" n    c #EF3030",
" o    c #FC0909",
" p    c #FB0E0E",
" q    c #F61C1C",
" r    c #F12C2C",
" s    c #CB4D26",
" t    c #664554",
" u    c #1400EB",
" v    c #4361CC",
" w    c #BDBDC2",
" x    c #C9AAAA",
" y    c #E35858",
" z    c #FA1111",
" A    c #F91111",
" B    c #ED3A3A",
" C    c #E15C5C",
" D    c #D58383",
" E    c #CD9B9B",
" F    c #CAA5A5",
" G    c #C7AFAF",
" H    c #71D467",
" I    c #04FC02",
" J    c #016F90",
" K    c #0000FF",
" L    c #5E5FE0",
" M    c #BFBFC2",
" N    c #D58484",
" O    c #F61B1B",
" P    c #FD0505",
" Q    c #D87B7B",
" R    c #C9A9A9",
" S    c #C2BFBF",
" T    c #6BDC6B",
" U    c #02FF02",
" V    c #02FE02",
" W    c #2B58C4",
" X    c #6969DD",
" Y    c #DB7272",
" Z    c #FD0707",
" &    c #EE3535",
"0     c #D09191",
"00    c #C2BEBE",
"01    c #6BDD6B",
"02    c #4545E9",
"03    c #7B7BD7",
"04    c #FD0606",
"05    c #C3B9B9",
"06    c #C0C0C1",
"07    c #3737ED",
"08    c #8F8FD1",
"09    c #C8AAAA",
"0a    c #F61D1D",
"0b    c #E15E5E",
"0c    c #B3B3C6",
"0d    c #2020F5",
"0e    c #0202FF",
"0f    c #9C9CCD",
"0g    c #E35757",
"0h    c #EE3636",
"0i    c #A4A4CA",
"0j    c #0B0BFC",
"0k    c #1111F9",
"0l    c #AAAAC9",
"0m    c #CAA3A3",
"0n    c #9090D1",
"0o    c #2D2DF0",
"0p    c #BBBBC3",
"0q    c #DE6666",
"0r    c #EB3D3D",
"0s    c #6A6ADD",
"0t    c #4B4BE7",
"0u    c #C3BABA",
"0v    c #F12D2D",
"0w    c #D67F7F",
"0x    c #4141EA",
"0y    c #7272DA",
"0z    c #FE0505",
"0A    c #F81717",
"0B    c #C8ACAC",
"0C    c #ADADC8",
"0D    c #1717F8",
"0E    c #0505FD",
"0F    c #EA4040",
"0G    c #6CDC6C",
"0H    c #8080D6",
"0I    c #2D2DF1",
"0J    c #BABAC3",
"0K    c #E74B4B",
"0L    c #3E3EEB",
"0M    c #6767DE",
"0N    c #F02D2D",
"0O    c #D19090",
"0P    c #9292D0",
"0Q    c #0505FE",
"0R    c #1111FA",
"0S    c #A3A3CA",
"0T    c #C9A8A8",
"0U    c #FC0B0B",
"0V    c #CBA3A3",
"0W    c #B9B9C3",
"0X    c #3636ED",
"0Y    c #5858E3",
"0Z    c #FF0202",
"0&    c #F52020",
"1     c #C6B2B2",
"10    c #5F5FE1",
"11    c #1E1EF6",
"12    c #ABABC8",
"13    c #D18E8E",
"14    c #ED3737",
"15    c #C1BFBF",
"16    c #5E5EE1",
"17    c #0707FD",
"18    c #8484D5",
"19    c #D87A7A",
"1a    c #E94545",
"1b    c #9191D0",
"1c    c #3535EE",
"1d    c #7373DA",
"1e    c #DD6868",
"1f    c #C3592B",
"1g    c #BFBFC1",
"1h    c #A9A9C9",
"1i    c #3A3AEC",
"1j    c #0606FD",
"1k    c #1B1BF6",
"1l    c #8585D4",
"1m    c #DF5F5D",
"1n    c #FD0302",
"1o    c #817E01",
"1p    c #02FD03",
"1q    c #66D470",
"1r    c #B0B0C6",
"1s    c #A6A6CA",
"1t    c #9B9BCD",
"1u    c #8383D5",
"1v    c #5D5DE1",
"1w    c #AAAAC8",
"1x    c #C2BCBC",
"1y    c #C54459",
"1z    c #DE0B1A",
"1A    c #433B81",
"1B    c #1E3FD4",
"1C    c #2B2BF1",
"1D    c #0E0EFB",
"1E    c #0909FC",
"1F    c #3131EF",
"1G    c #9A4393",
"1H    c #6B0094",
"1I    c #0300FC",
"1J    c #0E0EFA",
"1K    c #2222F4",
"1L    c #3D3DEC",
"1M    c #5656E4",
"1N    c #7D7DD7",
"1O    c #A2A2CB",
"1P    c #BCBCC3",
"1Q    c #B8B4C1",
"1R    c #9494CA",
"1S    c #9092CF",
"1T    c #9494CF",
"1U    c #9898CE",
"1V    c #9D9DCC",
"1W    c #A7A7CA",
"1X    c #B5B5C5",
"                                                                ",
"                                                                ",
"                                                                ",
"                                       0 1 2 3 4 5 6 7 8        ",
"                               9 a b c d e f g h i j k l        ",
"                           2 m n o h h h i p q r s t u v w      ",
"                       x y z h h A B C D E F G H I J K L M      ",
"                     N O h P B Q R S         T U V W K X        ",
"                   Y Z h &0 00            01 U V T02 K03        ",
"                 D04 h C05               T V U T0607 K08        ",
"              090a h0b                 T V U T  0c0d0e0f        ",
"              0g h0h05              01 U V T    0i0j0k0l        ",
"            0m z g0                T U V01      0n K0o0p        ",
"            0q h0r 0             T U V T        0s K0t          ",
"          0u0v h0w             T V U01          0x K0y          ",
"           E0z0A0B          01 V U01          0C0D0E0f          ",
"           Y h0F          01 V U0G            0H K0I0J          ",
"          0K h m        01 U V0G            060L K0M            ",
"         90N h0O       T U V01              0P0Q0R0S            ",
"        0T A0U0V    01 U V T              0W0X K0Y              ",
"         E0Z0&1   01 V V01                10 K1112              ",
"        13 h141501 V U T              0J16 K1718                ",
"        19 h1a01 V V0G             M1b1c K171d                  ",
"        1e h1f U V T        1g1h031i1j K1k1l                    ",
"       S1m1n1o1p1q1r1s1t1u1v1i0R K K0R0Y1w                      ",
"      1x1y1z1A1B1C1k1D0e K K K1E1F0s1s                          ",
"        1G1H1I K K0Q1J1K1L1M1N1O1P                              ",
"        1Q1R1S1T1U1V1W1X                                        ",
"                                                                ",
"                                                                ",
"                                                                ",
"                                                                "};
