/* XPM */
static char *TMPpresetIcon[] = {
/* columns rows colors chars-per-pixel */
"32 32 66 1",
"  c #020101",
". c #020202",
"X c #020203",
"o c #030203",
"O c #030403",
"+ c #070706",
"@ c #0C0C0C",
"# c #1C1B1C",
"$ c #1E1E1E",
"% c gray16",
"& c #313131",
"* c #343434",
"= c #383738",
"- c gray25",
"; c #4A4A4B",
": c #535353",
"> c #686868",
", c #686968",
"< c #696868",
"1 c #6A696A",
"2 c #6A6A69",
"3 c #6D6D6D",
"4 c #706F70",
"5 c gray44",
"6 c #717171",
"7 c #7C7C7C",
"8 c gray51",
"9 c gray52",
"0 c #898989",
"q c #8B8A8A",
"w c #909090",
"e c #909190",
"r c #9D9C9D",
"t c #A0A0A0",
"y c #A4A4A3",
"u c gray65",
"i c #ABAAAA",
"p c #B1B1B1",
"a c #B2B2B3",
"s c #B3B3B2",
"d c gray71",
"f c gray72",
"g c gray73",
"h c #BABBBB",
"j c #BBBBBB",
"k c gray74",
"l c #C0C0C0",
"z c gray76",
"x c #C8C9C8",
"c c #D1D0CF",
"v c #D1D1D0",
"b c gray85",
"n c #DADAD9",
"m c #DADADA",
"M c gainsboro",
"N c gray87",
"B c #E4E4E4",
"V c #E8E7E7",
"C c #EAEAEA",
"Z c gray93",
"A c gray94",
"S c #F0F1F0",
"D c #F9F9F8",
"F c #FCFBFC",
"G c gray99",
"H c #FEFEFE",
/* pixels */
"HHHHHHHHHHHHHHHHHHHHHHHHHHHHHHHH",
"HHHHHHHHHHHHHHHHHHHHHHHHHHHHHHHH",
"HHHHHHHHHHHHHHHHHHHHHHHHHHHHHHHH",
"HHHHHHHHHHHHHHHHHHHHHHHHHHHHHHHH",
"HHHHHHHHHHHHHHHHHHHHHHHHHHHHHHHH",
"HHHHHHHHHHHHHHHmHHHHHHHHHHHHHHHH",
"HHHHHHHHHHHHHHHpBHHHHHHHHHHHHHHH",
"HHHHHHHHHHHHHHHevHHHHHHHHHHHHHHH",
"HHHHHHHHHHHHHHH7zHHHHHHHHHHHHHHH",
"HHHHHHHHHHHHHHH6hHHHHHHHHHHHHHHH",
"HHHHHHHHHHHHHHH3fHHHHHHHHHHHHHHH",
"HHHHHHHHHHHHHHH3fHHHHHHHHHHHHHHH",
"HHHHHHHHHHHHHHH6jHHHHHHHHHHHHHHH",
"HHHHHHHHHHHHHHH3fHHCMNADMHHHHHHH",
"HHHHHHHHmABmxp9%%#@O O  +jHHHHHH",
"HHHHHHHHc4;-**=#:qtyyr967ZHHHHHH",
"HHHHHHHHHHHHHHH2dHHHHHHHHHHHHHHH",
"HHHHHHHHHHHHHHH>dHHHHHHHHHHHHHHH",
"HHHHHHHHHHHHHHH>dHHHHHHHHHHHHHHH",
"HHHHHHHHHHHHHHH2fHHHHHHHHHHHHHHH",
"HHHHHHHHHHHHHHH>dHHHHHHHHHHHHHHH",
"HHHHHHHHHHHHHHH2aHHHHHHHHHHHHHHH",
"HHHHHHHHHHHHHHH6iHHHHHHHHHHHHHHH",
"HHHHHHHHHHHHHHH8eHHHHHHHHHHHHHHH",
"HHHHHHHHHHHHHHHzpHHHHHHHHHHHHHHH",
"HHHHHHHHHHHHHHHHHHHHHHHHHHHHHHHH",
"HHHHHHHHHHHHHHHHHHHHHHHHHHHHHHHH",
"HHHHHHHHHHHHHHHHHHHHHHHHHHHHHHHH",
"HHHHHHHHHHHHHHHHHHHHHHHHHHHHHHHH",
"HHHHHHHHHHHHHHHHHHHHHHHHHHHHHHHH",
"HHHHHHHHHHHHHHHHHHHHHHHHHHHHHHHH",
"HHHHHHHHHHHHHHHHHHHHHHHHHHHHHHHH"
};
