/* XPM */
static char * image_name[]={
"32 32 209 2",
"  	c #C2C2C2",
". 	c #B6E2CE",
"X 	c #A8B8C5",
"o 	c #7C98D3",
"O 	c #1E90FF",
"+ 	c #1C70B8",
"@ 	c #1B5992",
"# 	c #1E5991",
"$ 	c #384B66",
"% 	c #32BFC1",
"& 	c #9EB3C5",
"* 	c #1B6BB0",
"= 	c #292929",
"- 	c #2F2F64",
"; 	c #1C5F9C",
": 	c #2975B6",
"> 	c #BFBFC0",
", 	c #B0B0B0",
"< 	c #1B6AAE",
"1 	c #1B548A",
"2 	c #205386",
"3 	c #B5B5B5",
"4 	c #5F929E",
"5 	c #2070B4",
"6 	c #262626",
"7 	c #2B2B2B",
"8 	c #BFBFBF",
"9 	c #9C9C9C",
"0 	c #3976AB",
"q 	c #729FFF",
"w 	c #1F5282",
"e 	c #1C1C1C",
"r 	c #141414",
"t 	c #171717",
"y 	c #696969",
"u 	c #BABABA",
"i 	c #6A6A8D",
"p 	c #276297",
"a 	c #325A82",
"s 	c #242424",
"d 	c #3979AB",
"f 	c #7E88AB",
"g 	c #2A77BA",
"h 	c #2574B9",
"j 	c #265684",
"k 	c #205080",
"l 	c #1B77C4",
"z 	c #1C7DCD",
"x 	c #1C6BAF",
"c 	c #636363",
"v 	c #1E5E98",
"b 	c #1E6AAD",
"n 	c #1A5389",
"m 	c #1B64A5",
"M 	c #367EBB",
"N 	c #A1A1A1",
"B 	c #666666",
"V 	c #1B63A3",
"C 	c #1C74BE",
"Z 	c #1C71BA",
"A 	c #1E77C1",
"S 	c #2377BF",
"D 	c #B3B3B3",
"F 	c #B8BEC3",
"G 	c #AEBCC7",
"H 	c #AABCCA",
"J 	c #AABBC9",
"K 	c #AFBCC6",
"L 	c #AFBAC3",
"P 	c #3C729F",
"I 	c #1B68AC",
"U 	c #1D74BD",
"Y 	c #1A5C99",
"T 	c #5470AA",
"R 	c #BABEC1",
"E 	c #9AB4C8",
"W 	c #1A5084",
"Q 	c #1F7AC6",
"! 	c #1A5891",
"~ 	c #1A568E",
"^ 	c #31689B",
"/ 	c #919191",
"( 	c #B5BCC2",
") 	c #83ABCC",
"_ 	c #1D71B7",
"` 	c #1A5A94",
"' 	c #275581",
"] 	c #708090",
"[ 	c #B0BAC3",
"{ 	c #1F6CAE",
"} 	c #1A5790",
"| 	c #1A548B",
" .	c #1A609E",
"..	c #1B71BA",
"X.	c #1D7CCB",
"o.	c #1C609E",
"O.	c #6E6E6E",
"+.	c #ADADAD",
"@.	c #AAB8C4",
"#.	c #49D4F0",
"$.	c #1E5F9A",
"%.	c #1E66A5",
"&.	c #5E5E5E",
"*.	c #9B7071",
"=.	c #A0B4C4",
"-.	c #1C5B94",
";.	c #1A5A95",
":.	c #1D73BC",
">.	c #2C7EC0",
",.	c #1E5F99",
"<.	c #BDBDBD",
"1.	c #9CB3C6",
"2.	c #1C5A93",
"3.	c #1A5993",
"4.	c #1A61A0",
"5.	c #1A5F9D",
"6.	c #1B66A8",
"7.	c #1C68AB",
"8.	c #1D67A8",
"9.	c #1E5F9B",
"0.	c #BDBFC1",
"q.	c #9BB2C6",
"w.	c #1C5991",
"e.	c #184D80",
"r.	c #195186",
"t.	c #195187",
"y.	c #707070",
"u.	c #ABABAB",
"i.	c #9AB0C2",
"p.	c #1B578F",
"a.	c #575757",
"s.	c #A8A8A8",
"d.	c #1B578E",
"f.	c #A3A3A3",
"g.	c #4D4D4D",
"h.	c #1A1A1A",
"j.	c #21619A",
"k.	c #BCBEC0",
"l.	c #9E9E9E",
"z.	c #1C5992",
"x.	c #A6A6A6",
"c.	c #20B2AA",
"v.	c #B8B8B8",
"b.	c #207ECC",
"n.	c #1D66A7",
"m.	c #92ACC2",
"M.	c #B2BAC0",
"N.	c #2C72AE",
"B.	c #3675AD",
"V.	c #1D7BC9",
"C.	c #1F76C0",
"Z.	c #225383",
"A.	c #2877BB",
"S.	c #297FC2",
"D.	c #969696",
"F.	c #286BA6",
"G.	c #1C76C2",
"H.	c #1D7AC8",
"J.	c #1B6DB4",
"K.	c #1A5287",
"L.	c #195287",
"P.	c #30679A",
"I.	c #8F8F8F",
"U.	c #BEBFC0",
"Y.	c #24639D",
"T.	c #1C71B9",
"R.	c #1C75C0",
"E.	c #1A5892",
"W.	c #1E7CCA",
"Q.	c #3174AE",
"!.	c #2669A4",
"~.	c #778899",
"^.	c #255C8F",
"/.	c #1B6DB3",
"(.	c #1A5E9A",
").	c #1C73BD",
"_.	c #1C79C7",
"`.	c #1E72B8",
"'.	c #2471B1",
"].	c #295582",
"[.	c #1A619F",
"{.	c #1B6CB2",
"}.	c #1B6EB6",
"|.	c #1A69AD",
" X	c #1C72BB",
".X	c #1C6FB6",
"XX	c #2479BD",
"oX	c #3C6891",
"OX	c #999999",
"+X	c #A9B6C1",
"@X	c #195389",
"#X	c #1A64A5",
"$X	c #1B6CB1",
"%X	c #1F66A1",
"&X	c #2F6496",
"*X	c #22639A",
"=X	c #1E5B90",
"-X	c #26649C",
";X	c #195791",
":X	c #1A5C98",
">X	c #1D6DB1",
",X	c #226098",
"<X	c #1B62A2",
"1X	c #1C74BF",
"2X	c #245280",
"3X	c #1C7AC9",
"4X	c #1B7AC9",
"5X	c #1D70B8",
"6X	c #1D5489",
"                                          . X o O O + @ # $ $ % ",
"                                        . & o O O * $ = - ; : % ",
"                                      > , o O O < $ - - $ 1 2 $ ",
"                                      3 4 O O 5 $ - - - - - 6 7 ",
"                                    8 9 0 q % w 6 6 6 e r t 7 y ",
"                                    u i p % % a - $ $ - s $ d f ",
"                                    3 y $ g h j k l O z x O O f ",
"                                    3 c - v b n m O O O O O M N ",
"                                    3 B - $ V C O O O Z A S 4 D ",
"                        F G H J K L o P 7 - I O O O U Y b T N 8 ",
"                    R E o q q q o o O O $ W O O O Q ! ~ ^ / u   ",
"                  ( ) q O O O O O O O O _ O O O O ` $ ' ] 3     ",
"                [ o q q q O { } |  ...X.O q q O o.- - O.+.      ",
"              @.o O #.#.% $.- = - $ < O O q O %.$ &.*.+.        ",
"          . =.o O #.#.% -.- - - - ;.:.O O >.,.$ ] D <.          ",
"        . 1.o O #.q % 2.- - 3.4.5.6.7.8.9.$ $ i D               ",
"      0.q.o O #.q % w.- - - e.r.t.r.$ $ - - y.u.                ",
"    . i.o O #.q % p.- c y.- - - - - - 6 - a.s.                  ",
"    3 o O q q % d.- B s.f.g.e t t h.7 $ j.T D                   ",
"  k.l.O O O O z.- c x.> <.9 y g.- $ c.q O 4 v.                  ",
"  3 4 b.O O n.$ $ 4 o m.M.> v.l.4 O #.q N.f <.                  ",
"  x.B.V.O C.} - Z.A.O O f 3 3 4 O #.q S.T s.                    ",
"8 D.F.G.H.J.K.- L.l O O O f f O q #.O P.I.<.                    ",
"U.f Y.T.R.* | - E.O O O W.Q.O q #.O !.i D                       ",
"<.~.^.< Z /.(.n ).O O O _.`.O #.% '.T x.                        ",
"8 / ].[.{.}.|. XO O O O .Xc.#.q XXoXOX<.                        ",
"+X4 $ @X#X$XR.O O #.O O %X4 q O &X~.u                           ",
"o O *X$ E.* O O #.#.O Z =X% O -Xi ,                             ",
"O O % $ ;XX.O #.#.q O :Xn >X,Xi x.                              ",
"O O O <X1XO O #.q O 6.$ $ 2XB l.<.                              ",
"O O ).3XO O q q O * $ - $ i f.<.                                ",
"O R.4XO O O O O 5X6X$ i 9 3                                     "
};
