/* XPM */
static char * render_mip_render_subset_xpm[] = {
"32 32 255 2",
"  	c #040107",
". 	c #01020F",
"+ 	c #020400",
"@ 	c #060215",
"# 	c #0B0211",
"$ 	c #0E020A",
"% 	c #0C051C",
"& 	c #110418",
"* 	c #110929",
"= 	c #170822",
"- 	c #10100F",
"; 	c #1D0D2E",
"> 	c #230E38",
", 	c #280E49",
"' 	c #291234",
") 	c #1D172B",
"! 	c #1F1726",
"~ 	c #231536",
"{ 	c #26162E",
"] 	c #1C1B1C",
"^ 	c #1E1A23",
"/ 	c #2E1448",
"( 	c #2A1641",
"_ 	c #36115C",
": 	c #331651",
"< 	c #341558",
"[ 	c #2B243A",
"} 	c #2C2534",
"| 	c #2B262F",
"1 	c #3D1C61",
"2 	c #292828",
"3 	c #33233E",
"4 	c #362149",
"5 	c #352150",
"6 	c #2F244C",
"7 	c #322444",
"8 	c #40205D",
"9 	c #412259",
"0 	c #482568",
"a 	c #412A5C",
"b 	c #352F57",
"c 	c #422C55",
"d 	c #3B2F4F",
"e 	c #472A61",
"f 	c #363535",
"g 	c #40304B",
"h 	c #472B69",
"i 	c #3A3342",
"j 	c #37353E",
"k 	c #4C2C5E",
"l 	c #3B344A",
"m 	c #523164",
"n 	c #4E326A",
"o 	c #4E3465",
"p 	c #40386E",
"q 	c #443A61",
"r 	c #4C3865",
"s 	c #423F44",
"t 	c #433F5A",
"u 	c #4A3F4A",
"v 	c #543872",
"w 	c #414340",
"x 	c #4B3E5F",
"y 	c #464155",
"z 	c #523C72",
"A 	c #474352",
"B 	c #533E68",
"C 	c #583E6F",
"D 	c #4A474D",
"E 	c #5C4174",
"F 	c #574775",
"G 	c #5C476C",
"H 	c #614678",
"I 	c #524D6A",
"J 	c #594D58",
"K 	c #544F5E",
"L 	c #544F64",
"M 	c #555157",
"N 	c #5C4D6D",
"O 	c #65497C",
"P 	c #535452",
"Q 	c #634E7F",
"R 	c #655781",
"S 	c #6D5581",
"T 	c #645D6D",
"U 	c #6D588A",
"V 	c #646067",
"W 	c #655E7C",
"X 	c #6B5C7F",
"Y 	c #665C8E",
"Z 	c #655F75",
"` 	c #626361",
" .	c #735B87",
"..	c #735C83",
"+.	c #6F5E88",
"@.	c #685EA2",
"#.	c #6C62B7",
"$.	c #76648F",
"%.	c #7D6492",
"&.	c #7169A2",
"*.	c #7167B6",
"=.	c #746C7D",
"-.	c #7D688E",
";.	c #736C86",
">.	c #766A9A",
",.	c #7369B1",
"'.	c #70716E",
").	c #746AAC",
"!.	c #747077",
"~.	c #7D6C8D",
"{.	c #7C6E99",
"].	c #836D93",
"^.	c #877198",
"/.	c #7A72BC",
"(.	c #867393",
"_.	c #8B71A0",
":.	c #7D73B6",
"<.	c #8274B2",
"[.	c #7C76B1",
"}.	c #84769B",
"|.	c #8276A2",
"1.	c #7C7C7C",
"2.	c #7E77AC",
"3.	c #857893",
"4.	c #857C82",
"5.	c #8B7899",
"6.	c #837D8E",
"7.	c #827D95",
"8.	c #827BB7",
"9.	c #857F8A",
"0.	c #837EB4",
"a.	c #907D9E",
"b.	c #907F93",
"c.	c #8C7FA4",
"d.	c #8D809A",
"e.	c #848584",
"f.	c #8780AE",
"g.	c #9481A2",
"h.	c #8A84BB",
"i.	c #9287A6",
"j.	c #9089AD",
"k.	c #9088B9",
"l.	c #918B9C",
"m.	c #8D8E8D",
"n.	c #958AA2",
"o.	c #8F8BB5",
"p.	c #9C8A9F",
"q.	c #968BB6",
"r.	c #988CAB",
"s.	c #9B8ABA",
"t.	c #998AC9",
"u.	c #97919C",
"v.	c #A08EAE",
"w.	c #9992A4",
"x.	c #9591BA",
"y.	c #9992AA",
"z.	c #9C91B0",
"A.	c #9F91AA",
"B.	c #979697",
"C.	c #9A92B6",
"D.	c #A196B5",
"E.	c #A697B1",
"F.	c #A098BD",
"G.	c #A996B7",
"H.	c #A099C5",
"I.	c #A59AAD",
"J.	c #A09CAB",
"K.	c #A19BB3",
"L.	c #A09CB9",
"M.	c #AA9BB5",
"N.	c #A0A29F",
"O.	c #A5A2A6",
"P.	c #AE9FB9",
"Q.	c #B19EC0",
"R.	c #A9A0C5",
"S.	c #ACA1C0",
"T.	c #A4A4BA",
"U.	c #ADA2B5",
"V.	c #A9A1CD",
"W.	c #A8A3C1",
"X.	c #B3A1B6",
"Y.	c #A9A5B4",
"Z.	c #ABA4BC",
"`.	c #B6A7C2",
" +	c #B1A9C2",
".+	c #B1ACB7",
"++	c #AFABC9",
"@+	c #B0ACBE",
"#+	c #ADADC4",
"$+	c #B6ABBE",
"%+	c #B3ABD2",
"&+	c #B5ADC6",
"*+	c #B0B2AF",
"=+	c #B3B1B5",
"-+	c #BDAFCD",
";+	c #BCB1C4",
">+	c #B7B2D1",
",+	c #BAB2CB",
"'+	c #BAB4C0",
")+	c #B5B5CB",
"!+	c #B9B5C6",
"~+	c #C0B4C8",
"{+	c #BEBACC",
"]+	c #C3B8D9",
"^+	c #BCBEBB",
"/+	c #C1BAD5",
"(+	c #BDBDD4",
"_+	c #C6BBCE",
":+	c #C3BDC8",
"<+	c #C0BFC5",
"[+	c #C3C0D1",
"}+	c #CEC0CE",
"|+	c #CEC3D6",
"1+	c #C8C5D7",
"2+	c #CAC4E0",
"3+	c #C6C8C5",
"4+	c #CAC7CC",
"5+	c #CDC6D2",
"6+	c #C7C8D2",
"7+	c #D8CAD8",
"8+	c #D0CCE6",
"9+	c #D2CDDF",
"0+	c #D5CEDA",
"a+	c #CFD0DA",
"b+	c #D2D0D4",
"c+	c #DFD3E7",
"d+	c #D9D6E9",
"e+	c #DDD6E2",
"f+	c #D7D8E2",
"g+	c #DBD8DD",
"h+	c #D8DAD6",
"i+	c #E2D8DF",
"j+	c #E4DDE9",
"k+	c #E2DFE4",
"l+	c #DFE0EA",
"m+	c #ECDDEC",
"n+	c #E1E3E0",
"o+	c #E6E4E8",
"p+	c #EBE8ED",
"q+	c #EAEAF4",
"r+	c #EBECE9",
"s+	c #EFECF1",
"t+	c #F3F0F5",
"u+	c #F1F3EF",
"v+	c #F6F5EC",
"w+	c #F7F5FA",
"x+	c #F5F7F3",
"y+	c #FFF6FE",
"z+	c #F9FBF7",
"A+	c #FEFCFF",
"B+	c #FEFEF4",
"C+	c #FFFDFB",
"D+	c #FCFEFB",
"E+	c #F9FFFF",
"F+	c #FEFFFC",
"F+F+F+F+C+E+w+F+w+F+z+z+N.. ! J M 2   B.F+A+F+z+F+x+F+F+F+F+F+F+",
"F+F+F+F+E+F+F+u+F+!.T w.I. +$+_+5+6+a+g+k+O.!.F+F+F+F+F+F+F+F+F+",
"F+F+F+F+F+F+A+V T d.A.v.G. +&+_+_+1+9+e+f+g+o+b+M F+F+F+F+F+F+F+",
"F+F+F+F+F+r+# X ].c.r.I.U. +;+_+:+5+a+g+g+q+q+A+s+- u+F+F+F+F+F+",
"C+E+E+x+C+l +.%.^.c.# l D. +;+_+_+|+0+e+e+k+o+p+s+t+1.x+n+F+F+F+",
"F+F+F+A+= R U %.(.i.9.# $+ +;+_+_+|+0+e+e+k+o+p+s+t+F+` F+F+F+F+",
"F+B+A+3 C O  .-.(.Z 6.6.K Z.;+_+_+|+0+0+e+p+p+p+s+t+x+x+N.n+F+F+",
"A+F+} 5 E O ..-.(.; 3.U.# Z.;+_+_+|+0+e+e+p+p+p+s+t+x+x+F++ F+F+",
"A+z+5 n C Q +.-.^.a.i.D.M.U.-+$+'+{+T J.1+)+9+u.J.t+A+A+z+F+F+F+",
"F+& a n C Q +.-.^.a.i.D.M.`.;+|+j.c.C.W.Z.#+[+'+<+k+A+A+z+x++ F+",
"u+> 9 n C Q +.-.^.a.i.D.M./+Z.}.s.x.x.++ +)+{+6+a+g+o+e.F+r+r+x+",
"F+: 9 n z Q +.-.^.a.i.D.M.$+F 0.0.% @ W T.)+{+6+a+g+t+t+h+x+x+F+",
"4.8 9 n C Q +.-.^.a.i.D.M.++@.[.0.. y.=.#+)+{+6+a+f+k+p+x+x+F+` ",
"# : 8 o C Q +.-.^.a.i.D.M.b :.2.f.. t . T.)+{+6+a+f+k+p+r+P F++ ",
"& : 8 o C Q +.-.^.a.i.r.M.&./.2.h.. L.u.l.)+{+1+0+f+k+p+r+u+z+w ",
"% < 8 o C Q +.-.^.a.i.D.`.,.*.2.0.n.R.#+#+,+8+Z !+J.<+k+u+u+z+m.",
"% < 8 o C Q +.-.^.a.i.A.A.#.,.0.0.o.F.W.W.2+D.Z.1+6+b+s u+r+z+e.",
"@ : 8 o C Q +.-.^.a.i.A.y.#.).0.0.o.F.L.W.%+R.% [+6+O.g+B.F+z+f ",
"& : 8 o C Q +.-.^.a.i.A. +,.:.8.0.o.F.L.L.V.S.) 5+'+<+g+^+u+x++ ",
"9./ 9 n C Q +.-.^.a.i.A.K.@.).8.0.o.F.W.W.H.D.& .+!+  k+3+F+F+` ",
"t+( 0 o C Q +.-.^.a.i.D.M.Q /.8.f.q.F.L.W.%+R.w.. . g+g+1.` r+F+",
"u+( 8 o C Q +.-.^.a.i.D.M.}.:.8.0.q.F.++ +N >+)+!+.+4+t+x+F+F+F+",
"x+= a n C Q +.-.^.a.i.D.M.Z.o.8.8.q.F.L.Z.(+L @+@+!+B.o+m.r++ F+",
"B+A+g n C Q +.-.^.a.i.D.M.Y.8+}.0.q.F.W.Z.@+[+1+a+l+o+D F+F+F+x+",
"B+F+# z z Q +.-.^.a.i.D.M.K._+/+q o.F.W.W.)+!+6+b+b+D A+u+- x+x+",
"F+B+A+~ C Q  .$.^.a.i.D.M. +;+$+_+c+;.&+ +)+{+l+!.t+z+r+N.F+F+F+",
"E+F+x+A+d Q  .-.(.a.i.D.M. +;+_+|+6+a+f+e+q+k+o+s+r+F+m.F+F+F+F+",
"E+F+z+F+A+y +.].(.a.i.D.M. +;+_+_+5+0+e+e+k+p+k+o+A+*+F+z+z+F+F+",
"F+A+w+F+B+A+{ X ~.a.i.D.M. +;+_+_+5+0+e+e+k+o+q+q+j F+F+z+x+F+F+",
"F+F+F+F+z+z+q+i T d.r.D.M. +;+_+_+5+0+i+i+s+s+g+| w+x+z+F+F+F+F+",
"F+F+F+F+F+F+F+r+r+J T y.K. +;+_+_+5+0+g+g+<+D A+A+t+F+z+F+F+F+F+",
"F+F+F+F+E+F+F+F+F+A+A+w+!.. u !.4.D   V F+F+F+F+F+F+F+F+F+F+F+F+"};
