/* XPM */
static char *magick[] = {
/* columns rows colors chars-per-pixel */
"32 32 163 2",
"   c #020000",
".  c #020304",
"X  c #020609",
"o  c #020b0e",
"O  c #060d0f",
"+  c #020b10",
"@  c #030f13",
"#  c #060f11",
"$  c #041317",
"%  c #041318",
"&  c #07151a",
"*  c #0a151a",
"=  c #0a191f",
"-  c #0e191d",
";  c #0e1f23",
":  c #111f25",
">  c #102026",
",  c #1a2b2f",
"<  c #13242c",
"1  c #1d323a",
"2  c #233943",
"3  c #243c47",
"4  c #27414a",
"5  c #29424e",
"6  c #2e4652",
"7  c #2f4a58",
"8  c #324e5d",
"9  c #395462",
"0  c #385667",
"q  c #3c5765",
"w  c #405a6b",
"e  c #43626d",
"r  c #466270",
"t  c #476274",
"y  c #486473",
"u  c #4b6876",
"i  c #4c687c",
"p  c #536c7f",
"a  c #54717f",
"s  c #537083",
"d  c #537589",
"f  c #5e778c",
"g  c #5b798b",
"h  c #5f7a8c",
"j  c #5d7c94",
"k  c #67798d",
"l  c #607c93",
"z  c #638196",
"x  c #67889f",
"c  c #6a8193",
"v  c #708399",
"b  c #74859b",
"n  c #78869c",
"m  c #708aa0",
"M  c #788aa1",
"N  c #7e8fa5",
"B  c #7592a9",
"V  c #7e90a7",
"C  c #be4e5e",
"Z  c #b55d6e",
"A  c #bf5362",
"S  c #bb5969",
"D  c #bd5b6a",
"F  c #bc5c6b",
"G  c #bc5f6f",
"H  c #b76071",
"J  c #b36678",
"K  c #b76579",
"L  c #b1697b",
"P  c #b46a7d",
"I  c #b56d7e",
"U  c #b86372",
"Y  c #b86576",
"T  c #b86879",
"R  c #df2f36",
"E  c #d7373f",
"W  c #de3037",
"Q  c #db333b",
"!  c #d9353d",
"~  c #dd3139",
"^  c #dc343a",
"/  c #e7272d",
"(  c #e7282e",
")  c #ea2329",
"_  c #ea242a",
"`  c #e8262d",
"'  c #e8282e",
"]  c #e32b32",
"[  c #e32c33",
"{  c #e12e34",
"}  c #e52a31",
"|  c #e42c33",
" . c #e03037",
".. c #e13038",
"X. c #cf3e47",
"o. c #ce3f49",
"O. c #d33741",
"+. c #d23a43",
"@. c #d13b44",
"#. c #d33d46",
"$. c #d63942",
"%. c #d53a44",
"&. c #d23e49",
"*. c #ca414a",
"=. c #cb434f",
"-. c #cf404a",
";. c #ce424e",
":. c #cd444f",
">. c #c24756",
",. c #c74250",
"<. c #c24758",
"1. c #c74956",
"2. c #c24d5b",
"3. c #c34f5c",
"4. c #c44a59",
"5. c #c54d5a",
"6. c #c54f5d",
"7. c #c94551",
"8. c #cc4450",
"9. c #c94956",
"0. c #ca4a59",
"q. c #c3525f",
"w. c #d0424c",
"e. c #c05364",
"r. c #a77c8e",
"t. c #aa7588",
"y. c #af7789",
"u. c #ab7c8e",
"i. c #ac7a8e",
"p. c #ad7c8e",
"a. c #ad7d91",
"s. c #b16e82",
"d. c #b27083",
"f. c #b27386",
"g. c #b17588",
"h. c #828da3",
"j. c #868ba3",
"k. c #858fa6",
"l. c #8396af",
"z. c #8497ae",
"x. c #8e91a7",
"c. c #859cb4",
"v. c #988fa5",
"b. c #9e8fa3",
"n. c #9394ab",
"m. c #9295ac",
"M. c #9691a8",
"N. c #9494aa",
"B. c #9495ad",
"V. c #9894ab",
"C. c #9b94ad",
"Z. c #9c90a8",
"A. c #90a3bd",
"S. c #93a4bf",
"D. c #a28398",
"F. c #a38499",
"G. c #a6859b",
"H. c #a68a9f",
"J. c #a28ba1",
"K. c #a48aa1",
"L. c #a18ea6",
"P. c #a391a6",
"I. c #a094ac",
/* pixels */
"                                                                ",
"                                                                ",
"                      @ 0 z c.S.A.l.j 8 X                       ",
"                  > f Z.s.S 2.4.>.C Z t.N.a $                   ",
"                u J.D ;.+.! Q ~ Q Q ! +.,.H v.9                 ",
"              x f.0.$.~ { { | | ] ] {  .Q @.5.a.d               ",
"            l I ;.! R ] } ( ( ' ( ( ( } ] R E 8.y.i             ",
"          t d.;.Q { } ( ' ` ` ` _ ` / ( ( } { ! 8.a.7           ",
"        : L.9.! { } ( ` ` _ _ _ _ / _ _ ` ( } { E 6.n.o         ",
"        h D $.{ } ( ` _ _ _ _ _ _ _ _ _ _ ` ( } R @.K y         ",
"      = J.;.~ ] ( ` _ _ _ _ _ _ _ _ _ _ _ _ ` ( ] ! 9.n.        ",
"      w Y $.{ } ` ` _ _ _ _ _ _ _ _ _ _ _ _ ` ( } ~ #.g.5       ",
"      c 3.! ] ( ` _ _ _ _ _ ) _ _ _ _ _ _ _ _ ' ( { E D p       ",
"      n.8.~ } ( ` _ _ _ _ _ _ _ _ _ _ _ _ _ _ _ ( ] Q 5.n       ",
"    o P.w.~ } ' _ _ _ _ _ _ _ _ _ _ ) ) _ _ _ _ ( } ~ 8.n.      ",
"    % H.-.~ } ( _ _ _ _ _ _ ) _ _ ) _ _ _ _ _ ` ' } ~ =.N.      ",
"    + K.-.~ } / _ _ _ _ ) ) _ ) _ ) _ _ _ _ _ ` ( } ~ =.n.      ",
"    . I.:.~ } ( ` _ _ _ ) _ _ _ ) _ ) _ _ _ _ ` ( | ~ 9.j.      ",
"      h.1.^ } ( ` _ _ _ _ _ _ _ _ _ _ _ _ _ _ ` ( { ! q.k       ",
"      p D E { ( / _ _ _ _ _ _ _ ) ) _ _ _ _ ` ` } { $.Y q       ",
"      2 p.&.W } / ` _ _ _ _ _ _ _ _ _ _ _ _ ` ( } ~ ;.H.;       ",
"        k.5.! ] ( ` ` _ _ _ _ _ _ _ _ _ _ ` / } { E e.v         ",
"        6 i.o.~ ] ( ` _ _ _ _ _ _ _ _ _ ` / } { Q 8.G.,         ",
"          m G %.W } } / ` ` _ _ _ _ ` ` ( } ] ~ &.T g           ",
"          * x.A O.W ] ( ( ( ` / ` / / ( } { ~ #.F N X           ",
"            < x.S @.Q R ] ] } } } } } { W ! ;.U V &             ",
"              : z.P 8.+.! ~ ~ ....~ ~ ! #.5.f.B #               ",
"                O s b.J <.*.X.@.#.X.*.2.L M.e .                 ",
"                    - r M Z.D.u.r.F.C.b q O                     ",
"                          # 1 4 3 1 O                           ",
"                                                                ",
"                                                                "
};
