/* XPM */
static char *render_BA_fast_math_xpm[]={
"32 32 138 2",
"      c #B5B5B5",
" 0    c #B8B8B8",
" 1    c #B6B6B6",
" 2    c #ADADAD",
" 3    c #A8A8A8",
" 4    c #242424",
" 5    c #373737",
" 6    c #BBBBBB",
" 7    c #BDBDBD",
" 8    c #989898",
" 9    c #000000",
" a    c #626262",
" b    c #C0C0C0",
" c    c #B7B7B7",
" d    c #929292",
" e    c #868686",
" f    c #AEAEAE",
" g    c #686868",
" h    c #959595",
" i    c #272727",
" j    c #9A9A9A",
" k    c #BABABA",
" l    c #BCBCBC",
" m    c #2F2F2F",
" n    c #161616",
" o    c #B4B4B4",
" p    c #2C2C2C",
" q    c #9B9B9B",
" r    c #B9B9B9",
" s    c #050505",
" t    c #4B4B4B",
" u    c #BFBFBF",
" v    c #2D2D2D",
" w    c #9E9E9E",
" x    c #BEBEBE",
" y    c #7F7F7F",
" z    c #818181",
" A    c #A9A9A9",
" B    c #292929",
" C    c #909090",
" D    c #B0B0B0",
" E    c #494949",
" F    c #060606",
" G    c #B1B1B1",
" H    c #A4A4A4",
" I    c #0E0E0E",
" J    c #040404",
" K    c #010101",
" L    c #747474",
" M    c #B3B3B3",
" N    c #141414",
" O    c #313131",
" P    c #7C7C7C",
" Q    c #333333",
" R    c #2B2B2B",
" S    c #0B0B0B",
" T    c #252525",
" U    c #828282",
" V    c #949494",
" W    c #696969",
" X    c #898989",
" Y    c #616161",
" Z    c #C2C2C2",
" &    c #2E2E2E",
"0     c #A1A1A1",
"00    c #C1C1C1",
"01    c #636363",
"02    c #999999",
"03    c #1A1A1A",
"04    c #A5A5A5",
"05    c #030303",
"06    c #505050",
"07    c #363636",
"08    c #0D0D0D",
"09    c #9D9D9D",
"0a    c #7B7B7B",
"0b    c #858585",
"0c    c #ABABAB",
"0d    c #444444",
"0e    c #090909",
"0f    c #ACACAC",
"0g    c #AFAFAF",
"0h    c #343434",
"0i    c #B2B2B2",
"0j    c #9C9C9C",
"0k    c #D5D5D5",
"0l    c #EDEDED",
"0m    c #EFEFEF",
"0n    c #EEEEEE",
"0o    c #ECECEC",
"0p    c #D4D4D4",
"0q    c #C8C8C8",
"0r    c #E6E6E6",
"0s    c #C9C9C9",
"0t    c #CBCBCB",
"0u    c #D1D1D1",
"0v    c #F9F9F9",
"0w    c #D7D7D7",
"0x    c #DEDEDE",
"0y    c #FDFDFD",
"0z    c #E8E8E8",
"0A    c #E5E5E5",
"0B    c #E3E3E3",
"0C    c #AAAAAA",
"0D    c #DADADA",
"0E    c #F1F1F1",
"0F    c #F5F5F5",
"0G    c #F7F7F7",
"0H    c #E7E7E7",
"0I    c #DBDBDB",
"0J    c #D0D0D0",
"0K    c #EAEAEA",
"0L    c #DFDFDF",
"0M    c #E2E2E2",
"0N    c #FBFBFB",
"0O    c #F4F4F4",
"0P    c #FAFAFA",
"0Q    c #D6D6D6",
"0R    c #A7A7A7",
"0S    c #F8F8F8",
"0T    c #E0E0E0",
"0U    c #FEFEFE",
"0V    c #DDDDDD",
"0W    c #FFFFFF",
"0X    c #CECECE",
"0Y    c #E4E4E4",
"0Z    c #C4C4C4",
"0&    c #DCDCDC",
"1     c #D3D3D3",
"10    c #D2D2D2",
"11    c #C3C3C3",
"12    c #F0F0F0",
"13    c #CCCCCC",
"14    c #FCFCFC",
"15    c #F3F3F3",
"16    c #CACACA",
"17    c #C5C5C5",
"18    c #C6C6C6",
"                                                                ",
"                                                                ",
"                                                                ",
"                                                                ",
"                                       0 0                      ",
"                                     1 2 3                      ",
"                                   1 1 4 5 6                    ",
"             6 7 1                 6 8 9 a b                    ",
"           c d e f 1               b g 9 h 6                    ",
"           6 i 9 j k               l m n o 1                    ",
"           6 p 9 q k             r 3 s t b                      ",
"     0 0 0 u v 9 w x 0 0 1       x y 9 z x   1 0 0 0 0 0 c      ",
"   o A 3 3 f B 9 C 2 3 3 D 1     b E F A 0 1 G 3 3 3 3 3 2 1    ",
" r H I J J s K 9 J s J J L u   c M N O 7   x P J J J J J E x    ",
" 0 3 Q R R v S 9 T p R R U 7   6 V 9 W b   l X R R R R R Y l    ",
"   1 6 6 6 Z & 90 00 6 6 c     b01 902 6     c 6 6 6 6 6 r      ",
"           6 p 9 q k           l R03 1 1                        ",
"           6 B 9 q k         r040506 b                          ",
"           6070809 k         u0a 90b 7                          ",
"            0c 3 M           u0d0e0f 0                          ",
"             0 0           c0g0e0h x                            ",
"   M0i M M0i G           o c0j v P 7                            ",
"0i0k0l0m0n0o0p o       M000l0q 0 r                              ",
" G0r0m0s0t0u0v0w G     D0x0y0z0i                                ",
" G0A0B0f D0C0D0E0i   o 00F0u0G00 M                              ",
" G0A0H 0 6 x0l0I G   G0J0F G0K0L D                              ",
" G0M0N0O0O0P0P l0i  0i0l0Q0R0s0S c o                            ",
" G0A0H 0 6 l0T0E c0i u0U0r0V0M0W0X G                            ",
" G0A0Y0g o G l0U0Z f0D0O0&0L0&0l0l0i                            ",
" G0A0Y f0i G1 0y l o0G100f D 2110W110i                          ",
" G0Y0N0n0n120v1 0g1314 k o     M150Y G                          ",
" o b0s131316 l0i o b17 o       o b18                            "};
