/* XPM */
static char *magick[] = {
/* columns rows colors chars-per-pixel */
"32 32 245 2",
"   c #000658",
".  c #03095a",
"X  c #0a0f5d",
"o  c #111761",
"O  c #22266a",
"+  c #24296c",
"@  c #2e3371",
"#  c #3d3b7c",
"$  c #0f520b",
"%  c #0f570b",
"&  c #0f5116",
"*  c #105300",
"=  c #105400",
"-  c #105900",
";  c #115d00",
":  c #155800",
">  c #105b0b",
",  c #105f0b",
"<  c #1b5b06",
"1  c #1c5c08",
"2  c #116200",
"3  c #116500",
"4  c #10640b",
"5  c #126900",
"6  c #126e00",
"7  c #116711",
"8  c #127200",
"9  c #137600",
"0  c #137a00",
"q  c #137e00",
"w  c #117d32",
"e  c #266213",
"r  c #2b6619",
"t  c #2e7100",
"y  c #356b23",
"u  c #326a21",
"i  c #386d27",
"p  c #3f722f",
"a  c #0e6642",
"s  c #2a437f",
"d  c #3f437a",
"f  c #5e3900",
"g  c #660000",
"h  c #6d0f0f",
"j  c #6d1010",
"k  c #701515",
"l  c #731c1c",
"z  c #751e1e",
"x  c #772424",
"c  c #7b2c2c",
"v  c #7c2e2e",
"b  c #792929",
"n  c #7e3333",
"m  c #7f3535",
"M  c #424b00",
"N  c #5b6a00",
"B  c #436a36",
"V  c #467636",
"C  c #49783a",
"Z  c #4c7a3e",
"A  c #784100",
"S  c #7f7a00",
"D  c #667e3f",
"F  c #4a5164",
"G  c #537e46",
"H  c #132798",
"J  c #122994",
"K  c #1d2d90",
"L  c #112da0",
"P  c #1834a3",
"I  c #0129c8",
"U  c #022dd0",
"Y  c #0234c7",
"T  c #033bd3",
"R  c #002ae1",
"E  c #002def",
"W  c #002ff9",
"Q  c #002ffc",
"!  c #0133f4",
"~  c #0134f4",
"^  c #0033fb",
"/  c #0030ff",
"(  c #0650b7",
")  c #0c798c",
"_  c #0963a1",
"`  c #0442cb",
"'  c #515584",
"]  c #5c5f8a",
"[  c #595d89",
"{  c #60638c",
"}  c #65688f",
"|  c #6a6d92",
" . c #7a6485",
".. c #797c9a",
"X. c #138100",
"o. c #148200",
"O. c #148500",
"+. c #148900",
"@. c #158d00",
"#. c #159200",
"$. c #159500",
"%. c #139d00",
"&. c #169900",
"*. c #169d00",
"=. c #149924",
"-. c #16a200",
";. c #17a600",
":. c #17a900",
">. c #17ad00",
",. c #1ba400",
"<. c #18ae00",
"1. c #18b200",
"2. c #18b600",
"3. c #18ba00",
"4. c #19be00",
"5. c #17b813",
"6. c #2d9608",
"7. c #398e0b",
"8. c #3b8b10",
"9. c #0f9277",
"0. c #19c200",
"q. c #1ac600",
"w. c #19c900",
"e. c #1ace00",
"r. c #1ad100",
"t. c #1bd600",
"y. c #1ad507",
"u. c #1bda00",
"i. c #1bde00",
"p. c #1be100",
"a. c #1ce200",
"s. c #1ce500",
"d. c #1cea00",
"f. c #1dee00",
"g. c #1df200",
"h. c #1df500",
"j. c #34cf00",
"k. c #45850f",
"l. c #439d00",
"z. c #53832e",
"x. c #58814b",
"c. c #5a824d",
"v. c #618756",
"b. c #628a55",
"n. c #678a5c",
"m. c #65895a",
"M. c #688b5d",
"N. c #6a8c5f",
"B. c #6d8e63",
"V. c #6f8f65",
"C. c #7b8479",
"Z. c #739169",
"A. c #74926b",
"S. c #7a9672",
"D. c #7f819d",
"F. c #922700",
"G. c #833e3e",
"H. c #843f3f",
"J. c #813939",
"K. c #9e3737",
"L. c #be0f0f",
"P. c #b41515",
"I. c #af2e00",
"U. c #b33939",
"Y. c #b73a3a",
"T. c #994e00",
"R. c #b25100",
"E. c #874646",
"W. c #894949",
"Q. c #8f5858",
"!. c #966666",
"~. c #9c7272",
"^. c #9d7575",
"/. c #9f7a7a",
"(. c #ba4040",
"). c #bb4646",
"_. c #ba5f5f",
"`. c #a07677",
"'. c #a07b7b",
"]. c #a27f7f",
"[. c #b06464",
"{. c #c70000",
"}. c #c2020a",
"|. c #c91700",
" X c #d10000",
".X c #de0000",
"XX c #d01615",
"oX c #c63300",
"OX c #ef0000",
"+X c #e31400",
"@X c #fa0200",
"#X c #f90600",
"$X c Red",
"%X c #f00712",
"&X c #f00c16",
"*X c #8f888e",
"=X c #80829e",
"-X c #8486a0",
";X c #888aa2",
":X c #8d8ea5",
">X c #8f91a6",
",X c #9596a9",
"<X c #9a9cac",
"1X c #8ba084",
"2X c #90a38b",
"3X c #94a58e",
"4X c #92a58d",
"5X c #97a791",
"6X c #96a594",
"7X c #98a993",
"8X c #9aaa96",
"9X c #9baa9a",
"0X c #9dab99",
"qX c #9fa0a3",
"wX c #a98e8e",
"eX c #ab9292",
"rX c #af9a9a",
"tX c #b78f8f",
"yX c #b39696",
"uX c #a0a0a0",
"iX c #a4a4a5",
"pX c #acacac",
"aX c #a6a7b2",
"sX c #a9aab4",
"dX c #abacb5",
"fX c #adaeb6",
"gX c #a7b1a3",
"hX c #adb5ab",
"jX c #b1a0a0",
"kX c #b5a7a7",
"lX c #b7abab",
"zX c #b0b7ae",
"xX c #b7b7b7",
"cX c #b2b2b9",
"vX c #b5bab3",
"bX c #b7bbb6",
"nX c #bbb5b5",
"mX c #bcb6b6",
"MX c #bab2b2",
"NX c #b9bcb9",
"BX c #beb9b9",
"VX c #bebebf",
"CX c #bcc2bb",
"ZX c #bec1bd",
"AX c #c1c1c1",
/* pixels */
"AXAXAXAXAXAXAXAXAXAXAXAXAXAXAXAXAXAXAXAXAXAXAXAXAXAXAXAXAXAXAXAX",
"AXAXAXAXAXAXAXeXl ].AXAXAXAXAXAXAXAXAXAXAXAXAXAXAXAXAXAXAXAXAXAX",
"AXAXAXAXAXAXAX!.g ~.AXAXAXAXAXAXAXAXAXAXAXAXAXAXAXAXNXAXAXAXAXAX",
"AXAXAXAXAXAXAXG.g lXAXAXAXAXAXAXAXAXAXAXAXAXAXAXAXV.: 5XAXAXAXAX",
"AXAXAXAXAXAXAXj g AXAXAXAXAXAXAXAXAXAXAXAXAXAXAXA.: : 7XAXAXAXAX",
"AXAXAXAXAXAXmXg x AXAXAXAXAXAXAXAXAXAXAXAXAXAXB.: e zXAXAXAXAXAX",
"AXAXAXAXAXAXrXg Q.AXAXAXAXAXAXAXAXAXAXAXAXAXn.: r vXAXAXAXAXAXAX",
"AXAXAXmXBXAX^.g '.AXAXAXAXAXhX7XbXAXAXAXAXv.: u NXAXAXAXAXAXAXAX",
"AXAXnXg l AXW.g jXAXAXAXAXAXv.: 2XAXAXAXc.: i VXAXAXAXAXAXAXAXAX",
"AXAXBXJ.g m l g AX/.c kXAXAXb.: 4XAXAXG : p AXAXAXAXAXAXAXAXAXAX",
"AXAXAXAXE.g g h n g g wXAXAXM.: 3XAXZ : V AXAXAXAXAXAXAXAXAXAXAX",
"AXAXAXAXAXb g g g H.kXAXAXAXM.: 3XV : Z AXAXAXAXAXAXAXAXAXAXAXAX",
"AXAXAXAXAXMXv k wXAXAXAXAXAXM.: y : G AXAXAXAXAXAXAXAXAXAXAXAXAX",
"AXAXyX[.).Y.U.(._.tXNXAXAXAXx.: : C 7X7X0XgXAXAXAXAXAXAXAXAXAXAX",
"`.K.P.{. X.X.X X{.L.k.z.9XAX5X< : : : : : 1 AXAXAXAXAXAXAXAXAXAX",
"}.OX$X$X$X$X$X$X$XR.g.w.%.D xX1XZ.V.B.B.m.S.AXAXAXAXAXAXAXAXAXAX",
"%X$X$X$X$X$X$X$X#Xj.f.g.h.e.8.uXAXAXAXAXAXAXAXAXAXAXAXAXAXAXAXAX",
"&X$X$X$X$X$X$X$XS i.s.d.f.h.g.6.6XAXAXAXAXAXAXAXAXAXAXAXAXAXAXAX",
"&X$X$X$X$X$X$XoXr.t.i.a.d.f.g.g.7.pXAXAXAXAXAXAXAXAXAXAXAXAXAXAX",
"&X$X$X$X$X$X$Xl.w.e.t.u.a.s.d.g.p.B xXAXAXAXfXfXAXAXAXAXAXAXAXAX",
"&X$X$X$X$X$XT.3.4.q.e.r.u.i.s.d.f.Y C.AXAXAXo   VXAXAXAXAXAXAXAX",
"&X$X$X$X$X+X,.>.2.4.0.w.r.t.i.a.9./ s pXAXdX  + AXAXAXAXfX:X} cX",
"&X$X$X$X$XN *.;.>.1.3.0.w.e.t.y.^ / I *XVX]   ..,X| d o       ;X",
"&X$X$X$XI.@.$.*.-.:.1.2.4.q.e.) / / R F pXX             @ { -XcX",
"&X$X$X@Xt O.@.#.&.-.;.<.2.4.5./ / / W s qX    O [ D.aXAXAXAXAXAX",
"&X$X$XA 9 q O.+.#.&.*.;.>.1._ / / / / P iX'     >XAXAXAXAXAXAXAX",
"&X$X|.5 6 9 0 X.+.@.$.*.-.=./ / / / W L iXAX=X    } VXAXAXAXAXAX",
"&X$XM 2 5 6 8 0 q O.@.#.&.( / / / / W J uXAXAX<X  . VXAXAXAXAXAX",
"&XF.- ; 2 3 5 8 9 q o.+.w / / / / / W H uXAXAXAXaXsXAXAXAXAXAXAX",
"XX* = - ; 2 3 5 6 9 0 o.` / / / / / Q K uXAXAXAXAXAXAXAXAXAXAXAX",
"f = = = = - ; 2 5 6 8 a / / / / / / E # pXAXAXAXAXAXAXAXAXAXAXAX",
"& $ $ $ $ $ % > , 4 7 T ! ! ~ ~ ~ ~ U  .VXZXZXZXZXAXCXAXAXAXAXAX"
};
