/* XPM */
static char * hairIcon_xpm[] = {
"32 32 729 2",
"  	c None",
". 	c #C1C1C1",
"+ 	c #C3C3C2",
"@ 	c #BEBEBB",
"# 	c #BDBFBB",
"$ 	c #A0A198",
"% 	c #B9B9B5",
"& 	c #BABAB2",
"* 	c #BABBB9",
"= 	c #C1C0BE",
"- 	c #B6B4AD",
"; 	c #C0C0B4",
"> 	c #BDBEB4",
", 	c #B5B6A2",
"' 	c #8C8C71",
") 	c #A5A495",
"! 	c #ADAC9F",
"~ 	c #BFBEB6",
"{ 	c #BBBBAF",
"] 	c #BEBFBB",
"^ 	c #B7B8B6",
"/ 	c #B7B6AB",
"( 	c #C2C2B9",
"_ 	c #ADA998",
": 	c #ABA889",
"< 	c #7C7E66",
"[ 	c #9C9B80",
"} 	c #A7A699",
"| 	c #9E9C7C",
"1 	c #7D795D",
"2 	c #8E9076",
"3 	c #A3A192",
"4 	c #BCBCB1",
"5 	c #D0CFB9",
"6 	c #C5C3B5",
"7 	c #C5C4C3",
"8 	c #C6C5BB",
"9 	c #BBBBB9",
"0 	c #BBBCB5",
"a 	c #A6A896",
"b 	c #9F9E8A",
"c 	c #8F8E74",
"d 	c #A4A480",
"e 	c #A39E85",
"f 	c #ABAB86",
"g 	c #8E8F75",
"h 	c #B1AE8A",
"i 	c #726F56",
"j 	c #8B8A6B",
"k 	c #BAB69B",
"l 	c #92917A",
"m 	c #A2A083",
"n 	c #B3B59A",
"o 	c #BFBFB2",
"p 	c #B8B7A4",
"q 	c #BBBBB4",
"r 	c #C4C2BE",
"s 	c #C2C3BB",
"t 	c #BAB9B5",
"u 	c #A9A99B",
"v 	c #AEAF96",
"w 	c #909176",
"x 	c #B9B797",
"y 	c #A6A480",
"z 	c #DAD3AE",
"A 	c #CACC9C",
"B 	c #8C8B6A",
"C 	c #88866F",
"D 	c #727055",
"E 	c #7E7A60",
"F 	c #A5A080",
"G 	c #717253",
"H 	c #C4C09B",
"I 	c #C3C4A3",
"J 	c #99987F",
"K 	c #B7B69E",
"L 	c #CDCCBB",
"M 	c #C5C3BD",
"N 	c #B8B9B7",
"O 	c #C4C4C2",
"P 	c #C7C8C1",
"Q 	c #BDC1AC",
"R 	c #BABAA0",
"S 	c #9C9A7F",
"T 	c #ADAD93",
"U 	c #C7C4A4",
"V 	c #989477",
"W 	c #91926B",
"X 	c #CEC896",
"Y 	c #C4C794",
"Z 	c #A2A475",
"` 	c #A19E81",
" .	c #676249",
"..	c #BAB385",
"+.	c #797959",
"@.	c #949670",
"#.	c #C1BD9D",
"$.	c #AAAB89",
"%.	c #999B76",
"&.	c #9D9E7E",
"*.	c #BFBEA1",
"=.	c #B5B8A6",
"-.	c #B8B9B4",
";.	c #B8BAB1",
">.	c #D2D4B3",
",.	c #BAB994",
"'.	c #BCBC97",
").	c #C0BB98",
"!.	c #BAB792",
"~.	c #D2D2A9",
"{.	c #B4B487",
"].	c #D9D0A4",
"^.	c #B6BB8B",
"/.	c #9D9D75",
"(.	c #92916D",
"_.	c #807C66",
":.	c #BCB698",
"<.	c #7F8058",
"[.	c #BDBB8F",
"}.	c #CBC9A7",
"|.	c #888768",
"1.	c #A8A985",
"2.	c #B3B18C",
"3.	c #A9AB8F",
"4.	c #B3B59E",
"5.	c #C2C2BB",
"6.	c #BFBFBC",
"7.	c #C0C1BE",
"8.	c #C0C0B1",
"9.	c #C5C3A8",
"0.	c #CECEA9",
"a.	c #D2D1A5",
"b.	c #C2C095",
"c.	c #A6A57F",
"d.	c #CFC89D",
"e.	c #9E9E7B",
"f.	c #C5BD8E",
"g.	c #B8B588",
"h.	c #898A74",
"i.	c #9E9F78",
"j.	c #96947F",
"k.	c #86806A",
"l.	c #949073",
"m.	c #C4C19E",
"n.	c #B7B391",
"o.	c #969773",
"p.	c #AEAC88",
"q.	c #ACAE8C",
"r.	c #BDBE9E",
"s.	c #A2A388",
"t.	c #A7A695",
"u.	c #BBBAB8",
"v.	c #C6C6C0",
"w.	c #C5C6BB",
"x.	c #D6D7C8",
"y.	c #DEDDB7",
"z.	c #BAB98E",
"A.	c #A7A581",
"B.	c #C0BE9A",
"C.	c #C7C3A4",
"D.	c #AAA481",
"E.	c #AEA97D",
"F.	c #A09D7B",
"G.	c #C6C494",
"H.	c #A9A87B",
"I.	c #C2C792",
"J.	c #7D7D6D",
"K.	c #827D63",
"L.	c #9E997E",
"M.	c #BCB68B",
"N.	c #AEA985",
"O.	c #B6B38F",
"P.	c #9F9C78",
"Q.	c #989977",
"R.	c #A5A079",
"S.	c #A4A188",
"T.	c #BEBDA1",
"U.	c #B6B5A8",
"V.	c #C4C4C1",
"W.	c #C6C6C4",
"X.	c #C4C4B6",
"Y.	c #D0D0C9",
"Z.	c #D5D5BD",
"`.	c #E9E7BE",
" +	c #D7D8AD",
".+	c #BDB78F",
"++	c #9D9C7C",
"@+	c #C6C599",
"#+	c #D4D2AB",
"$+	c #9D9874",
"%+	c #B0B089",
"&+	c #CDCBA1",
"*+	c #AEB17F",
"=+	c #8D906F",
"-+	c #6C6C56",
";+	c #B2A57F",
">+	c #BBAF83",
",+	c #B5AB85",
"'+	c #989271",
")+	c #8E8C68",
"!+	c #76785A",
"~+	c #8A8964",
"{+	c #A9A67D",
"]+	c #C6C39E",
"^+	c #C8C69E",
"/+	c #C6C5AF",
"(+	c #BBBBB7",
"_+	c #C4C3B7",
":+	c #CFCEB1",
"<+	c #CCCBAC",
"[+	c #D2CFA7",
"}+	c #D9D6AB",
"|+	c #E4E0AA",
"1+	c #B9B987",
"2+	c #979877",
"3+	c #9C9777",
"4+	c #A19C76",
"5+	c #878669",
"6+	c #ABAA85",
"7+	c #9B9E77",
"8+	c #707158",
"9+	c #646853",
"0+	c #E5DBAC",
"a+	c #99967A",
"b+	c #9A906B",
"c+	c #908E6D",
"d+	c #75745C",
"e+	c #919075",
"f+	c #908A6C",
"g+	c #D4D1A7",
"h+	c #BDBC95",
"i+	c #8E8D71",
"j+	c #D5D6B8",
"k+	c #BBBDA9",
"l+	c #BBBBB5",
"m+	c #C6C6C3",
"n+	c #CFCFC2",
"o+	c #ECE9C9",
"p+	c #C7C8A1",
"q+	c #B6B895",
"r+	c #C4BE96",
"s+	c #EEE8AE",
"t+	c #AAA97D",
"u+	c #7D7D6A",
"v+	c #9C9B7A",
"w+	c #C6C49A",
"x+	c #A9A480",
"y+	c #93936F",
"z+	c #8D9273",
"A+	c #696656",
"B+	c #89836E",
"C+	c #B4B192",
"D+	c #BDB68E",
"E+	c #848569",
"F+	c #888268",
"G+	c #929178",
"H+	c #B2AF89",
"I+	c #AAA77C",
"J+	c #B9B491",
"K+	c #A9A882",
"L+	c #D3D5AE",
"M+	c #CACAB2",
"N+	c #D5D5C4",
"O+	c #C6C6C6",
"P+	c #DEDDBE",
"Q+	c #D9D9B8",
"R+	c #A2A785",
"S+	c #A5A784",
"T+	c #C3BC92",
"U+	c #CCC79F",
"V+	c #BDBA9C",
"W+	c #B1B2A0",
"X+	c #97957B",
"Y+	c #999770",
"Z+	c #7B7964",
"`+	c #75715C",
" @	c #98986D",
".@	c #72705F",
"+@	c #53514C",
"@@	c #B0AC8B",
"#@	c #918B6C",
"$@	c #7E7968",
"%@	c #989574",
"&@	c #CBC79C",
"*@	c #979875",
"=@	c #CFCEA5",
"-@	c #C7C89A",
";@	c #D0CFA4",
">@	c #A2A37F",
",@	c #BCBEA5",
"'@	c #E0E1C3",
")@	c #D0D0C5",
"!@	c #CFCEC9",
"~@	c #C3C1AB",
"{@	c #CCCBB2",
"]@	c #B5B492",
"^@	c #C8C79E",
"/@	c #AFAC8B",
"(@	c #999375",
"_@	c #C5C19B",
":@	c #AEAD8E",
"<@	c #8B866E",
"[@	c #8E8D68",
"}@	c #696754",
"|@	c #626058",
"1@	c #6D6A58",
"2@	c #6F6C5D",
"3@	c #625E55",
"4@	c #7A7963",
"5@	c #B9B48B",
"6@	c #9F9773",
"7@	c #B8B689",
"8@	c #868369",
"9@	c #A4A172",
"0@	c #A49F76",
"a@	c #BCB88F",
"b@	c #E6E4BC",
"c@	c #DDDBBC",
"d@	c #BABAA1",
"e@	c #CBCAC3",
"f@	c #B8B8B3",
"g@	c #A1A28B",
"h@	c #CACCA9",
"i@	c #BAB791",
"j@	c #CDCAA7",
"k@	c #C2BF96",
"l@	c #A19C7C",
"m@	c #8C896C",
"n@	c #B4B38A",
"o@	c #8A8562",
"p@	c #908F66",
"q@	c #64634D",
"r@	c #5F605F",
"s@	c #878678",
"t@	c #545451",
"u@	c #787765",
"v@	c #A4A07D",
"w@	c #686956",
"x@	c #696758",
"y@	c #9F9B82",
"z@	c #888467",
"A@	c #8E8A60",
"B@	c #716B50",
"C@	c #B6AE83",
"D@	c #BBB78D",
"E@	c #D7D6A5",
"F@	c #C6C6A2",
"G@	c #C7C8A9",
"H@	c #D5D5C6",
"I@	c #CBCBC8",
"J@	c #A7A79D",
"K@	c #C0C1A1",
"L@	c #B5B393",
"M@	c #C6C59F",
"N@	c #BABA98",
"O@	c #A2A47E",
"P@	c #8C8A70",
"Q@	c #8F8C6C",
"R@	c #7C7860",
"S@	c #A8A187",
"T@	c #676761",
"U@	c #888972",
"V@	c #928D6E",
"W@	c #6B6C66",
"X@	c #757260",
"Y@	c #8A8679",
"Z@	c #646457",
"`@	c #84836D",
" #	c #747264",
".#	c #52524A",
"+#	c #5A5B50",
"@#	c #63604F",
"##	c #B1A776",
"$#	c #CBC591",
"%#	c #BDBD93",
"&#	c #AEAD8F",
"*#	c #A6AA90",
"=#	c #C0C1B8",
"-#	c #BFBFB8",
";#	c #B6B59D",
">#	c #B6B59B",
",#	c #B0AC8F",
"'#	c #AEAF8B",
")#	c #9C9B75",
"!#	c #98977A",
"~#	c #767460",
"{#	c #74715C",
"]#	c #A09C84",
"^#	c #A7A28A",
"/#	c #717263",
"(#	c #8B8D70",
"_#	c #84816C",
":#	c #69675F",
"<#	c #636455",
"[#	c #67665A",
"}#	c #52514B",
"|#	c #6F6F5D",
"1#	c #B0AB90",
"2#	c #858868",
"3#	c #6F6E56",
"4#	c #AFAC82",
"5#	c #A5A47D",
"6#	c #B3AD88",
"7#	c #C0B99A",
"8#	c #BCBD9E",
"9#	c #D9DAC1",
"0#	c #DCDDC8",
"a#	c #C6C5C5",
"b#	c #C0BFBC",
"c#	c #A5A48D",
"d#	c #B3B198",
"e#	c #B7B593",
"f#	c #B7B795",
"g#	c #B1AD86",
"h#	c #8F8A70",
"i#	c #928C70",
"j#	c #8C8B6F",
"k#	c #7D7C65",
"l#	c #7E7D6D",
"m#	c #7A7863",
"n#	c #6E7065",
"o#	c #6B6955",
"p#	c #636252",
"q#	c #474744",
"r#	c #515240",
"s#	c #575645",
"t#	c #6C6B5A",
"u#	c #908E71",
"v#	c #7F7E61",
"w#	c #77735C",
"x#	c #96957C",
"y#	c #9B9774",
"z#	c #A8A77C",
"A#	c #BAB694",
"B#	c #B1B38B",
"C#	c #C3C3A9",
"D#	c #C4C5AE",
"E#	c #C0BFBD",
"F#	c #9FA28E",
"G#	c #B7B396",
"H#	c #CBC8A7",
"I#	c #D7D0B1",
"J#	c #A29E80",
"K#	c #9C987F",
"L#	c #747561",
"M#	c #918F70",
"N#	c #797763",
"O#	c #8F8D6E",
"P#	c #787461",
"Q#	c #8E8B79",
"R#	c #86876D",
"S#	c #615D49",
"T#	c #77775F",
"U#	c #58584B",
"V#	c #747256",
"W#	c #8F8E70",
"X#	c #77755F",
"Y#	c #898468",
"Z#	c #8C8B67",
"`#	c #8E8C6C",
" $	c #B4B691",
".$	c #ACAC90",
"+$	c #B8B9AB",
"@$	c #C1C1BE",
"#$	c #BBBDB6",
"$$	c #B0B2A8",
"%$	c #BFB98F",
"&$	c #C6C19A",
"*$	c #B0AF8F",
"=$	c #ACAB8B",
"-$	c #9A9D83",
";$	c #959271",
">$	c #98977F",
",$	c #B9B68D",
"'$	c #707058",
")$	c #817E69",
"!$	c #9F9D7D",
"~$	c #A4A078",
"{$	c #60605A",
"]$	c #88866B",
"^$	c #666554",
"/$	c #73725A",
"($	c #747359",
"_$	c #9B9B78",
":$	c #8A8B6D",
"<$	c #989476",
"[$	c #A09F7D",
"}$	c #7C7B61",
"|$	c #D5D8AA",
"1$	c #CCCEAA",
"2$	c #BCBDAB",
"3$	c #BDBDB8",
"4$	c #BEBFB8",
"5$	c #C9C8BE",
"6$	c #BFBCA3",
"7$	c #BFC29A",
"8$	c #989B77",
"9$	c #A9A984",
"0$	c #A8A787",
"a$	c #AEAC8F",
"b$	c #8A8C6B",
"c$	c #76755E",
"d$	c #6D6958",
"e$	c #74745C",
"f$	c #8C8C77",
"g$	c #B5AF8A",
"h$	c #5F5F54",
"i$	c #BFBA99",
"j$	c #767561",
"k$	c #7A7B61",
"l$	c #8D906E",
"m$	c #757456",
"n$	c #858367",
"o$	c #AEAB86",
"p$	c #AAA98A",
"q$	c #AFAD84",
"r$	c #B4B190",
"s$	c #CED2A9",
"t$	c #C0BFB5",
"u$	c #BEBDAE",
"v$	c #A2A594",
"w$	c #9E9F85",
"x$	c #939274",
"y$	c #A4A383",
"z$	c #95947C",
"A$	c #959172",
"B$	c #8F8C6B",
"C$	c #8A8465",
"D$	c #616151",
"E$	c #6F6E59",
"F$	c #93926F",
"G$	c #7A775F",
"H$	c #656356",
"I$	c #98957B",
"J$	c #93906A",
"K$	c #979779",
"L$	c #787761",
"M$	c #808260",
"N$	c #93956B",
"O$	c #ADAD88",
"P$	c #B3B091",
"Q$	c #AAA987",
"R$	c #CDCCAA",
"S$	c #BFBFA6",
"T$	c #B0B39D",
"U$	c #C0C0B5",
"V$	c #C3C4C0",
"W$	c #B1B2AA",
"X$	c #ADAFA4",
"Y$	c #B8B6A2",
"Z$	c #B1B090",
"`$	c #9E9D80",
" %	c #97967D",
".%	c #B4B293",
"+%	c #989472",
"@%	c #8B8967",
"#%	c #818265",
"$%	c #7D775E",
"%%	c #A9A580",
"&%	c #817B5E",
"*%	c #93916A",
"=%	c #7A7961",
"-%	c #9C9C74",
";%	c #A4A184",
">%	c #88856C",
",%	c #8E906D",
"'%	c #727456",
")%	c #686B4F",
"!%	c #7F7E65",
"~%	c #929474",
"{%	c #9B9D7A",
"]%	c #8E8B6D",
"^%	c #BFC1B1",
"/%	c #C4C5C3",
"(%	c #B5B6A6",
"_%	c #A3A48B",
":%	c #817F6C",
"<%	c #B3B49D",
"[%	c #8E8C6E",
"}%	c #6D6F4F",
"|%	c #6E6C52",
"1%	c #67674F",
"2%	c #7B7761",
"3%	c #9FA07D",
"4%	c #79775D",
"5%	c #A09E7C",
"6%	c #807D6B",
"7%	c #86826A",
"8%	c #89876F",
"9%	c #7E7A66",
"0%	c #6D6C56",
"a%	c #81826A",
"b%	c #67674D",
"c%	c #7B7D63",
"d%	c #707259",
"e%	c #7F7D61",
"f%	c #ACABA5",
"g%	c #BAB9B6",
"h%	c #ACAEA3",
"i%	c #8E8F77",
"j%	c #706D5D",
"k%	c #767762",
"l%	c #717353",
"m%	c #737454",
"n%	c #969380",
"o%	c #5C5B48",
"p%	c #5C5845",
"q%	c #8B8A6F",
"r%	c #686551",
"s%	c #7D7B68",
"t%	c #8E8E78",
"u%	c #504D3C",
"v%	c #757158",
"w%	c #8D896F",
"x%	c #605F4A",
"y%	c #858769",
"z%	c #6E7059",
"A%	c #6A6D56",
"B%	c #95967A",
"C%	c #92927B",
"D%	c #979989",
"E%	c #B1B2A5",
"F%	c #BABAB7",
"G%	c #918F7F",
"H%	c #797863",
"I%	c #67694F",
"J%	c #6D7057",
"K%	c #777562",
"L%	c #615F4D",
"M%	c #585743",
"N%	c #4D4C3E",
"O%	c #797965",
"P%	c #757460",
"Q%	c #424132",
"R%	c #464735",
"S%	c #63634C",
"T%	c #84816A",
"U%	c #7A7A63",
"V%	c #94957A",
"W%	c #898B74",
"X%	c #80806F",
"Y%	c #ABA899",
"Z%	c #A6A69F",
"`%	c #B3B5B1",
" &	c #C2C2C0",
".&	c #BCBBB4",
"+&	c #83827A",
"@&	c #9B9B90",
"#&	c #525341",
"$&	c #81836D",
"%&	c #7F7E6A",
"&&	c #706E62",
"*&	c #585745",
"=&	c #4D4D3D",
"-&	c #5C5D4F",
";&	c #575245",
">&	c #696958",
",&	c #484539",
"'&	c #3E3E30",
")&	c #4D4C39",
"!&	c #5E5B49",
"~&	c #73705E",
"{&	c #555644",
"]&	c #888774",
"^&	c #ADAFA2",
"/&	c #AFB1A6",
"(&	c #B4B3AA",
"_&	c #BDBDBB",
":&	c #B9B8B7",
"<&	c #B2B2AD",
"[&	c #B6B6B2",
"}&	c #9C9B95",
"|&	c #87887D",
"1&	c #8C897C",
"2&	c #5A5A49",
"3&	c #4E4F43",
"4&	c #5D5D49",
"5&	c #444237",
"6&	c #434135",
"7&	c #2B2920",
"8&	c #615F54",
"9&	c #4E4C3A",
"0&	c #5D5F46",
"a&	c #595848",
"b&	c #585845",
"c&	c #707061",
"d&	c #7E7E6F",
"e&	c #8D8D83",
"f&	c #BFBDBD",
"g&	c #BCBBB9",
"h&	c #9E9D96",
"i&	c #8F8E87",
"j&	c #6B6C62",
"k&	c #898B7C",
"l&	c #414137",
"m&	c #3D3D30",
"n&	c #2C2A22",
"o&	c #454437",
"p&	c #838173",
"q&	c #5F5E52",
"r&	c #636253",
"s&	c #6B6C60",
"t&	c #97988E",
"u&	c #9E9F94",
"v&	c #B9B8B6",
"w&	c #B4B4B0",
"x&	c #B5B4B2",
"y&	c #AEAEAC",
"z&	c #9B9B95",
"A&	c #A1A29B",
"B&	c #606058",
"C&	c #6E6E63",
"D&	c #3E3C33",
"E&	c #5E5D54",
"F&	c #929287",
"G&	c #86867E",
"H&	c #979690",
"I&	c #ADADAA",
"J&	c #AEAFAB",
"K&	c #BFBFBB",
"L&	c #BAB9B9",
"M&	c #91918E",
"N&	c #8C8C81",
"O&	c #6B6A66",
"P&	c #9B9B98",
"Q&	c #B0B0AE",
"R&	c #AAAAA8",
"S&	c #9D9D97",
"T&	c #A8A7A7",
". . . . . . . . . . . + @ # . $ % & * . . . . . . . . . . . . . ",
". . . . . . . . . = - ; > , . ' ) ! % ~ { . ] . . . . . . . . . ",
". . . . . . . ^ / ( _ : < [ } | 1 2 3 4 5 6 7 8 . . . . . . . . ",
". . . . . . 9 0 a b c d e f g h i j k l m n o p q r . . . . . . ",
". . . . . s t u v w x y z A B C D E F G H I J K L M N . . . . . ",
". . . O P Q R S T U V W X Y Z `  ...+.@.#.$.%.&.*.=.-.. . . . . ",
". . . + ;.>.,.'.).!.~.{.].^./.(._.:.<.[.}.|.1.2.3.4.5.6.. . . . ",
". . . 7.8.9.0.a.b.c.d.e.f.g.h.i.j.k.l.m.n.o.p.q.r.s.t.0 u.. . . ",
". . v.w.x.y.z.A.B.C.D.E.F.G.H.I.J.K.L.M.N.O.P.Q.R.S.T.U.V.W.. . ",
". . X.Y.Z.`. +.+++@+#+$+%+&+*+=+-+;+>+,+'+)+!+~+{+]+^+/+(+. . . ",
". . _+:+<+[+}+|+1+2+3+4+5+6+7+8+9+0+a+b+c+d+e+f+g+h+i+j+k+l+m+. ",
". . n+o+p+q+r+s+t+u+v+w+x+y+z+A+B+C+D+E+F+G+H+/.I+J+K+L+M+N+. . ",
". O+P+Q+R+S+T+U+V+W+X+Y+Z+`+ @.@+@@@#@$@%@&@*@=@-@;@>@,@'@)@. . ",
". !@~@{@]@^@/@(@_@:@<@[@}@|@1@2@3@4@5@6@7@8@A.9@0@a@b@c@d@e@. . ",
". f@g@h@i@j@k@l@m@n@o@p@q@r@s@t@u@v@w@x@y@z@A@B@C@D@E@F@G@H@I@. ",
". J@K@L@M@N@O@G+P@Q@R@S@T@U@V@W@X@Y@Z@`@ #.#+#@###$#%#&#*#=#. . ",
". -#;#>#,#'#)#!#~#{#]#^#/#(#_#:#<#[#}#|#1#2#3#4#5#6#7#8#9#0#a#. ",
". b#c#d#e#f#g#h#i#j#k#l#m#n#o#p#q#r#s#t#u#v#w#x#y#z#A#B#C#D#. . ",
". E#F#G#H#I#J#K#L#M#N#O#P#Q#R#o#S#T#U#~#V#W#X#Y#Z#`#v+ $.$+$@$. ",
". #$$$%$&$*$=$-$;$>$,$'$)$!$~${$]$^$/$($_$:$e+<$[$}$|$1$2$3$. . ",
". 4$5$6$7$8$9$0$a$b$c$d$e$f$g$h$i$j$k$l$m$n$o$p$q$r$s$t$u$V.. . ",
". . . v$w$x$y$z$A$B$C$D$E$F$G$H$I$J$K$L$M$N$O$P$Q$R$S$T$U$V$. . ",
". . W$X$Y$Z$`$ %.%+%@%#%$%%%&%*%=%-%;%>%,%'%)%!%~%{%]%^%. . . . ",
". . . /%(%_%:%<%[%}%|%1%2%3%4%5%6%7%8%9%0%a%b%c%M#d%e%f%. . . . ",
". . . g%h%i%j%k%l%m%n%o%p%q%r%s%t%u%v%w%x%y%z%A%B%C%D%E%. . . . ",
". . . F%@$G%H%I%J%K%L%M%N%O%r%P%Q%R%S%T%}@U%V%W%X%Y%Z%`%. . . . ",
". . .  &.&+&@&#&$&%&&&*&=&-&;&>&,&'&)&!&~&{&]&^&/&(&_&. . . . . ",
". . . . :&<&[&}&|&1&2&3&4&5&6&7&8&9&0&a&b&c&d&e&f&. . . . . . . ",
". . . . . . . g&[&h&i&j&k&l&m&n&o&p&q&r&s&t&u&9 v&. . . . . . . ",
". . . . . . . . w&x&y&z&A&B&C&D&E&F&G&H&I&J&. K&. . . . . . . . ",
". . . . . . . . . . . 9 L&M&N&O&P&Q&. . . . . . . . . . . . . . ",
". . . . . . . . . . . . . R&S&T&. . . . . . . . . . . . . . . . "};
