/* XPM */
static char * render_surfaceSampler_xpm[] = {
"32 32 256 2",
"  	c #000100",
". 	c #0C00BC",
"+ 	c #001A4D",
"@ 	c #121551",
"# 	c #000DFF",
"$ 	c #0713C3",
"% 	c #131F2C",
"& 	c #0B1F7A",
"* 	c #0B22A8",
"= 	c #001FFE",
"- 	c #1B2C36",
"; 	c #15324C",
"> 	c #292F33",
", 	c #202E5C",
"' 	c #232B83",
") 	c #232D79",
"! 	c #0035D2",
"~ 	c #323638",
"{ 	c #2A3C46",
"] 	c #1F34C4",
"^ 	c #2230F2",
"/ 	c #293F4E",
"( 	c #2C379C",
"_ 	c #04439C",
": 	c #003CFB",
"< 	c #224660",
"[ 	c #2B445D",
"} 	c #2C37E0",
"| 	c #3D4244",
"1 	c #1D4686",
"2 	c #244675",
"3 	c #364852",
"4 	c #3142BD",
"5 	c #00568E",
"6 	c #235063",
"7 	c #054CEE",
"8 	c #004EFF",
"9 	c #224BBC",
"0 	c #2A45EC",
"a 	c #444696",
"b 	c #0958CD",
"c 	c #3D5A63",
"d 	c #435968",
"e 	c #255BAD",
"f 	c #005EFF",
"g 	c #305D81",
"h 	c #3C5B77",
"i 	c #385B98",
"j 	c #3757C9",
"k 	c #3659BD",
"l 	c #505C5C",
"m 	c #27657E",
"n 	c #0265F7",
"o 	c #335BCA",
"p 	c #5853B2",
"q 	c #0F64E7",
"r 	c #575D62",
"s 	c #3D5CBA",
"t 	c #3F6584",
"u 	c #3360E7",
"v 	c #5A6090",
"w 	c #2569D6",
"x 	c #216AD9",
"y 	c #007AA5",
"z 	c #0072FF",
"A 	c #586678",
"B 	c #556872",
"C 	c #52687E",
"D 	c #326DC2",
"E 	c #2B6ED5",
"F 	c #486D8C",
"G 	c #4B6E82",
"H 	c #546F7E",
"I 	c #306EF4",
"J 	c #7060C3",
"K 	c #41748B",
"L 	c #5869D2",
"M 	c #397C7D",
"N 	c #5770A1",
"O 	c #65707B",
"P 	c #566FB2",
"Q 	c #2C7DAB",
"R 	c #4F7594",
"S 	c #5D7193",
"T 	c #357BB9",
"U 	c #52798C",
"V 	c #337AF4",
"W 	c #2C8693",
"X 	c #4E7D9A",
"Y 	c #3B7ED2",
"Z 	c #048BFA",
"` 	c #5D75D1",
" .	c #5079D2",
"..	c #4E7BCD",
"+.	c #597D9B",
"@.	c #507DC8",
"#.	c #766FE3",
"$.	c #3D82E1",
"%.	c #0093F7",
"&.	c #5F8297",
"*.	c #238CE5",
"=.	c #587DDE",
"-.	c #5883A8",
";.	c #5384AE",
">.	c #627FB5",
",.	c #2192C3",
"'.	c #438AB2",
").	c #547FED",
"!.	c #5786A3",
"~.	c #498ABE",
"{.	c #448FB0",
"].	c #757EC9",
"^.	c #4E8E9E",
"/.	c #488CCD",
"(.	c #3B91D8",
"_.	c #00A5C0",
":.	c #4194BB",
"<.	c #6B8AA5",
"[.	c #3A93E8",
"}.	c #648FAC",
"|.	c #5D92A4",
"1.	c #6B8EA3",
"2.	c #7B8A9C",
"3.	c #00A5FC",
"4.	c #1E9DF6",
"5.	c #5595A5",
"6.	c #788BAF",
"7.	c #11A4F3",
"8.	c #788F98",
"9.	c #748FA5",
"0.	c #5B91DD",
"a.	c #6092C9",
"b.	c #3A9DD6",
"c.	c #1AABAA",
"d.	c #6C8FD6",
"e.	c #7F8AD0",
"f.	c #4C97E6",
"g.	c #4C9FA0",
"h.	c #5F97BB",
"i.	c #6C93C0",
"j.	c #7F9292",
"k.	c #27A4E4",
"l.	c #459DDC",
"m.	c #519DBE",
"n.	c #3BA2CE",
"o.	c #35A8AB",
"p.	c #7390E6",
"q.	c #41A3C2",
"r.	c #7695B1",
"s.	c #3CA1E7",
"t.	c #3BA0F4",
"u.	c #559CD1",
"v.	c #31A9C0",
"w.	c #7994BD",
"x.	c #45A3C9",
"y.	c #7897AD",
"z.	c #24ABE2",
"A.	c #56A3AB",
"B.	c #739BA9",
"C.	c #6399EE",
"D.	c #719DB6",
"E.	c #6E9EBD",
"F.	c #8299BA",
"G.	c #869BA3",
"H.	c #4AA6E7",
"I.	c #27AFF5",
"J.	c #00BAFC",
"K.	c #57A7BB",
"L.	c #3DAFBC",
"M.	c #889BAD",
"N.	c #36B3B7",
"O.	c #49ACD2",
"P.	c #61A3E6",
"Q.	c #789CEB",
"R.	c #4AB0B5",
"S.	c #3CAFEE",
"T.	c #44B0DD",
"U.	c #73A4CA",
"V.	c #52AECD",
"W.	c #72A7B9",
"X.	c #14BDF9",
"Y.	c #58B0B7",
"Z.	c #90A0B2",
"`.	c #7FA2D7",
" +	c #19BEF3",
".+	c #5AADDE",
"++	c #6CAAC7",
"@+	c #67ABCD",
"#+	c #77A8C1",
"$+	c #78A6D6",
"%+	c #7BA7C5",
"&+	c #91A1CD",
"*+	c #93A4AC",
"=+	c #90A0DD",
"-+	c #48B4EC",
";+	c #84A8BD",
">+	c #67AED7",
",+	c #8DA6B7",
"'+	c #50B9C2",
")+	c #3ABCEA",
"!+	c #4CB7E7",
"~+	c #87A8D0",
"{+	c #8FAAB1",
"]+	c #78B1BC",
"^+	c #6FAFEF",
"/+	c #61B7CE",
"(+	c #73B5D8",
"_+	c #81B3CC",
":+	c #65BADB",
"<+	c #84B3C6",
"[+	c #78B7D4",
"}+	c #94B1C2",
"|+	c #90B2C8",
"1+	c #63BDE3",
"2+	c #90B2D1",
"3+	c #6EBDCB",
"4+	c #8BB4CF",
"5+	c #5BC1E6",
"6+	c #84B6DE",
"7+	c #74BCD6",
"8+	c #72C0C8",
"9+	c #60C3E3",
"0+	c #A4B3C0",
"a+	c #68C3DA",
"b+	c #70BFF0",
"c+	c #8EBAD9",
"d+	c #9EBAC4",
"e+	c #72C4E5",
"f+	c #9CB9D7",
"g+	c #8FBED1",
"h+	c #7FC1E5",
"i+	c #82C2E0",
"j+	c #79C6E1",
"k+	c #9ABED3",
"l+	c #94C1C8",
"m+	c #88C3DB",
"n+	c #90C1DB",
"o+	c #8BC2E1",
"p+	c #A9BCC8",
"q+	c #9DBFCF",
"r+	c #A6C2CD",
"s+	c #7BCFD2",
"t+	c #B2C1C8",
"u+	c #87CBEF",
"v+	c #91C9E8",
"w+	c #A1C7CF",
"x+	c #91CAE2",
"y+	c #ADC5CA",
"z+	c #9ACADD",
"A+	c #A3C8D7",
"B+	c #8DCEDE",
"C+	c #86D2E8",
"D+	c #B3CCD1",
"E+	c #96D8DB",
"F+	c #B8D1D5",
"G+	c #B5D8DB",
"X.`.} 0+}+R <.;.~.8 e h @+9+* ) j+h+j+6+i+a.<.E.o+E+G+9+X.C+X.2+",
"P.k.*.y.p+n.'.1.z+^+-.t F }+N & u.d.U.6+#+y.<.X !.s+D+;+B+x+^+k.",
"`.)+I.L p+z.J.n.4+v+o+K.R.l+O   =+: '+i+e+m.}.#+++:+w+U D+g+$+T.",
"t+v+0. +x.@+T.J.s..+u+[+c.A.^.h 5+9+c._.)+n.!.n+<+n.s.Q d+t+t+x+",
"t+q+4+j+%+<.;+4.V (.!+!+/+m.a.5.++B+R.v.x.:.R !.E.>+l.b+|+t+t+q+",
"t+t+F+G+r+y.Z.P >.7 Z X.7.f Q.]+].s+y+r+y.<.<.9.D.c+%+%+4+,+t+t+",
"t+q+n+|+q+G+d+P w.0.7.J.X.f f+p+m.o.,+r+y+p+0+t+y.9.%+#+}.2.t+r+",
"D+.+4.h.#+G+G+P S }. +J.< ] 4+l+c.o.;+w+D+D+t+0+F F R E.U *+y+>+",
"N.Y E H.l.E.9.@ N 9.g+m+x+n+U.|+/+(+D.X R g+4.s.+.F F R &.M o./.",
"L.s  .S.7.i+F.a &+y+}+q+q+3+L.'+a+5+1+h.h.6+z %.h.&.}.@+g+M W e ",
"~+4 u.w+[.j+=+#.=+F+|+F+F+o.7+i+o+1+5+:+%+p.# E %.T D.c+g+{+A ( ",
"Y o b N...x+~+#.e.r+A+A+s+N.7+4.H.(+u+9+5+C.: 0.4.T Z.w+'+O.2 a ",
"=.w k 8+ .h+k+k+;+G+z+[+'+'+m+u.m+i+b+1+5+t.f ^+7 9 ,+D+D+[+2 1 ",
"F.!+!+D+j V /.}.y.!+S.I.'.!.n+%+j+1+t.f.4+B+v+g+: k ,+f+D+,+C m ",
"9.T.-+T.o u w ~.}.U..+I.h.&._+_+i+(+*.q ..A+v+B+I @.u =.D+,+A 6 ",
"=  .Q.)+1+]+T d.#+h.%+D.<+W R E.x+_+-.o Z ;+v+v+v+W.$./.).u $ , ",
"# ` }+m+7+&.1.i.E 0.;+D.:+L.E T x+m+[+i.E...n+v+v+E+C+O.n V . , ",
"-+`.} 0+}+R 1.;.~.8 e h @+9+* ) i+h+j+6+i+a.<.%+o+E+G+9+X.C+y 3 ",
"P.k.*.M.r+n.'.1.z+^+;.t F }+N & b.0.$+6+_+D.<.R !.s+D+;+B+x+g < ",
"`.T.I.L p+z.J.n.4+v+o+K.R.l+O   =+^ '+m+e+m.D._+@+9+r++.D+k+/ 6 ",
"t+o+0. +x.@+T.J.b..+u+[+c.A.^.h 5+9+c._.)+n.!.n+x+-+s.Q d+*+~ H ",
"t+q+2+j+++<.;+3.V (.)+!+/+q.a.|.++C+R.v.x.:.R !.E.b+I.b+k+r | O ",
"t+t+y+F+r+y.Z.P >.7 Z X.7.n Q.]+].s+y+r+y.<.<.r.r.c+h+v+;+> r j.",
"t+q+g+;+q+G+{+P w.0.3.J.J.f f+p+:.o.,+r+y+0+0+p+y.9.%+v+d > O *+",
"D+.+4.!.D.G+G+P S }. +J.< ] 4+l+c.o.;+w+D+D+t+0+F F +.G - l G.>+",
"N.Y E l.~.y.9.@ N 9.g+m+n+o+@+|+/+7+D.+.R g+4.l.+.F h % { M o./.",
"L.s ` H.s.D.6.a &+r+}+q+q+3+L.'+a+5+1+h.}.6+I %.h.d - / H g.L.D ",
"~+4 u.w+[.7+>.J =+F+}+F+F+c.m+i+o+1+5+:+%+p.# E 5 % { G B.y+f+4 ",
"Y j b N...m+w.p v *+A+A+s+N.7+4.s.(+e+9+5+0.* ; ; ; B {+Y.V.@.o ",
" .w k 8+..h+k+|+9.j.H U g.R.m+u.m+i+>+{.m ; + [ ' ) 8.y+D+[+ .E ",
"F.!+T.D+j V /.}.y.n.,.Q 6 / c 3 3 / ; ; 3 c G 8.! s ,+f+D+,+F.!+",
"9.)+-+T.o u w ;.}.U..+k.!.C &.U U K 5 _ i G._+<+I @.u =.D+,+9.:+"};
