/* XPM */
static char *magick[] = {
/* columns rows colors chars-per-pixel */
"32 32 131 2",
"   c #383020",
".  c #3a3223",
"X  c #3b3324",
"o  c #3c3424",
"O  c #3c3525",
"+  c #3d3526",
"@  c #3e3627",
"#  c #3e3728",
"$  c #0b137c",
"%  c #0b7c13",
"&  c #137e0b",
"*  c #4f2217",
"=  c #403829",
"-  c #403929",
";  c #7c290b",
":  c #4d4639",
">  c #4e473a",
",  c #4f483b",
"<  c #504a3c",
"1  c #524b3e",
"2  c Gray31",
"3  c #544e41",
"4  c #554f42",
"5  c #564f43",
"6  c #585245",
"7  c #595347",
"8  c #5a5448",
"9  c #5d574b",
"0  c #5e584d",
"q  c #5f594d",
"w  c #5f5a4e",
"e  c #605a4f",
"r  c #625c51",
"t  c #645e53",
"y  c #645f54",
"u  c #686359",
"i  c #6a655b",
"p  c #6d685e",
"a  c #6d685f",
"s  c #6f6b61",
"d  c #726d64",
"f  c #736e65",
"g  c #747067",
"h  c #757067",
"j  c #757168",
"k  c #77736b",
"l  c #7a766e",
"z  c #7b776e",
"x  c #7d7971",
"c  c #7e7a72",
"v  c #7e7a73",
"b  c #0b0b84",
"n  c #0b0b86",
"m  c #131384",
"M  c Blue",
"N  c #000ff0",
"B  c #0f0fff",
"V  c #7c7c84",
"C  c #0b840b",
"Z  c #0b860b",
"A  c #00f00f",
"S  c Green",
"D  c #0ff300",
"F  c #86220b",
"G  c #84240b",
"H  c #84260b",
"J  c #8b2308",
"K  c #817d76",
"L  c #827e76",
"P  c #827e77",
"I  c #837f78",
"U  c #ff3000",
"Y  c #ff3400",
"T  c #ff3500",
"R  c #ff3800",
"E  c #ff3c00",
"W  c #f04000",
"Q  c #f04400",
"!  c #848484",
"~  c #868684",
"^  c #8c8983",
"/  c #8e8b85",
"(  c #8f8c86",
")  c #8b8b8b",
"_  c #928f89",
"`  c #93908b",
"'  c #93918b",
"]  c #96948e",
"[  c #979590",
"{  c #989590",
"}  c #989691",
"|  c #9b9994",
" . c #9b9995",
".. c #9c9a95",
"X. c #9d9b97",
"o. c #9e9c98",
"O. c #9f9d99",
"+. c #a09e9a",
"@. c #a19f9b",
"#. c #a19f9c",
"$. c #a2a09c",
"%. c #a2a19d",
"&. c #a5a3a0",
"*. c #a6a4a1",
"=. c #a8a6a3",
"-. c #a9a8a5",
";. c #adaba9",
":. c #aeadab",
">. c #afaeac",
",. c #b0afad",
"<. c #b1b0ae",
"1. c #b2b1af",
"2. c #b4b3b2",
"3. c #b5b4b3",
"4. c #b6b5b4",
"5. c #b6b6b4",
"6. c #b8b8b7",
"7. c #b9b8b8",
"8. c #b9b9b8",
"9. c #babab9",
"0. c #bbbab9",
"q. c #bbbbba",
"w. c #bdbcbc",
"e. c Gray74",
"r. c #bebebd",
"t. c #bebebe",
"y. c Gray75",
"u. c #c0c0c0",
"i. c #c1c1c1",
"p. c #f0f0ff",
"a. c Gray100",
/* pixels */
"* H H H G H H G H * i.t.*.5.i.i.i.i.>.t.i.i.* H H H H H G H H * ",
"J E R R T R R T E J i.O.: z i.i.i.>.4 ` i.i.J R R R R R T R E J ",
"H R T T T T T T R H i.<.u   c i.<., X X.i.i.H R T T T T T T R H ",
"H T T T T T T T R H i.i.i.p   k 4 + X.i.i.i.H R T T T T T T T H ",
"G R Y Y T T T T R H i.i.i.i.i     X.i.i.i.i.H T T T T T T T R H ",
"G R Y Y T T T T T H i.i.i.5.6     P i.i.i.i.H R T T T T T T T G ",
"G T U U U U U U T G i.i.3.4 X { d   c i.i.i.G T U U U U U U T G ",
"; Q W W W W W E Q ; i.8.u   [ i.i.p   P i.i.; Q W W W W W W Q ; ",
"& D D D D D D D D & i.i.%.{ i.i.i.t.k { i.i.& D D D D D D D D & ",
"Z S S S S S S S S Z i.i.i.i.i.i.i.i.i.i.i.i.Z S S S S S S S S Z ",
"Z S S S S S S S S Z i.u.i.i.i.i.i.i.i.i.u.i.C S S S S S S S S Z ",
"Z S S S S S S S S Z i.{ 4 1 1 1 1 1 : y ;.i.C S S S S S S S S Z ",
"C S S S S S S S S C i.X.r 0 q q q q 9 s >.i.C S S S S S S S S C ",
"C S S S S S S S S C i.i.i.i.i.i.i.i.i.i.i.i.C S S S S S S S S C ",
"Z S S S S S S S S Z i.i.i.i.i.#.^ t.i.i.i.i.Z S S S S S S S S Z ",
"% A A A A A A A A % i.i.i.i.i.d + 8.i.i.i.i.% A A A A A A A A % ",
"$ N N N N N N N N $ i.i.i.i.i.h # 8.i.i.i.i.$ N N N N N N N N $ ",
"n M M M M M M M M n i.6.%.O.*.y + | +.&.q.i.b M M M M M M M M b ",
"b M M M M M M M M n i.O.-             : =.i.b M M M M M M M M b ",
"b M M M M M M M M n i.5.] ` { q + ( ` | 8.i.b M M M M M M M M b ",
"b M M M M M M M M b i.i.i.i.i.h + 8.i.i.i.i.b M M M M M M M M b ",
"b M M M M M M M M b i.i.i.i.i.d - 8.i.i.i.i.b M M M M M M M M b ",
"b M M M M M M M M b i.i.i.i.i.:.%.y.i.i.i.i.b M M M M M M M M b ",
"m B B B B B B B B m i.i.i.i.i.i.i.i.i.i.i.i.m B B B B B B B B m ",
"V p.p.p.p.p.p.p.p.V i.i.i.i.t./ ` u.i.i.i.i.V p.p.p.p.p.p.p.p.V ",
"~ a.a.a.a.a.a.a.a.~ i.i.i.i.t., 8 u.i.i.i.i.~ a.a.a.a.a.a.a.a.~ ",
"~ a.a.a.a.a.a.a.a.~ i.t.+._ ` P I ` ` ` -.i.! a.a.a.a.a.a.a.a.~ ",
"~ a.a.a.a.a.a.a.a.~ i.2.e     + X       z i.! a.a.a.a.a.a.a.a.~ ",
"! a.a.a.a.a.a.a.a.~ i.t.-.O.+.| | +.+.O.>.i.~ a.a.a.a.a.a.a.a.! ",
"! a.a.a.a.a.a.a.a.~ i.i.i.i.t.6 t i.i.i.i.i.~ a.a.a.a.a.a.a.a.! ",
") a.a.a.a.a.a.a.a.) i.i.i.i.t.k c i.i.i.i.i.) a.a.a.a.a.a.a.a.) ",
"2 ! ! ! ! ! ! ! ~ 2 i.i.i.i.i.i.i.i.i.i.i.i.2 ! ! ! ! ! ! ! ! 2 "
};
