/* XPM */
static char *replacer[] = {
/* columns rows colors chars-per-pixel */
"32 32 134 2",
"   c #010101",
".  c #090909",
"X  c gray7",
"o  c gray11",
"O  c #222222",
"+  c #2D2D2D",
"@  c gray19",
"#  c gray24",
"$  c #424242",
"%  c gray31",
"&  c gray36",
"*  c #686868",
"=  c #737373",
"-  c #1300DC",
";  c #1D04DB",
":  c #1E08DB",
">  c #2007DC",
",  c #230BDC",
"<  c #2912DD",
"1  c #2E18DE",
"2  c #321BDD",
"3  c #2D16E0",
"4  c #311BE1",
"5  c #3620DF",
"6  c #3822DF",
"7  c #3D29DA",
"8  c #3923E1",
"9  c #3D29E0",
"0  c #422ED5",
"q  c #4735D6",
"w  c #4E3FD3",
"e  c #412CE1",
"r  c #4430E2",
"t  c #4935E2",
"y  c #4D3AE3",
"u  c #503DE3",
"i  c #5849D2",
"p  c #5946E4",
"a  c #5C4AE5",
"s  c #6556D8",
"d  c #6759D6",
"f  c #6352E6",
"g  c #6D5DE8",
"h  c #7366CE",
"j  c #796ECC",
"k  c #7C72CD",
"l  c #7E73D1",
"z  c #7768E9",
"x  c #796AEA",
"c  c #DB0303",
"v  c #DC0B0B",
"b  c #DD1313",
"n  c #DD1C1C",
"m  c #D52F2F",
"M  c #DF2222",
"N  c #DA2929",
"B  c #D73636",
"V  c #D33F3F",
"C  c #E11B1B",
"Z  c #E02525",
"A  c #E12B2B",
"S  c #E23434",
"D  c #E33B3B",
"F  c #D24949",
"G  c #D65454",
"H  c #CE6767",
"J  c #CC6E6E",
"K  c #CD7272",
"L  c #D17272",
"P  c #D07B7B",
"I  c #E44343",
"U  c #E54B4B",
"Y  c #E65353",
"T  c #E75A5A",
"R  c #E96565",
"E  c #EA6E6E",
"W  c #EB7272",
"Q  c #EC7A7A",
"!  c #857BD1",
"~  c #887FD1",
"^  c #8274EB",
"/  c #897CEC",
"(  c #8B8B8B",
")  c #9D9D9D",
"_  c #A2A2A2",
"`  c #ABABAB",
"'  c gray71",
"]  c #BDBDBD",
"[  c #8D85C9",
"{  c #938CCC",
"}  c #9891C8",
"|  c #9D98C7",
" . c #9E99C8",
".. c #8E81ED",
"X. c #9286EE",
"o. c #968BEF",
"O. c #9A8FEF",
"+. c #A39EC6",
"@. c #A096F0",
"#. c #A59BF1",
"$. c #A5A1C5",
"%. c #ABA7CB",
"&. c #AFACC4",
"*. c #ADA9CA",
"=. c #B0ADC5",
"-. c #B8B7C2",
";. c #BAB9C4",
":. c #AEA6F2",
">. c #B2ABF2",
",. c #BBB3F4",
"<. c #BFCCCC",
"1. c #C98585",
"2. c #CC8C8C",
"3. c #C69B9B",
"4. c #C99292",
"5. c #C89999",
"6. c #C5A1A1",
"7. c #C4ACAC",
"8. c #CAA5A5",
"9. c #C9A8A8",
"0. c #C2B7B7",
"q. c #C5B9B9",
"w. c #ED8484",
"e. c #EF9090",
"r. c #F09595",
"t. c #F19B9B",
"y. c #F2A4A4",
"u. c #F3A8A8",
"i. c #F4B3B3",
"p. c #CBCCBF",
"a. c #C1C1C1",
"s. c #C7C8C0",
"d. c #C1CBCB",
"f. c #C9CBC1",
/* pixels */
"a.a.a.] a.a.a.a.a.a.a.a.a.a.a.a.a.a.a.a.a.a.a.a.a.a.a.a.a.a.a.a.",
"a.a.a.a.a.a.a.a.a.a.] a.a.a.] a.a.a.a.a.a.a.a.a.] a.a.a.a.a.a.a.",
"a.a.a.a.a.a.a.a.a.a.a.a.a.a.a.a.a.] a.a.a.a.a.a.a.a.a.a.a.a.a.a.",
"a.a.a.a.] a.a.a.a.a.a.a.a.a.a.a.a.a.a.a.a.a.a.a.a.a.a.a.a.a.a.a.",
"s.a.a.a.a.a.a.a.a.a.] a.] a.a.] a.a.a.a.a.a.] a.a.a.a.a.a.a.a.a.",
"d.d.d.s.a.a.a.a.a.a.a.a.O ` a.a.a.a.] a.a.a.a.a.a.a.a.a.a.f.f.f.",
"G P 9.d.d.a.a.a.a.a.a.]   # a.a.a.a.a.a.a.a.a.a.a.a.s.f.f.%.~ s ",
"C C Z G 8.d.d.a.a.a.a.a..   = a.a.a.a.a.a.a.a.a.a.d.f.*.f r 8 8 ",
"U U I A Z P d.a.a.a.a.a..   . ) a.a.a.a.a.a.a.a.s.f.~ e e a f a ",
"E Q E Y S C L d.d.a.a.a..     + ] a.a.a.a.a.a.a.f.! 4 y g ^ / ^ ",
"r.y.r.E U A b 2.d.a.a.a..       & a.a.a.a.a.a.f.{ 3 e f / #.:.@.",
"u.i.u.w.T S C Z q.a.a.a..         ( a.a.a.a.a.-.8 4 y g o.,.,.:.",
"u.i.y.w.T D Z v L d.a.a..         o ` a.a.a.f.! > e y g X.:.,.:.",
"r.t.e.Q Y S Z b B d.a.a..           $ a.a.a.s.q , 4 y f ^ O.@.@.",
"w.w.Q R U S M b b 7.a.a..             = a.a.=.< < 4 e u g ^ / / ",
"W E R T I A C b v 5.a.a..             X a.s.+.> < 4 e y f g z ^ ",
"T T Y I S N n v c 4.] a..             . a.p.{ ; , 1 2 e u p f f ",
"I I D S Z n b v c 5.a.a.              * a.s.| ; , , 2 2 e t y u ",
"S A A Z C b v v b 7.a.a..           # ] ] s.=., : , , 1 2 8 9 9 ",
"M n n b b b c c m a.a.] .         o ` a.a.a.p.0 ; : , < 3 3 2 2 ",
"b b b b v v c c J <.q.]           ( a.a.] a.f.j - ; ; , , , < < ",
"v v v v c c c n 0.<.a.a..       & a.a.a.a.a.a.-.2 ; ; ; > , , , ",
"c v c c c c c 1.<.a.a.a..     @ ] a.a.a.a.a.a.p.[ - ; ; ; > ; ; ",
"c c c c c c H <.a.a.a.a..   X _ a.a.a.a.a.a.a.a.p.h - ; ; ; ; ; ",
"c c c c c K <.a.a.a.a.a..   ] a.a.a.a.a.a.a.a.a.p.p.k : - ; ; ; ",
"c c c V 3.<.a.a.a.a.a.a.  % a.a.a.a.a.a.a.a.a.a.;.] p. .w ; - - ",
"F J 3.<.<.a.a.a.a.a.a.a.+ ' a.a.a.a.] a.a.a.] a.p.a.a.p.p.| j i ",
"<.<.<.] q.a.a.a.a.a.a.] ) ] a.a.a.a.a.a.a.a.a.a.] ;.a.a.] p.p.p.",
"a.a.<.] ] ] <.q.a.a.a.a.] a.a.a.a.a.a.] a.a.a.a.a.a.a.a.] ] a.a.",
"a.a.q.a.<.q.a.a.a.a.a.a.a.a.a.a.a.a.a.a.a.a.a.a.a.a.a.a.<.] a.a.",
"a.a.a.a.a.a.a.] a.a.a.a.a.a.a.a.a.a.a.a.a.a.] a.a.a.] a.a.a.a.a.",
"a.a.a.a.a.a.q.<.a.a.a.a.a.a.a.a.a.a.a.a.a.a.a.a.a.a.a.a.a.a.a.a."
};
