/* XPM */
static char *render_BA_volume_cloud_xpm[]={
"32 32 772 2",
"      c #17557B",
" 0    c #17567C",
" 1    c #15557C",
" 2    c #12547B",
" 3    c #14557C",
" 4    c #1E597C",
" 5    c #17567B",
" 6    c #5A7581",
" 7    c #908D85",
" 8    c #647A82",
" 9    c #3D687F",
" a    c #1D597C",
" b    c #16567B",
" c    c #18567C",
" d    c #1C597E",
" e    c #16557B",
" f    c #32627C",
" g    c #55707D",
" h    c #747D7E",
" i    c #6D7C7F",
" j    c #989083",
" k    c #B49E87",
" l    c #8D8D86",
" m    c #3D677F",
" n    c #13547B",
" o    c #35627B",
" p    c #61737B",
" q    c #9D8B7A",
" r    c #B99679",
" s    c #B79679",
" t    c #BA987B",
" u    c #D0A480",
" v    c #CAA484",
" w    c #B19C86",
" x    c #738082",
" y    c #205A7C",
" z    c #14557B",
" A    c #285D7B",
" B    c #7B7C77",
" C    c #A98C74",
" D    c #B28E71",
" E    c #AC8A70",
" F    c #AC8A6F",
" G    c #B08D71",
" H    c #BD9575",
" I    c #BF9879",
" J    c #CAA280",
" K    c #AF9982",
" L    c #54707E",
" M    c #20597C",
" N    c #12537B",
" O    c #14547B",
" P    c #18567B",
" Q    c #1D587A",
" R    c #6D7474",
" S    c #A3856D",
" T    c #9E816A",
" U    c #A7876D",
" V    c #B49175",
" W    c #C09775",
" X    c #BD987A",
" Y    c #D4A57F",
" Z    c #A7927D",
" &    c #7B817F",
"0     c #496B7E",
"00    c #285C7C",
"01    c #15557B",
"02    c #275D7B",
"03    c #3A637A",
"04    c #20597B",
"05    c #456272",
"06    c #867161",
"07    c #91745F",
"08    c #A28065",
"09    c #B38C6E",
"0a    c #C29776",
"0b    c #D09F7A",
"0c    c #CE9F7A",
"0d    c #C19978",
"0e    c #C49A77",
"0f    c #BD9778",
"0g    c #C19C7C",
"0h    c #BA987C",
"0i    c #807F7A",
"0j    c #33607B",
"0k    c #295F7D",
"0l    c #62777E",
"0m    c #797F7D",
"0n    c #807A72",
"0o    c #867160",
"0p    c #7C6555",
"0q    c #866B58",
"0r    c #94755D",
"0s    c #A17E63",
"0t    c #BB906F",
"0u    c #C69773",
"0v    c #BF9270",
"0w    c #B18C6D",
"0x    c #A7886F",
"0y    c #AE8C71",
"0z    c #B48E70",
"0A    c #A98970",
"0B    c #7F7F7A",
"0C    c #38657E",
"0D    c #1C597D",
"0E    c #416A80",
"0F    c #768284",
"0G    c #9D9385",
"0H    c #AC9681",
"0I    c #A68F7A",
"0J    c #AD8B6F",
"0K    c #95765F",
"0L    c #836A58",
"0M    c #896E5B",
"0N    c #90725D",
"0O    c #886D59",
"0P    c #856B58",
"0Q    c #8E725D",
"0R    c #987A63",
"0S    c #9F826B",
"0T    c #B79172",
"0U    c #CDA37F",
"0V    c #968F82",
"0W    c #34637E",
"0X    c #16567C",
"0Y    c #838986",
"0Z    c #AE9C88",
"0&    c #C9A788",
"1     c #CBA585",
"10    c #C29D7E",
"11    c #B09076",
"12    c #AD876A",
"13    c #9A7860",
"14    c #846957",
"15    c #776153",
"16    c #6F5D52",
"17    c #6C5B50",
"18    c #6C594C",
"19    c #645347",
"1a    c #645348",
"1b    c #735D50",
"1c    c #8A6E5A",
"1d    c #A88267",
"1e    c #BF9472",
"1f    c #CE9F79",
"1g    c #CBA27E",
"1h    c #65797F",
"1i    c #13557C",
"1j    c #17577C",
"1k    c #34647E",
"1l    c #A09789",
"1m    c #E2B48C",
"1n    c #DDB08A",
"1o    c #D9AB85",
"1p    c #D3A57F",
"1q    c #C19877",
"1r    c #B88E6D",
"1s    c #A27F64",
"1t    c #886D5A",
"1u    c #725D50",
"1v    c #66564D",
"1w    c #60534C",
"1x    c #5C5049",
"1y    c #5C4E44",
"1z    c #58493F",
"1A    c #5B4D43",
"1B    c #6E5B4F",
"1C    c #826856",
"1D    c #9C7A62",
"1E    c #AF8869",
"1F    c #B88D6C",
"1G    c #CB9D77",
"1H    c #938D80",
"1I    c #275E7D",
"1J    c #2B607E",
"1K    c #828886",
"1L    c #DCB18C",
"1M    c #F0BA8B",
"1N    c #E2B086",
"1O    c #D3A47E",
"1P    c #CB9D78",
"1Q    c #A58166",
"1R    c #91735E",
"1S    c #7A6455",
"1T    c #68574D",
"1U    c #5C4F49",
"1V    c #534A46",
"1W    c #4B4441",
"1X    c #4C433D",
"1Y    c #4D433D",
"1Z    c #564A43",
"1&    c #68574C",
"2     c #796252",
"20    c #90725C",
"21    c #A47F63",
"22    c #B38969",
"23    c #BE9675",
"24    c #9E9181",
"25    c #3B667E",
"26    c #11537B",
"27    c #205B7D",
"28    c #627983",
"29    c #C5A78B",
"2a    c #EEB88B",
"2b    c #E9B487",
"2c    c #DBA980",
"2d    c #C29877",
"2e    c #B68E70",
"2f    c #A58067",
"2g    c #90735E",
"2h    c #7C6456",
"2i    c #69584E",
"2j    c #5B4F48",
"2k    c #504845",
"2l    c #4A4342",
"2m    c #433E3E",
"2n    c #443E3C",
"2o    c #48413D",
"2p    c #544943",
"2q    c #625248",
"2r    c #6F5B4D",
"2s    c #836854",
"2t    c #98765D",
"2u    c #B28768",
"2v    c #9D8874",
"2w    c #5F767F",
"2x    c #37657E",
"2y    c #15567C",
"2z    c #255D7E",
"2A    c #637983",
"2B    c #C1A588",
"2C    c #E8B488",
"2D    c #E2AD81",
"2E    c #C59A77",
"2F    c #AA886E",
"2G    c #9D7D65",
"2H    c #8B6F5B",
"2I    c #786253",
"2J    c #66554B",
"2K    c #4A423F",
"2L    c #45403E",
"2M    c #423E3F",
"2N    c #3E3B3C",
"2O    c #3E3A3A",
"2P    c #4E4440",
"2Q    c #5A4C43",
"2R    c #6A5649",
"2S    c #7D6350",
"2T    c #907059",
"2U    c #AC8263",
"2V    c #837A6F",
"2W    c #30607B",
"2X    c #16577C",
"2Y    c #19587D",
"2Z    c #456C80",
"2&    c #AE9C87",
"3     c #E8B386",
"30    c #D5A47C",
"31    c #A88870",
"32    c #947965",
"33    c #77604F",
"34    c #665447",
"35    c #57493F",
"36    c #483E38",
"37    c #3F3936",
"38    c #3A3737",
"39    c #373436",
"3a    c #333234",
"3b    c #373537",
"3c    c #373534",
"3d    c #4F443D",
"3e    c #5F4E43",
"3f    c #735D4D",
"3g    c #8E6F58",
"3h    c #A88061",
"3i    c #8B7A6A",
"3j    c #3C6377",
"3k    c #36647E",
"3l    c #1F5A7C",
"3m    c #14567C",
"3n    c #225C7D",
"3o    c #858984",
"3p    c #DAAB83",
"3q    c #C99C78",
"3r    c #987D68",
"3s    c #836B5B",
"3t    c #786151",
"3u    c #6B5647",
"3v    c #5D4D41",
"3w    c #51433A",
"3x    c #433832",
"3y    c #393230",
"3z    c #353131",
"3A    c #353232",
"3B    c #322F2F",
"3C    c #2F2D2E",
"3D    c #2C2B2B",
"3E    c #302C2B",
"3F    c #453C38",
"3G    c #56493F",
"3H    c #6A5648",
"3I    c #886B55",
"3J    c #A57E60",
"3K    c #8A7869",
"3L    c #4E6A77",
"3M    c #3B667D",
"3N    c #1B587B",
"3O    c #557381",
"3P    c #B99B7F",
"3Q    c #B38D6F",
"3R    c #856F5E",
"3S    c #756052",
"3T    c #715B4B",
"3U    c #6D5746",
"3V    c #604E3F",
"3W    c #504238",
"3X    c #3D342E",
"3Y    c #332D2B",
"3Z    c #322E2C",
"3&    c #332F2E",
"4     c #2C2929",
"40    c #2A2828",
"41    c #2E2B2A",
"42    c #3A3533",
"43    c #493F39",
"44    c #645245",
"45    c #846854",
"46    c #99775D",
"47    c #93765F",
"48    c #82796E",
"49    c #58727D",
"4a    c #11537C",
"4b    c #35647E",
"4c    c #9F8D7A",
"4d    c #A68367",
"4e    c #786456",
"4f    c #705C4D",
"4g    c #785E49",
"4h    c #7A5F48",
"4i    c #715944",
"4j    c #4E4035",
"4k    c #352E2A",
"4l    c #2F2A28",
"4m    c #312D2B",
"4n    c #322D2C",
"4o    c #2F2B2A",
"4p    c #292727",
"4q    c #2A2929",
"4r    c #302D2D",
"4s    c #3F3834",
"4t    c #5D4E42",
"4u    c #7D6351",
"4v    c #896B55",
"4w    c #917155",
"4x    c #887969",
"4y    c #4B6C7C",
"4z    c #1A577C",
"4A    c #15567B",
"4B    c #2B5F7D",
"4C    c #898175",
"4D    c #977962",
"4E    c #6E5D51",
"4F    c #735C4C",
"4G    c #7A5F49",
"4H    c #725842",
"4I    c #614D3B",
"4J    c #42372F",
"4K    c #302A26",
"4L    c #2C2725",
"4M    c #2F2B29",
"4N    c #322D2A",
"4O    c #2E2A28",
"4P    c #29292B",
"4Q    c #282B2F",
"4R    c #292A2B",
"4S    c #3E3834",
"4T    c #574A41",
"4U    c #6F5A4C",
"4V    c #7E6450",
"4W    c #896A51",
"4X    c #927963",
"4Y    c #4E6976",
"4Z    c #245C7C",
"4&    c #797973",
"5     c #8B715D",
"50    c #715E4F",
"51    c #735C49",
"52    c #6D5542",
"53    c #5C4938",
"54    c #44382E",
"55    c #332C27",
"56    c #2A2623",
"57    c #292523",
"58    c #2B2725",
"59    c #2D2926",
"5a    c #282829",
"5b    c #2A3035",
"5c    c #3D3A37",
"5d    c #37312C",
"5e    c #3E3734",
"5f    c #534741",
"5g    c #665448",
"5h    c #755E4C",
"5i    c #846851",
"5j    c #99795F",
"5k    c #767772",
"5l    c #225A7B",
"5m    c #16557C",
"5n    c #637074",
"5o    c #8B705C",
"5p    c #705947",
"5q    c #644F3E",
"5r    c #493D33",
"5s    c #332D2A",
"5t    c #2A2626",
"5u    c #272423",
"5v    c #272422",
"5w    c #282523",
"5x    c #282524",
"5y    c #272524",
"5z    c #313130",
"5A    c #443E36",
"5B    c #362E28",
"5C    c #3B3431",
"5D    c #5D4E44",
"5E    c #6E5949",
"5F    c #806651",
"5G    c #9A795D",
"5H    c #8A7D6F",
"5I    c #295C7A",
"5J    c #1B587C",
"5K    c #677273",
"5L    c #8C715C",
"5M    c #705B4B",
"5N    c #695444",
"5O    c #56463A",
"5P    c #3A322D",
"5Q    c #2C2A2A",
"5R    c #272627",
"5S    c #252424",
"5T    c #252221",
"5U    c #262221",
"5V    c #262322",
"5W    c #282625",
"5X    c #302E2D",
"5Y    c #332E29",
"5Z    c #302923",
"5&    c #3A332E",
"6     c #483F3B",
"60    c #564A40",
"61    c #665345",
"62    c #7A6350",
"63    c #96785E",
"64    c #8A7D6D",
"65    c #0E4F77",
"66    c #084B74",
"67    c #084B73",
"68    c #074B73",
"69    c #165376",
"6a    c #6D7573",
"6b    c #95775E",
"6c    c #705B4C",
"6d    c #5C4D40",
"6e    c #493E35",
"6f    c #312C29",
"6g    c #1F1D1D",
"6h    c #232324",
"6i    c #262525",
"6j    c #242222",
"6k    c #252322",
"6l    c #262424",
"6m    c #282423",
"6n    c #292724",
"6o    c #2A2726",
"6p    c #2D2824",
"6q    c #393129",
"6r    c #483D32",
"6s    c #4D3F35",
"6t    c #5A493A",
"6u    c #625141",
"6v    c #73604E",
"6w    c #987A5F",
"6x    c #887E6F",
"6y    c #295C7B",
"6z    c #13537B",
"6A    c #5B88A3",
"6B    c #90AEC0",
"6C    c #9BB6C6",
"6D    c #9AB6C6",
"6E    c #8DACBF",
"6F    c #4E7C97",
"6G    c #5E6E72",
"6H    c #987D66",
"6I    c #806956",
"6J    c #5C4D43",
"6K    c #453A32",
"6L    c #4B4440",
"6M    c #989797",
"6N    c #494849",
"6O    c #212123",
"6P    c #262629",
"6Q    c #27272A",
"6R    c #28282A",
"6S    c #292726",
"6T    c #292725",
"6U    c #2C2926",
"6V    c #3F362E",
"6W    c #4B3F35",
"6X    c #534335",
"6Y    c #5D4938",
"6Z    c #6C5541",
"6&    c #7C654F",
"7     c #A57F5E",
"70    c #8F816F",
"71    c #2F5F7A",
"72    c #B1C7D3",
"73    c #E6EDF0",
"74    c #94B1C2",
"75    c #97B3C4",
"76    c #ACC2D0",
"77    c #F2F5F7",
"78    c #7693A2",
"79    c #4F656E",
"7a    c #776F64",
"7b    c #6B594A",
"7c    c #44362B",
"7d    c #99938F",
"7e    c #FFFFFF",
"7f    c #A9A8AA",
"7g    c #1B1C20",
"7h    c #292B2F",
"7i    c #2A2B30",
"7j    c #2A2B2E",
"7k    c #2A2A2B",
"7l    c #292928",
"7m    c #33302D",
"7n    c #584839",
"7o    c #554637",
"7p    c #4C4136",
"7q    c #594839",
"7r    c #604B3A",
"7s    c #735942",
"7t    c #8F6F50",
"7u    c #A8825E",
"7v    c #7A796F",
"7w    c #245B7A",
"7x    c #B0C6D1",
"7y    c #AAC1CE",
"7z    c #00416B",
"7A    c #074A72",
"7B    c #00426B",
"7C    c #99B5C5",
"7D    c #C9D9E3",
"7E    c #0E4F75",
"7F    c #45616F",
"7G    c #675C51",
"7H    c #5B493B",
"7I    c #DEDBD9",
"7J    c #A4A09C",
"7K    c #E4E4E3",
"7L    c #3E3D40",
"7M    c #27282B",
"7N    c #2C2D31",
"7O    c #2B2C30",
"7P    c #2D2D2F",
"7Q    c #2E2C2D",
"7R    c #393430",
"7S    c #584738",
"7T    c #594736",
"7U    c #634F3C",
"7V    c #5B4A3C",
"7W    c #644F3C",
"7X    c #7E6045",
"7Y    c #997554",
"7Z    c #A08162",
"7&    c #5F6E72",
"8     c #1A567A",
"80    c #15547A",
"81    c #AFC5D1",
"82    c #ACC3CF",
"83    c #03476F",
"84    c #0E4F76",
"85    c #0D4F75",
"86    c #B0C5D2",
"87    c #AFC5D2",
"88    c #0A4D75",
"89    c #235877",
"8a    c #3F525B",
"8b    c #86817B",
"8c    c #EFECEA",
"8d    c #493E36",
"8e    c #D8D5D4",
"8f    c #8F8D8C",
"8g    c #24201E",
"8h    c #302D2E",
"8i    c #32302F",
"8j    c #33302F",
"8k    c #33302E",
"8l    c #3F3731",
"8m    c #4B4035",
"8n    c #63503C",
"8o    c #685541",
"8p    c #574C40",
"8q    c #695643",
"8r    c #85664B",
"8s    c #A47C58",
"8t    c #897967",
"8u    c #305E77",
"8v    c #12547A",
"8w    c #16557A",
"8x    c #A4BDCC",
"8y    c #EDF2F5",
"8z    c #C9D7E0",
"8A    c #C9D8E0",
"8B    c #DDE6EC",
"8C    c #ECF1F4",
"8D    c #2B6586",
"8E    c #0F5077",
"8F    c #174D6D",
"8G    c #BCC8CF",
"8H    c #BBB5B1",
"8I    c #39291C",
"8J    c #918A83",
"8K    c #E0DEDE",
"8L    c #372F29",
"8M    c #352E29",
"8N    c #3C342E",
"8O    c #3C342C",
"8P    c #3D352E",
"8Q    c #483F35",
"8R    c #5B4A3A",
"8S    c #685440",
"8T    c #635648",
"8U    c #615649",
"8V    c #735E49",
"8W    c #8D6E51",
"8X    c #A37E5C",
"8Y    c #6F726C",
"8Z    c #1F5879",
"8&    c #13547A",
"9     c #ABC2CF",
"90    c #C7D7DF",
"91    c #55839E",
"92    c #5C88A2",
"93    c #638EA6",
"94    c #C2D2DC",
"95    c #A7BFCD",
"96    c #145479",
"97    c #105178",
"98    c #286385",
"99    c #F1F6F9",
"9a    c #ACAEAD",
"9b    c #93877C",
"9c    c #A0958C",
"9d    c #FEFEFE",
"9e    c #7B7067",
"9f    c #3E3125",
"9g    c #44382D",
"9h    c #42382F",
"9i    c #453D35",
"9j    c #48423B",
"9k    c #574B40",
"9l    c #665442",
"9m    c #60574C",
"9n    c #655C51",
"9o    c #7D6651",
"9p    c #8F7357",
"9q    c #8B7963",
"9r    c #4E6871",
"9s    c #17567A",
"9t    c #15557A",
"9u    c #B0C5D1",
"9v    c #00456E",
"9w    c #0C4E75",
"9x    c #034870",
"9y    c #386E8E",
"9z    c #417593",
"9A    c #01466F",
"9B    c #7298AF",
"9C    c #F2F6F8",
"9D    c #CDD8DE",
"9E    c #E7E5E2",
"9F    c #E9E2DA",
"9G    c #F6F2EE",
"9H    c #CBC7C2",
"9I    c #4D473D",
"9J    c #4A3D31",
"9K    c #453F3C",
"9L    c #454242",
"9M    c #524B46",
"9N    c #645649",
"9O    c #675C4F",
"9P    c #6C6457",
"9Q    c #7F6F5B",
"9R    c #7F7464",
"9S    c #6C716D",
"9T    c #376176",
"9U    c #084B72",
"9V    c #4E7E9A",
"9W    c #3A6F8F",
"9X    c #094B73",
"9Y    c #D3DFE6",
"9Z    c #8AAABD",
"9&    c #1F516D",
"a     c #4E6770",
"a0    c #656862",
"a1    c #A5A096",
"a2    c #FCFEFE",
"a3    c #586E78",
"a4    c #404544",
"a5    c #4C433A",
"a6    c #444241",
"a7    c #434244",
"a8    c #4E4947",
"a9    c #58514E",
"aa    c #675D53",
"ab    c #70675B",
"ac    c #786F64",
"ad    c #6F706C",
"ae    c #4B6773",
"af    c #285B77",
"ag    c #14547A",
"ah    c #E6EDF1",
"ai    c #98B4C5",
"aj    c #9EB8C8",
"ak    c #A4BCCB",
"al    c #074972",
"am    c #4E7D9A",
"an    c #376C8D",
"ao    c #135177",
"ap    c #2D5C75",
"aq    c #406577",
"ar    c #F2F5F6",
"as    c #99B4C3",
"at    c #204B63",
"au    c #444F52",
"av    c #3F474C",
"aw    c #37414B",
"ax    c #3F444C",
"ay    c #4A4C50",
"az    c #5A5855",
"aA    c #68635D",
"aB    c #776E64",
"aC    c #53676E",
"aD    c #275A77",
"aE    c #19567A",
"aF    c #5B88A2",
"aG    c #9BB5C6",
"aH    c #9AB5C6",
"aI    c #95B1C3",
"aJ    c #5C88A3",
"aK    c #0D4E76",
"aL    c #507F9B",
"aM    c #7B9EB4",
"aN    c #145379",
"aO    c #15547B",
"aP    c #18557B",
"aQ    c #0F4F76",
"aR    c #608BA4",
"aS    c #769AB0",
"aT    c #175478",
"aU    c #225573",
"aV    c #234F6A",
"aW    c #234A64",
"aX    c #2C495D",
"aY    c #374B5B",
"aZ    c #415460",
"a&    c #495C67",
"b     c #52636D",
"b0    c #375F75",
"b1    c #1F587A",
"b2    c #1B577B",
"                   0 0 0 0 1 2 3 4 5 6 7 8 9 a b 5 5         c d",
"                     5 b e 5 f g h i j k l m n 5 5              ",
"                   5 5 b o p q r s t u v w x y 2 5              ",
"                 5 5 z A B C D E F G H I J K L M N O            ",
"                 5 P z Q R S T T U V W V X Y Z &0 00            ",
"                0102030405060708090a0b0c0d0e0f0g0h0i0j O e      ",
"             e O 20k0l0m0n0o0p0q0r0s0t0u0v0w0x0y0z0A0B0C e      ",
"           e010D0E0F0G0H0I0J0K0L0L0L0M0N0O0P0Q0R0S0T0U0V0W0X0X 0",
"   0     e 50E0Y0Z0&1 101112131415161718191a1b1c1d1e1f1g1h1i0X 0",
"1j1j     n1k1l1m1n1o1p1q1r1s1t1u1v1w1x1y1z1A1B1C1D1E1F1G1H1I n 5",
"1j1j    1J1K1L1M1N1O1P0t1Q1R1S1T1U1V1W1X1Y1Z1&2 20212223242526 5",
"1j1j e2728292a2b2c2d2e2f2g2h2i2j2k2l2m2n2o2p2q2r2s2t2u2v2w2x P b",
"1j1j2y2z2A2B2C2D2E2F2G2H2I2J1Z2K2L2M2N2O2n2P2Q2R2S2T2U2V2W1k y01",
"1j1j2X2Y2Z2&3 3031321t333435363738393a3b3c373d3e3f3g3h3i3j3k3l01",
"1j1j1j3m3n3o3p3q3r3s3t3u3v3w3x3y3z3A3B3C3D3E3F3G3H3I3J3K3L3M3N e",
"1j1j1j0X 33O3P3Q3R3S3T3U3V3W3X3Y3Z3&3Z4 40414243444546474849 a01",
"1j1j 0 04a4b4c4d4e4f4g4h4i4j4k4l4m4n4o404p4q4r4s4t4u4v4w4x4y4z4A",
" 0 0 0 01i4B4C4D4E4F4G4H4I4J4K4L4M4N4O4P4Q4R4o4S4T4U4V4W4X4Y b b",
" 0 0 0 0 34Z4&5 50515253545556575859585a5b5c5d5e5f5g5h5i5j5k5l n",
" 0 0 0 05m1j5n5o3f5p5q5r5s5t5u5v5u5w5x5y5z5A5B5C2P5D5E5F5G5H5I N",
" 0 0 0 0 15J5K5L5M5N5O5P5Q5R5S5T5U5V5u5W5X5Y5Z5&6 60616263645I N",
"6566676768696a6b6c6d6e6f6g6h6i6j6k6l6m6n6o6p6q6r6s6t6u6v6w6x6y6z",
"6A6B6C6D6E6F6G6H6I6J6K6L6M6N6O6P6Q6R6S6T6U6V6e6W6X6Y6Z6&7 7071 n",
"72737475767778797a7b7c7d7e7f7g7h7i7j7k7l7m7n7o7p7q7r7s7t7u7v7w O",
"7x7y7z7A7B7C7D7E7F7G7H7I7J7K7L7M7N7O7P7Q7R7S7T7U7V7W7X7Y7Z7&8 80",
"8182838485868788898a8b8c8d8e8f8g8h8i8j8k8l8m8n8o8p8q8r8s8t8u8v8w",
"8x8y8z8A8B8C8D8E4A8F8G8H8I8J8K8L8M8N8O8P8Q8R8S8T8U8V8W8X8Y8Z8&8w",
"9 909192939495969798999a9b9c9d9e9f9g9h9i9j9k9l9m9n9o9p9q9r9s9t8w",
"9u9 9v9w9x9y7e9z9A9B9C9D9E9F9G9H9I9J6e9K9L9M9N9O9P9Q9R9S9T8&8w8w",
"7x7y7B9U9v9V7e9W9X9Y9Z9&a a0a1a2a3a4a5a6a7a8a9aaabacadaeafag9t8w",
"72ah74aiaj8yakalam7eanao PapaqarasatauavawaxayazaAaBaCaDaE e P 5",
"aF6BaGaHaIaJ80aKaLaMaNaO eaPaQaRaSaTaUaVaWaXaYaZa&b b0b1b2  aP  "};
