/* XPM */
static char *magick[] = {
/* columns rows colors chars-per-pixel */
"32 32 145 2",
"   c Gray0",
".  c Gray2",
"X  c #070707",
"o  c Gray3",
"O  c Gray5",
"+  c Gray7",
"@  c Gray8",
"#  c #191919",
"$  c Gray10",
"%  c #1e1e1e",
"&  c Gray12",
"*  c #222222",
"=  c Gray15",
"-  c #272727",
";  c Gray16",
":  c Gray17",
">  c #2d2d2d",
",  c Gray18",
"<  c #2f2f2f",
"1  c Gray19",
"2  c Gray20",
"3  c #343434",
"4  c #353535",
"5  c Gray21",
"6  c #373737",
"7  c #3a3a3a",
"8  c Gray23",
"9  c #3c3c3c",
"0  c Gray24",
"q  c #3e3e3e",
"w  c #3f3f3f",
"e  c #0b137c",
"r  c #0b7c13",
"t  c #137e0b",
"y  c #4f2217",
"u  c #7c290b",
"i  c Gray25",
"p  c #414141",
"a  c Gray26",
"s  c Gray27",
"d  c #464646",
"f  c #494949",
"g  c Gray29",
"h  c Gray30",
"j  c Gray31",
"k  c #505050",
"l  c #515151",
"z  c Gray32",
"x  c #535353",
"c  c #565656",
"v  c Gray34",
"b  c #5a5a5a",
"n  c #5b5b5b",
"m  c Gray36",
"M  c Gray37",
"N  c #5f5f5f",
"B  c Gray38",
"V  c #646464",
"C  c #656565",
"Z  c Gray40",
"A  c #686868",
"S  c Gray42",
"D  c #6c6c6c",
"F  c Gray43",
"G  c #6f6f6f",
"H  c #717171",
"J  c #727272",
"K  c #747474",
"L  c Gray46",
"P  c #777777",
"I  c #797979",
"U  c Gray48",
"Y  c #7b7b7b",
"T  c #7c7c7c",
"R  c Gray49",
"E  c Gray",
"W  c Gray50",
"Q  c #0b0b84",
"!  c #0b0b86",
"~  c #131384",
"^  c Blue",
"/  c #000ff0",
"(  c #0f0fff",
")  c #7f7f81",
"_  c #7c7c84",
"`  c #0b840b",
"'  c #0b860b",
"]  c #00f00f",
"[  c Green",
"{  c #0ff300",
"}  c #84240b",
"|  c #84260b",
" . c #8b2308",
".. c #ff3000",
"X. c #ff3400",
"o. c #ff3500",
"O. c #ff3800",
"+. c #ff3c00",
"@. c #f04000",
"#. c #f04400",
"$. c #838383",
"%. c Gray52",
"&. c #868686",
"*. c Gray53",
"=. c #8b8b8b",
"-. c Gray55",
";. c #8d8d8d",
":. c #8e8e8e",
">. c Gray57",
",. c #929292",
"<. c Gray58",
"1. c #959595",
"2. c #989898",
"3. c #9a9a9a",
"4. c Gray61",
"5. c #9d9d9d",
"6. c Gray62",
"7. c #a0a0a0",
"8. c Gray63",
"9. c #a2a2a2",
"0. c Gray64",
"q. c #a4a4a4",
"w. c #a5a5a5",
"e. c #a7a7a7",
"r. c Gray66",
"t. c #a9a9a9",
"y. c #aaaaaa",
"u. c #acacac",
"i. c Gray68",
"p. c #aeaeae",
"a. c #afafaf",
"s. c Gray69",
"d. c #b2b2b2",
"f. c Gray70",
"g. c Gray71",
"h. c #b6b6b6",
"j. c #b9b9b9",
"k. c #bbbbbb",
"l. c #bcbcbc",
"z. c Gray74",
"x. c #bebebe",
"c. c Gray75",
"v. c #c1c1c1",
"b. c #f0f0ff",
"n. c Gray100",
/* pixels */
"y | | | | | | | | y v.v.v.v.v.v.v.v.v.v.v.j j j j j j j j j j j ",
" .+.O.O.o.O.O.o.+. .v.v.v.v.v.v.v.v.v.v.v.j v.v.v.v.v.v.v.v.v.j ",
"| O.o.o.o.o.o.o.O.| v.v.v.v.v.v.v.v.v.v.v.j v.2 5 w.v.g.i & v.j ",
"| o.o.o.o.o.o.o.O.| v.v.v.v.v.v.v.v.v.v.v.j v.> # T v.;.: # v.j ",
"| O.o.o.o.o.o.o.O.| v.v.x.v.v.v.v.v.v.v.v.j v.9 f m K C v 2 v.j ",
"| O.o.o.o.o.o.o.o.| v.v.* y.v.v.v.v.v.v.v.j v.9 =.K # K 1.7 v.j ",
"} o.............o.| v.v.  i v.v.v.v.v.v.v.j v.2 $.i.C w.2.> v.j ",
"u @.@.@.@.@.@.+.#.u v.v.X   J v.v.v.v.v.v.j v.5 T x.f.x.1.2 v.j ",
"t { { { { { { { { t v.v.o   O 5.v.v.v.v.v.j v.;.y.v.v.v.f.;.v.j ",
"' [ [ [ [ [ [ [ [ ' v.v.o     > k.v.v.v.v.j v.v.v.w.G 7.v.v.v.j ",
"' [ [ [ [ [ [ [ [ ' v.v.o       m v.v.v.v.j v.v.k.C X b k.v.v.j ",
"' [ [ [ [ [ [ [ [ ' v.v.o         =.v.v.v.j v.v.1.f x i =.v.v.j ",
"' [ [ [ [ [ [ [ [ ` v.v.o         & i.v.v.j v.v.m d i.i b x.v.j ",
"' [ [ [ [ [ [ [ [ ` v.v.X           d v.v.j v.7.> 9 =.i = 2.v.j ",
"' [ [ [ [ [ [ [ [ ' v.v.X             K v.j v.G 9 U &.T 2 C v.j ",
"r ] ] ] ] ] ] ] ] r v.v.X             O v.j v.B U v.v.v.U m v.j ",
"e / / / / / / / / e v.v.X             X v.j v.,.7.v.v.v.5.5.v.j ",
"! ^ ^ ^ ^ ^ ^ ^ ^ ! v.v.X             A v.j v.U 9 2.v.;.d ,.v.j ",
"Q ^ ^ ^ ^ ^ ^ ^ ^ ! v.v.X           9 v.v.j v.w.j x &.x A i.v.j ",
"Q ^ ^ ^ ^ ^ ^ ^ ^ ! v.v.X         # y.v.v.j v.v.5.d > m f.v.v.j ",
"Q ^ ^ ^ ^ ^ ^ ^ ^ ! v.v.X         =.v.v.v.j v.v.v.J @ ,.v.v.v.j ",
"Q ^ ^ ^ ^ ^ ^ ^ ^ ! v.v.X       m v.v.v.v.j v.v.v.U 5 1.v.v.v.j ",
"Q ^ ^ ^ ^ ^ ^ ^ ^ Q v.v.X     2 x.v.v.v.v.j v.v.v.,.G y.v.v.v.j ",
"~ ( ( ( ( ( ( ( ( ~ v.v.X   + 7.v.v.v.v.v.j v.v.v.w.J w.v.v.v.j ",
") b.b.b.b.b.b.b.b._ v.v.X   x.v.v.v.v.v.v.j v.v.v.T > K k.v.v.j ",
"&.n.n.n.n.n.n.n.n.&.v.v.  j v.v.v.v.v.v.v.j v.v.y.f = i 2.v.v.j ",
"&.n.n.n.n.n.n.n.n.&.v.v.> g.v.v.v.v.v.v.v.j v.v.A x f.f A v.v.j ",
"&.n.n.n.n.n.n.n.n.&.v.v.5.v.v.v.v.v.v.v.v.j v.g.7 > T > 2 y.v.j ",
"&.n.n.n.n.n.n.n.n.&.v.v.v.v.v.v.v.v.v.v.v.j v.A : J ,.T & B v.j ",
"&.n.n.n.n.n.n.n.n.&.v.v.v.v.v.v.v.v.v.v.v.j v.v 9 7.i.i.5 x v.j ",
"=.n.n.n.n.n.n.n.n.=.v.v.v.v.v.v.v.v.v.v.v.j v.v.v.v.v.v.v.v.v.j ",
"j &.&.&.&.&.&.&.&.j v.v.v.v.v.v.v.v.v.v.v.j j j j j j j j j j j "
};
