/* XPM */
static char *image[] = {
"32 32 257 2 0 0",
"   c #000000",
"!  c #538C00",
"#  c #619D00",
"$  c #6CAA00",
"%  c #73B300",
"&  c #76B800",
"'  c #79BB00",
"(  c #89CF00",
")  c #90D700",
"*  c #93DC00",
"+  c #9FEA00",
",  c #A1EC00",
"-  c #5B9601",
".  c #65A201",
"/  c #86CB01",
"0  c #8DD301",
"1  c #80C302",
"2  c #9AE402",
"3  c #A5F003",
"4  c #6DAB08",
"5  c #57590A",
"6  c #A8F10A",
"7  c #5C620B",
"8  c #4E490C",
"9  c #70AD0C",
":  c #75B10C",
";  c #81C40C",
"<  c #46720D",
"=  c #6AA50D",
">  c #7DBC0E",
"?  c #594F0F",
"@  c #4D3810",
"A  c #548610",
"B  c #533C11",
"C  c #345A12",
"D  c #86CB12",
"E  c #5E4413",
"F  c #5F6213",
"G  c #8CCE13",
"H  c #604614",
"I  c #71AD14",
"J  c #6DA515",
"K  c #396417",
"L  c #477817",
"M  c #70B118",
"N  c #2D4C1A",
"O  c #60961B",
"P  c #ADF21B",
"Q  c #62631C",
"R  c #669F1C",
"S  c #7AB51C",
"T  c #2F551F",
"U  c #5F971F",
"V  c #625420",
"W  c #AFF220",
"X  c #A2E021",
"Y  c #67A322",
"Z  c #233B23",
"[  c #2F5223",
"\  c #666324",
"]  c #497724",
"^  c #4C7A24",
"_  c #699E24",
"`  c #6BA126",
"a  c #3A6927",
"b  c #82BA27",
"c  c #B2F228",
"d  c #264729",
"e  c #A0DD2A",
"f  c #11262B",
"g  c #6C672B",
"h  c #12282C",
"i  c #6D9D2D",
"j  c #4B7E2E",
"k  c #58922F",
"l  c #325730",
"m  c #5D8C30",
"n  c #B5F331",
"o  c #254832",
"p  c #7AB232",
"q  c #517633",
"r  c #6BA333",
"s  c #99D133",
"t  c #1D3C34",
"u  c #ADE734",
"v  c #152F35",
"w  c #437935",
"x  c #AEE836",
"y  c #3E5D37",
"z  c #203D38",
"{  c #3F6838",
"|  c #173339",
"}  c #B8F339",
"~  c #21423B",
" ! c #305E3B",
"!! c #18363C",
"#! c #2D563C",
"$! c #739F3C",
"%! c #1F423D",
"&! c #41633D",
"'! c #75AA3D",
"(! c #19383F",
")! c #6A973F",
"*! c #578D40",
"+! c #254742",
",! c #94C543",
"-! c #1B3D44",
".! c #285245",
"/! c #9FCF46",
"0! c #1D4047",
"1! c #274E47",
"2! c #71AA48",
"3! c #B4EA48",
"4! c #2F5C49",
"5! c #1E434B",
"6! c #668D4B",
"7! c #5B844C",
"8! c #5B8A4C",
"9! c #67914C",
":! c #BFF44C",
";! c #3E694D",
"<! c #2A554F",
"=! c #C0F54F",
">! c #3F6D50",
"?! c #A1D150",
"@! c #6C9C51",
"A! c #C1F551",
"B! c #214B54",
"C! c #9AC554",
"D! c #689055",
"E! c #4B7956",
"F! c #A6D659",
"G! c #60905A",
"H! c #80AF5A",
"I! c #C4F55A",
"J! c #2B5B5B",
"K! c #A7D85B",
"L! c #25525C",
"M! c #45795F",
"N! c #628B5F",
"O! c #6C8D5F",
"P! c #275761",
"Q! c #769761",
"R! c #9FCA62",
"S! c #C7F662",
"T! c #78A663",
"U! c #285A64",
"V! c #688864",
"W! c #ABD464",
"X! c #ABD865",
"Y! c #89BB66",
"Z! c #C9F667",
"[! c #2A5D68",
"\! c #487B68",
"]! c #3E6F69",
"^! c #2B606B",
"_! c #CAF66C",
"`! c #366C6E",
"a! c #60766E",
"b! c #7C9F70",
"c! c #2D6571",
"d! c #7DA871",
"e! c #729672",
"f! c #568E73",
"g! c #6F9573",
"h! c #6DAA73",
"i! c #2F6874",
"j! c #CDF775",
"k! c #306B77",
"l! c #3A7277",
"m! c #81A677",
"n! c #447D78",
"o! c #619178",
"p! c #80AE79",
"q! c #81B779",
"r! c #CFF779",
"s! c #316D7A",
"t! c #4B7F7A",
"u! c #6D9E7B",
"v! c #7B9C7C",
"w! c #32717E",
"x! c #60797E",
"y! c #3B7B7E",
"z! c #D1F77E",
"{! c #7DAE7F",
"|! c #BEE380",
"}! c #C9EE81",
"~! c #347582",
" # c #89B783",
"!# c #61A084",
"## c #9BC284",
"$# c #367886",
"%# c #D4F886",
"&# c #377A88",
"'# c #75AD88",
"(# c #C2E688",
")# c #387E8C",
"*# c #D6F88C",
"+# c #3A818E",
",# c #8EBC90",
"-# c #3B8494",
".# c #8DB297",
"/# c #59959A",
"0# c #88A89A",
"1# c #3E8B9B",
"2# c #408E9E",
"3# c #809BA1",
"4# c #4D93A2",
"5# c #4293A4",
"6# c #4496A8",
"7# c #5F9CA8",
"8# c #649EAA",
"9# c #459AAB",
":# c #4A9AAB",
";# c #529CAB",
"<# c #479EB0",
"=# c #49A2B5",
"># c #52A3B5",
"?# c #72AAB6",
"@# c #79ABB6",
"A# c #4DA6B8",
"B# c #50A7B9",
"C# c #55A9BB",
"D# c #96B5BB",
"E# c #5BABBC",
"F# c #62B0C0",
"G# c #8FB7C0",
"H# c #9ABAC1",
"I# c #6BB4C3",
"J# c #72B8C6",
"K# c #76BAC8",
"L# c #7BBCC9",
"M# c #80BECB",
"N# c #A2C3CB",
"O# c #85C1CD",
"P# c #8AC4D0",
"Q# c #92C8D3",
"R# c #A9CCD4",
"S# c #A1CCD5",
"T# c #9BCCD6",
"U# c #9ECED8",
"V# c #A1CFD9",
"W# c #A4D1DA",
"X# c #ABD4DD",
"Y# c #B1D6DD",
"Z# c #B4D9E1",
"[# c #BBDCE3",
"\# c #C2E0E6",
"]# c #CCE5EA",
"^# c #D4E9ED",
"_# c #E2F0F3",
"`# c #EDF6F8",
"a# c #F0F7F9",
"b# c #F3F9FA",
"c# c #FDFEFE",
"d# c #FFFFFF",
"e# c None",
"H H H H H H H H H H H H H H H H H H H H H H H H H H H H H H H H ",
"H Z#Z#Z#Z#Z#Z#Z#Z#Z#U#I#=#2#1#1#9#B#F#J#P#V#Z#Z#Z#Z#Z#Z#Z#Z#Z#H ",
"H Z#Z#Z#Z#Z#Z#Z#P#9#w!s!-#6#C#I#L#P#Q#U#T#P#P#U#Z#Z#Z#Z#Z#Z#Z#H ",
"H Z#Z#Z#Z#Z#Z#E#w!i!)#1#=#E#J#O#T#Y#\#]#_#_#^#X#Q#Z#Z#Z#Z#Z#Z#H ",
"H Z#Z#Z#Z#X#<#i!i!-#-#A#=#I#K#Q#Y#\#_#a#c#d#d#c#^#T#X#Z#Z#Z#Z#H ",
"H Z#Z#Z#V#-#)#1#-#=#=#B#E#I#O#U#[#_#c#d#d#d#d#d#c#_#T#X#Z#Z#Z#H ",
"H Z#Z#Z#-#2#i!-#6#&#E#1#I#I#P#Y#^#b#d#d#d#d#d#d#c#b#^#Q#Z#Z#Z#H ",
"H Z#Z#E#i!A#<#B#I#E#I#I#K#L#T#[#_#d#d#d#d#d#d#d#d#c#b#Y#P#Z#Z#H ",
"H Z#T#w!-#^!E#^!=#I#)#P#<#P#T#[#a#d#d#d#d#d#d#d#d#d#b#^#P#U#Z#H ",
"H Z#B#)#E#<#Q#L#Q#U#O#X#O#W#X#]#b#d#d#d#d#d#d#d#d#d#b#^#W#L#Z#H ",
"H V#-#2#[!M#i!X#6#F#Q#9#X#L#X#^#b#d#d#d#d#d#d#d#d#d#b#^#Y#J#V#H ",
"H F#i!w!^!L#-#[#E#V#U#F#Z#L#Y#^#b#c#d#d#d#d#d#d#d#d#`#\#X#J#M#H ",
"H <#s!<#I#6#X#6#Z#P#L#[#M#[#[#^#a#c#d#d#d#d#d#d#d#`#]#[#U#K#I#H ",
"H )#P!1#F#)#P#)#]#E#I#X#=#Y#X#[#^#_#`#b#b#c#c#a#_#]#[#W#Q#J#C#H ",
"H i!1#1#<#L#F#Z#Y#\#]#X#Y#X#X#W#X#[#\#]#^#^#^#]#\#Z#U#Q#L#I#9#H ",
"H [!)#i!2#I#2#L#w!O#F#A#T#L#P#Q#Q#Q#Y#W#Y#Y#Y#X#W#T#O#L#I#E#-#H ",
"H ^!)#1#2#E#J#M#E#Q#J#L#O#I#I#L#L#I#T#L#Q#P#Q#P#O#L#J#I#E#=#)#H ",
"H [!i!6#-#w!9#-#I#A#F#K#I#F#M#F#J#J#E#J#E#I#I#F#F#E#E#C#=#6#-#H ",
"H $#c!+#9#2#1#<#E#<#C#>#C#A#P#C#M#T#9#S#=#M#E#E#C#A#=#9#5#+#2#H ",
"E 1#L!U!k!+#&#6#9#2#:#2#5#<#6#9#2#5#~!-#~!+#+#1#1#-#&#$#~!c!<#H ",
"V ,#b!Q!N!f!i!w!1#+#'#q!!#?#1#S#5#/#.#p!##\!2#$#)#l!o!d!T!;!8#E ",
"g *#*#r!Z!I!K!`!$#y!}!_!K!$#w!;#]!(#%#j!S!A!h!^!n!|!z!_!=!W Y!B ",
"\ j!X!y 8!x } G!U!u!j!S!:!M!7#U! #j!R!E!$!n s ^!D!_!C!&!i + G B ",
"\ S!?!| | ` P )!0!W!I!,!n p )#B!{!Z!F!8!~ 2!{ w!7!I!/!q ~ '!m!B ",
"Q } X r O 0 2 *!>!} e Z 6 2 1!i!z 3!} c P S l -!+!u c P 3 b v!B ",
"F 3 ( & $ % A 5!R , I N ; ) j $#| t!^ D * ) / B!5!<!] ; 0 ' 4 @ ",
"7 ) J V!g!J!f (!1 1 & % % ' 9 -!Y > #!h t % ' [ U : 4!x!a!= # 8 ",
"7 / _ 3#D#H#k!a % - K a C # $  !k 0 M N w $ $ d ^ / S O!6!. - 8 ",
"7 & _ D#R#R#H#Y . a [!v L!K # < %!$ $ . # - < (!y!4 $ . - ! m B ",
"? H!d!N#X#X#N#H!@!+#-!B![!o w T B!.!a K a  !s!@#H#0#@!9!6!e!D#E ",
"E N#N#R#Y#Y#R#N#N#R#S#I#+#i!!!^!!!L!B!-#4#G#R#X#R#N#H#D#H#N#R#E ",
"H H H H H H H H H H H H H H H H H H E E E H H H H H E E E H H H "
};
