/* XPM */
static char * image_name[]={
"32 32 68 2",
"  	c #C2C2C2",
". 	c #BDBDBD",
"X 	c #B8B8B8",
"o 	c #B3B3B3",
"O 	c #B0B0B0",
"+ 	c #ADADAD",
"@ 	c #BFBFBF",
"# 	c #ABABAB",
"$ 	c #A1A1A1",
"% 	c #9C9C9C",
"& 	c #9E9E9E",
"* 	c #999999",
"= 	c #919191",
"- 	c #A3A3A3",
"; 	c #BABABA",
": 	c #949494",
"> 	c #A6A6A6",
", 	c #858585",
"< 	c #969696",
"1 	c #8C8C8C",
"2 	c #8F8F8F",
"3 	c #7F7F7F",
"4 	c #828282",
"5 	c #878787",
"6 	c #7D7D7D",
"7 	c #A8A8A8",
"8 	c #B5B5B5",
"9 	c #787878",
"0 	c #8A8A8A",
"q 	c #7A7A7A",
"w 	c #D6D6D6",
"e 	c #C9C9C9",
"r 	c #7E7E7E",
"t 	c #CFCFCF",
"y 	c #EBEBEB",
"u 	c #FAFAFA",
"i 	c #E3E3E3",
"p 	c #757575",
"a 	c #CCCCCC",
"s 	c #E5E5E5",
"d 	c #F5F5F5",
"f 	c #E8E8E8",
"g 	c #707070",
"h 	c #737373",
"j 	c #DBDBDB",
"k 	c #D9D9D9",
"l 	c #6E6E6E",
"z 	c #666666",
"x 	c #696969",
"c 	c #4D4D4D",
"v 	c #404040",
"b 	c #5C5C5C",
"n 	c #474747",
"m 	c #363636",
"M 	c #525252",
"N 	c #545454",
"B 	c #333333",
"V 	c #454545",
"C 	c #383838",
"Z 	c #575757",
"A 	c #3D3D3D",
"S 	c #5E5E5E",
"D 	c #6B6B6B",
"F 	c #424242",
"G 	c #303030",
"H 	c #636363",
"J 	c #616161",
"K 	c #595959",
"                                                                ",
"                      . X o O + + O o X .                       ",
"                @ X # $ % % & & * = = * - O ;                   ",
"              ; # * = : % $ > - : , , = < * > o .               ",
"            o * 1 2 < % $ - > - = 3 4 : $ $ $ - + X             ",
"          o 2 , 1 : * % & $ $ - % 5 6 1 $ # # 7 > # X           ",
"        o : 4 5 2 : < * % $ - > > : 6 4 % # + + # > # ;         ",
"      8 1 9 4 5 1 = < % & $ - > 7 $ , 9 2 7 O + + # > O .       ",
"    . $ 9 9 4 5 2 : < % & $ - > # 7 = 9 4 - O + + # > > 8       ",
"    8 = 6 6 4 0 2 : < % & $ > 7 # # % 6 6 < $ $ $ $ & % 7 .     ",
"    # 5 q 6 4 0 2 : * % % $ $ $ $ & * 5 , 2 < * * * * * % o     ",
"  . $ , 9 6 4 0 2 : : < < < < < * & - $ : : & > > - > $ % + @   ",
"  X * , 9 6 4 5 0 1 1 2 2 = * & O   w e & : > O + # # 7 - # .   ",
"  o : , 9 q r 4 , , 0 2 : * $ o t y u i > = $ + + # # 7 - > ;   ",
"  + : , p p q 3 , 0 2 : * & > o a s d f O 2 * 7 # # 7 > - - X   ",
"  - 0 4 g h q 4 5 2 = < * % $ # ; t j k O = < > # 7 7 > $ $ 8   ",
"@ < l z x p 6 4 5 1 2 : < * % - # 8 . . # : : $ > > > - $ & o   ",
"@ : c v b h q 4 , 0 2 = : < % & $ > # # > : 2 % - - - $ & $ 8   ",
"  % n m M l 9 r 4 5 1 2 : : < * % $ $ - $ < 1 * $ - - - $ - X   ",
"  7 N B V z p q 4 , 0 1 2 = : < * % % & & : 1 % > 7 7 7 > 7 ;   ",
"  8 x B C Z g 9 6 4 , 0 1 2 = : < < < : 2 5 1 > O + # > & 7 .   ",
"  . 0 A B n z h 9 6 4 , 5 0 1 0 5 , 3 9 h l 4 # O 7 $ * < O     ",
"    # S B C Z D h 9 6 r 6 q 9 g D x z x D z D 1 % * = 0 * ;     ",
"    . 1 F G v b x D x x H J J J H x l 9 r g z 6 1 1 5 0 #       ",
"      o l C m n N N N Z b S z l 9 6 4 5 5 9 x 9 , , 4 * ;       ",
"        - z c Z Z N K J x l p 6 4 4 , , 4 h x p 6 9 0 o         ",
"        . > q g h x z x l h p 9 q 6 r 3 6 D J x l 4 # @         ",
"          @ # 5 p h l x z D l h h p 9 q 9 x K H 4 # @           ",
"              8 * 4 h D z H z x l h p 9 9 h p : 8               ",
"                . o % 0 q D J z D h 9 4 = $ O .                 ",
"                    @ ; O $ : : : * - O ; @                     ",
"                            . @ @ @                             "
};
