/* XPM */
static char *magick[] = {
/* columns rows colors chars-per-pixel */
"32 32 242 2",
"   c #2e1f10",
".  c #2f2011",
"X  c #312211",
"o  c #352413",
"O  c #352414",
"+  c #372816",
"@  c #372a18",
"#  c #382715",
"$  c #3b2915",
"%  c #3c2915",
"&  c #3d2a15",
"*  c #3a2b18",
"=  c #3d2b18",
"-  c #3c2e1a",
";  c #3e301c",
":  c #412d16",
">  c #452e17",
",  c #412e19",
"<  c #41311e",
"1  c #46321a",
"2  c #45341e",
"3  c #4a351e",
"4  c #4c3319",
"5  c #4e351a",
"6  c #50371b",
"7  c #533b1e",
"8  c #5a3c1f",
"9  c #453320",
"0  c #473420",
"q  c #433220",
"w  c #463821",
"e  c #473b24",
"r  c #493621",
"t  c #4e3922",
"y  c #4a3b24",
"u  c #523e25",
"i  c #533d23",
"p  c #514027",
"a  c #554125",
"s  c #514228",
"d  c #544329",
"f  c #57452b",
"g  c #5b4224",
"h  c #5b452a",
"j  c #5e4d2f",
"k  c #5d4a2e",
"l  c #634524",
"z  c #624729",
"x  c #664927",
"c  c #614d2e",
"v  c #654a2c",
"b  c #694623",
"n  c #6b4c2b",
"m  c #63502f",
"M  c #665232",
"N  c #6c5533",
"B  c #6e5b39",
"V  c #74532c",
"C  c #7c572d",
"Z  c #715632",
"A  c #705734",
"S  c #725935",
"D  c #755934",
"F  c #745d38",
"G  c #7d5c34",
"H  c #7d5e39",
"J  c #7e6239",
"K  c #77624e",
"L  c #7a6042",
"P  c #746350",
"I  c #7f6d58",
"U  c #815f39",
"Y  c #82633a",
"T  c #87663e",
"R  c #80653c",
"E  c #8a6a3f",
"W  c #926635",
"Q  c #906533",
"!  c #90673a",
"~  c #926b3e",
"^  c #9a6937",
"/  c #9b6e3a",
"(  c #a0723a",
")  c #ab7a3d",
"_  c #876740",
"`  c #8b6b41",
"'  c #8b6e42",
"]  c #8e6e42",
"[  c #8d7145",
"{  c #916e46",
"}  c #916e41",
"|  c #967146",
" . c #96734a",
".. c #9a7546",
"X. c #9b7345",
"o. c #9a764b",
"O. c #9f7847",
"+. c #9d794b",
"@. c #9f7b51",
"#. c #867b6a",
"$. c #8f7d62",
"%. c #8f7e73",
"&. c #a17641",
"*. c #a17847",
"=. c #a77944",
"-. c #a47b4c",
";. c #a97a42",
":. c #a37e51",
">. c #a87f51",
",. c #ad804c",
"<. c #a78050",
"1. c #a0815e",
"2. c #ab8354",
"3. c #b4854f",
"4. c #b58a56",
"5. c #b58d5d",
"6. c #ba8a54",
"7. c #bd8f5a",
"8. c #b3915e",
"9. c #bf905f",
"0. c #ac8a66",
"q. c #a88d77",
"w. c #ad936d",
"e. c #b89060",
"r. c #bf9b7c",
"t. c #c28f54",
"y. c #c29259",
"u. c #cb975c",
"i. c #d29856",
"p. c #de9c57",
"a. c #d89e5f",
"s. c #c29562",
"d. c #cd9d62",
"f. c #d49f64",
"g. c #c7a06d",
"h. c #cba46b",
"j. c #d2a066",
"k. c #d3a46d",
"l. c #ddae6b",
"z. c #d1a771",
"x. c #ddad72",
"c. c #dfb276",
"v. c #e2a665",
"b. c #e7af6e",
"n. c #e8a964",
"m. c #e5b76f",
"M. c #e2b173",
"N. c #e3bc79",
"B. c #ebba79",
"V. c #f3b069",
"C. c #f7b86b",
"Z. c #f1b370",
"A. c #f0bb78",
"S. c #fbbd73",
"D. c #e2c47a",
"F. c #ebc67f",
"G. c #f3c176",
"H. c #f1c17b",
"J. c #ffc470",
"K. c #f9cd7c",
"L. c #9e8e83",
"P. c #9f9386",
"I. c #ad9f85",
"U. c #ac9e8f",
"Y. c #af9e91",
"T. c #a29a93",
"R. c #a9a6a2",
"E. c #b4aca0",
"W. c #bcb6ae",
"Q. c #b5b2ad",
"!. c #b6b3b2",
"~. c #bebcba",
"^. c #c0a993",
"/. c #dcbd97",
"(. c #e1bd88",
"). c #c4c2be",
"_. c #c9c9bd",
"`. c #dbcfa3",
"'. c #d0c7b1",
"]. c #d5d1b7",
"[. c #d3d3ba",
"{. c #dedeb1",
"}. c #dfdfbd",
"|. c #ebc78f",
" X c #eacc83",
".X c #f3c383",
"XX c #f3cb84",
"oX c #f1ca8b",
"OX c #f8cb87",
"+X c #facf89",
"@X c #f7d086",
"#X c #f3d58a",
"$X c #f5dc8b",
"%X c #fed384",
"&X c #fed28b",
"*X c #ffd68d",
"=X c #fbd288",
"-X c #fbda86",
";X c #ffd98f",
":X c #fddd8d",
">X c #ffd490",
",X c #fdd79d",
"<X c #ffdb91",
"1X c #ffdd91",
"2X c #ffd997",
"3X c #e2cea4",
"4X c #e0deb2",
"5X c #ffe28e",
"6X c #ffe193",
"7X c #ffe294",
"8X c #ffe595",
"9X c #fae292",
"0X c #feeb93",
"qX c #ffeb99",
"wX c #ffee9a",
"eX c #ffed9e",
"rX c #fff19b",
"tX c #fff29c",
"yX c #fff69e",
"uX c #fcf29a",
"iX c #fff89f",
"pX c #e2e1ae",
"aX c #ebebaf",
"sX c #e5e4b3",
"dX c #e1e1b9",
"fX c #f1efaf",
"gX c #f6f4a7",
"hX c #f1f1af",
"jX c #fbf5a8",
"kX c #fefba2",
"lX c #fffda2",
"zX c #ffffa5",
"xX c #ffffaa",
"cX c #ffffae",
"vX c #fbfbaa",
"bX c #f6f6b1",
"nX c #fdfdb2",
"mX c #c1c1c1",
"MX c #c5c5c5",
"NX c #cbcac1",
"BX c #cacaca",
"VX c #d7d7c0",
/* pixels */
"BXMXMXMXMXMXMXMXMXMXMXMXMXMXMXMXMXMXMXMXMXMXMXMXMXMXMXMXMXMXMXBX",
"MXmXmXmXmXmXmXmXmXmXmXmXmXmXmXmXmXmXmXmXmXmXmXmXmXmXmXmXmXmXmXMX",
"MXmXmXmXmXmXmXmXmXmXmXmXmXmXmXmXmXmXmXmXmXmXmXmXmXmXmXmXmXmXmXMX",
"MXmXmXmXmXmXmXmXmXmXmXmXmXmXmXmXmXmXmXmXmXmXmXmXmXmXmXmXmXmXmXMX",
"MXmXmXmXmXmXmXmXmXmXmXmXmXmXmXmXmXmXmXmXmXmXmXmXmXmXmXmXmXmXmXMX",
"MXmXmXmXmXmXmXmXmXmXmXmXmXmXmXmXmXmXmXmXmXmXmXmXmXmXmXmXmXmXmXMX",
"MXmXmXmXmXmXmXmXmXmXmXmXmXmXmXmXmXmXmXmXmXmXmXmXmXmXmXmXmXmXmXMX",
"MXmXmXmXmXmXmXmXmXmXmXmXmX~.^./.'.mXmXmXmXmXmXmXmXmXmXmXmXmXmXMX",
"MXmXmXmXmXmXmXmXmXmXmXmXW.0.p.J.0X4XmXmXmXmXmXmXmXmXmXmXmXmXmXMX",
"MXmXmXmXmXmXmXmXmXmXmXE.X.=.i.C.0XxXfX_.mXmXmXmXmXmXmXmXmXmXmXMX",
"MXmXmXmXmXmXmXmXmXmXY.W ! =.t.n.:XlX5XjX].mXmXmXmXmXmXmXmXmXmXMX",
"MXmXmXmXmXmXmXmXmXI.^ ;.~ *.6.a.%XlX5XK.cXdXmXmXmXmXmXmXmXmXmXMX",
"MXmXmXmXmXmXmXmXq.W / &.~ O.3.u.XXrXyXm.uXcXhX_.mXmXmXmXmXmXmXMX",
"MXmXmXmXmXmX).w.W G G Y } *.,.y.H.8XwXwXyXlXxXnX].mXmXmXmXmXmXMX",
"MXmXmXmXmX).0.Q C V D G ] *.-.6.B.8XF. XtXyXlXxXnXdXmXmXmXmXmXMX",
"MXmXmXmX).1.Q V x v N D ` O.-.4.M.qX=Xd. XrXyXlXzXeXpXmXmXmXmXMX",
"MXmXmX).r.) V l i g v Z E O.*.4.M.7XwXj.h.wXwXyXzX0X7X[.mXmXmXMX",
"MXmXmXQ.( / l g 1 a c A ` ..O.2.x.;X8X#XXX7X8XwXiXlX#XsXmXmXmXMX",
"MXmXmXU.C l 7 l 3 u c F [ ....<.x.*X&X;X1X<X7X8XwXkXxXbXmXmXmXMX",
"MXmXmX$.b 4 5 8 3 d M B [ ..| -.k.*XN.5.XX<X1X7XqXqX$XxXNXmXmXMX",
"MXmXmXL 8 : % 1 w c F F ' o...-.k.;X<X9.8.<X;X1X8XtXG.$XVXmXmXMX",
"MXmX!.n 4 $ X - e m N R ] ..| -.h.<XwXc. .+X;X<X7XtX$XD.sXmXmXMX",
"MXmXT.8 : o + w e m J J ' } } o.5..X7X9XN.&X*X;X1X8XyXiXhXmXmXMX",
"MXmX%.6 $ O ; e s j S F Y Y T { :.s..X<X*X&X&X*X<X7X9XuXvX).mXMX",
"MXmXK 5 o * w s j M N S Z S J T { @.e.(.,X>X&X*X;X7X@Xl.yX[.mXMX",
"MX~.v b , 2 s k j j k c h v Z H _ { o.2.g.|.2X*X*X1XqXb.D.}.mXMX",
"MXR.g x i y d s s f f u 3 t i g n U { o.:.5.z.oX<X<XwX#XN.aX_.MX",
"MXL.l n a s p y 0 y y 2 = $ # # = 3 z U | +.2.s.x.OX7XyXyXgX[.MX",
"MX#.i a p y w < - - < = X       X O $ 1 z U  .>.7.j.A.:XwXkX{.MX",
"MXP 7 t u y - @ * - + X       . . X o # # > g U -.7.f.Z.%XrXpXMX",
"MXI g u i 2 - = $ O X X X X X X X o o # % : : > l ~ t.v.S.-X`.MX",
"BXP.l h f f u t r 0 9 q < < < 0 9 9 r r t u g h g z U 6.V.3XNXBX"
};
