/* XPM */
static char *magick[] = {
/* columns rows colors chars-per-pixel */
"32 32 256 2",
"   c Gray0",
".  c #010101",
"X  c #020202",
"o  c #040404",
"O  c #060606",
"+  c #070707",
"@  c Gray3",
"#  c #0c0c0c",
"$  c Gray5",
"%  c Gray7",
"&  c Gray10",
"*  c #1e1e1e",
"=  c #222222",
"-  c #2d2d2d",
";  c Gray19",
":  c #393939",
">  c Gray24",
",  c #0b137c",
"<  c #0b7c13",
"1  c #137e0b",
"2  c #4f2217",
"3  c #7c290b",
"4  c Gray25",
"5  c Gray27",
"6  c Gray31",
"7  c #505050",
"8  c #555555",
"9  c #565656",
"0  c #585858",
"q  c Gray35",
"w  c Gray36",
"e  c #646464",
"r  c #656565",
"t  c #686868",
"y  c Gray41",
"u  c #727272",
"i  c Gray46",
"p  c Gray",
"a  c #0b0b84",
"s  c #0b0b86",
"d  c #131384",
"f  c Blue",
"g  c #000ff0",
"h  c #0f0fff",
"j  c #7c7c84",
"k  c #0b840b",
"l  c #0b860b",
"z  c #00f00f",
"x  c Green",
"c  c #0ff300",
"v  c #86220b",
"b  c #84240b",
"n  c #84260b",
"m  c #8b2308",
"M  c #ff3000",
"N  c #ff3400",
"B  c #ff3500",
"V  c #ff3800",
"C  c #ff3c00",
"Z  c #f04000",
"A  c #f04400",
"S  c #848484",
"D  c #868684",
"F  c #898989",
"G  c #8b8b8b",
"H  c #9b9b9b",
"J  c #9d9d9d",
"K  c #9f9f9f",
"L  c #a2a2a2",
"P  c #aaaaaa",
"I  c #aeaeae",
"U  c Gray71",
"Y  c #b6b6b6",
"T  c #bbbbbb",
"R  c #bcbcbc",
"E  c #c1c1c1",
"W  c #f0f0ff",
"Q  c Gray100",
"!  c Gray0",
"~  c Gray0",
"^  c Gray0",
"/  c Gray0",
"(  c Gray0",
")  c Gray0",
"_  c Gray0",
"`  c Gray0",
"'  c Gray0",
"]  c Gray0",
"[  c Gray0",
"{  c Gray0",
"}  c Gray0",
"|  c Gray0",
" . c Gray0",
".. c Gray0",
"X. c Gray0",
"o. c Gray0",
"O. c Gray0",
"+. c Gray0",
"@. c Gray0",
"#. c Gray0",
"$. c Gray0",
"%. c Gray0",
"&. c Gray0",
"*. c Gray0",
"=. c Gray0",
"-. c Gray0",
";. c Gray0",
":. c Gray0",
">. c Gray0",
",. c Gray0",
"<. c Gray0",
"1. c Gray0",
"2. c Gray0",
"3. c Gray0",
"4. c Gray0",
"5. c Gray0",
"6. c Gray0",
"7. c Gray0",
"8. c Gray0",
"9. c Gray0",
"0. c Gray0",
"q. c Gray0",
"w. c Gray0",
"e. c Gray0",
"r. c Gray0",
"t. c Gray0",
"y. c Gray0",
"u. c Gray0",
"i. c Gray0",
"p. c Gray0",
"a. c Gray0",
"s. c Gray0",
"d. c Gray0",
"f. c Gray0",
"g. c Gray0",
"h. c Gray0",
"j. c Gray0",
"k. c Gray0",
"l. c Gray0",
"z. c Gray0",
"x. c Gray0",
"c. c Gray0",
"v. c Gray0",
"b. c Gray0",
"n. c Gray0",
"m. c Gray0",
"M. c Gray0",
"N. c Gray0",
"B. c Gray0",
"V. c Gray0",
"C. c Gray0",
"Z. c Gray0",
"A. c Gray0",
"S. c Gray0",
"D. c Gray0",
"F. c Gray0",
"G. c Gray0",
"H. c Gray0",
"J. c Gray0",
"K. c Gray0",
"L. c Gray0",
"P. c Gray0",
"I. c Gray0",
"U. c Gray0",
"Y. c Gray0",
"T. c Gray0",
"R. c Gray0",
"E. c Gray0",
"W. c Gray0",
"Q. c Gray0",
"!. c Gray0",
"~. c Gray0",
"^. c Gray0",
"/. c Gray0",
"(. c Gray0",
"). c Gray0",
"_. c Gray0",
"`. c Gray0",
"'. c Gray0",
"]. c Gray0",
"[. c Gray0",
"{. c Gray0",
"}. c Gray0",
"|. c Gray0",
" X c Gray0",
".X c Gray0",
"XX c Gray0",
"oX c Gray0",
"OX c Gray0",
"+X c Gray0",
"@X c Gray0",
"#X c Gray0",
"$X c Gray0",
"%X c Gray0",
"&X c Gray0",
"*X c Gray0",
"=X c Gray0",
"-X c Gray0",
";X c Gray0",
":X c Gray0",
">X c Gray0",
",X c Gray0",
"<X c Gray0",
"1X c Gray0",
"2X c Gray0",
"3X c Gray0",
"4X c Gray0",
"5X c Gray0",
"6X c Gray0",
"7X c Gray0",
"8X c Gray0",
"9X c Gray0",
"0X c Gray0",
"qX c Gray0",
"wX c Gray0",
"eX c Gray0",
"rX c Gray0",
"tX c Gray0",
"yX c Gray0",
"uX c Gray0",
"iX c Gray0",
"pX c Gray0",
"aX c Gray0",
"sX c Gray0",
"dX c Gray0",
"fX c Gray0",
"gX c Gray0",
"hX c Gray0",
"jX c Gray0",
"kX c Gray0",
"lX c Gray0",
"zX c Gray0",
"xX c Gray0",
"cX c Gray0",
"vX c Gray0",
"bX c Gray0",
"nX c Gray0",
"mX c Gray0",
"MX c Gray0",
"NX c Gray0",
"BX c Gray0",
"VX c Gray0",
"CX c Gray0",
"ZX c Gray0",
"AX c Gray0",
"SX c Gray0",
"DX c Gray0",
"FX c Gray0",
"GX c Gray0",
"HX c Gray0",
"JX c Gray0",
"KX c Gray0",
"LX c Gray0",
"PX c Gray0",
"IX c Gray0",
"UX c Gray0",
/* pixels */
"2 n b b b b b b n 2 E E E E E E E E E E E E E E E E E E E E E E ",
"m C V V V V V V C m E E E E E E E E E E E E E E E E E E E E E E ",
"b V N N N N N N V b E E E E E E E E E E E E E E E E E E E E E E ",
"b V N N N N N N V b E E E E E E E E E E E E E E E E E E E E E E ",
"b V N N N N N N V b E p E E E E E E E E E E E E E E E E E E E E ",
"b V N N N N N N V b E = P E E E E E E E E E E E E E E E E E E E ",
"v B M M M M M M B v E   4 E E E E E E E E E E E E E E E E E E E ",
"3 A Z Z Z Z Z Z A 3 E O   u E E E E E E E E E E E E E E E E E E ",
"1 c c c c c c c c 1 E @   $ J E E E E E T Y Y Y Y Y Y Y Y Y Y Y ",
"l x x x x x x x x l E @     - T E E E E y 7 9 8 8 8 8 8 8 8 q : ",
"k x x x x x x x x k E @       w E E E E e H H H H H H H H H H 0 ",
"k x x x x x x x x k E @       X G E E E r H H H H H H H H H H 8 ",
"k x x x x x x x x k E @         * I E E r H H H H H H H H H H 8 ",
"k x x x x x x x x k E +           5 E E r H H H H H H H H H H 8 ",
"l x x x x x x x x l E O             i E r H H H H H H H H H H 8 ",
"< z z z z z z z z < E O             # E r H H H H H H H H H H 8 ",
", g g g g g g g g , E O             o E r H H H H H H H H H H 8 ",
"s f f f f f f f f s E O             t E r H H H H H H H H H H 8 ",
"a f f f f f f f f a E O           > E E r H H H H H H H H H H 8 ",
"a f f f f f f f f a E O         & P E E r H H H H H H H H H H 8 ",
"a f f f f f f f f a E O       . F E E E r H H H H H H H H H H 8 ",
"a f f f f f f f f a E O       w E E E E e H H H H H H H H H H 0 ",
"a f f f f f f f f a E O     ; R E E E E y 7 9 8 8 8 8 8 8 8 q : ",
"d h h h h h h h h d E O   % L E E E E E T Y Y Y Y Y Y Y Y Y Y Y ",
"j W W W W W W W W j E o   p E E E E E E E E E E E E E E E E E E ",
"D Q Q Q Q Q Q Q Q D E   6 E E E E E E E E E E E E E E E E E E E ",
"S Q Q Q Q Q Q Q Q S E - U E E E E E E E E E E E E E E E E E E E ",
"S Q Q Q Q Q Q Q Q S E K E E E E E E E E E E E E E E E E E E E E ",
"S Q Q Q Q Q Q Q Q S E E E E E E E E E E E E E E E E E E E E E E ",
"S Q Q Q Q Q Q Q Q S E E E E E E E E E E E E E E E E E E E E E E ",
"G Q Q Q Q Q Q Q Q G E E E E E E E E E E E E E E E E E E E E E E ",
"6 S S S S S S S S 6 E E E E E E E E E E E E E E E E E E E E E E "
};
