/* XPM */
static char *render_BA_particle_gradientcontrol_xpm[]={
"32 32 281 2",
"      c #FF0021",
" 0    c #FF005C",
" 1    c #FF009E",
" 2    c #FF00DA",
" 3    c #FC00FD",
" 4    c #DE00FF",
" 5    c #AE00FF",
" 6    c #7800FF",
" 7    c #4300FF",
" 8    c #1600FF",
" 9    c #0007FF",
" a    c #0030FF",
" b    c #006AFF",
" c    c #00A7FF",
" d    c #00DEFF",
" e    c #00FEFC",
" f    c #00FFDD",
" g    c #00FFAD",
" h    c #00FF76",
" i    c #00FF41",
" j    c #00FF15",
" k    c #07FF00",
" l    c #2EFF00",
" m    c #64FF00",
" n    c #9EFF00",
" o    c #D3FF00",
" p    c #F9FF00",
" q    c #FFE500",
" r    c #FFB000",
" s    c #FF7300",
" t    c #FF3800",
" u    c #FF0B00",
" v    c #00FF14",
" w    c #AF00FF",
" x    c #00FFAC",
" y    c #FFB100",
" z    c #00A8FF",
" A    c #FF009D",
" B    c #FD0021",
" C    c #FB005B",
" D    c #FA009B",
" E    c #FA00D5",
" F    c #F700F8",
" G    c #DA00FB",
" H    c #AC00FC",
" I    c #7700FD",
" J    c #0030FE",
" K    c #0069FD",
" L    c #00A6FD",
" M    c #00DCFE",
" N    c #00FDFB",
" O    c #00FFDC",
" P    c #F80020",
" Q    c #F30057",
" R    c #EF0094",
" S    c #EE00CA",
" T    c #EB00EC",
" U    c #D100F0",
" V    c #A600F3",
" W    c #7400F7",
" X    c #4200FC",
" Y    c #1600FD",
" Z    c #0007FD",
" &    c #002FFA",
"0     c #0066F7",
"00    c #00A0F5",
"01    c #00D6F7",
"02    c #00F8F6",
"03    c #00FDDA",
"04    c #F10020",
"05    c #E70050",
"06    c #DF0087",
"07    c #DD00BB",
"08    c #DA00DB",
"09    c #C100E0",
"0a    c #9800E5",
"0b    c #6F00EE",
"0c    c #4100F6",
"0d    c #1500FA",
"0e    c #0007F9",
"0f    c #002EF3",
"0g    c #005FEB",
"0h    c #0094E6",
"0i    c #00CBEA",
"0j    c #00F0EF",
"0k    c #00F9D7",
"0l    c #00FDAB",
"0m    c #E70018",
"0n    c #EC7099",
"0o    c #F5C0E1",
"0p    c #F6C6EF",
"0q    c #F5C6F5",
"0r    c #EFBEF6",
"0s    c #C26DEB",
"0t    c #6A01E1",
"0u    c #3E00EE",
"0v    c #1500F5",
"0w    c #0007F3",
"0x    c #0027E8",
"0y    c #2973E3",
"0z    c #C1E4F7",
"0A    c #41D4E6",
"0B    c #00E2E2",
"0C    c #00F4D3",
"0D    c #00FBAA",
"0E    c #DF0015",
"0F    c #F1AABB",
"0G    c #F1CAE9",
"0H    c #D34EBB",
"0I    c #D24ED3",
"0J    c #CB64DB",
"0K    c #F8EBF9",
"0L    c #A775EB",
"0M    c #3600E4",
"0N    c #1500EE",
"0O    c #0006EC",
"0P    c #0020DC",
"0Q    c #8DAFEB",
"0R    c #F7FBFC",
"0S    c #AFEBF1",
"0T    c #00D6D7",
"0U    c #00EDCD",
"0V    c #00F8A8",
"0W    c #00FE76",
"0X    c #DB0015",
"0Y    c #F0A8B8",
"0Z    c #E7A1D6",
"0&    c #B80094",
"1     c #B800B9",
"10    c #9900BA",
"11    c #C97EE1",
"12    c #DBD0F8",
"13    c #3500DD",
"14    c #1400E7",
"15    c #0003E4",
"16    c #0B31D7",
"17    c #DEE7F8",
"18    c #5FB0D6",
"19    c #E2F3F8",
"1a    c #28DAD8",
"1b    c #00E4C5",
"1c    c #00F3A5",
"1d    c #00FC75",
"1e    c #D90014",
"1f    c #EFA6B7",
"1g    c #EAAFDB",
"1h    c #C017A2",
"1i    c #BF17C0",
"1j    c #B027C8",
"1k    c #E6C1EF",
"1l    c #AD83E8",
"1m    c #3200D7",
"1n    c #1300E0",
"1o    c #0000D9",
"1p    c #5C6FE2",
"1q    c #DCECF4",
"1r    c #0073B5",
"1s    c #B8DEEA",
"1t    c #90EDE8",
"1u    c #00D9BC",
"1v    c #00EEA1",
"1w    c #00F974",
"1x    c #EC9AB2",
"1y    c #FCF3FA",
"1z    c #F5DBF1",
"1A    c #F5DBF5",
"1B    c #F9EBFA",
"1C    c #F5ECFA",
"1D    c #6E1ACF",
"1E    c #3300D3",
"1F    c #1200D9",
"1G    c #0000D1",
"1H    c #BFC2F3",
"1I    c #73A4D7",
"1J    c #005EAA",
"1K    c #45B5CB",
"1L    c #E6FCFA",
"1M    c #0BD6BB",
"1N    c #00E69C",
"1O    c #00F672",
"1P    c #00FD41",
"1Q    c #EBAFDC",
"1R    c #C517A6",
"1S    c #C517C5",
"1T    c #B021C9",
"1U    c #D094E6",
"1V    c #DCCEF5",
"1W    c #3C0BCF",
"1X    c #0900CE",
"1Y    c #2126D3",
"1Z    c #FCFBFE",
"1&    c #A9C5E7",
"2     c #90BFDD",
"20    c #99D8E2",
"21    c #FFFFFF",
"22    c #55E0CA",
"23    c #00DD94",
"24    c #00F16F",
"25    c #00FB40",
"26    c #DA0014",
"27    c #EFA7B8",
"28    c #E9A5D8",
"29    c #BF009C",
"2a    c #C000C1",
"2b    c #A500C2",
"2c    c #9316CA",
"2d    c #FFFEFE",
"2e    c #5D35D6",
"2f    c #0000C6",
"2g    c #8180E4",
"2h    c #DBE3F7",
"2i    c #8CAAE4",
"2j    c #90C9E7",
"2k    c #8ED9E4",
"2l    c #C0F0F1",
"2m    c #C1F4EA",
"2n    c #00D992",
"2o    c #00EB6D",
"2p    c #00F83F",
"2q    c #00FE15",
"2r    c #DD0015",
"2s    c #F1A8B8",
"2t    c #EAA5D9",
"2u    c #C2009E",
"2v    c #C200C3",
"2w    c #A800C6",
"2x    c #BC66DE",
"2y    c #F8F9FD",
"2z    c #4719D1",
"2A    c #1004CC",
"2B    c #E1DFF9",
"2C    c #6381E1",
"2D    c #003FCB",
"2E    c #0082CF",
"2F    c #00AFCB",
"2G    c #2FD6D7",
"2H    c #2EE2A6",
"2I    c #00E869",
"2J    c #00F63F",
"2K    c #00FD15",
"2L    c #E30016",
"2M    c #F1A1B7",
"2N    c #FBF1FA",
"2O    c #F2C6EA",
"2P    c #F1C6F2",
"2Q    c #EECBF4",
"2R    c #F6EAFB",
"2S    c #A069E5",
"2T    c #2600D0",
"2U    c #604FE2",
"2V    c #F6F7FD",
"2W    c #143ADE",
"2X    c #0059E1",
"2Y    c #0096E4",
"2Z    c #00C5E2",
"2&    c #00DAD7",
"3     c #D5F8F9",
"30    c #A1F4D2",
"31    c #00E969",
"32    c #00F53E",
"33    c #ED001D",
"34    c #E7276B",
"35    c #E546A8",
"36    c #E64ECF",
"37    c #E34EE4",
"38    c #D249E7",
"39    c #A119E1",
"3a    c #6300DE",
"3b    c #3700E2",
"3c    c #3724E8",
"3d    c #353BEB",
"3e    c #0028E9",
"3f    c #0063F0",
"3g    c #009FF3",
"3h    c #00D2F1",
"3i    c #00E9E7",
"3j    c #25EBD2",
"3k    c #3BEFB3",
"3l    c #00F070",
"3m    c #00F73F",
"3n    c #00FD14",
"   0 1 2 3 4 5 6 7 8 9 a b c d e f g h i j k l m n o p q r s t u",
"   0 1 2 3 4 5 6 7 8 9 a b c d e f g h i v k l m n o p q r s t u",
"   0 1 2 3 4 w 6 7 8 9 a b c d e f g h i j k l m n o p q r s t u",
"   0 1 2 3 4 5 6 7 8 9 a b c d e f x h i j k l m n o p q r s t u",
"   0 1 2 3 4 5 6 7 8 9 a b c d e f g h i j k l m n o p q r s t u",
"   0 1 2 3 4 5 6 7 8 9 a b c d e f x h i j k l m n o p q y s t u",
"   0 1 2 3 4 5 6 7 8 9 a b c d e f g h i j k l m n o p q r s t u",
"   0 1 2 3 4 5 6 7 8 9 a b c d e f g h i j k l m n o p q r s t u",
"   0 1 2 3 4 5 6 7 8 9 a b z d e f g h i j k l m n o p q r s t u",
"   0 1 2 3 4 5 6 7 8 9 a b c d e f g h i v k l m n o p q r s t u",
"   0 1 2 3 4 5 6 7 8 9 a b c d e f g h i j k l m n o p q r s t u",
"   0 1 2 3 4 5 6 7 8 9 a b c d e f g h i j k l m n o p q r s t u",
"   0 1 2 3 4 5 6 7 8 9 a b c d e f g h i j k l m n o p q r s t u",
"   0 1 2 3 4 5 6 7 8 9 a b c d e f g h i j k l m n o p q r s t u",
"   0 1 2 3 4 5 6 7 8 9 a b c d e f g h i j k l m n o p q r s t u",
"   0 A 2 3 4 5 6 7 8 9 a b c d e f g h i v k l m n o p q r s t u",
"   0 1 2 3 4 5 6 7 8 9 a b c d e f g h i j k l m n o p q r s t u",
"   0 1 2 3 4 5 6 7 8 9 a b c d e f g h i v k l m n o p q r s t u",
"   0 1 2 3 4 w 6 7 8 9 a b c d e f g h i j k l m n o p q r s t u",
" B C D E F G H I 7 8 9 J K L M N O g h i j k l m n o p q r s t u",
" P Q R S T U V W X Y Z &0 00010203 g h i j k l m n o p q r s t u",
"0405060708090a0b0c0d0e0f0g0h0i0j0k0l h i j k l m n o p q y s t u",
"0m0n0o0p0q0r0s0t0u0v0w0x0y0z0A0B0C0D h i j k l m n o p q r s t u",
"0E0F0G0H0I0J0K0L0M0N0O0P0Q0R0S0T0U0V0W i j k l m n o p q r s t u",
"0X0Y0Z0&1 101112131415161718191a1b1c1d i j k l m n o p q r s t u",
"1e1f1g1h1i1j1k1l1m1n1o1p1q1r1s1t1u1v1w i v k l m n o p q r s t u",
"1e1x1y1z1A1B1C1D1E1F1G1H1I1J1K1L1M1N1O1P j k l m n o p q r s t u",
"1e1f1Q1R1S1T1U1V1W1X1Y1Z1&2 202122232425 j k l m n o p q r s t u",
"262728292a2b2c2d2e2f2g2h2i2j2k2l2m2n2o2p2q k l m n o p q r s t u",
"2r2s2t2u2v2w2x2y2z2A2B2C2D2E2F2G212H2I2J2K k l m n o p q r s t u",
"2L2M2N2O2P2Q2R2S2T2U2V2W2X2Y2Z2&3 3031322K k l m n o p q r s t u",
"333435363738393a3b3c3d3e3f3g3h3i3j3k3l3m3n k l m n o p q r s t u"};
