/* XPM */
static char *magick[] = {
/* columns rows colors chars-per-pixel */
"32 32 241 2",
"   c #020000",
".  c #121200",
"X  c #141400",
"o  c #77636f",
"O  c #75656e",
"+  c #766671",
"@  c #736f7a",
"#  c #73717d",
"$  c #71717a",
"%  c #6e8794",
"&  c #728592",
"*  c #738593",
"=  c #708993",
"-  c #778b99",
";  c #768c9a",
":  c #7791a1",
">  c #7a93a1",
",  c #7a94a2",
"<  c #7b96a6",
"1  c #7d97a6",
"2  c #7d9aa9",
"3  c #8f1c01",
"4  c #8e1a01",
"5  c #901c01",
"6  c #832d03",
"7  c #852d02",
"8  c #842b01",
"9  c #853a05",
"0  c #863c02",
"q  c #9e3236",
"w  c #9b373c",
"e  c #9c3339",
"r  c #9c3439",
"t  c #9a3339",
"y  c #9b383c",
"u  c #a50300",
"i  c #a60600",
"p  c #a30600",
"a  c #a50a00",
"s  c #aa1a1e",
"d  c #ab1c1e",
"f  c #b20200",
"g  c #b20500",
"h  c #bf0000",
"j  c #b51a1e",
"k  c #b51c1f",
"l  c #b2191e",
"z  c #a03137",
"x  c #b02225",
"c  c #b12023",
"v  c #bb3a36",
"b  c #bb3c37",
"n  c #ba3b38",
"m  c #8c4306",
"M  c #8a4206",
"N  c #9a550b",
"B  c #99540d",
"V  c #9d570f",
"C  c #9d570b",
"Z  c #9d590e",
"A  c #9e5a0d",
"S  c #a05b0e",
"D  c #a35e0f",
"F  c #a65f10",
"G  c #be4f0a",
"H  c #be560e",
"J  c #be510b",
"K  c #be590f",
"L  c #be5e0d",
"P  c #bf5b10",
"I  c #be5e11",
"U  c #a7620f",
"Y  c #a66111",
"T  c #af6714",
"R  c #aa6311",
"E  c #b36915",
"W  c #b66d16",
"Q  c #b56b16",
"!  c #bf6212",
"~  c #be6613",
"^  c #be6514",
"/  c #b96e17",
"(  c #be6913",
")  c #be6915",
"_  c #be6e17",
"`  c #b96f18",
"'  c #be6f18",
"]  c #bd7218",
"[  c #8d767d",
"{  c #8b757c",
"}  c #ad4542",
"|  c #ad4645",
" . c #af4943",
".. c #b04643",
"X. c #be4f44",
"o. c #ba544b",
"O. c #b5595b",
"+. c #b95659",
"@. c #b85858",
"#. c #ae6066",
"$. c #ab6b73",
"%. c #a77077",
"&. c #a6767f",
"*. c #a0747e",
"=. c #b16167",
"-. c #b56063",
";. c #c00000",
":. c #c70000",
">. c #c90000",
",. c #ce0b0d",
"<. c #ce0b0c",
"1. c #ce0f10",
"2. c #d20000",
"3. c #d40000",
"4. c #de0000",
"5. c #dc0306",
"6. c #db0406",
"7. c #dc0709",
"8. c #db090b",
"9. c #d7100a",
"0. c #db120e",
"q. c #dc120f",
"w. c #d91413",
"e. c #d91514",
"r. c #dc1310",
"t. c #d91312",
"y. c #cd231e",
"u. c #cd241f",
"i. c #cd3d0d",
"p. c #ce3d16",
"a. c #cd3d14",
"s. c #cc3d1e",
"d. c #cd3b23",
"f. c #cc3d22",
"g. c #cb3f29",
"h. c #e60000",
"j. c #ea0000",
"k. c #ec0101",
"l. c #ee0504",
"z. c #f20000",
"x. c #f60000",
"c. c #fa0000",
"v. c #fd0000",
"b. c #fa0500",
"n. c #fa0b00",
"m. c #fb0d00",
"M. c #fc0a00",
"N. c #f72e00",
"B. c #f63000",
"V. c #c14d06",
"C. c #c54c0e",
"Z. c #ca4406",
"A. c #cb4008",
"S. c #ca450d",
"D. c #c94a0c",
"F. c #c54114",
"G. c #c5401e",
"H. c #c54f10",
"J. c #cb4110",
"K. c #c8411f",
"L. c #c84a10",
"P. c #c1540e",
"I. c #c4570f",
"U. c #c1530e",
"Y. c #c15c0f",
"T. c #c85008",
"R. c #c4432c",
"E. c #ca412e",
"W. c #c34737",
"Q. c #c74335",
"!. c #c5473e",
"~. c #c94235",
"^. c #c06010",
"/. c #f77d00",
"(. c #f77a00",
"). c #f87e01",
"_. c #c34943",
"`. c #8b7e85",
"'. c #8c7e85",
"]. c #9c7d88",
"[. c #a27882",
"{. c #898900",
"}. c #baba00",
"|. c #bcbc00",
" X c #f69300",
".X c #f69500",
"XX c #dbdb00",
"oX c #dcdc00",
"OX c #f6d300",
"+X c #f6d500",
"@X c #f9df00",
"#X c #ebeb00",
"$X c #eded00",
"%X c #f9e100",
"&X c #f9e700",
"*X c #faeb00",
"=X c #f9ef00",
"-X c #f2f200",
";X c #f6f600",
":X c #f9f000",
">X c #faf700",
",X c #fcf400",
"<X c #f8f800",
"1X c #fcf800",
"2X c #8b8085",
"3X c #878c96",
"4X c #858a95",
"5X c #888b97",
"6X c #898c96",
"7X c #9d828e",
"8X c #978797",
"9X c #938b99",
"0X c #998996",
"qX c #988c9a",
"wX c #8097a6",
"eX c #819aa7",
"rX c #819aaa",
"tX c #829dad",
"yX c #859dab",
"uX c #849ead",
"iX c #8e93a2",
"pX c #8f94a5",
"aX c #8f98a7",
"sX c #8f9cab",
"dX c #8f9dae",
"fX c #9394a3",
"gX c #9398a7",
"hX c #909dad",
"jX c #86a1b0",
"kX c #87a5b5",
"lX c #88a4b3",
"zX c #89a6b6",
"xX c #8ea2b2",
"cX c #8ea5b5",
"vX c #89a7b8",
"bX c #8ea7b8",
"nX c #8aa8b9",
"mX c #8eabbc",
"MX c #8eadbe",
"NX c #8ea8b8",
"BX c #90a0b0",
/* pixels */
"MXMXMXMXMXMXMXMXxX[._.p.D.I ( _ ' ~ L T.a.Q.%.sXMXMXMXMXMXMXMXMX",
"MXMXMXMXMXMXNX7XQ.C.( ] W F Z N N C D Q ] ( C.g.&.cXMXMXMXMXMXMX",
"MXMXMXMXMXsX+.S.( / S 9 4 i ;.>.>.;.i 3 0 S / ( D._.pXMXMXMXMXMX",
"MXMXMXMXiX~.I.] F 6 g j.c.v.v.v.v.v.v.c.h.g 6 F ] Y.d.9XMXMXMXMX",
"MXMXMXiXR.! E m a k.v.c.h.,.j s s j ,.h.c.v.j.a m E ~ G.9XMXMXMX",
"MXMXsX~.! T 6 2.v.c.5.e O & , 2 2 , = O t 5.c.v.2.6 T ( f.iXMXMX",
"MXbX@.P.E 6 4.v.z.x $ rXnXzXrXwXwXrXlXzX2 @ x z.v.4.6 E ^.!.xXMX",
"MX7XJ.] M 2.v.z.q & nXuX'.| u.e.w.y. .'.uXvX& q z.v.2.m ] C.$.MX",
"xXQ.~ F i v.z.q - nX6Xn l.v.c.n.n.c.c.l.v 6XnX- q z.v.a F _ s.aX",
"].C.` 6 j.c.x & nX{ q.c.N. X+X&X&XOX XN.c.r.[ nX* x c.j.6 ` U.=.",
"o.( S g v.6.# nX3X9.c.).:X;X$X-X-X#X;X:X/.c.0.5XvX# 6.v.g S _ f.",
"K.] 9 h.c.r 1 uXv c./.1X-X#XoX}.}.XX#X-X>X/.c.v uX1 r c.h.9 ] S.",
"A.W 4 c.j.+ nX`.k.N.=X-X$X{..     X {.$X-X=XN.l.2XnX+ h.c.4 W Y.",
"G Y u v.,.& zX| c. X<X$X{.            {.$X<X Xv.} zX& ,.v.i Y ( ",
"I V h v.l > tXy.c.+X$XoX.             . XX$X+Xc.y.yX, k v.h Z ] ",
"_ B >.v.s 1 eXe.n.@X-X|.                }.-X%Xn.e.wX1 s v.>.B ] ",
"_ B >.v.s 1 wXt.M.%X-X|.                }.-X%Xn.t.wX1 s v.:.B ] ",
"! Z ;.v.j > yXy.c.+X$XXX.             . XX$XOXc.y.yX> l v.h V ] ",
"J Y u v.<.& zX} v..X>X$X{.            {.$X<X.Xv.} vX& <.v.i Y ( ",
"Z./ 3 c.k.O vX2Xj.N.*X-X#X{..     . {.#X-X*XN.k.`.vX+ j.c.5 / P ",
"a.] 9 h.c.e 1 jXv c.(.,X-X#XXX}.|.oX#X-X,X/.c.b jX< r c.h.9 ] S.",
"X.( A f v.6.$ zX4X0.c./.*X;X$X;X-X$X<X*X).c.0.4XvX$ 5.v.f Z ] s.",
"*.C.` 6 h.c.x * nX[ q.c.B..X+X%X%X+X XN.c.0.{ nX& c c.h.6 / K O.",
"xXg.( Y p v.z.q ; nX3Xv j.v.b.m.m.b.v.j.n 4XnX; z z.v.a Y ' p.fX",
"MX&.L.] m 2.v.z.q * zXjX`.| y.w.w.y...`.jXzX* q z.v.3.M ] P.-.mX",
"MXcX_.K W 6 4.v.z.x @ 1 zXkXtXeXrXtXvXvX1 @ x z.v.4.6 W ! E.sXMX",
"MXMXgXd.! E 8 2.v.c.8.y o % : < < : & + w 7.c.v.3.6 E ( p.8XMXMX",
"MXMXMXqXG.~ W M a h.v.c.k.,.k s d j 1.k.c.v.h.i M / ( F.].MXMXMX",
"MXMXMXMXqXd.I ] R 6 f h.c.v.v.v.v.v.v.c.h.f 6 R ] ! p.].MXMXMXMX",
"MXMXMXMXMXfX!.H.( / D 0 3 i h >.>.h u 3 9 D / _ P.E.0XMXMXMXMXMX",
"MXMXMXMXMXMXcX$.f.H ( ] W U C N N Z R / ] _ H p.=.BXMXMXMXMXMXMX",
"MXMXMXMXMXMXMXMXhX$.W.i.V.I ] ] ] ] ~ J i.R.#.gXmXMXMXMXMXMXMXMX"
};
