/* XPM */
static char *magick[] = {
/* columns rows colors chars-per-pixel */
"32 32 180 2",
"   c #181818",
".  c #1d1d1d",
"X  c #272727",
"o  c Gray16",
"O  c #373737",
"+  c #313131",
"@  c #3e3e3e",
"#  c #17174f",
"$  c #1c1b4b",
"%  c #00007b",
"&  c #020d77",
"*  c #0b167a",
"=  c #0b3f4f",
"-  c #25255d",
";  c #252559",
":  c #2a2855",
">  c #303048",
",  c #39394f",
"<  c #3f3053",
"1  c #3a3a51",
"2  c #303061",
"3  c #303065",
"4  c #094609",
"5  c #174f17",
"6  c #026a18",
"7  c #067c02",
"8  c #0f7f0b",
"9  c #117202",
"0  c #19760b",
"q  c #0b6e20",
"w  c #394f39",
"e  c #335e30",
"r  c #365b30",
"t  c #306030",
"y  c #4a2635",
"u  c #493636",
"i  c #572b2b",
"p  c #5a2626",
"a  c #53313f",
"s  c #573930",
"d  c #503e3e",
"f  c #5f3032",
"g  c #5d3636",
"h  c #6a1902",
"j  c #790c0c",
"k  c #7c1515",
"l  c #6e210b",
"z  c #613131",
"x  c #434343",
"c  c #494949",
"v  c Gray31",
"b  c #515151",
"n  c #565656",
"m  c #55555f",
"M  c #5e5757",
"N  c Gray35",
"B  c Gray37",
"V  c #5b5b64",
"C  c #606060",
"Z  c #676767",
"A  c #6a6a6a",
"S  c #747474",
"D  c #717171",
"F  c Gray47",
"G  c Gray",
"H  c #0b0b84",
"J  c #0b0c83",
"K  c #0c0c84",
"L  c #0b0b8a",
"P  c #08088e",
"I  c #0c03d8",
"U  c #0200ee",
"Y  c #0b00e7",
"T  c #0000f1",
"R  c #0000f5",
"E  c Blue",
"W  c #000bf5",
"Q  c #0a00ff",
"!  c #0a16e8",
"~  c #0014fa",
"^  c #2100dd",
"/  c #3800d9",
"(  c #2511e1",
")  c #0057a8",
"_  c #0057af",
"`  c #174bb3",
"'  c #006ba5",
"]  c #4500be",
"[  c #4f04b5",
"{  c #6a0096",
"}  c #5500c0",
"|  c #5b518f",
" . c #028202",
".. c #028902",
"X. c #0f8000",
"o. c #0b840b",
"O. c #0a8a0a",
"+. c #28930a",
"@. c #00a15e",
"#. c #01bf4c",
"$. c #00d03a",
"%. c #03fb00",
"&. c Green",
"*. c #3dd400",
"=. c #25c638",
"-. c #49cb02",
";. c #810303",
":. c #810204",
">. c #840b0d",
",. c #840c0c",
"<. c #99006a",
"1. c #ad024a",
"2. c #a3005c",
"3. c #bf0146",
"4. c #bb004c",
"5. c #986700",
"6. c #cb2500",
"7. c #ce3200",
"8. c #e10c0c",
"9. c #eb0005",
"0. c #ed0013",
"q. c #ef1400",
"w. c #f00101",
"e. c #f40404",
"r. c #f80000",
"t. c Red",
"y. c #ff0707",
"u. c #fa0a00",
"i. c #f70012",
"p. c #f41d00",
"a. c #c37500",
"s. c #b40090",
"d. c #dd01b2",
"f. c #d42b92",
"g. c #e60080",
"h. c #f103bd",
"j. c #f100d4",
"k. c #f800e1",
"l. c #fc02e6",
"z. c #fc01ee",
"x. c #fc00f1",
"c. c #fd00f5",
"v. c #ff07f7",
"b. c #ff00f9",
"n. c #83a82c",
"m. c #a5b700",
"M. c #83895a",
"N. c #cdf502",
"B. c #d2ee00",
"V. c #ddf500",
"C. c #ebee00",
"Z. c #e9f700",
"A. c #edf800",
"S. c #ffe500",
"D. c #f2f700",
"F. c #fffa00",
"G. c #f9fe01",
"H. c Gray51",
"J. c Gray52",
"K. c Gray54",
"L. c #8e8e8e",
"P. c #939393",
"I. c #959595",
"U. c #9d9d9d",
"Y. c Gray64",
"T. c #acacac",
"R. c #b1b1b1",
"E. c #c1c1c1",
"W. c #cecece",
"Q. c Gray79",
"!. c #d2d2d2",
"~. c #d7d7d7",
"^. c Gray85",
"/. c #e2e2e2",
"(. c #e6e6e6",
"). c #eaeaea",
"_. c #f1f1f1",
"`. c #f6f6f6",
"'. c #f9f9f9",
"]. c Gray100",
/* pixels */
"v J.J.J.J.J.J.J.J.J.G b E.E.E.E.E.E.E.E.d k ,.>.l 0 o.8 o.o.o.5 ",
"K.].].].].].].].].].].C E.E.E.E.E.E.E.E.z y.t.t.p.*.&.&.&.&.&.O.",
"J.].(.~./.)./.].Q.!._.C E.E.E.E.E.E.E.E.z w.t.t.t.5.%.&.&.&.&.o.",
"J.].A X c G + P.Y./.`.C E.E.E.E.E.E.E.E.z w.t.t.t.q.-.&.&.&.&.o.",
"J.].Z x c I.. x N !.`.C x x x x x x x x z w.t.t.t.i.| #.&.&.&.O.",
"J.].U.G K.W.N L.A ~.`.C E.E.E.E.E.E.E.E.z r.t.t.0.{ E W ) @.$.q ",
"J.].].'.'.].'.]._.].`.C E.E.E.E.E.E.E.E.a 1.4.<.] E E E E E ~ * ",
"F _._._._._._._._._./.n E.E.E.E.E.E.E.E.: I Y U R T T T T T T % ",
"v C C C C C C C C C B B E.E.E.E.E.E.E.E.m 2 3 2 2 2 2 2 2 2 2 , ",
"E.E.E.E.E.E.E.E.E.E.E.E.E.E.E.E.E.E.E.E.E.E.E.E.E.E.E.E.E.E.E.E.",
"E.E.E.E.E.E.E.E.E.E.E.E.E.E.E.E.E.E.E.E.E.E.E.E.E.E.E.E.E.E.E.E.",
"@ B B B B B B B C C N b E.E.E.E.E.E.E.E.u j ;.:.h 9  .7  . . .4 ",
"F _._._._._._._._._./.b E.E.E.E.E.E.E.E.p v.b.b.l.M.&.&.&.&.&...",
"H.].].].].].].].~.^.`.N E.E.E.E.E.E.E.E.p z.b.b.b.f.%.&.&.&.&. .",
"H.].Y.D P.R.J.!.Q./._.N E.E.E.E.E.E.E.E.p c.b.b.b.h.-.&.&.&.&. .",
"J.].B X O F   C S ~.`.N x x x x x x x x p x.b.b.b.k.| #.&.&.&. .",
"J.].S b C R.o c v !.`.N E.E.E.E.E.E.E.E.p c.b.b.g.{ E W ) @.$.6 ",
"H.].~.E.E.).R./.T.).`.N E.E.E.E.E.E.E.E.y d.j.s.] E E E E E ~ & ",
"K.].].].].].].].].].].n E.E.E.E.E.E.E.E.$ I Y U R T T T T T T % ",
"c G G G G G G G G G F n E.E.E.E.E.E.E.E.V ; - - ; ; ; ; ; ; ; > ",
"E.E.E.E.E.E.E.E.E.E.E.E.E.E.E.E.E.E.E.E.E.E.E.E.E.E.E.E.E.E.E.E.",
"E.E.E.E.E.E.E.E.E.E.E.E.E.E.E.E.E.E.E.E.E.E.E.E.E.E.E.E.E.E.E.E.",
"E.E.E.E.E.E.E.E.E.E.E.E.E.E.E.E.E.E.E.E.E.E.E.E.E.E.E.E.E.E.E.E.",
"v C C C C C C C C C B B E.E.E.E.E.E.E.E.M g z z s r t e t t t w ",
"F _._._._._._._._._./.N E.E.E.E.E.E.E.E.i 8.w.w.6.m.C.A.D.Z.V.X.",
"J.].].].].].].].!.^.`.C E.E.E.E.E.E.E.E.z e.t.t.u.a.S.F.F.F.F.+.",
"J.].Y.D P.R.J.!.Q./._.C E.E.E.E.E.E.E.E.z w.t.t.t.7.B.F.F.F.F.o.",
"J.].B X O F   C S ~.`.C x x x x x x x x z w.t.t.t.t.n.G.F.F.F.o.",
"J.].S b C R.o c b !.`.C E.E.E.E.E.E.E.E.z w.t.t.t.3.( _ =.N.F.o.",
"J.].~.E.E.).R./.T.).`.B E.E.E.E.E.E.E.E.f 9.t.0.2.^ E E ! ` ' = ",
"K.].].].].].].].].].].C E.E.E.E.E.E.E.E.< [ } / Q E E E E E E P ",
"v J.J.J.J.J.J.J.J.J.G b E.E.E.E.E.E.E.E.1 J L L H H H K K H H # "
};
