/* XPM */
static char *render_BA_recursive_xpm[]={
"32 32 203 2",
"      c #797979",
" 0    c #000000",
" 1    c #535353",
" 2    c #949494",
" 3    c #010101",
" 4    c #373737",
" 5    c #C1C1C1",
" 6    c #7A7A7A",
" 7    c #BEBEBE",
" 8    c #9D9D9D",
" 9    c #0A0A0A",
" a    c #262626",
" b    c #A8A8A8",
" c    c #444444",
" d    c #141414",
" e    c #121212",
" f    c #A4A4A4",
" g    c #BBBBBB",
" h    c #BABABA",
" i    c #C0C0C0",
" j    c #6F6F6F",
" k    c #1A1A1A",
" l    c #AEAEAE",
" m    c #131313",
" n    c #727272",
" o    c #C3C3C3",
" p    c #B4B4B4",
" q    c #B6B6B6",
" r    c #BFBFBF",
" s    c #8B8B8B",
" t    c #050505",
" u    c #3D3D3D",
" v    c #A9A9A9",
" w    c #1B1B1B",
" x    c #ACACAC",
" y    c #151515",
" z    c #4E4E4E",
" A    c #686868",
" B    c #ABABAB",
" C    c #393939",
" D    c #5D5D5D",
" E    c #090909",
" F    c #7E7E7E",
" G    c #2B2B2B",
" H    c #A5A5A5",
" I    c #595959",
" J    c #818181",
" K    c #525252",
" L    c #B7B7B7",
" M    c #B8B8B8",
" N    c #B1B1B1",
" O    c #A6A6A6",
" P    c #ADADAD",
" Q    c #AAAAAA",
" R    c #B5B5B5",
" S    c #C4C4C4",
" T    c #B9B9B9",
" U    c #C2C2C2",
" V    c #BDBDBD",
" W    c #787878",
" X    c #A0A0A0",
" Y    c #676767",
" Z    c #5B5B5B",
" &    c #B0B0B0",
"0     c #919191",
"00    c #565656",
"01    c #888888",
"02    c #757575",
"03    c #484848",
"04    c #898989",
"05    c #A7A7A7",
"06    c #101010",
"07    c #0E0E0E",
"08    c #636363",
"09    c #020202",
"0a    c #292929",
"0b    c #040404",
"0c    c #161616",
"0d    c #3E3E3E",
"0e    c #6D6D6D",
"0f    c #222222",
"0g    c #303030",
"0h    c #747474",
"0i    c #959595",
"0j    c #AFAFAF",
"0k    c #080808",
"0l    c #858585",
"0m    c #585858",
"0n    c #2D2D2D",
"0o    c #505050",
"0p    c #2E2E2E",
"0q    c #9F9F9F",
"0r    c #5F5F5F",
"0s    c #2C2C2C",
"0t    c #A1A1A1",
"0u    c #808080",
"0v    c #2A2A2A",
"0w    c #737373",
"0x    c #BCBCBC",
"0y    c #3C3C3C",
"0z    c #3A3A3A",
"0A    c #6A6A6A",
"0B    c #B3B3B3",
"0C    c #666666",
"0D    c #1F1F1F",
"0E    c #515151",
"0F    c #626262",
"0G    c #434343",
"0H    c #454545",
"0I    c #828282",
"0J    c #A3A3A3",
"0K    c #6C6C6C",
"0L    c #6E6E6E",
"0M    c #B2B2B2",
"0N    c #424242",
"0O    c #0C0C0C",
"0P    c #838383",
"0Q    c #4A4A4A",
"0R    c #111111",
"0S    c #0D0D0D",
"0T    c #8F8F8F",
"0U    c #494949",
"0V    c #4D4D4D",
"0W    c #656565",
"0X    c #C6C6C6",
"0Y    c #D7D7D7",
"0Z    c #CDCDCD",
"0&    c #CFCFCF",
"1     c #474747",
"10    c #404040",
"11    c #EBEBEB",
"12    c #939393",
"13    c #252525",
"14    c #969696",
"15    c #030303",
"16    c #575757",
"17    c #EEEEEE",
"18    c #9E9E9E",
"19    c #A2A2A2",
"1a    c #F6F6F6",
"1b    c #9B9B9B",
"1c    c #5E5E5E",
"1d    c #FAFAFA",
"1e    c #4B4B4B",
"1f    c #9A9A9A",
"1g    c #777777",
"1h    c #5A5A5A",
"1i    c #8A8A8A",
"1j    c #E1E1E1",
"1k    c #D3D3D3",
"1l    c #7B7B7B",
"1m    c #F5F5F5",
"1n    c #F7F7F7",
"1o    c #D4D4D4",
"1p    c #D9D9D9",
"1q    c #8D8D8D",
"1r    c #989898",
"1s    c #E3E3E3",
"1t    c #E9E9E9",
"1u    c #D8D8D8",
"1v    c #4C4C4C",
"1w    c #ECECEC",
"1x    c #E2E2E2",
"1y    c #EFEFEF",
"1z    c #FBFBFB",
"1A    c #060606",
"1B    c #C7C7C7",
"1C    c #929292",
"1D    c #616161",
"1E    c #DBDBDB",
"1F    c #696969",
"1G    c #707070",
"1H    c #171717",
"1I    c #181818",
"1J    c #D1D1D1",
"1K    c #E8E8E8",
"1L    c #212121",
"1M    c #CACACA",
"1N    c #FEFEFE",
"1O    c #242424",
"1P    c #2F2F2F",
"1Q    c #3B3B3B",
"1R    c #999999",
"1S    c #E5E5E5",
"1T    c #FFFFFF",
"1U    c #CECECE",
"1V    c #C9C9C9",
"1W    c #9C9C9C",
"1X    c #0B0B0B",
"1Y    c #272727",
"1Z    c #E7E7E7",
"1&    c #8E8E8E",
"2     c #D6D6D6",
"20    c #EAEAEA",
"21    c #C5C5C5",
"22    c #F9F9F9",
"23    c #363636",
"24    c #717171",
"25    c #0F0F0F",
"26    c #6B6B6B",
"27    c #646464",
"28    c #191919",
"29    c #343434",
"   0 1 2 3 4 5 6 0 1 2 3 4 5 6 0 1 2 3 4 5 6 0 1 2 3 4 7 8 9 a b",
" 7 c 3 d e f g 7 c 3 d e f g 7 c 3 d e f g 7 c 3 d e f h i j 0 k",
" h l m 0 n o p h l m 0 n o p h l m 0 n o p h l m 0 n o p q r 4 0",
" 7 s t 0 u g q 7 s t 0 u g q 7 s t 0 u g q 7 s t 0 u g q h v w 0",
" x y k z 0 A o B y k z 0 A o B y k z 0 A o B y k z 0 A i g C 0 D",
" 1 E F 7 G y H I E F 7 G y H I E F 7 G y H I E F 7 G y H J E K o",
" H b L M N O P O b L M N O P O b L M N O P O b L M N O l Q b R q",
" r S T R U o q 7 S T R U o q 7 S T R U o q 7 S T R U o q g S V p",
" W I X V Y Z & 6 I X V Y Z & 6 I X V Y Z & 6 I X V Y Z N0 0001 5",
"01 0 402 003 504 0 402 003 504 0 402 003 504 0 402 003 r05060704",
" 508 0090a p M 508 0090a p M 508 0090a p M 508 0090a p M r s t0b",
" M q0c 0 W o p M q0c 0 W o p M q0c 0 W o p M q0c 0 W o p R S0d 0",
" i0e 0 30f N M i0e 0 30f N M i0e 0 30f N M i0e 0 30f N M V 2 909",
" 2 00g0h 0 c 50i 00g0h 0 c 50i 00g0h 0 c 50i 00g0h 0 c V0j k0k0l",
"0m0n0i U0o0p0q0r0s0i U0o0p0q0r0s0i U0o0p0q0r0s0i U0o0p0t0u0v0w o",
" L0x T R V g p L0x T R V g p L0x T R V g p L0x T R V g p R0x g R",
" q0x h L V T p q0x h L V T p q0x h L V T p q0x h L V T p R0x0x R",
" Y G s T0y0z p0A G s T0y0z0B0A G s T0y0z0B0A G s T0y0z0B s G0C U",
"0t 90D0E 00A U0t 90D0E 00A U0t 90D0E 00A U0t 90D0E 00A r R G 00F",
" 70u09 00G h0B 7 J09 0 c0x p 7 J09 00H V q i0I09 00H V q g0J y 0",
" p v m 0 Y q x0B0j d 00K0x P0B P d 00L o p T0M d 00L o p R U0z 0",
" R0N 00O0b0P f0B0Q 30R0S0T O P0U 30R0S X0x i0V 00R0S X g i   00c",
"0W Y0X0Y0x0Z0&0A 01 0T 0101101 01 12 013 h 6 00U14 013 L 815 k O",
"16 7170j18191a 20V1b0M1c181d T1e1f g1g000q0w1h O 5 W00191i160  7",
"0t1j1k   J1l o1m0505 X f1n p1a N0J x 7 S L r S T p i S L g S0x p",
"041o1p1q0 1r1s r1i0t1r h1t  1u0Z0i P v f N05 b L T P f0M B05 p M",
"1v0i1d1w1x1y1z1h1A1c0l1B1C1D121E1F140c0v T Y0k1G x1H0v L1q0S c g",
"1q U R0a1I1l1J1K1L0k0U1y1M0X0Z1N080D 001 r p1O0O1P 0 s V 70V 01Q",
"1R1S1b 0 c1q141T 2 0021d1M1U1V1K h 00m g p0x1W1X 00r U R M p1Y 0",
"1b1Z1b 00y1& g1T s E2 0t041& s X1z130U T p g0J0S 0 I 5 R L T0n 0",
"1r1B20 i211w22 S w0G1y m0w x190v1V1R 00I 7 T0g 9 G 001 7 i Z 023",
"1c131& 5 Z z f I 0 j N0O1I B0W 024 M251I0B26 0270j25280M1C0929 h"};
