/* XPM */
static char *magick[] = {
/* columns rows colors chars-per-pixel */
"32 32 99 2",
"   c Gray0",
".  c #070707",
"X  c Gray3",
"o  c #0c0c0c",
"O  c Gray5",
"+  c #0e0e14",
"@  c #0d1a0d",
"#  c #0f1f0f",
"$  c Gray7",
"%  c Gray10",
"&  c #1e1e1e",
"*  c #1d1d29",
"=  c #132813",
"-  c #142b14",
";  c #173117",
":  c #183318",
">  c #193619",
",  c #1c3c1c",
"<  c #222222",
"1  c #21212e",
"2  c #2d2d2d",
"3  c #282837",
"4  c #2c2c3d",
"5  c #2c2c3e",
"6  c Gray19",
"7  c #393939",
"8  c Gray24",
"9  c #1f1f58",
"0  c #36364b",
"q  c #3d3d54",
"w  c #323270",
"e  c #363675",
"r  c #373776",
"t  c #383877",
"y  c #393978",
"u  c #3a3a79",
"i  c #1f401f",
"p  c #1f581f",
"a  c #2b5a2b",
"s  c #2d5e2d",
"d  c #327032",
"f  c #367536",
"g  c #377437",
"h  c #377637",
"j  c #387738",
"k  c #397839",
"l  c #3a793a",
"z  c Gray25",
"x  c Gray27",
"c  c Gray31",
"v  c #42425c",
"b  c #44445d",
"n  c #505050",
"m  c #555555",
"M  c #565656",
"N  c Gray34",
"B  c #585858",
"V  c Gray35",
"C  c Gray36",
"Z  c #494966",
"A  c #4b4b68",
"S  c #57577a",
"D  c #646464",
"F  c Gray41",
"G  c #727272",
"H  c Gray46",
"J  c #444483",
"K  c #494988",
"L  c #5f5f83",
"P  c #70709c",
"I  c #71719d",
"U  c #7c7cad",
"Y  c #7e7eaf",
"T  c #448344",
"R  c #498849",
"E  c #4c9f4c",
"W  c #539253",
"Q  c #4fa74f",
"!  c #52ac52",
"~  c #56b456",
"^  c #57b857",
"/  c #58b958",
"(  c #5ec65e",
")  c #8b8b8b",
"_  c #9b9b9b",
"`  c #9d9d9d",
"'  c #a2a2a2",
"]  c #aaaaaa",
"[  c #aeaeae",
"{  c Gray71",
"}  c #bbbbbb",
"|  c #bebebe",
" . c #9191ca",
".. c #9292cb",
"X. c #9c9cd8",
"o. c #a1a1e0",
"O. c #a4a4e4",
"+. c #c1c1c1",
"@. c Gray80",
/* pixels */
"+.+.+.+.+.+.+.+.+.+.+.+.+.+.+.+.+.+.+.+.+.+.+.+.+.+.+.+.+.+.+.+.",
"+.+.+.+.+.+.+.+.+.+.+.+.+.+.+.+.+.+.+.+.+.+.+.+.+.+.+.+.+.+.+.+.",
"+.+.+.+.+.+.+.+.+.+.+.+.+.+.+.+.+.+.+.+.+.+.+.+.+.+.+.+.+.+.+.+.",
"+.+.+.+.+.+.+.+.+.+.+.+.+.| +.+.+.+.+.+.+.+.+.+.+.+.+.+.+.+.+.+.",
"7 V m m m m m m m m n F +.< ] +.+.+.+.+.+.+.p l f f f f f f d R ",
"V _ _ _ _ _ _ _ _ _ _ D +.  z +.+.+.+.+.+.+.l ( ( ( ( ( ( ( ( T ",
"m _ _ _ _ _ _ _ _ _ _ D +..   G +.+.+.+.+.+.f ( ( ( ( ( ( ( ( T ",
"m _ _ _ _ _ _ _ _ _ _ D +.X   O ` +.+.+.+.+.f (   ( ( ( - ^ ( T ",
"m _ _ _ _ _ _ _ _ _ _ D +.X     2 } +.+.+.+.f (   ( ( ( = W ( T ",
"m _ _ _ _ _ _ _ _ _ _ D +.X       C +.+.+.+.f (   ( ( ( i ! ( T ",
"m _ _ _ _ _ _ _ _ _ _ D +.X         ) +.+.+.f (   ^ ( ( ; ^ ( T ",
"m _ _ _ _ _ _ _ _ _ _ D +.X         & [ +.+.j ( a : f s > ( ( T ",
"V _ _ _ _ _ _ _ _ _ _ D +..           x +.+.l ( Q # @ , E ( ( T ",
"V _ _ _ _ _ _ _ _ _ _ D +..             H +.l ( ( ~ E / ( ( ( T ",
"7 V m m m m m m m m n F +..             O +.p l f f f f f f d R ",
"+.+.+.+.+.+.+.+.+.+.+.+.+..             . +.+.+.+.+.+.+.+.+.+.+.",
"7 V m m m m m m m m n F +..             F +.9 y r r r r r r w K ",
"V @.@.@.@.@.@.@.@.@.@.D +..           8 +.+.y O.O.O.O.O.O.O.O.J ",
"m @.@.@.@.@.@.@.@.@.@.D +..         % ] +.+.r O.O.O.O.O.O.O.O.J ",
"m @.@.@.@.@.@.@.@.@.@.D +..         ) +.+.+.r O.v O.O.O.O.1 O.J ",
"m @.@.@.@.@.@.@.@.@.@.D +..       C +.+.+.+.r O.q P O.O.L b O.J ",
"m @.@.@.@.@.@.@.@.@.@.D +..     6 | +.+.+.+.r O.Y 3 O.X.+  .O.J ",
"m @.@.@.@.@.@.@.@.@.@.D +..   $ ' +.+.+.+.+.t O.o.0 P S A O.O.J ",
"V @.@.@.@.@.@.@.@.@.@.D +..   | +.+.+.+.+.+.y O.O.Y * 4  .O.O.J ",
"V @.@.@.@.@.@.@.@.@.@.D +.  c +.+.+.+.+.+.+.y O.O.O.4 Z O.O.O.J ",
"V @.@.@.@.@.@.@.@.@.@.D +.2 { +.+.+.+.+.+.+.y O.O.O.O.O.O.O.O.J ",
"7 V m m m m m m m m n F +.` +.+.+.+.+.+.+.+.9 y r r r r r r w K ",
"+.+.+.+.+.+.+.+.+.+.+.+.+.+.+.+.+.+.+.+.+.+.+.+.+.+.+.+.+.+.+.+.",
"+.+.+.+.+.+.+.+.+.+.+.+.+.+.+.+.+.+.+.+.+.+.+.+.+.+.+.+.+.+.+.+.",
"+.+.+.+.+.+.+.+.+.+.+.+.+.+.+.+.+.+.+.+.+.+.+.+.+.+.+.+.+.+.+.+.",
"+.+.+.+.+.+.+.+.+.+.+.+.+.+.+.+.+.+.+.+.+.+.+.+.+.+.+.+.+.+.+.+.",
"+.+.+.+.+.+.+.+.+.+.+.+.+.+.+.+.+.+.+.+.+.+.+.+.+.+.+.+.+.+.+.+."
};
