/* XPM */
static char *render_BA_texcoord_xpm[]={
"32 32 236 2",
"      c #454545",
" 0    c #323232",
" 1    c #1A1A1A",
" 2    c #0D0D0D",
" 3    c #131313",
" 4    c #343434",
" 5    c #5A5A5A",
" 6    c #787878",
" 7    c #838383",
" 8    c #7C7C7C",
" 9    c #7B7B7B",
" a    c #7E7E7E",
" b    c #666666",
" c    c #585858",
" d    c #505050",
" e    c #3C3C3C",
" f    c #3F3F3F",
" g    c #4A4A4A",
" h    c #565656",
" i    c #494949",
" j    c #393939",
" k    c #363636",
" l    c #2B2B2B",
" m    c #232323",
" n    c #1F1F1F",
" o    c #373737",
" p    c #414141",
" q    c #444444",
" r    c #212121",
" s    c #3A3A3A",
" t    c #404040",
" u    c #353535",
" v    c #1E1E1E",
" w    c #1C1C1C",
" x    c #4B4B4B",
" y    c #616161",
" z    c #707070",
" A    c #7F7F7F",
" B    c #818181",
" C    c #757575",
" D    c #545454",
" E    c #464646",
" F    c #474747",
" G    c #5B5B5B",
" H    c #606060",
" I    c #535353",
" J    c #171717",
" K    c #2D2D2D",
" L    c #424242",
" M    c #484848",
" N    c #595959",
" O    c #4D4D4D",
" P    c #313131",
" Q    c #5E5E5E",
" R    c #797979",
" S    c #696969",
" T    c #6A6A6A",
" U    c #5D5D5D",
" V    c #646464",
" W    c #6F6F6F",
" X    c #6D6D6D",
" Y    c #4F4F4F",
" Z    c #2A2A2A",
" &    c #727272",
"0     c #656565",
"00    c #262626",
"01    c #1B1B1B",
"02    c #3D3D3D",
"03    c #555555",
"04    c #6B6B6B",
"05    c #6C6C6C",
"06    c #525252",
"07    c #2C2C2C",
"08    c #515151",
"09    c #626262",
"0a    c #141414",
"0b    c #0F0F0F",
"0c    c #4C4C4C",
"0d    c #3E3E3E",
"0e    c #6E6E6E",
"0f    c #767676",
"0g    c #222222",
"0h    c #282828",
"0i    c #292929",
"0j    c #050505",
"0k    c #242424",
"0l    c #202020",
"0m    c #303030",
"0n    c #808080",
"0o    c #858585",
"0p    c #828282",
"0q    c #717171",
"0r    c #111111",
"0s    c #181818",
"0t    c #161616",
"0u    c #151515",
"0v    c #0E0E0E",
"0w    c #4E4E4E",
"0x    c #121212",
"0y    c #868686",
"0z    c #939393",
"0A    c #848484",
"0B    c #7A7A7A",
"0C    c #0B0B0B",
"0D    c #000000",
"0E    c #040404",
"0F    c #030303",
"0G    c #101010",
"0H    c #3B3B3B",
"0I    c #010101",
"0J    c #383838",
"0K    c #777777",
"0L    c #888888",
"0M    c #8F8F8F",
"0N    c #020202",
"0O    c #070707",
"0P    c #8D8D8D",
"0Q    c #A8A8A8",
"0R    c #969696",
"0S    c #ABABAB",
"0T    c #BABABA",
"0U    c #0A0A0A",
"0V    c #989898",
"0W    c #FFFFFF",
"0X    c #B9B9B9",
"0Y    c #E0E0E0",
"0Z    c #636363",
"0&    c #949494",
"1     c #DDDDDD",
"10    c #747474",
"11    c #909090",
"12    c #252525",
"13    c #F0F0F0",
"14    c #D2D2D2",
"15    c #A2A2A2",
"16    c #8A8A8A",
"17    c #BCBCBC",
"18    c #5F5F5F",
"19    c #D5D5D5",
"1a    c #D4D4D4",
"1b    c #898989",
"1c    c #FBFBFB",
"1d    c #ECECEC",
"1e    c #B8B8B8",
"1f    c #F9F9F9",
"1g    c #F7F7F7",
"1h    c #D7D7D7",
"1i    c #F5F5F5",
"1j    c #999999",
"1k    c #434343",
"1l    c #EBEBEB",
"1m    c #8B8B8B",
"1n    c #ACACAC",
"1o    c #F6F6F6",
"1p    c #DFDFDF",
"1q    c #A5A5A5",
"1r    c #929292",
"1s    c #FAFAFA",
"1t    c #9E9E9E",
"1u    c #CBCBCB",
"1v    c #333333",
"1w    c #979797",
"1x    c #D0D0D0",
"1y    c #FDFDFD",
"1z    c #DADADA",
"1A    c #EFEFEF",
"1B    c #8E8E8E",
"1C    c #FEFEFE",
"1D    c #C9C9C9",
"1E    c #AFAFAF",
"1F    c #A4A4A4",
"1G    c #080808",
"1H    c #C7C7C7",
"1I    c #1D1D1D",
"1J    c #CFCFCF",
"1K    c #F4F4F4",
"1L    c #2E2E2E",
"1M    c #AEAEAE",
"1N    c #D3D3D3",
"1O    c #EDEDED",
"1P    c #E5E5E5",
"1Q    c #BDBDBD",
"1R    c #A0A0A0",
"1S    c #B4B4B4",
"1T    c #C6C6C6",
"1U    c #272727",
"1V    c #DBDBDB",
"1W    c #F8F8F8",
"1X    c #EAEAEA",
"1Y    c #BBBBBB",
"1Z    c #CECECE",
"1&    c #E9E9E9",
"2     c #E3E3E3",
"20    c #B3B3B3",
"21    c #E1E1E1",
"22    c #676767",
"23    c #CDCDCD",
"24    c #A3A3A3",
"25    c #B0B0B0",
"26    c #2F2F2F",
"27    c #DEDEDE",
"28    c #FCFCFC",
"29    c #F2F2F2",
"2a    c #A1A1A1",
"2b    c #191919",
"2c    c #959595",
"2d    c #C1C1C1",
"2e    c #BFBFBF",
"2f    c #060606",
"2g    c #878787",
"2h    c #9D9D9D",
"2i    c #8C8C8C",
"2j    c #919191",
"2k    c #B6B6B6",
"2l    c #B7B7B7",
"2m    c #686868",
"2n    c #9A9A9A",
"2o    c #AAAAAA",
"2p    c #D9D9D9",
"2q    c #C8C8C8",
"2r    c #F1F1F1",
"2s    c #ADADAD",
"2t    c #7D7D7D",
"2u    c #D1D1D1",
"2v    c #E6E6E6",
"2w    c #737373",
"2x    c #D8D8D8",
"2y    c #C5C5C5",
"2z    c #C3C3C3",
"2A    c #E8E8E8",
"2B    c #5C5C5C",
"2C    c #0C0C0C",
"2D    c #E2E2E2",
"2E    c #A7A7A7",
"2F    c #F3F3F3",
"2G    c #B1B1B1",
"   0 1 2 3 4 5 6 7 8 9 a b c d e f g h i j k l m n m o p q j r s",
" t q u v w 0 x y z A B C y D E k F G H I q   4 J K f x L M N L u",
" l u O g j P E d Q 6 R S T U x f   D V W X Y P m Z O 5 i D &0  p",
"0001 j N D  02 q03 G S0405 6 C06 t E S B05 O L s07 408 509 W09 q",
"0a0b n p0c x0d j s02 F h H0e X D h U0f 6 T d 4 l0g0h p03 U08 s0i",
"0j0k0707 F   o0i0l0i0m0h 4 F c T a0n0o0p0q020g w0r0s P o070t0u0v",
"0v l j L D0w o K m0s 30x v02090y0z0A0B09 O07 v 30b0x0t J0C0D0E0F",
"0G0r s05 W U  0H j n0I0v0J090K0L0M z Y010D010i v0b0D0D0N0O 30C0C",
" g0P R W0e0w0z0Q x m A0M0w z0R0z0S0T & N A t0i000e0y060U0G x0V09",
"0p0W0X V H q0Y0W h0x0T0W0M0Z0L0&1 0W10110W1112 j130W14010b150W &",
"160W17180c s190W Y0G y0W1a Y U1b1c1d L050W1e m z0W1f1g g001h1i06",
"1j0W0T G080J1a0W E001k1l1c H o1m0W1n 4 51o1p K1q0W1e0W1r G1s19 h",
"1t0W1e09 50k1u0W u001v1n0W1w0k170W H070H1x1y051z1A1B1C1D1j0W1E03",
"1F0W1e i 41G1H0W Z0E1I y0W1J021K1z0h1L l1q0W1M1o1N A1O1P1Q0W1B0 ",
"1R0W1S0d K0N1T0W1U0N r 01V1W1R0W 70x1L120K0W1X0W1Y0p1Z1s1&1W B C",
"0p0W14   o l2 1o121I0i K0&0W1c1s020O0r0b I1f0W1y1S0z200W0W21 922",
" p190W23241a0W25 r001U1v F1C0W1T0x0U0j0O26270W1W0T0V0z280W1T 922",
"02 i1e290W1&2a K n0s00 u2b2c2d 50F0C 2010J15211p2e1t a1J211t C22",
"220c1v c U u0l 4 k 402 4010D0I0G0a2f0b 0 g G2g1q1M2h0P162i1B0A0q",
"0A X c03 p s F I0Z y O1k K 10t 112 k e F N0B0M1b1B2c0L B1r0S1E0V",
"16 C N M L08 y X & U i  0m 10g0h o H C V102j0P a2g1B0y0p1w2k2l1R",
" B09 f0m Y092m0q H0w02 p0m1I0i0J E0f1t0z0p1B1w161m0L1B0P2n1M2o1w",
"221q23141V2p1n09 i L j u091J10 q X110z0V2j1r1r1m0P0L0P2c2j1r1b0n",
" y2q1V W220o2r0Q t s 00h2s1C1J 5 T b T0K0q X10 B0z2i A1m0M0o0q2t",
" b2u1Y0l00260S211k k l L2v1b1l0 02 p p I h080Z0p1m B0n2t C S H2w",
"18231T O G &2x1q 012001b2 1U2y1E 00m120g j E18 S C0B X N q F0w18",
"032z1W2A1&1K13 M m12 01a161G2m2r O l0u2f 10J2B18 V T q0k 1070w18",
" x2y1Z0Z S S1n19 K00 U1C2k2n1M0W0y1U2C1G0U P06 T0e S x0a0F1U x06",
"0J1Y2e p h d g1y D1I1q2D2n2E1q2u14 v1G2f0E0s j N S03 o0x0a0H0c1k",
" 3250X l t O0z1f q o1O0R00 Z07 V0W0w0v0u n0l0g 0 o000s0l1v p  1L",
"1G2o1i231x1V2F1w1v B1c X Q Y E0d1p2G2b P0H l v0101 2 v 002 e0J0g",
" Z t I c2B T T Q N 60L0e z Q g s060Z s t s07 n0x0G0a r f O o07 j"};
