/* XPM */
static char * render_mip_matteshadow_mtl_xpm[] = {
"32 32 181 2",
"  	c #000000",
". 	c #010101",
"+ 	c #020202",
"@ 	c #030303",
"# 	c #050505",
"$ 	c #181818",
"% 	c #868686",
"& 	c #B0B0B0",
"* 	c #545454",
"= 	c #0D0D0D",
"- 	c #040404",
"; 	c #303030",
"> 	c #BFBFBF",
", 	c #FCFCFC",
"' 	c #FAFAFA",
") 	c #EEEEEE",
"! 	c #686868",
"~ 	c #060606",
"{ 	c #161616",
"] 	c #3F3F3F",
"^ 	c #383838",
"/ 	c #1B1B1B",
"( 	c #090909",
"_ 	c #585858",
": 	c #DEDEDE",
"< 	c #FEFEFE",
"[ 	c #FBFBFB",
"} 	c #EDEDED",
"| 	c #333333",
"1 	c #4C4C4C",
"2 	c #CFCFCF",
"3 	c #F9F9F9",
"4 	c #D5D5D5",
"5 	c #4D4D4D",
"6 	c #101010",
"7 	c #858585",
"8 	c #F3F3F3",
"9 	c #FDFDFD",
"0 	c #A9A9A9",
"a 	c #070707",
"b 	c #E9E9E9",
"c 	c #B6B6B6",
"d 	c #E6E6E6",
"e 	c #0F0F0F",
"f 	c #1D1D1D",
"g 	c #838383",
"h 	c #A4A4A4",
"i 	c #969696",
"j 	c #080808",
"k 	c #A2A2A2",
"l 	c #F4F4F4",
"m 	c #F2F2F2",
"n 	c #353535",
"o 	c #323232",
"p 	c #D6D6D6",
"q 	c #717171",
"r 	c #131313",
"s 	c #EAEAEA",
"t 	c #282828",
"u 	c #F7F7F7",
"v 	c #EBEBEB",
"w 	c #404040",
"x 	c #191919",
"y 	c #6E6E6E",
"z 	c #3A3A3A",
"A 	c #F8F8F8",
"B 	c #A7A7A7",
"C 	c #F1F1F1",
"D 	c #FFFFFF",
"E 	c #EFEFEF",
"F 	c #616161",
"G 	c #666666",
"H 	c #D8D8D8",
"I 	c #141414",
"J 	c #B1B1B1",
"K 	c #5E5E5E",
"L 	c #1C1C1C",
"M 	c #1A1A1A",
"N 	c #6C6C6C",
"O 	c #0B0B0B",
"P 	c #151515",
"Q 	c #505050",
"R 	c #F0F0F0",
"S 	c #5D5D5D",
"T 	c #2E2E2E",
"U 	c #2A2A2A",
"V 	c #D1D1D1",
"W 	c #0A0A0A",
"X 	c #121212",
"Y 	c #2F2F2F",
"Z 	c #4B4B4B",
"` 	c #ACACAC",
" .	c #7B7B7B",
"..	c #494949",
"+.	c #424242",
"@.	c #444444",
"#.	c #DDDDDD",
"$.	c #989898",
"%.	c #111111",
"&.	c #454545",
"*.	c #999999",
"=.	c #DBDBDB",
"-.	c #7C7C7C",
";.	c #636363",
">.	c #E1E1E1",
",.	c #555555",
"'.	c #262626",
").	c #272727",
"!.	c #3B3B3B",
"~.	c #515151",
"{.	c #9C9C9C",
"].	c #BEBEBE",
"^.	c #F6F6F6",
"/.	c #ECECEC",
"(.	c #878787",
"_.	c #E2E2E2",
":.	c #646464",
"<.	c #676767",
"[.	c #E8E8E8",
"}.	c #D9D9D9",
"|.	c #8E8E8E",
"1.	c #8A8A8A",
"2.	c #BCBCBC",
"3.	c #CACACA",
"4.	c #C8C8C8",
"5.	c #8B8B8B",
"6.	c #626262",
"7.	c #0C0C0C",
"8.	c #0E0E0E",
"9.	c #222222",
"0.	c #393939",
"a.	c #D4D4D4",
"b.	c #D3D3D3",
"c.	c #BBBBBB",
"d.	c #9F9F9F",
"e.	c #8C8C8C",
"f.	c #888888",
"g.	c #9E9E9E",
"h.	c #565656",
"i.	c #606060",
"j.	c #5F5F5F",
"k.	c #5A5A5A",
"l.	c #4A4A4A",
"m.	c #3C3C3C",
"n.	c #2C2C2C",
"o.	c #6B6B6B",
"p.	c #E5E5E5",
"q.	c #AEAEAE",
"r.	c #ADADAD",
"s.	c #9A9A9A",
"t.	c #787878",
"u.	c #797979",
"v.	c #CCCCCC",
"w.	c #313131",
"x.	c #2D2D2D",
"y.	c #2B2B2B",
"z.	c #232323",
"A.	c #171717",
"B.	c #202020",
"C.	c #C9C9C9",
"D.	c #E4E4E4",
"E.	c #252525",
"F.	c #696969",
"G.	c #DCDCDC",
"H.	c #7F7F7F",
"I.	c #434343",
"J.	c #808080",
"K.	c #B8B8B8",
"L.	c #E7E7E7",
"M.	c #E0E0E0",
"N.	c #C2C2C2",
"O.	c #4F4F4F",
"P.	c #1F1F1F",
"Q.	c #373737",
"R.	c #535353",
"S.	c #1E1E1E",
"T.	c #464646",
"U.	c #343434",
"V.	c #474747",
"W.	c #484848",
"X.	c #414141",
"                                                                ",
"                                                                ",
"                                                                ",
"                                                                ",
"                                                                ",
"                                                                ",
"                                                                ",
"        . . .       +     .     +   +   +                       ",
"      @ @ + @ . @ + + + + # + + $ % & * = . # +                 ",
"    @ . @ @ # - - - + @ + - # ; > , ' ) ! # ~ .                 ",
"      @ - # { ] ^ / # @ . ( _ : ' < [ ' } | ~ @                 ",
"      - ~ 1 2 , 3 4 5 - 6 7 8 [ 9 , 9 < 3 0 a .   . - +         ",
"    . ~ | b < < < 9 ) 1 c , < < < < < < 9 d e a f g h i ^ j +   ",
"    @ ~ k 3 9 < < 9 , l 3 < < < < < < < ' m n o p [ ' [ m q @ + ",
"    . r s 9 < < < [ , ' 3 < < < < < < < ' b t > ' , u u [ v w   ",
"    @ x ' ' < < < < [ u [ < < < < < < < 3 y z A [ [ , , ' ' B a ",
"    . { C 9 < < < < 9 < D < < < , [ [ E F @ G , < < < 9 9 [ H I ",
". + - ( J [ < < < < 9 < D < < < , 9 s K L M N [ < < < , 9 < s f ",
"@ a O P Q R < < < < 9 < D < < < < d S T U T K [ < < < 9 , ' V 6 ",
"W X L Y Z ` ' < < < 9 < D < < < R  ...+.@.@.5 #.< < < [ < 3 $.6 ",
"%./ U &.G *.p ) R 3 D < < < < 9 [ s =.` -.F ;.B 3 [ , 3 [ >.,.'.",
"%.M ).!.~.N % {.].^.9 9 < 9 [ ' 3 [ < [ /.B (.` _.3 9 , m & :.] ",
"e I L '.o w Z <.[.9 [ < , 3 C b #.4 }.C , C |.1.k 2.3.4.J 5.6.w ",
"7.8.I M 9.Y 0.q 9 [ a.H ) d b.c.d.e.f.h ) [ g.h._ i.6.j.k.l.m.n.",
"( 7.e I L '.0.o.8 , p.c.q.r.s.f.t.u.|.v.^.' e.!.w.x.y.n.t z.f A.",
"a O = %.A.B.x.Q C.[ 9 ' 8 D.#.#.: R 3 , [ _.:.E.L x A.P r %.e = ",
"# a ( 7.6 { f n.F.C.l ' , [ 9 9 ' [ ' u G.H.y.A.%.6 8.7.O O ( a ",
"@ # ~ ( ( = 6 A.B.I.J.K.G.L.) ) } M.N.|.O.P.6 7.( ( j ~ # - - @ ",
"+ + + a j j j W O 8.$ E.Q...* R.Z !.'.P O W j ( a j ~ @ @ + .   ",
". . @ # @ a ~ ~ a W ~ W W a j W W ~ W ( ~ # @ - - - + @ + + .   ",
". . . @ O = O f z.X n.I 6 8.6 r U S.a 7.6 e r X O 8.. . . . .   ",
". . + - ; @.o Y T.z.5 | @...U.n.V.Q.+ B.W.T.V.] W.X.~ .         "};
