/* XPM */
static char *RT_off_xpm[] = {
/* width height num_colors chars_per_pixel */
"    20    20      256            2",
/* colors */
"`` c #000000",
"`. c #7c8284",
"`# c #3c4244",
"`a c #1c221c",
"`b c #b4c2c4",
"`c c #9ca2a4",
"`d c #5c6264",
"`e c #00003c",
"`f c #2c2e6c",
"`g c #2c322c",
"`h c #a4b2b4",
"`i c #141214",
"`j c #d4e2e4",
"`k c #4c5254",
"`l c #849294",
"`m c #6c7274",
"`n c #14123c",
"`o c #1c2234",
"`p c #9caaac",
"`q c #000024",
"`r c #444a44",
"`s c #242a2c",
"`t c #c4d2d4",
"`u c #9492a4",
"`v c #646a6c",
"`w c #343a34",
"`x c #e4f2f4",
"`y c #000054",
"`z c #b4b2b4",
"`A c #141a1c",
"`B c #545274",
"`C c #6c7a7c",
"`D c #7c8a8c",
"`E c #24221c",
"`F c #c4c2c4",
"`G c #acaaa4",
"`H c #141254",
"`I c #0c0e24",
"`J c #4c4a54",
"`K c #f4faff",
"`L c #b4babc",
"`M c #0c0e0c",
"`N c #a4a2a4",
"`O c #0c0a3c",
"`P c #545a5c",
"`Q c #8c9a9c",
"`R c #949a9c",
"`S c #6c6a84",
"`T c #3c3e3c",
"`U c #8c8a9c",
"`V c #24222c",
"`W c #1c1a54",
"`X c #44425c",
"`Y c #bccacc",
"`Z c #646264",
"`0 c #00004c",
"`1 c #3c3e54",
"`2 c #343634",
"`3 c #14162c",
"`4 c #8c9294",
"`5 c #74767c",
"`6 c #a4aaac",
"`7 c #6c6e6c",
"`8 c #1c1a14",
".` c #747a7c",
".. c #bcbab4",
".# c #000600",
".a c #444644",
".b c #bcc2c4",
".c c #9ca6a4",
".d c #00063c",
".e c #141614",
".f c #dceaec",
".g c #545654",
".h c #6c7674",
".i c #242244",
".j c #000034",
".k c #444e4c",
".l c #2c2a2c",
".m c #ccdadc",
".n c #646e6c",
".o c #343e3c",
".p c #ecf2f4",
".q c #000064",
".r c #5c5a7c",
".s c #848a8c",
".t c #242624",
".u c #c4cacc",
".v c #acaeac",
".w c #141264",
".x c #0c0e34",
".y c #4c4e4c",
".z c #ffffff",
".A c #9c9ea4",
".B c #8c9694",
".C c #a4aeac",
".D c #1c1e1c",
".E c #747e7c",
".F c #bcbebc",
".G c #7c8684",
".H c #3c4644",
".I c #1c2224",
".J c #5c6664",
".K c #343274",
".L c #2c3234",
".M c #acb6bc",
".N c #4c5654",
".O c #00062c",
".P c #444a4c",
".Q c #ccd6d4",
".R c #9496ac",
".S c #343a3c",
".T c #00005c",
".U c #b4b6b4",
".V c #54567c",
".W c #242224",
".X c #c4c6c4",
".Y c #acaaac",
".Z c #141654",
".0 c #0c0e2c",
".1 c #f4ffff",
".2 c #0c0e14",
".3 c #a4a6a4",
".4 c #5c5e5c",
".5 c #949e9c",
".6 c #3c3e44",
".7 c #8c8ea4",
".8 c #24262c",
"#` c #1c1a64",
"#. c #3c3a6c",
"## c #e4eeec",
"#a c #24263c",
"#b c #646664",
"#c c #bcc6c4",
"#d c #2c2e2c",
"#e c #ecf6f4",
"#f c #848e8c",
"#g c #34363c",
"#h c #1c1a1c",
"#i c #bcbabc",
"#j c #00060c",
"#k c #9ca6ac",
"#l c #000644",
"#m c #14161c",
"#n c #6c767c",
"#o c #646e74",
"#p c #4c4e54",
"#q c #8c969c",
"#r c #a4aeb4",
"#s c #747e84",
"#t c #000000",
"#u c #000000",
"#v c #000000",
"#w c #000000",
"#x c #000000",
"#y c #000000",
"#z c #000000",
"#A c #000000",
"#B c #000000",
"#C c #000000",
"#D c #000000",
"#E c #000000",
"#F c #000000",
"#G c #000000",
"#H c #000000",
"#I c #000000",
"#J c #000000",
"#K c #000000",
"#L c #000000",
"#M c #000000",
"#N c #000000",
"#O c #000000",
"#P c #000000",
"#Q c #000000",
"#R c #000000",
"#S c #000000",
"#T c #000000",
"#U c #000000",
"#V c #000000",
"#W c #000000",
"#X c #000000",
"#Y c #000000",
"#Z c #000000",
"#0 c #000000",
"#1 c #000000",
"#2 c #000000",
"#3 c #000000",
"#4 c #000000",
"#5 c #000000",
"#6 c #000000",
"#7 c #000000",
"#8 c #000000",
"a` c #000000",
"a. c #000000",
"a# c #000000",
"aa c #000000",
"ab c #000000",
"ac c #000000",
"ad c #000000",
"ae c #000000",
"af c #000000",
"ag c #000000",
"ah c #000000",
"ai c #000000",
"aj c #000000",
"ak c #000000",
"al c #000000",
"am c #000000",
"an c #000000",
"ao c #000000",
"ap c #000000",
"aq c #000000",
"ar c #000000",
"as c #000000",
"at c #000000",
"au c #000000",
"av c #000000",
"aw c #000000",
"ax c #000000",
"ay c #000000",
"az c #000000",
"aA c #000000",
"aB c #000000",
"aC c #000000",
"aD c #000000",
"aE c #000000",
"aF c #000000",
"aG c #000000",
"aH c #000000",
"aI c #000000",
"aJ c #000000",
"aK c #000000",
"aL c #000000",
"aM c #000000",
"aN c #000000",
"aO c #000000",
"aP c #000000",
"aQ c #000000",
"aR c #000000",
"aS c #000000",
"aT c #000000",
"aU c #000000",
"aV c #000000",
"aW c #000000",
"aX c #000000",
"aY c #000000",
"aZ c #000000",
"a0 c #000000",
"a1 c #000000",
"a2 c #000000",
"a3 c #000000",
"a4 c #000000",
"a5 c #000000",
"a6 c #000000",
"a7 c #000000",
"a8 c #000000",
/* pixels */
"````````````````````````````````````````",
"``````````````.##m.I.t#m#j``````````````",
".##j#j#j```M#d`P.h`..s`D`m`#.2``#j#j#j.#",
"#j#j`````A#p`m.G`l.5`p`h`h.c`C.I``#j#j#j",
".#````.e`k#o#s#f.5#r`b`t`t#c`h.G.8``#j#j",
"``#j`M`#`d.h.G.B.c`b`j#e`K.f`Y#k`C#m````",
"`V.t#d`k.J.`.s`Q.C.u.p.z.z.1.m`h`l.P.#.#",
"`J#a.L.N`v.E#f`R.C`Y##.z.z`K.Q.C`4`v.e.#",
"`5#p#g.N`v.E#f`R`p`L.Q##`x`j.b.c#f`m.t.#",
".Z`n`w.N`v`.`4.5`c`6.M.b#c`L`p.B`..n`s``",
"`H`n`2.y#b.E#f#q`R`R.5`c`c`R`l`..h.J.l.#",
"#..i#d.a.4.h.G.s.s.s.s.s.s.G.E.h`v.N`V.2",
"`0#l`s.S`k`d`m`5.`#n.h#n.h`m.n.J`P.H.0`q",
"`0`0`3#d`T#p`P`d.J.J.J.J`d`d`P`k`r`o.j.j",
"`0#``X.t#d.S.a.k`k`k`k`k`k.y.P`#`g`1`W`e",
"`S.A.v.g#h`s.L.S`T`#`#`#.6.o`2.D#p.U`N`S",
".3.Y.v.Y`k`A`a.t`s#d#d#d#d.W`i.a.v.F..`z",
"`N.v.v`z.v`7`g.D.D.D#h`8.e`E`Z.U.F#i#i.F",
"`G.v.v.v..#i.V`O.x`I`I.O.d.r`F.X#i#i.X.7",
"`B.3`G.Y`U`f`y.T.T`y`y.T.q.T.K`u.F`F.R.w"
};
