/* XPM */
static char *RT_on_xpm[] = {
/* width height num_colors chars_per_pixel */
"    20    20      256            2",
/* colors */
"`` c #000000",
"`. c #7c8284",
"`# c #3c4244",
"`a c #b4c2c4",
"`b c #5c6264",
"`c c #1c2224",
"`d c #9ca2a4",
"`e c #4c5254",
"`f c #647274",
"`g c #00003c",
"`h c #242a54",
"`i c #849294",
"`j c #a4b2b4",
"`k c #d4e2e4",
"`l c #4c527c",
"`m c #34363c",
"`n c #141614",
"`o c #5c628c",
"`p c #74767c",
"`q c #9492a4",
"`r c #3c4274",
"`s c #000024",
"`t c #7c8a8c",
"`u c #1c224c",
"`v c #c4d2d4",
"`w c #9caaac",
"`x c #545a5c",
"`y c #14125c",
"`z c #5c6a6c",
"`A c #343664",
"`B c #b4b2b4",
"`C c #000a0c",
"`D c #444a4c",
"`E c #e4f2f4",
"`F c #949a9c",
"`G c #c4c2bc",
"`H c #2c2a2c",
"`I c #747e7c",
"`J c #b4babc",
"`K c #545a7c",
"`L c #444a64",
"`M c #7c8294",
"`N c #a4a2a4",
"`O c #545664",
"`P c #6c7294",
"`Q c #0c0e4c",
"`R c #646a84",
"`S c #8c8ea4",
"`T c #6c6e6c",
"`U c #f4faff",
"`V c #9c9eb4",
"`W c #b4bacc",
"`X c #24222c",
"`Y c #6c7a7c",
"`Z c #000054",
"`0 c #242a6c",
"`1 c #8c9a9c",
"`2 c #343a3c",
"`3 c #848a8c",
"`4 c #acaeb4",
"`5 c #5c5e5c",
"`6 c #1c1a64",
"`7 c #3c3e7c",
"`8 c #0c0a00",
".` c #4c4a4c",
".. c #9c9a9c",
".# c #545a84",
".a c #000614",
".b c #84868c",
".c c #bccacc",
".d c #64667c",
".e c #54525c",
".f c #6c7274",
".g c #8c9294",
".h c #1c1e34",
".i c #74768c",
".j c #4c4a74",
".k c #2c2a3c",
".l c #a4aaac",
".m c #1c1654",
".n c #646a6c",
".o c #3c3a64",
".p c #c4cacc",
".q c #7c7e84",
".r c #bcbab4",
".s c #242634",
".t c #848a9c",
".u c #0c0e14",
".v c #000600",
".w c #7c8684",
".x c #bcc2c4",
".y c #646664",
".z c #9ca6a4",
".A c #4c5654",
".B c #00004c",
".C c #2c2e5c",
".D c #dceaec",
".E c #34324c",
".F c #141a1c",
".G c #64669c",
".H c #9496ac",
".I c #0c0e34",
".J c #242a4c",
".K c #ccdadc",
".L c #545a6c",
".M c #141264",
".N c #ecf2f4",
".O c #949e9c",
".P c #c4c6c4",
".Q c #2c2e2c",
".R c #a4a6a4",
".S c #6c6a84",
".T c #ffffff",
".U c #242624",
".V c #848e8c",
".W c #0c0e0c",
".X c #4c4e4c",
".Y c #5c5a8c",
".Z c #6c7674",
".0 c #8c9694",
".1 c #4c4a84",
".2 c #a4aeac",
".3 c #646e6c",
".4 c #bcbebc",
".5 c #7c828c",
".6 c #3c4254",
".7 c #5c6664",
".8 c #000044",
"#` c #acb6bc",
"#. c #646684",
"## c #5c5e74",
"#a c #84869c",
"#b c #bcbec4",
"#c c #2c2e74",
"#d c #ccd6d4",
"#e c #3c3e3c",
"#f c #e4eeec",
"#g c #545274",
"#h c #4c4a5c",
"#i c #000034",
"#j c #24224c",
"#k c #5c5e6c",
"#l c #94969c",
"#m c #141654",
"#n c #343a6c",
"#o c #9c9ea4",
"#p c #747a94",
"#q c #4c4e7c",
"#r c #5c5e84",
"#s c #747a7c",
"#t c #545e5c",
"#u c #b4b6b4",
"#v c #444e4c",
"#w c #f4ffff",
"#x c #bcc6c4",
"#y c #34364c",
"#z c #ecf6f4",
"#A c #6c6e84",
"#B c #14161c",
"#C c #949aa4",
"#D c #c4c2c4",
"#E c #747e84",
"#F c #54566c",
"#G c #6c6e74",
"#H c #00005c",
"#I c #0c0a0c",
"#J c #646a74",
"#K c #3c3a6c",
"#L c #7c7e8c",
"#M c #bcbabc",
"#N c #00060c",
"#O c #9ca6ac",
"#P c #4c565c",
"#Q c #2c2e64",
"#R c #2c2e34",
"#S c #a4a6ac",
"#T c #24262c",
"#U c #848e94",
"#V c #4c4e54",
"#W c #6c767c",
"#X c #8c969c",
"#Y c #a4aeb4",
"#Z c #000000",
"#0 c #000000",
"#1 c #000000",
"#2 c #000000",
"#3 c #000000",
"#4 c #000000",
"#5 c #000000",
"#6 c #000000",
"#7 c #000000",
"#8 c #000000",
"a` c #000000",
"a. c #000000",
"a# c #000000",
"aa c #000000",
"ab c #000000",
"ac c #000000",
"ad c #000000",
"ae c #000000",
"af c #000000",
"ag c #000000",
"ah c #000000",
"ai c #000000",
"aj c #000000",
"ak c #000000",
"al c #000000",
"am c #000000",
"an c #000000",
"ao c #000000",
"ap c #000000",
"aq c #000000",
"ar c #000000",
"as c #000000",
"at c #000000",
"au c #000000",
"av c #000000",
"aw c #000000",
"ax c #000000",
"ay c #000000",
"az c #000000",
"aA c #000000",
"aB c #000000",
"aC c #000000",
"aD c #000000",
"aE c #000000",
"aF c #000000",
"aG c #000000",
"aH c #000000",
"aI c #000000",
"aJ c #000000",
"aK c #000000",
"aL c #000000",
"aM c #000000",
"aN c #000000",
"aO c #000000",
"aP c #000000",
"aQ c #000000",
"aR c #000000",
"aS c #000000",
"aT c #000000",
"aU c #000000",
"aV c #000000",
"aW c #000000",
"aX c #000000",
"aY c #000000",
"aZ c #000000",
"a0 c #000000",
"a1 c #000000",
"a2 c #000000",
"a3 c #000000",
"a4 c #000000",
"a5 c #000000",
"a6 c #000000",
"a7 c #000000",
"a8 c #000000",
/* pixels */
"````````````````````````````````````````",
"``````````````.v#B`c.U#B`C``````````````",
".v#N#N#N``.W#R`x.Z`.`3`t.f`#.u``#N#N#N.v",
"#N#N````.F#V.f.w`i.O`w`j`j.z`Y`c``#N#N#N",
".v````#B`e.3#E.V.O#Y`a`v`v#x`j.w#T``#N#N",
"``#N.u`#`b.Z.w.0.z`a`k#z`U.D.c#O`Y#B````",
"`X.U.Q`e.7#s`3`1.2.p.N.T.T#w.K`j`i#v.v.v",
".`.k`m.A.n`I.V`F.2.c#f.T.T`U#d#Y.g.3`n.v",
"`p.e`2.A.n`I#U.O`w`J#d#f`E`k.x.z.V.f#T.v",
"#m`u#e`e.n.q.g.O`d.l#`.x#x`J`w.0`.`f`H``",
"`Q.C`D.X.7`I.V#X`F`F.O`d`d`F`i`.#W`z#R.v",
".o`A#F`e`5.Z.w`3`3`3`3`3`3.w`I#W.3`x.s.u",
".B`y.d###k#G`..w`I#s#s#s#s.Z.f.n#t`D.I`s",
"`Z`Z#q#A`R.5`.#G.n.y.7.7`b`b`5.A`e#y`g#i",
".B`g`u`K.i#r`P#p.b#J.L`T.n#P.6`O`L.j.m`g",
".a#I.W.J#q#g#n.t#S`P`o#C#o.##.`l#r.r`N.S",
".W#I`8.W#h.R...b#K`0`7.G`W#b.R#a`4#M.r`B",
"#I#I#I`8.W.`#L..`M`r.1`V#u#l`N#M#M#M#M.4",
"#I#I#I#I#I``.a.h.E`h#j#Q`6.Y#M`G#M#M.P`S",
"#N#I#I#I#I````````````.8#H#H#c`q.4#D.H.M"
};
