/* XPM */ 
static const unsigned char * save_plus_xpm[] = {
"32 32 15 1",
" 	c None",
"!	c #D4D0C8",
"#	c #111111",
"$	c #747474",
"%	c #3A3A3A",
"&	c #D4D4D4",
"'	c white",
"(	c #2A2C2A",
")	c #6F6F6F",
"*	c #595959",
"+	c #868686",
",	c #464646",
"-	c #484848",
".	c #505050",
"0	c #5A5A5A",
"!!!!!!!!!!!!!!!!!!!!!!!!!!!!!!!!",
"!!!!!!!!!!!!!!!!!!!!!!!!!!!!!!!!",
"!!!!!!!!!!!!!!!!!!!!!!!!!!!!!!!!",
"!!!!!!!!!!!!!!!!!!!!!!!!!!!!!!!!",
"!!!!!!!!!!!!!!!!!!!!!!!!!!!!!!!!",
"!!!!!!!!!!!!!!!!!!!!!!!!!!!!!!!!",
"!!!!!!!!!!!!!!!!!!!!!!!!!!!!!!!!",
"!!!!!!!!!!#$$$%&&&&'(%!!!!!!!!!!",
"!!!!!!!!!%#$$$%'&'''(%%!!!!!!!!!",
"!!!!!!!!%)#$$$*&'''&(%$%!!!!!!!!",
"!!!!!!!!%$%#########(%$%!!!!!!!!",
"!!!!!!!!%$%*$$++++$$*%$%!!!!!!!!",
"!!!!!!!!%$%*$$++++$$*%$%!!!!!!!!",
"!!!!!!!!%$%*$$++++$$*%$%!!!!!!!!",
"!!!!!!!!%$%##########%$%!!!!!!!!",
"!!!!!!!!%$#,,,,,,,,,,#$%!!!!!!!!",
"!!!!!!!!%$#,,,,,,,,,,#$%!!!!!!!!",
"!!!!!!!!%$#----------#$%!!!!!!!!",
"!!!!!!!!%$#..........#$%!!!!!!!!",
"!!!!!!!!%$#0000000000#$%!!!!!!!!",
"!!!!!!!!%$#0000000000#$%!!!!!!!!",
"!!!!!!!!%$#%$#$00$#$%#$%!!!!!!!!",
"!!!!!!!!!%0#%%%%%%%%#0%!!!!!!!!!",
"!!!!!!!!!!!!!!!!!!!!!!!!!!!!!!!!",
"!!!!!!!!!!!!!!!!!!!!!!!!!!!!!!!!",
"!!!!!!!!!!!!!!!!!!!!!!!!!!!!!!!!",
"!!!!!!!!!!!!!!!!!!!!!!!!!!!!!!!!",
"!!!!!!!!!!!!!!!!!!!!!!!!!!!!!!!!",
"!!!!!!!!!!!!!!!!!!!!!!!!!!!!!!!!",
"!!!!!!!!!!!!!!!!!!!!!!!!!!!!!!!!",
"!!!!!!!!!!!!!!!!!!!!!!!!!!!!!!!!",
"!!!!!!!!!!!!!!!!!!!!!!!!!!!!!!!!"};