/* XPM */
static char * shadingGroupList_xpm[] = {
"16 16 35 1",
" 	s bg	c #FFFF0000FFFF",
".	s c1	c #000000004949",
"X	s c2	c #00000000A0A0",
"o	s c3	c #FFFFFFFF0000",
"O	s c4	c #E3E316160000",
"+	s c5	c #FFFF00000000",
"@	s c6	c #FFFF37370000",
"#	s c7	c #000000000303",
"$	s c8	c #353500000B0B",
"%	s c9	c #5B5B00000000",
"&	s c10	c #B4B402020000",
"*	s c11	c #C1C100000000",
"=	s c12	c #A2A200000000",
"-	s c13	c #888804040000",
";	s c14	c #989809090000",
":	s c15	c #C6C606060000",
"?	s c16	c #00000000BFBF",
">	s c17	c #00005A5A0000",
",	s c18	c #00007C7C0000",
"<	s c19	c #151598981515",
"1	s c20	c #212121210000",
"2	s c21	c #000000000000",
"3	s c22	c #000069690000",
"4	s c23	c #2323AAAA2323",
"5	s c24	c #000074740000",
"6	s c25	c #111190901111",
"7	s c26	c #0C0C87870C0C",
"8	s c27	c #000077770000",
"9	s c28	c #3B3B3A3A0000",
"0	s c29	c #343486863434",
"q	s c30	c #F2F2F2F22727",
"w	s c31	c #34346D6D3434",
"e	s c32	c #FFFFFFFFFFFF",
"r	s c33	c #0D0D0E0E1818",
"t	s c34	c #000000009898",
"      ...       ",
"    X.ooo..     ",
"   .ooooooo.    ",
"  .ooO++++@o.   ",
" .ooo#$%&*=oo.  ",
" .ooo$-%;:=oo?  ",
".ooo>,<1*:=ooo. ",
".oo2344<=:=ooo. ",
".oo256789+=ooo. ",
" .o2>>0022=222  ",
" .qo2w02ee2eee2 ",
"  .ooo2eere2eee2",
"   .ooree#e2eee2",
"    t.2eee2eee2 ",
"       222 222  ",
"                "};
