/* XPM */
static char * image_name[] = {
"32 32 244 2",
"  	c #C1C1C1C1C1C1",
". 	c #8C8C8C8CB2B2",
"X 	c #8D8D8D8DB5B5",
"o 	c #AFAFAFAFBDBD",
"O 	c #AFAFAFAFB9B9",
"+ 	c #69696969A1A1",
"@ 	c #5D5D5D5DC3C3",
"# 	c #2D2D2D2DB2B2",
"$ 	c #24242424AAAA",
"% 	c #2E2E2E2EA4A4",
"& 	c #272727279999",
"* 	c #5C5C5C5CB9B9",
"= 	c #77777777C1C1",
"- 	c #9F9F9F9FBCBC",
"; 	c #59595959A2A2",
": 	c #181818187F7F",
"> 	c #090909094444",
", 	c #1D1D1D1D3131",
"< 	c #333333332626",
"1 	c #1C1C1C1C9C9C",
"2 	c #63636363B5B5",
"3 	c #3D3D3D3DABAB",
"4 	c #24242424B0B0",
"5 	c #0E0E0E0E6666",
"6 	c #1E1E08083A3A",
"7 	c #A4A4A4A40E0E",
"8 	c #E8E8E8E80202",
"9 	c #FFFFFFFF0000",
"0 	c #D1D1D1D10606",
"q 	c #8D8D8D8D1212",
"w 	c #111111116262",
"e 	c #9D9D9D9DB2B2",
"r 	c #181818189696",
"t 	c #151515158686",
"y 	c #1F1F1F1F4242",
"u 	c #A4A4A4A41010",
"i 	c #606060601E1E",
"p 	c #1F1F1F1F3E3E",
"a 	c #1C1C1C1C9393",
"s 	c #292929299E9E",
"d 	c #121212128383",
"f 	c #FDFDE8E80000",
"g 	c #FAFABBBB0000",
"h 	c #FBFBD1D10000",
"j 	c #7C7C7C7CAFAF",
"k 	c #363636369898",
"l 	c #F8F8A4A40000",
"z 	c #F2F24A4A0000",
"x 	c #EFEF1D1D0000",
"c 	c #EDED07070000",
"v 	c #F5F577770000",
"b 	c #F7F78E8E0101",
"n 	c #A2A28D8D0C0C",
"m 	c #A0A0A0A0BCBC",
"M 	c #79797979A2A2",
"N 	c #171717179B9B",
"B 	c #0B0B0B0B5858",
"V 	c #D4D4A3A30000",
"C 	c #ADAD05050101",
"Z 	c #BDBD06060303",
"A 	c #DBDB07070101",
"S 	c #E9E907070000",
"D 	c #E4E407070101",
"F 	c #D3D306060101",
"G 	c #CBCB06060000",
"H 	c #A3A3A3A30C0C",
"J 	c #090909094B4B",
"K 	c #252525259494",
"L 	c #232323238989",
"P 	c #C8C8A3A30000",
"I 	c #686803030000",
"U 	c #696903030303",
"Y 	c #696904040606",
"T 	c #828204040000",
"R 	c #A0A004040000",
"E 	c #B1B105050000",
"W 	c #BDBD05050000",
"Q 	c #BCBC05050000",
"! 	c #0E0E0E0E6868",
"~ 	c #787878789B9B",
"^ 	c #151515159090",
"/ 	c #0B0B0B0B5757",
"( 	c #696904040909",
") 	c #747405050000",
"_ 	c #484848488E8E",
"` 	c #797979792D2D",
"' 	c #E3E3D1D10000",
"] 	c #68680B0B0000",
"[ 	c #68680C0C0000",
"{ 	c #74740C0C0000",
"} 	c #101010107878",
"| 	c #101010107777",
" .	c #141414148888",
"..	c #BBBBBBBB1010",
"X.	c #D5D5BABA0000",
"o.	c #4E4E1B1B0000",
"O.	c #696905050303",
"+.	c #C9C934340505",
"@.	c #9C9C9C9CA9A9",
"#.	c #131313138989",
"$.	c #0F0F0F0F7878",
"%.	c #E7E7EDED0000",
"&.	c #8B8BB4B40000",
"*.	c #171776760000",
"=.	c #000072720000",
"-.	c #00007A7A0000",
";.	c #0B0B6A6A0000",
":.	c #414131310000",
">.	c #D5D560600101",
",.	c #8A8A8A8AA1A1",
"<.	c #3B3B3B3B6363",
"1.	c #454585850000",
"2.	c #000069690000",
"3.	c #000077770000",
"4.	c #01017D7D0101",
"5.	c #010184840101",
"6.	c #000082820000",
"7.	c #000079790000",
"8.	c #80800A0A0000",
"9.	c #DADA77770101",
"0.	c #252525256A6A",
"q.	c #454579790000",
"w.	c #00005E5E0000",
"e.	c #00006E6E0000",
"r.	c #0F0F93930F0F",
"t.	c #15159A9A1515",
"y.	c #040484840404",
"u.	c #595925250000",
"i.	c #BEBE07070A0A",
"p.	c #363636363E3E",
"a.	c #B9B9C4C40000",
"s.	c #000049490000",
"d.	c #000062620000",
"f.	c #3F3FC4C43F3F",
"g.	c #6060E6E66060",
"h.	c #2F2F4A4A0000",
"j.	c #E0E08D8D0000",
"k.	c #141414148E8E",
"l.	c #E9E9E9E90909",
"z.	c #8B8BA0A00000",
"x.	c #000074740000",
"c.	c #2D2DADAD2D2D",
"v.	c #3030B2B23030",
"b.	c #000065650000",
"n.	c #AAAA0C0C0000",
"m.	c #E4E4BDBD0000",
"M.	c #212121217B7B",
"N.	c #161616169696",
"B.	c #BDBDBDBD1F1F",
"V.	c #73738A8A0000",
"C.	c #000046460000",
"Z.	c #000057570000",
"A.	c #050581810505",
"S.	c #BEBE39393636",
"D.	c #F9F9F9F91111",
"F.	c #DDDDDDDD6969",
"G.	c #D1D1D1D18C8C",
"H.	c #B0B0B0B0B0B0",
"J.	c #A0A0A0A0A1A1",
"K.	c #555555558D8D",
"L.	c #676767674F4F",
"P.	c #8B8B9D9D0000",
"I.	c #00003C3C0000",
"U.	c #000050500000",
"Y.	c #00005A5A0000",
"T.	c #69699C9C6969",
"R.	c #9D9DADAD9D9D",
"E.	c #9F9F9F9F9F9F",
"W.	c #5A5A5A5A5A5A",
"Q.	c #323232323232",
"!.	c #292929292929",
"~.	c #959595959595",
"^.	c #777777779191",
"/.	c #A2A2AEAE0000",
"(.	c #00002E2E0000",
").	c #000041410000",
"_.	c #343480803434",
"`.	c #9D9DB1B19D9D",
"'.	c #A5A5A5A5A4A4",
"].	c #494949494949",
"[.	c #2E2E2E2E2E2E",
"{.	c #262626262626",
"}.	c #3A3A3A3A3A3A",
"|.	c #4C4C4C4C4C4C",
" X	c #666666666666",
".X	c #8E8E8E8E8E8E",
"XX	c #353535353535",
"oX	c #222222222222",
"OX	c #1A1A1A1A1A1A",
"+X	c #5E5E5E5E5E5E",
"@X	c #303030307575",
"#X	c #939393933E3E",
"$X	c #454560600000",
"%X	c #696969696969",
"&X	c #171717171717",
"*X	c #151515151515",
"=X	c #111111111111",
"-X	c #121212121212",
";X	c #1D1D1D1D1D1D",
":X	c #8C8C8C8CABAB",
">X	c #8A8A8A8A8A8A",
",X	c #656565658787",
"<X	c #191919199E9E",
"1X	c #D3D3D3D31616",
"2X	c #E7E7EAEA0000",
"3X	c #171738380000",
"4X	c #000037370000",
"5X	c #797979797979",
"6X	c #141414141414",
"7X	c #555555555555",
"8X	c #787878787878",
"9X	c #424242424242",
"0X	c #454545454545",
"qX	c #171736360000",
"wX	c #000023230000",
"eX	c #57576D6D5757",
"rX	c #F3F3F3F32323",
"tX	c #D7D7D7D77A7A",
"yX	c #9E9E9E9E9E9E",
"uX	c #535353535353",
"iX	c #1E1E1E1E6C6C",
"pX	c #1B1B1B1BA5A5",
"aX	c #BDBDBDBD2020",
"sX	c #D0D0D6D60000",
"dX	c #C0C0C3C37A7A",
"fX	c #292927272020",
"gX	c #313131317A7A",
"hX	c #131313131313",
"jX	c #6E6E6E6E6E6E",
"kX	c #7B7B7B7B7B7B",
"lX	c #7D7D7D7D7D7D",
"zX	c #28282828C1C1",
"xX	c #9D9D9D9D9D9D",
"cX	c #0C0C0C0C0C0C",
"vX	c #666666669090",
"bX	c #A0A0A0A0A8A8",
"nX	c #76767676A8A8",
"mX	c #9C9C9C9C9C9C",
"MX	c #3D3D3D3D3D3D",
"NX	c #787878789696",
"BX	c #9B9B9B9B9D9D",
"VX	c #A9A9A9A9B6B6",
"CX	c #7B7B7B7BD0D0",
"ZX	c #090909090909",
"                        . . X . o                               ",
"                O + @ # $ % & # # * = -                         ",
"              ; ; $ : > , < < < , > : 1 2 -                     ",
"          O 3 4 5 6 7 8 9 9 9 9 9 0 q , w % %                   ",
"        e r t y u 9 9 9 9 9 9 9 9 9 9 0 i p a 2                 ",
"      e s d d 9 9 9 9 9 9 9 f g g h 9 9 9 7 , t j               ",
"    O k r p 9 9 9 9 h l z x c c c c x z v b n 6 d m             ",
"    M N B 0 9 9 9 V C Z A S c c c c c c D F G H J K o           ",
"  O L t q 9 9 9 9 P I U Y T R E F A F G W Q Q 9 i ! ;           ",
"  ~ ^ / 9 9 9 9 9 P I U ( U I I ) W W W W Q Q 9 0 y & O         ",
"  _ ^ ` 9 9 9 9 9 ' I I Y Y ] [ { W W W Q Q G 9 9 9 } j         ",
"  |  ...9 9 9 9 9 X.o.o.o.O.] [ { Q W W Q Q +.9 9 7 5 ;         ",
"@.#.$.9 9 9 9 %.&.*.=.-.-.;.:.[ { Q W W Q Z >.9 9 0 J k         ",
",.#.<.9 9 9 %.1.2.3.4.5.5.6.7.:.8.W W Q Q Z 9.9 9 9 p K         ",
",.d 0.9 9 9 q.w.e.-.5.r.t.y.6.=.u.W W Q i.Z >.9 9 9 p.#.        ",
"  #.0.9 9 a.s.d.e.7.y.f.g.t.6.-.h.W W Z i.Q j.9 9 9 p.k.        ",
"@.} #.l.9 z.s.w.2.x.4.c.v.r.4.3.b.n.Q i.+.m.9 9 9 8 / K         ",
"  M.N.B.9 V.C.Z.b.e.3.-.A.4.3.e.w.S.S.S.D.F.G.  H.J.O .         ",
"  K.N.L.9 P.I.U.Y.b.e.=.=.=.T.R.    E.      W.Q.!.Q.W.~.H.      ",
"  ^.d d l./.(.).U.Y.d.b._.`.'.].[.{.}.|. X.X'.XXoXoXOXQ.+XH.    ",
"    @XN #X9 $X(.).s.U.U.R.%X&XOX*X=X-X&XoX;X.X  O :X>XQ.-X|.E.  ",
"    ,X .<X1X2X3X(.4X).R.5X*X6X7XE.E.'.8X9X=XOX.X:X<X  '.Q.0X5X  ",
"        k.L 1Xa.qXwXeX'.oX6X8XG.rXtX X!.yX X=X!.'.+     8X-XuXH.",
"      @.iXpXN.aX9 sXdX5X-XQ.G.9 9 G.0X[.%X'.Q.*XyX        fX}.E.",
"        @.gXpXpX#Xl.G.7XhX%X%X9 9 G.7X}.jX  Q.&XkX        Q.XXlX",
"          @.@X<XzX_ '.9X6XW.F.9 9 tX XoXW.  XXOXxX        cX}..X",
"            O vXM.$ = 8X=X!.bXL.<.nXmX-X].J.].XX        mX*XMX.X",
"                O NXNXBXoXOXW.VXCX*   9X6XMXE.xX      '.oX}.!.  ",
"                        >XoXOX[.jX8X8X'.Q.*X}.7XlX.XW.{.[.Q.yX  ",
"                          mX0X;XMX;XZX XmX9XOX}.!.XX{.}.!.yX    ",
"                              mX%X%X XmX    8X7XoXoXXX%XmX      ",
"                                                                "};
