/* XPM */
static char * shadow_xpm[] = {
"18 18 10 1",
" 	c #DADADADAFFFF",
".	c #B6B6B6B6AAAA",
"X	c #DADADADAAAAA",
"o	c #000000000000",
"O	c #FFFFFFFFFFFF",
"+	c #9191B6B6FFFF",
"@	c #B6B6B6B6FFFF",
"#	c #B6B6DADAFFFF",
"$	c #91919191AAAA",
"%	c #919191915555",
" . . . . . . . . .",
". .X. .X. .X. .X. ",
" . .oooo . oOoO. .",
".X. o++@ooo .o. .X",
" . . o@+#+@oo. . .",
". .X. ooooo@oo.X. ",
" . . . ooo#+oo . .",
".X. .X. o++@o+o .X",
" . . . . o@oo+o. .",
". .X. .Xo ooo@+o. ",
" . . . o . oo+#o .",
".X. .Xo .X. .ooo.X",
" . . o . . . . . .",
". ..oo$.$.$.. .X. ",
" ooooooooooooo . .",
".ooooooooooooo. .X",
" . %.$.%.$.% . . .",
". .X. .X. .X. .X. "};
