/* XPM */
static char *sz_rvResolution_xpm[] = {
/* width height num_colors chars_per_pixel */
"    25    25      256            2",
/* colors */
"`` c #00fe00",
"`. c #c1c1c1",
"`# c #646464",
"`a c #2b2b2b",
"`b c #3d3d3d",
"`c c #414141",
"`d c #4e4e4e",
"`e c #000000",
"`f c #1a1a1a",
"`g c #151515",
"`h c #080808",
"`i c #1e1e1e",
"`j c #959595",
"`k c #999999",
"`l c #a6a6a6",
"`m c #bcbcbc",
"`n c #b8b8b8",
"`o c #838383",
"`p c #5d5d56",
"`q c #8f8f84",
"`r c #79796f",
"`s c #1b1b19",
"`t c #727272",
"`u c #d1d1c1",
"`v c #f2f2df",
"`w c #373732",
"`x c #21211e",
"`y c #e7e7d5",
"`z c #272727",
"`A c #606060",
"`B c #040404",
"`C c #31312d",
"`D c #4d4d47",
"`E c #050505",
"`F c #ababab",
"`G c #ffffff",
"`H c #000000",
"`I c #000000",
"`J c #000000",
"`K c #000000",
"`L c #000000",
"`M c #000000",
"`N c #000000",
"`O c #000000",
"`P c #000000",
"`Q c #000000",
"`R c #000000",
"`S c #000000",
"`T c #000000",
"`U c #000000",
"`V c #000000",
"`W c #000000",
"`X c #000000",
"`Y c #000000",
"`Z c #000000",
"`0 c #000000",
"`1 c #000000",
"`2 c #000000",
"`3 c #000000",
"`4 c #000000",
"`5 c #000000",
"`6 c #000000",
"`7 c #000000",
"`8 c #000000",
".` c #000000",
".. c #000000",
".# c #000000",
".a c #000000",
".b c #000000",
".c c #000000",
".d c #000000",
".e c #000000",
".f c #000000",
".g c #000000",
".h c #000000",
".i c #000000",
".j c #000000",
".k c #000000",
".l c #000000",
".m c #000000",
".n c #000000",
".o c #000000",
".p c #000000",
".q c #000000",
".r c #000000",
".s c #000000",
".t c #000000",
".u c #000000",
".v c #000000",
".w c #000000",
".x c #000000",
".y c #000000",
".z c #000000",
".A c #000000",
".B c #000000",
".C c #000000",
".D c #000000",
".E c #000000",
".F c #000000",
".G c #000000",
".H c #000000",
".I c #000000",
".J c #000000",
".K c #000000",
".L c #000000",
".M c #000000",
".N c #000000",
".O c #000000",
".P c #000000",
".Q c #000000",
".R c #000000",
".S c #000000",
".T c #000000",
".U c #000000",
".V c #000000",
".W c #000000",
".X c #000000",
".Y c #000000",
".Z c #000000",
".0 c #000000",
".1 c #000000",
".2 c #000000",
".3 c #000000",
".4 c #000000",
".5 c #000000",
".6 c #000000",
".7 c #000000",
".8 c #000000",
"#` c #000000",
"#. c #000000",
"## c #000000",
"#a c #000000",
"#b c #000000",
"#c c #000000",
"#d c #000000",
"#e c #000000",
"#f c #000000",
"#g c #000000",
"#h c #000000",
"#i c #000000",
"#j c #000000",
"#k c #000000",
"#l c #000000",
"#m c #000000",
"#n c #000000",
"#o c #000000",
"#p c #000000",
"#q c #000000",
"#r c #000000",
"#s c #000000",
"#t c #000000",
"#u c #000000",
"#v c #000000",
"#w c #000000",
"#x c #000000",
"#y c #000000",
"#z c #000000",
"#A c #000000",
"#B c #000000",
"#C c #000000",
"#D c #000000",
"#E c #000000",
"#F c #000000",
"#G c #000000",
"#H c #000000",
"#I c #000000",
"#J c #000000",
"#K c #000000",
"#L c #000000",
"#M c #000000",
"#N c #000000",
"#O c #000000",
"#P c #000000",
"#Q c #000000",
"#R c #000000",
"#S c #000000",
"#T c #000000",
"#U c #000000",
"#V c #000000",
"#W c #000000",
"#X c #000000",
"#Y c #000000",
"#Z c #000000",
"#0 c #000000",
"#1 c #000000",
"#2 c #000000",
"#3 c #000000",
"#4 c #000000",
"#5 c #000000",
"#6 c #000000",
"#7 c #000000",
"#8 c #000000",
"a` c #000000",
"a. c #000000",
"a# c #000000",
"aa c #000000",
"ab c #000000",
"ac c #000000",
"ad c #000000",
"ae c #000000",
"af c #000000",
"ag c #000000",
"ah c #000000",
"ai c #000000",
"aj c #000000",
"ak c #000000",
"al c #000000",
"am c #000000",
"an c #000000",
"ao c #000000",
"ap c #000000",
"aq c #000000",
"ar c #000000",
"as c #000000",
"at c #000000",
"au c #000000",
"av c #000000",
"aw c #000000",
"ax c #000000",
"ay c #000000",
"az c #000000",
"aA c #000000",
"aB c #000000",
"aC c #000000",
"aD c #000000",
"aE c #000000",
"aF c #000000",
"aG c #000000",
"aH c #000000",
"aI c #000000",
"aJ c #000000",
"aK c #000000",
"aL c #000000",
"aM c #000000",
"aN c #000000",
"aO c #000000",
"aP c #000000",
"aQ c #000000",
"aR c #000000",
"aS c #000000",
"aT c #000000",
"aU c #000000",
"aV c #000000",
"aW c #000000",
"aX c #000000",
"aY c #000000",
"aZ c #000000",
"a0 c #000000",
"a1 c #000000",
"a2 c #000000",
"a3 c #000000",
"a4 c #000000",
"a5 c #000000",
"a6 c #000000",
"a7 c #000000",
"a8 c #000000",
/* pixels */
"``````````````````````````````````````````````````",
"``````````````````````````````````````````````````",
"```````````d`a`B`a`d``````````````````````````````",
"```````d`B`B`B`B`B`B`B`d``````````````````````````",
"`````w`B`w`G`G`G`G`G`w`B`w````````````````````````",
"```d`B`d`G`G`o`o`o`G`G`d`B`d``````````````````````",
"```B`w`G`G`G`o`o`o`G`G`G`w`E``````````````````````",
"`d`B`G`G`G`G`o`o`o`G`G`G`G`B`d````````````````````",
"`a`B`G`B`B`B`B`B`B`B`B`B`G`B`a````````````````````",
"`B`B`G`B`B`B`B`B`B`B`B`B`G`B`B`g`g`g`a`a`a`a`a`h``",
"`a`B`G`B`B`B`B`B`B`B`B`B`G`B`h`#`#`#`o`o`o`o`d`g``",
"`d`B`G`G`G`G`o`o`o`G`G`G`G`B`d`k`k`k`k`k`k`k`o`g``",
"```B`w`G`G`G`o`o`o`G`G`G`f`h`#`k`k`k`k`k`k`o`#`g``",
"```d`B`d`G`G`o`o`o`G`G`d`B`E`i`k`k`k`k`k`k`o`#`f``",
"`````w`E`w`G`G`G`G`G`a`B`B`B`E`#`k`k`k`k`k`o`#`f``",
"```````d`E`B`B`B`B`B`B`d`B`B`E`h`#`l`k`k`k`o`#`f``",
"```````````d`a`B`B`d`#`o`#`B`B`h`g`#`k`k`k`#`#`g``",
"`````````````````a`k`k`k`k`#`B`B`E`h`d`k`o`t`#`f``",
"`````````````````a`o`k`k`k`k`#`h`B`E`h`d`#`#`#`f``",
"`````````````````a`o`k`k`k`k`k`d`E`B`h`h`d`#`#`f``",
"`````````````````a`#`o`o`o`o`o`#`d`B`E`h`d`t`#`g``",
"`````````````````a`i`a`b`a`b`a`b`w`f`f`f`f`f`f`a``",
"``````````````````````````````````````````````````",
"``````````````````````````````````````````````````",
"``````````````````````````````````````````````````"
};
