/* XPM */
static char *sz_rvSnapshot_xpm[] = {
/* width height num_colors chars_per_pixel */
"    20    20      256            2",
/* colors */
"`` c #00fe00",
"`. c #3f3d3e",
"`# c #393738",
"`a c #4e4c4d",
"`b c #4d4b4c",
"`c c #757374",
"`d c #6c6a6b",
"`e c #949293",
"`f c #090709",
"`g c #0b0a0b",
"`h c #1d1c1d",
"`i c #3d3c3d",
"`j c #363536",
"`k c #353435",
"`l c #343334",
"`m c #535253",
"`n c #525152",
"`o c #504f50",
"`p c #484748",
"`q c #474647",
"`r c #464546",
"`s c #706f70",
"`t c #6c6b6c",
"`u c #5f5e5f",
"`v c #5c5b5c",
"`w c #585758",
"`x c #565556",
"`y c #8e8d8e",
"`z c #868586",
"`A c #515052",
"`B c #585759",
"`C c #6d6c6e",
"`D c #000001",
"`E c #050506",
"`F c #070708",
"`G c #0d0d0e",
"`H c #202022",
"`I c #171718",
"`J c #19191a",
"`K c #1c1c1d",
"`L c #212122",
"`M c #282829",
"`N c #5f5f61",
"`O c #303031",
"`P c #6b6b6d",
"`Q c #3d3d3e",
"`R c #383839",
"`S c #4e4e4f",
"`T c #4c4c4d",
"`U c #4a4a4b",
"`V c #464647",
"`W c #6b6b6c",
"`X c #686869",
"`Y c #8c8c8d",
"`Z c #7f7f80",
"`0 c #1b1c1d",
"`1 c #28292a",
"`2 c #38393a",
"`3 c #000101",
"`4 c #0a0b0b",
"`5 c #111212",
"`6 c #141515",
"`7 c #363838",
"`8 c #222323",
".` c #1f2020",
".. c #252626",
".# c #323333",
".a c #6b6d6d",
".b c #545555",
".c c #515252",
".d c #4f5050",
".e c #4e4f4f",
".f c #484949",
".g c #454646",
".h c #424343",
".i c #777878",
".j c #757676",
".k c #6f7070",
".l c #6d6e6e",
".m c #646565",
".n c #636464",
".o c #5b5c5c",
".p c #595a5a",
".q c #585959",
".r c #555656",
".s c #909191",
".t c #060807",
".u c #1d1f1e",
".v c #636564",
".w c #676968",
".x c #4e4243",
".y c #000100",
".z c #0e0f0e",
".A c #121312",
".B c #1c1d1c",
".C c #414341",
".D c #232423",
".E c #222322",
".F c #252625",
".G c #313231",
".H c #2b2c2b",
".I c #767876",
".J c #6c6e6c",
".K c #3b3c3b",
".L c #525352",
".M c #4e4f4e",
".N c #494a49",
".O c #434443",
".P c #787978",
".Q c #767776",
".R c #737473",
".S c #676867",
".T c #656665",
".U c #636463",
".V c #606160",
".W c #5f605f",
".X c #5e5f5e",
".Y c #5d5e5d",
".Z c #5a5b5a",
".0 c #595a59",
".1 c #555655",
".2 c #121311",
".3 c #252624",
".4 c #393a38",
".5 c #484947",
".6 c #4c4d4b",
".7 c #010100",
".8 c #10100e",
"#` c #121211",
"#. c #191918",
"## c #1e1e1d",
"#a c #212120",
"#b c #50504e",
"#c c #323231",
"#d c #2e2e2d",
"#e c #2c2c2b",
"#f c #3d3d3c",
"#g c #393938",
"#h c #515150",
"#i c #4d4d4c",
"#j c #454544",
"#k c #434342",
"#l c #414140",
"#m c #40403f",
"#n c #727271",
"#o c #717170",
"#p c #6b6b6a",
"#q c #696968",
"#r c #676766",
"#s c #626261",
"#t c #616160",
"#u c #5b5b5a",
"#v c #565655",
"#w c #959594",
"#x c #131211",
"#y c #898887",
"#z c #381d1c",
"#A c #be0000",
"#B c #010000",
"#C c #da0202",
"#D c #4a3434",
"#E c #040303",
"#F c #4d3b3b",
"#G c #504141",
"#H c #272525",
"#I c #141313",
"#J c #474545",
"#K c #222121",
"#L c #4e4d4d",
"#M c #484747",
"#N c #464545",
"#O c #434242",
"#P c #403f3f",
"#Q c #6e6d6d",
"#R c #6b6a6a",
"#S c #666565",
"#T c #999898",
"#U c #888888",
"#V c #767676",
"#W c #6e6e6e",
"#X c #6c6c6c",
"#Y c #696969",
"#Z c #666666",
"#0 c #656565",
"#1 c #646464",
"#2 c #636363",
"#3 c #626262",
"#4 c #616161",
"#5 c #5f5f5f",
"#6 c #5e5e5e",
"#7 c #595959",
"#8 c #585858",
"a` c #575757",
"a. c #555555",
"a# c #4f4f4f",
"aa c #4e4e4e",
"ab c #4b4b4b",
"ac c #484848",
"ad c #454545",
"ae c #3b3b3b",
"af c #3a3a3a",
"ag c #383838",
"ah c #353535",
"ai c #343434",
"aj c #323232",
"ak c #2e2e2e",
"al c #2d2d2d",
"am c #282828",
"an c #262626",
"ao c #242424",
"ap c #161616",
"aq c #141414",
"ar c #121212",
"as c #080808",
"at c #070707",
"au c #040404",
"av c #030303",
"aw c #000000",
"ax c #000000",
"ay c #000000",
"az c #000000",
"aA c #000000",
"aB c #000000",
"aC c #000000",
"aD c #000000",
"aE c #000000",
"aF c #000000",
"aG c #000000",
"aH c #000000",
"aI c #000000",
"aJ c #000000",
"aK c #000000",
"aL c #000000",
"aM c #000000",
"aN c #000000",
"aO c #000000",
"aP c #000000",
"aQ c #000000",
"aR c #000000",
"aS c #000000",
"aT c #000000",
"aU c #000000",
"aV c #000000",
"aW c #000000",
"aX c #000000",
"aY c #000000",
"aZ c #000000",
"a0 c #000000",
"a1 c #000000",
"a2 c #000000",
"a3 c #000000",
"a4 c #000000",
"a5 c #000000",
"a6 c #000000",
"a7 c #000000",
"a8 c #000000",
/* pixels */
"````````````````````````````````````````",
"````````````````````````````````````````",
"````````````````````````````````````````",
"````.J`Y`````O`O`O`O`O`O`O`T````````````",
"````alaw```Qaaaw#T#T#T#T.A`.`0``````````",
"```2aw`g.Aawaw.t##`O`1.Aawaw.8.H`O`O`O``",
"``aw`.`.`.`.`.#2#2#2#2#2#2#2`.`.`.`.al``",
"```g.Z#T#T#T`.`.awawawaw`..P#F#C#C`.`J``",
"``.H`.#T#T#T.law`.`.`.`.aw`.`Q#C#C#F.y``",
"```J#h.l.l.Zaw`..P#T#T#T`Qaw#P#F#F#P`4``",
"``aw`.#2.P.Paw#T#T#T#T#T.P#B.P.P.P.P.H``",
"```g`.#2.P#2aw.p#T#T#T#T`Yaw.P.P.P.P`0``",
"``.H`.#2.P#2aw`.#T#T#T#T.law.P.P.P.Paw``",
"```J`.#2.P#2`.aw`o.l`e.paw`..P.P.P#1`g``",
"``aw`.`.#1.P#2`.awawawaw`..P.P.P.P#2.H``",
"```g`.`.`.`.`.`.`.`.`.`.`.`.`.`.`.#2`0``",
"``.Hawawawawawawawawawawawawawawawawaw``",
"````````````````````````````````````````",
"````````````````````````````````````````",
"````````````````````````````````````````"
};
