/* XPM */
static char *sz_rvResolution75_xpm[] = {
/* width height num_colors chars_per_pixel */
"    25    25      256            2",
/* colors */
"`` c #00fe00",
"`. c #c1c1c1",
"`# c #646464",
"`a c #2b2b2b",
"`b c #3d3d3d",
"`c c #414141",
"`d c #4e4e4e",
"`e c #000000",
"`f c #1a1a1a",
"`g c #151515",
"`h c #080808",
"`i c #1e1e1e",
"`j c #959595",
"`k c #999999",
"`l c #a6a6a6",
"`m c #bcbcbc",
"`n c #b8b8b8",
"`o c #838383",
"`p c #5d5d56",
"`q c #8f8f84",
"`r c #79796f",
"`s c #1b1b19",
"`t c #727272",
"`u c #d1d1c1",
"`v c #f2f2df",
"`w c #373732",
"`x c #21211e",
"`y c #e7e7d5",
"`z c #272727",
"`A c #606060",
"`B c #040404",
"`C c #31312d",
"`D c #4d4d47",
"`E c #050505",
"`F c #ababab",
"`G c #ffffff",
"`H c #000000",
"`I c #000000",
"`J c #000000",
"`K c #000000",
"`L c #000000",
"`M c #000000",
"`N c #000000",
"`O c #000000",
"`P c #000000",
"`Q c #000000",
"`R c #000000",
"`S c #000000",
"`T c #000000",
"`U c #000000",
"`V c #000000",
"`W c #000000",
"`X c #000000",
"`Y c #000000",
"`Z c #000000",
"`0 c #000000",
"`1 c #000000",
"`2 c #000000",
"`3 c #000000",
"`4 c #000000",
"`5 c #000000",
"`6 c #000000",
"`7 c #000000",
"`8 c #000000",
".` c #000000",
".. c #000000",
".# c #000000",
".a c #000000",
".b c #000000",
".c c #000000",
".d c #000000",
".e c #000000",
".f c #000000",
".g c #000000",
".h c #000000",
".i c #000000",
".j c #000000",
".k c #000000",
".l c #000000",
".m c #000000",
".n c #000000",
".o c #000000",
".p c #000000",
".q c #000000",
".r c #000000",
".s c #000000",
".t c #000000",
".u c #000000",
".v c #000000",
".w c #000000",
".x c #000000",
".y c #000000",
".z c #000000",
".A c #000000",
".B c #000000",
".C c #000000",
".D c #000000",
".E c #000000",
".F c #000000",
".G c #000000",
".H c #000000",
".I c #000000",
".J c #000000",
".K c #000000",
".L c #000000",
".M c #000000",
".N c #000000",
".O c #000000",
".P c #000000",
".Q c #000000",
".R c #000000",
".S c #000000",
".T c #000000",
".U c #000000",
".V c #000000",
".W c #000000",
".X c #000000",
".Y c #000000",
".Z c #000000",
".0 c #000000",
".1 c #000000",
".2 c #000000",
".3 c #000000",
".4 c #000000",
".5 c #000000",
".6 c #000000",
".7 c #000000",
".8 c #000000",
"#` c #000000",
"#. c #000000",
"## c #000000",
"#a c #000000",
"#b c #000000",
"#c c #000000",
"#d c #000000",
"#e c #000000",
"#f c #000000",
"#g c #000000",
"#h c #000000",
"#i c #000000",
"#j c #000000",
"#k c #000000",
"#l c #000000",
"#m c #000000",
"#n c #000000",
"#o c #000000",
"#p c #000000",
"#q c #000000",
"#r c #000000",
"#s c #000000",
"#t c #000000",
"#u c #000000",
"#v c #000000",
"#w c #000000",
"#x c #000000",
"#y c #000000",
"#z c #000000",
"#A c #000000",
"#B c #000000",
"#C c #000000",
"#D c #000000",
"#E c #000000",
"#F c #000000",
"#G c #000000",
"#H c #000000",
"#I c #000000",
"#J c #000000",
"#K c #000000",
"#L c #000000",
"#M c #000000",
"#N c #000000",
"#O c #000000",
"#P c #000000",
"#Q c #000000",
"#R c #000000",
"#S c #000000",
"#T c #000000",
"#U c #000000",
"#V c #000000",
"#W c #000000",
"#X c #000000",
"#Y c #000000",
"#Z c #000000",
"#0 c #000000",
"#1 c #000000",
"#2 c #000000",
"#3 c #000000",
"#4 c #000000",
"#5 c #000000",
"#6 c #000000",
"#7 c #000000",
"#8 c #000000",
"a` c #000000",
"a. c #000000",
"a# c #000000",
"aa c #000000",
"ab c #000000",
"ac c #000000",
"ad c #000000",
"ae c #000000",
"af c #000000",
"ag c #000000",
"ah c #000000",
"ai c #000000",
"aj c #000000",
"ak c #000000",
"al c #000000",
"am c #000000",
"an c #000000",
"ao c #000000",
"ap c #000000",
"aq c #000000",
"ar c #000000",
"as c #000000",
"at c #000000",
"au c #000000",
"av c #000000",
"aw c #000000",
"ax c #000000",
"ay c #000000",
"az c #000000",
"aA c #000000",
"aB c #000000",
"aC c #000000",
"aD c #000000",
"aE c #000000",
"aF c #000000",
"aG c #000000",
"aH c #000000",
"aI c #000000",
"aJ c #000000",
"aK c #000000",
"aL c #000000",
"aM c #000000",
"aN c #000000",
"aO c #000000",
"aP c #000000",
"aQ c #000000",
"aR c #000000",
"aS c #000000",
"aT c #000000",
"aU c #000000",
"aV c #000000",
"aW c #000000",
"aX c #000000",
"aY c #000000",
"aZ c #000000",
"a0 c #000000",
"a1 c #000000",
"a2 c #000000",
"a3 c #000000",
"a4 c #000000",
"a5 c #000000",
"a6 c #000000",
"a7 c #000000",
"a8 c #000000",
/* pixels */
"```u`u`G`u`u`u`u`u`u`u`u`u`G`u`u`u`u`u`y`u`y`u`y`u",
"```y`u`G`u`u`u`u`u`u`u`u`u`G`u`u`v`y`y`v`v`y`v`y`u",
"```y`u`G`G`G`G`v`v`v`G`G`G`G`u`y`v`v`v`v`v`v`v`v`u",
"`````.`y`G`G`G`v`y`v`G`G`G`u`u`y`v`v`v`v`v`v`v`y`u",
"`````y`u`y`G`G`y`v`y`G`G`y`u`u`y`v`v`v`v`v`v`y`y`y",
"```````y`.`y`G`G`G`G`G`u`u`u`u`.`y`v`v`v`v`v`y`y`.",
"`````````y`.`u`u`u`u`u`u`y`y`.`y`.`y`v`v`v`v`v`y`y",
"`````````````y`y`u`u`y`y`v`y`u`.`y`.`y`v`v`v`y`y`u",
"```````````````````y`v`v`v`v`y`u`.`y`.`y`v`y`y`y`u",
"```````````````````u`v`v`v`v`v`v`.`u`u`.`y`y`y`y`y",
"```````````````````y`y`v`v`v`v`v`v`u`u`y`.`y`y`y`u",
"```````````````````.`y`v`y`y`v`y`y`y`u`u`.`y`y`y`u",
"```````````````````y`u`y`y`.`y`u`y`y`.`y`y`.`y`.`y",
"`````m`m`m`m`u`````y`m`n`m```````.`y`G`G`G`.`y````",
"```u`e`e`e`e`o`````d`B`B`i`````o`A`a`y`G`k`b`v````",
"`````````o`w`v`````g`F`````````g`y`C`m`.`i`y``````",
"```````u`e`u`````u`e`c`d`v`````h`l`g`v`g`u````````",
"```````c`#```````F`#`m`g`#`````u`o`.`w`k`o`c`u````",
"`````u`e`m```````n`y`G`c`c`````````#`#`m`w`m`c````",
"`````#`x`````````g`t`u`e`k```````o`c```o`o`o`#````",
"`````x`#`````````k`g`g`t```````k`w`v```u`w`w`u````",
"``````````````````````````````````````````````````",
"``````````````````````````````````````````````````",
"``````````````````````````````````````````````````",
"``````````````````````````````````````````````````"
};
