/* XPM */
static char *sz_rvRedChannel_xpm[] = {
/* width height num_colors chars_per_pixel */
"    20    20      256            2",
/* colors */
"`` c #000000",
"`. c #0c0000",
"`# c #8b3030",
"`a c #ea2c2c",
"`b c #fb1313",
"`c c #ff0000",
"`d c #fc1010",
"`e c #f22425",
"`f c #9f3535",
"`g c #5b2221",
"`h c #f02727",
"`i c #7d2d2c",
"`j c #7a2c2c",
"`k c #fa1616",
"`l c #fe0505",
"`m c #bf3837",
"`n c #531d1e",
"`o c #fb1515",
"`p c #ff0202",
"`q c #812e2e",
"`r c #e52f2f",
"`s c #4e1c1c",
"`t c #fe0909",
"`u c #b13736",
"`v c #af3737",
"`w c #f32423",
"`x c #f51f20",
"`y c #3d1717",
"`z c #b93837",
"`A c #f61e1e",
"`B c #4f1e1d",
"`C c #ff0404",
"`D c #a03534",
"`E c #dd3333",
"`F c #f71d1d",
"`G c #321212",
"`H c #f32222",
"`I c #fd0d0d",
"`J c #622424",
"`K c #682626",
"`L c #f51f1f",
"`M c #8c3232",
"`N c #391315",
"`O c #e03232",
"`P c #fe0707",
"`Q c #6e2927",
"`R c #4f1d1d",
"`S c #c33838",
"`T c #fa1718",
"`U c #eb2a2b",
"`V c #893030",
"`W c #000000",
"`X c #000000",
"`Y c #000000",
"`Z c #000000",
"`0 c #000000",
"`1 c #000000",
"`2 c #000000",
"`3 c #000000",
"`4 c #000000",
"`5 c #000000",
"`6 c #000000",
"`7 c #000000",
"`8 c #000000",
".` c #000000",
".. c #000000",
".# c #000000",
".a c #000000",
".b c #000000",
".c c #000000",
".d c #000000",
".e c #000000",
".f c #000000",
".g c #000000",
".h c #000000",
".i c #000000",
".j c #000000",
".k c #000000",
".l c #000000",
".m c #000000",
".n c #000000",
".o c #000000",
".p c #000000",
".q c #000000",
".r c #000000",
".s c #000000",
".t c #000000",
".u c #000000",
".v c #000000",
".w c #000000",
".x c #000000",
".y c #000000",
".z c #000000",
".A c #000000",
".B c #000000",
".C c #000000",
".D c #000000",
".E c #000000",
".F c #000000",
".G c #000000",
".H c #000000",
".I c #000000",
".J c #000000",
".K c #000000",
".L c #000000",
".M c #000000",
".N c #000000",
".O c #000000",
".P c #000000",
".Q c #000000",
".R c #000000",
".S c #000000",
".T c #000000",
".U c #000000",
".V c #000000",
".W c #000000",
".X c #000000",
".Y c #000000",
".Z c #000000",
".0 c #000000",
".1 c #000000",
".2 c #000000",
".3 c #000000",
".4 c #000000",
".5 c #000000",
".6 c #000000",
".7 c #000000",
".8 c #000000",
"#` c #000000",
"#. c #000000",
"## c #000000",
"#a c #000000",
"#b c #000000",
"#c c #000000",
"#d c #000000",
"#e c #000000",
"#f c #000000",
"#g c #000000",
"#h c #000000",
"#i c #000000",
"#j c #000000",
"#k c #000000",
"#l c #000000",
"#m c #000000",
"#n c #000000",
"#o c #000000",
"#p c #000000",
"#q c #000000",
"#r c #000000",
"#s c #000000",
"#t c #000000",
"#u c #000000",
"#v c #000000",
"#w c #000000",
"#x c #000000",
"#y c #000000",
"#z c #000000",
"#A c #000000",
"#B c #000000",
"#C c #000000",
"#D c #000000",
"#E c #000000",
"#F c #000000",
"#G c #000000",
"#H c #000000",
"#I c #000000",
"#J c #000000",
"#K c #000000",
"#L c #000000",
"#M c #000000",
"#N c #000000",
"#O c #000000",
"#P c #000000",
"#Q c #000000",
"#R c #000000",
"#S c #000000",
"#T c #000000",
"#U c #000000",
"#V c #000000",
"#W c #000000",
"#X c #000000",
"#Y c #000000",
"#Z c #000000",
"#0 c #000000",
"#1 c #000000",
"#2 c #000000",
"#3 c #000000",
"#4 c #000000",
"#5 c #000000",
"#6 c #000000",
"#7 c #000000",
"#8 c #000000",
"a` c #000000",
"a. c #000000",
"a# c #000000",
"aa c #000000",
"ab c #000000",
"ac c #000000",
"ad c #000000",
"ae c #000000",
"af c #000000",
"ag c #000000",
"ah c #000000",
"ai c #000000",
"aj c #000000",
"ak c #000000",
"al c #000000",
"am c #000000",
"an c #000000",
"ao c #000000",
"ap c #000000",
"aq c #000000",
"ar c #000000",
"as c #000000",
"at c #000000",
"au c #000000",
"av c #000000",
"aw c #000000",
"ax c #000000",
"ay c #000000",
"az c #000000",
"aA c #000000",
"aB c #000000",
"aC c #000000",
"aD c #000000",
"aE c #000000",
"aF c #000000",
"aG c #000000",
"aH c #000000",
"aI c #000000",
"aJ c #000000",
"aK c #000000",
"aL c #000000",
"aM c #000000",
"aN c #000000",
"aO c #000000",
"aP c #000000",
"aQ c #000000",
"aR c #000000",
"aS c #000000",
"aT c #000000",
"aU c #000000",
"aV c #000000",
"aW c #000000",
"aX c #000000",
"aY c #000000",
"aZ c #000000",
"a0 c #000000",
"a1 c #000000",
"a2 c #000000",
"a3 c #000000",
"a4 c #000000",
"a5 c #000000",
"a6 c #000000",
"a7 c #000000",
"a8 c #000000",
/* pixels */
"`````````````````.`.`.`.````````````````",
"```````````.`#`a`b`c`c`d`e`f`.``````````",
"`````````g`h`c`c`c`c`c`c`c`c`b`i````````",
"```````j`k`c`c`c`c`c`c`c`c`c`c`l`m``````",
"`````n`o`c`c`c`c`c`c`c`c`c`c`c`c`p`q````",
"`````r`c`c`c`c`c`c`c`c`c`c`c`c`c`c`b`.``",
"```s`t`c`c`c`c`c`c`c`c`c`c`c`c`c`c`c`u``",
"```v`c`c`c`c`c`c`c`c`c`c`c`c`c`c`c`c`w`.",
"```x`c`c`c`c`c`c`c`c`c`c`c`c`c`c`c`c`c`.",
"```b`c`c`c`c`c`c`c`c`c`c`c`c`c`c`c`c`c`.",
"```d`c`c`c`c`c`c`c`c`c`c`c`c`c`c`c`c`c`y",
"```w`c`c`c`c`c`c`c`c`c`c`c`c`c`c`c`c`c`.",
"```z`c`c`c`c`c`c`c`c`c`c`c`c`c`c`c`c`A`.",
"```B`C`c`c`c`c`c`c`c`c`c`c`c`c`c`c`c`D``",
"`````E`c`c`c`c`c`c`c`c`c`c`c`c`c`c`F`.``",
"`````G`H`c`c`c`c`c`c`c`c`c`c`c`c`I`J````",
"```````K`L`c`c`c`c`c`c`c`c`c`c`d`M``````",
"`````````N`O`P`c`c`c`c`c`c`c`F`Q````````",
"`````````````R`S`T`c`p`b`U`V`.``````````",
"`````````````````.`.`.``````````````````"
};
