/* XPM */
static char *thumbnailUpdatesDisabled_xpm[] = {
/* width height num_colors chars_per_pixel */
"    26    26      128            2",
/* colors */
"`` c #f0f0f0",
"`. c #a0a0a0",
"`# c #ffffff",
"`a c #c1c1c1",
"`b c #9f9f9f",
"`c c #9d9e9e",
"`d c #9c9d9d",
"`e c #ababab",
"`f c #939393",
"`g c #808080",
"`h c #757575",
"`i c #7c7c7c",
"`j c #9c9c9c",
"`k c #9b9b9b",
"`l c #a3a3a3",
"`m c #919690",
"`n c #979b97",
"`o c #8a9389",
"`p c #818181",
"`q c #6b716b",
"`r c #516750",
"`s c #999999",
"`t c #919790",
"`u c #b7b7b7",
"`v c #c4c4c4",
"`w c #9ea39e",
"`x c #859284",
"`y c #787878",
"`z c #5a6b59",
"`A c #415840",
"`B c #979797",
"`C c #959a95",
"`D c #d4d4d4",
"`E c #a7a8a7",
"`F c #889387",
"`G c #777977",
"`H c #5d6a5c",
"`I c #425942",
"`J c #5f5f5f",
"`K c #959595",
"`L c #9fa49e",
"`M c #a7a9a6",
"`N c #929b90",
"`O c #838b83",
"`P c #727571",
"`Q c #596958",
"`R c #40563f",
"`S c #3a3e3a",
"`T c #747474",
"`U c #859184",
"`V c #889287",
"`W c #838a83",
"`X c #7a7a7a",
"`Y c #636f62",
"`Z c #4c644c",
"`0 c #3c4d3c",
"`1 c #383b38",
"`2 c #909191",
"`3 c #7b7b7b",
"`4 c #6a736a",
"`5 c #757875",
"`6 c #646e64",
"`7 c #526851",
"`8 c #334433",
".` c #535353",
".. c #8f8f8f",
".# c #9d9d9d",
".a c #516650",
".b c #576956",
".c c #4d654c",
".d c #425941",
".e c #364936",
".f c #2b392b",
".g c #8e8e8e",
".h c #8e8d8d",
".i c #3d503d",
".j c #334533",
".k c #2c392b",
".l c #6f6f6f",
".m c #8c8c8c",
".n c #5e5e5e",
".o c #3b3f3a",
".p c #373a37",
".q c #555555",
".r c #8d8d8d",
".s c #8b8b8b",
".t c #000000",
".u c #000000",
".v c #000000",
".w c #000000",
".x c #000000",
".y c #000000",
".z c #000000",
".A c #000000",
".B c #000000",
".C c #000000",
".D c #000000",
".E c #000000",
".F c #000000",
".G c #000000",
".H c #000000",
".I c #000000",
".J c #000000",
".K c #000000",
".L c #000000",
".M c #000000",
".N c #000000",
".O c #000000",
".P c #000000",
".Q c #000000",
".R c #000000",
".S c #000000",
".T c #000000",
".U c #000000",
".V c #000000",
".W c #000000",
".X c #000000",
".Y c #000000",
".Z c #000000",
".0 c #000000",
".1 c #000000",
".2 c #000000",
".3 c #000000",
".4 c #000000",
".5 c #000000",
".6 c #000000",
".7 c #000000",
".8 c #000000",
/* pixels */
"````````````````````````````````````````````````````",
"```.`.`.`.`.`.`.`.`.`.`.`.`.`.`.`.`.`.`.`.`.`.`.`.`#",
"```.```````````````````````````````````````````````#",
"```.```````````````````````````````````````````````#",
"```.```````````````````````````````````````````````#",
"```.```````````````````````````````````````````````#",
"```.```````a`b`b`b`b`b`b`b`b`b`b`b`b`b`b`a`````````#",
"```.```````a`c`a`a`a`a`a`a`a`a`a`a`a`a`c`a`````````#",
"```.```````a`d`a`a`a`e`f`g`h`i`j`a`a`a`d`a`````````#",
"```.```````a`k`a`a`l`m`n`o`p`q`r`p`a`a`k`a`````````#",
"```.```````a`s`a`e`t`u`v`w`x`y`z`A`f`a`s`a`````````#",
"```.```````a`B`a`f`C`v`D`E`F`G`H`I`J`a`B`a`````````#",
"```.```````a`K`a`g`o`L`M`N`O`P`Q`R`S`a`K`a`````````#",
"```.```````a`f`a`T`p`U`V`W`X`Y`Z`0`1`a`f`a`````````#",
"```.```````a`2`a`3`4`5`G`P`6`7`A`8.``a`2`a`````````#",
"```.```````a..`a.#.a`z`H.b.c.d.e.f.g`a..`a`````````#",
"```.```````a.h`a`a`p`A`I`R.i.j.k.l`a`a.h`a`````````#",
"```.```````a.m`a`a`a`f.n.o.p.q.r`a`a`a.m`a`````````#",
"```.```````a.s`a`a`a`a`a`a`a`a`a`a`a`a.s`a`````````#",
"```.```````a.s`b`b`b`b`b`b`b`b`b`b`b`b.s`a`````````#",
"```.```````a.s.s.t.t.t.t.t.t.t.t.t.t.s.s`a`````````#",
"```.```````a.s.s.s.s.s.s.s.s.s.s.s.s.s.s`a`````````#",
"```.```````````````````````````````````````````````#",
"```.```````````````````````````````````````````````#",
"```.```````````````````````````````````````````````#",
"```.```````````````````````````````````````````````#"
};
