/* XPM */
static char *thumbnailUpdatesEnabled_xpm[] = {
/* width height num_colors chars_per_pixel */
"    26    26      128            2",
/* colors */
"`` c #f0f0f0",
"`. c #c1c1c1",
"`# c #9f9f9f",
"`a c #9d9e9e",
"`b c #9c9d9d",
"`c c #9ccc8b",
"`d c #72d84e",
"`e c #53da26",
"`f c #4aca20",
"`g c #5bb93f",
"`h c #8db682",
"`i c #9b9b9b",
"`j c #8bd771",
"`k c #6ce93e",
"`l c #76ea49",
"`m c #67ea33",
"`n c #56e122",
"`o c #41c716",
"`p c #2eae0a",
"`q c #6ca45e",
"`r c #999999",
"`s c #9dca8d",
"`t c #6dea3e",
"`u c #a2ed82",
"`v c #b5ee9b",
"`w c #82ec56",
"`x c #5eeb2c",
"`y c #4ad31d",
"`z c #35b70e",
"`A c #229306",
"`B c #8ba583",
"`C c #979797",
"`D c #75ea46",
"`E c #cbf0b9",
"`F c #8beb65",
"`G c #62eb30",
"`H c #4ad61b",
"`I c #37b710",
"`J c #249606",
"`K c #478638",
"`L c #959595",
"`M c #53dd24",
"`N c #81ec57",
"`O c #8cec64",
"`P c #72ec40",
"`Q c #57e827",
"`R c #47ce19",
"`S c #35b40e",
"`T c #239006",
"`U c #1f6d0c",
"`V c #939393",
"`W c #4aca1f",
"`X c #54e122",
"`Y c #5deb2b",
"`Z c #61ea30",
"`0 c #59e727",
"`1 c #4cd71d",
"`2 c #3ac012",
"`3 c #2aa908",
"`4 c #1d8307",
"`5 c #1c680c",
"`6 c #909191",
"`7 c #5bb93e",
"`8 c #3fc915",
".` c #48d41a",
".. c #49d61b",
".# c #3dc013",
".a c #31b00a",
".b c #249306",
".c c #1d7305",
".d c #407235",
".e c #8f8f8f",
".f c #8fb685",
".g c #2ead0a",
".h c #36b70e",
".i c #31b30d",
".j c #29aa08",
".k c #229506",
".l c #1a7b05",
".m c #156005",
".n c #879a83",
".o c #8e8d8d",
".p c #239306",
".q c #239606",
".r c #1d8707",
".s c #1a7405",
".t c #166005",
".u c #64835c",
".v c #8c8c8c",
".w c #88a482",
".x c #488538",
".y c #1f6e0c",
".z c #1c660c",
".A c #427337",
".B c #859981",
".C c #8b8b8b",
".D c #000000",
".E c #000000",
".F c #000000",
".G c #000000",
".H c #000000",
".I c #000000",
".J c #000000",
".K c #000000",
".L c #000000",
".M c #000000",
".N c #000000",
".O c #000000",
".P c #000000",
".Q c #000000",
".R c #000000",
".S c #000000",
".T c #000000",
".U c #000000",
".V c #000000",
".W c #000000",
".X c #000000",
".Y c #000000",
".Z c #000000",
".0 c #000000",
".1 c #000000",
".2 c #000000",
".3 c #000000",
".4 c #000000",
".5 c #000000",
".6 c #000000",
".7 c #000000",
".8 c #000000",
/* pixels */
"````````````````````````````````````````````````````",
"````````````````````````````````````````````````````",
"````````````````````````````````````````````````````",
"````````````````````````````````````````````````````",
"````````````````````````````````````````````````````",
"```````````.`#`#`#`#`#`#`#`#`#`#`#`#`#`#`.``````````",
"```````````.`a`.`.`.`.`.`.`.`.`.`.`.`.`a`.``````````",
"```````````.`b`.`.`.`c`d`e`f`g`h`.`.`.`b`.``````````",
"```````````.`i`.`.`j`k`l`m`n`o`p`q`.`.`i`.``````````",
"```````````.`r`.`s`t`u`v`w`x`y`z`A`B`.`r`.``````````",
"```````````.`C`.`d`D`v`E`F`G`H`I`J`K`.`C`.``````````",
"```````````.`L`.`M`m`N`O`P`Q`R`S`T`U`.`L`.``````````",
"```````````.`V`.`W`X`Y`Z`0`1`2`3`4`5`.`V`.``````````",
"```````````.`6`.`7`8.`..`R.#.a.b.c.d`.`6`.``````````",
"```````````..e`..f.g.h`I.i.j.k.l.m.n`..e`.``````````",
"```````````..o`.`.`q.p.q`T.r.s.t.u`.`..o`.``````````",
"```````````..v`.`.`..w.x.y.z.A.B`.`.`..v`.``````````",
"```````````..C`.`.`.`.`.`.`.`.`.`.`.`..C`.``````````",
"```````````..C`#`#`#`#`#`#`#`#`#`#`#`#.C`.``````````",
"```````````..C.C.D.D.D.D.D.D.D.D.D.D.C.C`.``````````",
"```````````..C.C.C.C.C.C.C.C.C.C.C.C.C.C`.``````````",
"````````````````````````````````````````````````````",
"````````````````````````````````````````````````````",
"````````````````````````````````````````````````````",
"````````````````````````````````````````````````````",
"````````````````````````````````````````````````````"
};
