/* XPM */
static char *yates_xpm[] = {
/* width height num_colors chars_per_pixel */
"    32    32      256            2",
/* colors */
"`` c #000000",
"`. c #800000",
"`# c #008000",
"`a c #808000",
"`b c #000080",
"`c c #800080",
"`d c #008080",
"`e c #808080",
"`f c #c0dcc0",
"`g c #a6caf0",
"`h c #2a3faa",
"`i c #2a3fff",
"`j c #2a5f00",
"`k c #2a5f55",
"`l c #2a5faa",
"`m c #2a5fff",
"`n c #2a7f00",
"`o c #2a7f55",
"`p c #2a7faa",
"`q c #2a7fff",
"`r c #2a9f00",
"`s c #2a9f55",
"`t c #2a9faa",
"`u c #2a9fff",
"`v c #2abf00",
"`w c #2abf55",
"`x c #2abfaa",
"`y c #2abfff",
"`z c #2adf00",
"`A c #2adf55",
"`B c #2adfaa",
"`C c #2adfff",
"`D c #2aff00",
"`E c #2aff55",
"`F c #2affaa",
"`G c #2affff",
"`H c #550000",
"`I c #550055",
"`J c #5500aa",
"`K c #5500ff",
"`L c #551f00",
"`M c #551f55",
"`N c #551faa",
"`O c #551fff",
"`P c #553f00",
"`Q c #553f55",
"`R c #553faa",
"`S c #553fff",
"`T c #555f00",
"`U c #555f55",
"`V c #555faa",
"`W c #555fff",
"`X c #557f00",
"`Y c #557f55",
"`Z c #557faa",
"`0 c #557fff",
"`1 c #559f00",
"`2 c #559f55",
"`3 c #559faa",
"`4 c #559fff",
"`5 c #55bf00",
"`6 c #55bf55",
"`7 c #55bfaa",
"`8 c #55bfff",
".` c #55df00",
".. c #55df55",
".# c #55dfaa",
".a c #55dfff",
".b c #55ff00",
".c c #55ff55",
".d c #55ffaa",
".e c #55ffff",
".f c #7f0000",
".g c #7f0055",
".h c #7f00aa",
".i c #7f00ff",
".j c #7f1f00",
".k c #7f1f55",
".l c #7f1faa",
".m c #7f1fff",
".n c #7f3f00",
".o c #7f3f55",
".p c #7f3faa",
".q c #7f3fff",
".r c #7f5f00",
".s c #7f5f55",
".t c #7f5faa",
".u c #7f5fff",
".v c #7f7f00",
".w c #7f7f55",
".x c #7f7faa",
".y c #7f7fff",
".z c #7f9f00",
".A c #7f9f55",
".B c #7f9faa",
".C c #7f9fff",
".D c #7fbf00",
".E c #7fbf55",
".F c #7fbfaa",
".G c #7fbfff",
".H c #7fdf00",
".I c #7fdf55",
".J c #7fdfaa",
".K c #7fdfff",
".L c #7fff00",
".M c #7fff55",
".N c #7fffaa",
".O c #7fffff",
".P c #aa0000",
".Q c #aa0055",
".R c #aa00aa",
".S c #aa00ff",
".T c #aa1f00",
".U c #aa1f55",
".V c #aa1faa",
".W c #aa1fff",
".X c #aa3f00",
".Y c #aa3f55",
".Z c #aa3faa",
".0 c #aa3fff",
".1 c #aa5f00",
".2 c #aa5f55",
".3 c #aa5faa",
".4 c #aa5fff",
".5 c #aa7f00",
".6 c #aa7f55",
".7 c #aa7faa",
".8 c #aa7fff",
"#` c #aa9f00",
"#. c #aa9f55",
"## c #aa9faa",
"#a c #aa9fff",
"#b c #aabf00",
"#c c #aabf55",
"#d c #aabfaa",
"#e c #aabfff",
"#f c #aadf00",
"#g c #aadf55",
"#h c #aadfaa",
"#i c #aadfff",
"#j c #aaff00",
"#k c #aaff55",
"#l c #aaffaa",
"#m c #aaffff",
"#n c #d40000",
"#o c #d40055",
"#p c #d400aa",
"#q c #d400ff",
"#r c #d41f00",
"#s c #d41f55",
"#t c #d41faa",
"#u c #d41fff",
"#v c #d43f00",
"#w c #d43f55",
"#x c #d43faa",
"#y c #d43fff",
"#z c #d45f00",
"#A c #d45f55",
"#B c #d45faa",
"#C c #d45fff",
"#D c #d47f00",
"#E c #d47f55",
"#F c #d47faa",
"#G c #d47fff",
"#H c #d49f00",
"#I c #d49f55",
"#J c #d49faa",
"#K c #d49fff",
"#L c #d4bf00",
"#M c #d4bf55",
"#N c #d4bfaa",
"#O c #d4bfff",
"#P c #d4df00",
"#Q c #d4df55",
"#R c #d4dfaa",
"#S c #d4dfff",
"#T c #d4ff00",
"#U c #d4ff55",
"#V c #d4ffaa",
"#W c #d4ffff",
"#X c #ff0055",
"#Y c #ff00aa",
"#Z c #ff1f00",
"#0 c #ff1f55",
"#1 c #ff1faa",
"#2 c #ff1fff",
"#3 c #ff3f00",
"#4 c #ff3f55",
"#5 c #ff3faa",
"#6 c #ff3fff",
"#7 c #ff5f00",
"#8 c #ff5f55",
"a` c #ff5faa",
"a. c #ff5fff",
"a# c #ff7f00",
"aa c #ff7f55",
"ab c #ff7faa",
"ac c #ff7fff",
"ad c #ff9f00",
"ae c #ff9f55",
"af c #ff9faa",
"ag c #ff9fff",
"ah c #ffbf00",
"ai c #ffbf55",
"aj c #ffbfaa",
"ak c #ffbfff",
"al c #ffdf00",
"am c #ffdf55",
"an c #ffdfaa",
"ao c #ffdfff",
"ap c #ffff55",
"aq c #ffffaa",
"ar c #ccccff",
"as c #ffccff",
"at c #33ffff",
"au c #66ffff",
"av c #99ffff",
"aw c #ccffff",
"ax c #007f00",
"ay c #007f55",
"az c #007faa",
"aA c #007fff",
"aB c #009f00",
"aC c #009f55",
"aD c #009faa",
"aE c #009fff",
"aF c #00bf00",
"aG c #00bf55",
"aH c #00bfaa",
"aI c #00bfff",
"aJ c #00df00",
"aK c #00df55",
"aL c #00dfaa",
"aM c #00dfff",
"aN c #00ff55",
"aO c #00ffaa",
"aP c #2a0000",
"aQ c #2a0055",
"aR c #2a00aa",
"aS c #2a00ff",
"aT c #2a1f00",
"aU c #2a1f55",
"aV c #2a1faa",
"aW c #2a1fff",
"aX c #2a3f00",
"aY c #2a3f55",
"aZ c #fffbf0",
"a0 c #a0a0a4",
"a1 c #808080",
"a2 c #ff0000",
"a3 c #00ff00",
"a4 c #ffff00",
"a5 c #0000ff",
"a6 c #ff00ff",
"a7 c #00ffff",
"a8 c #ffffff",
/* pixels */
"ajasaj#Najanasanasanasanasanasanasanajajaj#Naj#Naj#N#N#J#N`QaU`Y",
"#N#Nasajas#Naoan#Sanao#Ranas#Raj`fas`fasajajajaj#Naj#N#N#J`QaT`e",
"asanaj#Oanasanasanaoanaoasananaoasajan#Ras#Rao#Naj#Naf#N#N`QaU`U",
"#Naj#Oajan`faj#Naj#Nanao#Raoaoasananasasajanajajaj#J#.#J##aYaTaU",
"aj#O#Naj#O#N#J#J#J.7#J#NaoaZanaoaoaoanaoaoasas#N`e.o.o.s.6aUaUaZ",
"#N#N#N#J#F#J##.7`e.o`Q.2#JaoaoaZaZao#SanaZan#N.s`LaU`Q.o`UaTaUaZ",
"#J#J#J.7#J#J#J#J#O#N.7.t.s#J#SaoaoaZaZaoao#O.s.o`e#F#E.7.saU``aT",
".x###J#J#J#Najasanasaoaj#J#J#NanaZaoaZao#N.6.7#J#J#E.7.2`QaUaTaU",
"aY`Q`V`V`V.x.xa0.B##.x`e.x.7#J#J#Oaj#N#F.3`e.s.s.s.o.o`QaYaTaUaY",
"`RaUaY#dar`f#O##ar`f##.t.7##.x.t`Q`Q`QaY`Q`e.x.x.B##`e`e.s`eaY`Q",
"an.7aYaraZas###J`f`Z.x.7#F#N#J##`Q`Q`MaY####`g`U`V`U.7#d`Q`UaY`e",
"anaoaj`fao#N#J#N#S#a###N#O#J#J#J#Jaj#J.7ar.7#J.7`e.3###JaYaUaY.x",
"asajanasaZ#Ras`fasanas#N#J#N#O#Nakaoaj#N##.7#J#J#J#J#N##`QaT`e`e",
"an#Oaj#RaoaZanas#N#N#N#Jajaj#N#Najao#N#J#N#F#F#J#J#Naj##aTaY.Ba8",
"ajanajasanas#Sanajasaj#Nas#Nakajajanaj#J#N#N#N#Nas#N#N##.7`ea8a8",
"anajasanasanajajas#Rasaoanaoaj#Najanas#Jaj#Najaj#N#Naf#J#Na8a8a8",
"ajasanajanasasaoanaoaZaZaj#J#Jajajasajaj#Jakasanakajaj#N#Ja8a8a8",
"ajajasasananaoaZaoaZaoaoajafafajaoanasaj#J#Naoasan#Oajaka0a8a8a8",
"aj#SajanasaoaoaZaoaZaoaZasanaoanaoaoaZasajajaoaZaoasaj#N.7a8a8a8",
"anajanasaoanaZaZaZaoaZaoaj#NasanaoaZaZaj#J#Oanaoaoajaj#Na8aZa8a8",
"#NasasanaoaoaoaZaoaZaj#J#A#A#F#Janas#N.2.2#A#Jajaoan#O#Ja8a8a8a8",
"#NajanaoanaZaoaZaZ#N#A#A.Y.Y.Y.2#J#J#F.Y.k.o.2#E#Nas#N#JaTa8a8a8",
"aj#N#OanaoaoaZaZao#J.2#F#F#A#F#Jab#F#A#A.o.n.o.2#J#Naj`eaU``aU``",
"#J#NajaoaoaZaZaoan#J#A#F#NajaZaoakajak#J#B.2.6#J#Eaj#J.s``aT``aT",
"#Jaj`fanaoanaoaZaoan#F.Y#w#B#Eaj#N#N#J.Y.k.Y#Faj`f#N.7aU``aU``aU",
"#Nafasaj#SaoaZaZaZaoanaf#Fa`#A#A#w#A#w#w#w#Aajasan#J.2``````````",
"aj#J#J#NajasanaoaZaZaoaoajajakafabababab#Faf`faj#N.7aY``aU``aU``",
"#Naj#J#Nas#RaoaoaZaoaZaZaoaoasajakafajajaj`faj#N#J`Q``aU````````",
"aj#N#J#F#NajaoanaoanaoanaZaoanas#Nasas`fajaj#N#J.s````````aU``aU",
"ananaj#J#F#Jan#Sanasanasanaoaoajaj#Najas#Raj#J.s``aU``aU````````",
"aj`fanan#J#F#J#N#Naj`fanasanananasajaj#Naj#J.saU````````aU``aU``",
"anasaj`fan#J.6#F#J#Najakanajasasanasaj#J#F.2aU````aU``aU````````"
};
