/* XPM */
static char *ms_ex[] = {
/* columns rows colors chars-per-pixel */
"32 32 256 2",
"   c #010202",
".  c #00050B",
"X  c #03080C",
"o  c #000710",
"O  c #000A13",
"+  c #000D1B",
"@  c #01111D",
"#  c #09151A",
"$  c #0D1214",
"%  c #000F20",
"&  c #001423",
"*  c #021925",
"=  c #001A2C",
"-  c #001E32",
";  c #001F3C",
":  c #00202E",
">  c #1F292E",
",  c #012233",
"<  c #0A2837",
"1  c #00243C",
"2  c #002A3D",
"3  c #122935",
"4  c #002B43",
"5  c #082E41",
"6  c #002D4B",
"7  c #002441",
"8  c #013145",
"9  c #00324B",
"0  c #01394F",
"q  c #113C4E",
"w  c #003353",
"e  c #003952",
"r  c #0B3D55",
"t  c #00355A",
"y  c #003B5B",
"u  c #0A3F5B",
"i  c #223641",
"p  c #283F4E",
"a  c #2B3B47",
"s  c #00415B",
"d  c #124157",
"f  c #1B4554",
"g  c #26475B",
"h  c #344451",
"j  c #004464",
"k  c #0D4B66",
"l  c #004368",
"z  c #004B6C",
"x  c #094E6C",
"c  c #004965",
"v  c #104963",
"b  c #194F67",
"n  c #004E73",
"m  c #014C79",
"M  c #025273",
"N  c #01527A",
"B  c #095178",
"V  c #025B7C",
"C  c #0B5A7F",
"Z  c #1A5D78",
"A  c #195875",
"S  c #2E5F7D",
"D  c #494B4E",
"F  c #444B50",
"G  c #48515B",
"H  c #4A5661",
"J  c #485E72",
"K  c #5B6068",
"L  c #5D6167",
"P  c #58687C",
"I  c #53667A",
"U  c #696A6D",
"Y  c #62666B",
"T  c #646974",
"R  c #800000",
"E  c #005483",
"W  c #015A82",
"Q  c #0C5C80",
"!  c #005388",
"~  c #125E82",
"^  c #026185",
"/  c #00638D",
"(  c #0A628A",
")  c #0E6688",
"_  c #1E6986",
"`  c #12678A",
"'  c #106B8D",
"]  c #1D6F8E",
"[  c #197088",
"{  c #016392",
"}  c #006894",
"|  c #006B99",
" . c #0F6991",
".. c #136D92",
"X. c #136F9A",
"o. c #087097",
"O. c #00719B",
"+. c #0C739C",
"@. c #167195",
"#. c #1C7193",
"$. c #14729B",
"%. c #16769C",
"&. c #256E8A",
"*. c #376C88",
"=. c #2B708C",
"-. c #27778C",
";. c #3B7387",
":. c #257491",
">. c #2B7492",
",. c #2C7A99",
"<. c #2C7A98",
"1. c #337593",
"2. c #337E97",
"3. c #016EA1",
"4. c #0175A4",
"5. c #0A79A6",
"6. c #127BA5",
"7. c #137EAA",
"8. c #237EA2",
"9. c #2A7EA1",
"0. c #267CA9",
"q. c #3276A0",
"w. c #466580",
"e. c #56728F",
"r. c #4B7F95",
"t. c #427D9C",
"y. c #427A93",
"u. c #5A7693",
"i. c #667890",
"p. c #2F819F",
"a. c #1581A9",
"s. c #1C83B8",
"d. c #2E82A2",
"f. c #2A85AC",
"g. c #2386AC",
"h. c #338BAE",
"j. c #3B8AAA",
"k. c #3786A5",
"l. c #248BB2",
"z. c #2F89B5",
"x. c #358CB5",
"c. c #3690B8",
"v. c #4B839A",
"b. c #548594",
"n. c #58859A",
"m. c #71829C",
"M. c #4182A0",
"N. c #4C8DA5",
"B. c #438BA6",
"V. c #568CA1",
"C. c #5481AA",
"Z. c #4F93AC",
"A. c #5992A8",
"S. c #5391A6",
"D. c #4C8CB6",
"F. c #4896B9",
"G. c #5197B6",
"H. c #678AAA",
"J. c #768CAC",
"K. c #6094A5",
"L. c #6998A8",
"P. c #6596A9",
"I. c #719CAE",
"U. c #6087B0",
"Y. c #639BB3",
"T. c #689CB2",
"R. c #669EBB",
"E. c #4AA2BF",
"W. c #5FA2BA",
"Q. c #60A2B7",
"!. c #6CA5BD",
"~. c #68A9BC",
"^. c #75A2B4",
"/. c #73A5BB",
"(. c #7CACBC",
"). c #3D96CA",
"_. c #4398C3",
"`. c #489DC0",
"'. c #6E9FC5",
"]. c #4CA5C4",
"[. c #5BA7C7",
"{. c #56A9D5",
"}. c #65A9C5",
"|. c #6AABC5",
" X c #60ACCC",
".X c #69AECF",
"XX c #63A0C1",
"oX c #75AAC4",
"OX c #75A7C4",
"+X c #6CB2CC",
"@X c #7CB5CB",
"#X c #68B5D9",
"$X c #72BFDF",
"%X c #76BAD6",
"&X c #66BDE5",
"*X c #79BEE4",
"=X c #77C1DF",
"-X c #7CC1DC",
";X c #6EC1E6",
":X c #74C1E1",
">X c #7CC3E0",
",X c #88AFB9",
"<X c #87A9CE",
"1X c #8AB8C7",
"2X c #8CBBC9",
"3X c #86B5C7",
"4X c #85BBD0",
"5X c #8EBBD1",
"6X c #89BDD8",
"7X c #84C5DC",
"8X c #89C6DC",
"9X c #8BC8DE",
"0X c #8DC1D6",
"qX c #92C3D3",
"wX c #99C5D3",
"eX c #94C5DC",
"rX c #94CBDD",
"tX c #A2C4D4",
"yX c #A9C8D3",
"uX c #AED1DD",
"iX c #81C7E2",
"pX c #92CDE1",
"aX c #9CCCE0",
"sX c #93C7E4",
"dX c #9ED2E2",
"fX c #A4CEE4",
"gX c #A4D2E1",
"hX c #ACD5E3",
"jX c #AED6EB",
"kX c #B3D4E2",
"lX c #B4D9E5",
"zX c #BADBE6",
"xX c #BBDEE8",
"cX c #B7DDEB",
"vX c #C3DADD",
"bX c #C2DAE0",
"nX c #CADBE0",
"mX c #C2DFE8",
"MX c #C2E0EB",
"NX c #CDE2EA",
"BX c #D4E5EA",
"VX c #D4E8EE",
"CX c #DDEAED",
"ZX c #CBE7F0",
"AX c #D6EAF0",
"SX c #DAECF1",
"DX c #DBF0F6",
"FX c #F3F3EF",
"GX c #E1EDF1",
"HX c #E9EFF3",
"JX c #E5F0F3",
"KX c #EBF3F4",
"LX c #EAF7FA",
"PX c #F3F9FA",
"IX c #FBFCFC",
"UX c #F5F6F1",
/* pixels */
"R R R R R R R R R R R R R R R R R R R R R R R R R R R R R R R R ",
"R                       X X . % ; 6 k *.b.b.n.b.;.b 4 1 1 1 - R ",
"R             X       . X # = 7 k V.3XI.V.v.v.V.L./.T.y.x t w R ",
"R                       O = 4 A /.(.-.` ` ( W m N Q =.S.T.2.~ R ",
"R                       + ; x !.,XK.XXOXOXXXG.x.h.j.p.2.A.A.G.R ",
"R                   . O - t ,.T.T./.D.v.=._ &.] X.9.k.k.2.[ -.R ",
"R                 . + = 6 m 8.0.N.0.#.C ! ! ! m B C ( ..@.@.@.R ",
"R                 . & 6 l W 6.5.p.+.' 4.7.a.6.} ( E m m m B B R ",
"R                 O - k tX}.a.g.f.g.G.cX4X8.:.#.%.%.$...~ ! m R ",
"R                 + 4 n bXZXh.z.z.s.6XvXK.Q x u r v Z &.>.:.:.R ",
"R               . = y / ~.PX|.z.0._.bXBX+.| m t 6 4 4 5 q f f R ",
"R             . & 4 N 4.W.PXwX_._.G.SXnXl.4.N t 9 2 - - 2 2 5 R ",
"R           . + 1 z } ].GXKXVX.X{.5XLXFXNXl.| z e 4 < 3 i a h R ",
"R         . + 2 l { ].PXUXCXDX0X&XuXSXHXIXnXc.X.A g h G K L Y R ",
"R       . & 2 l } [.IXIXIXHXNXwXOXmXNXIXIXIXGX'.r.u.P T T U U R ",
"R     . & 7 z | +XIXIXIXIXIXkXfX5XjXBXFXIXIXIXHX<XU.u.I H F D R ",
"R   X & 2 z } %XIXIXPXPXPXIXkXsXfX6XHXIXIXPXPXIXJXOXq.S g i > R ",
"R . * 4 n O.%XIXKXKXGXSXAXSXbX%X*X6XCXAXVXGXKXKXPXSXF.} z 8 * R ",
"R & 1 z +.8XKXJXSXVXmXcXlXhXhXoXR.5XlXhXlXxXMXVXSXKXSX]./ c 2 R ",
"R , j %.eXJXVXVXxXhXgX1X0XaXrXeXqXrXrXrX1XqXhXhXMXVXGXGXE.W e R ",
"R r >.tXLXVXMXhXdXeXL.n.L.7X8X8X8X8XpX@Xv.r.(.dXdXlXVXJXJXG.z R ",
"R w.J.kXlXuXrXpX4Xb.,.s.8.!.7X-X7X-X7XZ.a.4.] A.rXrXuXxXAXyXM R ",
"R m.J.oX9X9X9X/.y.$.| { 4.k.=X:X$X>X|.%.3.{ |  .v.4XrXdXuXN.M R ",
"R i.H.H.7XiX@Xt.+.! l l W o.[.:X$X=Xj.} n y l { +.A.7XrX@X..M R ",
"R J *.t.|.iX.X7./ y 1 1 y W p.#X;X[...N 6 1 7 l | h.7X7XZ./ y R ",
"R p v ' t.:X[.O.M 7 % % 1 l V F.&X,.V e = & = e V g.-X+X..M 9 R ",
"R < 8 z ) [.#X^ y - O o + 2 j x Z c y , + . @ 8 M p.;Xk.W s , R ",
"R # : 9 z =.{.M 9 & . . o & - 4 8 4 = @ X . O , s >.[.Z z 8 * R ",
"R . + , 0 s j.k 2 +       . + @ * & O . X X X : 8 =.2.s 0 , # R ",
"R X X + : 2 d 5 * O           X . . . .     O @ , f q 8 < * # R ",
"R   . X @ & * * + .                     .   . # * = < : * # $ R ",
"R R R R R R R R R R R R R R R R R R R R R R R R R R R R R R R R "
};
