/* XPM */
static char *ms_job[] = {
/* columns rows colors chars-per-pixel */
"32 32 256 2",
"   c #000001",
".  c #00050B",
"X  c #03090C",
"o  c #000710",
"O  c #000A13",
"+  c #000D1C",
"@  c #00101C",
"#  c #08171C",
"$  c #001423",
"%  c #001823",
"&  c #00192B",
"*  c #001E32",
"=  c #001F3C",
"-  c #00202E",
";  c #1F292E",
":  c #002234",
">  c #0A2837",
",  c #00253C",
"<  c #002A3D",
"1  c #122732",
"2  c #132C39",
"3  c #002441",
"4  c #002B43",
"5  c #082E41",
"6  c #002C4A",
"7  c #033145",
"8  c #00314B",
"9  c #133E4F",
"0  c #003154",
"q  c #003952",
"w  c #0B3D55",
"e  c #00355A",
"r  c #003A5B",
"t  c #0A3F5B",
"y  c #223641",
"u  c #2B3B47",
"i  c #283F4E",
"p  c #024159",
"a  c #104157",
"s  c #1B4554",
"d  c #25475C",
"f  c #27485B",
"g  c #344451",
"h  c #014565",
"j  c #0D4B66",
"k  c #004368",
"l  c #014A6C",
"z  c #094E6D",
"x  c #104963",
"c  c #194F67",
"v  c #004D73",
"b  c #014C79",
"n  c #045372",
"m  c #01527B",
"M  c #095178",
"N  c #0B5A7F",
"B  c #1A5573",
"V  c #165B78",
"C  c #1B5E78",
"Z  c #2E5F7D",
"A  c #494B4E",
"S  c #444B50",
"D  c #48515B",
"F  c #4A5661",
"G  c #485E72",
"H  c #5D6167",
"J  c #5B6068",
"K  c #53667A",
"L  c #58687C",
"P  c #62666B",
"I  c #696A6D",
"U  c #646974",
"Y  c #800000",
"T  c #015384",
"R  c #015A84",
"E  c #0C5C80",
"W  c #005388",
"Q  c #125E82",
"!  c #056385",
"~  c #0F6282",
"^  c #00618C",
"/  c #0A628A",
"(  c #1E6986",
")  c #12678A",
"_  c #106B8D",
"`  c #1F6F8F",
"'  c #197088",
"]  c #036391",
"[  c #006893",
"{  c #0F6991",
"}  c #016B99",
"|  c #146B94",
" . c #136F9A",
".. c #00719B",
"X. c #0C749D",
"o. c #167195",
"O. c #1C7193",
"+. c #15739B",
"@. c #18749B",
"#. c #256E8A",
"$. c #346E83",
"%. c #3B6B8D",
"&. c #23758A",
"*. c #2B708C",
"=. c #2B798F",
"-. c #3B7387",
";. c #257491",
":. c #2C7291",
">. c #2D7E95",
",. c #2B7999",
"<. c #317F95",
"1. c #357D9A",
"2. c #036FA2",
"3. c #0176A5",
"4. c #0E74A2",
"5. c #127BA5",
"6. c #137EAA",
"7. c #227FA5",
"8. c #2A7EA1",
"9. c #267CA9",
"0. c #3276A0",
"q. c #466580",
"w. c #56728F",
"e. c #447E95",
"r. c #427D9C",
"t. c #5A7693",
"y. c #667890",
"u. c #2F819F",
"i. c #1581A9",
"p. c #1D82BA",
"a. c #2F84A3",
"s. c #2584AB",
"d. c #2A85AC",
"f. c #3886A5",
"g. c #338BAE",
"h. c #3C8AAA",
"j. c #248BB2",
"k. c #2F89B5",
"l. c #3C8CB4",
"z. c #308BBC",
"x. c #3690B8",
"c. c #49839A",
"v. c #548594",
"b. c #57899E",
"n. c #5A8998",
"m. c #71829C",
"M. c #4182A0",
"N. c #4089A1",
"B. c #4C8EA6",
"V. c #568CA1",
"C. c #5481AA",
"Z. c #5391A6",
"A. c #5A94A8",
"S. c #4C8CB6",
"D. c #4492B8",
"F. c #4F9EBD",
"G. c #5292B1",
"H. c #5096BA",
"J. c #6383A8",
"K. c #648FAC",
"L. c #6E8DAA",
"P. c #768CAC",
"I. c #6095A4",
"U. c #6199A9",
"Y. c #6998A8",
"T. c #6087B0",
"R. c #639BB3",
"E. c #689CB2",
"W. c #6A9EB9",
"Q. c #5FA2BA",
"!. c #60A2B7",
"~. c #6CA4BC",
"^. c #68A9BC",
"/. c #75A2B4",
"(. c #73A5BB",
"). c #7BABB9",
"_. c #3D96CA",
"`. c #4398C3",
"'. c #489DC0",
"]. c #6E9FC5",
"[. c #4CA6C4",
"{. c #5AA4C4",
"}. c #5DACCD",
"|. c #5AACD2",
" X c #52A7D8",
".X c #63A0C1",
"XX c #65A9C5",
"oX c #6AA9C3",
"OX c #60ADC9",
"+X c #69AECF",
"@X c #73A7C6",
"#X c #75AAC4",
"$X c #7DAAC0",
"%X c #71A5C8",
"&X c #6CB4CC",
"*X c #79B7CF",
"=X c #60B1D4",
"-X c #6EB5D9",
";X c #72B9D1",
":X c #78BBD2",
">X c #76B7DA",
",X c #79BEE4",
"<X c #77C1DF",
"1X c #848484",
"2X c #88AFB9",
"3X c #ABAAAA",
"4X c #87A9CE",
"5X c #8AB2C3",
"6X c #8BBDCB",
"7X c #84B9D0",
"8X c #8FBAD2",
"9X c #86BBD8",
"0X c #8CBFD8",
"qX c #8DC1D6",
"wX c #83C4DB",
"eX c #8CC5DA",
"rX c #8AC8DE",
"tX c #99C5D3",
"yX c #94C5DC",
"uX c #93CBDE",
"iX c #A2C4D4",
"pX c #AED1DD",
"aX c #80C8E4",
"sX c #93C7E4",
"dX c #93CEE1",
"fX c #9EC9E2",
"gX c #A4CEE4",
"hX c #A5D2E1",
"jX c #AED6EB",
"kX c #B5D3E2",
"lX c #B5D9E4",
"zX c #B7DDEB",
"xX c #C3DADD",
"cX c #DEDDDD",
"vX c #C2DAE0",
"bX c #CADBE0",
"nX c #C2E0EC",
"mX c #CCE0E9",
"MX c #D4E5EA",
"NX c #D2E8EE",
"BX c #DDEAED",
"VX c #C8E4F0",
"CX c #CEEAF0",
"ZX c #D6EAF0",
"AX c #DAECF1",
"SX c #DBF0F6",
"DX c #F3F3EF",
"FX c #E2ECF0",
"GX c #E9EFF3",
"HX c #E4F0F4",
"JX c #EBF3F4",
"KX c #EDF6F8",
"LX c #E8F8FC",
"PX c #F5F6F1",
"IX c #F3F9FA",
"UX c #FBFCFC",
/* pixels */
"Y Y Y Y Y Y Y Y Y Y Y Y Y Y Y Y Y Y Y Y Y Y Y Y Y Y Y Y Y Y Y Y ",
"Y         X           X X X o + * 6 j $.v.v.n.v.-.c 6 = , , * Y ",
"Y     X X   X     X     X # & 3 h V.5X/.V.c.c.V.U./.E.e.z 0 0 Y ",
"Y                 X     X & 6 B (.).>.) ) / R m m E *.Z.E.1.Q Y ",
"Y             X         + , z ~.2XU.~.@X@X].H.l.g.h.8.>.A.R.G.Y ",
"Y                   X + * 0 ,.W.W./.S.M.*.( ( #. .8.f.N.u.' &.Y ",
"Y     X           . O & 6 v s.9.B.9.O.N T W T b M V / | o.o.o.Y ",
"Y                 . $ 6 k ^ 5.4.u.X._ 2.6.6.5.} ] W b v b m M Y ",
"Y   X         X   O * x iXXXi.s.d.j.F.zX7X8.;.O.@.@.+._ E T v Y ",
"Y               . + 4 v vXCXg.k.d.9.9XxXA.N z t w x C #.,.,.&.Y ",
"Y       .       o & r ! ^.IX^.z.p.D.xXZXX.} b r 6 4 4 5 9 s s Y ",
"Y             . $ 4 m 3.Q.IXtX`._.!.FXxXj.3.m r 8 4 * : , < 5 Y ",
"Y           . + , l [ [.GXHXMX+X X6XLXPXmXj.} l 8 4 > 2 y u g Y ",
"Y       X X @ 3 k [ [.IXPXBXSXqX-XpXAXGXUXmXz.| B d g D J H P Y ",
"Y       X + 3 k [ }.IXUXUXGXmXtX(.nXmXUXUXUXFX%XC.t.L U U I I Y ",
"Y   X X # 5 z ] &XUXUXUXUXUXkXgX8XjXMXPXUXUXUXJX4XC.t.K F S A Y ",
"Y   . % 4 l } ;XIXIXKXIXIXIXkXsXfXsXFXUXIXIXIXUXHX%X0.Z d y ; Y ",
"Y O $ 6 l ..:XIXIXKXGXAXBXAXxX>X,X0XBXZXBXAXJXKXIXAXF.[ l < % Y ",
"Y $ < l 4.eXKXHX1X1X1X1X1X1X1X1X1X1X1X1X1X1X1X1X1X1X1X1X1X1X1XY ",
"Y : p @.yXHXAXNXcX  cX  cX  cX  cX  cX  cX  cX  cX  cX  cX  cXY ",
"Y w :.iXJXAXnXhX3X3X3X3X3X3X3X3X3X3X3X3X3X3X3X3X3X3X3X3X3X3X3XY ",
"Y q.L.lXlXhXuXuX3X3X      3X3X3X      3X3X3X      3X3X3X      Y ",
"Y m.P.$XrXrXrX).3X          3X          3X          3X        Y ",
"Y y.J.K.wXwX:Xr.3X          3X          3X          3X        Y ",
"Y G %.r.oX,XXXi.3X          3X          3X          3X        Y ",
"Y i j _ M.,XOX..3X          3X          3X          3X        Y ",
"Y 1 7 l ~ {.=X! 3X          3X          3X          3X        Y ",
"Y # - 8 l *.}.N 3X3X      3X3X3X      3X3X3X      3X3X3X      Y ",
"Y X O : q p h.j 3X3X3X3X3X3X3X3X3X3X3X3X3X3X3X3X3X3X3X3X3X3X3XY ",
"Y X O + : < a 7 cX  cX  cX  cX  cX  cX  cX  cX  cX  cX  cX  cXY ",
"Y   X X @ % % % 1X1X1X1X1X1X1X1X1X1X1X1X1X1X1X1X1X1X1X1X1X1X1XY ",
"Y Y Y Y Y Y Y Y Y Y Y Y Y Y Y Y Y Y Y Y Y Y Y Y Y Y Y Y Y Y Y Y "
};
