/* XPM */
static char *ms_sf[] = {
/* columns rows colors chars-per-pixel */
"32 32 256 2",
"   c #010202",
".  c #00050B",
"X  c #03080C",
"o  c #000A13",
"O  c #000D1C",
"+  c #01111D",
"@  c #09151A",
"#  c #0D1214",
"$  c #000F20",
"%  c #001423",
"&  c #031924",
"*  c #001A2C",
"=  c #001E32",
"-  c #001F3C",
";  c #00202E",
":  c #1F292E",
">  c #012233",
",  c #0A2837",
"<  c #00243C",
"1  c #012A3D",
"2  c #132C39",
"3  c #122732",
"4  c #791111",
"5  c #7E1818",
"6  c #750909",
"7  c #002441",
"8  c #002B43",
"9  c #082E41",
"0  c #002C4A",
"q  c #023145",
"w  c #00324C",
"e  c #01394F",
"r  c #113C4E",
"t  c #003353",
"y  c #003A52",
"u  c #00355A",
"i  c #003B5B",
"p  c #093D57",
"a  c #223541",
"s  c #283F4E",
"d  c #2B3B47",
"f  c #00415A",
"g  c #124157",
"h  c #1B4554",
"j  c #27485B",
"k  c #25475C",
"l  c #344451",
"z  c #004464",
"x  c #004965",
"c  c #0D4B66",
"v  c #004368",
"b  c #004B6C",
"n  c #094E6C",
"m  c #104963",
"M  c #194F67",
"N  c #004D74",
"B  c #014C79",
"V  c #025273",
"C  c #02527A",
"Z  c #025B7C",
"A  c #0A567C",
"S  c #1A5D78",
"D  c #165B78",
"F  c #2E5F7D",
"G  c #494B4E",
"H  c #444B50",
"J  c #48515B",
"K  c #4A5661",
"L  c #485E72",
"P  c #5D6167",
"I  c #5B6068",
"U  c #58687C",
"Y  c #53667A",
"T  c #696A6D",
"R  c #62666B",
"E  c #646974",
"W  c #800000",
"Q  c #005483",
"!  c #015B82",
"~  c #0C5C80",
"^  c #005388",
"/  c #125E82",
"(  c #026185",
")  c #00638D",
"_  c #0A628A",
"`  c #0E6688",
"'  c #1E6986",
"]  c #12678A",
"[  c #106B8D",
"{  c #1D6F8E",
"}  c #197088",
"|  c #006393",
" . c #006895",
".. c #0F6991",
"X. c #006B99",
"o. c #136D92",
"O. c #087097",
"+. c #00719B",
"@. c #0C749D",
"#. c #167195",
"$. c #1C7193",
"%. c #14729B",
"&. c #16769C",
"*. c #256E8A",
"=. c #376C88",
"-. c #2B708C",
";. c #2B798F",
":. c #23758A",
">. c #257491",
",. c #2B7492",
"<. c #2C7A99",
"1. c #2C7A98",
"2. c #337593",
"3. c #317F95",
"4. c #357D9A",
"5. c #016EA1",
"6. c #0175A3",
"7. c #0A79A6",
"8. c #127BA5",
"9. c #137EAA",
"0. c #237EA2",
"q. c #2A7EA1",
"w. c #267CA9",
"e. c #3276A0",
"r. c #466580",
"t. c #56728F",
"y. c #4B7F95",
"u. c #427D9C",
"i. c #447E95",
"p. c #5A7693",
"a. c #667890",
"s. c #2F819F",
"d. c #1581A9",
"f. c #1B83B6",
"g. c #2C80A0",
"h. c #2585AB",
"j. c #3886A5",
"k. c #3B8AAA",
"l. c #348AA9",
"z. c #228BB3",
"x. c #2F89B5",
"c. c #358CB5",
"v. c #3690B8",
"b. c #49839A",
"n. c #548594",
"m. c #57899E",
"M. c #5A8998",
"N. c #598299",
"B. c #71829C",
"V. c #4182A0",
"C. c #4089A1",
"Z. c #4A8DA7",
"A. c #568CA1",
"S. c #4F93AC",
"D. c #5992A8",
"F. c #5391A6",
"G. c #4C8CB6",
"H. c #4794B7",
"J. c #4F9EBD",
"K. c #4492B8",
"L. c #5096BA",
"P. c #5297B4",
"I. c #678AAA",
"U. c #768CAC",
"Y. c #6094A5",
"T. c #6596A9",
"R. c #719CAE",
"E. c #6087B0",
"W. c #639BB3",
"Q. c #699DB5",
"!. c #4AA2BF",
"~. c #5FA2BA",
"^. c #60A2B7",
"/. c #6CA5BD",
"(. c #68A9BC",
"). c #75A2B4",
"_. c #7CACBC",
"`. c #73A2B9",
"'. c #489DC0",
"]. c #4398C3",
"[. c #6E9FC5",
"{. c #4CA5C4",
"}. c #5BA5C4",
"|. c #5DACCD",
" X c #5AACD2",
".X c #65A9C5",
"XX c #6AABC5",
"oX c #60ACCC",
"OX c #69AECF",
"+X c #63A0C1",
"@X c #73A7C6",
"#X c #75AAC4",
"$X c #77A7C4",
"%X c #6CB0CC",
"&X c #7CB5CB",
"*X c #65B6D9",
"=X c #76B7DA",
"-X c #79BFDB",
";X c #75BAD1",
":X c #77C1DF",
">X c #7CC1DB",
",X c #74C1E1",
"<X c #7CC3E0",
"1X c #8AB8C7",
"2X c #8CBBCA",
"3X c #8AB2C3",
"4X c #85BBD0",
"5X c #8CBFD8",
"6X c #8ABCD4",
"7X c #84C5DC",
"8X c #89C6DB",
"9X c #8BC8DE",
"0X c #8DC1D6",
"qX c #92C3D3",
"wX c #9AC5D4",
"eX c #94C5DC",
"rX c #94CBDD",
"tX c #A2C4D4",
"yX c #A9C8D3",
"uX c #AED1DD",
"iX c #82C7E0",
"pX c #80C8E4",
"aX c #92CDE1",
"sX c #9BCEE0",
"dX c #93C7E4",
"fX c #9DD2E2",
"gX c #A4CEE4",
"hX c #A5D2E1",
"jX c #ACD5E3",
"kX c #AED6EB",
"lX c #B3D4E2",
"zX c #B4D9E5",
"xX c #BBDEE8",
"cX c #B8DCE9",
"vX c #C3DADD",
"bX c #C2DAE0",
"nX c #CADBE0",
"mX c #C2E0EB",
"MX c #CCE1EA",
"NX c #D3E5EA",
"BX c #D4E8EE",
"VX c #DDEAED",
"CX c #C8E4F0",
"ZX c #CEEAF0",
"AX c #D6EAF0",
"SX c #DAECF1",
"DX c #DBF0F6",
"FX c #F3F3EF",
"GX c #E2ECF0",
"HX c #E9EFF2",
"JX c #E5F0F3",
"KX c #EBF2F4",
"LX c #E8F8FC",
"PX c #F3F9FA",
"IX c #FEFEFE",
"UX c #F5F6F1",
/* pixels */
"W W W W W W W W 5 W W W W W W W 4 W W W 6 W W W W W 6 W W W W W ",
"6               IX    X X X . O IX0 c =.n.M.M.M.IXM 0 < < < = W ",
"W             X IX      X O * < IXm.3X).A.b.b.A.IX`.).i.n u t W ",
"W               IX      X * 0 D IX_.;.] ] _ Q C IXA *.F.Q.4./ W ",
"W               IX      O < n /.IXD./.$X@X[.L.v.IXk.4.3.D.W.S.W ",
"W               IX    O = u <.Q.IX`.G.V.*.' ' *.IXq.j.j.3.' :.W ",
"W               IX  o * 0 B 0.w.IXw.$.A ^ ^ ^ B IX~ _ o.$.#.#.W ",
"W               IX. % 8 v | 8.7.IX@.[ 6.9.d.8. .IXQ B B B C A W ",
"W               IXo = c tX.X9.h.IXz.J.cX4X0.>.$.IX&.%.o.~ Q B W ",
"W               IXO 8 b vXBXl.x.IXw.6XvXY.~ n p IXm S *.,.>.>.W ",
"W               IX* i ) /.LX.Xv.IXK.bXBX@.X.B u IX8 8 q r h h W ",
"W             . IX8 C 6.~.PXwX].IXP.SXnXz.6.C i IX1 = = 1 1 9 W ",
"W           . O IXb X.{.HXJXBXOXIX2XLXKXnXf.X.b IX1 , 2 a d l W ",
"W         . O 1 IX| {.PXUXVXDX0XIXuXSXFXIXnXv.%.IXk l J P P R W ",
"W       . % 1 v IX|.PXUXIXHXMXwXIXbXMXIXIXIXGX[.IXt.U E E T T W ",
"W     X % 7 b X.IXIXIXIXIXUXlXgXIXkXNXFXIXIXIXHXIXE.p.Y K H G W ",
"6   X % 8 v X.;XIXPXPXPXPXIXlXdXIXeXGXIXPXPXPXIXIX@Xe.F k a : W ",
"W o % 8 N +.;XIXIXLXHXSXBXSXvX=XIX5XVXAXSXSXKXKXIXSXJ.| b 1 & W ",
"W + < b 6.qXKXGXIXMXxXxXzXjXjX#XIX2XzXjXzXxXmXBXIXJXSX{.) z 1 6 ",
"W > z &.eXKXSXBXIXjXhX1XqXrXrXeXIXrXrXrX1XwXjXjXIXBXJXGX!.! e W ",
"W p ,.yXKXAXmXjXIXrXR.N.T.8X8X8XIX8XaX&Xb.y._.fXIXzXBXKXJXJ.x W ",
"W r.U.lXzXhXrXaXIXN.1.f.0..X7X>XIX>X7XS.d.6.{ D.IXaXuXxXSXyXV W ",
"W a.U._.rX8X7X_.IX%.X.| 6.j.-X-XIX>XXX&.+.|  ...IX4XrXrXjXF.V W ",
"W a.E.I.7X7X;Xu.IXQ v v ! X.}.,XIX,Xk.X.B i v | IXD.7XeX&X#.b W ",
"W L =.u.@XpXOX9.IXi < < i ! g.,XIX|...C 0 < 8 v IXc.7X7XZ.) f 6 ",
"6 l c ] e.<XoX+.IX7 $ $ < v Z H.IX1.Z y * $ * y IXh.>X%Xo.C q W ",
"W 3 q b ` }.*X( IX* o o O 1 z n IXx i > O X + 8 IXg.,Xj.( i > W ",
"W @ ; e b -.|.V IX% .   X % = 8 IX8 * O o . o > IX,.|.D b q & W ",
"W X o > e f k.c IXO   .   X o + IX% o . X X X * IX2.4.f e , @ 6 ",
"W X o O ; 1 g 9 IXo         .   IX. X       o + IXg r 9 > & # W ",
"W   X X O % & & IX.           X IX      X   X @ IX& , ; & @ # W ",
"W W W W W W W 6 6 W W W W 6 W W 4 W W W W W W W W 6 W W W W W W "
};
