/* XPM */
static char *addUVtexture[] = {
/* width height num_colors chars_per_pixel */
"    32    32      256            2",
/* colors */
"`` c #c1c1c1",
"`. c #b6b6b6",
"`# c #919191",
"`a c #5c5c5c",
"`b c #6f6f6f",
"`c c #eeeeee",
"`d c #e5e5e5",
"`e c #d5d5d5",
"`f c #c7c7c7",
"`g c #bbbbbb",
"`h c #b2b2b2",
"`i c #c0c0c0",
"`j c #474747",
"`k c #090909",
"`l c #0d0d0d",
"`m c #2f2f2f",
"`n c #767676",
"`o c #b3b3b3",
"`p c #999999",
"`q c #9a9a9a",
"`r c #a2a2a2",
"`s c #5d5d5d",
"`t c #414141",
"`u c #bfbfbf",
"`v c #c9c9c9",
"`w c #6d6d6d",
"`x c #acacac",
"`y c #dbdbdb",
"`z c #f9f9f9",
"`A c #ffffff",
"`B c #626262",
"`C c #000000",
"`D c #010101",
"`E c #0a0a0a",
"`F c #2d2d2d",
"`G c #8c8c8c",
"`H c #656565",
"`I c #5b5b5b",
"`J c #a1a1a1",
"`K c #cccccc",
"`L c #929292",
"`M c #e1e1e1",
"`N c #505050",
"`O c #c2c2c2",
"`P c #a3a3a3",
"`Q c #727272",
"`R c #989898",
"`S c #b8b8b8",
"`T c #232323",
"`U c #545454",
"`V c #4a4a4a",
"`W c #8d8d8d",
"`X c #a9a9a9",
"`Y c #9c9c9c",
"`Z c #858585",
"`0 c #848484",
"`1 c #070707",
"`2 c #3c3c3c",
"`3 c #b1b1b1",
"`4 c #464646",
"`5 c #707070",
"`6 c #d0d0d0",
"`7 c #afafaf",
"`8 c #9d9d9d",
".` c #606060",
".. c #828282",
".# c #bebebe",
".a c #080808",
".b c #212121",
".c c #565656",
".d c #ededed",
".e c #c5c5c5",
".f c #8e8e8e",
".g c #aaaaaa",
".h c #a6a6a6",
".i c #969696",
".j c #a5a5a5",
".k c #a0a0a0",
".l c #959595",
".m c #797979",
".n c #161616",
".o c #272727",
".p c #d4d4d4",
".q c #dcdcdc",
".r c #9f9f9f",
".s c #bcbcbc",
".t c #fbfbfb",
".u c #f2f2f2",
".v c #ebebeb",
".w c #7a7a7a",
".x c #141414",
".y c #292929",
".z c #353535",
".A c #cbcbcb",
".B c #717171",
".C c #bababa",
".D c #d8d8d8",
".E c #909090",
".F c #f6f6f6",
".G c #e3e3e3",
".H c #7f7f7f",
".I c #242424",
".J c #101010",
".K c #888888",
".L c #373737",
".M c #cfcfcf",
".N c #6b6b6b",
".O c #111111",
".P c #939393",
".Q c #e9e9e9",
".R c #e0e0e0",
".S c #d6d6d6",
".T c #838383",
".U c #2a2a2a",
".V c #4f4f4f",
".W c #424242",
".X c #1b1b1b",
".Y c #808080",
".Z c #dddddd",
".0 c #d3d3d3",
".1 c #535353",
".2 c #323232",
".3 c #a8a8a8",
".4 c #ececec",
".5 c #d2d2d2",
".6 c #777777",
".7 c #262626",
".8 c #303030",
"#` c #676767",
"#. c #737373",
"## c #b0b0b0",
"#a c #595959",
"#b c #cdcdcd",
"#c c #c8c8c8",
"#d c #2c2c2c",
"#e c #4d4d4d",
"#f c #585858",
"#g c #222222",
"#h c #666666",
"#i c #868686",
"#j c #333333",
"#k c #555555",
"#l c #3d3d3d",
"#m c #494949",
"#n c #131313",
"#o c #7d7d7d",
"#p c #fefefe",
"#q c #b5b5b5",
"#r c #181818",
"#s c #121212",
"#t c #040404",
"#u c #dfdfdf",
"#v c #fcfcfc",
"#w c #efefef",
"#x c #060606",
"#y c #575757",
"#z c #0f0f0f",
"#A c #151515",
"#B c #e8e8e8",
"#C c #c6c6c6",
"#D c #0c0c0c",
"#E c #696969",
"#F c #4c4c4c",
"#G c #030303",
"#H c #202020",
"#I c #757575",
"#J c #f5f5f5",
"#K c #393939",
"#L c #c3c3c3",
"#M c #444444",
"#N c #7c7c7c",
"#O c #6a6a6a",
"#P c #343434",
"#Q c #adadad",
"#R c #5f5f5f",
"#S c #3f3f3f",
"#T c #2b2b2b",
"#U c #8f8f8f",
"#V c #818181",
"#W c #bdbdbd",
"#X c #191919",
"#Y c #2e2e2e",
"#Z c #1a1a1a",
"#0 c #1c1c1c",
"#1 c #636363",
"#2 c #525252",
"#3 c #8a8a8a",
"#4 c #646464",
"#5 c #363636",
"#6 c #1d1d1d",
"#7 c #1f1f1f",
"#8 c #171717",
"a` c #434343",
"a. c #a7a7a7",
"a# c #000000",
"aa c #000000",
"ab c #000000",
"ac c #000000",
"ad c #000000",
"ae c #000000",
"af c #000000",
"ag c #000000",
"ah c #000000",
"ai c #000000",
"aj c #000000",
"ak c #000000",
"al c #000000",
"am c #000000",
"an c #000000",
"ao c #000000",
"ap c #000000",
"aq c #000000",
"ar c #000000",
"as c #000000",
"at c #000000",
"au c #000000",
"av c #000000",
"aw c #000000",
"ax c #000000",
"ay c #000000",
"az c #000000",
"aA c #000000",
"aB c #000000",
"aC c #000000",
"aD c #000000",
"aE c #000000",
"aF c #000000",
"aG c #000000",
"aH c #000000",
"aI c #000000",
"aJ c #000000",
"aK c #000000",
"aL c #000000",
"aM c #000000",
"aN c #000000",
"aO c #000000",
"aP c #000000",
"aQ c #000000",
"aR c #000000",
"aS c #000000",
"aT c #000000",
"aU c #000000",
"aV c #000000",
"aW c #000000",
"aX c #000000",
"aY c #000000",
"aZ c #000000",
"a0 c #000000",
"a1 c #000000",
"a2 c #000000",
"a3 c #000000",
"a4 c #000000",
"a5 c #000000",
"a6 c #000000",
"a7 c #000000",
"a8 c #000000",
/* pixels */
"````````````````````````````````````````````````````````````````",
"```````````````````````.`#`a`b`c`d`e`f`g`h`i````````````````````",
"```````````````````.`j`k`l`m`n`o`p`q`r`.`s`t`#`u````````````````",
"```````````````v`v`w`x`y`z`A`B`C`C`C`D`E`F`G`H`I`J``````````````",
"`````````````K`L`M`A`A`A`A`A`N`C`C`C`C`C`E`.`O`P`Q`R````````````",
"```````````S`T`U`A`A`A`A`A`A`V`C`C`C`C`C`C`W`O`X`Y`Z`0`i````````",
"`````````J`1`2`3`A`A`A`A`A`A`4`C`C`C`C`C`C`5`6`7`8`G.`..````````",
"``````.#.a.b.c`y`A`A`A.d.e.f`L.g.h`r`L`Z`b`w.i.j.k.l.m.n.j``````",
"```````5`C.o.`.p`c`A.q.r.`.o.s`A`A.t.u.v.v.w`D.x`F`j`w.y.z.s````",
"````.A`k`C.B`d.C`O.D`O.E.c.b.h`A.F`c.G.q`y.H`C`C`C`C`E.I.J.K````",
"`````o.L.M`A`A`X.E.r.E.N`2.O.P`A.u.Q.R.D.S.T`C`C`C`C`C.U.V.W`u``",
"``.e`K`A`A`A`A.i.c.`.c`2.X`C.Y`A`c`d.Z.0.0.T`C`C`C`C`C.o.1.2.3``",
"```u`X`A`A`A`A`L.b.o.b.O`C`C`b`A.4`d`y.5`6.6`C`C`C`C`C.7.V.8..``",
"``#`#.`A`A`A`A##`C`C`C`C`C`C#a.F.G.S#b#c`v#.`C`C`C`C`C#d#e`F#f``",
"``.8`a`A`A`A`A.Q`C`D#g`V#h#i.H.W.2.I.I.y#j#k`a#l.I`l`C.2#m.y#j``",
"``#n`m`A`A`A`A.e#o.A.F#p`A`A`o`C`C`C`C`C`C.1#q`p#i`w.W`F.L.I#r``",
"``#s#t#u`A`g.L#t`u`A#v.F#w#w.s#x`C`C`C`C`C#y`P`G.H`Q.`#z#x.J#A``",
"```F`C#o`s`C`C`C`n`A.u`c#B`d#C#D`C`C`C`C`C#``p`Z.6#E#F#G`C`C.U``",
"``#a.8#i`C`C`C`C#g.G.4.G#u`y`K#H`C`C`C`C#G#I`W.w`b.``m`C`C`C.V``",
"```q`Y#J#j`C`C`C`C`Y.4.q.D.5`K#K`C`C`C`C`1.m.T`Q`H.1#n`C`C`C.m``",
"``.##L.Q.i`C`C`C`C#M.Z`e.M.A`6#y`C`C`C`C.O.T#N#O`a#l`D`C`C`C`P``",
"`````Y.D.0#P`C`C`C#x#Q`e`i`7.l#R`V`N`N#e.W#S#M#m#F#g`C`C`C#T`u``",
"`````Y`g`6`p#G`C`C#n.`#e.y`l`D#j.h.r`L#U`N`C`C`D`E#H#D`C`C#V````",
"`````u.m#W`O`5.U`n`X.k#D`C`C`C#X`G.K#N.6.8`C`C`C.J#g#D`C#Y`g````",
"```````P#.`h`w#E`u`7###E`D`C`C`1`n#N`5#h#Z`C`C#t#0`l`C`C`Y``````",
"`````````G#e`C#G#`.k`p`p.2`C`C`C.V`5#1#F#G`C`C.O.J`D`C`n````````",
"``````````...y`C`C#2`W#3`Q`l`C`C.o`H.c#j`C`C`k#D`D`C#4`u````````",
"```````````i`r.L#x`C#5`b`n#m`l#6`F.I#Z#7#8`1#x`C`C.6`u``````````",
"```````````````7`B#g`C#8#l#8.x`ja`#t`C#8.O#G`C`m`Y``````````````",
"````````````````#W`R#e#n#d#0`E.O.I#D#G`1`C`F#V`g````````````````",
"`````````````````````ia..H#a.L#8.O#T.V.w`P`u````````````````````",
"````````````````````````````````````````````````````````````````"
};
