/* XPM */
static char *render_mib_dielectric[] = {
/* width height num_colors chars_per_pixel */
"    32    32      256            2",
/* colors */
"`` c #0472ac",
"`. c #a4b6bc",
"`# c #04a6f4",
"`a c #4c92b4",
"`b c #048ed4",
"`c c #64a6cc",
"`d c #c4c2c4",
"`e c #247eb4",
"`f c #84d2fc",
"`g c #44befc",
"`h c #0482c4",
"`i c #24b2fc",
"`j c #2492cc",
"`k c #a4defc",
"`l c #c4eafc",
"`m c #6496b4",
"`n c #e4f6fc",
"`o c #64cafc",
"`p c #049aec",
"`q c #047ab4",
"`r c #14aafc",
"`s c #4ca2cc",
"`t c #74aac4",
"`u c #94dafc",
"`v c #1482bc",
"`w c #34b6fc",
"`x c #b4e2fc",
"`y c #b4bec4",
"`z c #148ecc",
"`A c #3486ac",
"`B c #2496d4",
"`C c #d4eefc",
"`D c #f4fafc",
"`E c #74cefc",
"`F c #147aac",
"`G c #7caec4",
"`H c #acbac4",
"`I c #0caefc",
"`J c #0496e4",
"`K c #54c2fc",
"`L c #048acc",
"`M c #749eb4",
"`N c #a4bacc",
"`O c #0ca6f4",
"`P c #549abc",
"`Q c #0492e4",
"`R c #2486b4",
"`S c #8cdafc",
"`T c #04a2f4",
"`U c #047ec4",
"`V c #1cb2fc",
"`W c #7ca6bc",
"`X c #3cbefc",
"`Y c #bceafc",
"`Z c #dcf6fc",
"`0 c #0476ac",
"`1 c #a4bac4",
"`2 c #5492b4",
"`3 c #0492dc",
"`4 c #8cd6fc",
"`5 c #0486cc",
"`6 c #2cb6fc",
"`7 c #348ebc",
"`8 c #ace2fc",
".` c #649ab4",
".. c #ecf6fc",
".# c #6ccafc",
".a c #049eec",
".b c #047ebc",
".c c #1caefc",
".d c #549ec4",
".e c #9cdafc",
".f c #3cbafc",
".g c #bce6fc",
".h c #249ad4",
".i c #dcf2fc",
".j c #fcfefc",
".k c #7cd2fc",
".l c #5cc6fc",
".m c #0caafc",
".n c #a4b6c4",
".o c #048edc",
".p c #2482b4",
".q c #84d6fc",
".r c #4cc2fc",
".s c #0482cc",
".t c #24b6fc",
".u c #a4e2fc",
".v c #cceefc",
".w c #047abc",
".x c #14aefc",
".y c #74aacc",
".z c #1486c4",
".A c #34bafc",
".B c #b4e6fc",
".C c #3486b4",
".D c #d4f2fc",
".E c #f4fefc",
".F c #74d2fc",
".G c #147eb4",
".H c #7caecc",
".I c #54c6fc",
".J c #048ad4",
".K c #74a2bc",
".L c #0ca6fc",
".M c #2486bc",
".N c #7caac4",
".O c #0476b4",
".P c #5496b4",
".Q c #3492c4",
".R c #649abc",
".S c #ecfafc",
".T c #6ccefc",
".U c #049ef4",
".V c #54a2c4",
".W c #9cdefc",
".X c #249adc",
".Y c #000000",
".Z c #000000",
".0 c #000000",
".1 c #000000",
".2 c #000000",
".3 c #000000",
".4 c #000000",
".5 c #000000",
".6 c #000000",
".7 c #000000",
".8 c #000000",
"#` c #000000",
"#. c #000000",
"## c #000000",
"#a c #000000",
"#b c #000000",
"#c c #000000",
"#d c #000000",
"#e c #000000",
"#f c #000000",
"#g c #000000",
"#h c #000000",
"#i c #000000",
"#j c #000000",
"#k c #000000",
"#l c #000000",
"#m c #000000",
"#n c #000000",
"#o c #000000",
"#p c #000000",
"#q c #000000",
"#r c #000000",
"#s c #000000",
"#t c #000000",
"#u c #000000",
"#v c #000000",
"#w c #000000",
"#x c #000000",
"#y c #000000",
"#z c #000000",
"#A c #000000",
"#B c #000000",
"#C c #000000",
"#D c #000000",
"#E c #000000",
"#F c #000000",
"#G c #000000",
"#H c #000000",
"#I c #000000",
"#J c #000000",
"#K c #000000",
"#L c #000000",
"#M c #000000",
"#N c #000000",
"#O c #000000",
"#P c #000000",
"#Q c #000000",
"#R c #000000",
"#S c #000000",
"#T c #000000",
"#U c #000000",
"#V c #000000",
"#W c #000000",
"#X c #000000",
"#Y c #000000",
"#Z c #000000",
"#0 c #000000",
"#1 c #000000",
"#2 c #000000",
"#3 c #000000",
"#4 c #000000",
"#5 c #000000",
"#6 c #000000",
"#7 c #000000",
"#8 c #000000",
"a` c #000000",
"a. c #000000",
"a# c #000000",
"aa c #000000",
"ab c #000000",
"ac c #000000",
"ad c #000000",
"ae c #000000",
"af c #000000",
"ag c #000000",
"ah c #000000",
"ai c #000000",
"aj c #000000",
"ak c #000000",
"al c #000000",
"am c #000000",
"an c #000000",
"ao c #000000",
"ap c #000000",
"aq c #000000",
"ar c #000000",
"as c #000000",
"at c #000000",
"au c #000000",
"av c #000000",
"aw c #000000",
"ax c #000000",
"ay c #000000",
"az c #000000",
"aA c #000000",
"aB c #000000",
"aC c #000000",
"aD c #000000",
"aE c #000000",
"aF c #000000",
"aG c #000000",
"aH c #000000",
"aI c #000000",
"aJ c #000000",
"aK c #000000",
"aL c #000000",
"aM c #000000",
"aN c #000000",
"aO c #000000",
"aP c #000000",
"aQ c #000000",
"aR c #000000",
"aS c #000000",
"aT c #000000",
"aU c #000000",
"aV c #000000",
"aW c #000000",
"aX c #000000",
"aY c #000000",
"aZ c #000000",
"a0 c #000000",
"a1 c #000000",
"a2 c #000000",
"a3 c #000000",
"a4 c #000000",
"a5 c #000000",
"a6 c #000000",
"a7 c #000000",
"a8 c #000000",
/* pixels */
"`d`d`d`d`d`d`d`d`d`d`d`d`d`d`d`d`d`d`d`d`d`d`d`d`d`d`d`d`d`d`d`d",
"`d`d`d`d`d`d`d`d`d`d`H`G.V.Q.z`L`L.z`7`P.N`H`d`d`d`d`d`d`d`d`d`d",
"`d`y`d`y`d`y`d`y`1`c`B`p.a`T`T.a`p`3`b`5`h`R.``.`y`d`y`d`y`d`y`d",
"`d`d`d`d`d`d`d`t.h`T`I`V`V`V.x`I.L`T`p`3`b`5`U`R.K`d`d`d`d`d`d`d",
"`d`y`d`y`d`H.V.a`I`6.A`X`g.f.A`i.x.m`T`p`J`b`5.b`q`2`H`d`y`d`y`d",
"`d`d`d`d`y`s`#`i`X`K`o.#.T`o.l`g.A`V.m`T`p`J.J`5`U.b`a`H`d`d`d`d",
"`d`y`d`y.``#`6`K.#`f`u.e.W`u`f.T`K`w`V.L`T`p`3.J`5.b`q`2`d`d`y`d",
"`d`d`d`t`T`i.r`E`S`8.g`l.v`l`8`u.#`K`6.x`#.U`J`b`L`h.w`q`M`d`d`d",
"`d`y`1.h.m.f.#`S`x.v`n....`Z`C`x`S`o`g`V.x`T`p`3.J`h.b`q`e`.`y`d",
"`d`d`c.a.t.r.k`k.v..`D.j`D`D`n.v`k.k`K`6.x`#.U`J`b`5`h.w`0`m`d`d",
"`d`H`j`I`w.l`4.B.i`D.j.j.j.E...D`x.q.l`w`V.m`#`p`Q.J`h`U.w.p`H`d",
"`d`G`J.x.A`o`u.g`n.E.j.j.j.j.S.i.g`4`o.f.t.x.L`T`J`b`5.b.w`0`W`d",
"`d.d`p.x.A`o`S.g.i`D.j.j.j`D.S`C.g`S.#`X`6`V.m`T`p`3.J`h.b`q`2`d",
"`d.Q`p.x.A.l`4`8`C.S`D.E`D`D`n.v`x`S.#.r.A`6.x`#.U`J.o`5`U`q.p`d",
"`d.z`p`I`i.r.k.e.B.D`n..`n`n`C.g.u`4`E.I.r`w`i.m`#`p`3`L`h.w`F`d",
"`d`h`J.m`V.f.l.q.W.B`l`C.v.v.g`8.W`u`f.k.#.I.A`V.L.U`3.J.s.b`0`d",
"`d.b`3`T`I`i`g.#.k`u`k.u`8.u`k.W.e.W`k.W`u.F`K`w.x`T`J`b`5.w.O`d",
"`d`v`b.U.L.x`6`g.l.T.k`f.q`4`4`4`k`8`l`l.g.W`E`g`V`#`p.o`5.b`F`d",
"`d`7`L`J.U.L.x.t`w`X.r.l.l`o.T`f.u`l.D`n.D.g`S.I`6.L`p.o`5.b.C`d",
"`d`P`h.o`J.a`#.x.c.t`w.A.f.r.l.k`k.v`n.j`n`l`u.l`6.L.a.o`5.w`2`d",
"`d.N.b`L`3`J.U`T.m.x`V`i`6.A.r`E.e.g`C`n`C.g`4.l`6`#`p`b`h.w`W`d",
"`d`H.p`h.J`3`J.U.U`#.m.x`V`6.f.l.q`k`Y`l.g`k.F`g.c`T`J.J`h.p`H`d",
"`d`d.``U`h.J.o`3`J.U`T.m.m.x.t.f.l.k`S.e`S`E`K`6.m.U`Q`5`U.``d`d",
"`d`d`1.p.b`h`5.J`3`Q`p.U`T.L.m`i.A.r.l`o.l`g`6`r`T`p`b`h`R`.`d`d",
"`d`y`d`M.w.b`h.s`5.J`3`J`p.a`#.m.x`i`6`w`6`V.m`T`p.o`5.w`M`d`y`d",
"`d`d`d`d`2.w.b`U`h`5`L`b`3`J`p`T`T.L.m.m.L`T`T`p`3`L.b.P`d`d`d`d",
"`d`d`d`d`H`a`q.w.b`U`h`5.J.o`3`J`p.U.U.a`p`J`J`b`5`U`a`H`d`y`d`y",
"`d`y`d`d`d`H.P.O`q.w.b`U`h`5.J`b.o`b`3.o.o.J`5`h.w.P`H`d`d`d`d`d",
"`d`d`y`d`d`d`d`M`e.O.w.b.w`U`h`5`5`5.J`5`5`h.b.p.K`d`d`d`y`d`y`d",
"`d`d`d`d`d`y`d`d`.`m`e.O`q.w.w.w.b`U.b.w`q`v.`.n`d`y`d`d`d`d`d`d",
"`d`y`d`y`d`d`y`d`d`y`H.N.P`A`F```0`F.C.P`W`y`y`d`d`d`y`d`y`d`y`d",
"`d`d`d`d`d`d`d`d`d`d`d`d`y`d`d`d`d`d`d`y`d`d`d`d`y`d`d`d`d`d`d`d"
};
