/* XPM */
static char *arrow_xpm[] = {
/* width height num_colors chars_per_pixel */
"    32    32      256            2",
/* colors */
"`` c #040204",
"`. c #7c1e44",
"`# c #540234",
"`a c #0c1a14",
"`b c #240214",
"`c c #d4327c",
"`d c #040e04",
"`e c #7c465c",
"`f c #140204",
"`g c #9c2a54",
"`h c #6c2644",
"`i c #240e14",
"`j c #14120c",
"`k c #9c365c",
"`l c #9c3e64",
"`m c #040a04",
"`n c #6c0234",
"`o c #34021c",
"`p c #140a0c",
"`q c #0c0204",
"`r c #842e54",
"`s c #3c2a34",
"`t c #ac4e7c",
"`u c #44122c",
"`v c #1c1a14",
"`w c #240a14",
"`x c #04160c",
"`y c #140214",
"`z c #ac366c",
"`A c #bc4a7c",
"`B c #743e5c",
"`C c #14160c",
"`D c #ac3e64",
"`E c #541634",
"`F c #2c0214",
"`G c #0c0e0c",
"`H c #ac2e5c",
"`I c #642e44",
"`J c #7c264c",
"`K c #141a14",
"`L c #a4366c",
"`M c #0c0214",
"`N c #742e4c",
"`O c #040214",
"`P c #bc3e6c",
"`Q c #040e14",
"`R c #944264",
"`S c #1c0204",
"`T c #1c0e14",
"`U c #6c163c",
"`V c #340a2c",
"`W c #7c3654",
"`X c #1c0214",
"`Y c #b4467c",
"`Z c #2c0624",
"`0 c #ac326c",
"`1 c #040604",
"`2 c #041204",
"`3 c #a4365c",
"`4 c #0c0a04",
"`5 c #0c0604",
"`6 c #4c1a34",
"`7 c #241a1c",
"`8 c #b4366c",
".` c #541e44",
".. c #2c0614",
".# c #141e14",
".a c #6c1e3c",
".b c #8c1e44",
".c c #14060c",
".d c #341224",
".e c #140e1c",
".f c #9c3a64",
".g c #9c4674",
".h c #3c021c",
".i c #1c0a14",
".j c #8c2e5c",
".k c #ac5a84",
".l c #1c1e1c",
".m c #2c0a1c",
".n c #0c1614",
".o c #140614",
".p c #e4528c",
".q c #1c1614",
".r c #b4427c",
".s c #5c1634",
".t c #ac2a6c",
".u c #6c2e4c",
".v c #8c264c",
".w c #743254",
".x c #c43e74",
".y c #8c4e6c",
".z c #741a44",
".A c #04020c",
".B c #841a4c",
".C c #440e34",
".D c #0c1e1c",
".E c #24061c",
".F c #d43a74",
".G c #040e0c",
".H c #7c4a64",
".I c #14020c",
".J c #9c3264",
".K c #2c0e24",
".L c #141214",
".M c #9c3664",
".N c #040a0c",
".O c #0c020c",
".P c #b44e7c",
".Q c #4c1634",
".R c #1c1a1c",
".S c #240a1c",
".T c #04161c",
".U c #14021c",
".V c #ac3674",
".W c #141614",
".X c #ac3e6c",
".Y c #541a34",
".Z c #2c021c",
".0 c #0c120c",
".1 c #64324c",
".2 c #141a1c",
".3 c #a43a74",
".4 c #0c0614",
".5 c #742e54",
".6 c #bc4274",
".7 c #944664",
".8 c #1c020c",
"#` c #1c1214",
"#. c #8c3a64",
"## c #3c0a1c",
"#a c #a44a6c",
"#b c #b42e74",
"#c c #942a54",
"#d c #6c1a4c",
"#e c #ec4e8c",
"#f c #b4326c",
"#g c #1c061c",
"#h c #b44a84",
"#i c #8c3254",
"#j c #4c1e34",
"#k c #b43a6c",
"#l c #04060c",
"#m c #04120c",
"#n c #0c0a0c",
"#o c #0c060c",
"#p c #2c061c",
"#q c #141e1c",
"#r c #3c0224",
"#s c #1c0a1c",
"#t c #000000",
"#u c #000000",
"#v c #000000",
"#w c #000000",
"#x c #000000",
"#y c #000000",
"#z c #000000",
"#A c #000000",
"#B c #000000",
"#C c #000000",
"#D c #000000",
"#E c #000000",
"#F c #000000",
"#G c #000000",
"#H c #000000",
"#I c #000000",
"#J c #000000",
"#K c #000000",
"#L c #000000",
"#M c #000000",
"#N c #000000",
"#O c #000000",
"#P c #000000",
"#Q c #000000",
"#R c #000000",
"#S c #000000",
"#T c #000000",
"#U c #000000",
"#V c #000000",
"#W c #000000",
"#X c #000000",
"#Y c #000000",
"#Z c #000000",
"#0 c #000000",
"#1 c #000000",
"#2 c #000000",
"#3 c #000000",
"#4 c #000000",
"#5 c #000000",
"#6 c #000000",
"#7 c #000000",
"#8 c #000000",
"a` c #000000",
"a. c #000000",
"a# c #000000",
"aa c #000000",
"ab c #000000",
"ac c #000000",
"ad c #000000",
"ae c #000000",
"af c #000000",
"ag c #000000",
"ah c #000000",
"ai c #000000",
"aj c #000000",
"ak c #000000",
"al c #000000",
"am c #000000",
"an c #000000",
"ao c #000000",
"ap c #000000",
"aq c #000000",
"ar c #000000",
"as c #000000",
"at c #000000",
"au c #000000",
"av c #000000",
"aw c #000000",
"ax c #000000",
"ay c #000000",
"az c #000000",
"aA c #000000",
"aB c #000000",
"aC c #000000",
"aD c #000000",
"aE c #000000",
"aF c #000000",
"aG c #000000",
"aH c #000000",
"aI c #000000",
"aJ c #000000",
"aK c #000000",
"aL c #000000",
"aM c #000000",
"aN c #000000",
"aO c #000000",
"aP c #000000",
"aQ c #000000",
"aR c #000000",
"aS c #000000",
"aT c #000000",
"aU c #000000",
"aV c #000000",
"aW c #000000",
"aX c #000000",
"aY c #000000",
"aZ c #000000",
"a0 c #000000",
"a1 c #000000",
"a2 c #000000",
"a3 c #000000",
"a4 c #000000",
"a5 c #000000",
"a6 c #000000",
"a7 c #000000",
"a8 c #000000",
/* pixels */
".W.R.W.W.l.q.2.D`C.W.W`C`C`j`C.q.W.W.W.W.W.W.W.W.#.q.q.W.0.n`K`a",
"``````````````.N`````1`1`1`1`````````````````````m```````m`1````",
"`1`````````4#o````````.A.A.A.A.A`````````````````````1`````````q",
"`1`1```````1```b.K.S#g#s#g#g.S.E#p#p#p#p#p#p#p#p..`q`1`1```````q",
"```````q```1.c`B.x`8#f`8`z`z`8`0`L`L`L`L`L`L`L`L.k.d```1`````m``",
"```m`1`q```1`f.7.e.A.A#l.A#l#l.A.A.A.A.A.A.A.A.A`Y.Z``#n`5`m.G``",
"```1```q```2`f`k.S.I`q.O```q.O`q````````````````.t`o#l```q```m.O",
"`5`1`1`f```d`S`3`T`q```1`````1``````````````````#b`V.N```f`1``.I",
".A`````1`1````.J`i`q```1```````1````````````````.V`Z````````````",
".A`````1`1````.J`i`q```1```````1````````````````.V`Z````````````",
".A`````1`1````.J`i`q```1```````1````````````````.V`Z````````````",
".A`````1`1````.J`i`q```1```````1````````````````.V`Z````````````",
".A`````1`1````.J`i`q```1```````1````````````````.V`Z````````````",
".A`````1`1````.J`i`q```1```````1````````````````.V`Z````````````",
".A`````1`1````.J`i`q```1```````1````````````````.V`Z````````````",
".A`````1`1````.J`i`q```1```````1````````````````.V`Z````````````",
"``.I`q`1`m#n`b#..q`1`````1`````````1```1`m`1````.3#r.O`m`m`q`q.A",
".O`m.N`q`````X.H.q`````5`1`````````1```````````5.g.h.O```q.G`x``",
"```g#e#f`z`A.6.p#o#o#o`q````.N```1`1`````5`5````.6`t.P.M#k.F.b`1",
"`m.o`z`c#d#g`X.I``#l`````p```````````````````1`Q``#s.U`#`c.X`7`d",
"``.I`M.C#h.w.4`q#l.N`1```1```1`````1`1```1#l#l#l#o.A.5.r.``y`f``",
".G`m.T#l.A.z.6`h.I``.A#n````#n`````1````.N.A``.o`E`H.j.S.A#o`5`q",
"`f`w````.i`q`F#c.y`6.8``#l```````5````#l`q.8`u.u`z.Q`f`f`G`1```G",
"`1`1```1`m`1``.N`n`R`e.S```1`````````m``.I`I`R.B`O.A`1`m`1`4.N#l",
"````````````````.G.8`.`D.a.8````.G#l.I.s`P`g`F``````````````````",
"`````````````````q.N``.m`r.f.Y.O.I##.v`l`s```q.c````````````````",
"````````````````#m`````q.I#j`W`J`U#a.1`q``.G`d``````````````````",
"```````````````````T.I``.N```b`N#i`b``.G`1`q`f`1````````````````",
"`````````````````S`q```m#l`q`q``#o``.O```````f`f````````````````",
"`````````````````1`1`````````````m#o`q```q```m`q````````````````",
"```````````````````1`1`1`5````.N#n`1```f`1`1`4`1````````````````",
".W.W.W.W.W.W.W.W`j.q`v.q.W`a#q.2#`.q`K#m`K.L`G`v.W.W.W.W.W.W.W.W"
};
