/* XPM */
static char *bendedDoubleArrow_xpm[] = {
/* width height num_colors chars_per_pixel */
"    32    32      256            2",
/* colors */
"`` c #040204",
"`. c #94164c",
"`# c #4c021c",
"`a c #042214",
"`b c #240204",
"`c c #945a7c",
"`d c #041204",
"`e c #c42664",
"`f c #4c223c",
"`g c #140204",
"`h c #94365c",
"`i c #64022c",
"`j c #241214",
"`k c #ac3664",
"`l c #44122c",
"`m c #040a04",
"`n c #cc5684",
"`o c #14121c",
"`p c #c43e74",
"`q c #140a0c",
"`r c #340214",
"`s c #8c4664",
"`t c #e43a7c",
"`u c #ac225c",
"`v c #242224",
"`w c #fc6eb4",
"`x c #6c224c",
"`y c #1c021c",
"`z c #a44284",
"`A c #341224",
"`B c #b4466c",
"`C c #54123c",
"`D c #040a14",
"`E c #540224",
"`F c #041a14",
"`G c #943e64",
"`H c #c44a7c",
"`I c #340a14",
"`J c #0c0204",
"`K c #043e24",
"`L c #641a3c",
"`M c #1c221c",
"`N c #1c0204",
"`O c #ec528c",
"`P c #942e54",
"`Q c #041214",
"`R c #a4366c",
"`S c #0c0a04",
"`T c #141a0c",
"`U c #7c324c",
"`V c #240e1c",
"`W c #b4527c",
"`X c #9c365c",
"`Y c #241a1c",
"`Z c #1c0a0c",
"`0 c #141a24",
"`1 c #440a24",
"`2 c #0c2a24",
"`3 c #ac3e64",
"`4 c #441a3c",
"`5 c #a42e5c",
"`6 c #6c2a44",
"`7 c #bc467c",
"`8 c #541a3c",
".` c #dc4e8c",
".. c #340e1c",
".# c #040214",
".a c #842244",
".b c #2c0214",
".c c #0c120c",
".d c #140214",
".e c #7c0a34",
".f c #dc528c",
".g c #d44274",
".h c #3c062c",
".i c #fc86c4",
".j c #341e24",
".k c #5c0a34",
".l c #cc4a84",
".m c #0c0214",
".n c #7c1644",
".o c #b45a84",
".p c #1c1e1c",
".q c #040604",
".r c #0c2a1c",
".s c #240214",
".t c #041604",
".u c #c42e6c",
".v c #5c223c",
".w c #943a6c",
".x c #640e2c",
".y c #040e04",
".z c #cc4284",
".A c #3c021c",
".B c #ec469c",
".C c #342224",
".D c #fc6ecc",
".E c #0c0a14",
".F c #0c0604",
".G c #6c1e3c",
".H c #1c0214",
".I c #fc66ac",
".J c #0c0e04",
".K c #2c1e2c",
".L c #1c0a1c",
".M c #4c0a24",
".N c #bc4274",
".O c #bc2e6c",
".P c #742e5c",
".Q c #5c1e34",
".R c #3c0a1c",
".S c #941e5c",
".T c #0c260c",
".U c #24060c",
".V c #14060c",
".W c #943a64",
".X c #241614",
".Y c #441634",
".Z c #cc5e8c",
".0 c #c44274",
".1 c #140e1c",
".2 c #944e74",
".3 c #fc72bc",
".4 c #1c061c",
".5 c #3c161c",
".6 c #ac4e74",
".7 c #040e14",
".8 c #540234",
"#` c #0c1a14",
"#. c #fc5a9c",
"## c #f4468c",
"#a c #4c2e44",
"#b c #f452ac",
"#c c #7c2644",
"#d c #a43e6c",
"#e c #a4567c",
"#f c #e44e8c",
"#g c #e45a94",
"#h c #ac2a6c",
"#i c #7c3a5c",
"#j c #342a34",
"#k c #942e6c",
"#l c #b43e6c",
"#m c #4c1a2c",
"#n c #bc4e7c",
"#o c #8c467c",
"#p c #cc226c",
"#q c #6c0634",
"#r c #d4528c",
"#s c #3c0e0c",
"#t c #0c161c",
"#u c #bc5684",
"#v c #ac3264",
"#w c #3c1a2c",
"#x c #642644",
"#y c #9c4264",
"#z c #bc5a84",
"#A c #2c0e24",
"#B c #742a44",
"#C c #2c2224",
"#D c #b4467c",
"#E c #842254",
"#F c #cc2e6c",
"#G c #6c0e2c",
"#H c #0c261c",
"#I c #140e14",
"#J c #34061c",
"#K c #541634",
"#L c #54062c",
"#M c #641e3c",
"#N c #1c261c",
"#O c #141e14",
"#P c #9c3a64",
"#Q c #241e1c",
"#R c #1c0e14",
"#S c #141e1c",
"#T c #a43264",
"#U c #bc4a84",
"#V c #541e34",
"#W c #cc4e7c",
"#X c #4c0e24",
"#Y c #3c0e24",
"#Z c #943264",
"#0 c #b44274",
"#1 c #4c1e34",
"#2 c #ac3a64",
"#3 c #c44e7c",
"#4 c #041614",
"#5 c #140614",
"#6 c #5c0e34",
"#7 c #3c061c",
"#8 c #1c0614",
"a` c #0c1e14",
"a. c #bc5e84",
"a# c #04020c",
"aa c #4c0224",
"ab c #24020c",
"ac c #04120c",
"ad c #14020c",
"ae c #943664",
"af c #441234",
"ag c #040a0c",
"ah c #fc6ebc",
"ai c #1c0224",
"aj c #040a1c",
"ak c #0c020c",
"al c #1c2224",
"am c #1c020c",
"an c #0c0a0c",
"ao c #9c3664",
"ap c #1c0a14",
"aq c #0c2a2c",
"ar c #6c2a4c",
"as c #340e24",
"at c #84224c",
"au c #1c1e24",
"av c #04060c",
"aw c #04160c",
"ax c #040e0c",
"ay c #0c060c",
"az c #0c0e0c",
"aA c #4c0a2c",
"aB c #24161c",
"aC c #c4427c",
"aD c #3c1624",
"aE c #641e44",
"aF c #241e24",
"aG c #141e24",
"aH c #541e3c",
"aI c #cc4e84",
"aJ c #000000",
"aK c #000000",
"aL c #000000",
"aM c #000000",
"aN c #000000",
"aO c #000000",
"aP c #000000",
"aQ c #000000",
"aR c #000000",
"aS c #000000",
"aT c #000000",
"aU c #000000",
"aV c #000000",
"aW c #000000",
"aX c #000000",
"aY c #000000",
"aZ c #000000",
"a0 c #000000",
"a1 c #000000",
"a2 c #000000",
"a3 c #000000",
"a4 c #000000",
"a5 c #000000",
"a6 c #000000",
"a7 c #000000",
"a8 c #000000",
/* pixels */
".p.p.p.p.p.p.p.p.p.p.p.p.p.p.p.paF#`#C`j`a`Kaw.j`vau.C`v`Yal`0aq",
"````````````````````````````````.q````..#G.baxad.q`J```man`ma#``",
"````````````````````````````````.q`m.q```L`w#h.#.qaz`g``````.q`J",
".q.q.q.q.q.q.q.q.q.q.q.q.q.q.q.q`g``adad.d.8.3#b`#``.y`J`J.q.J`g",
"`````````````````````````````````````m.E.s`4`z.D`O`U#Saxag`q`g``",
"`````````````````````````````````J.q`Q.L#n.z.Pai`y`.#FaA.7````ax",
"````````````````````````````````akav#V`B.vad.Ha#.m.Sah.I`xad#t.q",
"`````````````````````````````````D#l.g.R.qagam`s.B#o`y#k.i.nad.7",
"`````````````````g.y.q``ap.qak.A#W#cak#4a#aE#g.O#J``#4``#Ba..Q``",
"```````````````````J.q`J.q``aH#z.xadakam.6#3`lad`g.qac``ab#Xabav",
"`````````````````d`N`N`m.V#1#laa`D.H`8aI.e`J``.y```m`m`m`J`J``.q",
"````````````````.F`J.V``#j`t`radaj.h.u#Lav`m.y`g.q.q``.q`m.q`m``",
"``````````````````.q`J.A`k`fabag.k#Dasak.q.y`b`````J`g`J``.q.q`J",
"````````````````````#S`e#qag#4`AaC#Aa#ag#I`g.q`g.F`Jad`J.qag```J",
"````````````````ad`Q.0#K#wa#aG`H.Uam.q.V`J`m`J```J``.q````.F```J",
"````````````````a#`5`Gakag#w.``iaw``.F``.q#5``ax```m`d.y.q``````",
"```m`g.q`Jaw```g`P#2``ag.A`p#x`Q````````````````````````````````",
"`g```Jaw.q.yadaD#l#I.s`g#y`6`J.E````````````````````````````````",
"```V.aam``.q.s#u#7ay```3#Mav.da#````````````````````````````````",
"av.Y#.#u`E.b`catagad`U`X.Vad.qay````````````````````````````````",
".H#a`u#6#0.N#i.dax`1`namam`J````````````````````````````````````",
".H.L#Ua##Y.Gada#ad`W#mad`gac`q.F````````````````````````````````",
"ag.m#f`oag`Jac.V#v#iad`Jaw`N.t`g````````````````````````````````",
"`D.d###R```N.q.q#par.Eax.q.y`N.y````````````````````````````````",
"``ag#eafav.q.q`N.m.2aoaa`J`F.q`g````````````````````````````````",
"ab`g`R#E.4#8````.m.b#da..b``.p``````````````````````````````````",
"``av.W#Z.Had.1#t#T.Z.o.v.Vax.y.q````````````````````````````````",
"`N.V`Lae`C.w.l#r`h.Mad```````J`g````````````````````````````````",
"`d`J`E.f`7#P#L.H`gak.q``.Vam`J.q.q.q.q.q.q.q.q.q.q.q.q.q.q.q.q.q",
"`m`m.q`Va#avadax`J``.q`m.q``.q``````````````````````````````````",
"`N`Z``ad``.c`b`m`m`m`m`m.y`S`g`b````````````````````````````````",
"#Qa``2.K`M`T#s.T#N.X`I.5aB#O#H.r.p.p.p.p.p.p.p.p.p.p.p.p.p.p.p.p"
};
