/* XPM */
static char *circle_xpm[] = {
/* width height num_colors chars_per_pixel */
"    32    32      256            2",
/* colors */
"`` c #040204",
"`. c #841e44",
"`# c #44021c",
"`a c #042214",
"`b c #240204",
"`c c #94466c",
"`d c #041204",
"`e c #cc467c",
"`f c #140204",
"`g c #241214",
"`h c #cc1e64",
"`i c #e45e94",
"`j c #843254",
"`k c #5c2a44",
"`l c #f44684",
"`m c #24221c",
"`n c #141214",
"`o c #340214",
"`p c #040a04",
"`q c #740e34",
"`r c #140a0c",
"`s c #a43264",
"`t c #341214",
"`u c #043a1c",
"`v c #ec5294",
"`w c #44162c",
"`x c #142214",
"`y c #240a0c",
"`z c #140214",
"`A c #141a14",
"`B c #0c0204",
"`C c #a41e54",
"`D c #041a04",
"`E c #dc4a84",
"`F c #040a14",
"`G c #b4467c",
"`H c #241e14",
"`I c #844264",
"`J c #142a24",
"`K c #240214",
"`L c #0c1624",
"`M c #f44e94",
"`N c #a43e6c",
"`O c #8c2a54",
"`P c #0c120c",
"`Q c #c43a74",
"`R c #242a24",
"`S c #340a1c",
"`T c #34162c",
"`U c #541234",
"`V c #5c0a34",
"`W c #943254",
"`X c #64465c",
"`Y c #fc529c",
"`Z c #14222c",
"`0 c #1c0214",
"`1 c #141a2c",
"`2 c #440e1c",
"`3 c #fc4694",
"`4 c #342224",
"`5 c #0c0a04",
"`6 c #1c0a0c",
"`7 c #2c0214",
"`8 c #f4428c",
".` c #040214",
".. c #041214",
".# c #cc4e84",
".a c #1c0204",
".b c #fc5e9c",
".c c #742e4c",
".d c #141624",
".e c #641e44",
".f c #4c1e24",
".g c #240e1c",
".h c #0c0214",
".i c #e44a8c",
".j c #bc5684",
".k c #2c1a2c",
".l c #9c2e5c",
".m c #d43e7c",
".n c #9c3a5c",
".o c #042e14",
".p c #a45274",
".q c #2c1624",
".r c #b4326c",
".s c #f45a9c",
".t c #1c2224",
".u c #1c1a14",
".v c #0c0a14",
".w c #b43e6c",
".x c #942e54",
".y c #c44274",
".z c #3c0e34",
".A c #3c1e2c",
".B c #7c1e44",
".C c #040604",
".D c #0c222c",
".E c #041604",
".F c #d44684",
".G c #140604",
".H c #fc468c",
".I c #1c121c",
".J c #3c0214",
".K c #040e04",
".L c #140a1c",
".M c #3c1624",
".N c #f45294",
".O c #4c1234",
".P c #140614",
".Q c #0c0604",
".R c #c44a7c",
".S c #2c1a24",
".T c #3c0a24",
".U c #9c325c",
".V c #1c0614",
".W c #4c0a24",
".X c #342234",
".Y c #2c0614",
".Z c #7c325c",
".0 c #2c0a24",
".1 c #9c2254",
".2 c #4c0224",
".3 c #0c221c",
".4 c #2c020c",
".5 c #9c4664",
".6 c #2c121c",
".7 c #dc6e9c",
".8 c #f44a8c",
"#` c #2c2228",
"#. c #ac2e6c",
"## c #9c3e6c",
"#a c #cc2a6c",
"#b c #744a64",
"#c c #ec6aa4",
"#d c #bc2a64",
"#e c #bc4e84",
"#f c #5c1a3c",
"#g c #fc5aa4",
"#h c #a45a7c",
"#i c #b43a6c",
"#j c #4c1e3c",
"#k c #8c365c",
"#l c #1c2a24",
"#m c #ac3e6c",
"#n c #1c262c",
"#o c #1c1a24",
"#p c #6c1e3c",
"#q c #8c1a44",
"#r c #142624",
"#s c #bc4a7c",
"#t c #241a24",
"#u c #3c122c",
"#v c #5c1634",
"#w c #1c0a1c",
"#x c #fc4e90",
"#y c #1c162c",
"#z c #bc3e74",
"#A c #cc427c",
"#B c #642a44",
"#C c #341224",
"#D c #44163c",
"#E c #cc3a74",
"#F c #440e2c",
"#G c #c45684",
"#H c #9c3a6c",
"#I c #3c1e3c",
"#J c #04261c",
"#K c #14161c",
"#L c #140e10",
"#M c #141e1c",
"#N c #041e0c",
"#O c #dc4e88",
"#P c #240614",
"#Q c #8c2e5c",
"#R c #0c1614",
"#S c #340e24",
"#T c #94365c",
"#U c #142634",
"#V c #141e24",
"#W c #fc4a97",
"#X c #0c0e0c",
"#Y c #fc62a4",
"#Z c #743254",
"#0 c #e44e8c",
"#1 c #b43664",
"#2 c #1c261c",
"#3 c #1c1e1c",
"#4 c #0c0e14",
"#5 c #7c224c",
"#6 c #d44a7c",
"#7 c #3c061c",
"#8 c #f45697",
"a` c #2c1e1c",
"a. c #3c0e1c",
"a# c #4c0e2c",
"aa c #34263c",
"ab c #2c0e21",
"ac c #1c2e2c",
"ad c #ac4274",
"ae c #6c2244",
"af c #944a6c",
"ag c #cc4a7c",
"ah c #043e1c",
"ai c #040e14",
"aj c #242e24",
"ak c #fc569c",
"al c #040614",
"am c #041614",
"an c #cc5284",
"ao c #0c0614",
"ap c #4c0624",
"aq c #9c426c",
"ar c #1c0e1c",
"as c #04020c",
"at c #24020c",
"au c #04120c",
"av c #14020c",
"aw c #24121c",
"ax c #f4468c",
"ay c #14121c",
"az c #040a0c",
"aA c #a4326c",
"aB c #34121c",
"aC c #441634",
"aD c #14221c",
"aE c #240a14",
"aF c #14021c",
"aG c #141a1c",
"aH c #0c020c",
"aI c #24021c",
"aJ c #8c2a5c",
"aK c #0c1214",
"aL c #94325c",
"aM c #1c021c",
"aN c #0c0a0c",
"aO c #2c021c",
"aP c #1c020c",
"aQ c #fc5ea4",
"aR c #742e54",
"aS c #e44a94",
"aT c #2c1a34",
"aU c #2c162c",
"aV c #0c0a1c",
"aW c #942e5c",
"aX c #c4427c",
"aY c #3c1e34",
"aZ c #04060c",
"a0 c #04160c",
"a1 c #14060c",
"a2 c #3c021c",
"a3 c #040e0c",
"a4 c #14061c",
"a5 c #0c060c",
"a6 c #1c061c",
"a7 c #34223c",
"a8 c #2c061c",
/* pixels */
".oa``2aB#r#J#l#`#3#taw#waraT#I.z.kaaaa#yaV.d#U.D`H#2aD#M.t.3aj`t",
".C`B``au`P````.CaHaz...Xaq#8`Y`8#0.i.N.s#z`V`0ao`p`B`f``aN``.C.C",
"`b```a.C`p#Ra1av`KaJ`Max.1`#aP.VaI#SaOa2`O`i.N`h`o#4.CaP``a3``.K",
"`f`p```B`P`pav#q#W#.#uaZ````.CauaHasazamaz```T#b.7`w``.C``.QaN.C",
".C`r`B.Q`B`K.p#s`Z`Fasasaz`p```B.CazaZ````a5a5``#u#A.pa0a3at``.C",
"`p`f#L```7.w#1aPaZ``aHaH````.C.C.a`B`B``````````aZ`#`CafaK```6`p",
"`p```BaH`c.w`Ka3`B`````B`BaH`B``.C`p`p`p.K`p```BaHam.2`e.T#X`B.C",
"``.KaHaW#H.La3a3.C.C````.C``asaH`p`p`B`f`f````a0.GaHaZ#j#G.J`p`B",
"az``apag.6```d.a``````````````````````````````````.C``aH`X#a.has",
"``aZ.U`jat`B`d`f``````````````````````````````````.C````aY.ma6as",
"``.I#O.S`fa5.K`B````````````````````````````````.Q.C````av.RaC.`",
".v.e#iaZ`B`B``````````````````````````````````````````aZ`B#T.Zas",
"`FaX#f``az`B``.C``````````````````````````````````.C.C``a5.O.j.h",
"as.ba8``az````.C`````````````````````````````````B`pa5``#4`0#c`z",
"`0#8`KaZ`````````````````````````````````````````B`p````aZaHaQ`0",
"#u.y#7a0`f``.C`B`````````````````````````````````B`p``az``ay#x`0",
"a##6.Jamav.C.C`f````````````````````````````````asaH.K.K`Ba1`3aM",
"`K#8.Y.C.C``````````````````````````````````````aZaH`p`p.C#7`vaF",
"asakab```p```B.C````````````````````````````````aZaH.C.C`p`q#e.h",
"al#E#v``az`B``.C````````````````````````````````.C`Ba5.C.C#d#Z.`",
"aoae.r.CaH`B``.C```````````````````````````````````Ba1``.P#0abas",
"aH.q`Earav`B.K`f````````````````````````````````````aHas`Uanasas",
"``.v.l.caP``.E`f``````````````````````````````````.Casa4aAaR````",
"aZas.W.#.V.C`D.a``````````````````````````````````.CasaUaS`KaZ``",
"``auaP`W.naPa3az`f`B````.C```B.a`K`z``aZ```B`B`fa5``aI##.Bav.C`f",
".C``.CaP.p#Tatam.K`p.C```B`B.C`da3aZ``aN.Q``.Ca3```o#m`IaH`B#L``",
"a0.C.Cazat.U#kav````````````.C`5``#X.Q````aNa5``.0`N`..g`p.C``.K",
"`p````aZ#4`K#h.5.CaHaPaPav`B`Bav`b`f```r#PaP.h#Vad`Iav```p`p````",
"`B`n```B.C.CaP.x#x.lab.CaZai..a0#N.K``az``.0`s#g#QaHa3`p````.C.a",
".4```J```Baza5at#FaL#O.F#5`Kav`S`7aE#C#p`Q#Y`GaOavaHaz`p#X```B`b",
".C````aN``.C```paHaZ#K`k#z.8.H`lax#W#W`e#B.IaZ``.C.Q````.C`B`y.C",
"ah`m.f`g`a`J`R.u#V#o.d.d#V#n#`.A#Da7`1`L#o#KaGac`4`Aac#K.Ma.`x`u"
};
