/* XPM */
static char *cross_xpm[] = {
/* width height num_colors chars_per_pixel */
"    32    32      256            2",
/* colors */
"`` c #040204",
"`. c #8c063c",
"`# c #440224",
"`a c #7c3a54",
"`b c #240204",
"`c c #0c1614",
"`d c #7c2a4c",
"`e c #c43e6c",
"`f c #a42254",
"`g c #040e04",
"`h c #140204",
"`i c #642244",
"`j c #942654",
"`k c #9c3a5c",
"`l c #2c122c",
"`m c #ec6aa4",
"`n c #04220c",
"`o c #d4528c",
"`p c #6c324c",
"`q c #040a04",
"`r c #340614",
"`s c #c42664",
"`t c #943254",
"`u c #14161c",
"`v c #c44a7c",
"`w c #642e44",
"`x c #ac3a6c",
"`y c #a42e5c",
"`z c #140a0c",
"`A c #14121c",
"`B c #0c0e04",
"`C c #0c0204",
"`D c #8c3e5c",
"`E c #2c021c",
"`F c #842e4c",
"`G c #cc426c",
"`H c #a44264",
"`I c #b42e5c",
"`J c #640234",
"`K c #041a1c",
"`L c #1c0204",
"`M c #942e54",
"`N c #9c325c",
"`O c #bc4674",
"`P c #040e14",
"`Q c #742244",
"`R c #0c0a04",
"`S c #340a1c",
"`T c #1c1e24",
"`U c #742a44",
"`V c #a4365c",
"`W c #a43a64",
"`X c #1c1624",
"`Y c #8c4664",
"`Z c #040604",
"`0 c #4c0e24",
"`1 c #240a14",
"`2 c #041e04",
"`3 c #8c2654",
"`4 c #041204",
"`5 c #140214",
"`6 c #6c2244",
"`7 c #9c2a54",
"`8 c #241e2c",
".` c #e44e8c",
".. c #cc5284",
".# c #6c2a44",
".a c #ac426c",
".b c #ac2e64",
".c c #1c0a0c",
".d c #0c0604",
".e c #943a5c",
".f c #2c0a24",
".g c #8c2e4c",
".h c #9c365c",
".i c #3c0e24",
".j c #8c163c",
".k c #843a54",
".l c #2c0204",
".m c #c44274",
".n c #a42a54",
".o c #14060c",
".p c #942a54",
".q c #9c3a6c",
".r c #042624",
".s c #6c3e54",
".t c #040a14",
".u c #bc326c",
".v c #94365c",
".w c #cc4e7c",
".x c #b43a6c",
".y c #a4325c",
".z c #0c0e14",
".A c #a44274",
".B c #6c1a44",
".C c #0c1e24",
".D c #1c0214",
".E c #9c2e5c",
".F c #c44674",
".G c #0c0a14",
".H c #340e1c",
".I c #1c1a1c",
".J c #8c2a4c",
".K c #e45284",
".L c #6c2e4c",
".M c #943e64",
".N c #8c3254",
".O c #04020c",
".P c #5c022c",
".Q c #0c1a14",
".R c #c43e74",
".S c #040e0c",
".T c #14020c",
".U c #642644",
".V c #9c3e64",
".W c #34122c",
".X c #743654",
".Y c #040a0c",
".Z c #3c0224",
".0 c #94325c",
".1 c #141a24",
".2 c #c44e7c",
".3 c #ac3e6c",
".4 c #140a14",
".5 c #0c020c",
".6 c #2c061c",
".7 c #cc467c",
".8 c #b42e6c",
"#` c #0c161c",
"#. c #a41e4c",
"## c #ac366c",
"#a c #0c1e14",
"#b c #ac2a64",
"#c c #4c1234",
"#d c #2c1a2c",
"#e c #0c2224",
"#f c #1c0a1c",
"#g c #2c0214",
"#h c #741a44",
"#i c #74264c",
"#j c #742e4c",
"#k c #a43e6c",
"#l c #2c0e2c",
"#m c #bc3664",
"#n c #041214",
"#o c #6c2644",
"#p c #0c1214",
"#q c #a44674",
"#r c #1c020c",
"#s c #942e5c",
"#t c #9c3264",
"#u c #0c0a0c",
"#v c #04060c",
"#w c #04120c",
"#x c #6c2a4c",
"#y c #0c060c",
"#z c #943a64",
"#A c #8c2e54",
"#B c #9c3664",
"#C c #843a5c",
"#D c #942a5c",
"#E c #a43264",
"#F c #c4467c",
"#G c #340e24",
"#H c #1c1a24",
"#I c #8c2a54",
"#J c #e4528c",
"#K c #000000",
"#L c #000000",
"#M c #000000",
"#N c #000000",
"#O c #000000",
"#P c #000000",
"#Q c #000000",
"#R c #000000",
"#S c #000000",
"#T c #000000",
"#U c #000000",
"#V c #000000",
"#W c #000000",
"#X c #000000",
"#Y c #000000",
"#Z c #000000",
"#0 c #000000",
"#1 c #000000",
"#2 c #000000",
"#3 c #000000",
"#4 c #000000",
"#5 c #000000",
"#6 c #000000",
"#7 c #000000",
"#8 c #000000",
"a` c #000000",
"a. c #000000",
"a# c #000000",
"aa c #000000",
"ab c #000000",
"ac c #000000",
"ad c #000000",
"ae c #000000",
"af c #000000",
"ag c #000000",
"ah c #000000",
"ai c #000000",
"aj c #000000",
"ak c #000000",
"al c #000000",
"am c #000000",
"an c #000000",
"ao c #000000",
"ap c #000000",
"aq c #000000",
"ar c #000000",
"as c #000000",
"at c #000000",
"au c #000000",
"av c #000000",
"aw c #000000",
"ax c #000000",
"ay c #000000",
"az c #000000",
"aA c #000000",
"aB c #000000",
"aC c #000000",
"aD c #000000",
"aE c #000000",
"aF c #000000",
"aG c #000000",
"aH c #000000",
"aI c #000000",
"aJ c #000000",
"aK c #000000",
"aL c #000000",
"aM c #000000",
"aN c #000000",
"aO c #000000",
"aP c #000000",
"aQ c #000000",
"aR c #000000",
"aS c #000000",
"aT c #000000",
"aU c #000000",
"aV c #000000",
"aW c #000000",
"aX c #000000",
"aY c #000000",
"aZ c #000000",
"a0 c #000000",
"a1 c #000000",
"a2 c #000000",
"a3 c #000000",
"a4 c #000000",
"a5 c #000000",
"a6 c #000000",
"a7 c #000000",
"a8 c #000000",
/* pixels */
".I.I.I.I.I.I.I.I`K.C#v`A`u#p#n#`#`#n#p`u`A#v.C`K.I.I.I.I.I.I.I.I",
"````````````````.P`3`3`M.J#A.v#s#s.v#A.J`M`3`3.P````````````````",
"````````````````.8#F`W.N.g.N.v#I#I.v.N.g.N`W#F.8````````````````",
"````````````````.q#x#r``.d`C.T.T.T.T`C.d``#r#x.q````````````````",
"````````````````#k.U`C`Z`q````#y#y`````q`Z`C.U#k````````````````",
"````````````````.b#i.T`Z```C`C`````C`C```Z.T#i.b````````````````",
"````````````````#E.L`C`Z``.o`Z`q`q`Z.o```Z`C.L#E````````````````",
"````````````````#t.#`C`Z```C``.S.S```C```Z`C.##t````````````````",
"`P`J.u.q.A###E`x`m.B.T`Z```C.d````.d`C```Z.T.B`m`x#E##.A.q.u`J`P",
".t#D`o#j.U`6.#.X#h#g``.S```C.d`Z`Z.d`C``.S``#g#h.X.#`6.U#j`o#D.t",
"``.p`V#r.5.T`C`C#r.O.S`g```C```q`q```C```g.S.O#r`C`C.T.5#r`V.p``",
".o`7`t``.S`q```Z``#v.Y`Z```C```q`q```C```Z.Y#v```Z```q.S```t`7.o",
"```M.e```Z````.d```````C`h`C```Z`Z```C`h`C``````.d`````Z``.e`M``",
".O`M`k`C`Z`C`C`C`C```C`C`C`````Z`Z`````C`C`C```C`C`C`C`Z`C`k`M.O",
"#v`M`M`C#v```````Z`````````````Z`Z`````````````Z``````#v`C`M`M#v",
".O`N.p.T.G```Z.Y`q`q`q`Z`Z`q`````````q`Z`Z`q`q`q.Y`Z``.G.T.p`N.O",
"`Z.E.p```g`C`C``````````.Y`Z```C`C```Z.Y``````````````.S```F.v.O",
".G`7`j```q`C.o```B`R`````Z`Z`Z`Z`Z`Z`Z`Z`````R`B``#u```Z`C`t`N``",
".5`f.n.T```C`C`````````````Z`Z`Z`Z`Z`Z````````````#u`C``#r.y`y.T",
"```N`N.5`Z`Z.S.S`Z.Y`Z`````````Z`Z`````````Z.Y`Z.Y.Y````.5.N`M.O",
"``.h`N.T.5.5`````````q`Z```C`C`````C`C```Z`q````````.5.4#r.0`M``",
"#w`a#C.T````#v#f`E.5```q`Z`h`C`````C`h`Z`q``.5`E`5.O.O.O`C`D.k#w",
"`b.j.7.3.a.V.M#b#B#c.5`q`Z```C`Z`Z`C```Z`q.5#c#B##.q.q#q`H.K#.`b",
"`2`L.i.6`E#f#d`##J#h.T.Y`q```Z`q`q`Z```q.Y.T#h#J.Z#l.f`l`1`0.l`n",
"`````````````````V`w.O.Y#u`C`C`C`4```C.d```C`p#B````````````````",
"````````````````#m`d.T````.T`z```Z`C`h`C`Z.T`U#E````````````````",
"`````````````````I`Q#r#v`````q`q```C`````Z.T#o.x````````````````",
"````````````````.a.#`h#v.Y`Z```q````#v.S`P.5`i`W````````````````",
"`````````````````Y.s.D``.5.T`h.c.T`C``````.D.X#z````````````````",
"`````````````````.#F.w`v.F`e#m`G.m.F...2`O.R.``s````````````````",
"````````````````.T#G#g#g#g.H`S`r#g#g`E#g`E#g.W.D````````````````",
".I.I.I.I.I.I.I.I#e#`.z`T#``c#a.Q#H.1`A`X`8.t#e.r.I.I.I.I.I.I.I.I"
};
