/* XPM */
static char *cube_xpm[] = {
/* width height num_colors chars_per_pixel */
"    32    32      256            2",
/* colors */
"`` c #040306",
"`. c #9c0244",
"`# c #440221",
"`a c #844274",
"`b c #041b0f",
"`c c #240308",
"`d c #c44274",
"`e c #c41664",
"`f c #04100a",
"`g c #e46294",
"`h c #842644",
"`i c #442634",
"`j c #e44a94",
"`k c #a42860",
"`l c #241a10",
"`m c #240f19",
"`n c #6c023c",
"`o c #140307",
"`p c #e4549c",
"`q c #a4426c",
"`r c #a43764",
"`s c #042a04",
"`t c #141012",
"`u c #340204",
"`v c #44123c",
"`w c #c45381",
"`x c #64223c",
"`y c #a45078",
"`z c #84335c",
"`A c #c43264",
"`B c #040a07",
"`C c #141c19",
"`D c #f44294",
"`E c #14021c",
"`F c #fc3294",
"`G c #041020",
"`H c #b43769",
"`I c #641739",
"`J c #fc49a6",
"`K c #b4266c",
"`L c #3c120c",
"`M c #b44571",
"`N c #242234",
"`O c #140a10",
"`P c #f454a0",
"`Q c #54163c",
"`R c #6c3254",
"`S c #94335f",
"`T c #c43e6c",
"`U c #040414",
"`V c #2c0a24",
"`W c #340320",
"`X c #b43e70",
"`Y c #d44589",
"`Z c #04160e",
"`0 c #d4568c",
"`1 c #741234",
"`2 c #240a0c",
"`3 c #2c282c",
"`4 c #1c0208",
"`5 c #1c1428",
"`6 c #14221c",
"`7 c #54022c",
"`8 c #0c100a",
".` c #f44e8c",
".. c #340a20",
".# c #ac1254",
".a c #944e78",
".b c #0c1a28",
".c c #5c324c",
".d c #14161c",
".e c #141a28",
".f c #3c112c",
".g c #b44a74",
".h c #f45ec4",
".i c #541c38",
".j c #943a60",
".k c #d43e8c",
".l c #0c0206",
".m c #240217",
".n c #c44a74",
".o c #fc74bc",
".p c #942a5c",
".q c #5c2234",
".r c #241e2c",
".s c #142614",
".t c #c45a7c",
".u c #74254f",
".v c #b45177",
".w c #b43a74",
".x c #641e41",
".y c #b43268",
".z c #b4467c",
".A c #f45aa4",
".B c #0c2219",
".C c #a43066",
".D c #1c1018",
".E c #040a14",
".F c #1c1b16",
".G c #3c0321",
".H c #b42f77",
".I c #440e2c",
".J c #041014",
".K c #842c54",
".L c #241624",
".M c #140314",
".N c #a44a6c",
".O c #04281c",
".P c #cc5694",
".Q c #642a4f",
".R c #641644",
".S c #fc4ea4",
".T c #fc5394",
".U c #6c3a4c",
".V c #5c1d44",
".W c #0c1e1c",
".X c #fc6eb8",
".Y c #2c1018",
".Z c #e45a94",
".0 c #14101c",
".1 c #441e2c",
".2 c #cc5484",
".3 c #843a54",
".4 c #d43274",
".5 c #fc4490",
".6 c #140a1c",
".7 c #ec3c80",
".8 c #04161c",
"#` c #3c1624",
"#. c #f41e84",
"## c #841644",
"#a c #3c2e4c",
"#b c #b41e54",
"#c c #9c1a5c",
"#d c #944a74",
"#e c #640a2c",
"#f c #3c1e34",
"#g c #bc569c",
"#h c #fc3e9c",
"#i c #7c1e44",
"#j c #540a24",
"#k c #a41a54",
"#l c #7c3c60",
"#m c #740e40",
"#n c #fc7ecc",
"#o c #cc4e90",
"#p c #ac3e7c",
"#q c #c8367c",
"#r c #ec3e9c",
"#s c #5c2a3c",
"#t c #24221c",
"#u c #7c325c",
"#v c #9c5674",
"#w c #34162c",
"#x c #1c2e24",
"#y c #bc567c",
"#z c #cc2e7c",
"#A c #34101c",
"#B c #c43b7c",
"#C c #7c164c",
"#D c #943c70",
"#E c #d44a8c",
"#F c #dc5a8c",
"#G c #242e24",
"#H c #2c2224",
"#I c #042e24",
"#J c #8c1e4c",
"#K c #ec62ac",
"#L c #340a14",
"#M c #cc5a94",
"#N c #5c2347",
"#O c #4c0624",
"#P c #cc4284",
"#Q c #8c2254",
"#R c #4c2a44",
"#S c #2c1e1c",
"#T c #ac4470",
"#U c #6c2349",
"#V c #5c1531",
"#W c #9c325c",
"#X c #fc4b9b",
"#Y c #9c5070",
"#Z c #dc3c80",
"#0 c #bc5284",
"#1 c #ac326c",
"#2 c #ec5ca0",
"#3 c #4c1e3c",
"#4 c #8c3a64",
"#5 c #5c0e31",
"#6 c #ac1e64",
"#7 c #8c4264",
"#8 c #4c122c",
"a` c #bc3e6e",
"a. c #2c0a14",
"a# c #743a5c",
"aa c #bc1e64",
"ab c #3c163c",
"ac c #ec4c98",
"ad c #ac3a6c",
"ae c #ac527c",
"af c #1c031d",
"ag c #0c111c",
"ah c #bc366c",
"ai c #0c0415",
"aj c #dc428c",
"ak c #dc5288",
"al c #9c3e64",
"am c #2c0317",
"an c #2c1b29",
"ao c #bc387a",
"ap c #bc437f",
"aq c #fc5e9c",
"ar c #bc3274",
"as c #4c0a34",
"at c #8c2e5c",
"au c #6c1749",
"av c #9c466c",
"aw c #3c0e24",
"ax c #cc3e80",
"ay c #c44484",
"az c #842254",
"aA c #fc46b4",
"aB c #1c0314",
"aC c #0c1214",
"aD c #f44a9c",
"aE c #541c44",
"aF c #9c2e5c",
"aG c #3c062c",
"aH c #0c2a1c",
"aI c #fc55a4",
"aJ c #fc6ac4",
"aK c #441a3c",
"aL c #843e64",
"aM c #fc449c",
"aN c #ac427c",
"aO c #9c366c",
"aP c #dc3e8c",
"aQ c #0c0a0a",
"aR c #1c0a14",
"aS c #7c123c",
"aT c #1c2224",
"aU c #3c0a1c",
"aV c #cc4a7c",
"aW c #bc3268",
"aX c #0c0a18",
"aY c #ac4a74",
"aZ c #6c2a54",
"a0 c #44022c",
"a1 c #442644",
"a2 c #042a14",
"a3 c #340214",
"a4 c #2c0a34",
"a5 c #b43e7c",
"a6 c #240a1c",
"a7 c #1c161c",
"a8 c #fc4eb4",
/* pixels */
".O`2#``3`8`CaH`6aga7`b.F`l`8#S`6.F`C.F.F.F.F.F.F`la.`3#L..#G`s`L",
".l`BaQ.l`f`f`o``a4aK.eaBa..M.m.0`taQ`````UaQ`U`U`8`U.l`O.M`f`f`c",
"`o`````````B.l#V.haA#r`FaM`P#h`J`p#E#Baharar#q#B.j#u#R#fa1.E````",
"`B.l.l`B```U`4`d#gauaXag``.J.M`U.Gas.V.Q.Q#N.V.V#J`ea5#q#naj``.M",
".l`t`````B`4.v#V`MaS.l`o`````4.l``````````````ai`Uafaf`z#oaO`4`B",
"`c.l`B.J`c#y.u``###4`U```````o`B`````````B```````f.M#0`.`nae`4``",
".l`oaQ.l.N#i.l``#e#YaQ``aQ``.l`B.l.l.l.l.l.l.l.l.l.4`zaX#C.3`b``",
"`B``am`q#U.l.l``.R#Y.l.l`o```o`B````````````````.nat.l`B`Q`w`u`f",
"`Zam#K#pan.1`I`N#a.H`U`Uai`c`B```U.E.M`Uam``af.a.U`B```fagaM..``",
"`4.#`J#z`M`T.wap`J.o`j.A#2.`.Z.7`H.Cah`q.y#T#P#cam``aQ`faX.5am``",
"`f`S.H`E`o````.l`vaMab`VamaG.r`i.y`S`r#7`Sadaq.G.l``````.M.S.m``",
"``.K`Yai`````8.lai#o`5```U```f```4`B```UaX`W#F.J`Uai````aBaI.m`B",
"``aw`paf`f`B`o```U`0an``aQ`B``.l.l`f```B.0am.`aQ`B.l````aBac`W``",
"`4amaM.M`````o``am.TaU`c.l.l`B`c`o````.l.lam.T`o`U.l````.M#E.i``",
"```m.S`UaC`B```U```g#A```f```f.l.l```B.l``.dak.m``.l`f````ap#uaB",
"`faBaM`U`o````.l``.Taw`U`````B`4.l.l```o.l`Za`.I```o`f````a5.j`o",
".l.L#2amai`````U``aY.KaiaQ.l`B`B````.l.l`o```M#V`f```B`U``.a.C`U",
"``ai`YaG````````.M`raF`o``.l```B`U`f```````B`q#8``.l````.l`y#kai",
"````#B#N````````.GaW`r.l``````.l```f``.l.l`B`X`I.l`o``.l`oav#b.m",
"````#B#N````.l```U#d#l```U.l`O``````````.l`B`M`I``.l``````.xaW`o",
"````#BaE.l``.l``.M.CaO.l``.l`````o``.l.l.l```k.u`B```B`f``a3.2`B",
"````#BaEai``````ag#Q.z.faB`m```Z```f`````f.E#m`a.l`o.l.l.M`#`w`U",
"````.H.Q.l``.l``.E`kaI`P.T.5a`ala`.v`M#T`M#D#.a8#Nau#U`I.x.C`Y``",
"````#6#l.l``.l``.c`X`7`U.J`o#s#5`1#j`I`I#5aZ`JaJaNaoayao.w.X.7af",
"```8#e`A`f`Z`c`h`y.G`o`U`U`U`U``.l`````````4.x#D````````.1`H`#`B",
"`o``.iak.l``.q.t`c.l``````.l`o`4`B`B`B.l.l.m#m.k``.l```x.2`tai`o",
"`B``#NaNaia##va3.l.l```````B```B`````````B`b#w#MaX.M`IaV`oai````",
"`B.l#U`Kau#1`#```f`B```````````````B```4```Z`WaI`E#5axaR````````",
"`o`f`5.X.Pa0aX`U``.MaBaf.Mai`````o``.lam.l`famac.u`w.M`4`b`B``.l",
"`c`U.6aaaD#X#Z#X.S#X#X#XaPaxayaoap.v.g#W#Oam`I.oa`aR`U`````b`4`o",
"``````.M```W.D.la6aBam.f#3`RaL`z.paz#Q#1aVaV#Z`D`m.l```faQ`c`b.l",
".B#x#I#SaT`t.O.B.W`6`C`f`C.F.D`c`G.b.b.8`Cag.e`Ga2.s#t#A.Y#H.Y.B"
};
