/* XPM */
static char *flatCube_xpm[] = {
/* width height num_colors chars_per_pixel */
"    32    32      256            2",
/* colors */
"`` c #040204",
"`. c #8c0e4c",
"`# c #440214",
"`a c #ac4e7c",
"`b c #041a0c",
"`c c #24020b",
"`d c #c40e64",
"`e c #4c2e4c",
"`f c #040e07",
"`g c #842e54",
"`h c #640a34",
"`i c #140209",
"`j c #e47aac",
"`k c #441a30",
"`l c #c43274",
"`m c #dc5294",
"`n c #a42e64",
"`o c #e43684",
"`p c #240e18",
"`q c #241a1c",
"`r c #a43e68",
"`s c #440e2c",
"`t c #140e14",
"`u c #c4427c",
"`v c #1c0234",
"`w c #ec5ea4",
"`x c #040a07",
"`y c #841e4c",
"`z c #140a0a",
"`A c #340214",
"`B c #141e20",
"`C c #643a54",
"`D c #fc5699",
"`E c #340e24",
"`F c #b43e6c",
"`G c #c44e84",
"`H c #140214",
"`I c #540228",
"`J c #04160a",
"`K c #5c163c",
"`L c #040214",
"`M c #742648",
"`N c #641a44",
"`O c #242624",
"`P c #dc3ea4",
"`Q c #b43269",
"`R c #e44284",
"`S c #a4225c",
"`T c #24021c",
"`U c #d43684",
"`V c #e452ac",
"`W c #2c0e34",
"`X c #d44284",
"`Y c #cc5a84",
"`Z c #6c324c",
"`0 c #441e31",
"`1 c #ec4e84",
"`2 c #341a2c",
"`3 c #541234",
"`4 c #141614",
"`5 c #142219",
"`6 c #44022c",
"`7 c #0c0e09",
"`8 c #941e5c",
".` c #d44e94",
".. c #0c0206",
".# c #8c4264",
".a c #1c0208",
".b c #241618",
".c c #a4466c",
".d c #b43e7c",
".e c #7c324c",
".f c #b41a5c",
".g c #0c2614",
".h c #242220",
".i c #1c0e20",
".j c #040a16",
".k c #842658",
".l c #340224",
".m c #c4568c",
".n c #1c0217",
".o c #7c1e44",
".p c #b43a6c",
".q c #d43e80",
".r c #6c3254",
".s c #841644",
".t c #041a17",
".u c #040e14",
".v c #943674",
".w c #740e3c",
".x c #e44e89",
".y c #fc3c84",
".z c #4c0e28",
".A c #1c1a20",
".B c #fc429c",
".C c #240a1c",
".D c #d44a84",
".E c #4c0221",
".F c #240a14",
".G c #fc8ecc",
".H c #4c1631",
".I c #a43a68",
".J c #2c1220",
".K c #cc4a80",
".L c #f46aa4",
".M c #fc5aa7",
".N c #34162c",
".O c #b44674",
".P c #cc527c",
".Q c #540a24",
".R c #041617",
".S c #0c0214",
".T c #64223c",
".U c #e44a8c",
".V c #44223c",
".W c #3c0228",
".X c #e45094",
".Y c #040605",
".Z c #ac5684",
".0 c #0c1c0c",
".1 c #2c0214",
".2 c #041207",
".3 c #140606",
".4 c #fc76b4",
".5 c #c43e70",
".6 c #ec3e8c",
".7 c #2c1e20",
".8 c #ac4274",
"#` c #1c1214",
"#. c #d41e6c",
"## c #743a64",
"#a c #ec2a7c",
"#b c #9c1a5c",
"#c c #6c163c",
"#d c #9c0a4c",
"#e c #b42a64",
"#f c #54223c",
"#g c #7c465c",
"#h c #fc5eac",
"#i c #34262c",
"#j c #9c466c",
"#k c #bc5a7c",
"#l c #fc7ecc",
"#m c #74164c",
"#n c #440a30",
"#o c #b4467c",
"#p c #9c3a6c",
"#q c #140a14",
"#r c #cc6294",
"#s c #ec568c",
"#t c #540a3c",
"#u c #fc52ac",
"#v c #6c1254",
"#w c #bc4174",
"#x c #bc2e6f",
"#y c #dc3274",
"#z c #dc4294",
"#A c #ac4a7c",
"#B c #dc3a78",
"#C c #84365c",
"#D c #2c162c",
"#E c #ec3684",
"#F c #ec428f",
"#G c #1c221e",
"#H c #2c1624",
"#I c #dc4a8c",
"#J c #f4609c",
"#K c #3c0e28",
"#L c #6c1a44",
"#M c #2c021e",
"#N c #742e49",
"#O c #5c0e34",
"#P c #8c2a5c",
"#Q c #74305c",
"#R c #9c326c",
"#S c #4c1e44",
"#T c #440624",
"#U c #ec76ac",
"#V c #cc3674",
"#W c #a44274",
"#X c #8c204c",
"#Y c #742a54",
"#Z c #ac265c",
"#0 c #ec5094",
"#1 c #341a3c",
"#2 c #a44a7c",
"#3 c #bc396c",
"#4 c #4c0e34",
"#5 c #cc508c",
"#6 c #5c1e3c",
"#7 c #dc3684",
"#8 c #ac2e6c",
"a` c #cc4278",
"a. c #0c0a0a",
"a# c #3c021c",
"aa c #1c1617",
"ab c #4c0234",
"ac c #2c2224",
"ad c #0c0a14",
"ae c #7c0e44",
"af c #5c0a2c",
"ag c #0c1614",
"ah c #6c2244",
"ai c #ec4a94",
"aj c #bc4684",
"ak c #1c0a1c",
"al c #240214",
"am c #441a3c",
"an c #e43694",
"ao c #0c0e14",
"ap c #9c1e5c",
"aq c #cc568c",
"ar c #240a2c",
"as c #d44a94",
"at c #a43a74",
"au c #8c1244",
"av c #041e04",
"aw c #4c3244",
"ax c #84325c",
"ay c #24121c",
"az c #441234",
"aA c #141210",
"aB c #1c062c",
"aC c #34122c",
"aD c #b44264",
"aE c #140619",
"aF c #5c1a34",
"aG c #641e3c",
"aH c #2c122c",
"aI c #d4468c",
"aJ c #442234",
"aK c #341e34",
"aL c #d4528c",
"aM c #0c0607",
"aN c #1c0608",
"aO c #a44a74",
"aP c #1c1224",
"aQ c #842a54",
"aR c #340628",
"aS c #1c0616",
"aT c #841a4c",
"aU c #e4528c",
"aV c #4c122c",
"aW c #1c1e1c",
"aX c #4c061c",
"aY c #0c0616",
"aZ c #342a34",
"a0 c #2c061c",
"a1 c #74324c",
"a2 c #5c1238",
"a3 c #ac527c",
"a4 c #241e1c",
"a5 c #c45284",
"a6 c #040614",
"a7 c #7c2244",
"a8 c #041214",
/* pixels */
"aWaWaWaWaWaWaWaWa4.h#G`B`B`O#Gaa`5acay#H.haa`OaA`q`p.J#i`4`5.A.7",
"````````````````````````````..#`aM`x```x.Y.2.Y`i`J.0```````f```x",
"````````````````.Y`7.Y``..#q....`x```z`i``.Y....aNaM`x`J.Y`````f",
".Y.Y.Y.Y.Y.Y.Y.Y.Y.Y``aM..`````xaM..aN...t`x`z`f`7...a.a``.YaM.a",
"``````````````````.Y```````f.u`x`i.A#X`D#Vah#T.a..`x`b`x...a...Y",
"``````````````````aA`x``.Y````aE#Y`a#x#U`N#x#E#r`QaG`t``.C`c...R",
"````````````````..`````x...aa2#2#5am.E`maRaE.n#D#Y.8.D.x.p.E#M..",
"``````````````````.Y`f``.a.##5#d.SaE`Q.Majaq`u`0`TaY`L#nap.U`j#M",
"....aM`f.Y......`f````aF`Y.c`A...l`G.o..``.a.e#w`1.y#e#S`W`d#uaB",
"`x`f``.a`i``.Y`f`HaY.5.x.H`i```0aU#6........`i.a.Y`0aQ.6.G`U#h`e",
".Y.Y``..````..aE#N`D`g.Y.Y`xa1#3af```x.Y.Ya....Y`J..aP#7`6#t.M`h",
"``...Y````a8aJ.x#wal`i````#Xa`#K.Y`f``.Y`J.Y..`xaM`p.qaKa6.I.s..",
"aM.Y.a```t#3`Raw.n.t`xa##y.5..``.Y`i..`x..```f`f#H#B`3.S`C`r.Y`x",
".Y...Y`M.y#ZaM`iaY`i`2`ra7`````x.Y`i`z``.3`x```I#w.H#M.V#jaS`x.a",
"`iaZ`F#y.z.Y`z``.n`k`u#N.Y``.Y`f`f.Y.Y....```s`uaVao`i#F.V```c.Y",
"au.L#C```x.Y`x`x#Q.Zaz.n`i``.3..`caM.Y`J``#O#A#1```x.D.z.jaS..`x",
".B#zas`w`naC.i#P#g`c`iaM..aM````.Y``.F`L#4#B#H``a#aO`M...u``..``",
".O.w.i#K.f.q`w.M.O`3aE`x.Y``.Y`f`J.Y`i.Na``k.j``ax.ra0..``.Y``.Y",
"aD#N.Y.Y#Mat#mar#.`oai.K.k.W#M.n`i.R.Q.P`k````#n#j.J.Y...a``.Y``",
"a3#c`i.T#saG`x`i``adaS`N`l#F.X.d.k#L#kaX.Y`ca0aI.H...YaM...Y````",
"#v.v`.#3`#.Yav`f.Y`x````````akaH#R.4`I`J```i`QaT``..`i```x`f``..",
"`v#l.`.u.t...0`c.aaM`f`f`i`i..a8#MaL.Ea8.Y`Z.IaY`f...a```J`x..``",
"aR#I#a#0#W#4``.R`x``aM..``..````.Y#J.Wa6`K`ua8.Y.Y``...Y`x.Y````",
"`f`i...N#ban`V`Pata2aS.Y.Y`7````aM`S##.l#F#M```x.a.Y.2``..``.Y`x",
"``````````.Y`7`4#x`X.XaI`8ab.n`L.j#Q#8#p#f..a.`f````````````````",
"````````````.Ya..j``a0ah#W.ma5#oae#0`D`yal````.Y````````````````",
"````.Y```````````x.Y..`i.a.1`E`k#w#J.K`A``a8```z````````````````",
"````````````````..````.Y.Y````.Y`i`c.1.Y.2ag....````````````````",
"````````````.Y.Y.Y.Y.Y`x`f.Y..`i`b.Y..`f`x``..a..Y.Y.Y.Y.Y.Y.Y.Y",
"````````````````....``.Y.Y````aM`f``..`7.Y...3.Y````````````````",
".Y.Y````````````.Y``````........aM.3aM.Y`x....`x````````````````",
".AaWaWaWaW.A.A.A#GaW.A.A.A.A`B`Baa.7#G.g`5.b.baWaWaWaWaWaWaWaWaW"
};
