/* XPM */
static char *locator_xpm[] = {
/* width height num_colors chars_per_pixel */
"    32    32      256            2",
/* colors */
"`` c #040204",
"`. c #8c626c",
"`# c #8c165c",
"`a c #44022c",
"`b c #041e0c",
"`c c #240204",
"`d c #d42e7c",
"`e c #041204",
"`f c #140204",
"`g c #cc427c",
"`h c #4c222c",
"`i c #040a04",
"`j c #943a64",
"`k c #ec428c",
"`l c #2c121c",
"`m c #242224",
"`n c #a41a44",
"`o c #34021c",
"`p c #fcbefc",
"`q c #f462a4",
"`r c #140a0c",
"`s c #d45a94",
"`t c #642244",
"`u c #04021c",
"`v c #243224",
"`w c #cc8a9c",
"`x c #dc4294",
"`y c #342624",
"`z c #fc62ec",
"`A c #0c0204",
"`B c #441a24",
"`C c #24061c",
"`D c #140214",
"`E c #040e24",
"`F c #fc6eb4",
"`G c #842a54",
"`H c #0c0a04",
"`I c #fc52ac",
"`J c #242624",
"`K c #ec1e84",
"`L c #ac2e6c",
"`M c #6c3644",
"`N c #5c0244",
"`O c #443234",
"`P c #340a24",
"`Q c #fc6ab4",
"`R c #240a14",
"`S c #04161c",
"`T c #1c0204",
"`U c #a44a74",
"`V c #dc4a94",
"`W c #040214",
"`X c #142a24",
"`Y c #cc4a94",
"`Z c #040a14",
"`0 c #fc62b4",
"`1 c #1c0a0c",
"`2 c #0c0214",
"`3 c #9c326c",
"`4 c #2c2624",
"`5 c #ec3e8c",
"`6 c #ac3674",
"`7 c #841e54",
"`8 c #2c020c",
".` c #041a14",
".. c #5c2e3c",
".# c #fc4e9c",
".a c #340224",
".b c #7c2a44",
".c c #240a1c",
".d c #1c0214",
".e c #843664",
".f c #fc5aa4",
".g c #040604",
".h c #540224",
".i c #0c120c",
".j c #140604",
".k c #d4428c",
".l c #5c263c",
".m c #040e04",
".n c #3c1a24",
".o c #2c1e2c",
".p c #e45a94",
".q c #0c061c",
".r c #0c0604",
".s c #54123c",
".t c #fc76c4",
".u c #0c0a14",
".v c #7c364c",
".w c #5c0e3c",
".x c #bc4a84",
".y c #e44a94",
".z c #fc66b4",
".A c #2c2a24",
".B c #fc3eb4",
".C c #941e5c",
".D c #fc5abc",
".E c #4c0a2c",
".F c #1c2224",
".G c #240214",
".H c #c43e84",
".I c #041604",
".J c #54264c",
".K c #b44284",
".L c #fc4284",
".M c #341a1c",
".N c #b4226c",
".O c #140e0c",
".P c #dc5694",
".Q c #642264",
".R c #04061c",
".S c #243634",
".T c #f482dc",
".U c #e44294",
".V c #3c222c",
".W c #44123c",
".X c #2c021c",
".Y c #140614",
".Z c #fc72bc",
".0 c #8c2a54",
".1 c #0c0e04",
".2 c #bc2a6c",
".3 c #5c3a4c",
".4 c #3c0e34",
".5 c #1c060c",
".6 c #1c2a24",
".7 c #1c0e1c",
".8 c #fc3e8c",
"#` c #bc3674",
"#. c #ac628c",
"## c #a43e84",
"#a c #b45684",
"#b c #d43a8c",
"#c c #fc2284",
"#d c #4c3a44",
"#e c #0c322c",
"#f c #2c0e2c",
"#g c #fc7eec",
"#h c #f43e9c",
"#i c #542634",
"#j c #2c2e2c",
"#k c #3c0e1c",
"#l c #0c1224",
"#m c #8c224c",
"#n c #bc1e64",
"#o c #4c1644",
"#p c #4c062c",
"#q c #6c3a54",
"#r c #2c0e14",
"#s c #7c2e54",
"#t c #8c3264",
"#u c #fc5eb4",
"#v c #e44a9c",
"#w c #bc2e7c",
"#x c #f44294",
"#y c #fc62ac",
"#z c #0c0e1c",
"#A c #d44a8c",
"#B c #3c0224",
"#C c #640e44",
"#D c #ac4a74",
"#E c #8c2a64",
"#F c #340614",
"#G c #64264c",
"#H c #dc468c",
"#I c #5c063c",
"#J c #1c0e14",
"#K c #d44684",
"#L c #2c2224",
"#M c #e44e8c",
"#N c #fc5ec4",
"#O c #dc5a9c",
"#P c #cc467c",
"#Q c #040614",
"#R c #040e14",
"#S c #0c0614",
"#T c #842254",
"#U c #7c3a4c",
"#V c #1c2624",
"#W c #2c061c",
"#X c #04020c",
"#Y c #24020c",
"#Z c #04120c",
"#0 c #14020c",
"#1 c #040a0c",
"#2 c #140a14",
"#3 c #34262c",
"#4 c #0c020c",
"#5 c #14021c",
"#6 c #fc6ebc",
"#7 c #0c0a0c",
"#8 c #24262c",
"a` c #fc6abc",
"a. c #1c020c",
"a# c #fc62bc",
"aa c #2c262c",
"ab c #2c0214",
"ac c #fc4ea4",
"ad c #34022c",
"ae c #1c021c",
"af c #04060c",
"ag c #14060c",
"ah c #040e0c",
"ai c #0c060c",
"aj c #fc66bc",
"ak c #2c2a2c",
"al c #341a24",
"am c #040624",
"an c #bc367c",
"ao c #2c222c",
"ap c #000000",
"aq c #000000",
"ar c #000000",
"as c #000000",
"at c #000000",
"au c #000000",
"av c #000000",
"aw c #000000",
"ax c #000000",
"ay c #000000",
"az c #000000",
"aA c #000000",
"aB c #000000",
"aC c #000000",
"aD c #000000",
"aE c #000000",
"aF c #000000",
"aG c #000000",
"aH c #000000",
"aI c #000000",
"aJ c #000000",
"aK c #000000",
"aL c #000000",
"aM c #000000",
"aN c #000000",
"aO c #000000",
"aP c #000000",
"aQ c #000000",
"aR c #000000",
"aS c #000000",
"aT c #000000",
"aU c #000000",
"aV c #000000",
"aW c #000000",
"aX c #000000",
"aY c #000000",
"aZ c #000000",
"a0 c #000000",
"a1 c #000000",
"a2 c #000000",
"a3 c #000000",
"a4 c #000000",
"a5 c #000000",
"a6 c #000000",
"a7 c #000000",
"a8 c #000000",
/* pixels */
"`J`J`J`J`J`J`J`J.6`J#L`J.F`Jak#V#I`S.S.n`y#j#3`X`J`J`J`J`J`J`J`J",
"````````````````.g```````````A.g.K#zah`f.g```A`i````````````````",
"````````````````.g``````.g```A`r.Z#f#X`A`i```A.g````````````````",
".g.g.g.g.g.g.g.g.g``````.g```A#J#6ad#Xai`i.g`f.g.g.g.g.g.g.g.g.g",
"````````````````````.g```````A#raj.a#X`A`i```A`i````````````````",
"`````````````````A``#1`i.g.g`f`B`0.a#X``.m`i`A``````````````````",
"`````````````````A```i.g.g```f#i.y.d#X`A`i.m`A.g````````````````",
"`````````````````A```i``.g```T`M#A`2af`T.g.g`A#Z````````````````",
"````````.g.g.g``#7`i`f.g``#Y.X#E.U.R#4``.ga..g```i`i.m.g``.g````",
"``````.g````````.g``````.g#1``.3`V#X``.g`i`f.g`A`f`f`f`f`f`fai#7",
".r.g.g``.g.r`f`T`Z#Q.u#S#Qaf``#d#h`2``.1.I`e`e.I````aiag`A````.g",
"``.g````#7`f`f#Y.q`2#0ai.m.m`T.b`k#X`f`T.g`T`T`cah#1.g.g.g.r`A`A",
"``#7.g`````A.V`.`d#Taeaf`i`f`8.v#H#Qaf.m.m.5.g``.G.G.Y````.g````",
"``````.g#7`A`Aal`U`q`I#v#G#X`D.e`Y`E`W#X``#Y.c.E#n`g#D.la.``.g`i",
".r``````.g#7`````cab.h.2.##y##.Q`K`N`##`#M.f`Qaj.P.x#s#W``.g`i`i",
"````#7.g```i`i```b.``o#C.Ca##g`z`p.T#N#w.w`P#lam#5`2#X#Xaf.g`A`f",
".m.m`A#Y#p`7an`V.B.D#u.p#P`j.s#c#b.H.zac.N`a.R`u`A```i#Z`i```A`f",
"`i`i```R#q#.#a`3#o.W#B````#X#Q.x#t`2`W.J`s`F#O`L#k`T`A`H.g.g`H`A",
".g`H```A#0.d.G.X#R#1``.m`iaf`Z.P`t`D.7``#4.d`G.L`w`M`T`A.g``.g``",
"``.r````````#X.uaf`i`A`H`T`f#0.8`n`8.g.m.g`````T#F`c`f.r``.g.g``",
"`````````i.iah.g#1.g`A`i.g.g#1#M#U`H`e```A``.m.g``.g.g.g.g```H.O",
"````#7#7````.g`i`````T.m.gaf#1#K`O.g.r`f`A`i`i`f`e`e`i.g`i.g````",
"#7````````#7#7``.5`A`T`A`A#4#5#x#m`f.g``#0`A.m`i.g`i.g`````````H",
"````.g#7````.r``.g.g`f.m#1#Q`W`x.0.d``````af``ab`f`f`f`f`A````.g",
"````````````````#R#0.5````.m#4.k`M`f``.g.g`i```A````````````````",
"````````````````af`A`````A.m#0`5..`f``.g.g`i```A````````````````",
"````````````````af`A```i.r`H.Gac`h`f.g.g```i````````````````````",
"````````````````#4`T``.m`````Ca``l`A``````.g````````````````````",
".g.g.g.g.g.g.g.g`A.j.g#Z`A.g.o.t`1`A``.g``````.g.g.g.g.g.g.g.g.g",
"````````````````#X`A.g.m`A``#2`6``````.g```````i````````````````",
"````````````````#1`A``.m`f`Haf`a``.r```````````i````````````````",
"`J`J`J`J`J`J`J`J#8ao.A`4.M`v#e.4#Vak`m.F`Jaa`m.6`J`J`J`J`J`J`J`J"
};
