/* XPM */
static char *orient_xpm[] = {
/* width height num_colors chars_per_pixel */
"    32    32      256            2",
/* colors */
"`` c #040205",
"`. c #840a3c",
"`# c #440219",
"`a c #945a74",
"`b c #0c221c",
"`c c #c42a64",
"`d c #240208",
"`e c #041208",
"`f c #442a4c",
"`g c #843254",
"`h c #64022c",
"`i c #cc5684",
"`j c #140208",
"`k c #c44264",
"`l c #e47eac",
"`m c #2c1e24",
"`n c #a43464",
"`o c #24121c",
"`p c #d46a9c",
"`q c #4c162c",
"`r c #340210",
"`s c #ec568c",
"`t c #e4468c",
"`u c #a4466c",
"`v c #8c1e4c",
"`w c #0c2a20",
"`x c #040c07",
"`y c #64193e",
"`z c #140a09",
"`A c #441229",
"`B c #141217",
"`C c #1c201e",
"`D c #240a10",
"`E c #64223c",
"`F c #e42e7c",
"`G c #340228",
"`H c #540224",
"`I c #d46694",
"`J c #c4517f",
"`K c #2c2e2c",
"`L c #fc66dc",
"`M c #b44976",
"`N c #04191c",
"`O c #140317",
"`P c #fc59a6",
"`Q c #a42058",
"`R c #040415",
"`S c #642a44",
"`T c #84465c",
"`U c #2c2830",
"`V c #a4426c",
"`W c #f4489c",
"`X c #b40a5c",
"`Y c #040c15",
"`Z c #841848",
"`0 c #b4567c",
"`1 c #c43a74",
"`2 c #041a12",
"`3 c #dc5a8c",
"`4 c #1c2628",
"`5 c #7c4a5c",
"`6 c #240217",
"`7 c #4c1e34",
"`8 c #140a20",
".` c #74264c",
".. c #6c3a5c",
".# c #440634",
".a c #0c1312",
".b c #340e1c",
".c c #1c2a24",
".d c #0c0306",
".e c #844254",
".f c #1c0209",
".g c #dc427c",
".h c #b4366f",
".i c #ec6eac",
".j c #540e2c",
".k c #b44e74",
".l c #742a5c",
".m c #d4367c",
".n c #440a24",
".o c #741139",
".p c #cc5e8c",
".q c #3c1e34",
".r c #fc5797",
".s c #e45088",
".t c #ac4e74",
".u c #94267c",
".v c #0c0b0a",
".w c #7c1654",
".x c #1c0c11",
".y c #141a14",
".z c #242021",
".A c #240b22",
".B c #340a24",
".C c #d44e74",
".D c #ec5ea4",
".E c #9c2e5c",
".F c #941a54",
".G c #bc6294",
".H c #c43e6c",
".I c #4c0321",
".J c #0c2624",
".K c #041414",
".L c #341e24",
".M c #3c1224",
".N c #3c0214",
".O c #842a4c",
".P c #6c2341",
".Q c #540a31",
".R c #1c0314",
".S c #342729",
".T c #f452a4",
".U c #2c0218",
".V c #5c1e3c",
".W c #242b22",
".X c #fc72dc",
".Y c #cc5a94",
".Z c #c44680",
".0 c #fc8ecc",
".1 c #2c202c",
".2 c #a43a64",
".3 c #241a1c",
".4 c #34031c",
".5 c #ac4974",
".6 c #6c1e40",
".7 c #4c1020",
".8 c #ec3c88",
"#` c #0c0414",
"#. c #a45e94",
"## c #fc7edc",
"#a c #944664",
"#b c #944264",
"#c c #dc3274",
"#d c #b43f6c",
"#e c #fc76ac",
"#f c #74023c",
"#g c #94325c",
"#h c #fc9ad4",
"#i c #5c1a4c",
"#j c #942664",
"#k c #fc3e9c",
"#l c #84526c",
"#m c #fc6aa8",
"#n c #fc60a8",
"#o c #4c3234",
"#p c #343644",
"#q c #d44a84",
"#r c #ac6680",
"#s c #ac2e68",
"#t c #e46290",
"#u c #c45a84",
"#v c #7c365c",
"#w c #841244",
"#x c #f45e9c",
"#y c #14322c",
"#z c #743250",
"#A c #741e44",
"#B c #9c4e74",
"#C c #c43a7c",
"#D c #bc528c",
"#E c #cc326c",
"#F c #ac265c",
"#G c #dc5e94",
"#H c #dc4694",
"#I c #ac528c",
"#J c #94224c",
"#K c #1c161c",
"#L c #5c0428",
"#M c #54203f",
"#N c #7c2249",
"#O c #bc3a7c",
"#P c #ec4f8f",
"#Q c #3c0c28",
"#R c #dc4e84",
"#S c #9c1848",
"#T c #c46288",
"#U c #9c3e74",
"#V c #bc4078",
"#W c #fc5e9c",
"#X c #fc9aec",
"#Y c #cc4274",
"#Z c #6c2a44",
"#0 c #7c022c",
"#1 c #7c325c",
"#2 c #142018",
"#3 c #2c020c",
"#4 c #8c365c",
"#5 c #ac3669",
"#6 c #541934",
"#7 c #f45894",
"#8 c #2c0b14",
"a` c #3c0624",
"a. c #cc4e84",
"a# c #bc467c",
"aa c #0c0c14",
"ab c #e45694",
"ac c #4c022c",
"ad c #bc507c",
"ae c #7c0e3c",
"af c #8c2654",
"ag c #fc4f9e",
"ah c #d4588c",
"ai c #9c4a6c",
"aj c #cc3880",
"ak c #a4487c",
"al c #140c14",
"am c #141624",
"an c #64244c",
"ao c #041a2c",
"ap c #3c0b1c",
"aq c #843e64",
"ar c #7c2e5c",
"as c #d45284",
"at c #6c264c",
"au c #342a34",
"av c #242c2c",
"aw c #4c122c",
"ax c #fc62b4",
"ay c #5c0634",
"az c #7c2654",
"aA c #3c0e34",
"aB c #c46694",
"aC c #8c0a44",
"aD c #ec4694",
"aE c #cc3a6c",
"aF c #242627",
"aG c #1c0a24",
"aH c #5c0e30",
"aI c #1c1a19",
"aJ c #cc3e74",
"aK c #142620",
"aL c #2c1a20",
"aM c #8c124c",
"aN c #6c022c",
"aO c #c44274",
"aP c #e42e8c",
"aQ c #dc6694",
"aR c #bc567c",
"aS c #d45e8c",
"aT c #9c2e6c",
"aU c #9c325c",
"aV c #fc6ab4",
"aW c #e45e94",
"aX c #94225c",
"aY c #6c2a54",
"aZ c #040606",
"a0 c #44061c",
"a1 c #24060c",
"a2 c #04160a",
"a3 c #cc5a7c",
"a4 c #14060b",
"a5 c #2c221f",
"a6 c #241624",
"a7 c #d46e94",
"a8 c #340614",
/* pixels */
"a5`zaFaF`w#y.zap.z`b.J`N#Q`U`w.zaLaF`C`K.c#2`4.J`4.aaLa5.3.z.z`o",
"`x`D.R``.d`d#3`x`j.a#6`H#`.d.d``.d```````````8#`aZ`x``.d.d`x.da4",
"`e`x.d`2```x`x`x.#ax#m.1``aZ`````2aZ.f#8.d.4.Z`P.A.U.d.v``.d`x`x",
"`d```j``aZaa.f#T#X#k.R`x`x#`.d`x`x#2aZ```B`O.U#..X.u`O```e`xaZaZ",
"`e`B``aa.U#S.r.g.G#HaP.waZ`xaZ`j`x`z``aZaZam#M#j`L###I`N```j``.d",
"a4.d`6#MaB`p`y.d`Y`O#1#Pag`y`x`d`j`````Aad#x`1`n#i`OaM.8`Z.A`jaZ",
".K``.Q#naV`Q.Y.raC.A```O#Z`sab#M`Raca##G.E`r.d.f```y#FaD`P.h`6aZ",
"aZay.0.m`G`8`6`ZaO#7.5aa`R`Rat`tag.TaT.U```z.7`k`W#O..araj`P`M`6",
"`j`T#r.xaZaZ```x`x`C#C`W.laG```ea4#8`d.KaHagagaY.x`x`x``#`#M#h#f",
".v`d#3```x``.daZ`e.f`j`f#U.h`da2a4``au#7ah.o```R.f````````.R#z.Q",
"`x.d`jaZ`x```j.d```d`Y`RaX.5a4aZ`R``#Q#uaN`jaZ`j.f`j````#`#`.d.R",
"aZ.v.v``aZ.d.d```jaZ`O#5ak``.v`r`G`Y`O`#aWa1``````.d.vaZ.d.v`x``",
"````````aZ`xaZaZ`e``#v#V.R#``HaS`P.F`Y`xaFaRap`x`e`````x.d```x.v",
".d``.da4```x`x.d`jaU`M```Y.I`3`E#`.Z`..f.d#J`u.a`x`xaZaZ.d.v````",
".daZ```j.da2aZ.f#s#5`6`x.M#d`S`x`e.RaS.P.U.Kaz.8`j```z````aZ````",
"aZ`xaZ.f`jaZ.d.e#Eaa`2aw.s#L````aZ`ja0`i.qaZ`Oaj`5.d`j.da2``.daZ",
"`j.x`x.dal.K#6#R```xa8a7ap``````.daZaZ`qa3`A`xaZaE#S``aZ`j`x`x`j",
"`O#x`V#`.f`has.4a4.U#a.P.f`zaZ`x.d`xaZ``.7#t`#`xa6#qa6aZaZ```#aZ",
".U.r.h`aae#t.I#`.R`J.O.da1`j`x`````B``aZ.d`QaJ`jaZ.o#d.I`6#4#e`A",
"`6`J.6`yaQ.B`N.f#l#b#3``aZ```xaZaZ`x`x`j.d.f`0af#`.A#s`F#D#V.maA",
"``.k#N.d`jaa`x#Aaial`````x`x.d.d.d`x``.d.d`xalah#M```R#5an.U.Dao",
"``ad#w#`aZ``.R`3#L```2```x`x`z.d```j.v`x``aZ``.P#Ya8`e```x.U#m`j",
"`j#B`v.R``.d``#g`M.U``.v`x``.d```x.d`zaZ``#`.U.j`3.n`j`x`Y#N`c.4",
"#`#6.taa.K`j````#g`3`r`e.d.f``aZ`xa2`d`d`x``#z`J#8.f`x.d.d#o.C.d",
"``.o.5.d`x.d.Ra4`X.i.``j.v```````x`x``.d`6aq`l#0a2.f`j.K.f.H`ZaZ",
"``.6`M.faZ#N#c#Wakan.R````aZ.v``aZaZaZ.v.d.4#B#T#d.Q`j``.R#r.V`6",
"`xaH#P#Y.pas`Z.f`O````.KaZ````````aZaZaZ.v.d`6a``n#P`I#p`Oa.aNaZ",
".d.N.2`g`7`j``aa`Y.K.KaZ``.v````````.v````aZ````.d.R`y.s#n.p.f`x",
"`x``aZ`x`x`x```j`xaZ``.d.d``aZaZ.v``aZ``aZ`xaZ`Y```D.daZalap`r.d",
"`x`x`xaZ``.d.d.d`j.d.x.x.d````.a``.d````.v.vaZaZaZ`x``.d`z```x`e",
"`j``.d.d.d``#````j.d````````.d````.vaZaZaZ```````jaZaZ``aZ`x`x`j",
".LaF`C.S.L`CaK.caI.W#2aKavaI.3.S.W.yaI`U.3#Kau.z.W#2.W.1`mava5.b"
};
