/* XPM */
static char *roundCube_xpm[] = {
/* width height num_colors chars_per_pixel */
"    32    32      256            2",
/* colors */
"`` c #040205",
"`. c #8c124c",
"`# c #440620",
"`a c #041e09",
"`b c #ac5684",
"`c c #240209",
"`d c #843157",
"`e c #041408",
"`f c #c43670",
"`g c #140307",
"`h c #4c223c",
"`i c #fc8ad4",
"`j c #e45a9c",
"`k c #e43880",
"`l c #24120c",
"`m c #242223",
"`n c #f46eb4",
"`o c #640a34",
"`p c #ac2e74",
"`q c #340210",
"`r c #fc027c",
"`s c #14051f",
"`t c #040b07",
"`u c #041224",
"`v c #fc57b9",
"`w c #e4468c",
"`x c #141412",
"`y c #b40e6c",
"`z c #1c2e14",
"`A c #6c2240",
"`B c #e466a4",
"`C c #44121c",
"`D c #a4466c",
"`E c #142018",
"`F c #140c0f",
"`G c #24051c",
"`H c #041a09",
"`I c #c44e7c",
"`J c #040317",
"`K c #8c224c",
"`L c #f44a9c",
"`M c #54163c",
"`N c #2c2a24",
"`O c #340224",
"`P c #84466c",
"`Q c #fc568c",
"`R c #641c38",
"`S c #e4428c",
"`T c #040c14",
"`U c #b46a9c",
"`V c #041316",
"`W c #341418",
"`X c #140b1f",
"`Y c #6c3654",
"`Z c #1c0308",
"`0 c #4c363c",
"`1 c #a43e6c",
"`2 c #ac527c",
"`3 c #142818",
"`4 c #04260c",
"`5 c #c4588c",
"`6 c #240e14",
"`7 c #dc327c",
"`8 c #341e20",
".` c #fc7aac",
".. c #1c1a14",
".# c #a42a60",
".a c #f4529c",
".b c #340b27",
".c c #fc58a9",
".d c #0c0307",
".e c #2c020b",
".f c #fc72dc",
".g c #1c1412",
".h c #f4629f",
".i c #b44474",
".j c #9c2264",
".k c #4c1e44",
".l c #f4408e",
".m c #841a34",
".n c #041f17",
".o c #fc72b8",
".p c #74064c",
".q c #1c031e",
".r c #0c0a09",
".s c #7c2254",
".t c #541628",
".u c #1c0d0f",
".v c #240c20",
".w c #d4528c",
".x c #0c0415",
".y c #8c4e64",
".z c #b41e5c",
".A c #94326c",
".B c #0c130c",
".C c #c43e6c",
".D c #140314",
".E c #5c223c",
".F c #fca2fc",
".G c #242624",
".H c #fc65b4",
".I c #e4528c",
".J c #742a54",
".K c #1c1f1f",
".L c #94226c",
".M c #7c1e44",
".N c #34122c",
".O c #b43c70",
".P c #fc4f99",
".Q c #3c0a27",
".R c #fc4199",
".S c #54021c",
".T c #b4627c",
".U c #240314",
".V c #cc3684",
".W c #fc90ec",
".X c #241a2c",
".Y c #2c1e1c",
".Z c #fc6bc1",
".0 c #641244",
".1 c #340a14",
".2 c #6c2654",
".3 c #2c021c",
".4 c #0c1a10",
".5 c #3c2c38",
".6 c #0c0b15",
".7 c #0c161c",
".8 c #fc5ea4",
"#` c #fc649c",
"#. c #d4286c",
"## c #cc769c",
"#a c #fc3294",
"#b c #1c1a3c",
"#c c #a41a4c",
"#d c #4c3e54",
"#e c #9c4664",
"#f c #b4326c",
"#g c #5c325c",
"#h c #642e44",
"#i c #d4568c",
"#j c #d43e7c",
"#k c #5c1e3c",
"#l c #7c2e54",
"#m c #841e4c",
"#n c #9c5074",
"#o c #4c1a34",
"#p c #b42664",
"#q c #fc66d4",
"#r c #241a1c",
"#s c #143624",
"#t c #942a4c",
"#u c #243224",
"#v c #bc4a7c",
"#w c #7c0e3c",
"#x c #3c1a3c",
"#y c #e44a9c",
"#z c #4c1a50",
"#A c #a4366c",
"#B c #c45284",
"#C c #ac5e84",
"#D c #fc92c4",
"#E c #441234",
"#F c #fc5e9c",
"#G c #8c2a6c",
"#H c #d45e9c",
"#I c #bc2674",
"#J c #4c3254",
"#K c #9c427c",
"#L c #2c161c",
"#M c #fc4a8c",
"#N c #6c1a40",
"#O c #3c161c",
"#P c #1c2620",
"#Q c #bc4674",
"#R c #dc4e84",
"#S c #9c2e5c",
"#T c #bc3e6c",
"#U c #bc668c",
"#V c #4c2a44",
"#W c #9c2a5c",
"#X c #7c3654",
"#Y c #6c0a44",
"#Z c #3c021c",
"#0 c #ac4674",
"#1 c #ec429c",
"#2 c #ec5d97",
"#3 c #ec3a84",
"#4 c #ec649c",
"#5 c #cc4a84",
"#6 c #5c1240",
"#7 c #1c0a1c",
"#8 c #74325c",
"a` c #ac3a74",
"a. c #ac2664",
"a# c #541a3c",
"aa c #0c2014",
"ab c #74224c",
"ac c #8c1c54",
"ad c #ec4694",
"ae c #94164c",
"af c #842e64",
"ag c #24161c",
"ah c #1c3224",
"ai c #142224",
"aj c #24022c",
"ak c #94264c",
"al c #3c0424",
"am c #fc599c",
"an c #341624",
"ao c #1c0214",
"ap c #b44e7c",
"aq c #042a1c",
"ar c #340a34",
"as c #1c161c",
"at c #b44684",
"au c #1c022c",
"av c #541a34",
"aw c #fc66c4",
"ax c #ec4e8c",
"ay c #7c1a54",
"az c #fc4fa4",
"aA c #fc62ac",
"aB c #d42a7c",
"aC c #fc469c",
"aD c #cc3670",
"aE c #fc6eb0",
"aF c #ec4684",
"aG c #742244",
"aH c #3c1e24",
"aI c #5c0224",
"aJ c #6c1248",
"aK c #bc265c",
"aL c #b45684",
"aM c #34021c",
"aN c #a4467c",
"aO c #041a14",
"aP c #2c2a34",
"aQ c #8c466c",
"aR c #2c0214",
"aS c #841a44",
"aT c #5c224c",
"aU c #2c1e2c",
"aV c #2c022c",
"aW c #bc326c",
"aX c #642e54",
"aY c #d43e8c",
"aZ c #1c3624",
"a0 c #942a5c",
"a1 c #cc5284",
"a2 c #fc92d4",
"a3 c #4c1234",
"a4 c #dc4e94",
"a5 c #bc3e7c",
"a6 c #040606",
"a7 c #440a24",
"a8 c #24060c",
/* pixels */
"`N.g.G#P.G.G.gaU.K#u`HaZaa`m`3`z`3aqaZ`x`N`W..`x`m`m`m`m`m`m`m`m",
"`````t.ra6``.r.d.d.B`ta6`g.e`Z``.D`c.d.d```H```e````````````````",
"a6`t`````xa6a6a6`g```t``.6``.3`oaya4#p.U`t`ta6.d````````````````",
"``a6``.d````a6.7```O.Aa``S.P.h`U.V`i.Ra1.b```t`c````````````````",
"`ta6`x`````F.d``.U.c.Z#aab.tao`s#I`p.q.z#R`g`c.d````````````````",
"a6a6a6``.u.d`Z.3#H#g#JaNaM``.x.j`2`T`sa6#h#F.6`T````````````````",
"```xa6a6.r`Za7#U.J.x.d.##i.k#E#2`x`Z.n`V.d#N#4.6````````````````",
"````a6`e``.1.T`Ka6`Z`Z`Va#.PaE.b`Z`t.d``.6`J.2.R````````````````",
"`t`c`e.d.0.caX`ga6`t``.d`G`7.f#z```g.d``a6`t```A.P.x`V.d.6`t```c",
"a6a6`XaJ.R#Aai`R#6`J.x`V`d`I`O`wae`t`V`#```H`Z`Z#w#M#ZaRa6`T`t.d",
"``au`r.FaA`f.l#3#1awaA.8aA`ga6#Lam`h`ta6.d.u`ea6.d`0.``R.d`e`e`g",
"`T`n.W.s.d.na6``.3#b`M#faCaD`Z```Gax`d``a6.d```e`ea6aR#`.t`Z```t",
"aY#qaj`J.d`V```e`t``a8.6`s.lazaVa6.Q`kaSa6`ga6a6.d`Z``.e#`.E`ga6",
".L#.`T`t`t```c`Z.d`g```Z`t`Jacaz#l`gaP#4aK`c`g`t`g``.n`e.x.P#6.D",
"`Jam.m.d`H`g.r````.4a6aq`t`t`eaU`B`Y.d`c#2.C``a8`X.Da6`u#x#Ya2#z",
"`t`8`Q`l``.e.d`e```g`t```Z.d`g.d.x.a.PaR`T.y#Tal`1ad.c`vazaB.Z`y",
"`t`g`K`5.Uao```e``a6`t```g`g```e`t.dakadaR`JaE`v#TaQas#7.x`eam`Z",
"`g`````5a..daO`g``.r``a6.4`````g``.d`Z`P#v.p`j.q`c`g``.U``#N#j.d",
"``.d.d.q`1#0`g`Z.7``.u.d`t`Ha6`g`c`t``a6#8.W.e`e`t`t``ao``.a#m`J",
"`e.d`ca6`T.O`f.da6.6`g`g.d```T``.d`g`T`Vaf`v#v.e.d`4``.d.U.H.3`J",
".ra6a6`g`T`Z.i#eao.d`````g.da6`t``.d`F`sam`s#t.w.S`e.da6#Sata6.x",
"`t``a6```Z``.d#QaLaM.d`t```F.d```ta6.d.H#c`Z`ga0aDan.d``.ha7`t.d",
"```g```t``a6``.Uap#n.b```x````.d.d`q#d.c`Z.v````.O.#.xal#2`Z`t``",
"`qa6`e.da6.B``a6#Z`d`b#k.da6a6``.d`Zaz.v`H`T```t.q`L.5.iaW.e``.r",
"`````````````````aa6.M.8#Wao.d``.U#C`DaM```T`````tav.l.o#oa6`g`e",
"````````````````.d`ca6`F#5.I.Q.d`.#n.Q``.r.d`F`g`T`Tac.o`gaO.d.d",
"`````````````````Z`t.d`Z```A.haG#KaT.x`J.6`````t`ga3##`#.d````a6",
"`````````````````t`g`````g``anaF.Z#y#Gar`X.X.N#V#B#D#X.6`g`g``a6",
"`````````````````g`a`H.d```x.daRaJa5`k.P.caCaz.l#.aI`Z`g`Z``a6``",
"````````````````a6.d```t```g``aO`T.r.d`g``````.D`Z.d`a`ea6```e.d",
"`````````````````t`g`6``a6.ga6a6`e```F`g.d`x``a6aO`g`t.B``a8``.g",
"`m`m`m`m`m`m`m`m`8#P#r`W#r`E.g`C#O.Y.K#saa#L.5`x#Lah`EaHag.K`N.."
};
