/* XPM */
static char *snow_xpm[] = {
/* width height num_colors chars_per_pixel */
"    32    32      256            2",
/* colors */
"`` c #040305",
"`. c #840a3c",
"`# c #440620",
"`a c #944c74",
"`b c #c42c64",
"`c c #041a0c",
"`d c #240210",
"`e c #842a54",
"`f c #442a3c",
"`g c #a42a64",
"`h c #cc4c80",
"`i c #040f07",
"`j c #640234",
"`k c #240e19",
"`l c #ec6eb4",
"`m c #e42674",
"`n c #a43a6c",
"`o c #14020a",
"`p c #ec4a8c",
"`q c #4c172e",
"`r c #c43b7c",
"`s c #843a5c",
"`t c #241b1a",
"`u c #340216",
"`v c #a41f59",
"`w c #ec5a94",
"`x c #140e10",
"`y c #d43c80",
"`z c #441028",
"`A c #0c2a24",
"`B c #641941",
"`C c #b43e78",
"`D c #bc4a7c",
"`E c #141c1a",
"`F c #942e60",
"`G c #341224",
"`H c #040a06",
"`I c #841c44",
"`J c #642a4c",
"`K c #b42c68",
"`L c #14031c",
"`M c #240327",
"`N c #7c4a5c",
"`O c #041609",
"`P c #643858",
"`Q c #941a44",
"`R c #540428",
"`S c #140a0d",
"`T c #c4427c",
"`U c #fc5db0",
"`V c #040315",
"`W c #4c253f",
"`X c #943e61",
"`Y c #6c2448",
"`Z c #14221c",
"`0 c #240a10",
"`1 c #040f15",
"`2 c #241030",
"`3 c #e43a84",
"`4 c #a44376",
"`5 c #440634",
"`6 c #d45a88",
"`7 c #1c0209",
"`8 c #ec528c",
".` c #b45981",
".. c #94345f",
".# c #842549",
".a c #fc7ab4",
".b c #341c30",
".c c #340727",
".d c #d44581",
".e c #141a2c",
".f c #742e4c",
".g c #b43469",
".h c #9c5a84",
".i c #d42a6c",
".j c #2c020f",
".k c #84365c",
".l c #241618",
".m c #b44270",
".n c #fc3ea4",
".o c #0c0306",
".p c #a43268",
".q c #dc4a8c",
".r c #740244",
".s c #541b3c",
".t c #ec66a4",
".u c #141614",
".v c #540e24",
".w c #741c4c",
".x c #341622",
".y c #a44a70",
".z c #04221c",
".A c #0c110a",
".B c #a43e7c",
".C c #c43e88",
".D c #84426c",
".E c #b41a64",
".F c #c44a84",
".G c #1c1c1b",
".H c #c4468c",
".I c #842264",
".J c #dc438e",
".K c #4c0a2c",
".L c #c43284",
".M c #0c1b11",
".N c #d0528c",
".O c #f476ac",
".P c #140414",
".Q c #fc4a97",
".R c #24222c",
".S c #040a15",
".T c #7c375f",
".U c #fc63ac",
".V c #944274",
".W c #9c3264",
".X c #8c244c",
".Y c #b4367c",
".Z c #a43677",
".0 c #4c021c",
".1 c #24031c",
".2 c #2c1020",
".3 c #441840",
".4 c #cc3d77",
".5 c #2c1a1c",
".6 c #3c0a1c",
".7 c #a4265c",
".8 c #141020",
"#` c #6c1e54",
"#. c #9c0e54",
"## c #f4328c",
"#a c #5c2a3c",
"#b c #fc52a6",
"#c c #942654",
"#d c #dc669c",
"#e c #8c164c",
"#f c #e44387",
"#g c #740c40",
"#h c #7c265c",
"#i c #640e34",
"#j c #dc366c",
"#k c #fc7ad4",
"#l c #fc5ea4",
"#m c #b4527c",
"#n c #fc6cb8",
"#o c #5c223c",
"#p c #fc62a4",
"#q c #fc468c",
"#r c #6c3252",
"#s c #342224",
"#t c #7c324c",
"#u c #ac5a7c",
"#v c #8c3e74",
"#w c #841a54",
"#x c #9c1e5c",
"#y c #bc457f",
"#z c #fc76c4",
"#A c #9c527c",
"#B c #1c0a24",
"#C c #280a24",
"#D c #4c0a3c",
"#E c #e45294",
"#F c #bc226c",
"#G c #b44a8c",
"#H c #0c1619",
"#I c #fc82c4",
"#J c #c4527c",
"#K c #941654",
"#L c #540f36",
"#M c #fc4ea8",
"#N c #8c2c58",
"#O c #f44e9c",
"#P c #ac2264",
"#Q c #f45ca4",
"#R c #dc3a8c",
"#S c #4c1030",
"#T c #9c2c58",
"#U c #bc2e74",
"#V c #ac426c",
"#W c #f45498",
"#X c #bc5a8c",
"#Y c #7c2c50",
"#Z c #8c345a",
"#0 c #ac4a7c",
"#1 c #8c4264",
"#2 c #ec4694",
"#3 c #7c0c48",
"#4 c #fc82cc",
"#5 c #fc46a0",
"#6 c #ac3a6c",
"#7 c #3c021c",
"#8 c #1c221c",
"a` c #2c0a1c",
"a. c #2c1620",
"a# c #d44d84",
"aa c #8c3e61",
"ab c #1c1214",
"ac c #bc3a78",
"ad c #3c1128",
"ae c #1c0624",
"af c #2c0624",
"ag c #6c3654",
"ah c #5c062c",
"ai c #cc4377",
"aj c #0c0414",
"ak c #54263c",
"al c #742444",
"am c #0c0e18",
"an c #2c0e34",
"ao c #4c0436",
"ap c #3c1a2c",
"aq c #3c0826",
"ar c #dc4280",
"as c #1c1d24",
"at c #ac366c",
"au c #f464a0",
"av c #7c1a44",
"aw c #ac3b7f",
"ax c #cc4288",
"ay c #cc3680",
"az c #fc72b4",
"aA c #9c406c",
"aB c #bc3274",
"aC c #8c1e5c",
"aD c #44032c",
"aE c #c42e74",
"aF c #241224",
"aG c #241a24",
"aH c #64164c",
"aI c #b42e74",
"aJ c #fc5ebc",
"aK c #1c0314",
"aL c #94326c",
"aM c #842454",
"aN c #742a5c",
"aO c #2c031c",
"aP c #5c1a3c",
"aQ c #a44e7c",
"aR c #0c1a1c",
"aS c #8c2e64",
"aT c #9c2a64",
"aU c #ac467c",
"aV c #8c3264",
"aW c #8c4674",
"aX c #ac2a5c",
"aY c #6c023c",
"aZ c #0c0a0b",
"a0 c #6c2a54",
"a1 c #9c3e64",
"a2 c #dc2a74",
"a3 c #1c1612",
"a4 c #ac3674",
"a5 c #ac2664",
"a6 c #bc4a94",
"a7 c #041a1c",
"a8 c #e42684",
/* pixels */
"`t.G#8.u`t.l`tasaFas.M`t`c`q.f.b`i.M.x`0.G.A.x.A.u.G`E.u.la..2ab",
"````````.o`````````S``.oaZaP`w.iaP`````H`i```H```````i`H```````H",
"`````````````````V`````o``#c#L.x`3.p````aK`G.k..`S`````````````i",
"``````````````.o#FaP`o```V`naq``.e`r.U#d`4aI#P#M`k.o.o.o.o.o````",
"```````````````k#W`b`X`V`M.JaW.4.h`v`K`paM.Sanay``````.o````.o`o",
"````.o```H```oak`e.P#t.`#3#4aYap`o```7`oaa.J#haN`i``````````````",
"``.o.o```````d`s`W`d.o#H`l#M.S``.o````````.Kaz.E`o`7`7`o```H`H``",
"``.o.o``````.j.yad``.oam.3a8aj``.o`i``.o```o.aar#i...`.Taf.o.o`o",
"`i``````.S``aOa##L`FaB.Jau..aO.o.o`H`i`7``.o.U#E#1#o#Z#T`O.o`7`H",
"`o.oaZ.oadaA#W.U`g.T.baO#0.m#r``````.z`o``a`at`2```daX.X````````",
"```7`6a#.D#3ay#L`1.oaO`BaAah#Y#uap`R`Q#j#J#m#Q`L`VaO.d#7`H`o`o.o",
".o```Ia2aq`V.TaL`K.d.4.g#g`u`d.x`D.gaa`q#H`W#5ax`j.P`a.P``````.o",
"```c```zaxaC`4#b`Y`G```1``aZ```i```7.P``.o`B#U`M#X`C#T`i.P`7.o``",
"`o`HaKaK`M#b#n.Z`x.o`7.o```i``.o```o``aZ.o`#`TaVaK#f`8ad`7.o`H`i",
"`H.6`h.`.F#R#naH`H```S.o.o```H`H``.oaZ`H`i``aO`e#A#y`e.d.#`````o",
"`7#a#p#e`V.r`U`2```x.o.o```H`o`7aZ`````H.o.o`````5#b.3aO..`a.j``",
"`````katac#B#Q.Haq.A.o`i.o```H`i````````````````ao.Caw#SaT.Qai``",
"``.o`i.o`Y`r##aoar#raj`i.oaj`7`7`7```H`H`H`````Sao#z#b#P#Ya.`H``",
"`H`o``aR.o.7#n.waK#ZaM`7```1`o```H`H````.PaK.o``.V.Q#f#raK`o```S",
"`i`o`d.o`i`X`R#Naw`C`P`o`7.8.s`F`7`o.o`7`u.#ai`y.Z.CaD`P`X`z`H`7",
"`i.o.o`i``.g`G``#D.n#2`v.4a#ac#Z.m`q.o`N`6.g.sa7afaS.1.2#f#q.0`H",
".o`i`H``.6#Vaj.S`Vaw#ragad`````o`#a1#6#Z.caj.1`q#y`U`raQ..#S#H``",
"`7````.oav.y`d`5.IaJae`H.o.j`7`i`O`d.g`U#.a4.N`b.t#xaD````aj``.o",
".o`7aK`i`Iau.q#ya6#k`L````.o```H```d.w.B#``W`````y.c.S`V.o```H`o",
"````````aZ`ta3``#w#I`L``.j```H`i```1.L#v.S`SaKaK.F.j`H``.o```H``",
"``````````.o.o``.c#O`4.s`o`i.o```OaK`U#5at.vaZ`f`n`7`H``.o``````",
"````````````````.p#gadaE`vaj`ual#c.J#nao.sai.X.7al`o`i``.o````.o",
"````````````````.ZaH#C#Kaz.O`m`g.#aD.Yao```G#N#laq```i``.o````.o",
"`````````````````p.N`4.Wad#CaU`J.S.1#Gaj`1``.o.8`o```i``.o````.o",
"`````````````````u`7aK.P`1``aqaa`ha5a0``.o```i.P`````H``.o````.o",
"``````````````````am```i`i.o`o.o#L.Q`.`S```````d``````.o.o```H``",
"`E.G.G.G.G.u.u.G.Ga3.G#s`0.G`E`Ea7.RaG.A#8a3.M`Aas`Ea3.5a3`E`Z`E"
};
