/* XPM */
static char *spike_xpm[] = {
/* width height num_colors chars_per_pixel */
"    32    32      256            2",
/* colors */
"`` c #040204",
"`. c #a46284",
"`# c #8c0a44",
"`a c #440624",
"`b c #041e14",
"`c c #8c3a64",
"`d c #240204",
"`e c #dc3674",
"`f c #041204",
"`g c #44223c",
"`h c #140204",
"`i c #cc4a7c",
"`j c #c41664",
"`k c #040a04",
"`l c #b4366c",
"`m c #2c1224",
"`n c #640224",
"`o c #242224",
"`p c #8c2254",
"`q c #fc8ed4",
"`r c #fc4a94",
"`s c #44122c",
"`t c #340214",
"`u c #642244",
"`v c #e45ea4",
"`w c #141214",
"`x c #bc4a7c",
"`y c #ec3e84",
"`z c #040e1c",
"`A c #74325c",
"`B c #042a0c",
"`C c #140a0c",
"`D c #a42e6c",
"`E c #040214",
"`F c #fc76b4",
"`G c #a44678",
"`H c #141e14",
"`I c #2c0e1c",
"`J c #0c0a09",
"`K c #ec5a8c",
"`L c #54022c",
"`M c #24021f",
"`N c #041a0c",
"`O c #14021c",
"`P c #242a24",
"`Q c #7c2254",
"`R c #9c365c",
"`S c #cc4284",
"`T c #041217",
"`U c #cc5a8c",
"`V c #bc2e5c",
"`W c #541230",
"`X c #fc66bc",
"`Y c #34021e",
"`Z c #ac567c",
"`0 c #14261c",
"`1 c #0c0206",
"`2 c #b41674",
"`3 c #1c0208",
"`4 c #c44684",
"`5 c #3c2228",
"`6 c #842e4c",
"`7 c #f46294",
"`8 c #841644",
".` c #2c0208",
".. c #c4366c",
".# c #341228",
".a c #fc4ebc",
".b c #c44a84",
".c c #b4327c",
".d c #5c0234",
".e c #e42e7c",
".f c #f466a4",
".g c #dc4a8c",
".h c #040a14",
".i c #64163c",
".j c #24261f",
".k c #f4528c",
".l c #441a30",
".m c #141a14",
".n c #ec42a4",
".o c #0c0616",
".p c #1c1e1c",
".q c #0c0a14",
".r c #742a4f",
".s c #a43e6c",
".t c #340e2c",
".u c #bc628c",
".v c #e43a88",
".w c #0c120c",
".x c #542e54",
".y c #f44a9c",
".z c #642e44",
".A c #6c3a54",
".B c #b43267",
".C c #fc56a4",
".D c #dc4684",
".E c #0c1214",
".F c #bc328c",
".G c #3c021c",
".H c #9c165c",
".I c #7c2a50",
".J c #040605",
".K c #440a2c",
".L c #8c3e64",
".M c #041607",
".N c #140214",
".O c #d44a7c",
".P c #040e08",
".Q c #ac3e5c",
".R c #9c2664",
".S c #4c1224",
".T c #b4528c",
".U c #fc3e94",
".V c #0c0a1c",
".W c #1c0a14",
".X c #040617",
".Y c #fc76e4",
".Z c #0c0e0a",
".0 c #2c0224",
".1 c #a43664",
".2 c #d4468c",
".3 c #e45a8c",
".4 c #bc2a6c",
".5 c #54163c",
".6 c #0c0606",
".7 c #1c0214",
".8 c #943264",
"#` c #8c1664",
"#. c #fcb2fc",
"## c #fc9efc",
"#a c #342e4c",
"#b c #7c1a44",
"#c c #2c163c",
"#d c #6c0e3c",
"#e c #d43e94",
"#f c #540a34",
"#g c #bc2268",
"#h c #9c527c",
"#i c #7c3e5c",
"#j c #fc7eec",
"#k c #b45e84",
"#l c #9c0e4c",
"#m c #54263c",
"#n c #241a14",
"#o c #f44694",
"#p c #540a24",
"#q c #841e44",
"#r c #bc3e7c",
"#s c #ec5aa4",
"#t c #843264",
"#u c #fc5eac",
"#v c #0c261c",
"#w c #3c1a2c",
"#x c #dc3e84",
"#y c #942a54",
"#z c #c4528c",
"#A c #b43e74",
"#B c #fc6ad4",
"#C c #4c022c",
"#D c #2c1e24",
"#E c #0c2a1c",
"#F c #ac325c",
"#G c #5c061c",
"#H c #d45a84",
"#I c #fc66b0",
"#J c #c45e7c",
"#K c #5c2e44",
"#L c #743e64",
"#M c #5c0e44",
"#N c #24322c",
"#O c #b43294",
"#P c #3c0204",
"#Q c #2c262c",
"#R c #bc527c",
"#S c #8c1e54",
"#T c #94365c",
"#U c #1c1614",
"#V c #1c061c",
"#W c #fc5e9c",
"#X c #6c1a44",
"#Y c #94425c",
"#Z c #c42a74",
"#0 c #f4569c",
"#1 c #8c2e5c",
"#2 c #6c2644",
"#3 c #cc468c",
"#4 c #2c0614",
"#5 c #ec46b4",
"#6 c #1c2224",
"#7 c #a4427c",
"#8 c #6c2a44",
"a` c #d45694",
"a. c #7c3254",
"a# c #1c261f",
"aa c #1c1a19",
"ab c #fc4aa0",
"ac c #5c1644",
"ad c #0c1e14",
"ae c #240214",
"af c #640234",
"ag c #9c366c",
"ah c #b43274",
"ai c #3c022c",
"aj c #c43e7c",
"ak c #2c1e34",
"al c #3c0214",
"am c #14060c",
"an c #b43a74",
"ao c #fc4e8c",
"ap c #14221c",
"aq c #140624",
"ar c #cc467c",
"as c #041614",
"at c #34061c",
"au c #ac5a84",
"av c #1c0604",
"aw c #2c060c",
"ax c #341624",
"ay c #c44e7c",
"az c #e43284",
"aA c #dc4e84",
"aB c #1c2219",
"aC c #7c2e4c",
"aD c #d44e84",
"aE c #9c2a5c",
"aF c #4c162c",
"aG c #0c0e20",
"aH c #2c061c",
"aI c #a43a6c",
"aJ c #fc82e4",
"aK c #b4628c",
"aL c #4c0634",
"aM c #fc6ab4",
"aN c #44162c",
"aO c #642644",
"aP c #bc4e7c",
"aQ c #040e14",
"aR c #0c0e14",
"aS c #fc5aa4",
"aT c #0c1614",
"aU c #1c0e14",
"aV c #540e34",
"aW c #0c2e1c",
"aX c #5c3244",
"aY c #c42e74",
"aZ c #04020c",
"a0 c #24020c",
"a1 c #04120c",
"a2 c #14020c",
"a3 c #cc4a84",
"a4 c #040a0c",
"a5 c #14121c",
"a6 c #ec3e8c",
"a7 c #140a14",
"a8 c #04021c",
/* pixels */
".p.p.p.p.p.p.p.p.p.p.p.p.p.p.p.p`P.j`oaaaa.paBaB.#aW`B.j`0`b#D#6",
"`````````````````````````````````k````````.6.6````a2.`.J`k.Ea1.`",
"````````````````````````````````.P.J```````1`1`1`ka2``#V`Mae#2am",
".J.J.J.J.J.J.J.J.J.J.J.J.J.J.J.J`1````.J.J``````.6`k`Eaq`2#..C`T",
"`````````````````````````````````ham.J``.J`TaR``#P.J#a#5##.a.t``",
"`````````````````````````````````1``.J.P.P``aZ.N`A.v.n.Y#B.G`h.w",
"``````````````````````````````````````.J`1ae`uau.F#e#j.y`saG.J`k",
"``````````````````````````````````.Z```1#KaK.b#l#OaJ.H#k`3```1`h",
"`1``.J`k`k.J.J.J`````k.J`1```k.P`1.JaH.eab.xa8#o#I`L.uae.P```k``",
"````.J.J`````````````h`3.Z.J`1.6at#A#0`#`EaGa`#uaf#r.l`1`h`k.J`J",
"```````1`1`1`1`1```3.J`k.Z```t`V`raI.X.h.5aM#o`Oa.`Ga2am`1a1```J",
".J`````1`1``.J.J``as```1a2.raD#F`YaZ.J.Lazan`Y.5`..Wa0`C.P.6````",
"````````.J`k.P.Pa4`1`1aCao...#.PaQak.s.f.B`1.VaD.l```h``a1```J``",
"``````.J.J`````1``.r`y`eaN.J.J``#f#r.UaE`E.7`Z.I```I`k.J`1.P````",
"``.J.J.J```3al#GaA#RaX`1`3`3a2#m.e#x`G`E.h`8ay``.J`3`k.J`1.P````",
".J.J.J```h.S.Q`7#b`t``a1.P`3#q.O`4`Q`E.X#C`Uae`1`h`fav``.P`1.6``",
"```1.o.0.4`r.A`1```kaR`1`Mah.2.c.za0.6``#J`n.P.J````````````````",
".P.q`p#0#ta5`ta4.M`1.J`YaY#t.8#S`1`w```R#Y``a0`k````````````````",
"aZaS#s`O`TaQ```h```T.ia3`c.g#8a2.Pa1`6ay`h.J`1`k````````````````",
".o#g#Iai`z.NaT`k.N.I`x#Xar`W`d.Masal.3#4.J`3.Z.J````````````````",
"aZ.Xa6#u.daZ.Jaw.Raj`WaPaF`1`f.6a0.k#p`J`````h`k````````````````",
".7`1aZ.y.C`ga7`i`j#fay#w`k```C`1.B#Ta2```C``````````````````````",
"`1`k`TaL.v`S#zaVac#Wax``.P.Ja0aO#H``am````#U.M`h````````````````",
"`k.P`1aZ.r#Z#3`D#ha2`d`1.P```Y.T`ma2.J```J.P``.J````````````````",
"`1```k```3#1aSab`k`````h`3a2#R#d````````````````````````````````",
"`1``.J.J`1.Kag`v#gaZa4aU``#y.B.h````````````````````````````````",
"`1````.J.J`1.t#L`X#Ma8`T`a`Ka4``````````````````````````````````",
"``.J````.J``aZ.o#``q#c.N.D`5.P``````````````````````````````````",
"`k`k``````.6.J```M#7`F`l#ia2.J`1.J.J.J.J.J.J.J.J.J.J.J.J.J.J.J.J",
".J.J`````1`1`1`1aZ.o.1..`h`1a2.P````````````````````````````````",
"``.J````.J`````1```Na0`1`kaU.J``````````````````````````````````",
"aa#Qa#.mapa#a#aB.j#n#E#Nad#v`5`H.p.p.p.p.p.p.p.p.p.p.p.p.p.p.p.p"
};
