/* XPM */
static char *square_xpm[] = {
/* width height num_colors chars_per_pixel */
"    32    32      256            2",
/* colors */
"`` c #351f11",
"`. c #2c382a",
"`# c #25181f",
"`a c #40273c",
"`b c #1d3237",
"`c c #22222a",
"`d c #511b33",
"`e c #3c202f",
"`f c #2f281e",
"`g c #031000",
"`h c #001000",
"`i c #0c0004",
"`j c #170012",
"`k c #000f13",
"`l c #000e0e",
"`m c #010002",
"`n c #000c09",
"`o c #05050f",
"`p c #050100",
"`q c #0d080f",
"`r c #ad3a75",
"`s c #fc5dad",
"`t c #e469aa",
"`u c #fa64ab",
"`v c #ff57a1",
"`w c #fc63a4",
"`x c #fd53ac",
"`y c #180509",
"`z c #080009",
"`A c #f25ba0",
"`B c #fa4a9d",
"`C c #862159",
"`D c #921f56",
"`E c #801241",
"`F c #81274d",
"`G c #6b285d",
"`H c #000606",
"`I c #021116",
"`J c #e163a2",
"`K c #952764",
"`L c #080012",
"`M c #0f0013",
"`N c #00090a",
"`O c #031111",
"`P c #00000a",
"`Q c #090007",
"`R c #000811",
"`S c #fb5eab",
"`T c #911659",
"`U c #0a0017",
"`V c #2c0c23",
"`W c #020006",
"`X c #180006",
"`Y c #000500",
"`Z c #2c0108",
"`0 c #020806",
"`1 c #ff5093",
"`2 c #8e184a",
"`3 c #000f09",
"`4 c #061007",
"`5 c #001b00",
"`6 c #050e00",
"`7 c #0f0002",
"`8 c #0f0101",
".` c #000b09",
".. c #ff599e",
".# c #8f1d50",
".a c #00080a",
".b c #160000",
".c c #080c00",
".d c #340000",
".e c #000106",
".f c #070000",
".g c #fc52b2",
".h c #6c2a5a",
".i c #05060b",
".j c #000403",
".k c #120000",
".l c #00000c",
".m c #000000",
".n c #000000",
".o c #000000",
".p c #000000",
".q c #000000",
".r c #000000",
".s c #000000",
".t c #000000",
".u c #000000",
".v c #000000",
".w c #000000",
".x c #000000",
".y c #000000",
".z c #000000",
".A c #000000",
".B c #000000",
".C c #000000",
".D c #000000",
".E c #000000",
".F c #000000",
".G c #000000",
".H c #000000",
".I c #000000",
".J c #000000",
".K c #000000",
".L c #000000",
".M c #000000",
".N c #000000",
".O c #000000",
".P c #000000",
".Q c #000000",
".R c #000000",
".S c #000000",
".T c #000000",
".U c #000000",
".V c #000000",
".W c #000000",
".X c #000000",
".Y c #000000",
".Z c #000000",
".0 c #000000",
".1 c #000000",
".2 c #000000",
".3 c #000000",
".4 c #000000",
".5 c #000000",
".6 c #000000",
".7 c #000000",
".8 c #000000",
"#` c #000000",
"#. c #000000",
"## c #000000",
"#a c #000000",
"#b c #000000",
"#c c #000000",
"#d c #000000",
"#e c #000000",
"#f c #000000",
"#g c #000000",
"#h c #000000",
"#i c #000000",
"#j c #000000",
"#k c #000000",
"#l c #000000",
"#m c #000000",
"#n c #000000",
"#o c #000000",
"#p c #000000",
"#q c #000000",
"#r c #000000",
"#s c #000000",
"#t c #000000",
"#u c #000000",
"#v c #000000",
"#w c #000000",
"#x c #000000",
"#y c #000000",
"#z c #000000",
"#A c #000000",
"#B c #000000",
"#C c #000000",
"#D c #000000",
"#E c #000000",
"#F c #000000",
"#G c #000000",
"#H c #000000",
"#I c #000000",
"#J c #000000",
"#K c #000000",
"#L c #000000",
"#M c #000000",
"#N c #000000",
"#O c #000000",
"#P c #000000",
"#Q c #000000",
"#R c #000000",
"#S c #000000",
"#T c #000000",
"#U c #000000",
"#V c #000000",
"#W c #000000",
"#X c #000000",
"#Y c #000000",
"#Z c #000000",
"#0 c #000000",
"#1 c #000000",
"#2 c #000000",
"#3 c #000000",
"#4 c #000000",
"#5 c #000000",
"#6 c #000000",
"#7 c #000000",
"#8 c #000000",
"a` c #000000",
"a. c #000000",
"a# c #000000",
"aa c #000000",
"ab c #000000",
"ac c #000000",
"ad c #000000",
"ae c #000000",
"af c #000000",
"ag c #000000",
"ah c #000000",
"ai c #000000",
"aj c #000000",
"ak c #000000",
"al c #000000",
"am c #000000",
"an c #000000",
"ao c #000000",
"ap c #000000",
"aq c #000000",
"ar c #000000",
"as c #000000",
"at c #000000",
"au c #000000",
"av c #000000",
"aw c #000000",
"ax c #000000",
"ay c #000000",
"az c #000000",
"aA c #000000",
"aB c #000000",
"aC c #000000",
"aD c #000000",
"aE c #000000",
"aF c #000000",
"aG c #000000",
"aH c #000000",
"aI c #000000",
"aJ c #000000",
"aK c #000000",
"aL c #000000",
"aM c #000000",
"aN c #000000",
"aO c #000000",
"aP c #000000",
"aQ c #000000",
"aR c #000000",
"aS c #000000",
"aT c #000000",
"aU c #000000",
"aV c #000000",
"aW c #000000",
"aX c #000000",
"aY c #000000",
"aZ c #000000",
"a0 c #000000",
"a1 c #000000",
"a2 c #000000",
"a3 c #000000",
"a4 c #000000",
"a5 c #000000",
"a6 c #000000",
"a7 c #000000",
"a8 c #000000",
/* pixels */
"```.`#`a`b`c`d`e`f`f`f`f`f`f`f`f`f`f`f`f`f`f`f`f`e`d`c`b`a`#`.``",
"`g`h`i`j`k`l`m`n`o`o`o`o`o`o`o`o`o`o`o`o`o`o`o`o`n`m`l`k`j`i`h`g",
"`p`q`r`s`t`u`v`w`x`x`x`x`x`x`x`x`x`x`x`x`x`x`x`x`w`v`u`t`s`r`q`p",
"`y`z`A`B`C`D`E`F`G`G`G`G`G`G`G`G`G`G`G`G`G`G`G`G`F`E`D`C`B`A`z`y",
"`H`I`J`K`L`M`N`O`P`P`P`P`P`P`P`P`P`P`P`P`P`P`P`P`O`N`M`L`K`J`I`H",
"`Q`R`S`T`U`V`W`X`Y`Y`Y`Y`Y`Y`Y`Y`Y`Y`Y`Y`Y`Y`Y`Y`X`W`V`U`T`S`R`Q",
"`Z`0`1`2`3`4`5`6`7`7`7`7`7`7`7`7`7`7`7`7`7`7`7`7`6`5`4`3`2`1`0`Z",
"`8.`...#.a.b.c.d.e.e.e.e.e.e.e.e.e.e.e.e.e.e.e.e.d.c.b.a.#...``8",
".f`P.g.h.i.j.k.l.m.m.m.m.m.m.m.m.m.m.m.m.m.m.m.m.l.k.j.i.h.g`P.f",
".f`P.g.h.i.j.k.l.m.m.m.m.m.m.m.m.m.m.m.m.m.m.m.m.l.k.j.i.h.g`P.f",
".f`P.g.h.i.j.k.l.m.m.m.m.m.m.m.m.m.m.m.m.m.m.m.m.l.k.j.i.h.g`P.f",
".f`P.g.h.i.j.k.l.m.m.m.m.m.m.m.m.m.m.m.m.m.m.m.m.l.k.j.i.h.g`P.f",
".f`P.g.h.i.j.k.l.m.m.m.m.m.m.m.m.m.m.m.m.m.m.m.m.l.k.j.i.h.g`P.f",
".f`P.g.h.i.j.k.l.m.m.m.m.m.m.m.m.m.m.m.m.m.m.m.m.l.k.j.i.h.g`P.f",
".f`P.g.h.i.j.k.l.m.m.m.m.m.m.m.m.m.m.m.m.m.m.m.m.l.k.j.i.h.g`P.f",
".f`P.g.h.i.j.k.l.m.m.m.m.m.m.m.m.m.m.m.m.m.m.m.m.l.k.j.i.h.g`P.f",
".f`P.g.h.i.j.k.l.m.m.m.m.m.m.m.m.m.m.m.m.m.m.m.m.l.k.j.i.h.g`P.f",
".f`P.g.h.i.j.k.l.m.m.m.m.m.m.m.m.m.m.m.m.m.m.m.m.l.k.j.i.h.g`P.f",
".f`P.g.h.i.j.k.l.m.m.m.m.m.m.m.m.m.m.m.m.m.m.m.m.l.k.j.i.h.g`P.f",
".f`P.g.h.i.j.k.l.m.m.m.m.m.m.m.m.m.m.m.m.m.m.m.m.l.k.j.i.h.g`P.f",
".f`P.g.h.i.j.k.l.m.m.m.m.m.m.m.m.m.m.m.m.m.m.m.m.l.k.j.i.h.g`P.f",
".f`P.g.h.i.j.k.l.m.m.m.m.m.m.m.m.m.m.m.m.m.m.m.m.l.k.j.i.h.g`P.f",
".f`P.g.h.i.j.k.l.m.m.m.m.m.m.m.m.m.m.m.m.m.m.m.m.l.k.j.i.h.g`P.f",
".f`P.g.h.i.j.k.l.m.m.m.m.m.m.m.m.m.m.m.m.m.m.m.m.l.k.j.i.h.g`P.f",
"`8.`...#.a.b.c.d.e.e.e.e.e.e.e.e.e.e.e.e.e.e.e.e.d.c.b.a.#...``8",
"`Z`0`1`2`3`4`5`6`7`7`7`7`7`7`7`7`7`7`7`7`7`7`7`7`6`5`4`3`2`1`0`Z",
"`Q`R`S`T`U`V`W`X`Y`Y`Y`Y`Y`Y`Y`Y`Y`Y`Y`Y`Y`Y`Y`Y`X`W`V`U`T`S`R`Q",
"`H`I`J`K`L`M`N`O`P`P`P`P`P`P`P`P`P`P`P`P`P`P`P`P`O`N`M`L`K`J`I`H",
"`y`z`A`B`C`D`E`F`G`G`G`G`G`G`G`G`G`G`G`G`G`G`G`G`F`E`D`C`B`A`z`y",
"`p`q`r`s`t`u`v`w`x`x`x`x`x`x`x`x`x`x`x`x`x`x`x`x`w`v`u`t`s`r`q`p",
"`g`h`i`j`k`l`m`n`o`o`o`o`o`o`o`o`o`o`o`o`o`o`o`o`n`m`l`k`j`i`h`g",
"```.`#`a`b`c`d`e`f`f`f`f`f`f`f`f`f`f`f`f`f`f`f`f`e`d`c`b`a`#`.``"
};
